<!DOCTYPE svg PUBLIC "-//W3C//DTD SVG 1.1//EN" "http://www.w3.org/Graphics/SVG/1.1/DTD/svg11.dtd">
<svg width="15001" height="20001" xmlns="http://www.w3.org/2000/svg">
 <line x1="0" y1="73" x2="0" y2="140" style="stroke: black; stroke-width: 1" />
 <line x1="0" y1="140" x2="6" y2="140" style="stroke: black; stroke-width: 1" />
 <line x1="6" y1="140" x2="6" y2="73" style="stroke: black; stroke-width: 1" />
 <line x1="6" y1="73" x2="0" y2="73" style="stroke: black; stroke-width: 1" />
 <line x1="10" y1="73" x2="10" y2="140" style="stroke: black; stroke-width: 1" />
 <line x1="20" y1="85" x2="20" y2="84" style="stroke: black; stroke-width: 1" />
 <line x1="20" y1="84" x2="20" y2="83" style="stroke: black; stroke-width: 1" />
 <line x1="20" y1="83" x2="20" y2="82" style="stroke: black; stroke-width: 1" />
 <line x1="20" y1="82" x2="21" y2="81" style="stroke: black; stroke-width: 1" />
 <line x1="21" y1="81" x2="21" y2="81" style="stroke: black; stroke-width: 1" />
 <line x1="21" y1="81" x2="22" y2="80" style="stroke: black; stroke-width: 1" />
 <line x1="22" y1="80" x2="23" y2="80" style="stroke: black; stroke-width: 1" />
 <line x1="23" y1="80" x2="24" y2="80" style="stroke: black; stroke-width: 1" />
 <line x1="24" y1="80" x2="25" y2="80" style="stroke: black; stroke-width: 1" />
 <line x1="25" y1="80" x2="25" y2="80" style="stroke: black; stroke-width: 1" />
 <line x1="25" y1="80" x2="26" y2="80" style="stroke: black; stroke-width: 1" />
 <line x1="26" y1="80" x2="27" y2="80" style="stroke: black; stroke-width: 1" />
 <line x1="27" y1="80" x2="28" y2="81" style="stroke: black; stroke-width: 1" />
 <line x1="28" y1="81" x2="28" y2="81" style="stroke: black; stroke-width: 1" />
 <line x1="28" y1="81" x2="29" y2="82" style="stroke: black; stroke-width: 1" />
 <line x1="29" y1="82" x2="29" y2="83" style="stroke: black; stroke-width: 1" />
 <line x1="29" y1="83" x2="29" y2="84" style="stroke: black; stroke-width: 1" />
 <line x1="29" y1="84" x2="30" y2="85" style="stroke: black; stroke-width: 1" />
 <line x1="30" y1="85" x2="29" y2="85" style="stroke: black; stroke-width: 1" />
 <line x1="29" y1="85" x2="29" y2="86" style="stroke: black; stroke-width: 1" />
 <line x1="29" y1="86" x2="29" y2="87" style="stroke: black; stroke-width: 1" />
 <line x1="29" y1="87" x2="28" y2="88" style="stroke: black; stroke-width: 1" />
 <line x1="28" y1="88" x2="28" y2="88" style="stroke: black; stroke-width: 1" />
 <line x1="28" y1="88" x2="27" y2="89" style="stroke: black; stroke-width: 1" />
 <line x1="27" y1="89" x2="26" y2="89" style="stroke: black; stroke-width: 1" />
 <line x1="26" y1="89" x2="25" y2="89" style="stroke: black; stroke-width: 1" />
 <line x1="25" y1="89" x2="25" y2="90" style="stroke: black; stroke-width: 1" />
 <line x1="25" y1="90" x2="24" y2="89" style="stroke: black; stroke-width: 1" />
 <line x1="24" y1="89" x2="23" y2="89" style="stroke: black; stroke-width: 1" />
 <line x1="23" y1="89" x2="22" y2="89" style="stroke: black; stroke-width: 1" />
 <line x1="22" y1="89" x2="21" y2="88" style="stroke: black; stroke-width: 1" />
 <line x1="21" y1="88" x2="21" y2="88" style="stroke: black; stroke-width: 1" />
 <line x1="21" y1="88" x2="20" y2="87" style="stroke: black; stroke-width: 1" />
 <line x1="20" y1="87" x2="20" y2="86" style="stroke: black; stroke-width: 1" />
 <line x1="20" y1="86" x2="20" y2="85" style="stroke: black; stroke-width: 1" />
 <line x1="20" y1="85" x2="20" y2="85" style="stroke: black; stroke-width: 1" />
 <line x1="20" y1="85" x2="20" y2="82" style="stroke: black; stroke-width: 1" />
 <line x1="20" y1="82" x2="21" y2="80" style="stroke: black; stroke-width: 1" />
 <line x1="21" y1="80" x2="23" y2="76" style="stroke: black; stroke-width: 1" />
 <line x1="23" y1="76" x2="26" y2="75" style="stroke: black; stroke-width: 1" />
 <line x1="26" y1="75" x2="30" y2="74" style="stroke: black; stroke-width: 1" />
 <line x1="30" y1="74" x2="33" y2="73" style="stroke: black; stroke-width: 1" />
 <line x1="33" y1="73" x2="40" y2="73" style="stroke: black; stroke-width: 1" />
 <line x1="40" y1="73" x2="43" y2="75" style="stroke: black; stroke-width: 1" />
 <line x1="43" y1="75" x2="46" y2="79" style="stroke: black; stroke-width: 1" />
 <line x1="46" y1="79" x2="48" y2="80" style="stroke: black; stroke-width: 1" />
 <line x1="48" y1="80" x2="49" y2="83" style="stroke: black; stroke-width: 1" />
 <line x1="49" y1="83" x2="50" y2="86" style="stroke: black; stroke-width: 1" />
 <line x1="50" y1="86" x2="50" y2="92" style="stroke: black; stroke-width: 1" />
 <line x1="50" y1="92" x2="49" y2="95" style="stroke: black; stroke-width: 1" />
 <line x1="49" y1="95" x2="48" y2="96" style="stroke: black; stroke-width: 1" />
 <line x1="48" y1="96" x2="43" y2="99" style="stroke: black; stroke-width: 1" />
 <line x1="43" y1="99" x2="40" y2="100" style="stroke: black; stroke-width: 1" />
 <line x1="40" y1="100" x2="36" y2="100" style="stroke: black; stroke-width: 1" />
 <line x1="36" y1="100" x2="30" y2="100" style="stroke: black; stroke-width: 1" />
 <line x1="30" y1="100" x2="20" y2="100" style="stroke: black; stroke-width: 1" />
 <line x1="20" y1="100" x2="20" y2="113" style="stroke: black; stroke-width: 1" />
 <line x1="20" y1="113" x2="30" y2="112" style="stroke: black; stroke-width: 1" />
 <line x1="30" y1="112" x2="36" y2="112" style="stroke: black; stroke-width: 1" />
 <line x1="36" y1="112" x2="40" y2="113" style="stroke: black; stroke-width: 1" />
 <line x1="40" y1="113" x2="43" y2="114" style="stroke: black; stroke-width: 1" />
 <line x1="43" y1="114" x2="48" y2="116" style="stroke: black; stroke-width: 1" />
 <line x1="48" y1="116" x2="49" y2="118" style="stroke: black; stroke-width: 1" />
 <line x1="49" y1="118" x2="50" y2="121" style="stroke: black; stroke-width: 1" />
 <line x1="50" y1="121" x2="50" y2="126" style="stroke: black; stroke-width: 1" />
 <line x1="50" y1="126" x2="49" y2="130" style="stroke: black; stroke-width: 1" />
 <line x1="49" y1="130" x2="48" y2="133" style="stroke: black; stroke-width: 1" />
 <line x1="48" y1="133" x2="46" y2="134" style="stroke: black; stroke-width: 1" />
 <line x1="46" y1="134" x2="43" y2="137" style="stroke: black; stroke-width: 1" />
 <line x1="43" y1="137" x2="40" y2="140" style="stroke: black; stroke-width: 1" />
 <line x1="40" y1="140" x2="33" y2="140" style="stroke: black; stroke-width: 1" />
 <line x1="33" y1="140" x2="30" y2="139" style="stroke: black; stroke-width: 1" />
 <line x1="30" y1="139" x2="26" y2="137" style="stroke: black; stroke-width: 1" />
 <line x1="26" y1="137" x2="23" y2="136" style="stroke: black; stroke-width: 1" />
 <line x1="23" y1="136" x2="21" y2="133" style="stroke: black; stroke-width: 1" />
 <line x1="21" y1="133" x2="20" y2="130" style="stroke: black; stroke-width: 1" />
 <line x1="22" y1="100" x2="22" y2="113" style="stroke: black; stroke-width: 1" />
 <line x1="33" y1="73" x2="36" y2="74" style="stroke: black; stroke-width: 1" />
 <line x1="36" y1="74" x2="40" y2="76" style="stroke: black; stroke-width: 1" />
 <line x1="40" y1="76" x2="43" y2="80" style="stroke: black; stroke-width: 1" />
 <line x1="43" y1="80" x2="44" y2="83" style="stroke: black; stroke-width: 1" />
 <line x1="44" y1="83" x2="44" y2="90" style="stroke: black; stroke-width: 1" />
 <line x1="44" y1="90" x2="42" y2="93" style="stroke: black; stroke-width: 1" />
 <line x1="42" y1="93" x2="40" y2="97" style="stroke: black; stroke-width: 1" />
 <line x1="40" y1="97" x2="36" y2="99" style="stroke: black; stroke-width: 1" />
 <line x1="36" y1="99" x2="30" y2="100" style="stroke: black; stroke-width: 1" />
 <line x1="33" y1="140" x2="36" y2="139" style="stroke: black; stroke-width: 1" />
 <line x1="36" y1="139" x2="40" y2="137" style="stroke: black; stroke-width: 1" />
 <line x1="40" y1="137" x2="43" y2="133" style="stroke: black; stroke-width: 1" />
 <line x1="43" y1="133" x2="44" y2="130" style="stroke: black; stroke-width: 1" />
 <line x1="44" y1="130" x2="44" y2="123" style="stroke: black; stroke-width: 1" />
 <line x1="44" y1="123" x2="42" y2="120" style="stroke: black; stroke-width: 1" />
 <line x1="42" y1="120" x2="40" y2="116" style="stroke: black; stroke-width: 1" />
 <line x1="40" y1="116" x2="36" y2="114" style="stroke: black; stroke-width: 1" />
 <line x1="36" y1="114" x2="30" y2="112" style="stroke: black; stroke-width: 1" />
 <line x1="20" y1="128" x2="20" y2="127" style="stroke: black; stroke-width: 1" />
 <line x1="20" y1="127" x2="20" y2="126" style="stroke: black; stroke-width: 1" />
 <line x1="20" y1="126" x2="20" y2="125" style="stroke: black; stroke-width: 1" />
 <line x1="20" y1="125" x2="21" y2="125" style="stroke: black; stroke-width: 1" />
 <line x1="21" y1="125" x2="21" y2="124" style="stroke: black; stroke-width: 1" />
 <line x1="21" y1="124" x2="22" y2="124" style="stroke: black; stroke-width: 1" />
 <line x1="22" y1="124" x2="23" y2="123" style="stroke: black; stroke-width: 1" />
 <line x1="23" y1="123" x2="24" y2="123" style="stroke: black; stroke-width: 1" />
 <line x1="24" y1="123" x2="25" y2="123" style="stroke: black; stroke-width: 1" />
 <line x1="25" y1="123" x2="25" y2="123" style="stroke: black; stroke-width: 1" />
 <line x1="25" y1="123" x2="26" y2="123" style="stroke: black; stroke-width: 1" />
 <line x1="26" y1="123" x2="27" y2="124" style="stroke: black; stroke-width: 1" />
 <line x1="27" y1="124" x2="28" y2="124" style="stroke: black; stroke-width: 1" />
 <line x1="28" y1="124" x2="28" y2="125" style="stroke: black; stroke-width: 1" />
 <line x1="28" y1="125" x2="29" y2="125" style="stroke: black; stroke-width: 1" />
 <line x1="29" y1="125" x2="29" y2="126" style="stroke: black; stroke-width: 1" />
 <line x1="29" y1="126" x2="29" y2="127" style="stroke: black; stroke-width: 1" />
 <line x1="29" y1="127" x2="30" y2="128" style="stroke: black; stroke-width: 1" />
 <line x1="30" y1="128" x2="29" y2="129" style="stroke: black; stroke-width: 1" />
 <line x1="29" y1="129" x2="29" y2="130" style="stroke: black; stroke-width: 1" />
 <line x1="29" y1="130" x2="29" y2="130" style="stroke: black; stroke-width: 1" />
 <line x1="29" y1="130" x2="28" y2="131" style="stroke: black; stroke-width: 1" />
 <line x1="28" y1="131" x2="28" y2="132" style="stroke: black; stroke-width: 1" />
 <line x1="28" y1="132" x2="27" y2="132" style="stroke: black; stroke-width: 1" />
 <line x1="27" y1="132" x2="26" y2="133" style="stroke: black; stroke-width: 1" />
 <line x1="26" y1="133" x2="25" y2="133" style="stroke: black; stroke-width: 1" />
 <line x1="25" y1="133" x2="25" y2="133" style="stroke: black; stroke-width: 1" />
 <line x1="25" y1="133" x2="24" y2="133" style="stroke: black; stroke-width: 1" />
 <line x1="24" y1="133" x2="23" y2="133" style="stroke: black; stroke-width: 1" />
 <line x1="23" y1="133" x2="22" y2="132" style="stroke: black; stroke-width: 1" />
 <line x1="22" y1="132" x2="21" y2="132" style="stroke: black; stroke-width: 1" />
 <line x1="21" y1="132" x2="21" y2="131" style="stroke: black; stroke-width: 1" />
 <line x1="21" y1="131" x2="20" y2="130" style="stroke: black; stroke-width: 1" />
 <line x1="20" y1="130" x2="20" y2="130" style="stroke: black; stroke-width: 1" />
 <line x1="20" y1="130" x2="20" y2="129" style="stroke: black; stroke-width: 1" />
 <line x1="20" y1="129" x2="20" y2="128" style="stroke: black; stroke-width: 1" />
 <line x1="0" y1="140" x2="49" y2="140" style="stroke: black; stroke-width: 1" />
 <line x1="0" y1="123" x2="49" y2="123" style="stroke: black; stroke-width: 1" />
 <line x1="0" y1="106" x2="49" y2="106" style="stroke: black; stroke-width: 1" />
 <line x1="0" y1="90" x2="49" y2="90" style="stroke: black; stroke-width: 1" />
 <line x1="0" y1="73" x2="49" y2="73" style="stroke: black; stroke-width: 1" />
</svg>
