<!DOCTYPE svg PUBLIC "-//W3C//DTD SVG 1.1//EN" "http://www.w3.org/Graphics/SVG/1.1/DTD/svg11.dtd">
<svg width="6486" height="60001" xmlns="http://www.w3.org/2000/svg">
 <line x1="1" y1="45" x2="1" y2="44" style="stroke: black; stroke-width: 1" />
 <line x1="1" y1="44" x2="1" y2="42" style="stroke: black; stroke-width: 1" />
 <line x1="1" y1="42" x2="1" y2="41" style="stroke: black; stroke-width: 1" />
 <line x1="1" y1="41" x2="1" y2="39" style="stroke: black; stroke-width: 1" />
 <line x1="1" y1="39" x2="2" y2="38" style="stroke: black; stroke-width: 1" />
 <line x1="2" y1="38" x2="3" y2="37" style="stroke: black; stroke-width: 1" />
 <line x1="3" y1="37" x2="4" y2="35" style="stroke: black; stroke-width: 1" />
 <line x1="4" y1="35" x2="5" y2="34" style="stroke: black; stroke-width: 1" />
 <line x1="5" y1="34" x2="7" y2="33" style="stroke: black; stroke-width: 1" />
 <line x1="7" y1="33" x2="8" y2="32" style="stroke: black; stroke-width: 1" />
 <line x1="8" y1="32" x2="10" y2="32" style="stroke: black; stroke-width: 1" />
 <line x1="10" y1="32" x2="12" y2="31" style="stroke: black; stroke-width: 1" />
 <line x1="12" y1="31" x2="13" y2="31" style="stroke: black; stroke-width: 1" />
 <line x1="13" y1="31" x2="15" y2="31" style="stroke: black; stroke-width: 1" />
 <line x1="15" y1="31" x2="16" y2="32" style="stroke: black; stroke-width: 1" />
 <line x1="16" y1="32" x2="18" y2="32" style="stroke: black; stroke-width: 1" />
 <line x1="18" y1="32" x2="19" y2="33" style="stroke: black; stroke-width: 1" />
 <line x1="19" y1="33" x2="19" y2="34" style="stroke: black; stroke-width: 1" />
 <line x1="19" y1="34" x2="20" y2="35" style="stroke: black; stroke-width: 1" />
 <line x1="20" y1="35" x2="20" y2="37" style="stroke: black; stroke-width: 1" />
 <line x1="20" y1="37" x2="20" y2="38" style="stroke: black; stroke-width: 1" />
 <line x1="20" y1="38" x2="20" y2="40" style="stroke: black; stroke-width: 1" />
 <line x1="20" y1="40" x2="19" y2="41" style="stroke: black; stroke-width: 1" />
 <line x1="19" y1="41" x2="18" y2="42" style="stroke: black; stroke-width: 1" />
 <line x1="18" y1="42" x2="17" y2="44" style="stroke: black; stroke-width: 1" />
 <line x1="17" y1="44" x2="16" y2="45" style="stroke: black; stroke-width: 1" />
 <line x1="16" y1="45" x2="14" y2="46" style="stroke: black; stroke-width: 1" />
 <line x1="14" y1="46" x2="12" y2="47" style="stroke: black; stroke-width: 1" />
 <line x1="12" y1="47" x2="11" y2="47" style="stroke: black; stroke-width: 1" />
 <line x1="11" y1="47" x2="9" y2="48" style="stroke: black; stroke-width: 1" />
 <line x1="9" y1="48" x2="7" y2="48" style="stroke: black; stroke-width: 1" />
 <line x1="7" y1="48" x2="6" y2="48" style="stroke: black; stroke-width: 1" />
 <line x1="6" y1="48" x2="4" y2="47" style="stroke: black; stroke-width: 1" />
 <line x1="4" y1="47" x2="3" y2="47" style="stroke: black; stroke-width: 1" />
 <line x1="3" y1="47" x2="2" y2="46" style="stroke: black; stroke-width: 1" />
 <line x1="2" y1="46" x2="1" y2="45" style="stroke: black; stroke-width: 1" />
 <line x1="2" y1="44" x2="2" y2="43" style="stroke: black; stroke-width: 1" />
 <line x1="2" y1="43" x2="2" y2="42" style="stroke: black; stroke-width: 1" />
 <line x1="2" y1="42" x2="2" y2="41" style="stroke: black; stroke-width: 1" />
 <line x1="2" y1="41" x2="2" y2="40" style="stroke: black; stroke-width: 1" />
 <line x1="2" y1="40" x2="3" y2="39" style="stroke: black; stroke-width: 1" />
 <line x1="3" y1="39" x2="4" y2="38" style="stroke: black; stroke-width: 1" />
 <line x1="4" y1="38" x2="5" y2="37" style="stroke: black; stroke-width: 1" />
 <line x1="5" y1="37" x2="6" y2="36" style="stroke: black; stroke-width: 1" />
 <line x1="6" y1="36" x2="8" y2="35" style="stroke: black; stroke-width: 1" />
 <line x1="8" y1="35" x2="9" y2="34" style="stroke: black; stroke-width: 1" />
 <line x1="9" y1="34" x2="11" y2="34" style="stroke: black; stroke-width: 1" />
 <line x1="11" y1="34" x2="12" y2="33" style="stroke: black; stroke-width: 1" />
 <line x1="12" y1="33" x2="14" y2="33" style="stroke: black; stroke-width: 1" />
 <line x1="14" y1="33" x2="15" y2="33" style="stroke: black; stroke-width: 1" />
 <line x1="15" y1="33" x2="16" y2="33" style="stroke: black; stroke-width: 1" />
 <line x1="16" y1="33" x2="17" y2="34" style="stroke: black; stroke-width: 1" />
 <line x1="17" y1="34" x2="18" y2="34" style="stroke: black; stroke-width: 1" />
 <line x1="18" y1="34" x2="18" y2="35" style="stroke: black; stroke-width: 1" />
 <line x1="18" y1="35" x2="19" y2="36" style="stroke: black; stroke-width: 1" />
 <line x1="19" y1="36" x2="19" y2="37" style="stroke: black; stroke-width: 1" />
 <line x1="19" y1="37" x2="19" y2="38" style="stroke: black; stroke-width: 1" />
 <line x1="19" y1="38" x2="18" y2="39" style="stroke: black; stroke-width: 1" />
 <line x1="18" y1="39" x2="17" y2="40" style="stroke: black; stroke-width: 1" />
 <line x1="17" y1="40" x2="17" y2="41" style="stroke: black; stroke-width: 1" />
 <line x1="17" y1="41" x2="15" y2="42" style="stroke: black; stroke-width: 1" />
 <line x1="15" y1="42" x2="14" y2="43" style="stroke: black; stroke-width: 1" />
 <line x1="14" y1="43" x2="13" y2="44" style="stroke: black; stroke-width: 1" />
 <line x1="13" y1="44" x2="11" y2="45" style="stroke: black; stroke-width: 1" />
 <line x1="11" y1="45" x2="10" y2="45" style="stroke: black; stroke-width: 1" />
 <line x1="10" y1="45" x2="8" y2="46" style="stroke: black; stroke-width: 1" />
 <line x1="8" y1="46" x2="7" y2="46" style="stroke: black; stroke-width: 1" />
 <line x1="7" y1="46" x2="6" y2="46" style="stroke: black; stroke-width: 1" />
 <line x1="6" y1="46" x2="4" y2="46" style="stroke: black; stroke-width: 1" />
 <line x1="4" y1="46" x2="3" y2="45" style="stroke: black; stroke-width: 1" />
 <line x1="3" y1="45" x2="3" y2="45" style="stroke: black; stroke-width: 1" />
 <line x1="3" y1="45" x2="2" y2="44" style="stroke: black; stroke-width: 1" />
 <line x1="1" y1="44" x2="1" y2="119" style="stroke: black; stroke-width: 1" />
 <line x1="1" y1="119" x2="3" y2="115" style="stroke: black; stroke-width: 1" />
 <line x1="3" y1="115" x2="4" y2="114" style="stroke: black; stroke-width: 1" />
 <line x1="4" y1="114" x2="7" y2="112" style="stroke: black; stroke-width: 1" />
 <line x1="7" y1="112" x2="9" y2="111" style="stroke: black; stroke-width: 1" />
 <line x1="9" y1="111" x2="11" y2="110" style="stroke: black; stroke-width: 1" />
 <line x1="11" y1="110" x2="13" y2="108" style="stroke: black; stroke-width: 1" />
 <line x1="13" y1="108" x2="14" y2="105" style="stroke: black; stroke-width: 1" />
 <line x1="14" y1="105" x2="17" y2="102" style="stroke: black; stroke-width: 1" />
 <line x1="17" y1="102" x2="17" y2="99" style="stroke: black; stroke-width: 1" />
 <line x1="17" y1="99" x2="17" y2="95" style="stroke: black; stroke-width: 1" />
 <line x1="17" y1="95" x2="17" y2="89" style="stroke: black; stroke-width: 1" />
 <line x1="17" y1="89" x2="17" y2="92" style="stroke: black; stroke-width: 1" />
 <line x1="17" y1="92" x2="16" y2="95" style="stroke: black; stroke-width: 1" />
 <line x1="16" y1="95" x2="14" y2="97" style="stroke: black; stroke-width: 1" />
 <line x1="14" y1="97" x2="13" y2="99" style="stroke: black; stroke-width: 1" />
 <line x1="13" y1="99" x2="11" y2="101" style="stroke: black; stroke-width: 1" />
 <line x1="11" y1="101" x2="9" y2="103" style="stroke: black; stroke-width: 1" />
 <line x1="9" y1="103" x2="7" y2="104" style="stroke: black; stroke-width: 1" />
 <line x1="7" y1="104" x2="5" y2="105" style="stroke: black; stroke-width: 1" />
 <line x1="5" y1="105" x2="4" y2="106" style="stroke: black; stroke-width: 1" />
 <line x1="4" y1="106" x2="2" y2="109" style="stroke: black; stroke-width: 1" />
 <line x1="2" y1="109" x2="1" y2="112" style="stroke: black; stroke-width: 1" />
 <line x1="1" y1="112" x2="1" y2="115" style="stroke: black; stroke-width: 1" />
 <line x1="1" y1="115" x2="1" y2="119" style="stroke: black; stroke-width: 1" />
 <line x1="1" y1="102" x2="3" y2="99" style="stroke: black; stroke-width: 1" />
 <line x1="3" y1="99" x2="4" y2="97" style="stroke: black; stroke-width: 1" />
 <line x1="4" y1="97" x2="7" y2="95" style="stroke: black; stroke-width: 1" />
 <line x1="7" y1="95" x2="9" y2="94" style="stroke: black; stroke-width: 1" />
 <line x1="9" y1="94" x2="11" y2="93" style="stroke: black; stroke-width: 1" />
 <line x1="11" y1="93" x2="13" y2="91" style="stroke: black; stroke-width: 1" />
 <line x1="13" y1="91" x2="14" y2="89" style="stroke: black; stroke-width: 1" />
 <line x1="14" y1="89" x2="17" y2="85" style="stroke: black; stroke-width: 1" />
 <line x1="17" y1="85" x2="17" y2="82" style="stroke: black; stroke-width: 1" />
 <line x1="17" y1="82" x2="17" y2="79" style="stroke: black; stroke-width: 1" />
 <line x1="17" y1="79" x2="17" y2="72" style="stroke: black; stroke-width: 1" />
 <line x1="17" y1="72" x2="17" y2="75" style="stroke: black; stroke-width: 1" />
 <line x1="17" y1="75" x2="16" y2="79" style="stroke: black; stroke-width: 1" />
 <line x1="16" y1="79" x2="14" y2="80" style="stroke: black; stroke-width: 1" />
 <line x1="14" y1="80" x2="13" y2="83" style="stroke: black; stroke-width: 1" />
 <line x1="13" y1="83" x2="11" y2="85" style="stroke: black; stroke-width: 1" />
 <line x1="11" y1="85" x2="9" y2="86" style="stroke: black; stroke-width: 1" />
 <line x1="9" y1="86" x2="7" y2="87" style="stroke: black; stroke-width: 1" />
 <line x1="7" y1="87" x2="5" y2="88" style="stroke: black; stroke-width: 1" />
 <line x1="5" y1="88" x2="4" y2="89" style="stroke: black; stroke-width: 1" />
 <line x1="4" y1="89" x2="2" y2="92" style="stroke: black; stroke-width: 1" />
 <line x1="2" y1="92" x2="1" y2="95" style="stroke: black; stroke-width: 1" />
 <line x1="1" y1="95" x2="1" y2="99" style="stroke: black; stroke-width: 1" />
 <line x1="1" y1="99" x2="1" y2="102" style="stroke: black; stroke-width: 1" />
 <line x1="0" y1="140" x2="21" y2="140" style="stroke: black; stroke-width: 1" />
 <line x1="0" y1="123" x2="21" y2="123" style="stroke: black; stroke-width: 1" />
 <line x1="0" y1="106" x2="21" y2="106" style="stroke: black; stroke-width: 1" />
 <line x1="0" y1="90" x2="21" y2="90" style="stroke: black; stroke-width: 1" />
 <line x1="0" y1="73" x2="21" y2="73" style="stroke: black; stroke-width: 1" />
 <line x1="0" y1="56" x2="21" y2="56" style="stroke: black; stroke-width: 1" />
 <line x1="0" y1="40" x2="21" y2="40" style="stroke: black; stroke-width: 1" />
</svg>
