<!DOCTYPE svg PUBLIC "-//W3C//DTD SVG 1.1//EN" "http://www.w3.org/Graphics/SVG/1.1/DTD/svg11.dtd">
<svg width="11486" height="60001" xmlns="http://www.w3.org/2000/svg">
 <line x1="1" y1="186" x2="1" y2="185" style="stroke: black; stroke-width: 1" />
 <line x1="1" y1="185" x2="1" y2="184" style="stroke: black; stroke-width: 1" />
 <line x1="1" y1="184" x2="1" y2="182" style="stroke: black; stroke-width: 1" />
 <line x1="1" y1="182" x2="1" y2="181" style="stroke: black; stroke-width: 1" />
 <line x1="1" y1="181" x2="2" y2="180" style="stroke: black; stroke-width: 1" />
 <line x1="2" y1="180" x2="3" y2="178" style="stroke: black; stroke-width: 1" />
 <line x1="3" y1="178" x2="4" y2="177" style="stroke: black; stroke-width: 1" />
 <line x1="4" y1="177" x2="5" y2="176" style="stroke: black; stroke-width: 1" />
 <line x1="5" y1="176" x2="7" y2="175" style="stroke: black; stroke-width: 1" />
 <line x1="7" y1="175" x2="8" y2="174" style="stroke: black; stroke-width: 1" />
 <line x1="8" y1="174" x2="10" y2="173" style="stroke: black; stroke-width: 1" />
 <line x1="10" y1="173" x2="12" y2="173" style="stroke: black; stroke-width: 1" />
 <line x1="12" y1="173" x2="13" y2="173" style="stroke: black; stroke-width: 1" />
 <line x1="13" y1="173" x2="15" y2="173" style="stroke: black; stroke-width: 1" />
 <line x1="15" y1="173" x2="16" y2="173" style="stroke: black; stroke-width: 1" />
 <line x1="16" y1="173" x2="18" y2="174" style="stroke: black; stroke-width: 1" />
 <line x1="18" y1="174" x2="19" y2="175" style="stroke: black; stroke-width: 1" />
 <line x1="19" y1="175" x2="19" y2="176" style="stroke: black; stroke-width: 1" />
 <line x1="19" y1="176" x2="20" y2="177" style="stroke: black; stroke-width: 1" />
 <line x1="20" y1="177" x2="20" y2="178" style="stroke: black; stroke-width: 1" />
 <line x1="20" y1="178" x2="20" y2="180" style="stroke: black; stroke-width: 1" />
 <line x1="20" y1="180" x2="20" y2="181" style="stroke: black; stroke-width: 1" />
 <line x1="20" y1="181" x2="19" y2="183" style="stroke: black; stroke-width: 1" />
 <line x1="19" y1="183" x2="18" y2="184" style="stroke: black; stroke-width: 1" />
 <line x1="18" y1="184" x2="17" y2="185" style="stroke: black; stroke-width: 1" />
 <line x1="17" y1="185" x2="16" y2="187" style="stroke: black; stroke-width: 1" />
 <line x1="16" y1="187" x2="14" y2="188" style="stroke: black; stroke-width: 1" />
 <line x1="14" y1="188" x2="12" y2="188" style="stroke: black; stroke-width: 1" />
 <line x1="12" y1="188" x2="11" y2="189" style="stroke: black; stroke-width: 1" />
 <line x1="11" y1="189" x2="9" y2="189" style="stroke: black; stroke-width: 1" />
 <line x1="9" y1="189" x2="7" y2="190" style="stroke: black; stroke-width: 1" />
 <line x1="7" y1="190" x2="6" y2="189" style="stroke: black; stroke-width: 1" />
 <line x1="6" y1="189" x2="4" y2="189" style="stroke: black; stroke-width: 1" />
 <line x1="4" y1="189" x2="3" y2="188" style="stroke: black; stroke-width: 1" />
 <line x1="3" y1="188" x2="2" y2="187" style="stroke: black; stroke-width: 1" />
 <line x1="2" y1="187" x2="1" y2="186" style="stroke: black; stroke-width: 1" />
 <line x1="2" y1="186" x2="2" y2="185" style="stroke: black; stroke-width: 1" />
 <line x1="2" y1="185" x2="2" y2="184" style="stroke: black; stroke-width: 1" />
 <line x1="2" y1="184" x2="2" y2="183" style="stroke: black; stroke-width: 1" />
 <line x1="2" y1="183" x2="2" y2="182" style="stroke: black; stroke-width: 1" />
 <line x1="2" y1="182" x2="3" y2="181" style="stroke: black; stroke-width: 1" />
 <line x1="3" y1="181" x2="4" y2="180" style="stroke: black; stroke-width: 1" />
 <line x1="4" y1="180" x2="5" y2="179" style="stroke: black; stroke-width: 1" />
 <line x1="5" y1="179" x2="6" y2="178" style="stroke: black; stroke-width: 1" />
 <line x1="6" y1="178" x2="8" y2="177" style="stroke: black; stroke-width: 1" />
 <line x1="8" y1="177" x2="9" y2="176" style="stroke: black; stroke-width: 1" />
 <line x1="9" y1="176" x2="11" y2="176" style="stroke: black; stroke-width: 1" />
 <line x1="11" y1="176" x2="12" y2="175" style="stroke: black; stroke-width: 1" />
 <line x1="12" y1="175" x2="14" y2="175" style="stroke: black; stroke-width: 1" />
 <line x1="14" y1="175" x2="15" y2="175" style="stroke: black; stroke-width: 1" />
 <line x1="15" y1="175" x2="16" y2="175" style="stroke: black; stroke-width: 1" />
 <line x1="16" y1="175" x2="17" y2="175" style="stroke: black; stroke-width: 1" />
 <line x1="17" y1="175" x2="18" y2="176" style="stroke: black; stroke-width: 1" />
 <line x1="18" y1="176" x2="18" y2="176" style="stroke: black; stroke-width: 1" />
 <line x1="18" y1="176" x2="19" y2="177" style="stroke: black; stroke-width: 1" />
 <line x1="19" y1="177" x2="19" y2="178" style="stroke: black; stroke-width: 1" />
 <line x1="19" y1="178" x2="19" y2="179" style="stroke: black; stroke-width: 1" />
 <line x1="19" y1="179" x2="18" y2="180" style="stroke: black; stroke-width: 1" />
 <line x1="18" y1="180" x2="17" y2="181" style="stroke: black; stroke-width: 1" />
 <line x1="17" y1="181" x2="17" y2="183" style="stroke: black; stroke-width: 1" />
 <line x1="17" y1="183" x2="15" y2="184" style="stroke: black; stroke-width: 1" />
 <line x1="15" y1="184" x2="14" y2="185" style="stroke: black; stroke-width: 1" />
 <line x1="14" y1="185" x2="13" y2="185" style="stroke: black; stroke-width: 1" />
 <line x1="13" y1="185" x2="11" y2="186" style="stroke: black; stroke-width: 1" />
 <line x1="11" y1="186" x2="10" y2="187" style="stroke: black; stroke-width: 1" />
 <line x1="10" y1="187" x2="8" y2="187" style="stroke: black; stroke-width: 1" />
 <line x1="8" y1="187" x2="7" y2="187" style="stroke: black; stroke-width: 1" />
 <line x1="7" y1="187" x2="6" y2="188" style="stroke: black; stroke-width: 1" />
 <line x1="6" y1="188" x2="4" y2="187" style="stroke: black; stroke-width: 1" />
 <line x1="4" y1="187" x2="3" y2="187" style="stroke: black; stroke-width: 1" />
 <line x1="3" y1="187" x2="3" y2="187" style="stroke: black; stroke-width: 1" />
 <line x1="3" y1="187" x2="2" y2="186" style="stroke: black; stroke-width: 1" />
 <line x1="20" y1="181" x2="20" y2="123" style="stroke: black; stroke-width: 1" />
 <line x1="20" y1="123" x2="22" y2="126" style="stroke: black; stroke-width: 1" />
 <line x1="22" y1="126" x2="23" y2="128" style="stroke: black; stroke-width: 1" />
 <line x1="23" y1="128" x2="26" y2="130" style="stroke: black; stroke-width: 1" />
 <line x1="26" y1="130" x2="28" y2="131" style="stroke: black; stroke-width: 1" />
 <line x1="28" y1="131" x2="30" y2="132" style="stroke: black; stroke-width: 1" />
 <line x1="30" y1="132" x2="32" y2="134" style="stroke: black; stroke-width: 1" />
 <line x1="32" y1="134" x2="33" y2="136" style="stroke: black; stroke-width: 1" />
 <line x1="33" y1="136" x2="36" y2="140" style="stroke: black; stroke-width: 1" />
 <line x1="36" y1="140" x2="36" y2="143" style="stroke: black; stroke-width: 1" />
 <line x1="36" y1="143" x2="37" y2="146" style="stroke: black; stroke-width: 1" />
 <line x1="37" y1="146" x2="37" y2="153" style="stroke: black; stroke-width: 1" />
 <line x1="37" y1="153" x2="37" y2="150" style="stroke: black; stroke-width: 1" />
 <line x1="37" y1="150" x2="35" y2="146" style="stroke: black; stroke-width: 1" />
 <line x1="35" y1="146" x2="33" y2="144" style="stroke: black; stroke-width: 1" />
 <line x1="33" y1="144" x2="32" y2="142" style="stroke: black; stroke-width: 1" />
 <line x1="32" y1="142" x2="30" y2="140" style="stroke: black; stroke-width: 1" />
 <line x1="30" y1="140" x2="28" y2="139" style="stroke: black; stroke-width: 1" />
 <line x1="28" y1="139" x2="27" y2="138" style="stroke: black; stroke-width: 1" />
 <line x1="27" y1="138" x2="25" y2="137" style="stroke: black; stroke-width: 1" />
 <line x1="25" y1="137" x2="23" y2="136" style="stroke: black; stroke-width: 1" />
 <line x1="23" y1="136" x2="22" y2="133" style="stroke: black; stroke-width: 1" />
 <line x1="22" y1="133" x2="21" y2="130" style="stroke: black; stroke-width: 1" />
 <line x1="21" y1="130" x2="20" y2="126" style="stroke: black; stroke-width: 1" />
 <line x1="20" y1="126" x2="20" y2="123" style="stroke: black; stroke-width: 1" />
 <line x1="0" y1="173" x2="38" y2="173" style="stroke: black; stroke-width: 1" />
 <line x1="0" y1="156" x2="38" y2="156" style="stroke: black; stroke-width: 1" />
 <line x1="0" y1="140" x2="38" y2="140" style="stroke: black; stroke-width: 1" />
 <line x1="0" y1="123" x2="38" y2="123" style="stroke: black; stroke-width: 1" />
 <line x1="0" y1="106" x2="38" y2="106" style="stroke: black; stroke-width: 1" />
 <line x1="0" y1="90" x2="38" y2="90" style="stroke: black; stroke-width: 1" />
 <line x1="0" y1="73" x2="38" y2="73" style="stroke: black; stroke-width: 1" />
</svg>
