<!DOCTYPE svg PUBLIC "-//W3C//DTD SVG 1.1//EN" "http://www.w3.org/Graphics/SVG/1.1/DTD/svg11.dtd">
<svg width="6486" height="60001" xmlns="http://www.w3.org/2000/svg">
 <line x1="1" y1="36" x2="1" y2="35" style="stroke: black; stroke-width: 1" />
 <line x1="1" y1="35" x2="1" y2="34" style="stroke: black; stroke-width: 1" />
 <line x1="1" y1="34" x2="1" y2="32" style="stroke: black; stroke-width: 1" />
 <line x1="1" y1="32" x2="1" y2="31" style="stroke: black; stroke-width: 1" />
 <line x1="1" y1="31" x2="2" y2="30" style="stroke: black; stroke-width: 1" />
 <line x1="2" y1="30" x2="3" y2="28" style="stroke: black; stroke-width: 1" />
 <line x1="3" y1="28" x2="4" y2="27" style="stroke: black; stroke-width: 1" />
 <line x1="4" y1="27" x2="5" y2="26" style="stroke: black; stroke-width: 1" />
 <line x1="5" y1="26" x2="7" y2="25" style="stroke: black; stroke-width: 1" />
 <line x1="7" y1="25" x2="8" y2="24" style="stroke: black; stroke-width: 1" />
 <line x1="8" y1="24" x2="10" y2="23" style="stroke: black; stroke-width: 1" />
 <line x1="10" y1="23" x2="12" y2="23" style="stroke: black; stroke-width: 1" />
 <line x1="12" y1="23" x2="13" y2="23" style="stroke: black; stroke-width: 1" />
 <line x1="13" y1="23" x2="15" y2="23" style="stroke: black; stroke-width: 1" />
 <line x1="15" y1="23" x2="16" y2="23" style="stroke: black; stroke-width: 1" />
 <line x1="16" y1="23" x2="18" y2="24" style="stroke: black; stroke-width: 1" />
 <line x1="18" y1="24" x2="19" y2="25" style="stroke: black; stroke-width: 1" />
 <line x1="19" y1="25" x2="19" y2="26" style="stroke: black; stroke-width: 1" />
 <line x1="19" y1="26" x2="20" y2="27" style="stroke: black; stroke-width: 1" />
 <line x1="20" y1="27" x2="20" y2="28" style="stroke: black; stroke-width: 1" />
 <line x1="20" y1="28" x2="20" y2="30" style="stroke: black; stroke-width: 1" />
 <line x1="20" y1="30" x2="20" y2="31" style="stroke: black; stroke-width: 1" />
 <line x1="20" y1="31" x2="19" y2="33" style="stroke: black; stroke-width: 1" />
 <line x1="19" y1="33" x2="18" y2="34" style="stroke: black; stroke-width: 1" />
 <line x1="18" y1="34" x2="17" y2="35" style="stroke: black; stroke-width: 1" />
 <line x1="17" y1="35" x2="16" y2="37" style="stroke: black; stroke-width: 1" />
 <line x1="16" y1="37" x2="14" y2="38" style="stroke: black; stroke-width: 1" />
 <line x1="14" y1="38" x2="12" y2="38" style="stroke: black; stroke-width: 1" />
 <line x1="12" y1="38" x2="11" y2="39" style="stroke: black; stroke-width: 1" />
 <line x1="11" y1="39" x2="9" y2="39" style="stroke: black; stroke-width: 1" />
 <line x1="9" y1="39" x2="7" y2="40" style="stroke: black; stroke-width: 1" />
 <line x1="7" y1="40" x2="6" y2="39" style="stroke: black; stroke-width: 1" />
 <line x1="6" y1="39" x2="4" y2="39" style="stroke: black; stroke-width: 1" />
 <line x1="4" y1="39" x2="3" y2="38" style="stroke: black; stroke-width: 1" />
 <line x1="3" y1="38" x2="2" y2="37" style="stroke: black; stroke-width: 1" />
 <line x1="2" y1="37" x2="1" y2="36" style="stroke: black; stroke-width: 1" />
 <line x1="2" y1="36" x2="2" y2="35" style="stroke: black; stroke-width: 1" />
 <line x1="2" y1="35" x2="2" y2="34" style="stroke: black; stroke-width: 1" />
 <line x1="2" y1="34" x2="2" y2="33" style="stroke: black; stroke-width: 1" />
 <line x1="2" y1="33" x2="2" y2="32" style="stroke: black; stroke-width: 1" />
 <line x1="2" y1="32" x2="3" y2="31" style="stroke: black; stroke-width: 1" />
 <line x1="3" y1="31" x2="4" y2="30" style="stroke: black; stroke-width: 1" />
 <line x1="4" y1="30" x2="5" y2="29" style="stroke: black; stroke-width: 1" />
 <line x1="5" y1="29" x2="6" y2="28" style="stroke: black; stroke-width: 1" />
 <line x1="6" y1="28" x2="8" y2="27" style="stroke: black; stroke-width: 1" />
 <line x1="8" y1="27" x2="9" y2="26" style="stroke: black; stroke-width: 1" />
 <line x1="9" y1="26" x2="11" y2="26" style="stroke: black; stroke-width: 1" />
 <line x1="11" y1="26" x2="12" y2="25" style="stroke: black; stroke-width: 1" />
 <line x1="12" y1="25" x2="14" y2="25" style="stroke: black; stroke-width: 1" />
 <line x1="14" y1="25" x2="15" y2="25" style="stroke: black; stroke-width: 1" />
 <line x1="15" y1="25" x2="16" y2="25" style="stroke: black; stroke-width: 1" />
 <line x1="16" y1="25" x2="17" y2="25" style="stroke: black; stroke-width: 1" />
 <line x1="17" y1="25" x2="18" y2="26" style="stroke: black; stroke-width: 1" />
 <line x1="18" y1="26" x2="18" y2="26" style="stroke: black; stroke-width: 1" />
 <line x1="18" y1="26" x2="19" y2="27" style="stroke: black; stroke-width: 1" />
 <line x1="19" y1="27" x2="19" y2="28" style="stroke: black; stroke-width: 1" />
 <line x1="19" y1="28" x2="19" y2="29" style="stroke: black; stroke-width: 1" />
 <line x1="19" y1="29" x2="18" y2="30" style="stroke: black; stroke-width: 1" />
 <line x1="18" y1="30" x2="17" y2="31" style="stroke: black; stroke-width: 1" />
 <line x1="17" y1="31" x2="17" y2="33" style="stroke: black; stroke-width: 1" />
 <line x1="17" y1="33" x2="15" y2="34" style="stroke: black; stroke-width: 1" />
 <line x1="15" y1="34" x2="14" y2="35" style="stroke: black; stroke-width: 1" />
 <line x1="14" y1="35" x2="13" y2="35" style="stroke: black; stroke-width: 1" />
 <line x1="13" y1="35" x2="11" y2="36" style="stroke: black; stroke-width: 1" />
 <line x1="11" y1="36" x2="10" y2="37" style="stroke: black; stroke-width: 1" />
 <line x1="10" y1="37" x2="8" y2="37" style="stroke: black; stroke-width: 1" />
 <line x1="8" y1="37" x2="7" y2="37" style="stroke: black; stroke-width: 1" />
 <line x1="7" y1="37" x2="6" y2="38" style="stroke: black; stroke-width: 1" />
 <line x1="6" y1="38" x2="4" y2="37" style="stroke: black; stroke-width: 1" />
 <line x1="4" y1="37" x2="3" y2="37" style="stroke: black; stroke-width: 1" />
 <line x1="3" y1="37" x2="3" y2="37" style="stroke: black; stroke-width: 1" />
 <line x1="3" y1="37" x2="2" y2="36" style="stroke: black; stroke-width: 1" />
 <line x1="1" y1="35" x2="1" y2="94" style="stroke: black; stroke-width: 1" />
 <line x1="1" y1="94" x2="3" y2="90" style="stroke: black; stroke-width: 1" />
 <line x1="3" y1="90" x2="4" y2="89" style="stroke: black; stroke-width: 1" />
 <line x1="4" y1="89" x2="7" y2="87" style="stroke: black; stroke-width: 1" />
 <line x1="7" y1="87" x2="9" y2="86" style="stroke: black; stroke-width: 1" />
 <line x1="9" y1="86" x2="11" y2="85" style="stroke: black; stroke-width: 1" />
 <line x1="11" y1="85" x2="13" y2="83" style="stroke: black; stroke-width: 1" />
 <line x1="13" y1="83" x2="14" y2="80" style="stroke: black; stroke-width: 1" />
 <line x1="14" y1="80" x2="17" y2="77" style="stroke: black; stroke-width: 1" />
 <line x1="17" y1="77" x2="17" y2="74" style="stroke: black; stroke-width: 1" />
 <line x1="17" y1="74" x2="17" y2="70" style="stroke: black; stroke-width: 1" />
 <line x1="17" y1="70" x2="17" y2="64" style="stroke: black; stroke-width: 1" />
 <line x1="17" y1="64" x2="17" y2="67" style="stroke: black; stroke-width: 1" />
 <line x1="17" y1="67" x2="16" y2="70" style="stroke: black; stroke-width: 1" />
 <line x1="16" y1="70" x2="14" y2="72" style="stroke: black; stroke-width: 1" />
 <line x1="14" y1="72" x2="13" y2="74" style="stroke: black; stroke-width: 1" />
 <line x1="13" y1="74" x2="11" y2="76" style="stroke: black; stroke-width: 1" />
 <line x1="11" y1="76" x2="9" y2="78" style="stroke: black; stroke-width: 1" />
 <line x1="9" y1="78" x2="7" y2="79" style="stroke: black; stroke-width: 1" />
 <line x1="7" y1="79" x2="5" y2="80" style="stroke: black; stroke-width: 1" />
 <line x1="5" y1="80" x2="4" y2="81" style="stroke: black; stroke-width: 1" />
 <line x1="4" y1="81" x2="2" y2="84" style="stroke: black; stroke-width: 1" />
 <line x1="2" y1="84" x2="1" y2="87" style="stroke: black; stroke-width: 1" />
 <line x1="1" y1="87" x2="1" y2="90" style="stroke: black; stroke-width: 1" />
 <line x1="1" y1="90" x2="1" y2="94" style="stroke: black; stroke-width: 1" />
 <line x1="0" y1="140" x2="21" y2="140" style="stroke: black; stroke-width: 1" />
 <line x1="0" y1="123" x2="21" y2="123" style="stroke: black; stroke-width: 1" />
 <line x1="0" y1="106" x2="21" y2="106" style="stroke: black; stroke-width: 1" />
 <line x1="0" y1="90" x2="21" y2="90" style="stroke: black; stroke-width: 1" />
 <line x1="0" y1="73" x2="21" y2="73" style="stroke: black; stroke-width: 1" />
 <line x1="0" y1="56" x2="21" y2="56" style="stroke: black; stroke-width: 1" />
 <line x1="0" y1="40" x2="21" y2="40" style="stroke: black; stroke-width: 1" />
</svg>
