<!DOCTYPE svg PUBLIC "-//W3C//DTD SVG 1.1//EN" "http://www.w3.org/Graphics/SVG/1.1/DTD/svg11.dtd">
<svg width="5001" height="10001" xmlns="http://www.w3.org/2000/svg">
 <line x1="0" y1="90" x2="3" y2="91" style="stroke: black; stroke-width: 1" />
 <line x1="3" y1="91" x2="5" y2="93" style="stroke: black; stroke-width: 1" />
 <line x1="5" y1="93" x2="8" y2="94" style="stroke: black; stroke-width: 1" />
 <line x1="8" y1="94" x2="9" y2="96" style="stroke: black; stroke-width: 1" />
 <line x1="9" y1="96" x2="10" y2="100" style="stroke: black; stroke-width: 1" />
 <line x1="10" y1="100" x2="10" y2="105" style="stroke: black; stroke-width: 1" />
 <line x1="10" y1="105" x2="10" y2="106" style="stroke: black; stroke-width: 1" />
 <line x1="10" y1="106" x2="12" y2="110" style="stroke: black; stroke-width: 1" />
 <line x1="12" y1="110" x2="13" y2="111" style="stroke: black; stroke-width: 1" />
 <line x1="13" y1="111" x2="16" y2="113" style="stroke: black; stroke-width: 1" />
 <line x1="16" y1="113" x2="13" y2="114" style="stroke: black; stroke-width: 1" />
 <line x1="13" y1="114" x2="10" y2="116" style="stroke: black; stroke-width: 1" />
 <line x1="10" y1="116" x2="8" y2="117" style="stroke: black; stroke-width: 1" />
 <line x1="8" y1="117" x2="8" y2="120" style="stroke: black; stroke-width: 1" />
 <line x1="8" y1="120" x2="10" y2="121" style="stroke: black; stroke-width: 1" />
 <line x1="10" y1="121" x2="11" y2="123" style="stroke: black; stroke-width: 1" />
 <line x1="11" y1="123" x2="10" y2="123" style="stroke: black; stroke-width: 1" />
 <line x1="10" y1="123" x2="6" y2="122" style="stroke: black; stroke-width: 1" />
 <line x1="6" y1="122" x2="4" y2="120" style="stroke: black; stroke-width: 1" />
 <line x1="4" y1="120" x2="2" y2="119" style="stroke: black; stroke-width: 1" />
 <line x1="2" y1="119" x2="2" y2="115" style="stroke: black; stroke-width: 1" />
 <line x1="2" y1="115" x2="3" y2="114" style="stroke: black; stroke-width: 1" />
 <line x1="3" y1="114" x2="5" y2="112" style="stroke: black; stroke-width: 1" />
 <line x1="5" y1="112" x2="6" y2="112" style="stroke: black; stroke-width: 1" />
 <line x1="6" y1="112" x2="10" y2="112" style="stroke: black; stroke-width: 1" />
 <line x1="10" y1="112" x2="6" y2="110" style="stroke: black; stroke-width: 1" />
 <line x1="6" y1="110" x2="5" y2="108" style="stroke: black; stroke-width: 1" />
 <line x1="5" y1="108" x2="3" y2="106" style="stroke: black; stroke-width: 1" />
 <line x1="3" y1="106" x2="3" y2="96" style="stroke: black; stroke-width: 1" />
 <line x1="3" y1="96" x2="2" y2="95" style="stroke: black; stroke-width: 1" />
 <line x1="2" y1="95" x2="1" y2="93" style="stroke: black; stroke-width: 1" />
 <line x1="1" y1="93" x2="0" y2="90" style="stroke: black; stroke-width: 1" />
 <line x1="0" y1="140" x2="16" y2="140" style="stroke: black; stroke-width: 1" />
 <line x1="0" y1="123" x2="16" y2="123" style="stroke: black; stroke-width: 1" />
 <line x1="0" y1="106" x2="16" y2="106" style="stroke: black; stroke-width: 1" />
 <line x1="0" y1="90" x2="16" y2="90" style="stroke: black; stroke-width: 1" />
 <line x1="0" y1="73" x2="16" y2="73" style="stroke: black; stroke-width: 1" />
</svg>
