<!DOCTYPE svg PUBLIC "-//W3C//DTD SVG 1.1//EN" "http://www.w3.org/Graphics/SVG/1.1/DTD/svg11.dtd">
<svg width="5001" height="5001" xmlns="http://www.w3.org/2000/svg">
 <line x1="0" y1="3" x2="3" y2="3" style="stroke: black; stroke-width: 1" />
 <line x1="3" y1="3" x2="3" y2="6" style="stroke: black; stroke-width: 1" />
 <line x1="3" y1="6" x2="0" y2="6" style="stroke: black; stroke-width: 1" />
 <line x1="0" y1="6" x2="0" y2="3" style="stroke: black; stroke-width: 1" />
 <line x1="0" y1="16" x2="3" y2="16" style="stroke: black; stroke-width: 1" />
 <line x1="3" y1="16" x2="3" y2="20" style="stroke: black; stroke-width: 1" />
 <line x1="3" y1="20" x2="0" y2="20" style="stroke: black; stroke-width: 1" />
 <line x1="0" y1="20" x2="0" y2="16" style="stroke: black; stroke-width: 1" />
 <line x1="13" y1="3" x2="16" y2="3" style="stroke: black; stroke-width: 1" />
 <line x1="16" y1="3" x2="16" y2="6" style="stroke: black; stroke-width: 1" />
 <line x1="16" y1="6" x2="13" y2="6" style="stroke: black; stroke-width: 1" />
 <line x1="13" y1="6" x2="13" y2="3" style="stroke: black; stroke-width: 1" />
 <line x1="13" y1="16" x2="16" y2="16" style="stroke: black; stroke-width: 1" />
 <line x1="16" y1="16" x2="16" y2="20" style="stroke: black; stroke-width: 1" />
 <line x1="16" y1="20" x2="13" y2="20" style="stroke: black; stroke-width: 1" />
 <line x1="13" y1="20" x2="13" y2="16" style="stroke: black; stroke-width: 1" />
 <line x1="0" y1="3" x2="16" y2="20" style="stroke: black; stroke-width: 1" />
 <line x1="0" y1="20" x2="16" y2="3" style="stroke: black; stroke-width: 1" />
 <line x1="0" y1="140" x2="16" y2="140" style="stroke: black; stroke-width: 1" />
 <line x1="0" y1="123" x2="16" y2="123" style="stroke: black; stroke-width: 1" />
 <line x1="0" y1="106" x2="16" y2="106" style="stroke: black; stroke-width: 1" />
 <line x1="0" y1="90" x2="16" y2="90" style="stroke: black; stroke-width: 1" />
 <line x1="0" y1="73" x2="16" y2="73" style="stroke: black; stroke-width: 1" />
</svg>
