<!DOCTYPE svg PUBLIC "-//W3C//DTD SVG 1.1//EN" "http://www.w3.org/Graphics/SVG/1.1/DTD/svg11.dtd">
<svg width="35" height="47" xmlns="http://www.w3.org/2000/svg">
 <!-- Gardiner/Zz376515 at (0,.6153846153846154) in red, scale=.0553846153846153844, mirror=0 -->
 <line x1="5" y1="35.129230769230769" x2="29.9230769230769228" y2="35.129230769230769" style="stroke:red;stroke-width:1" />
 <line x1="29.9230769230769228" y1="38.1753846153846151" x2="5" y2="38.1753846153846151" style="stroke:red;stroke-width:1" />
 <line x1="5" y1="41.2215384615384613" x2="29.9230769230769228" y2="41.2215384615384613" style="stroke:red;stroke-width:1" />
 <line x1="8.04615384615384614" y1="35.129230769230769" x2="8.04615384615384614" y2="41.2215384615384613" style="stroke:red;stroke-width:1" />
 <line x1="12.7538461538461538" y1="35.129230769230769" x2="12.7538461538461538" y2="41.2215384615384613" style="stroke:red;stroke-width:1" />
 <line x1="17.4615384615384614" y1="35.129230769230769" x2="17.4615384615384614" y2="41.2215384615384613" style="stroke:red;stroke-width:1" />
 <line x1="22.169230769230769" y1="35.129230769230769" x2="22.169230769230769" y2="41.2215384615384613" style="stroke:red;stroke-width:1" />
 <line x1="26.8769230769230767" y1="35.129230769230769" x2="26.8769230769230767" y2="41.2215384615384613" style="stroke:red;stroke-width:1" />
 <line x1="29.8123076923076921" y1="22.4461538461538459" x2="5" y2="22.4461538461538459" style="stroke:red;stroke-width:1" />
 <line x1="8.76615384615384613" y1="22.4461538461538459" x2="8.32307692307692306" y2="21.1169230769230767" style="stroke:red;stroke-width:1" />
 <line x1="8.32307692307692306" y1="21.1169230769230767" x2="7.60307692307692306" y2="20.009230769230769" style="stroke:red;stroke-width:1" />
 <line x1="7.60307692307692306" y1="20.009230769230769" x2="6.49538461538461537" y2="19.1784615384615383" style="stroke:red;stroke-width:1" />
 <line x1="6.49538461538461537" y1="19.1784615384615383" x2="5.60923076923076922" y2="19.1784615384615383" style="stroke:red;stroke-width:1" />
 <line x1="5.60923076923076922" y1="19.1784615384615383" x2="5.11076923076923076" y2="19.6769230769230767" style="stroke:red;stroke-width:1" />
 <line x1="5.11076923076923076" y1="19.6769230769230767" x2="5" y2="20.3415384615384613" style="stroke:red;stroke-width:1" />
 <line x1="5" y1="20.3415384615384613" x2="5.22153846153846153" y2="21.449230769230769" style="stroke:red;stroke-width:1" />
 <line x1="5.22153846153846153" y1="21.449230769230769" x2="5.55384615384615384" y2="22.4461538461538459" style="stroke:red;stroke-width:1" />
 <line x1="5.55384615384615384" y1="22.4461538461538459" x2="6.55076923076923076" y2="25.769230769230769" style="stroke:red;stroke-width:1" />
 <line x1="6.55076923076923076" y1="25.769230769230769" x2="8.32307692307692306" y2="25.769230769230769" style="stroke:red;stroke-width:1" />
 <line x1="8.32307692307692306" y1="25.769230769230769" x2="8.76615384615384613" y2="22.4461538461538459" style="stroke:red;stroke-width:1" />
 <line x1="17.4615384615384614" y1="22.4461538461538459" x2="17.4615384615384614" y2="35.129230769230769" style="stroke:red;stroke-width:1" />
 <line x1="13.4184615384615384" y1="22.4461538461538459" x2="17.4615384615384614" y2="27.7076923076923075" style="stroke:red;stroke-width:1" />
 <line x1="17.4615384615384614" y1="22.4461538461538459" x2="18.7353846153846152" y2="24.1076923076923075" style="stroke:red;stroke-width:1" />
 <line x1="18.7353846153846152" y1="24.1076923076923075" x2="19.566153846153846" y2="25.8799999999999998" style="stroke:red;stroke-width:1" />
 <line x1="19.566153846153846" y1="25.8799999999999998" x2="20.2307692307692306" y2="27.5415384615384613" style="stroke:red;stroke-width:1" />
 <line x1="20.2307692307692306" y1="27.5415384615384613" x2="20.4523076923076921" y2="28.5938461538461536" style="stroke:red;stroke-width:1" />
 <line x1="20.4523076923076921" y1="28.5938461538461536" x2="20.2307692307692306" y2="29.2584615384615382" style="stroke:red;stroke-width:1" />
 <line x1="20.2307692307692306" y1="29.2584615384615382" x2="19.8430769230769229" y2="29.6461538461538459" style="stroke:red;stroke-width:1" />
 <line x1="19.8430769230769229" y1="29.6461538461538459" x2="19.289230769230769" y2="29.7015384615384613" style="stroke:red;stroke-width:1" />
 <line x1="19.289230769230769" y1="29.7015384615384613" x2="18.7907692307692306" y2="29.369230769230769" style="stroke:red;stroke-width:1" />
 <line x1="18.7907692307692306" y1="29.369230769230769" x2="19.1230769230769229" y2="30.5323076923076921" style="stroke:red;stroke-width:1" />
 <line x1="19.1230769230769229" y1="30.5323076923076921" x2="19.2338461538461537" y2="31.2523076923076921" style="stroke:red;stroke-width:1" />
 <line x1="19.2338461538461537" y1="31.2523076923076921" x2="19.1784615384615383" y2="31.8615384615384613" style="stroke:red;stroke-width:1" />
 <line x1="19.1784615384615383" y1="31.8615384615384613" x2="18.6246153846153844" y2="32.0830769230769228" style="stroke:red;stroke-width:1" />
 <line x1="18.6246153846153844" y1="32.0830769230769228" x2="18.0707692307692306" y2="31.8061538461538459" style="stroke:red;stroke-width:1" />
 <line x1="18.0707692307692306" y1="31.8061538461538459" x2="17.4615384615384614" y2="31.3630769230769228" style="stroke:red;stroke-width:1" />
 <line x1="16.6307692307692306" y1="13.1969230769230768" x2="14.9138461538461537" y2="20.0646153846153844" style="stroke:red;stroke-width:1" />
 <line x1="14.9138461538461537" y1="20.0646153846153844" x2="20.1199999999999998" y2="20.0646153846153844" style="stroke:red;stroke-width:1" />
 <line x1="20.1199999999999998" y1="20.0646153846153844" x2="18.5138461538461537" y2="13.2523076923076921" style="stroke:red;stroke-width:1" />
 <line x1="16.7969230769230767" y1="20.0646153846153844" x2="16.409230769230769" y2="22.4461538461538459" style="stroke:red;stroke-width:1" />
 <line x1="16.409230769230769" y1="22.4461538461538459" x2="18.6799999999999998" y2="22.4461538461538459" style="stroke:red;stroke-width:1" />
 <line x1="18.6799999999999998" y1="22.4461538461538459" x2="18.2923076923076921" y2="20.0646153846153844" style="stroke:red;stroke-width:1" />
 <line x1="17.2399999999999998" y1="13.9169230769230767" x2="17.6276923076923075" y2="13.9169230769230767" style="stroke:red;stroke-width:1" />
 <line x1="17.6276923076923075" y1="13.9169230769230767" x2="17.849230769230769" y2="13.9169230769230767" style="stroke:red;stroke-width:1" />
 <line x1="17.849230769230769" y1="13.9169230769230767" x2="18.126153846153846" y2="13.7507692307692306" style="stroke:red;stroke-width:1" />
 <line x1="18.126153846153846" y1="13.7507692307692306" x2="18.5138461538461537" y2="13.3076923076923075" style="stroke:red;stroke-width:1" />
 <line x1="18.5138461538461537" y1="13.3076923076923075" x2="18.7907692307692306" y2="12.6984615384615384" style="stroke:red;stroke-width:1" />
 <line x1="18.7907692307692306" y1="12.6984615384615384" x2="19.0676923076923075" y2="12.0338461538461538" style="stroke:red;stroke-width:1" />
 <line x1="19.0676923076923075" y1="12.0338461538461538" x2="19.1230769230769229" y2="11.8123076923076922" style="stroke:red;stroke-width:1" />
 <line x1="19.1230769230769229" y1="11.8123076923076922" x2="19.1784615384615383" y2="11.5907692307692307" style="stroke:red;stroke-width:1" />
 <line x1="19.1784615384615383" y1="11.5907692307692307" x2="19.2338461538461537" y2="11.5353846153846153" style="stroke:red;stroke-width:1" />
 <line x1="19.2338461538461537" y1="11.5353846153846153" x2="19.3999999999999998" y2="11.5907692307692307" style="stroke:red;stroke-width:1" />
 <line x1="19.3999999999999998" y1="11.5907692307692307" x2="19.566153846153846" y2="11.5907692307692307" style="stroke:red;stroke-width:1" />
 <line x1="19.566153846153846" y1="11.5907692307692307" x2="19.7323076923076921" y2="11.4799999999999999" style="stroke:red;stroke-width:1" />
 <line x1="19.7323076923076921" y1="11.4799999999999999" x2="19.8984615384615383" y2="11.3692307692307692" style="stroke:red;stroke-width:1" />
 <line x1="19.8984615384615383" y1="11.3692307692307692" x2="20.009230769230769" y2="11.203076923076923" style="stroke:red;stroke-width:1" />
 <line x1="20.009230769230769" y1="11.203076923076923" x2="20.0646153846153844" y2="11.0369230769230768" style="stroke:red;stroke-width:1" />
 <line x1="20.0646153846153844" y1="11.0369230769230768" x2="20.0646153846153844" y2="10.8153846153846153" style="stroke:red;stroke-width:1" />
 <line x1="20.0646153846153844" y1="10.8153846153846153" x2="19.9538461538461536" y2="10.7599999999999999" style="stroke:red;stroke-width:1" />
 <line x1="19.9538461538461536" y1="10.7599999999999999" x2="19.8430769230769229" y2="10.7599999999999999" style="stroke:red;stroke-width:1" />
 <line x1="19.8430769230769229" y1="10.7599999999999999" x2="19.7323076923076921" y2="10.7599999999999999" style="stroke:red;stroke-width:1" />
 <line x1="19.7323076923076921" y1="10.7599999999999999" x2="19.5107692307692306" y2="10.8153846153846153" style="stroke:red;stroke-width:1" />
 <line x1="19.5107692307692306" y1="10.8153846153846153" x2="19.3446153846153844" y2="10.8707692307692307" style="stroke:red;stroke-width:1" />
 <line x1="19.3446153846153844" y1="10.8707692307692307" x2="19.2338461538461537" y2="10.9261538461538461" style="stroke:red;stroke-width:1" />
 <line x1="19.2338461538461537" y1="10.9261538461538461" x2="19.0676923076923075" y2="10.7046153846153845" style="stroke:red;stroke-width:1" />
 <line x1="19.0676923076923075" y1="10.7046153846153845" x2="18.7907692307692306" y2="10.483076923076923" style="stroke:red;stroke-width:1" />
 <line x1="18.7907692307692306" y1="10.483076923076923" x2="18.3476923076923075" y2="10.2615384615384615" style="stroke:red;stroke-width:1" />
 <line x1="18.3476923076923075" y1="10.2615384615384615" x2="17.849230769230769" y2="10.1507692307692307" style="stroke:red;stroke-width:1" />
 <line x1="17.849230769230769" y1="10.1507692307692307" x2="17.1846153846153844" y2="10.1507692307692307" style="stroke:red;stroke-width:1" />
 <line x1="17.1846153846153844" y1="10.1507692307692307" x2="16.7415384615384614" y2="10.2615384615384615" style="stroke:red;stroke-width:1" />
 <line x1="16.7415384615384614" y1="10.2615384615384615" x2="16.4646153846153844" y2="10.4276923076923076" style="stroke:red;stroke-width:1" />
 <line x1="16.4646153846153844" y1="10.4276923076923076" x2="16.1876923076923075" y2="10.6492307692307692" style="stroke:red;stroke-width:1" />
 <line x1="16.1876923076923075" y1="10.6492307692307692" x2="15.966153846153846" y2="10.8707692307692307" style="stroke:red;stroke-width:1" />
 <line x1="15.966153846153846" y1="10.8707692307692307" x2="15.9107692307692306" y2="10.8707692307692307" style="stroke:red;stroke-width:1" />
 <line x1="15.9107692307692306" y1="10.8707692307692307" x2="15.689230769230769" y2="10.8153846153846153" style="stroke:red;stroke-width:1" />
 <line x1="15.689230769230769" y1="10.8153846153846153" x2="15.5784615384615383" y2="10.8153846153846153" style="stroke:red;stroke-width:1" />
 <line x1="15.5784615384615383" y1="10.8153846153846153" x2="15.4123076923076921" y2="10.7599999999999999" style="stroke:red;stroke-width:1" />
 <line x1="15.4123076923076921" y1="10.7599999999999999" x2="15.3015384615384614" y2="10.7599999999999999" style="stroke:red;stroke-width:1" />
 <line x1="15.3015384615384614" y1="10.7599999999999999" x2="15.1907692307692306" y2="10.8153846153846153" style="stroke:red;stroke-width:1" />
 <line x1="15.1907692307692306" y1="10.8153846153846153" x2="15.1353846153846152" y2="10.9261538461538461" style="stroke:red;stroke-width:1" />
 <line x1="15.1353846153846152" y1="10.9261538461538461" x2="15.0799999999999998" y2="11.0369230769230768" style="stroke:red;stroke-width:1" />
 <line x1="15.0799999999999998" y1="11.0369230769230768" x2="15.1907692307692306" y2="11.203076923076923" style="stroke:red;stroke-width:1" />
 <line x1="15.1907692307692306" y1="11.203076923076923" x2="15.3015384615384614" y2="11.3692307692307692" style="stroke:red;stroke-width:1" />
 <line x1="15.3015384615384614" y1="11.3692307692307692" x2="15.4676923076923075" y2="11.4246153846153845" style="stroke:red;stroke-width:1" />
 <line x1="15.4676923076923075" y1="11.4246153846153845" x2="15.5784615384615383" y2="11.4799999999999999" style="stroke:red;stroke-width:1" />
 <line x1="15.5784615384615383" y1="11.4799999999999999" x2="15.7446153846153844" y2="11.5353846153846153" style="stroke:red;stroke-width:1" />
 <line x1="15.7446153846153844" y1="11.5353846153846153" x2="15.9107692307692306" y2="11.5353846153846153" style="stroke:red;stroke-width:1" />
 <line x1="15.9107692307692306" y1="11.5353846153846153" x2="16.0215384615384614" y2="11.5907692307692307" style="stroke:red;stroke-width:1" />
 <line x1="16.0215384615384614" y1="11.5907692307692307" x2="16.0769230769230767" y2="12.0892307692307692" style="stroke:red;stroke-width:1" />
 <line x1="16.0769230769230767" y1="12.0892307692307692" x2="16.3538461538461537" y2="12.8646153846153845" style="stroke:red;stroke-width:1" />
 <line x1="16.3538461538461537" y1="12.8646153846153845" x2="16.5753846153846152" y2="13.1969230769230768" style="stroke:red;stroke-width:1" />
 <line x1="16.5753846153846152" y1="13.1969230769230768" x2="16.7415384615384614" y2="13.4184615384615383" style="stroke:red;stroke-width:1" />
 <line x1="16.7415384615384614" y1="13.4184615384615383" x2="16.9076923076923075" y2="13.6399999999999998" style="stroke:red;stroke-width:1" />
 <line x1="16.9076923076923075" y1="13.6399999999999998" x2="17.129230769230769" y2="13.806153846153846" style="stroke:red;stroke-width:1" />
 <line x1="17.129230769230769" y1="13.806153846153846" x2="17.2953846153846152" y2="13.9169230769230767" style="stroke:red;stroke-width:1" />
 <line x1="18.7353846153846152" y1="11.5353846153846153" x2="18.4030769230769229" y2="11.5907692307692307" style="stroke:red;stroke-width:1" />
 <line x1="18.4030769230769229" y1="11.5907692307692307" x2="18.1815384615384613" y2="11.5907692307692307" style="stroke:red;stroke-width:1" />
 <line x1="18.1815384615384613" y1="11.5907692307692307" x2="17.9046153846153844" y2="11.5907692307692307" style="stroke:red;stroke-width:1" />
 <line x1="17.9046153846153844" y1="11.5907692307692307" x2="17.7938461538461537" y2="11.5353846153846153" style="stroke:red;stroke-width:1" />
 <line x1="17.7938461538461537" y1="11.5353846153846153" x2="17.9046153846153844" y2="11.4246153846153845" style="stroke:red;stroke-width:1" />
 <line x1="17.9046153846153844" y1="11.4246153846153845" x2="18.1815384615384613" y2="11.3138461538461538" style="stroke:red;stroke-width:1" />
 <line x1="18.1815384615384613" y1="11.3138461538461538" x2="18.4030769230769229" y2="11.3138461538461538" style="stroke:red;stroke-width:1" />
 <line x1="18.4030769230769229" y1="11.3138461538461538" x2="18.7353846153846152" y2="11.4799999999999999" style="stroke:red;stroke-width:1" />
 <line x1="16.3538461538461537" y1="11.5353846153846153" x2="16.5199999999999998" y2="11.5907692307692307" style="stroke:red;stroke-width:1" />
 <line x1="16.5199999999999998" y1="11.5907692307692307" x2="16.7969230769230767" y2="11.6461538461538461" style="stroke:red;stroke-width:1" />
 <line x1="16.7969230769230767" y1="11.6461538461538461" x2="17.129230769230769" y2="11.5907692307692307" style="stroke:red;stroke-width:1" />
 <line x1="17.129230769230769" y1="11.5907692307692307" x2="17.2399999999999998" y2="11.5907692307692307" style="stroke:red;stroke-width:1" />
 <line x1="17.2399999999999998" y1="11.5907692307692307" x2="17.2399999999999998" y2="11.5907692307692307" style="stroke:red;stroke-width:1" />
 <line x1="17.2399999999999998" y1="11.5907692307692307" x2="17.1846153846153844" y2="11.4246153846153845" style="stroke:red;stroke-width:1" />
 <line x1="17.1846153846153844" y1="11.4246153846153845" x2="16.8523076923076921" y2="11.3138461538461538" style="stroke:red;stroke-width:1" />
 <line x1="16.8523076923076921" y1="11.3138461538461538" x2="16.6307692307692306" y2="11.3692307692307692" style="stroke:red;stroke-width:1" />
 <line x1="16.6307692307692306" y1="11.3692307692307692" x2="16.3538461538461537" y2="11.5353846153846153" style="stroke:red;stroke-width:1" />
 <line x1="17.7384615384615383" y1="11.6461538461538461" x2="17.9046153846153844" y2="12.3107692307692307" style="stroke:red;stroke-width:1" />
 <line x1="17.9046153846153844" y1="12.3107692307692307" x2="17.9599999999999998" y2="12.4215384615384615" style="stroke:red;stroke-width:1" />
 <line x1="17.9599999999999998" y1="12.4215384615384615" x2="17.9046153846153844" y2="12.5323076923076922" style="stroke:red;stroke-width:1" />
 <line x1="17.9046153846153844" y1="12.5323076923076922" x2="17.7938461538461537" y2="12.5876923076923076" style="stroke:red;stroke-width:1" />
 <line x1="17.7938461538461537" y1="12.5876923076923076" x2="17.7938461538461537" y2="12.5323076923076922" style="stroke:red;stroke-width:1" />
 <line x1="17.7938461538461537" y1="12.4769230769230768" x2="17.7938461538461537" y2="12.4769230769230768" style="stroke:red;stroke-width:1" />
 <line x1="17.7938461538461537" y1="12.4769230769230768" x2="17.6830769230769229" y2="12.5323076923076922" style="stroke:red;stroke-width:1" />
 <line x1="17.6830769230769229" y1="12.5323076923076922" x2="17.6276923076923075" y2="12.5876923076923076" style="stroke:red;stroke-width:1" />
 <line x1="17.6276923076923075" y1="12.5876923076923076" x2="17.5169230769230767" y2="12.5876923076923076" style="stroke:red;stroke-width:1" />
 <line x1="17.5169230769230767" y1="12.5876923076923076" x2="17.4615384615384614" y2="12.5323076923076922" style="stroke:red;stroke-width:1" />
 <line x1="17.4615384615384614" y1="12.5323076923076922" x2="17.406153846153846" y2="12.4769230769230768" style="stroke:red;stroke-width:1" />
 <line x1="17.406153846153846" y1="12.4769230769230768" x2="17.3507692307692306" y2="12.5323076923076922" style="stroke:red;stroke-width:1" />
 <line x1="17.406153846153846" y1="12.5323076923076922" x2="17.3507692307692306" y2="12.5876923076923076" style="stroke:red;stroke-width:1" />
 <line x1="17.3507692307692306" y1="12.5876923076923076" x2="17.2399999999999998" y2="12.5876923076923076" style="stroke:red;stroke-width:1" />
 <line x1="17.2399999999999998" y1="12.5876923076923076" x2="17.129230769230769" y2="12.4769230769230768" style="stroke:red;stroke-width:1" />
 <line x1="17.129230769230769" y1="12.4769230769230768" x2="17.1846153846153844" y2="12.3661538461538461" style="stroke:red;stroke-width:1" />
 <line x1="17.1846153846153844" y1="12.3661538461538461" x2="17.3507692307692306" y2="11.6461538461538461" style="stroke:red;stroke-width:1" />
 <line x1="18.0153846153846152" y1="13.086153846153846" x2="17.5169230769230767" y2="13.1415384615384614" style="stroke:red;stroke-width:1" />
 <line x1="17.5169230769230767" y1="13.1415384615384614" x2="17.0738461538461537" y2="13.0307692307692306" style="stroke:red;stroke-width:1" />
 <line x1="15.966153846153846" y1="9.48615384615384613" x2="15.4676923076923075" y2="8.59999999999999998" style="stroke:red;stroke-width:1" />
 <line x1="15.4676923076923075" y1="8.59999999999999998" x2="14.6369230769230767" y2="6.99384615384615383" style="stroke:red;stroke-width:1" />
 <line x1="14.6369230769230767" y1="6.99384615384615383" x2="14.4153846153846152" y2="6.66153846153846153" style="stroke:red;stroke-width:1" />
 <line x1="14.4153846153846152" y1="6.66153846153846153" x2="14.3046153846153844" y2="6.32923076923076922" style="stroke:red;stroke-width:1" />
 <line x1="14.3046153846153844" y1="6.32923076923076922" x2="14.3046153846153844" y2="5.99692307692307691" style="stroke:red;stroke-width:1" />
 <line x1="14.3046153846153844" y1="5.99692307692307691" x2="14.3046153846153844" y2="5.77538461538461538" style="stroke:red;stroke-width:1" />
 <line x1="14.3046153846153844" y1="5.77538461538461538" x2="14.3599999999999998" y2="5.49846153846153845" style="stroke:red;stroke-width:1" />
 <line x1="14.3599999999999998" y1="5.49846153846153845" x2="14.4153846153846152" y2="5.3323076923076923" style="stroke:red;stroke-width:1" />
 <line x1="14.4153846153846152" y1="5.3323076923076923" x2="14.5815384615384614" y2="5.11076923076923076" style="stroke:red;stroke-width:1" />
 <line x1="14.5815384615384614" y1="5.11076923076923076" x2="14.8030769230769229" y2="5" style="stroke:red;stroke-width:1" />
 <line x1="14.8030769230769229" y1="5" x2="15.0799999999999998" y2="5" style="stroke:red;stroke-width:1" />
 <line x1="15.0799999999999998" y1="5" x2="15.246153846153846" y2="5" style="stroke:red;stroke-width:1" />
 <line x1="15.246153846153846" y1="5" x2="15.4676923076923075" y2="5.11076923076923076" style="stroke:red;stroke-width:1" />
 <line x1="15.4676923076923075" y1="5.11076923076923076" x2="15.5784615384615383" y2="5.22153846153846153" style="stroke:red;stroke-width:1" />
 <line x1="15.5784615384615383" y1="5.22153846153846153" x2="15.6338461538461537" y2="5.38769230769230769" style="stroke:red;stroke-width:1" />
 <line x1="15.6338461538461537" y1="5.38769230769230769" x2="15.689230769230769" y2="5.55384615384615384" style="stroke:red;stroke-width:1" />
 <line x1="15.689230769230769" y1="5.55384615384615384" x2="15.689230769230769" y2="5.66461538461538461" style="stroke:red;stroke-width:1" />
 <line x1="15.689230769230769" y1="5.66461538461538461" x2="15.689230769230769" y2="5.83076923076923076" style="stroke:red;stroke-width:1" />
 <line x1="15.689230769230769" y1="5.83076923076923076" x2="15.5784615384615383" y2="5.99692307692307691" style="stroke:red;stroke-width:1" />
 <line x1="15.5784615384615383" y1="5.99692307692307691" x2="15.4676923076923075" y2="6.0523076923076923" style="stroke:red;stroke-width:1" />
 <line x1="15.4676923076923075" y1="6.0523076923076923" x2="15.246153846153846" y2="6.10769230769230768" style="stroke:red;stroke-width:1" />
 <line x1="15.246153846153846" y1="6.10769230769230768" x2="15.0246153846153844" y2="5.99692307692307691" style="stroke:red;stroke-width:1" />
 <line x1="15.0246153846153844" y1="5.99692307692307691" x2="14.9138461538461537" y2="5.88615384615384615" style="stroke:red;stroke-width:1" />
 <line x1="14.9138461538461537" y1="5.88615384615384615" x2="14.9138461538461537" y2="5.77538461538461538" style="stroke:red;stroke-width:1" />
 <line x1="19.3446153846153844" y1="9.54153846153846152" x2="15.8553846153846152" y2="9.54153846153846152" style="stroke:red;stroke-width:1" />
 <line x1="15.8553846153846152" y1="9.54153846153846152" x2="15.8553846153846152" y2="9.87384615384615382" style="stroke:red;stroke-width:1" />
 <line x1="15.8553846153846152" y1="9.87384615384615382" x2="19.3446153846153844" y2="9.87384615384615382" style="stroke:red;stroke-width:1" />
 <line x1="19.3446153846153844" y1="9.87384615384615382" x2="19.3999999999999998" y2="9.54153846153846152" style="stroke:red;stroke-width:1" />
 <line x1="19.289230769230769" y1="9.87384615384615382" x2="19.1784615384615383" y2="9.98461538461538459" style="stroke:red;stroke-width:1" />
 <line x1="19.1784615384615383" y1="9.98461538461538459" x2="18.9569230769230767" y2="10.2615384615384615" style="stroke:red;stroke-width:1" />
 <line x1="18.9569230769230767" y1="10.2615384615384615" x2="18.9015384615384613" y2="10.5384615384615384" style="stroke:red;stroke-width:1" />
 <line x1="15.8553846153846152" y1="9.87384615384615382" x2="16.0215384615384614" y2="10.0399999999999999" style="stroke:red;stroke-width:1" />
 <line x1="16.0215384615384614" y1="10.0399999999999999" x2="16.2430769230769229" y2="10.2615384615384615" style="stroke:red;stroke-width:1" />
 <line x1="16.2430769230769229" y1="10.2615384615384615" x2="16.2430769230769229" y2="10.5384615384615384" style="stroke:red;stroke-width:1" />
 <line x1="19.1230769230769229" y1="9.48615384615384613" x2="19.6215384615384613" y2="8.59999999999999998" style="stroke:red;stroke-width:1" />
 <line x1="19.6215384615384613" y1="8.59999999999999998" x2="20.4523076923076921" y2="6.99384615384615383" style="stroke:red;stroke-width:1" />
 <line x1="20.4523076923076921" y1="6.99384615384615383" x2="20.6184615384615383" y2="6.66153846153846153" style="stroke:red;stroke-width:1" />
 <line x1="20.6184615384615383" y1="6.66153846153846153" x2="20.729230769230769" y2="6.32923076923076922" style="stroke:red;stroke-width:1" />
 <line x1="20.729230769230769" y1="6.32923076923076922" x2="20.729230769230769" y2="5.99692307692307691" style="stroke:red;stroke-width:1" />
 <line x1="20.729230769230769" y1="5.99692307692307691" x2="20.7846153846153844" y2="5.77538461538461538" style="stroke:red;stroke-width:1" />
 <line x1="20.7846153846153844" y1="5.77538461538461538" x2="20.729230769230769" y2="5.49846153846153845" style="stroke:red;stroke-width:1" />
 <line x1="20.729230769230769" y1="5.49846153846153845" x2="20.6184615384615383" y2="5.3323076923076923" style="stroke:red;stroke-width:1" />
 <line x1="20.6184615384615383" y1="5.3323076923076923" x2="20.5076923076923075" y2="5.11076923076923076" style="stroke:red;stroke-width:1" />
 <line x1="20.5076923076923075" y1="5.11076923076923076" x2="20.2307692307692306" y2="5" style="stroke:red;stroke-width:1" />
 <line x1="20.2307692307692306" y1="5" x2="20.009230769230769" y2="5" style="stroke:red;stroke-width:1" />
 <line x1="20.009230769230769" y1="5" x2="19.8430769230769229" y2="5" style="stroke:red;stroke-width:1" />
 <line x1="19.8430769230769229" y1="5" x2="19.6215384615384613" y2="5.11076923076923076" style="stroke:red;stroke-width:1" />
 <line x1="19.6215384615384613" y1="5.11076923076923076" x2="19.5107692307692306" y2="5.22153846153846153" style="stroke:red;stroke-width:1" />
 <line x1="19.5107692307692306" y1="5.22153846153846153" x2="19.3999999999999998" y2="5.38769230769230769" style="stroke:red;stroke-width:1" />
 <line x1="19.3999999999999998" y1="5.38769230769230769" x2="19.3446153846153844" y2="5.55384615384615384" style="stroke:red;stroke-width:1" />
 <line x1="19.3446153846153844" y1="5.55384615384615384" x2="19.3446153846153844" y2="5.66461538461538461" style="stroke:red;stroke-width:1" />
 <line x1="19.3446153846153844" y1="5.66461538461538461" x2="19.3999999999999998" y2="5.83076923076923076" style="stroke:red;stroke-width:1" />
 <line x1="19.3999999999999998" y1="5.83076923076923076" x2="19.5107692307692306" y2="5.99692307692307691" style="stroke:red;stroke-width:1" />
 <line x1="19.5107692307692306" y1="5.99692307692307691" x2="19.6215384615384613" y2="6.0523076923076923" style="stroke:red;stroke-width:1" />
 <line x1="19.6215384615384613" y1="6.0523076923076923" x2="19.8430769230769229" y2="6.10769230769230768" style="stroke:red;stroke-width:1" />
 <line x1="19.8430769230769229" y1="6.10769230769230768" x2="20.009230769230769" y2="5.99692307692307691" style="stroke:red;stroke-width:1" />
 <line x1="20.009230769230769" y1="5.99692307692307691" x2="20.1199999999999998" y2="5.88615384615384615" style="stroke:red;stroke-width:1" />
 <line x1="20.1199999999999998" y1="5.88615384615384615" x2="20.1199999999999998" y2="5.77538461538461538" style="stroke:red;stroke-width:1" />

</svg>
