<!DOCTYPE svg PUBLIC "-//W3C//DTD SVG 1.1//EN" "http://www.w3.org/Graphics/SVG/1.1/DTD/svg11.dtd">
<svg width="22" height="45" xmlns="http://www.w3.org/2000/svg">
 <!-- Gardiner/Zz376515 at (0,.10526315789473684) in red, scale=.0757894736842105264, mirror=0 -->
 <line x1="10.911578947368421" y1="39.1052631578947368" x2="10.911578947368421" y2="25.7663157894736841" style="stroke:red;stroke-width:1" />
 <line x1="10.911578947368421" y1="25.7663157894736841" x2="16.8989473684210525" y2="25.7663157894736841" style="stroke:red;stroke-width:1" />
 <line x1="16.8989473684210525" y1="25.7663157894736841" x2="16.8989473684210525" y2="5" style="stroke:red;stroke-width:1" />
 <line x1="16.8989473684210525" y1="5" x2="5" y2="5" style="stroke:red;stroke-width:1" />
 <line x1="5" y1="5" x2="5" y2="39.1052631578947368" style="stroke:red;stroke-width:1" />
 <line x1="5" y1="39.1052631578947368" x2="16.8989473684210525" y2="39.1052631578947368" style="stroke:red;stroke-width:1" />
 <line x1="16.8989473684210525" y1="39.1052631578947368" x2="16.8989473684210525" y2="25.7663157894736841" style="stroke:red;stroke-width:1" />
 <line x1="6.51578947368421052" y1="15.9136842105263157" x2="8.1831578947368421" y2="15.2315789473684209" style="stroke:red;stroke-width:1" />
 <line x1="8.1831578947368421" y1="15.2315789473684209" x2="9.69894736842105263" y2="14.7768421052631578" style="stroke:red;stroke-width:1" />
 <line x1="9.69894736842105263" y1="14.7768421052631578" x2="10.9873684210526315" y2="14.5494736842105262" style="stroke:red;stroke-width:1" />
 <line x1="10.9873684210526315" y1="14.5494736842105262" x2="12.5789473684210525" y2="14.2463157894736841" style="stroke:red;stroke-width:1" />
 <line x1="12.5789473684210525" y1="14.2463157894736841" x2="14.094736842105263" y2="14.1705263157894736" style="stroke:red;stroke-width:1" />
 <line x1="14.094736842105263" y1="14.1705263157894736" x2="15.7621052631578946" y2="14.0189473684210525" style="stroke:red;stroke-width:1" />
 <line x1="15.7621052631578946" y1="14.0189473684210525" x2="15.7621052631578946" y2="11.1389473684210525" style="stroke:red;stroke-width:1" />
 <line x1="15.7621052631578946" y1="11.1389473684210525" x2="14.1705263157894736" y2="11.0631578947368421" style="stroke:red;stroke-width:1" />
 <line x1="14.1705263157894736" y1="11.0631578947368421" x2="12.4273684210526315" y2="10.9873684210526315" style="stroke:red;stroke-width:1" />
 <line x1="12.4273684210526315" y1="10.9873684210526315" x2="10.911578947368421" y2="10.76" style="stroke:red;stroke-width:1" />
 <line x1="10.911578947368421" y1="10.76" x2="9.16842105263157895" y2="10.5326315789473684" style="stroke:red;stroke-width:1" />
 <line x1="9.16842105263157895" y1="10.5326315789473684" x2="6.51578947368421052" y2="10.1536842105263157" style="stroke:red;stroke-width:1" />
 <line x1="6.51578947368421052" y1="10.1536842105263157" x2="6.51578947368421052" y2="34.0273684210526315" style="stroke:red;stroke-width:1" />

</svg>
