<!DOCTYPE svg PUBLIC "-//W3C//DTD SVG 1.1//EN" "http://www.w3.org/Graphics/SVG/1.1/DTD/svg11.dtd">
<svg width="32" height="47" xmlns="http://www.w3.org/2000/svg">
 <!-- Gardiner/Zz376515 at (0,.80794701986754968) in red, scale=.0476821192052980132, mirror=0 -->
 <line x1="5" y1="35.9456953642384103" x2="26.4569536423841058" y2="35.9456953642384103" style="stroke:red;stroke-width:1" />
 <line x1="26.4569536423841058" y1="38.5682119205298011" x2="5" y2="38.5682119205298011" style="stroke:red;stroke-width:1" />
 <line x1="5" y1="41.1907284768211918" x2="26.4569536423841058" y2="41.1907284768211918" style="stroke:red;stroke-width:1" />
 <line x1="7.62251655629139072" y1="35.9456953642384103" x2="7.62251655629139072" y2="41.1907284768211918" style="stroke:red;stroke-width:1" />
 <line x1="11.6754966887417218" y1="35.9456953642384103" x2="11.6754966887417218" y2="41.1907284768211918" style="stroke:red;stroke-width:1" />
 <line x1="15.7284768211920529" y1="35.9456953642384103" x2="15.7284768211920529" y2="41.1907284768211918" style="stroke:red;stroke-width:1" />
 <line x1="19.781456953642384" y1="35.9456953642384103" x2="19.781456953642384" y2="41.1907284768211918" style="stroke:red;stroke-width:1" />
 <line x1="23.8344370860927151" y1="35.9456953642384103" x2="23.8344370860927151" y2="41.1907284768211918" style="stroke:red;stroke-width:1" />
 <line x1="26.3615894039735098" y1="25.0264900662251653" x2="5" y2="25.0264900662251653" style="stroke:red;stroke-width:1" />
 <line x1="8.24238410596026489" y1="25.0264900662251653" x2="7.86092715231788079" y2="23.882119205298013" style="stroke:red;stroke-width:1" />
 <line x1="7.86092715231788079" y1="23.882119205298013" x2="7.24105960264900662" y2="22.9284768211920527" style="stroke:red;stroke-width:1" />
 <line x1="7.24105960264900662" y1="22.9284768211920527" x2="6.28741721854304635" y2="22.2132450331125825" style="stroke:red;stroke-width:1" />
 <line x1="6.28741721854304635" y1="22.2132450331125825" x2="5.52450331125827814" y2="22.2132450331125825" style="stroke:red;stroke-width:1" />
 <line x1="5.52450331125827814" y1="22.2132450331125825" x2="5.09536423841059602" y2="22.6423841059602647" style="stroke:red;stroke-width:1" />
 <line x1="5.09536423841059602" y1="22.6423841059602647" x2="5" y2="23.2145695364238408" style="stroke:red;stroke-width:1" />
 <line x1="5" y1="23.2145695364238408" x2="5.19072847682119205" y2="24.1682119205298011" style="stroke:red;stroke-width:1" />
 <line x1="5.19072847682119205" y1="24.1682119205298011" x2="5.47682119205298013" y2="25.0264900662251653" style="stroke:red;stroke-width:1" />
 <line x1="5.47682119205298013" y1="25.0264900662251653" x2="6.33509933774834436" y2="27.8874172185430461" style="stroke:red;stroke-width:1" />
 <line x1="6.33509933774834436" y1="27.8874172185430461" x2="7.86092715231788079" y2="27.8874172185430461" style="stroke:red;stroke-width:1" />
 <line x1="7.86092715231788079" y1="27.8874172185430461" x2="8.24238410596026489" y2="25.0264900662251653" style="stroke:red;stroke-width:1" />
 <line x1="15.7284768211920529" y1="25.0264900662251653" x2="15.7284768211920529" y2="35.9456953642384103" style="stroke:red;stroke-width:1" />
 <line x1="12.247682119205298" y1="25.0264900662251653" x2="15.7284768211920529" y2="29.5562913907284766" style="stroke:red;stroke-width:1" />
 <line x1="15.7284768211920529" y1="25.0264900662251653" x2="16.8251655629139072" y2="26.4569536423841057" style="stroke:red;stroke-width:1" />
 <line x1="16.8251655629139072" y1="26.4569536423841057" x2="17.5403973509933774" y2="27.9827814569536421" style="stroke:red;stroke-width:1" />
 <line x1="17.5403973509933774" y1="27.9827814569536421" x2="18.1125827814569535" y2="29.4132450331125825" style="stroke:red;stroke-width:1" />
 <line x1="18.1125827814569535" y1="29.4132450331125825" x2="18.3033112582781456" y2="30.3192052980132448" style="stroke:red;stroke-width:1" />
 <line x1="18.3033112582781456" y1="30.3192052980132448" x2="18.1125827814569535" y2="30.8913907284768209" style="stroke:red;stroke-width:1" />
 <line x1="18.1125827814569535" y1="30.8913907284768209" x2="17.7788079470198674" y2="31.225165562913907" style="stroke:red;stroke-width:1" />
 <line x1="17.7788079470198674" y1="31.225165562913907" x2="17.3019867549668873" y2="31.2728476821192051" style="stroke:red;stroke-width:1" />
 <line x1="17.3019867549668873" y1="31.2728476821192051" x2="16.8728476821192052" y2="30.986754966887417" style="stroke:red;stroke-width:1" />
 <line x1="16.8728476821192052" y1="30.986754966887417" x2="17.1589403973509932" y2="31.9880794701986753" style="stroke:red;stroke-width:1" />
 <line x1="17.1589403973509932" y1="31.9880794701986753" x2="17.2543046357615893" y2="32.6079470198675494" style="stroke:red;stroke-width:1" />
 <line x1="17.2543046357615893" y1="32.6079470198675494" x2="17.2066225165562913" y2="33.1324503311258276" style="stroke:red;stroke-width:1" />
 <line x1="17.2066225165562913" y1="33.1324503311258276" x2="16.7298013245033111" y2="33.3231788079470196" style="stroke:red;stroke-width:1" />
 <line x1="16.7298013245033111" y1="33.3231788079470196" x2="16.252980132450331" y2="33.0847682119205296" style="stroke:red;stroke-width:1" />
 <line x1="16.252980132450331" y1="33.0847682119205296" x2="15.7284768211920529" y2="32.7033112582781454" style="stroke:red;stroke-width:1" />
 <path d="M 5.19072847682119206 21.0688741721854302
          A .572185430463576158 .572185430463576158 0 1 0 6.33509933774834436 21.0688741721854302
          A .572185430463576158 .572185430463576158 0 1 0 5.19072847682119206 21.0688741721854302"
       stroke="red" fill="white" stroke-width="1" fill-opacity="0.0"/>
 <line x1="5.76291390728476821" y1="20.4966887417218541" x2="5.76291390728476821" y2="15.4900662251655627" style="stroke:red;stroke-width:1" />
 <line x1="5.76291390728476821" y1="15.4900662251655627" x2="5.85827814569536423" y2="15.2039735099337746" style="stroke:red;stroke-width:1" />
 <line x1="5.85827814569536423" y1="15.2039735099337746" x2="6.0966887417218543" y2="15.1562913907284766" style="stroke:red;stroke-width:1" />
 <line x1="6.0966887417218543" y1="15.1562913907284766" x2="6.38278145695364238" y2="15.2516556291390726" style="stroke:red;stroke-width:1" />
 <line x1="6.38278145695364238" y1="15.2516556291390726" x2="7.00264900662251655" y2="15.6807947019867547" style="stroke:red;stroke-width:1" />
 <line x1="7.00264900662251655" y1="15.6807947019867547" x2="8.14701986754966887" y2="16.3006622516556289" style="stroke:red;stroke-width:1" />
 <line x1="8.14701986754966887" y1="16.3006622516556289" x2="9.67284768211920529" y2="16.9205298013245031" style="stroke:red;stroke-width:1" />
 <line x1="9.67284768211920529" y1="16.9205298013245031" x2="11.4370860927152317" y2="17.5403973509933773" style="stroke:red;stroke-width:1" />
 <line x1="11.4370860927152317" y1="17.5403973509933773" x2="12.390728476821192" y2="17.6834437086092713" style="stroke:red;stroke-width:1" />
 <line x1="12.390728476821192" y1="17.6834437086092713" x2="13.2013245033112582" y2="17.6834437086092713" style="stroke:red;stroke-width:1" />
 <line x1="13.2013245033112582" y1="17.6834437086092713" x2="14.0596026490066224" y2="17.5403973509933773" style="stroke:red;stroke-width:1" />
 <line x1="14.0596026490066224" y1="17.5403973509933773" x2="14.9655629139072846" y2="17.3496688741721852" style="stroke:red;stroke-width:1" />
 <line x1="14.9655629139072846" y1="17.3496688741721852" x2="16.396026490066225" y2="16.634437086092715" style="stroke:red;stroke-width:1" />
 <line x1="16.396026490066225" y1="16.634437086092715" x2="17.5403973509933774" y2="15.8238410596026488" style="stroke:red;stroke-width:1" />
 <line x1="17.5403973509933774" y1="15.8238410596026488" x2="18.1125827814569535" y2="15.2993377483443706" style="stroke:red;stroke-width:1" />
 <line x1="18.1125827814569535" y1="15.2993377483443706" x2="18.4940397350993376" y2="15.0609271523178806" style="stroke:red;stroke-width:1" />
 <line x1="18.4940397350993376" y1="15.0609271523178806" x2="18.8754966887417217" y2="15.1562913907284766" style="stroke:red;stroke-width:1" />
 <line x1="18.8754966887417217" y1="15.1562913907284766" x2="19.0185430463576158" y2="15.3470198675496686" style="stroke:red;stroke-width:1" />
 <line x1="19.0185430463576158" y1="15.3470198675496686" x2="18.9708609271523177" y2="15.7761589403973508" style="stroke:red;stroke-width:1" />
 <line x1="18.9708609271523177" y1="15.7761589403973508" x2="18.6370860927152317" y2="16.2052980132450329" style="stroke:red;stroke-width:1" />
 <line x1="18.6370860927152317" y1="16.2052980132450329" x2="18.0649006622516555" y2="16.8251655629139071" style="stroke:red;stroke-width:1" />
 <line x1="18.0649006622516555" y1="16.8251655629139071" x2="17.2543046357615893" y2="17.4450331125827812" style="stroke:red;stroke-width:1" />
 <line x1="17.2543046357615893" y1="17.4450331125827812" x2="16.109933774834437" y2="18.0649006622516554" style="stroke:red;stroke-width:1" />
 <line x1="16.109933774834437" y1="18.0649006622516554" x2="14.9655629139072846" y2="18.4463576158940395" style="stroke:red;stroke-width:1" />
 <line x1="14.9655629139072846" y1="18.4463576158940395" x2="14.1549668874172184" y2="18.6370860927152316" style="stroke:red;stroke-width:1" />
 <line x1="14.1549668874172184" y1="18.6370860927152316" x2="13.2966887417218542" y2="18.7801324503311256" style="stroke:red;stroke-width:1" />
 <line x1="13.2966887417218542" y1="18.7801324503311256" x2="12.390728476821192" y2="18.7801324503311256" style="stroke:red;stroke-width:1" />
 <line x1="12.390728476821192" y1="18.7801324503311256" x2="11.4847682119205297" y2="18.5894039735099335" style="stroke:red;stroke-width:1" />
 <line x1="11.4847682119205297" y1="18.5894039735099335" x2="10.5788079470198675" y2="18.3509933774834435" style="stroke:red;stroke-width:1" />
 <line x1="10.5788079470198675" y1="18.3509933774834435" x2="9.67284768211920529" y2="18.1125827814569534" style="stroke:red;stroke-width:1" />
 <line x1="9.67284768211920529" y1="18.1125827814569534" x2="8.05165562913907284" y2="17.4450331125827812" style="stroke:red;stroke-width:1" />
 <line x1="8.05165562913907284" y1="17.4450331125827812" x2="6.85960264900662251" y2="16.777483443708609" style="stroke:red;stroke-width:1" />
 <line x1="6.85960264900662251" y1="16.777483443708609" x2="6.0966887417218543" y2="16.2052980132450329" style="stroke:red;stroke-width:1" />
 <line x1="6.0966887417218543" y1="16.2052980132450329" x2="5.85827814569536423" y2="15.9192052980132448" style="stroke:red;stroke-width:1" />
 <line x1="5.85827814569536423" y1="15.9192052980132448" x2="5.76291390728476821" y2="15.6807947019867547" style="stroke:red;stroke-width:1" />
 <line x1="5.76291390728476821" y1="15.6807947019867547" x2="5.76291390728476821" y2="15.4900662251655627" style="stroke:red;stroke-width:1" />
 <line x1="9.7205298013245033" y1="10.1019867549668874" x2="9.7205298013245033" y2="16.9205298013245031" style="stroke:red;stroke-width:1" />
 <line x1="11.4370860927152317" y1="10.1019867549668874" x2="11.4370860927152317" y2="17.4927152317880792" style="stroke:red;stroke-width:1" />
 <line x1="13.1059602649006622" y1="10.0543046357615893" x2="13.1059602649006622" y2="17.6357615894039733" style="stroke:red;stroke-width:1" />
 <line x1="14.8225165562913906" y1="10.0066225165562913" x2="14.8225165562913906" y2="17.3019867549668872" style="stroke:red;stroke-width:1" />
 <line x1="7.47947019867549668" y1="10.9125827814569536" x2="5.95364238410596026" y2="9.81589403973509933" style="stroke:red;stroke-width:1" />
 <line x1="5.95364238410596026" y1="9.81589403973509933" x2="5.3814569536423841" y2="9.43443708609271522" style="stroke:red;stroke-width:1" />
 <line x1="5.3814569536423841" y1="9.43443708609271522" x2="5.28609271523178807" y2="9.10066225165562913" style="stroke:red;stroke-width:1" />
 <line x1="5.28609271523178807" y1="9.10066225165562913" x2="5.42913907284768211" y2="8.90993377483443708" style="stroke:red;stroke-width:1" />
 <line x1="5.42913907284768211" y1="8.90993377483443708" x2="8.95761589403973509" y2="8.90993377483443708" style="stroke:red;stroke-width:1" />
 <line x1="8.95761589403973509" y1="8.90993377483443708" x2="8.95761589403973509" y2="8.24238410596026489" style="stroke:red;stroke-width:1" />
 <line x1="8.95761589403973509" y1="8.24238410596026489" x2="14.8225165562913906" y2="8.24238410596026489" style="stroke:red;stroke-width:1" />
 <line x1="14.8225165562913906" y1="8.24238410596026489" x2="14.8225165562913906" y2="8.90993377483443708" style="stroke:red;stroke-width:1" />
 <line x1="14.8225165562913906" y1="8.90993377483443708" x2="20.4013245033112581" y2="8.90993377483443708" style="stroke:red;stroke-width:1" />
 <line x1="20.4013245033112581" y1="8.90993377483443708" x2="20.4013245033112581" y2="9.3390728476821192" style="stroke:red;stroke-width:1" />
 <line x1="20.4013245033112581" y1="9.3390728476821192" x2="14.8701986754966886" y2="9.3390728476821192" style="stroke:red;stroke-width:1" />
 <line x1="14.8701986754966886" y1="9.3390728476821192" x2="14.8225165562913906" y2="10.1019867549668874" style="stroke:red;stroke-width:1" />
 <line x1="14.8225165562913906" y1="10.1019867549668874" x2="8.90993377483443708" y2="10.1019867549668874" style="stroke:red;stroke-width:1" />
 <line x1="8.90993377483443708" y1="10.1019867549668874" x2="8.90993377483443708" y2="9.3390728476821192" style="stroke:red;stroke-width:1" />
 <line x1="8.90993377483443708" y1="9.3390728476821192" x2="6.57350993377483443" y2="9.3390728476821192" style="stroke:red;stroke-width:1" />
 <line x1="6.57350993377483443" y1="9.3390728476821192" x2="6.4781456953642384" y2="9.52980132450331125" style="stroke:red;stroke-width:1" />
 <line x1="6.4781456953642384" y1="9.52980132450331125" x2="6.52582781456953642" y2="9.67284768211920529" style="stroke:red;stroke-width:1" />
 <line x1="6.52582781456953642" y1="9.67284768211920529" x2="7.05033112582781456" y2="10.2450331125827814" style="stroke:red;stroke-width:1" />
 <line x1="7.05033112582781456" y1="10.2450331125827814" x2="7.47947019867549668" y2="10.9125827814569536" style="stroke:red;stroke-width:1" />
 <line x1="12.295364238410596" y1="8.19470198675496688" x2="14.3933774834437085" y2="6.33509933774834436" style="stroke:red;stroke-width:1" />
 <line x1="14.3933774834437085" y1="6.33509933774834436" x2="14.2980132450331125" y2="5.95364238410596026" style="stroke:red;stroke-width:1" />
 <line x1="14.2980132450331125" y1="5.95364238410596026" x2="14.3933774834437085" y2="5.61986754966887417" style="stroke:red;stroke-width:1" />
 <line x1="14.3933774834437085" y1="5.61986754966887417" x2="14.5841059602649005" y2="5.28609271523178807" style="stroke:red;stroke-width:1" />
 <line x1="14.5841059602649005" y1="5.28609271523178807" x2="14.9178807947019866" y2="5.09536423841059602" style="stroke:red;stroke-width:1" />
 <line x1="14.9178807947019866" y1="5.09536423841059602" x2="15.4423841059602648" y2="5" style="stroke:red;stroke-width:1" />
 <line x1="15.4423841059602648" y1="5" x2="15.7284768211920529" y2="5.09536423841059602" style="stroke:red;stroke-width:1" />
 <line x1="15.7284768211920529" y1="5.09536423841059602" x2="15.9192052980132449" y2="5.28609271523178807" style="stroke:red;stroke-width:1" />
 <line x1="15.9192052980132449" y1="5.28609271523178807" x2="15.9192052980132449" y2="5.66754966887417218" style="stroke:red;stroke-width:1" />
 <line x1="15.9192052980132449" y1="5.66754966887417218" x2="15.8238410596026489" y2="5.95364238410596026" style="stroke:red;stroke-width:1" />
 <line x1="15.8238410596026489" y1="5.95364238410596026" x2="15.3947019867549668" y2="6.28741721854304635" style="stroke:red;stroke-width:1" />
 <line x1="15.3947019867549668" y1="6.28741721854304635" x2="15.0132450331125827" y2="6.43046357615894039" style="stroke:red;stroke-width:1" />
 <line x1="15.0132450331125827" y1="6.43046357615894039" x2="14.6317880794701985" y2="6.43046357615894039" style="stroke:red;stroke-width:1" />
 <line x1="14.6317880794701985" y1="6.43046357615894039" x2="14.4410596026490065" y2="6.28741721854304635" style="stroke:red;stroke-width:1" />
 <line x1="21.0688741721854303" y1="6.85960264900662251" x2="21.0688741721854303" y2="11.6278145695364238" style="stroke:red;stroke-width:1" />
 <line x1="21.0688741721854303" y1="11.6278145695364238" x2="23.548344370860927" y2="11.6278145695364238" style="stroke:red;stroke-width:1" />
 <line x1="23.548344370860927" y1="11.6278145695364238" x2="23.548344370860927" y2="6.85960264900662251" style="stroke:red;stroke-width:1" />
 <path d="M 23.548344370860927 6.85960264900662251
          A 1.23973509933774834 1.23973509933774834 0 1 0 21.0688741721854304 6.85960264900662251"
       stroke="red" fill="white" stroke-width="1" fill-opacity="0.0"/>
 <path d="M 18.0172185430463575 11.4370860927152317
          A 1.0966887417218543 1.0966887417218543 0 1 0 20.2105960264900661 11.4370860927152317
          A 1.0966887417218543 1.0966887417218543 0 1 0 18.0172185430463575 11.4370860927152317"
       stroke="red" fill="white" stroke-width="1" fill-opacity="0.0"/>
 <path d="M 24.4066225165562913 11.4370860927152317
          A 1.0966887417218543 1.0966887417218543 0 1 0 26.5999999999999999 11.4370860927152317
          A 1.0966887417218543 1.0966887417218543 0 1 0 24.4066225165562913 11.4370860927152317"
       stroke="red" fill="white" stroke-width="1" fill-opacity="0.0"/>
 <line x1="26.5523178807947018" y1="12.533774834437086" x2="18.0649006622516555" y2="12.533774834437086" style="stroke:red;stroke-width:1" />
 <line x1="22.3086092715231787" y1="11.6278145695364238" x2="22.3086092715231787" y2="21.6887417218543044" style="stroke:red;stroke-width:1" />
 <line x1="23.548344370860927" y1="16.777483443708609" x2="23.6913907284768211" y2="16.586754966887417" style="stroke:red;stroke-width:1" />
 <line x1="23.6913907284768211" y1="16.586754966887417" x2="23.548344370860927" y2="15.1562913907284766" style="stroke:red;stroke-width:1" />
 <line x1="23.548344370860927" y1="15.1562913907284766" x2="23.357615894039735" y2="13.9165562913907282" style="stroke:red;stroke-width:1" />
 <line x1="23.357615894039735" y1="13.9165562913907282" x2="22.9761589403973509" y2="13.0582781456953641" style="stroke:red;stroke-width:1" />
 <line x1="22.9761589403973509" y1="13.0582781456953641" x2="22.6900662251655628" y2="12.6768211920529801" style="stroke:red;stroke-width:1" />
 <line x1="22.6900662251655628" y1="12.6768211920529801" x2="22.3086092715231787" y2="12.533774834437086" style="stroke:red;stroke-width:1" />
 <line x1="22.3086092715231787" y1="12.533774834437086" x2="21.9748344370860926" y2="12.6768211920529801" style="stroke:red;stroke-width:1" />
 <line x1="21.9748344370860926" y1="12.6768211920529801" x2="21.5933774834437085" y2="13.0582781456953641" style="stroke:red;stroke-width:1" />
 <line x1="21.5933774834437085" y1="13.0582781456953641" x2="21.2596026490066224" y2="13.9165562913907282" style="stroke:red;stroke-width:1" />
 <line x1="21.2596026490066224" y1="13.9165562913907282" x2="21.0688741721854303" y2="15.1562913907284766" style="stroke:red;stroke-width:1" />
 <line x1="21.0688741721854303" y1="15.1562913907284766" x2="20.8781456953642383" y2="16.586754966887417" style="stroke:red;stroke-width:1" />
 <line x1="20.8781456953642383" y1="16.586754966887417" x2="21.0688741721854303" y2="16.777483443708609" style="stroke:red;stroke-width:1" />
 <line x1="21.0688741721854303" y1="16.777483443708609" x2="23.548344370860927" y2="16.777483443708609" style="stroke:red;stroke-width:1" />

</svg>
