<!DOCTYPE svg PUBLIC "-//W3C//DTD SVG 1.1//EN" "http://www.w3.org/Graphics/SVG/1.1/DTD/svg11.dtd">
<svg width="42" height="47" xmlns="http://www.w3.org/2000/svg">
 <!-- Gardiner/Zz376515 at (0,.23529411764705882) in red, scale=.0705882352941176472, mirror=0 -->
 <line x1="5" y1="33.2352941176470588" x2="36.7647058823529412" y2="33.2352941176470588" style="stroke:red;stroke-width:1" />
 <line x1="36.7647058823529412" y1="37.1176470588235294" x2="5" y2="37.1176470588235294" style="stroke:red;stroke-width:1" />
 <line x1="5" y1="41" x2="36.7647058823529412" y2="41" style="stroke:red;stroke-width:1" />
 <line x1="8.88235294117647059" y1="33.2352941176470588" x2="8.88235294117647059" y2="41" style="stroke:red;stroke-width:1" />
 <line x1="14.8823529411764705" y1="33.2352941176470588" x2="14.8823529411764705" y2="41" style="stroke:red;stroke-width:1" />
 <line x1="20.8823529411764706" y1="33.2352941176470588" x2="20.8823529411764706" y2="41" style="stroke:red;stroke-width:1" />
 <line x1="26.8823529411764706" y1="33.2352941176470588" x2="26.8823529411764706" y2="41" style="stroke:red;stroke-width:1" />
 <line x1="32.8823529411764706" y1="33.2352941176470588" x2="32.8823529411764706" y2="41" style="stroke:red;stroke-width:1" />
 <line x1="36.6235294117647059" y1="17.2823529411764705" x2="5" y2="17.2823529411764705" style="stroke:red;stroke-width:1" />
 <line x1="9.8" y1="17.2823529411764705" x2="9.23529411764705883" y2="15.588235294117647" style="stroke:red;stroke-width:1" />
 <line x1="9.23529411764705883" y1="15.588235294117647" x2="8.31764705882352941" y2="14.1764705882352941" style="stroke:red;stroke-width:1" />
 <line x1="8.31764705882352941" y1="14.1764705882352941" x2="6.90588235294117647" y2="13.1176470588235294" style="stroke:red;stroke-width:1" />
 <line x1="6.90588235294117647" y1="13.1176470588235294" x2="5.77647058823529411" y2="13.1176470588235294" style="stroke:red;stroke-width:1" />
 <line x1="5.77647058823529411" y1="13.1176470588235294" x2="5.14117647058823529" y2="13.7529411764705882" style="stroke:red;stroke-width:1" />
 <line x1="5.14117647058823529" y1="13.7529411764705882" x2="5" y2="14.5999999999999999" style="stroke:red;stroke-width:1" />
 <line x1="5" y1="14.5999999999999999" x2="5.28235294117647058" y2="16.0117647058823529" style="stroke:red;stroke-width:1" />
 <line x1="5.28235294117647058" y1="16.0117647058823529" x2="5.70588235294117647" y2="17.2823529411764705" style="stroke:red;stroke-width:1" />
 <line x1="5.70588235294117647" y1="17.2823529411764705" x2="6.97647058823529412" y2="21.5176470588235294" style="stroke:red;stroke-width:1" />
 <line x1="6.97647058823529412" y1="21.5176470588235294" x2="9.23529411764705883" y2="21.5176470588235294" style="stroke:red;stroke-width:1" />
 <line x1="9.23529411764705883" y1="21.5176470588235294" x2="9.8" y2="17.2823529411764705" style="stroke:red;stroke-width:1" />
 <line x1="20.8823529411764706" y1="17.2823529411764705" x2="20.8823529411764706" y2="33.4470588235294118" style="stroke:red;stroke-width:1" />
 <line x1="15.7294117647058823" y1="17.2823529411764705" x2="20.8823529411764706" y2="23.988235294117647" style="stroke:red;stroke-width:1" />
 <line x1="20.8823529411764706" y1="17.2823529411764705" x2="22.5058823529411764" y2="19.4" style="stroke:red;stroke-width:1" />
 <line x1="22.5058823529411764" y1="19.4" x2="23.5647058823529411" y2="21.6588235294117647" style="stroke:red;stroke-width:1" />
 <line x1="23.5647058823529411" y1="21.6588235294117647" x2="24.4117647058823529" y2="23.7764705882352941" style="stroke:red;stroke-width:1" />
 <line x1="24.4117647058823529" y1="23.7764705882352941" x2="24.6941176470588235" y2="25.1176470588235294" style="stroke:red;stroke-width:1" />
 <line x1="24.6941176470588235" y1="25.1176470588235294" x2="24.4117647058823529" y2="25.9647058823529411" style="stroke:red;stroke-width:1" />
 <line x1="24.4117647058823529" y1="25.9647058823529411" x2="23.9176470588235294" y2="26.4588235294117647" style="stroke:red;stroke-width:1" />
 <line x1="23.9176470588235294" y1="26.4588235294117647" x2="23.2117647058823529" y2="26.5294117647058823" style="stroke:red;stroke-width:1" />
 <line x1="23.2117647058823529" y1="26.5294117647058823" x2="22.5764705882352941" y2="26.1058823529411764" style="stroke:red;stroke-width:1" />
 <line x1="22.5764705882352941" y1="26.1058823529411764" x2="23" y2="27.588235294117647" style="stroke:red;stroke-width:1" />
 <line x1="23" y1="27.588235294117647" x2="23.1411764705882353" y2="28.5058823529411764" style="stroke:red;stroke-width:1" />
 <line x1="23.1411764705882353" y1="28.5058823529411764" x2="23.0705882352941176" y2="29.2823529411764706" style="stroke:red;stroke-width:1" />
 <line x1="23.0705882352941176" y1="29.2823529411764706" x2="22.3647058823529411" y2="29.5647058823529412" style="stroke:red;stroke-width:1" />
 <line x1="22.3647058823529411" y1="29.5647058823529412" x2="21.6588235294117647" y2="29.2117647058823529" style="stroke:red;stroke-width:1" />
 <line x1="21.6588235294117647" y1="29.2117647058823529" x2="20.8823529411764706" y2="28.6470588235294117" style="stroke:red;stroke-width:1" />
 <line x1="33.8705882352941176" y1="16.788235294117647" x2="33.3058823529411765" y2="15.8" style="stroke:red;stroke-width:1" />
 <line x1="33.3058823529411765" y1="15.8" x2="31.8941176470588235" y2="14.0352941176470588" style="stroke:red;stroke-width:1" />
 <line x1="31.8941176470588235" y1="14.0352941176470588" x2="29.7764705882352941" y2="12.0588235294117647" style="stroke:red;stroke-width:1" />
 <line x1="29.7764705882352941" y1="12.0588235294117647" x2="28.6470588235294117" y2="11" style="stroke:red;stroke-width:1" />
 <line x1="28.6470588235294117" y1="11" x2="30.6235294117647059" y2="9.09411764705882353" style="stroke:red;stroke-width:1" />
 <line x1="30.6235294117647059" y1="9.09411764705882353" x2="32.2470588235294117" y2="7.25882352941176471" style="stroke:red;stroke-width:1" />
 <line x1="32.2470588235294117" y1="7.25882352941176471" x2="33.588235294117647" y2="5.49411764705882353" style="stroke:red;stroke-width:1" />
 <line x1="33.588235294117647" y1="5.49411764705882353" x2="34.2235294117647059" y2="6.12941176470588235" style="stroke:red;stroke-width:1" />
 <line x1="34.2235294117647059" y1="6.12941176470588235" x2="34.9294117647058823" y2="7.4" style="stroke:red;stroke-width:1" />
 <line x1="34.9294117647058823" y1="7.4" x2="35.3529411764705882" y2="8.52941176470588236" style="stroke:red;stroke-width:1" />
 <line x1="35.3529411764705882" y1="8.52941176470588236" x2="35.7058823529411765" y2="11.0705882352941176" style="stroke:red;stroke-width:1" />
 <line x1="35.7058823529411765" y1="11.0705882352941176" x2="35.4235294117647059" y2="14.1058823529411764" style="stroke:red;stroke-width:1" />
 <line x1="35.4235294117647059" y1="14.1058823529411764" x2="35.0705882352941176" y2="15.5176470588235294" style="stroke:red;stroke-width:1" />
 <line x1="35.0705882352941176" y1="15.5176470588235294" x2="34.788235294117647" y2="16.2941176470588235" style="stroke:red;stroke-width:1" />
 <line x1="34.788235294117647" y1="16.2941176470588235" x2="34.2235294117647059" y2="16.7176470588235294" style="stroke:red;stroke-width:1" />
 <line x1="34.2235294117647059" y1="16.7176470588235294" x2="33.5176470588235294" y2="17" style="stroke:red;stroke-width:1" />
 <line x1="33.5176470588235294" y1="17" x2="32.1058823529411765" y2="17.2117647058823529" style="stroke:red;stroke-width:1" />
 <line x1="32.1058823529411765" y1="17.2117647058823529" x2="29.7764705882352941" y2="16.7176470588235294" style="stroke:red;stroke-width:1" />
 <line x1="29.7764705882352941" y1="16.7176470588235294" x2="26.6705882352941176" y2="15.8705882352941176" style="stroke:red;stroke-width:1" />
 <line x1="26.6705882352941176" y1="15.8705882352941176" x2="22.788235294117647" y2="15.4470588235294117" style="stroke:red;stroke-width:1" />
 <line x1="22.788235294117647" y1="15.4470588235294117" x2="19.1176470588235294" y2="16.0117647058823529" style="stroke:red;stroke-width:1" />
 <line x1="19.1176470588235294" y1="16.0117647058823529" x2="16.6470588235294117" y2="16.7176470588235294" style="stroke:red;stroke-width:1" />
 <line x1="16.6470588235294117" y1="16.7176470588235294" x2="15.5176470588235294" y2="17" style="stroke:red;stroke-width:1" />
 <line x1="15.5176470588235294" y1="17" x2="14.5294117647058823" y2="17" style="stroke:red;stroke-width:1" />
 <line x1="14.5294117647058823" y1="17" x2="13.6823529411764705" y2="16.5764705882352941" style="stroke:red;stroke-width:1" />
 <line x1="13.6823529411764705" y1="16.5764705882352941" x2="10.7176470588235294" y2="14.4588235294117647" style="stroke:red;stroke-width:1" />
 <line x1="10.7176470588235294" y1="14.4588235294117647" x2="9.16470588235294118" y2="13.4705882352941176" style="stroke:red;stroke-width:1" />
 <line x1="9.16470588235294118" y1="13.4705882352941176" x2="8.31764705882352941" y2="12.7647058823529411" style="stroke:red;stroke-width:1" />
 <line x1="8.31764705882352941" y1="12.7647058823529411" x2="8.17647058823529412" y2="12.3411764705882353" style="stroke:red;stroke-width:1" />
 <line x1="8.17647058823529412" y1="12.3411764705882353" x2="8.67058823529411765" y2="12.0588235294117647" style="stroke:red;stroke-width:1" />
 <line x1="8.67058823529411765" y1="12.0588235294117647" x2="9.9411764705882353" y2="11.2117647058823529" style="stroke:red;stroke-width:1" />
 <line x1="9.9411764705882353" y1="11.2117647058823529" x2="11.7058823529411764" y2="9.51764705882352942" style="stroke:red;stroke-width:1" />
 <line x1="11.7058823529411764" y1="9.51764705882352942" x2="12.9058823529411764" y2="7.82352941176470588" style="stroke:red;stroke-width:1" />
 <line x1="12.9058823529411764" y1="7.82352941176470588" x2="13.8941176470588235" y2="6.55294117647058823" style="stroke:red;stroke-width:1" />
 <line x1="13.8941176470588235" y1="6.55294117647058823" x2="14.5294117647058823" y2="6.12941176470588235" style="stroke:red;stroke-width:1" />
 <line x1="14.5294117647058823" y1="6.12941176470588235" x2="15.8" y2="5.56470588235294117" style="stroke:red;stroke-width:1" />
 <line x1="15.8" y1="5.56470588235294117" x2="18.2" y2="5.42352941176470588" style="stroke:red;stroke-width:1" />
 <line x1="18.2" y1="5.42352941176470588" x2="22.4352941176470588" y2="5.91764705882352941" style="stroke:red;stroke-width:1" />
 <line x1="22.4352941176470588" y1="5.91764705882352941" x2="26.1058823529411764" y2="5.91764705882352941" style="stroke:red;stroke-width:1" />
 <line x1="26.1058823529411764" y1="5.91764705882352941" x2="29.0705882352941176" y2="5.49411764705882353" style="stroke:red;stroke-width:1" />
 <line x1="29.0705882352941176" y1="5.49411764705882353" x2="32.0352941176470588" y2="5" style="stroke:red;stroke-width:1" />
 <line x1="32.0352941176470588" y1="5" x2="32.8117647058823529" y2="5.07058823529411764" style="stroke:red;stroke-width:1" />
 <line x1="32.8117647058823529" y1="5.07058823529411764" x2="33.588235294117647" y2="5.49411764705882353" style="stroke:red;stroke-width:1" />

</svg>
