<!DOCTYPE svg PUBLIC "-//W3C//DTD SVG 1.1//EN" "http://www.w3.org/Graphics/SVG/1.1/DTD/svg11.dtd">
<svg width="38" height="47" xmlns="http://www.w3.org/2000/svg">
 <!-- Gardiner/Zz376515 at (0,.5) in red, scale=.06, mirror=0 -->
 <line x1="5" y1="34.46" x2="32" y2="34.46" style="stroke:red;stroke-width:1" />
 <line x1="32" y1="37.76" x2="5" y2="37.76" style="stroke:red;stroke-width:1" />
 <line x1="5" y1="41.06" x2="32" y2="41.06" style="stroke:red;stroke-width:1" />
 <line x1="8.3" y1="34.46" x2="8.3" y2="41.06" style="stroke:red;stroke-width:1" />
 <line x1="13.4" y1="34.46" x2="13.4" y2="41.06" style="stroke:red;stroke-width:1" />
 <line x1="18.5" y1="34.46" x2="18.5" y2="41.06" style="stroke:red;stroke-width:1" />
 <line x1="23.6" y1="34.46" x2="23.6" y2="41.06" style="stroke:red;stroke-width:1" />
 <line x1="28.7" y1="34.46" x2="28.7" y2="41.06" style="stroke:red;stroke-width:1" />
 <line x1="31.88" y1="20.72" x2="5" y2="20.72" style="stroke:red;stroke-width:1" />
 <line x1="9.08" y1="20.72" x2="8.6" y2="19.28" style="stroke:red;stroke-width:1" />
 <line x1="8.6" y1="19.28" x2="7.82" y2="18.08" style="stroke:red;stroke-width:1" />
 <line x1="7.82" y1="18.08" x2="6.62" y2="17.18" style="stroke:red;stroke-width:1" />
 <line x1="6.62" y1="17.18" x2="5.66" y2="17.18" style="stroke:red;stroke-width:1" />
 <line x1="5.66" y1="17.18" x2="5.12" y2="17.72" style="stroke:red;stroke-width:1" />
 <line x1="5.12" y1="17.72" x2="5" y2="18.44" style="stroke:red;stroke-width:1" />
 <line x1="5" y1="18.44" x2="5.24" y2="19.64" style="stroke:red;stroke-width:1" />
 <line x1="5.24" y1="19.64" x2="5.6" y2="20.72" style="stroke:red;stroke-width:1" />
 <line x1="5.6" y1="20.72" x2="6.68" y2="24.32" style="stroke:red;stroke-width:1" />
 <line x1="6.68" y1="24.32" x2="8.6" y2="24.32" style="stroke:red;stroke-width:1" />
 <line x1="8.6" y1="24.32" x2="9.08" y2="20.72" style="stroke:red;stroke-width:1" />
 <line x1="18.5" y1="20.72" x2="18.5" y2="34.46" style="stroke:red;stroke-width:1" />
 <line x1="14.12" y1="20.72" x2="18.5" y2="26.42" style="stroke:red;stroke-width:1" />
 <line x1="18.5" y1="20.72" x2="19.88" y2="22.52" style="stroke:red;stroke-width:1" />
 <line x1="19.88" y1="22.52" x2="20.78" y2="24.44" style="stroke:red;stroke-width:1" />
 <line x1="20.78" y1="24.44" x2="21.5" y2="26.24" style="stroke:red;stroke-width:1" />
 <line x1="21.5" y1="26.24" x2="21.74" y2="27.38" style="stroke:red;stroke-width:1" />
 <line x1="21.74" y1="27.38" x2="21.5" y2="28.1" style="stroke:red;stroke-width:1" />
 <line x1="21.5" y1="28.1" x2="21.08" y2="28.52" style="stroke:red;stroke-width:1" />
 <line x1="21.08" y1="28.52" x2="20.48" y2="28.58" style="stroke:red;stroke-width:1" />
 <line x1="20.48" y1="28.58" x2="19.94" y2="28.22" style="stroke:red;stroke-width:1" />
 <line x1="19.94" y1="28.22" x2="20.3" y2="29.48" style="stroke:red;stroke-width:1" />
 <line x1="20.3" y1="29.48" x2="20.42" y2="30.26" style="stroke:red;stroke-width:1" />
 <line x1="20.42" y1="30.26" x2="20.36" y2="30.92" style="stroke:red;stroke-width:1" />
 <line x1="20.36" y1="30.92" x2="19.76" y2="31.16" style="stroke:red;stroke-width:1" />
 <line x1="19.76" y1="31.16" x2="19.16" y2="30.86" style="stroke:red;stroke-width:1" />
 <line x1="19.16" y1="30.86" x2="18.5" y2="30.38" style="stroke:red;stroke-width:1" />
 <line x1="11.18" y1="5" x2="10.58" y2="5.06" style="stroke:red;stroke-width:1" />
 <line x1="10.58" y1="5.06" x2="10.16" y2="5.18" style="stroke:red;stroke-width:1" />
 <line x1="10.16" y1="5.18" x2="9.62" y2="5.36" style="stroke:red;stroke-width:1" />
 <line x1="9.62" y1="5.36" x2="9.14" y2="5.6" style="stroke:red;stroke-width:1" />
 <line x1="9.14" y1="5.6" x2="8.54" y2="5.96" style="stroke:red;stroke-width:1" />
 <line x1="8.54" y1="5.96" x2="8.78" y2="5.96" style="stroke:red;stroke-width:1" />
 <line x1="8.78" y1="5.96" x2="8.96" y2="5.96" style="stroke:red;stroke-width:1" />
 <line x1="8.96" y1="5.96" x2="9.2" y2="6.02" style="stroke:red;stroke-width:1" />
 <line x1="9.2" y1="6.02" x2="9.5" y2="6.2" style="stroke:red;stroke-width:1" />
 <line x1="9.5" y1="6.2" x2="9.62" y2="6.5" style="stroke:red;stroke-width:1" />
 <line x1="9.62" y1="6.5" x2="9.86" y2="6.86" style="stroke:red;stroke-width:1" />
 <line x1="9.86" y1="6.86" x2="10.1" y2="7.22" style="stroke:red;stroke-width:1" />
 <line x1="10.1" y1="7.22" x2="10.22" y2="7.52" style="stroke:red;stroke-width:1" />
 <line x1="10.22" y1="7.52" x2="10.46" y2="7.82" style="stroke:red;stroke-width:1" />
 <line x1="10.46" y1="7.82" x2="10.64" y2="8.06" style="stroke:red;stroke-width:1" />
 <line x1="10.64" y1="8.06" x2="10.88" y2="8.24" style="stroke:red;stroke-width:1" />
 <line x1="10.88" y1="8.24" x2="11.18" y2="8.3" style="stroke:red;stroke-width:1" />
 <line x1="11.18" y1="8.3" x2="11" y2="8.48" style="stroke:red;stroke-width:1" />
 <line x1="11" y1="8.48" x2="10.88" y2="8.66" style="stroke:red;stroke-width:1" />
 <line x1="10.88" y1="8.66" x2="10.82" y2="8.96" style="stroke:red;stroke-width:1" />
 <line x1="10.82" y1="8.96" x2="10.76" y2="9.5" style="stroke:red;stroke-width:1" />
 <line x1="10.76" y1="9.5" x2="10.76" y2="10.28" style="stroke:red;stroke-width:1" />
 <line x1="10.76" y1="10.28" x2="10.64" y2="11.24" style="stroke:red;stroke-width:1" />
 <line x1="10.64" y1="11.24" x2="10.52" y2="12.32" style="stroke:red;stroke-width:1" />
 <line x1="10.52" y1="12.32" x2="10.4" y2="13.64" style="stroke:red;stroke-width:1" />
 <line x1="10.4" y1="13.64" x2="10.34" y2="14.84" style="stroke:red;stroke-width:1" />
 <line x1="10.34" y1="14.84" x2="10.28" y2="15.92" style="stroke:red;stroke-width:1" />
 <line x1="10.28" y1="15.92" x2="10.28" y2="16.88" style="stroke:red;stroke-width:1" />
 <line x1="10.28" y1="16.88" x2="10.28" y2="17.78" style="stroke:red;stroke-width:1" />
 <line x1="10.28" y1="17.78" x2="10.34" y2="18.32" style="stroke:red;stroke-width:1" />
 <line x1="10.34" y1="18.32" x2="10.46" y2="18.74" style="stroke:red;stroke-width:1" />
 <line x1="10.46" y1="18.74" x2="10.52" y2="19.16" style="stroke:red;stroke-width:1" />
 <line x1="10.52" y1="19.16" x2="10.64" y2="19.46" style="stroke:red;stroke-width:1" />
 <line x1="10.64" y1="19.46" x2="10.88" y2="19.76" style="stroke:red;stroke-width:1" />
 <line x1="10.88" y1="19.76" x2="11.12" y2="19.82" style="stroke:red;stroke-width:1" />
 <line x1="11.12" y1="19.82" x2="11.24" y2="19.82" style="stroke:red;stroke-width:1" />
 <line x1="11.24" y1="19.82" x2="11.48" y2="19.76" style="stroke:red;stroke-width:1" />
 <line x1="11.48" y1="19.76" x2="11.72" y2="19.46" style="stroke:red;stroke-width:1" />
 <line x1="11.72" y1="19.46" x2="11.84" y2="19.16" style="stroke:red;stroke-width:1" />
 <line x1="11.84" y1="19.16" x2="11.9" y2="18.74" style="stroke:red;stroke-width:1" />
 <line x1="11.9" y1="18.74" x2="12.02" y2="18.32" style="stroke:red;stroke-width:1" />
 <line x1="12.02" y1="18.32" x2="12.08" y2="17.78" style="stroke:red;stroke-width:1" />
 <line x1="12.08" y1="17.78" x2="12.08" y2="16.88" style="stroke:red;stroke-width:1" />
 <line x1="12.08" y1="16.88" x2="12.08" y2="15.92" style="stroke:red;stroke-width:1" />
 <line x1="12.08" y1="15.92" x2="12.02" y2="14.84" style="stroke:red;stroke-width:1" />
 <line x1="12.02" y1="14.84" x2="11.96" y2="13.64" style="stroke:red;stroke-width:1" />
 <line x1="11.96" y1="13.64" x2="11.84" y2="12.32" style="stroke:red;stroke-width:1" />
 <line x1="11.84" y1="12.32" x2="11.72" y2="11.24" style="stroke:red;stroke-width:1" />
 <line x1="11.72" y1="11.24" x2="11.6" y2="10.28" style="stroke:red;stroke-width:1" />
 <line x1="11.6" y1="10.28" x2="11.6" y2="9.5" style="stroke:red;stroke-width:1" />
 <line x1="11.6" y1="9.5" x2="11.54" y2="8.96" style="stroke:red;stroke-width:1" />
 <line x1="11.54" y1="8.96" x2="11.48" y2="8.66" style="stroke:red;stroke-width:1" />
 <line x1="11.48" y1="8.66" x2="11.36" y2="8.48" style="stroke:red;stroke-width:1" />
 <line x1="11.36" y1="8.48" x2="11.18" y2="8.3" style="stroke:red;stroke-width:1" />
 <line x1="11.18" y1="8.3" x2="11.48" y2="8.24" style="stroke:red;stroke-width:1" />
 <line x1="11.48" y1="8.24" x2="11.72" y2="8.06" style="stroke:red;stroke-width:1" />
 <line x1="11.72" y1="8.06" x2="11.9" y2="7.82" style="stroke:red;stroke-width:1" />
 <line x1="11.9" y1="7.82" x2="12.14" y2="7.52" style="stroke:red;stroke-width:1" />
 <line x1="12.14" y1="7.52" x2="12.26" y2="7.22" style="stroke:red;stroke-width:1" />
 <line x1="12.26" y1="7.22" x2="12.5" y2="6.86" style="stroke:red;stroke-width:1" />
 <line x1="12.5" y1="6.86" x2="12.74" y2="6.5" style="stroke:red;stroke-width:1" />
 <line x1="12.74" y1="6.5" x2="12.86" y2="6.2" style="stroke:red;stroke-width:1" />
 <line x1="12.86" y1="6.2" x2="13.16" y2="6.02" style="stroke:red;stroke-width:1" />
 <line x1="13.16" y1="6.02" x2="13.4" y2="5.96" style="stroke:red;stroke-width:1" />
 <line x1="13.4" y1="5.96" x2="13.58" y2="5.96" style="stroke:red;stroke-width:1" />
 <line x1="13.58" y1="5.96" x2="13.82" y2="5.96" style="stroke:red;stroke-width:1" />
 <line x1="13.82" y1="5.96" x2="13.22" y2="5.6" style="stroke:red;stroke-width:1" />
 <line x1="13.22" y1="5.6" x2="12.74" y2="5.36" style="stroke:red;stroke-width:1" />
 <line x1="12.74" y1="5.36" x2="12.2" y2="5.18" style="stroke:red;stroke-width:1" />
 <line x1="12.2" y1="5.18" x2="11.78" y2="5.06" style="stroke:red;stroke-width:1" />
 <line x1="11.78" y1="5.06" x2="11.18" y2="5" style="stroke:red;stroke-width:1" />
 <line x1="16.94" y1="6.2" x2="16.94" y2="5.96" style="stroke:red;stroke-width:1" />
 <line x1="16.94" y1="5.96" x2="17.12" y2="5.78" style="stroke:red;stroke-width:1" />
 <line x1="17.12" y1="5.78" x2="17.3" y2="5.54" style="stroke:red;stroke-width:1" />
 <line x1="17.3" y1="5.54" x2="17.6" y2="5.3" style="stroke:red;stroke-width:1" />
 <line x1="17.6" y1="5.3" x2="17.96" y2="5.18" style="stroke:red;stroke-width:1" />
 <line x1="17.96" y1="5.18" x2="18.26" y2="5" style="stroke:red;stroke-width:1" />
 <line x1="18.26" y1="5" x2="18.56" y2="5" style="stroke:red;stroke-width:1" />
 <line x1="18.56" y1="5" x2="18.86" y2="5" style="stroke:red;stroke-width:1" />
 <line x1="18.86" y1="5" x2="19.22" y2="5.12" style="stroke:red;stroke-width:1" />
 <line x1="19.22" y1="5.12" x2="19.52" y2="5.24" style="stroke:red;stroke-width:1" />
 <line x1="19.52" y1="5.24" x2="19.64" y2="5.48" style="stroke:red;stroke-width:1" />
 <line x1="19.64" y1="5.48" x2="19.88" y2="5.84" style="stroke:red;stroke-width:1" />
 <line x1="19.88" y1="5.84" x2="20" y2="6.2" style="stroke:red;stroke-width:1" />
 <line x1="20" y1="6.2" x2="20.12" y2="6.56" style="stroke:red;stroke-width:1" />
 <line x1="20.12" y1="6.56" x2="20.18" y2="6.92" style="stroke:red;stroke-width:1" />
 <line x1="20.18" y1="6.92" x2="20.18" y2="7.34" style="stroke:red;stroke-width:1" />
 <line x1="20.18" y1="7.34" x2="20.12" y2="7.64" style="stroke:red;stroke-width:1" />
 <line x1="20.12" y1="7.64" x2="20" y2="8" style="stroke:red;stroke-width:1" />
 <line x1="20" y1="8" x2="19.94" y2="8.3" style="stroke:red;stroke-width:1" />
 <line x1="19.94" y1="8.3" x2="19.94" y2="8.54" style="stroke:red;stroke-width:1" />
 <line x1="19.94" y1="8.54" x2="19.94" y2="8.84" style="stroke:red;stroke-width:1" />
 <line x1="19.94" y1="8.84" x2="20" y2="8.96" style="stroke:red;stroke-width:1" />
 <line x1="20" y1="8.96" x2="20.24" y2="9.02" style="stroke:red;stroke-width:1" />
 <line x1="20.24" y1="9.02" x2="20.54" y2="9.14" style="stroke:red;stroke-width:1" />
 <line x1="20.54" y1="9.14" x2="20.84" y2="9.14" style="stroke:red;stroke-width:1" />
 <line x1="20.84" y1="9.14" x2="21.56" y2="8.96" style="stroke:red;stroke-width:1" />
 <line x1="21.56" y1="8.96" x2="22.28" y2="8.9" style="stroke:red;stroke-width:1" />
 <line x1="22.28" y1="8.9" x2="23.12" y2="8.72" style="stroke:red;stroke-width:1" />
 <line x1="23.12" y1="8.72" x2="24.02" y2="8.6" style="stroke:red;stroke-width:1" />
 <line x1="24.02" y1="8.6" x2="24.92" y2="8.54" style="stroke:red;stroke-width:1" />
 <line x1="24.92" y1="8.54" x2="25.7" y2="8.48" style="stroke:red;stroke-width:1" />
 <line x1="25.7" y1="8.48" x2="26.48" y2="8.48" style="stroke:red;stroke-width:1" />
 <line x1="26.48" y1="8.48" x2="27.08" y2="8.48" style="stroke:red;stroke-width:1" />
 <line x1="27.08" y1="8.48" x2="27.68" y2="8.54" style="stroke:red;stroke-width:1" />
 <line x1="27.68" y1="8.54" x2="28.34" y2="8.66" style="stroke:red;stroke-width:1" />
 <line x1="28.34" y1="8.66" x2="28.76" y2="8.9" style="stroke:red;stroke-width:1" />
 <line x1="28.76" y1="8.9" x2="29.24" y2="9.08" style="stroke:red;stroke-width:1" />
 <line x1="29.24" y1="9.08" x2="29.66" y2="9.32" style="stroke:red;stroke-width:1" />
 <line x1="29.66" y1="9.32" x2="30.02" y2="9.62" style="stroke:red;stroke-width:1" />
 <line x1="30.02" y1="9.62" x2="30.38" y2="9.98" style="stroke:red;stroke-width:1" />
 <line x1="30.38" y1="9.98" x2="30.56" y2="10.34" style="stroke:red;stroke-width:1" />
 <line x1="30.56" y1="10.34" x2="30.74" y2="10.7" style="stroke:red;stroke-width:1" />
 <line x1="30.74" y1="10.7" x2="30.98" y2="11" style="stroke:red;stroke-width:1" />
 <line x1="30.98" y1="11" x2="31.1" y2="11.42" style="stroke:red;stroke-width:1" />
 <line x1="31.1" y1="11.42" x2="31.16" y2="11.9" style="stroke:red;stroke-width:1" />
 <line x1="31.16" y1="11.9" x2="31.22" y2="12.32" style="stroke:red;stroke-width:1" />
 <line x1="31.22" y1="12.32" x2="31.22" y2="12.86" style="stroke:red;stroke-width:1" />
 <line x1="31.22" y1="12.86" x2="31.22" y2="13.34" style="stroke:red;stroke-width:1" />
 <line x1="31.22" y1="13.34" x2="31.1" y2="14" style="stroke:red;stroke-width:1" />
 <line x1="31.1" y1="14" x2="30.98" y2="14.72" style="stroke:red;stroke-width:1" />
 <line x1="30.98" y1="14.72" x2="30.8" y2="15.38" style="stroke:red;stroke-width:1" />
 <line x1="30.8" y1="15.38" x2="30.74" y2="15.86" style="stroke:red;stroke-width:1" />
 <line x1="30.74" y1="15.86" x2="30.68" y2="16.34" style="stroke:red;stroke-width:1" />
 <line x1="30.68" y1="16.34" x2="30.68" y2="16.76" style="stroke:red;stroke-width:1" />
 <line x1="30.68" y1="16.76" x2="30.68" y2="17.12" style="stroke:red;stroke-width:1" />
 <line x1="30.68" y1="17.12" x2="30.74" y2="17.54" style="stroke:red;stroke-width:1" />
 <line x1="30.74" y1="17.54" x2="30.8" y2="17.9" style="stroke:red;stroke-width:1" />
 <line x1="30.8" y1="17.9" x2="30.98" y2="18.26" style="stroke:red;stroke-width:1" />
 <line x1="30.98" y1="18.26" x2="31.16" y2="18.74" style="stroke:red;stroke-width:1" />
 <line x1="31.16" y1="18.74" x2="31.52" y2="19.28" style="stroke:red;stroke-width:1" />
 <line x1="31.52" y1="19.28" x2="31.76" y2="19.7" style="stroke:red;stroke-width:1" />
 <line x1="31.76" y1="19.7" x2="31.82" y2="19.76" style="stroke:red;stroke-width:1" />
 <line x1="31.82" y1="19.76" x2="31.76" y2="19.82" style="stroke:red;stroke-width:1" />
 <line x1="31.76" y1="19.82" x2="31.64" y2="19.82" style="stroke:red;stroke-width:1" />
 <line x1="31.64" y1="19.82" x2="31.22" y2="19.46" style="stroke:red;stroke-width:1" />
 <line x1="31.22" y1="19.46" x2="30.8" y2="19.04" style="stroke:red;stroke-width:1" />
 <line x1="30.8" y1="19.04" x2="30.56" y2="18.62" style="stroke:red;stroke-width:1" />
 <line x1="30.56" y1="18.62" x2="30.38" y2="18.2" style="stroke:red;stroke-width:1" />
 <line x1="30.38" y1="18.2" x2="30.2" y2="17.78" style="stroke:red;stroke-width:1" />
 <line x1="30.2" y1="17.78" x2="30.08" y2="17.36" style="stroke:red;stroke-width:1" />
 <line x1="30.08" y1="17.36" x2="30.08" y2="16.88" style="stroke:red;stroke-width:1" />
 <line x1="30.08" y1="16.88" x2="30.08" y2="16.52" style="stroke:red;stroke-width:1" />
 <line x1="30.08" y1="16.52" x2="30.08" y2="15.92" style="stroke:red;stroke-width:1" />
 <line x1="30.08" y1="15.92" x2="30.14" y2="15.38" style="stroke:red;stroke-width:1" />
 <line x1="30.14" y1="15.38" x2="30.14" y2="14.84" style="stroke:red;stroke-width:1" />
 <line x1="30.14" y1="14.84" x2="30.2" y2="14.24" style="stroke:red;stroke-width:1" />
 <line x1="30.2" y1="14.24" x2="30.14" y2="13.7" style="stroke:red;stroke-width:1" />
 <line x1="30.14" y1="13.7" x2="30.14" y2="13.1" style="stroke:red;stroke-width:1" />
 <line x1="30.14" y1="13.1" x2="30.08" y2="12.62" style="stroke:red;stroke-width:1" />
 <line x1="30.08" y1="12.62" x2="29.9" y2="12.08" style="stroke:red;stroke-width:1" />
 <line x1="29.9" y1="12.08" x2="29.78" y2="11.66" style="stroke:red;stroke-width:1" />
 <line x1="29.78" y1="11.66" x2="29.6" y2="11.24" style="stroke:red;stroke-width:1" />
 <line x1="29.6" y1="11.24" x2="29.3" y2="10.82" style="stroke:red;stroke-width:1" />
 <line x1="29.3" y1="10.82" x2="28.94" y2="10.52" style="stroke:red;stroke-width:1" />
 <line x1="28.94" y1="10.52" x2="28.52" y2="10.34" style="stroke:red;stroke-width:1" />
 <line x1="28.52" y1="10.34" x2="28.1" y2="10.22" style="stroke:red;stroke-width:1" />
 <line x1="28.1" y1="10.22" x2="27.5" y2="10.04" style="stroke:red;stroke-width:1" />
 <line x1="27.5" y1="10.04" x2="26.78" y2="9.98" style="stroke:red;stroke-width:1" />
 <line x1="26.78" y1="9.98" x2="25.28" y2="9.98" style="stroke:red;stroke-width:1" />
 <line x1="25.28" y1="9.98" x2="23.78" y2="9.98" style="stroke:red;stroke-width:1" />
 <line x1="23.78" y1="9.98" x2="22.22" y2="10.04" style="stroke:red;stroke-width:1" />
 <line x1="22.22" y1="10.04" x2="20.72" y2="10.1" style="stroke:red;stroke-width:1" />
 <line x1="20.72" y1="10.1" x2="19.94" y2="10.04" style="stroke:red;stroke-width:1" />
 <line x1="19.94" y1="10.04" x2="19.64" y2="9.98" style="stroke:red;stroke-width:1" />
 <line x1="19.64" y1="9.98" x2="19.34" y2="9.86" style="stroke:red;stroke-width:1" />
 <line x1="19.34" y1="9.86" x2="19.16" y2="9.62" style="stroke:red;stroke-width:1" />
 <line x1="19.16" y1="9.62" x2="18.98" y2="9.32" style="stroke:red;stroke-width:1" />
 <line x1="18.98" y1="9.32" x2="18.98" y2="9.08" style="stroke:red;stroke-width:1" />
 <line x1="18.98" y1="9.08" x2="19.04" y2="8.78" style="stroke:red;stroke-width:1" />
 <line x1="19.04" y1="8.78" x2="19.28" y2="7.88" style="stroke:red;stroke-width:1" />
 <line x1="19.28" y1="7.88" x2="19.28" y2="7.64" style="stroke:red;stroke-width:1" />
 <line x1="19.28" y1="7.64" x2="19.28" y2="7.34" style="stroke:red;stroke-width:1" />
 <line x1="19.28" y1="7.34" x2="19.16" y2="7.16" style="stroke:red;stroke-width:1" />
 <line x1="19.16" y1="7.16" x2="18.92" y2="6.98" style="stroke:red;stroke-width:1" />
 <line x1="18.92" y1="6.98" x2="18.62" y2="6.92" style="stroke:red;stroke-width:1" />
 <line x1="18.62" y1="6.92" x2="18.32" y2="6.86" style="stroke:red;stroke-width:1" />
 <line x1="18.32" y1="6.86" x2="17.9" y2="6.92" style="stroke:red;stroke-width:1" />
 <line x1="17.9" y1="6.92" x2="17.6" y2="6.92" style="stroke:red;stroke-width:1" />
 <line x1="17.6" y1="6.92" x2="17.3" y2="6.8" style="stroke:red;stroke-width:1" />
 <line x1="17.3" y1="6.8" x2="17.12" y2="6.62" style="stroke:red;stroke-width:1" />
 <line x1="17.12" y1="6.62" x2="16.94" y2="6.44" style="stroke:red;stroke-width:1" />
 <line x1="16.94" y1="6.44" x2="16.94" y2="6.2" style="stroke:red;stroke-width:1" />
 <line x1="19.64" y1="19.82" x2="26.48" y2="19.82" style="stroke:red;stroke-width:1" />
 <path d="M 26.48 19.82
          A 3.42 3.42 0 1 0 19.64 19.82"
       stroke="red" fill="white" stroke-width="1" fill-opacity="0.0"/>

</svg>
