<!DOCTYPE svg PUBLIC "-//W3C//DTD SVG 1.1//EN" "http://www.w3.org/Graphics/SVG/1.1/DTD/svg11.dtd">
<svg width="37" height="46" xmlns="http://www.w3.org/2000/svg">
 <!-- Gardiner/Zz376515 at (0,.52459016393442624) in red, scale=.0590163934426229508, mirror=0 -->
 <line x1="5" y1="34.5081967213114752" x2="31.5573770491803278" y2="34.5081967213114752" style="stroke:red;stroke-width:1" />
 <line x1="31.5573770491803278" y1="37.7540983606557375" x2="5" y2="37.7540983606557375" style="stroke:red;stroke-width:1" />
 <line x1="5" y1="40.9999999999999998" x2="31.5573770491803278" y2="40.9999999999999998" style="stroke:red;stroke-width:1" />
 <line x1="8.24590163934426229" y1="34.5081967213114752" x2="8.24590163934426229" y2="40.9999999999999998" style="stroke:red;stroke-width:1" />
 <line x1="13.2622950819672131" y1="34.5081967213114752" x2="13.2622950819672131" y2="40.9999999999999998" style="stroke:red;stroke-width:1" />
 <line x1="18.2786885245901639" y1="34.5081967213114752" x2="18.2786885245901639" y2="40.9999999999999998" style="stroke:red;stroke-width:1" />
 <line x1="23.2950819672131147" y1="34.5081967213114752" x2="23.2950819672131147" y2="40.9999999999999998" style="stroke:red;stroke-width:1" />
 <line x1="28.3114754098360655" y1="34.5081967213114752" x2="28.3114754098360655" y2="40.9999999999999998" style="stroke:red;stroke-width:1" />
 <line x1="31.4393442622950819" y1="20.9934426229508195" x2="5" y2="20.9934426229508195" style="stroke:red;stroke-width:1" />
 <line x1="9.01311475409836065" y1="20.9934426229508195" x2="8.54098360655737704" y2="19.5770491803278687" style="stroke:red;stroke-width:1" />
 <line x1="8.54098360655737704" y1="19.5770491803278687" x2="7.77377049180327868" y2="18.3967213114754097" style="stroke:red;stroke-width:1" />
 <line x1="7.77377049180327868" y1="18.3967213114754097" x2="6.59344262295081967" y2="17.5114754098360654" style="stroke:red;stroke-width:1" />
 <line x1="6.59344262295081967" y1="17.5114754098360654" x2="5.64918032786885245" y2="17.5114754098360654" style="stroke:red;stroke-width:1" />
 <line x1="5.64918032786885245" y1="17.5114754098360654" x2="5.1180327868852459" y2="18.0426229508196719" style="stroke:red;stroke-width:1" />
 <line x1="5.1180327868852459" y1="18.0426229508196719" x2="5" y2="18.7508196721311474" style="stroke:red;stroke-width:1" />
 <line x1="5" y1="18.7508196721311474" x2="5.2360655737704918" y2="19.9311475409836064" style="stroke:red;stroke-width:1" />
 <line x1="5.2360655737704918" y1="19.9311475409836064" x2="5.5901639344262295" y2="20.9934426229508195" style="stroke:red;stroke-width:1" />
 <line x1="5.5901639344262295" y1="20.9934426229508195" x2="6.65245901639344262" y2="24.5344262295081965" style="stroke:red;stroke-width:1" />
 <line x1="6.65245901639344262" y1="24.5344262295081965" x2="8.54098360655737704" y2="24.5344262295081965" style="stroke:red;stroke-width:1" />
 <line x1="8.54098360655737704" y1="24.5344262295081965" x2="9.01311475409836065" y2="20.9934426229508195" style="stroke:red;stroke-width:1" />
 <line x1="18.2786885245901639" y1="20.9934426229508195" x2="18.2786885245901639" y2="34.5081967213114752" style="stroke:red;stroke-width:1" />
 <line x1="13.9704918032786884" y1="20.9934426229508195" x2="18.2786885245901639" y2="26.5999999999999998" style="stroke:red;stroke-width:1" />
 <line x1="18.2786885245901639" y1="20.9934426229508195" x2="19.6360655737704917" y2="22.763934426229508" style="stroke:red;stroke-width:1" />
 <line x1="19.6360655737704917" y1="22.763934426229508" x2="20.521311475409836" y2="24.6524590163934424" style="stroke:red;stroke-width:1" />
 <line x1="20.521311475409836" y1="24.6524590163934424" x2="21.2295081967213114" y2="26.422950819672131" style="stroke:red;stroke-width:1" />
 <line x1="21.2295081967213114" y1="26.422950819672131" x2="21.4655737704918032" y2="27.544262295081967" style="stroke:red;stroke-width:1" />
 <line x1="21.4655737704918032" y1="27.544262295081967" x2="21.2295081967213114" y2="28.2524590163934424" style="stroke:red;stroke-width:1" />
 <line x1="21.2295081967213114" y1="28.2524590163934424" x2="20.8163934426229507" y2="28.6655737704918031" style="stroke:red;stroke-width:1" />
 <line x1="20.8163934426229507" y1="28.6655737704918031" x2="20.2262295081967212" y2="28.724590163934426" style="stroke:red;stroke-width:1" />
 <line x1="20.2262295081967212" y1="28.724590163934426" x2="19.6950819672131147" y2="28.3704918032786883" style="stroke:red;stroke-width:1" />
 <line x1="19.6950819672131147" y1="28.3704918032786883" x2="20.0491803278688524" y2="29.6098360655737703" style="stroke:red;stroke-width:1" />
 <line x1="20.0491803278688524" y1="29.6098360655737703" x2="20.1672131147540983" y2="30.3770491803278687" style="stroke:red;stroke-width:1" />
 <line x1="20.1672131147540983" y1="30.3770491803278687" x2="20.1081967213114753" y2="31.0262295081967211" style="stroke:red;stroke-width:1" />
 <line x1="20.1081967213114753" y1="31.0262295081967211" x2="19.5180327868852458" y2="31.2622950819672129" style="stroke:red;stroke-width:1" />
 <line x1="19.5180327868852458" y1="31.2622950819672129" x2="18.9278688524590163" y2="30.9672131147540982" style="stroke:red;stroke-width:1" />
 <line x1="18.9278688524590163" y1="30.9672131147540982" x2="18.2786885245901639" y2="30.4950819672131146" style="stroke:red;stroke-width:1" />
 <line x1="16.5081967213114753" y1="10.7836065573770491" x2="16.3901639344262294" y2="10.5475409836065573" style="stroke:red;stroke-width:1" />
 <line x1="16.3901639344262294" y1="10.5475409836065573" x2="16.1540983606557376" y2="10.4885245901639344" style="stroke:red;stroke-width:1" />
 <line x1="16.1540983606557376" y1="10.4885245901639344" x2="15.3278688524590163" y2="10.5475409836065573" style="stroke:red;stroke-width:1" />
 <line x1="15.3278688524590163" y1="10.5475409836065573" x2="14.9737704918032786" y2="10.4885245901639344" style="stroke:red;stroke-width:1" />
 <line x1="14.9737704918032786" y1="10.4885245901639344" x2="14.7377049180327868" y2="10.4295081967213114" style="stroke:red;stroke-width:1" />
 <line x1="14.7377049180327868" y1="10.4295081967213114" x2="14.2655737704918032" y2="10.0754098360655737" style="stroke:red;stroke-width:1" />
 <line x1="14.2655737704918032" y1="10.0754098360655737" x2="14.2065573770491802" y2="9.83934426229508196" style="stroke:red;stroke-width:1" />
 <line x1="14.2065573770491802" y1="9.83934426229508196" x2="14.2065573770491802" y2="9.78032786885245901" style="stroke:red;stroke-width:1" />
 <line x1="14.2065573770491802" y1="9.78032786885245901" x2="14.3245901639344261" y2="9.78032786885245901" style="stroke:red;stroke-width:1" />
 <line x1="14.3245901639344261" y1="9.78032786885245901" x2="14.5606557377049179" y2="10.0163934426229508" style="stroke:red;stroke-width:1" />
 <line x1="14.5606557377049179" y1="10.0163934426229508" x2="14.7967213114754098" y2="10.0754098360655737" style="stroke:red;stroke-width:1" />
 <line x1="14.7967213114754098" y1="10.0754098360655737" x2="15.1508196721311475" y2="10.1934426229508196" style="stroke:red;stroke-width:1" />
 <line x1="15.1508196721311475" y1="10.1934426229508196" x2="15.4459016393442622" y2="10.1344262295081967" style="stroke:red;stroke-width:1" />
 <line x1="15.4459016393442622" y1="10.1344262295081967" x2="15.740983606557377" y2="9.95737704918032786" style="stroke:red;stroke-width:1" />
 <line x1="15.740983606557377" y1="9.95737704918032786" x2="16.3311475409836065" y2="9.89836065573770491" style="stroke:red;stroke-width:1" />
 <line x1="16.3311475409836065" y1="9.89836065573770491" x2="16.6262295081967212" y2="9.95737704918032786" style="stroke:red;stroke-width:1" />
 <line x1="16.6262295081967212" y1="9.95737704918032786" x2="16.8032786885245901" y2="10.1344262295081967" style="stroke:red;stroke-width:1" />
 <line x1="16.8032786885245901" y1="10.1344262295081967" x2="17.0393442622950819" y2="10.3704918032786885" style="stroke:red;stroke-width:1" />
 <line x1="17.0393442622950819" y1="10.3704918032786885" x2="17.0393442622950819" y2="10.6065573770491803" style="stroke:red;stroke-width:1" />
 <line x1="17.0393442622950819" y1="10.6065573770491803" x2="17.0393442622950819" y2="10.7836065573770491" style="stroke:red;stroke-width:1" />
 <line x1="17.0393442622950819" y1="10.7836065573770491" x2="17.1573770491803278" y2="10.4885245901639344" style="stroke:red;stroke-width:1" />
 <line x1="17.1573770491803278" y1="10.4885245901639344" x2="17.2163934426229507" y2="10.2524590163934426" style="stroke:red;stroke-width:1" />
 <line x1="17.2163934426229507" y1="10.2524590163934426" x2="17.4524590163934425" y2="10.0163934426229508" style="stroke:red;stroke-width:1" />
 <line x1="17.4524590163934425" y1="10.0163934426229508" x2="17.6885245901639343" y2="9.89836065573770491" style="stroke:red;stroke-width:1" />
 <line x1="17.6885245901639343" y1="9.89836065573770491" x2="17.9245901639344261" y2="9.89836065573770491" style="stroke:red;stroke-width:1" />
 <line x1="17.9245901639344261" y1="9.89836065573770491" x2="18.8688524590163934" y2="10.0754098360655737" style="stroke:red;stroke-width:1" />
 <line x1="18.8688524590163934" y1="10.0754098360655737" x2="19.2229508196721311" y2="10.0163934426229508" style="stroke:red;stroke-width:1" />
 <line x1="19.2229508196721311" y1="10.0163934426229508" x2="19.4590163934426229" y2="9.89836065573770491" style="stroke:red;stroke-width:1" />
 <line x1="19.4590163934426229" y1="9.89836065573770491" x2="19.9311475409836065" y2="9.66229508196721311" style="stroke:red;stroke-width:1" />
 <line x1="19.9311475409836065" y1="9.66229508196721311" x2="20.0491803278688524" y2="9.48524590163934426" style="stroke:red;stroke-width:1" />
 <line x1="20.0491803278688524" y1="9.48524590163934426" x2="20.1081967213114753" y2="9.66229508196721311" style="stroke:red;stroke-width:1" />
 <line x1="20.1081967213114753" y1="9.66229508196721311" x2="19.8721311475409835" y2="10.0754098360655737" style="stroke:red;stroke-width:1" />
 <line x1="19.8721311475409835" y1="10.0754098360655737" x2="19.6360655737704917" y2="10.1934426229508196" style="stroke:red;stroke-width:1" />
 <line x1="19.6360655737704917" y1="10.1934426229508196" x2="19.2229508196721311" y2="10.3704918032786885" style="stroke:red;stroke-width:1" />
 <line x1="19.2229508196721311" y1="10.3704918032786885" x2="18.9278688524590163" y2="10.4295081967213114" style="stroke:red;stroke-width:1" />
 <line x1="18.9278688524590163" y1="10.4295081967213114" x2="18.5737704918032786" y2="10.3704918032786885" style="stroke:red;stroke-width:1" />
 <line x1="18.5737704918032786" y1="10.3704918032786885" x2="18.042622950819672" y2="10.4885245901639344" style="stroke:red;stroke-width:1" />
 <line x1="18.042622950819672" y1="10.4885245901639344" x2="17.8655737704918032" y2="10.6065573770491803" style="stroke:red;stroke-width:1" />
 <line x1="17.8655737704918032" y1="10.6065573770491803" x2="17.7475409836065573" y2="10.7836065573770491" style="stroke:red;stroke-width:1" />
 <line x1="15.4459016393442622" y1="10.0754098360655737" x2="15.4459016393442622" y2="6.41639344262295081" style="stroke:red;stroke-width:1" />
 <line x1="15.4459016393442622" y1="6.41639344262295081" x2="15.5049180327868852" y2="6.12131147540983606" style="stroke:red;stroke-width:1" />
 <line x1="15.5049180327868852" y1="6.12131147540983606" x2="15.740983606557377" y2="6.00327868852459016" style="stroke:red;stroke-width:1" />
 <line x1="15.740983606557377" y1="6.00327868852459016" x2="15.9180327868852458" y2="5.94426229508196721" style="stroke:red;stroke-width:1" />
 <line x1="15.9180327868852458" y1="5.94426229508196721" x2="16.2131147540983606" y2="6.18032786885245901" style="stroke:red;stroke-width:1" />
 <line x1="16.2131147540983606" y1="6.18032786885245901" x2="16.2131147540983606" y2="6.41639344262295081" style="stroke:red;stroke-width:1" />
 <line x1="16.2131147540983606" y1="6.41639344262295081" x2="16.2131147540983606" y2="9.89836065573770491" style="stroke:red;stroke-width:1" />
 <line x1="16.2131147540983606" y1="6.47540983606557377" x2="16.2721311475409835" y2="6.18032786885245901" style="stroke:red;stroke-width:1" />
 <line x1="16.2721311475409835" y1="6.18032786885245901" x2="16.4491803278688524" y2="6.00327868852459016" style="stroke:red;stroke-width:1" />
 <line x1="16.4491803278688524" y1="6.00327868852459016" x2="16.7442622950819671" y2="5.94426229508196721" style="stroke:red;stroke-width:1" />
 <line x1="16.7442622950819671" y1="5.94426229508196721" x2="16.862295081967213" y2="6.06229508196721311" style="stroke:red;stroke-width:1" />
 <line x1="16.862295081967213" y1="6.06229508196721311" x2="17.0393442622950819" y2="6.41639344262295081" style="stroke:red;stroke-width:1" />
 <line x1="17.0393442622950819" y1="6.41639344262295081" x2="17.0393442622950819" y2="10.4885245901639344" style="stroke:red;stroke-width:1" />
 <line x1="17.0393442622950819" y1="6.47540983606557377" x2="17.1573770491803278" y2="6.18032786885245901" style="stroke:red;stroke-width:1" />
 <line x1="17.1573770491803278" y1="6.18032786885245901" x2="17.2163934426229507" y2="6.00327868852459016" style="stroke:red;stroke-width:1" />
 <line x1="17.2163934426229507" y1="6.00327868852459016" x2="17.5114754098360655" y2="5.94426229508196721" style="stroke:red;stroke-width:1" />
 <line x1="17.5114754098360655" y1="5.94426229508196721" x2="17.7475409836065573" y2="6.06229508196721311" style="stroke:red;stroke-width:1" />
 <line x1="17.7475409836065573" y1="6.06229508196721311" x2="17.8065573770491802" y2="6.23934426229508196" style="stroke:red;stroke-width:1" />
 <line x1="17.8065573770491802" y1="6.23934426229508196" x2="17.8065573770491802" y2="9.83934426229508196" style="stroke:red;stroke-width:1" />
 <line x1="17.8065573770491802" y1="6.23934426229508196" x2="17.9245901639344261" y2="6.00327868852459016" style="stroke:red;stroke-width:1" />
 <line x1="17.9245901639344261" y1="6.00327868852459016" x2="18.2786885245901639" y2="5.94426229508196721" style="stroke:red;stroke-width:1" />
 <line x1="18.2786885245901639" y1="5.94426229508196721" x2="18.5147540983606557" y2="6.06229508196721311" style="stroke:red;stroke-width:1" />
 <line x1="18.5147540983606557" y1="6.06229508196721311" x2="18.5737704918032786" y2="6.35737704918032786" style="stroke:red;stroke-width:1" />
 <line x1="18.5737704918032786" y1="6.35737704918032786" x2="18.5737704918032786" y2="9.95737704918032786" style="stroke:red;stroke-width:1" />
 <line x1="31.3803278688524589" y1="20.9344262295081965" x2="14.2065573770491802" y2="20.9934426229508195" style="stroke:red;stroke-width:1" />
 <line x1="14.2065573770491802" y1="20.9934426229508195" x2="14.2065573770491802" y2="19.9311475409836064" style="stroke:red;stroke-width:1" />
 <line x1="14.2065573770491802" y1="19.9311475409836064" x2="31.3803278688524589" y2="19.9311475409836064" style="stroke:red;stroke-width:1" />
 <line x1="31.3803278688524589" y1="19.9311475409836064" x2="31.4393442622950819" y2="20.9344262295081965" style="stroke:red;stroke-width:1" />
 <line x1="31.3803278688524589" y1="19.9311475409836064" x2="31.0852459016393442" y2="19.5180327868852457" style="stroke:red;stroke-width:1" />
 <line x1="31.0852459016393442" y1="19.5180327868852457" x2="30.6721311475409835" y2="19.163934426229508" style="stroke:red;stroke-width:1" />
 <line x1="30.6721311475409835" y1="19.163934426229508" x2="30.140983606557377" y2="18.9278688524590162" style="stroke:red;stroke-width:1" />
 <line x1="30.140983606557377" y1="18.9278688524590162" x2="29.0196721311475409" y2="18.6327868852459015" style="stroke:red;stroke-width:1" />
 <line x1="29.0196721311475409" y1="18.6327868852459015" x2="27.3081967213114753" y2="18.0426229508196719" style="stroke:red;stroke-width:1" />
 <line x1="27.3081967213114753" y1="18.0426229508196719" x2="26.5999999999999999" y2="17.6295081967213113" style="stroke:red;stroke-width:1" />
 <line x1="26.5999999999999999" y1="17.6295081967213113" x2="25.7737704918032786" y2="17.0393442622950818" style="stroke:red;stroke-width:1" />
 <line x1="25.7737704918032786" y1="17.0393442622950818" x2="24.4163934426229507" y2="15.9770491803278687" style="stroke:red;stroke-width:1" />
 <line x1="24.4163934426229507" y1="15.9770491803278687" x2="23.6491803278688524" y2="15.3278688524590162" style="stroke:red;stroke-width:1" />
 <line x1="23.6491803278688524" y1="15.3278688524590162" x2="22.6459016393442622" y2="14.383606557377049" style="stroke:red;stroke-width:1" />
 <line x1="22.6459016393442622" y1="14.383606557377049" x2="22.0557377049180327" y2="14.0885245901639342" style="stroke:red;stroke-width:1" />
 <line x1="22.0557377049180327" y1="14.0885245901639342" x2="20.9344262295081966" y2="13.4983606557377048" style="stroke:red;stroke-width:1" />
 <line x1="20.9344262295081966" y1="13.4983606557377048" x2="19.8721311475409835" y2="13.262295081967213" style="stroke:red;stroke-width:1" />
 <line x1="19.8721311475409835" y1="13.262295081967213" x2="19.4590163934426229" y2="13.0852459016393441" style="stroke:red;stroke-width:1" />
 <line x1="19.4590163934426229" y1="13.0852459016393441" x2="19.281967213114754" y2="12.140983606557377" style="stroke:red;stroke-width:1" />
 <line x1="19.281967213114754" y1="12.140983606557377" x2="18.9868852459016393" y2="11.6688524590163934" style="stroke:red;stroke-width:1" />
 <line x1="18.9868852459016393" y1="11.6688524590163934" x2="18.5737704918032786" y2="11.1967213114754098" style="stroke:red;stroke-width:1" />
 <line x1="18.5737704918032786" y1="11.1967213114754098" x2="18.042622950819672" y2="10.960655737704918" style="stroke:red;stroke-width:1" />
 <line x1="18.042622950819672" y1="10.960655737704918" x2="17.7475409836065573" y2="10.7836065573770491" style="stroke:red;stroke-width:1" />
 <line x1="17.7475409836065573" y1="10.7836065573770491" x2="16.8032786885245901" y2="10.7836065573770491" style="stroke:red;stroke-width:1" />
 <line x1="16.8032786885245901" y1="10.7836065573770491" x2="16.3311475409836065" y2="10.8426229508196721" style="stroke:red;stroke-width:1" />
 <line x1="16.3311475409836065" y1="10.8426229508196721" x2="15.9180327868852458" y2="10.960655737704918" style="stroke:red;stroke-width:1" />
 <line x1="15.9180327868852458" y1="10.960655737704918" x2="15.3868852459016393" y2="11.4327868852459016" style="stroke:red;stroke-width:1" />
 <line x1="15.3868852459016393" y1="11.4327868852459016" x2="15.2098360655737704" y2="11.6688524590163934" style="stroke:red;stroke-width:1" />
 <line x1="15.2098360655737704" y1="11.6688524590163934" x2="15.0918032786885245" y2="11.9049180327868852" style="stroke:red;stroke-width:1" />
 <line x1="15.0918032786885245" y1="11.9049180327868852" x2="14.7967213114754098" y2="12.081967213114754" style="stroke:red;stroke-width:1" />
 <line x1="14.7967213114754098" y1="12.081967213114754" x2="14.501639344262295" y2="12.2590163934426229" style="stroke:red;stroke-width:1" />
 <line x1="14.501639344262295" y1="12.2590163934426229" x2="14.3836065573770491" y2="12.4950819672131147" style="stroke:red;stroke-width:1" />
 <line x1="14.3836065573770491" y1="12.4950819672131147" x2="14.3245901639344261" y2="12.9081967213114754" style="stroke:red;stroke-width:1" />
 <line x1="14.3245901639344261" y1="12.9081967213114754" x2="14.2655737704918032" y2="13.1442622950819671" style="stroke:red;stroke-width:1" />
 <line x1="14.2655737704918032" y1="13.1442622950819671" x2="14.3836065573770491" y2="13.3213114754098359" style="stroke:red;stroke-width:1" />
 <line x1="14.3836065573770491" y1="13.3213114754098359" x2="14.501639344262295" y2="13.0262295081967212" style="stroke:red;stroke-width:1" />
 <line x1="14.501639344262295" y1="13.0262295081967212" x2="14.6196721311475409" y2="12.7901639344262295" style="stroke:red;stroke-width:1" />
 <line x1="14.6196721311475409" y1="12.7901639344262295" x2="14.7377049180327868" y2="12.6721311475409836" style="stroke:red;stroke-width:1" />
 <line x1="14.7377049180327868" y1="12.6721311475409836" x2="14.9737704918032786" y2="12.5540983606557377" style="stroke:red;stroke-width:1" />
 <line x1="14.9737704918032786" y1="12.5540983606557377" x2="15.1508196721311475" y2="12.4950819672131147" style="stroke:red;stroke-width:1" />
 <line x1="15.1508196721311475" y1="12.4950819672131147" x2="15.3278688524590163" y2="12.4950819672131147" style="stroke:red;stroke-width:1" />
 <line x1="15.3278688524590163" y1="12.4950819672131147" x2="15.740983606557377" y2="12.6131147540983606" style="stroke:red;stroke-width:1" />
 <line x1="15.740983606557377" y1="12.6131147540983606" x2="15.9770491803278688" y2="12.6721311475409836" style="stroke:red;stroke-width:1" />
 <line x1="15.9770491803278688" y1="12.6721311475409836" x2="15.9770491803278688" y2="12.2590163934426229" style="stroke:red;stroke-width:1" />
 <line x1="15.9770491803278688" y1="12.2590163934426229" x2="15.7999999999999999" y2="12.1999999999999999" style="stroke:red;stroke-width:1" />
 <line x1="15.7999999999999999" y1="12.1999999999999999" x2="15.740983606557377" y2="12.081967213114754" style="stroke:red;stroke-width:1" />
 <line x1="15.740983606557377" y1="12.081967213114754" x2="15.740983606557377" y2="11.9049180327868852" style="stroke:red;stroke-width:1" />
 <line x1="15.740983606557377" y1="11.9049180327868852" x2="15.740983606557377" y2="11.7868852459016393" style="stroke:red;stroke-width:1" />
 <line x1="15.740983606557377" y1="11.7868852459016393" x2="15.9180327868852458" y2="11.7868852459016393" style="stroke:red;stroke-width:1" />
 <line x1="15.9180327868852458" y1="11.7868852459016393" x2="16.0360655737704917" y2="11.7868852459016393" style="stroke:red;stroke-width:1" />
 <line x1="16.0360655737704917" y1="11.7868852459016393" x2="16.1540983606557376" y2="11.8459016393442622" style="stroke:red;stroke-width:1" />
 <line x1="16.1540983606557376" y1="11.8459016393442622" x2="16.2131147540983606" y2="11.9639344262295081" style="stroke:red;stroke-width:1" />
 <line x1="16.2131147540983606" y1="11.9639344262295081" x2="16.1540983606557376" y2="12.081967213114754" style="stroke:red;stroke-width:1" />
 <line x1="16.1540983606557376" y1="12.081967213114754" x2="16.1540983606557376" y2="12.1999999999999999" style="stroke:red;stroke-width:1" />
 <line x1="16.1540983606557376" y1="12.1999999999999999" x2="15.9770491803278688" y2="12.2590163934426229" style="stroke:red;stroke-width:1" />
 <line x1="16.1540983606557376" y1="11.7868852459016393" x2="16.921311475409836" y2="11.7868852459016393" style="stroke:red;stroke-width:1" />
 <line x1="16.921311475409836" y1="11.7868852459016393" x2="17.0983606557377048" y2="11.9049180327868852" style="stroke:red;stroke-width:1" />
 <line x1="17.0983606557377048" y1="11.9049180327868852" x2="17.3344262295081966" y2="12.2590163934426229" style="stroke:red;stroke-width:1" />
 <line x1="17.3344262295081966" y1="12.2590163934426229" x2="17.3934426229508196" y2="12.4950819672131147" style="stroke:red;stroke-width:1" />
 <line x1="17.3934426229508196" y1="12.4950819672131147" x2="17.3344262295081966" y2="12.8491803278688524" style="stroke:red;stroke-width:1" />
 <line x1="17.3344262295081966" y1="12.8491803278688524" x2="17.1573770491803278" y2="13.0852459016393441" style="stroke:red;stroke-width:1" />
 <line x1="17.1573770491803278" y1="13.0852459016393441" x2="16.862295081967213" y2="13.4393442622950818" style="stroke:red;stroke-width:1" />
 <line x1="16.862295081967213" y1="13.4393442622950818" x2="16.7442622950819671" y2="13.4983606557377048" style="stroke:red;stroke-width:1" />
 <line x1="16.7442622950819671" y1="13.4983606557377048" x2="16.6852459016393442" y2="13.4983606557377048" style="stroke:red;stroke-width:1" />
 <line x1="16.6852459016393442" y1="13.4983606557377048" x2="16.921311475409836" y2="13.20327868852459" style="stroke:red;stroke-width:1" />
 <line x1="16.921311475409836" y1="13.20327868852459" x2="16.921311475409836" y2="12.9672131147540983" style="stroke:red;stroke-width:1" />
 <line x1="16.921311475409836" y1="12.9672131147540983" x2="16.921311475409836" y2="12.7901639344262295" style="stroke:red;stroke-width:1" />
 <line x1="16.921311475409836" y1="12.7901639344262295" x2="16.8032786885245901" y2="12.6131147540983606" style="stroke:red;stroke-width:1" />
 <line x1="16.8032786885245901" y1="12.6131147540983606" x2="16.6852459016393442" y2="12.4950819672131147" style="stroke:red;stroke-width:1" />
 <line x1="16.6852459016393442" y1="12.4950819672131147" x2="16.3311475409836065" y2="12.5540983606557377" style="stroke:red;stroke-width:1" />
 <line x1="16.3311475409836065" y1="12.5540983606557377" x2="16.2131147540983606" y2="12.6721311475409836" style="stroke:red;stroke-width:1" />
 <line x1="16.2131147540983606" y1="12.6721311475409836" x2="16.1540983606557376" y2="12.9672131147540983" style="stroke:red;stroke-width:1" />
 <line x1="16.1540983606557376" y1="12.9672131147540983" x2="16.2721311475409835" y2="13.3803278688524589" style="stroke:red;stroke-width:1" />
 <line x1="16.2721311475409835" y1="13.3803278688524589" x2="16.2131147540983606" y2="13.6163934426229506" style="stroke:red;stroke-width:1" />
 <line x1="16.2131147540983606" y1="13.6163934426229506" x2="16.1540983606557376" y2="13.6163934426229506" style="stroke:red;stroke-width:1" />
 <line x1="16.1540983606557376" y1="13.6163934426229506" x2="16.0360655737704917" y2="13.4983606557377048" style="stroke:red;stroke-width:1" />
 <line x1="16.0360655737704917" y1="13.4983606557377048" x2="15.8590163934426229" y2="13.1442622950819671" style="stroke:red;stroke-width:1" />
 <line x1="15.8590163934426229" y1="13.1442622950819671" x2="15.5049180327868852" y2="12.6721311475409836" style="stroke:red;stroke-width:1" />
 <line x1="15.5049180327868852" y1="12.6721311475409836" x2="15.3278688524590163" y2="12.6131147540983606" style="stroke:red;stroke-width:1" />
 <line x1="15.3278688524590163" y1="12.6131147540983606" x2="14.7967213114754098" y2="12.6721311475409836" style="stroke:red;stroke-width:1" />
 <line x1="14.6196721311475409" y1="13.0852459016393441" x2="14.7377049180327868" y2="12.9081967213114754" style="stroke:red;stroke-width:1" />
 <line x1="14.7377049180327868" y1="12.9081967213114754" x2="15.2098360655737704" y2="12.9081967213114754" style="stroke:red;stroke-width:1" />
 <line x1="15.2098360655737704" y1="12.9081967213114754" x2="15.3868852459016393" y2="13.0852459016393441" style="stroke:red;stroke-width:1" />
 <line x1="15.3868852459016393" y1="13.0852459016393441" x2="15.5639344262295081" y2="13.262295081967213" style="stroke:red;stroke-width:1" />
 <line x1="15.5639344262295081" y1="13.262295081967213" x2="15.740983606557377" y2="13.6754098360655736" style="stroke:red;stroke-width:1" />
 <line x1="15.740983606557377" y1="13.6754098360655736" x2="15.7999999999999999" y2="13.9114754098360654" style="stroke:red;stroke-width:1" />
 <line x1="15.7999999999999999" y1="13.9114754098360654" x2="15.8590163934426229" y2="14.5016393442622949" style="stroke:red;stroke-width:1" />
 <line x1="15.8590163934426229" y1="14.5016393442622949" x2="15.740983606557377" y2="15.3278688524590162" style="stroke:red;stroke-width:1" />
 <line x1="15.740983606557377" y1="15.3278688524590162" x2="15.8590163934426229" y2="15.9180327868852457" style="stroke:red;stroke-width:1" />
 <line x1="15.8590163934426229" y1="15.9180327868852457" x2="16.0950819672131147" y2="16.4491803278688523" style="stroke:red;stroke-width:1" />
 <line x1="16.0950819672131147" y1="16.4491803278688523" x2="16.7442622950819671" y2="17.2163934426229506" style="stroke:red;stroke-width:1" />
 <line x1="16.7442622950819671" y1="17.2163934426229506" x2="17.2163934426229507" y2="17.6885245901639342" style="stroke:red;stroke-width:1" />
 <line x1="17.2163934426229507" y1="17.6885245901639342" x2="18.5147540983606557" y2="18.5147540983606556" style="stroke:red;stroke-width:1" />
 <line x1="18.5147540983606557" y1="18.5147540983606556" x2="19.6950819672131147" y2="19.1049180327868851" style="stroke:red;stroke-width:1" />
 <line x1="19.6950819672131147" y1="19.1049180327868851" x2="18.8688524590163934" y2="19.3999999999999998" style="stroke:red;stroke-width:1" />
 <line x1="18.8688524590163934" y1="19.3999999999999998" x2="18.4557377049180327" y2="19.3999999999999998" style="stroke:red;stroke-width:1" />
 <line x1="18.4557377049180327" y1="19.3999999999999998" x2="17.9245901639344261" y2="19.6360655737704916" style="stroke:red;stroke-width:1" />
 <line x1="17.9245901639344261" y1="19.6360655737704916" x2="17.7475409836065573" y2="19.6360655737704916" style="stroke:red;stroke-width:1" />
 <line x1="17.7475409836065573" y1="19.6360655737704916" x2="17.4524590163934425" y2="19.6950819672131146" style="stroke:red;stroke-width:1" />
 <line x1="17.4524590163934425" y1="19.6950819672131146" x2="17.2163934426229507" y2="19.8721311475409834" style="stroke:red;stroke-width:1" />
 <line x1="9.13114754098360655" y1="20.9344262295081965" x2="11.4918032786885245" y2="5" style="stroke:red;stroke-width:1" />
 <line x1="11.4918032786885245" y1="5" x2="13.8524590163934425" y2="20.9344262295081965" style="stroke:red;stroke-width:1" />
 <line x1="13.8524590163934425" y1="20.9344262295081965" x2="9.13114754098360655" y2="20.9344262295081965" style="stroke:red;stroke-width:1" />

</svg>
