<!DOCTYPE svg PUBLIC "-//W3C//DTD SVG 1.1//EN" "http://www.w3.org/Graphics/SVG/1.1/DTD/svg11.dtd">
<svg width="34" height="47" xmlns="http://www.w3.org/2000/svg">
 <!-- Gardiner/Zz376515 at (0,.69565217391304348) in green, scale=.0521739130434782608, mirror=0 -->
 <line x1="5" y1="35.4695652173913042" x2="28.4782608695652172" y2="35.4695652173913042" style="stroke:green;stroke-width:1" />
 <line x1="28.4782608695652172" y1="38.3391304347826085" x2="5" y2="38.3391304347826085" style="stroke:green;stroke-width:1" />
 <line x1="5" y1="41.2086956521739129" x2="28.4782608695652172" y2="41.2086956521739129" style="stroke:green;stroke-width:1" />
 <line x1="7.86956521739130434" y1="35.4695652173913042" x2="7.86956521739130434" y2="41.2086956521739129" style="stroke:green;stroke-width:1" />
 <line x1="12.3043478260869565" y1="35.4695652173913042" x2="12.3043478260869565" y2="41.2086956521739129" style="stroke:green;stroke-width:1" />
 <line x1="16.7391304347826086" y1="35.4695652173913042" x2="16.7391304347826086" y2="41.2086956521739129" style="stroke:green;stroke-width:1" />
 <line x1="21.1739130434782607" y1="35.4695652173913042" x2="21.1739130434782607" y2="41.2086956521739129" style="stroke:green;stroke-width:1" />
 <line x1="25.6086956521739129" y1="35.4695652173913042" x2="25.6086956521739129" y2="41.2086956521739129" style="stroke:green;stroke-width:1" />
 <line x1="28.3739130434782607" y1="23.5217391304347825" x2="5" y2="23.5217391304347825" style="stroke:green;stroke-width:1" />
 <line x1="8.54782608695652173" y1="23.5217391304347825" x2="8.13043478260869564" y2="22.2695652173913042" style="stroke:green;stroke-width:1" />
 <line x1="8.13043478260869564" y1="22.2695652173913042" x2="7.45217391304347825" y2="21.226086956521739" style="stroke:green;stroke-width:1" />
 <line x1="7.45217391304347825" y1="21.226086956521739" x2="6.40869565217391304" y2="20.4434782608695651" style="stroke:green;stroke-width:1" />
 <line x1="6.40869565217391304" y1="20.4434782608695651" x2="5.57391304347826086" y2="20.4434782608695651" style="stroke:green;stroke-width:1" />
 <line x1="5.57391304347826086" y1="20.4434782608695651" x2="5.10434782608695652" y2="20.9130434782608694" style="stroke:green;stroke-width:1" />
 <line x1="5.10434782608695652" y1="20.9130434782608694" x2="5" y2="21.5391304347826085" style="stroke:green;stroke-width:1" />
 <line x1="5" y1="21.5391304347826085" x2="5.20869565217391304" y2="22.5826086956521738" style="stroke:green;stroke-width:1" />
 <line x1="5.20869565217391304" y1="22.5826086956521738" x2="5.5217391304347826" y2="23.5217391304347825" style="stroke:green;stroke-width:1" />
 <line x1="5.5217391304347826" y1="23.5217391304347825" x2="6.4608695652173913" y2="26.6521739130434781" style="stroke:green;stroke-width:1" />
 <line x1="6.4608695652173913" y1="26.6521739130434781" x2="8.13043478260869564" y2="26.6521739130434781" style="stroke:green;stroke-width:1" />
 <line x1="8.13043478260869564" y1="26.6521739130434781" x2="8.54782608695652173" y2="23.5217391304347825" style="stroke:green;stroke-width:1" />
 <line x1="16.7391304347826086" y1="23.5217391304347825" x2="16.7391304347826086" y2="35.4695652173913042" style="stroke:green;stroke-width:1" />
 <line x1="12.9304347826086956" y1="23.5217391304347825" x2="16.7391304347826086" y2="28.4782608695652172" style="stroke:green;stroke-width:1" />
 <line x1="16.7391304347826086" y1="23.5217391304347825" x2="17.9391304347826085" y2="25.0869565217391303" style="stroke:green;stroke-width:1" />
 <line x1="17.9391304347826085" y1="25.0869565217391303" x2="18.7217391304347825" y2="26.7565217391304346" style="stroke:green;stroke-width:1" />
 <line x1="18.7217391304347825" y1="26.7565217391304346" x2="19.3478260869565216" y2="28.3217391304347824" style="stroke:green;stroke-width:1" />
 <line x1="19.3478260869565216" y1="28.3217391304347824" x2="19.5565217391304346" y2="29.3130434782608694" style="stroke:green;stroke-width:1" />
 <line x1="19.5565217391304346" y1="29.3130434782608694" x2="19.3478260869565216" y2="29.9391304347826085" style="stroke:green;stroke-width:1" />
 <line x1="19.3478260869565216" y1="29.9391304347826085" x2="18.9826086956521738" y2="30.3043478260869564" style="stroke:green;stroke-width:1" />
 <line x1="18.9826086956521738" y1="30.3043478260869564" x2="18.4608695652173912" y2="30.3565217391304346" style="stroke:green;stroke-width:1" />
 <line x1="18.4608695652173912" y1="30.3565217391304346" x2="17.9913043478260868" y2="30.0434782608695651" style="stroke:green;stroke-width:1" />
 <line x1="17.9913043478260868" y1="30.0434782608695651" x2="18.3043478260869564" y2="31.1391304347826085" style="stroke:green;stroke-width:1" />
 <line x1="18.3043478260869564" y1="31.1391304347826085" x2="18.4086956521739129" y2="31.8173913043478259" style="stroke:green;stroke-width:1" />
 <line x1="18.4086956521739129" y1="31.8173913043478259" x2="18.3565217391304346" y2="32.3913043478260868" style="stroke:green;stroke-width:1" />
 <line x1="18.3565217391304346" y1="32.3913043478260868" x2="17.834782608695652" y2="32.5999999999999998" style="stroke:green;stroke-width:1" />
 <line x1="17.834782608695652" y1="32.5999999999999998" x2="17.3130434782608694" y2="32.3391304347826085" style="stroke:green;stroke-width:1" />
 <line x1="17.3130434782608694" y1="32.3391304347826085" x2="16.7391304347826086" y2="31.9217391304347824" style="stroke:green;stroke-width:1" />
 <line x1="27.4869565217391303" y1="7.50434782608695651" x2="16.5826086956521738" y2="7.50434782608695651" style="stroke:green;stroke-width:1" />
 <line x1="16.5826086956521738" y1="7.50434782608695651" x2="16.2173913043478259" y2="7.50434782608695651" style="stroke:green;stroke-width:1" />
 <line x1="16.2173913043478259" y1="7.50434782608695651" x2="15.8521739130434781" y2="7.34782608695652173" style="stroke:green;stroke-width:1" />
 <line x1="15.8521739130434781" y1="7.34782608695652173" x2="15.4869565217391303" y2="7.03478260869565217" style="stroke:green;stroke-width:1" />
 <line x1="15.4869565217391303" y1="7.03478260869565217" x2="15.1739130434782607" y2="6.7217391304347826" style="stroke:green;stroke-width:1" />
 <line x1="15.1739130434782607" y1="6.7217391304347826" x2="14.7043478260869564" y2="6.09565217391304347" style="stroke:green;stroke-width:1" />
 <line x1="14.7043478260869564" y1="6.09565217391304347" x2="14.4956521739130433" y2="5.78260869565217391" style="stroke:green;stroke-width:1" />
 <line x1="14.4956521739130433" y1="5.78260869565217391" x2="14.3913043478260868" y2="5.41739130434782608" style="stroke:green;stroke-width:1" />
 <line x1="14.3913043478260868" y1="5.41739130434782608" x2="14.1826086956521738" y2="5.20869565217391304" style="stroke:green;stroke-width:1" />
 <line x1="14.1826086956521738" y1="5.20869565217391304" x2="14.026086956521739" y2="5.05217391304347826" style="stroke:green;stroke-width:1" />
 <line x1="14.026086956521739" y1="5.05217391304347826" x2="13.8173913043478259" y2="5" style="stroke:green;stroke-width:1" />
 <line x1="13.8173913043478259" y1="5" x2="13.5565217391304347" y2="5" style="stroke:green;stroke-width:1" />
 <line x1="13.5565217391304347" y1="5" x2="13.3478260869565217" y2="5.15652173913043478" style="stroke:green;stroke-width:1" />
 <line x1="13.3478260869565217" y1="5.15652173913043478" x2="13.1913043478260869" y2="5.31304347826086956" style="stroke:green;stroke-width:1" />
 <line x1="13.1913043478260869" y1="5.31304347826086956" x2="13.1391304347826086" y2="5.5217391304347826" style="stroke:green;stroke-width:1" />
 <line x1="13.1391304347826086" y1="5.5217391304347826" x2="13.1391304347826086" y2="5.88695652173913043" style="stroke:green;stroke-width:1" />
 <line x1="13.1391304347826086" y1="5.88695652173913043" x2="13.1913043478260869" y2="6.09565217391304347" style="stroke:green;stroke-width:1" />
 <line x1="13.1913043478260869" y1="6.09565217391304347" x2="13.2956521739130434" y2="6.40869565217391304" style="stroke:green;stroke-width:1" />
 <line x1="13.2956521739130434" y1="6.40869565217391304" x2="13.4521739130434782" y2="6.66956521739130434" style="stroke:green;stroke-width:1" />
 <line x1="13.4521739130434782" y1="6.66956521739130434" x2="13.6608695652173912" y2="7.03478260869565217" style="stroke:green;stroke-width:1" />
 <line x1="13.6608695652173912" y1="7.03478260869565217" x2="13.9739130434782607" y2="7.39999999999999999" style="stroke:green;stroke-width:1" />
 <line x1="13.9739130434782607" y1="7.39999999999999999" x2="14.2869565217391303" y2="7.76521739130434782" style="stroke:green;stroke-width:1" />
 <line x1="14.2869565217391303" y1="7.76521739130434782" x2="14.7043478260869564" y2="8.07826086956521738" style="stroke:green;stroke-width:1" />
 <line x1="14.7043478260869564" y1="8.07826086956521738" x2="15.1217391304347825" y2="8.39130434782608695" style="stroke:green;stroke-width:1" />
 <line x1="15.1217391304347825" y1="8.39130434782608695" x2="15.5391304347826086" y2="8.59999999999999999" style="stroke:green;stroke-width:1" />
 <line x1="15.5391304347826086" y1="8.59999999999999999" x2="15.8521739130434781" y2="8.65217391304347825" style="stroke:green;stroke-width:1" />
 <line x1="15.8521739130434781" y1="8.65217391304347825" x2="16.2695652173913042" y2="8.75652173913043477" style="stroke:green;stroke-width:1" />
 <line x1="16.2695652173913042" y1="8.75652173913043477" x2="27.4869565217391303" y2="8.75652173913043477" style="stroke:green;stroke-width:1" />
 <path d="M 27.4869565217391303 8.75652173913043476
          A .626086956521739129 .626086956521739129 0 1 0 27.4869565217391303 7.50434782608695652"
       stroke="green" fill="white" stroke-width="1" fill-opacity="0.0"/>
 <line x1="16.8434782608695651" y1="11.3652173913043478" x2="16.5826086956521738" y2="11.2608695652173912" style="stroke:green;stroke-width:1" />
 <line x1="16.5826086956521738" y1="11.2608695652173912" x2="16.3739130434782607" y2="11.1043478260869565" style="stroke:green;stroke-width:1" />
 <line x1="16.3739130434782607" y1="11.1043478260869565" x2="16.2695652173913042" y2="10.7913043478260869" style="stroke:green;stroke-width:1" />
 <line x1="16.2695652173913042" y1="10.7913043478260869" x2="16.3217391304347825" y2="10.5826086956521739" style="stroke:green;stroke-width:1" />
 <line x1="16.3217391304347825" y1="10.5826086956521739" x2="16.4782608695652172" y2="10.3739130434782608" style="stroke:green;stroke-width:1" />
 <line x1="16.4782608695652172" y1="10.3739130434782608" x2="16.5304347826086955" y2="10.3217391304347826" style="stroke:green;stroke-width:1" />
 <line x1="16.5304347826086955" y1="10.3217391304347826" x2="16.6869565217391303" y2="10.3217391304347826" style="stroke:green;stroke-width:1" />
 <line x1="16.6869565217391303" y1="10.3217391304347826" x2="17.5739130434782607" y2="10.4260869565217391" style="stroke:green;stroke-width:1" />
 <line x1="17.5739130434782607" y1="10.4260869565217391" x2="19.1391304347826085" y2="10.3217391304347826" style="stroke:green;stroke-width:1" />
 <line x1="19.1391304347826085" y1="10.3217391304347826" x2="20.1304347826086955" y2="10.2695652173913043" style="stroke:green;stroke-width:1" />
 <line x1="20.1304347826086955" y1="10.2695652173913043" x2="20.8608695652173912" y2="10.2695652173913043" style="stroke:green;stroke-width:1" />
 <line x1="20.8608695652173912" y1="10.2695652173913043" x2="21.7999999999999998" y2="10.3739130434782608" style="stroke:green;stroke-width:1" />
 <line x1="21.7999999999999998" y1="10.3739130434782608" x2="22.426086956521739" y2="10.5826086956521739" style="stroke:green;stroke-width:1" />
 <line x1="22.426086956521739" y1="10.5826086956521739" x2="23.4173913043478259" y2="10.8434782608695652" style="stroke:green;stroke-width:1" />
 <line x1="23.4173913043478259" y1="10.8434782608695652" x2="24.0434782608695651" y2="11.0521739130434782" style="stroke:green;stroke-width:1" />
 <line x1="24.0434782608695651" y1="11.0521739130434782" x2="24.6695652173913042" y2="11.2608695652173912" style="stroke:green;stroke-width:1" />
 <line x1="24.6695652173913042" y1="11.2608695652173912" x2="25.3478260869565216" y2="11.417391304347826" style="stroke:green;stroke-width:1" />
 <line x1="25.3478260869565216" y1="11.417391304347826" x2="25.9739130434782607" y2="11.4695652173913043" style="stroke:green;stroke-width:1" />
 <line x1="25.9739130434782607" y1="11.4695652173913043" x2="26.5478260869565216" y2="11.5217391304347826" style="stroke:green;stroke-width:1" />
 <line x1="26.5478260869565216" y1="11.5217391304347826" x2="28.1652173913043477" y2="11.5217391304347826" style="stroke:green;stroke-width:1" />
 <line x1="28.1652173913043477" y1="11.5217391304347826" x2="28.1130434782608694" y2="13.6608695652173912" style="stroke:green;stroke-width:1" />
 <line x1="28.1130434782608694" y1="13.6608695652173912" x2="27.226086956521739" y2="13.5043478260869565" style="stroke:green;stroke-width:1" />
 <line x1="27.226086956521739" y1="13.5043478260869565" x2="26.4434782608695651" y2="13.4521739130434782" style="stroke:green;stroke-width:1" />
 <line x1="26.4434782608695651" y1="13.4521739130434782" x2="25.6086956521739129" y2="13.4521739130434782" style="stroke:green;stroke-width:1" />
 <line x1="25.6086956521739129" y1="13.4521739130434782" x2="24.7739130434782607" y2="13.5565217391304347" style="stroke:green;stroke-width:1" />
 <line x1="24.7739130434782607" y1="13.5565217391304347" x2="24.0956521739130433" y2="13.7652173913043477" style="stroke:green;stroke-width:1" />
 <line x1="24.0956521739130433" y1="13.7652173913043477" x2="23.4695652173913042" y2="13.9217391304347825" style="stroke:green;stroke-width:1" />
 <line x1="23.4695652173913042" y1="13.9217391304347825" x2="22.6869565217391303" y2="14.0782608695652172" style="stroke:green;stroke-width:1" />
 <line x1="22.6869565217391303" y1="14.0782608695652172" x2="14.5478260869565216" y2="14.0782608695652172" style="stroke:green;stroke-width:1" />
 <path d="M 14.5478260869565216 11.417391304347826
          A 1.35652173913043478 1.35652173913043478 0 1 0 14.5478260869565216 14.1304347826086956"
       stroke="green" fill="white" stroke-width="1" fill-opacity="0.0"/>
 <line x1="14.5478260869565216" y1="11.417391304347826" x2="20.4434782608695651" y2="11.417391304347826" style="stroke:green;stroke-width:1" />
 <line x1="20.4434782608695651" y1="11.417391304347826" x2="21.434782608695652" y2="11.5217391304347826" style="stroke:green;stroke-width:1" />
 <line x1="13.3478260869565217" y1="21.3304347826086955" x2="19.9739130434782607" y2="21.3304347826086955" style="stroke:green;stroke-width:1" />
 <path d="M 19.9739130434782607 21.3304347826086955
          A 3.28695652173913043 3.28695652173913043 0 1 0 13.3999999999999999 21.3304347826086955"
       stroke="green" fill="white" stroke-width="1" fill-opacity="0.0"/>
 <path d="M 21.6956521739130434 18.3565217391304346
          A 3.23478260869565216 3.23478260869565216 0 1 0 28.1652173913043476 18.3565217391304346
          A 3.23478260869565216 3.23478260869565216 0 1 0 21.6956521739130434 18.3565217391304346"
       stroke="green" fill="white" stroke-width="1" fill-opacity="0.0"/>
 <line x1="23.2086956521739129" y1="21.1217391304347825" x2="24.9304347826086955" y2="19.2956521739130433" style="stroke:green;stroke-width:1" />
 <line x1="24.9304347826086955" y1="19.2956521739130433" x2="26.7043478260869564" y2="21.1217391304347825" style="stroke:green;stroke-width:1" />
 <line x1="27.6956521739130433" y1="20.1304347826086955" x2="25.8695652173913042" y2="18.3565217391304346" style="stroke:green;stroke-width:1" />
 <line x1="25.8695652173913042" y1="18.3565217391304346" x2="27.6956521739130433" y2="16.634782608695652" style="stroke:green;stroke-width:1" />
 <line x1="26.7043478260869564" y1="15.6434782608695651" x2="24.9304347826086955" y2="17.4173913043478259" style="stroke:green;stroke-width:1" />
 <line x1="24.9304347826086955" y1="17.4173913043478259" x2="23.2086956521739129" y2="15.6434782608695651" style="stroke:green;stroke-width:1" />
 <line x1="22.2173913043478259" y1="16.634782608695652" x2="23.9913043478260868" y2="18.3565217391304346" style="stroke:green;stroke-width:1" />
 <line x1="23.9913043478260868" y1="18.3565217391304346" x2="22.2173913043478259" y2="20.1304347826086955" style="stroke:green;stroke-width:1" />
 <line x1="10.3739130434782608" y1="21.5391304347826085" x2="10.3739130434782608" y2="15.2782608695652172" style="stroke:green;stroke-width:1" />
 <line x1="10.3739130434782608" y1="15.2782608695652172" x2="10.7913043478260869" y2="15.2782608695652172" style="stroke:green;stroke-width:1" />
 <line x1="10.7913043478260869" y1="15.2782608695652172" x2="11.8869565217391304" y2="15.0695652173913042" style="stroke:green;stroke-width:1" />
 <line x1="11.8869565217391304" y1="15.0695652173913042" x2="12.2521739130434782" y2="15.0695652173913042" style="stroke:green;stroke-width:1" />
 <line x1="12.2521739130434782" y1="15.0695652173913042" x2="12.617391304347826" y2="15.2782608695652172" style="stroke:green;stroke-width:1" />
 <line x1="12.617391304347826" y1="15.2782608695652172" x2="13.0347826086956521" y2="15.6956521739130433" style="stroke:green;stroke-width:1" />
 <line x1="13.0347826086956521" y1="15.6956521739130433" x2="13.0347826086956521" y2="16.2173913043478259" style="stroke:green;stroke-width:1" />
 <line x1="13.0347826086956521" y1="16.2173913043478259" x2="12.8782608695652173" y2="16.9999999999999999" style="stroke:green;stroke-width:1" />
 <line x1="12.8782608695652173" y1="16.9999999999999999" x2="11.3130434782608695" y2="21.1739130434782607" style="stroke:green;stroke-width:1" />
 <line x1="11.3130434782608695" y1="21.1739130434782607" x2="11.1565217391304347" y2="21.3304347826086955" style="stroke:green;stroke-width:1" />
 <line x1="11.1565217391304347" y1="21.3304347826086955" x2="10.7913043478260869" y2="21.5391304347826085" style="stroke:green;stroke-width:1" />
 <line x1="10.7913043478260869" y1="21.5391304347826085" x2="10.008695652173913" y2="21.5391304347826085" style="stroke:green;stroke-width:1" />
 <line x1="10.008695652173913" y1="21.5391304347826085" x2="9.64347826086956521" y2="21.3304347826086955" style="stroke:green;stroke-width:1" />
 <line x1="9.64347826086956521" y1="21.3304347826086955" x2="9.43478260869565216" y2="21.1739130434782607" style="stroke:green;stroke-width:1" />
 <line x1="9.43478260869565216" y1="21.1739130434782607" x2="7.9217391304347826" y2="16.9999999999999999" style="stroke:green;stroke-width:1" />
 <line x1="7.9217391304347826" y1="16.9999999999999999" x2="7.76521739130434782" y2="16.2173913043478259" style="stroke:green;stroke-width:1" />
 <line x1="7.76521739130434782" y1="16.2173913043478259" x2="7.76521739130434782" y2="15.6956521739130433" style="stroke:green;stroke-width:1" />
 <line x1="7.76521739130434782" y1="15.6956521739130433" x2="8.13043478260869564" y2="15.2782608695652172" style="stroke:green;stroke-width:1" />
 <line x1="8.13043478260869564" y1="15.2782608695652172" x2="8.49565217391304347" y2="15.0695652173913042" style="stroke:green;stroke-width:1" />
 <line x1="8.49565217391304347" y1="15.0695652173913042" x2="8.86086956521739129" y2="15.0695652173913042" style="stroke:green;stroke-width:1" />
 <line x1="8.86086956521739129" y1="15.0695652173913042" x2="10.008695652173913" y2="15.2782608695652172" style="stroke:green;stroke-width:1" />
 <line x1="10.008695652173913" y1="15.2782608695652172" x2="10.3739130434782608" y2="15.2782608695652172" style="stroke:green;stroke-width:1" />
 <line x1="10.3739130434782608" y1="15.2782608695652172" x2="11.1565217391304347" y2="5.10434782608695652" style="stroke:green;stroke-width:1" />
 <line x1="12.617391304347826" y1="5.10434782608695652" x2="8.13043478260869564" y2="5.10434782608695652" style="stroke:green;stroke-width:1" />
 <line x1="9.64347826086956521" y1="5.10434782608695652" x2="10.3739130434782608" y2="15.2782608695652172" style="stroke:green;stroke-width:1" />

</svg>
