<!DOCTYPE svg PUBLIC "-//W3C//DTD SVG 1.1//EN" "http://www.w3.org/Graphics/SVG/1.1/DTD/svg11.dtd">
<svg width="35" height="47" xmlns="http://www.w3.org/2000/svg">
 <!-- Gardiner/Zz376515 at (0,.62595419847328244) in red, scale=.0549618320610687024, mirror=0 -->
 <line x1="5" y1="35.0641221374045801" x2="29.732824427480916" y2="35.0641221374045801" style="stroke:red;stroke-width:1" />
 <line x1="29.732824427480916" y1="38.0870229007633588" x2="5" y2="38.0870229007633588" style="stroke:red;stroke-width:1" />
 <line x1="5" y1="41.1099236641221374" x2="29.732824427480916" y2="41.1099236641221374" style="stroke:red;stroke-width:1" />
 <line x1="8.02290076335877863" y1="35.0641221374045801" x2="8.02290076335877863" y2="41.1099236641221374" style="stroke:red;stroke-width:1" />
 <line x1="12.6946564885496183" y1="35.0641221374045801" x2="12.6946564885496183" y2="41.1099236641221374" style="stroke:red;stroke-width:1" />
 <line x1="17.366412213740458" y1="35.0641221374045801" x2="17.366412213740458" y2="41.1099236641221374" style="stroke:red;stroke-width:1" />
 <line x1="22.0381679389312977" y1="35.0641221374045801" x2="22.0381679389312977" y2="41.1099236641221374" style="stroke:red;stroke-width:1" />
 <line x1="26.7099236641221374" y1="35.0641221374045801" x2="26.7099236641221374" y2="41.1099236641221374" style="stroke:red;stroke-width:1" />
 <line x1="29.6229007633587786" y1="22.4778625954198473" x2="5" y2="22.4778625954198473" style="stroke:red;stroke-width:1" />
 <line x1="8.73740458015267176" y1="22.4778625954198473" x2="8.29770992366412214" y2="21.1587786259541984" style="stroke:red;stroke-width:1" />
 <line x1="8.29770992366412214" y1="21.1587786259541984" x2="7.58320610687022901" y2="20.0595419847328244" style="stroke:red;stroke-width:1" />
 <line x1="7.58320610687022901" y1="20.0595419847328244" x2="6.48396946564885496" y2="19.2351145038167938" style="stroke:red;stroke-width:1" />
 <line x1="6.48396946564885496" y1="19.2351145038167938" x2="5.60458015267175572" y2="19.2351145038167938" style="stroke:red;stroke-width:1" />
 <line x1="5.60458015267175572" y1="19.2351145038167938" x2="5.1099236641221374" y2="19.7297709923664122" style="stroke:red;stroke-width:1" />
 <line x1="5.1099236641221374" y1="19.7297709923664122" x2="5" y2="20.3893129770992366" style="stroke:red;stroke-width:1" />
 <line x1="5" y1="20.3893129770992366" x2="5.2198473282442748" y2="21.4885496183206106" style="stroke:red;stroke-width:1" />
 <line x1="5.2198473282442748" y1="21.4885496183206106" x2="5.54961832061068702" y2="22.4778625954198473" style="stroke:red;stroke-width:1" />
 <line x1="5.54961832061068702" y1="22.4778625954198473" x2="6.53893129770992366" y2="25.7755725190839694" style="stroke:red;stroke-width:1" />
 <line x1="6.53893129770992366" y1="25.7755725190839694" x2="8.29770992366412214" y2="25.7755725190839694" style="stroke:red;stroke-width:1" />
 <line x1="8.29770992366412214" y1="25.7755725190839694" x2="8.73740458015267176" y2="22.4778625954198473" style="stroke:red;stroke-width:1" />
 <line x1="17.366412213740458" y1="22.4778625954198473" x2="17.366412213740458" y2="35.0641221374045801" style="stroke:red;stroke-width:1" />
 <line x1="13.3541984732824427" y1="22.4778625954198473" x2="17.366412213740458" y2="27.699236641221374" style="stroke:red;stroke-width:1" />
 <line x1="17.366412213740458" y1="22.4778625954198473" x2="18.6305343511450381" y2="24.1267175572519083" style="stroke:red;stroke-width:1" />
 <line x1="18.6305343511450381" y1="24.1267175572519083" x2="19.4549618320610686" y2="25.8854961832061068" style="stroke:red;stroke-width:1" />
 <line x1="19.4549618320610686" y1="25.8854961832061068" x2="20.1145038167938931" y2="27.5343511450381679" style="stroke:red;stroke-width:1" />
 <line x1="20.1145038167938931" y1="27.5343511450381679" x2="20.3343511450381679" y2="28.5786259541984732" style="stroke:red;stroke-width:1" />
 <line x1="20.3343511450381679" y1="28.5786259541984732" x2="20.1145038167938931" y2="29.2381679389312977" style="stroke:red;stroke-width:1" />
 <line x1="20.1145038167938931" y1="29.2381679389312977" x2="19.7297709923664122" y2="29.6229007633587786" style="stroke:red;stroke-width:1" />
 <line x1="19.7297709923664122" y1="29.6229007633587786" x2="19.1801526717557251" y2="29.6778625954198473" style="stroke:red;stroke-width:1" />
 <line x1="19.1801526717557251" y1="29.6778625954198473" x2="18.6854961832061068" y2="29.3480916030534351" style="stroke:red;stroke-width:1" />
 <line x1="18.6854961832061068" y1="29.3480916030534351" x2="19.015267175572519" y2="30.5022900763358778" style="stroke:red;stroke-width:1" />
 <line x1="19.015267175572519" y1="30.5022900763358778" x2="19.1251908396946564" y2="31.216793893129771" style="stroke:red;stroke-width:1" />
 <line x1="19.1251908396946564" y1="31.216793893129771" x2="19.0702290076335877" y2="31.8213740458015267" style="stroke:red;stroke-width:1" />
 <line x1="19.0702290076335877" y1="31.8213740458015267" x2="18.5206106870229007" y2="32.0412213740458015" style="stroke:red;stroke-width:1" />
 <line x1="18.5206106870229007" y1="32.0412213740458015" x2="17.9709923664122137" y2="31.766412213740458" style="stroke:red;stroke-width:1" />
 <line x1="17.9709923664122137" y1="31.766412213740458" x2="17.366412213740458" y2="31.3267175572519084" style="stroke:red;stroke-width:1" />
 <line x1="17.5862595419847328" y1="16.1572519083969465" x2="17.8061068702290076" y2="22.0381679389312977" style="stroke:red;stroke-width:1" />
 <line x1="17.8061068702290076" y1="22.0381679389312977" x2="17.6412213740458015" y2="22.2030534351145038" style="stroke:red;stroke-width:1" />
 <line x1="17.6412213740458015" y1="22.2030534351145038" x2="17.4213740458015267" y2="22.3129770992366412" style="stroke:red;stroke-width:1" />
 <line x1="17.4213740458015267" y1="22.3129770992366412" x2="17.0916030534351144" y2="22.2030534351145038" style="stroke:red;stroke-width:1" />
 <line x1="17.0916030534351144" y1="22.2030534351145038" x2="16.9267175572519083" y2="22.0381679389312977" style="stroke:red;stroke-width:1" />
 <line x1="16.9267175572519083" y1="22.0381679389312977" x2="17.2015267175572518" y2="16.1572519083969465" style="stroke:red;stroke-width:1" />
 <line x1="15.882442748091603" y1="16.1572519083969465" x2="18.8503816793893129" y2="16.1572519083969465" style="stroke:red;stroke-width:1" />
 <line x1="18.8503816793893129" y1="16.1572519083969465" x2="18.5755725190839694" y2="15.7175572519083969" style="stroke:red;stroke-width:1" />
 <line x1="18.5755725190839694" y1="15.7175572519083969" x2="18.3557251908396946" y2="15.2778625954198473" style="stroke:red;stroke-width:1" />
 <line x1="18.3557251908396946" y1="15.2778625954198473" x2="18.3557251908396946" y2="15.1129770992366412" style="stroke:red;stroke-width:1" />
 <line x1="18.3557251908396946" y1="15.1129770992366412" x2="18.3557251908396946" y2="14.6183206106870228" style="stroke:red;stroke-width:1" />
 <line x1="18.3557251908396946" y1="14.6183206106870228" x2="19.015267175572519" y2="11.815267175572519" style="stroke:red;stroke-width:1" />
 <line x1="19.015267175572519" y1="11.815267175572519" x2="18.9603053435114503" y2="11.3755725190839694" style="stroke:red;stroke-width:1" />
 <line x1="18.9603053435114503" y1="11.3755725190839694" x2="18.7404580152671755" y2="10.9908396946564885" style="stroke:red;stroke-width:1" />
 <line x1="18.7404580152671755" y1="10.9908396946564885" x2="18.5755725190839694" y2="10.8809160305343511" style="stroke:red;stroke-width:1" />
 <line x1="18.5755725190839694" y1="10.8809160305343511" x2="18.3007633587786259" y2="10.7709923664122137" style="stroke:red;stroke-width:1" />
 <line x1="16.1022900763358778" y1="10.7709923664122137" x2="15.7175572519083969" y2="11.1007633587786259" style="stroke:red;stroke-width:1" />
 <line x1="15.7175572519083969" y1="11.1007633587786259" x2="15.3877862595419847" y2="11.4305343511450381" style="stroke:red;stroke-width:1" />
 <line x1="15.3877862595419847" y1="11.4305343511450381" x2="15.3877862595419847" y2="11.9251908396946565" style="stroke:red;stroke-width:1" />
 <line x1="15.3877862595419847" y1="11.9251908396946565" x2="16.2671755725190839" y2="14.8931297709923663" style="stroke:red;stroke-width:1" />
 <line x1="16.2671755725190839" y1="14.8931297709923663" x2="16.2671755725190839" y2="15.2778625954198473" style="stroke:red;stroke-width:1" />
 <line x1="16.2671755725190839" y1="15.2778625954198473" x2="16.1572519083969465" y2="15.7725190839694656" style="stroke:red;stroke-width:1" />
 <line x1="16.1572519083969465" y1="15.7725190839694656" x2="15.8274809160305343" y2="16.1572519083969465" style="stroke:red;stroke-width:1" />
 <line x1="15.3877862595419847" y1="11.4854961832061068" x2="15.0580152671755724" y2="11.4854961832061068" style="stroke:red;stroke-width:1" />
 <line x1="15.0580152671755724" y1="11.4854961832061068" x2="14.5633587786259541" y2="11.5404580152671755" style="stroke:red;stroke-width:1" />
 <line x1="14.5633587786259541" y1="11.5404580152671755" x2="14.1236641221374045" y2="11.8702290076335878" style="stroke:red;stroke-width:1" />
 <line x1="14.1236641221374045" y1="11.8702290076335878" x2="13.9587786259541984" y2="12.1450381679389313" style="stroke:red;stroke-width:1" />
 <line x1="13.9587786259541984" y1="12.1450381679389313" x2="13.848854961832061" y2="12.4748091603053435" style="stroke:red;stroke-width:1" />
 <line x1="13.848854961832061" y1="12.4748091603053435" x2="13.4641221374045801" y2="21.6534351145038167" style="stroke:red;stroke-width:1" />
 <line x1="13.4641221374045801" y1="21.6534351145038167" x2="13.5190839694656488" y2="21.7633587786259541" style="stroke:red;stroke-width:1" />
 <line x1="13.5190839694656488" y1="21.7633587786259541" x2="13.7389312977099236" y2="22.0381679389312977" style="stroke:red;stroke-width:1" />
 <line x1="13.7389312977099236" y1="22.0381679389312977" x2="14.1236641221374045" y2="22.0931297709923664" style="stroke:red;stroke-width:1" />
 <line x1="14.1236641221374045" y1="22.0931297709923664" x2="14.4534351145038167" y2="21.9282442748091602" style="stroke:red;stroke-width:1" />
 <line x1="14.4534351145038167" y1="21.9282442748091602" x2="14.5633587786259541" y2="21.6534351145038167" style="stroke:red;stroke-width:1" />
 <line x1="14.5633587786259541" y1="21.6534351145038167" x2="14.2335877862595419" y2="12.6946564885496183" style="stroke:red;stroke-width:1" />
 <line x1="14.2335877862595419" y1="12.6946564885496183" x2="14.2885496183206106" y2="12.2549618320610687" style="stroke:red;stroke-width:1" />
 <line x1="14.2885496183206106" y1="12.2549618320610687" x2="14.6183206106870228" y2="11.9251908396946565" style="stroke:red;stroke-width:1" />
 <line x1="14.6183206106870228" y1="11.9251908396946565" x2="14.948091603053435" y2="11.8702290076335878" style="stroke:red;stroke-width:1" />
 <line x1="14.948091603053435" y1="11.8702290076335878" x2="15.3877862595419847" y2="11.8702290076335878" style="stroke:red;stroke-width:1" />
 <line x1="18.2458015267175572" y1="10.7709923664122137" x2="18.2458015267175572" y2="10.4961832061068702" style="stroke:red;stroke-width:1" />
 <line x1="18.2458015267175572" y1="10.4961832061068702" x2="18.5755725190839694" y2="10.2213740458015267" style="stroke:red;stroke-width:1" />
 <line x1="18.5755725190839694" y1="10.2213740458015267" x2="19.015267175572519" y2="9.83664122137404581" style="stroke:red;stroke-width:1" />
 <line x1="19.015267175572519" y1="9.83664122137404581" x2="19.5099236641221373" y2="9.6717557251908397" style="stroke:red;stroke-width:1" />
 <line x1="19.5099236641221373" y1="9.6717557251908397" x2="19.6748091603053435" y2="9.56183206106870229" style="stroke:red;stroke-width:1" />
 <line x1="19.6748091603053435" y1="9.56183206106870229" x2="19.6748091603053435" y2="9.45190839694656489" style="stroke:red;stroke-width:1" />
 <line x1="19.6748091603053435" y1="9.45190839694656489" x2="14.6183206106870228" y2="9.45190839694656489" style="stroke:red;stroke-width:1" />
 <line x1="14.6183206106870228" y1="9.45190839694656489" x2="14.6183206106870228" y2="9.616793893129771" style="stroke:red;stroke-width:1" />
 <line x1="14.6183206106870228" y1="9.616793893129771" x2="15.3877862595419847" y2="9.7816793893129771" style="stroke:red;stroke-width:1" />
 <line x1="15.3877862595419847" y1="9.7816793893129771" x2="15.8274809160305343" y2="10.1114503816793893" style="stroke:red;stroke-width:1" />
 <line x1="15.8274809160305343" y1="10.1114503816793893" x2="16.1572519083969465" y2="10.4412213740458015" style="stroke:red;stroke-width:1" />
 <line x1="16.1572519083969465" y1="10.4412213740458015" x2="16.1572519083969465" y2="10.6061068702290076" style="stroke:red;stroke-width:1" />
 <line x1="16.1572519083969465" y1="10.6061068702290076" x2="16.1572519083969465" y2="10.7709923664122137" style="stroke:red;stroke-width:1" />
 <line x1="18.8503816793893129" y1="9.45190839694656489" x2="18.0259541984732824" y2="6.20916030534351145" style="stroke:red;stroke-width:1" />
 <line x1="18.0259541984732824" y1="6.20916030534351145" x2="18.5755725190839694" y2="6.09923664122137404" style="stroke:red;stroke-width:1" />
 <line x1="18.5755725190839694" y1="6.09923664122137404" x2="18.8503816793893129" y2="5.71450381679389313" style="stroke:red;stroke-width:1" />
 <line x1="18.8503816793893129" y1="5.71450381679389313" x2="18.8503816793893129" y2="5.27480916030534351" style="stroke:red;stroke-width:1" />
 <line x1="18.8503816793893129" y1="5.27480916030534351" x2="18.5755725190839694" y2="5.0549618320610687" style="stroke:red;stroke-width:1" />
 <line x1="18.5755725190839694" y1="5.0549618320610687" x2="18.0259541984732824" y2="5" style="stroke:red;stroke-width:1" />
 <line x1="18.0259541984732824" y1="5" x2="17.5862595419847328" y2="5.1099236641221374" style="stroke:red;stroke-width:1" />
 <line x1="17.5862595419847328" y1="5.1099236641221374" x2="17.3114503816793892" y2="5.54961832061068702" style="stroke:red;stroke-width:1" />
 <line x1="17.3114503816793892" y1="5.54961832061068702" x2="17.3114503816793892" y2="9.45190839694656489" style="stroke:red;stroke-width:1" />
 <line x1="17.1465648854961831" y1="9.45190839694656489" x2="17.1465648854961831" y2="5.60458015267175572" style="stroke:red;stroke-width:1" />
 <line x1="17.1465648854961831" y1="5.60458015267175572" x2="16.8167938931297709" y2="5.1099236641221374" style="stroke:red;stroke-width:1" />
 <line x1="16.8167938931297709" y1="5.1099236641221374" x2="16.43206106870229" y2="5.0549618320610687" style="stroke:red;stroke-width:1" />
 <line x1="16.43206106870229" y1="5.0549618320610687" x2="15.882442748091603" y2="5" style="stroke:red;stroke-width:1" />
 <line x1="15.882442748091603" y1="5" x2="15.7725190839694656" y2="5.1099236641221374" style="stroke:red;stroke-width:1" />
 <line x1="15.7725190839694656" y1="5.1099236641221374" x2="15.4977099236641221" y2="5.49465648854961832" style="stroke:red;stroke-width:1" />
 <line x1="15.4977099236641221" y1="5.49465648854961832" x2="15.4977099236641221" y2="5.87938931297709923" style="stroke:red;stroke-width:1" />
 <line x1="15.4977099236641221" y1="5.87938931297709923" x2="15.7175572519083969" y2="5.98931297709923664" style="stroke:red;stroke-width:1" />
 <line x1="15.7175572519083969" y1="5.98931297709923664" x2="15.882442748091603" y2="6.09923664122137404" style="stroke:red;stroke-width:1" />
 <line x1="15.882442748091603" y1="6.09923664122137404" x2="16.2671755725190839" y2="6.15419847328244275" style="stroke:red;stroke-width:1" />
 <line x1="16.2671755725190839" y1="6.15419847328244275" x2="15.332824427480916" y2="9.45190839694656489" style="stroke:red;stroke-width:1" />

</svg>
