<!DOCTYPE svg PUBLIC "-//W3C//DTD SVG 1.1//EN" "http://www.w3.org/Graphics/SVG/1.1/DTD/svg11.dtd">
<svg width="39" height="47" xmlns="http://www.w3.org/2000/svg">
 <!-- Gardiner/Zz376515 at (0,.40707964601769912) in red, scale=.0637168141592920356, mirror=0 -->
 <line x1="5" y1="33.991150442477876" x2="33.672566371681416" y2="33.991150442477876" style="stroke:red;stroke-width:1" />
 <line x1="33.672566371681416" y1="37.495575221238938" x2="5" y2="37.495575221238938" style="stroke:red;stroke-width:1" />
 <line x1="5" y1="41" x2="33.672566371681416" y2="41" style="stroke:red;stroke-width:1" />
 <line x1="8.50442477876106195" y1="33.991150442477876" x2="8.50442477876106195" y2="41" style="stroke:red;stroke-width:1" />
 <line x1="13.9203539823008849" y1="33.991150442477876" x2="13.9203539823008849" y2="41" style="stroke:red;stroke-width:1" />
 <line x1="19.336283185840708" y1="33.991150442477876" x2="19.336283185840708" y2="41" style="stroke:red;stroke-width:1" />
 <line x1="24.752212389380531" y1="33.991150442477876" x2="24.752212389380531" y2="41" style="stroke:red;stroke-width:1" />
 <line x1="30.168141592920354" y1="33.991150442477876" x2="30.168141592920354" y2="41" style="stroke:red;stroke-width:1" />
 <line x1="33.5451327433628319" y1="19.3999999999999999" x2="5" y2="19.3999999999999999" style="stroke:red;stroke-width:1" />
 <line x1="9.33274336283185842" y1="19.3999999999999999" x2="8.82300884955752213" y2="17.870796460176991" style="stroke:red;stroke-width:1" />
 <line x1="8.82300884955752213" y1="17.870796460176991" x2="7.99469026548672567" y2="16.5964601769911503" style="stroke:red;stroke-width:1" />
 <line x1="7.99469026548672567" y1="16.5964601769911503" x2="6.72035398230088496" y2="15.6407079646017698" style="stroke:red;stroke-width:1" />
 <line x1="6.72035398230088496" y1="15.6407079646017698" x2="5.70088495575221239" y2="15.6407079646017698" style="stroke:red;stroke-width:1" />
 <line x1="5.70088495575221239" y1="15.6407079646017698" x2="5.12743362831858407" y2="16.2141592920353981" style="stroke:red;stroke-width:1" />
 <line x1="5.12743362831858407" y1="16.2141592920353981" x2="5" y2="16.9787610619469025" style="stroke:red;stroke-width:1" />
 <line x1="5" y1="16.9787610619469025" x2="5.25486725663716814" y2="18.2530973451327432" style="stroke:red;stroke-width:1" />
 <line x1="5.25486725663716814" y1="18.2530973451327432" x2="5.63716814159292035" y2="19.3999999999999999" style="stroke:red;stroke-width:1" />
 <line x1="5.63716814159292035" y1="19.3999999999999999" x2="6.78407079646017699" y2="23.223008849557522" style="stroke:red;stroke-width:1" />
 <line x1="6.78407079646017699" y1="23.223008849557522" x2="8.82300884955752213" y2="23.223008849557522" style="stroke:red;stroke-width:1" />
 <line x1="8.82300884955752213" y1="23.223008849557522" x2="9.33274336283185842" y2="19.3999999999999999" style="stroke:red;stroke-width:1" />
 <line x1="19.336283185840708" y1="19.3999999999999999" x2="19.336283185840708" y2="33.991150442477876" style="stroke:red;stroke-width:1" />
 <line x1="14.6849557522123894" y1="19.3999999999999999" x2="19.336283185840708" y2="25.4530973451327433" style="stroke:red;stroke-width:1" />
 <line x1="19.336283185840708" y1="19.3999999999999999" x2="20.8017699115044248" y2="21.311504424778761" style="stroke:red;stroke-width:1" />
 <line x1="20.8017699115044248" y1="21.311504424778761" x2="21.7575221238938053" y2="23.3504424778761061" style="stroke:red;stroke-width:1" />
 <line x1="21.7575221238938053" y1="23.3504424778761061" x2="22.5221238938053097" y2="25.2619469026548672" style="stroke:red;stroke-width:1" />
 <line x1="22.5221238938053097" y1="25.2619469026548672" x2="22.7769911504424779" y2="26.4725663716814158" style="stroke:red;stroke-width:1" />
 <line x1="22.7769911504424779" y1="26.4725663716814158" x2="22.5221238938053097" y2="27.2371681415929203" style="stroke:red;stroke-width:1" />
 <line x1="22.5221238938053097" y1="27.2371681415929203" x2="22.0761061946902655" y2="27.6831858407079645" style="stroke:red;stroke-width:1" />
 <line x1="22.0761061946902655" y1="27.6831858407079645" x2="21.4389380530973451" y2="27.7469026548672565" style="stroke:red;stroke-width:1" />
 <line x1="21.4389380530973451" y1="27.7469026548672565" x2="20.8654867256637168" y2="27.3646017699115043" style="stroke:red;stroke-width:1" />
 <line x1="20.8654867256637168" y1="27.3646017699115043" x2="21.247787610619469" y2="28.7026548672566371" style="stroke:red;stroke-width:1" />
 <line x1="21.247787610619469" y1="28.7026548672566371" x2="21.3752212389380531" y2="29.5309734513274335" style="stroke:red;stroke-width:1" />
 <line x1="21.3752212389380531" y1="29.5309734513274335" x2="21.3115044247787611" y2="30.2318584070796459" style="stroke:red;stroke-width:1" />
 <line x1="21.3115044247787611" y1="30.2318584070796459" x2="20.6743362831858407" y2="30.4867256637168141" style="stroke:red;stroke-width:1" />
 <line x1="20.6743362831858407" y1="30.4867256637168141" x2="20.0371681415929203" y2="30.1681415929203539" style="stroke:red;stroke-width:1" />
 <line x1="20.0371681415929203" y1="30.1681415929203539" x2="19.336283185840708" y2="29.6584070796460176" style="stroke:red;stroke-width:1" />
 <path d="M 31.7610619469026549 7.54867256637168142
          A 1.27433628318584071 1.27433628318584071 0 1 0 31.7610619469026549 5"
       stroke="red" fill="white" stroke-width="1" fill-opacity="0.0"/>
 <line x1="31.7610619469026549" y1="5" x2="6.91150442477876106" y2="5" style="stroke:red;stroke-width:1" />
 <path d="M 6.91150442477876106 5
          A 1.27433628318584071 1.27433628318584071 0 1 0 6.91150442477876106 7.54867256637168142"
       stroke="red" fill="white" stroke-width="1" fill-opacity="0.0"/>
 <line x1="6.91150442477876106" y1="7.54867256637168142" x2="31.7610619469026549" y2="7.54867256637168142" style="stroke:red;stroke-width:1" />
 <path d="M 15.768141592920354 9.46017699115044249
          A .382300884955752213 .382300884955752213 0 1 0 16.5327433628318584 9.46017699115044249
          A .382300884955752213 .382300884955752213 0 1 0 15.768141592920354 9.46017699115044249"
       stroke="red" fill="white" stroke-width="1" fill-opacity="0.0"/>
 <path d="M 18.9539823008849558 9.46017699115044249
          A .382300884955752213 .382300884955752213 0 1 0 19.7185840707964602 9.46017699115044249
          A .382300884955752213 .382300884955752213 0 1 0 18.9539823008849558 9.46017699115044249"
       stroke="red" fill="white" stroke-width="1" fill-opacity="0.0"/>
 <path d="M 22.1398230088495575 9.46017699115044249
          A .382300884955752213 .382300884955752213 0 1 0 22.9044247787610619 9.46017699115044249
          A .382300884955752213 .382300884955752213 0 1 0 22.1398230088495575 9.46017699115044249"
       stroke="red" fill="white" stroke-width="1" fill-opacity="0.0"/>
 <line x1="19.336283185840708" y1="11.4353982300884955" x2="18.1256637168141593" y2="11.4991150442477876" style="stroke:red;stroke-width:1" />
 <line x1="18.1256637168141593" y1="11.4991150442477876" x2="16.9150442477876106" y2="11.6265486725663717" style="stroke:red;stroke-width:1" />
 <line x1="16.9150442477876106" y1="11.6265486725663717" x2="15.5769911504424778" y2="11.8814159292035398" style="stroke:red;stroke-width:1" />
 <line x1="15.5769911504424778" y1="11.8814159292035398" x2="14.3026548672566371" y2="12.0725663716814159" style="stroke:red;stroke-width:1" />
 <line x1="14.3026548672566371" y1="12.0725663716814159" x2="12.7734513274336283" y2="12.2" style="stroke:red;stroke-width:1" />
 <line x1="12.7734513274336283" y1="12.2" x2="11.3716814159292035" y2="12.263716814159292" style="stroke:red;stroke-width:1" />
 <line x1="11.3716814159292035" y1="12.263716814159292" x2="9.8424778761061947" y2="12.327433628318584" style="stroke:red;stroke-width:1" />
 <line x1="9.8424778761061947" y1="12.327433628318584" x2="8.37699115044247788" y2="12.327433628318584" style="stroke:red;stroke-width:1" />
 <line x1="8.37699115044247788" y1="12.327433628318584" x2="7.48495575221238938" y2="12.1362831858407079" style="stroke:red;stroke-width:1" />
 <line x1="8.37699115044247788" y1="12.263716814159292" x2="8.69557522123893806" y2="11.5628318584070796" style="stroke:red;stroke-width:1" />
 <line x1="8.69557522123893806" y1="11.5628318584070796" x2="8.69557522123893806" y2="10.7345132743362832" style="stroke:red;stroke-width:1" />
 <line x1="8.69557522123893806" y1="10.7345132743362832" x2="8.44070796460176992" y2="9.90619469026548674" style="stroke:red;stroke-width:1" />
 <line x1="8.44070796460176992" y1="9.90619469026548674" x2="7.80353982300884956" y2="9.46017699115044249" style="stroke:red;stroke-width:1" />
 <line x1="7.80353982300884956" y1="9.46017699115044249" x2="6.84778761061946903" y2="9.33274336283185842" style="stroke:red;stroke-width:1" />
 <line x1="6.84778761061946903" y1="9.33274336283185842" x2="6.0831858407079646" y2="9.65132743362831859" style="stroke:red;stroke-width:1" />
 <line x1="6.0831858407079646" y1="9.65132743362831859" x2="5.44601769911504424" y2="10.2247787610619469" style="stroke:red;stroke-width:1" />
 <line x1="5.44601769911504424" y1="10.2247787610619469" x2="5" y2="11.1168141592920354" style="stroke:red;stroke-width:1" />
 <line x1="5" y1="11.1168141592920354" x2="5" y2="12.2" style="stroke:red;stroke-width:1" />
 <line x1="5" y1="12.2" x2="5.50973451327433628" y2="13.1557522123893804" style="stroke:red;stroke-width:1" />
 <line x1="5.50973451327433628" y1="13.1557522123893804" x2="6.14690265486725664" y2="13.7929203539823008" style="stroke:red;stroke-width:1" />
 <line x1="6.14690265486725664" y1="13.7929203539823008" x2="7.10265486725663717" y2="14.3663716814159291" style="stroke:red;stroke-width:1" />
 <line x1="7.10265486725663717" y1="14.3663716814159291" x2="8.37699115044247788" y2="14.7486725663716813" style="stroke:red;stroke-width:1" />
 <line x1="8.37699115044247788" y1="14.7486725663716813" x2="9.77876106194690267" y2="14.8761061946902654" style="stroke:red;stroke-width:1" />
 <line x1="9.77876106194690267" y1="14.8761061946902654" x2="11.3716814159292035" y2="14.8761061946902654" style="stroke:red;stroke-width:1" />
 <line x1="11.3716814159292035" y1="14.8761061946902654" x2="12.8371681415929203" y2="14.6849557522123893" style="stroke:red;stroke-width:1" />
 <line x1="12.8371681415929203" y1="14.6849557522123893" x2="14.1752212389380531" y2="14.3663716814159291" style="stroke:red;stroke-width:1" />
 <line x1="14.1752212389380531" y1="14.3663716814159291" x2="15.6407079646017699" y2="14.1115044247787609" style="stroke:red;stroke-width:1" />
 <line x1="15.6407079646017699" y1="14.1115044247787609" x2="17.1061946902654867" y2="14.0477876106194689" style="stroke:red;stroke-width:1" />
 <line x1="17.1061946902654867" y1="14.0477876106194689" x2="18.6353982300884956" y2="13.9203539823008848" style="stroke:red;stroke-width:1" />
 <line x1="18.6353982300884956" y1="13.9203539823008848" x2="20.0371681415929203" y2="13.9203539823008848" style="stroke:red;stroke-width:1" />
 <line x1="20.0371681415929203" y1="13.9203539823008848" x2="21.5663716814159292" y2="14.0477876106194689" style="stroke:red;stroke-width:1" />
 <line x1="21.5663716814159292" y1="14.0477876106194689" x2="23.031858407079646" y2="14.1115044247787609" style="stroke:red;stroke-width:1" />
 <line x1="23.031858407079646" y1="14.1115044247787609" x2="24.4973451327433628" y2="14.3663716814159291" style="stroke:red;stroke-width:1" />
 <line x1="24.4973451327433628" y1="14.3663716814159291" x2="25.8353982300884956" y2="14.6849557522123893" style="stroke:red;stroke-width:1" />
 <line x1="25.8353982300884956" y1="14.6849557522123893" x2="27.3008849557522124" y2="14.8761061946902654" style="stroke:red;stroke-width:1" />
 <line x1="27.3008849557522124" y1="14.8761061946902654" x2="28.8938053097345133" y2="14.8761061946902654" style="stroke:red;stroke-width:1" />
 <line x1="28.8938053097345133" y1="14.8761061946902654" x2="30.2955752212389381" y2="14.7486725663716813" style="stroke:red;stroke-width:1" />
 <line x1="30.2955752212389381" y1="14.7486725663716813" x2="31.5699115044247788" y2="14.3663716814159291" style="stroke:red;stroke-width:1" />
 <line x1="31.5699115044247788" y1="14.3663716814159291" x2="32.5256637168141593" y2="13.7929203539823008" style="stroke:red;stroke-width:1" />
 <line x1="32.5256637168141593" y1="13.7929203539823008" x2="33.1628318584070797" y2="13.1557522123893804" style="stroke:red;stroke-width:1" />
 <line x1="33.1628318584070797" y1="13.1557522123893804" x2="33.672566371681416" y2="12.2" style="stroke:red;stroke-width:1" />
 <line x1="33.672566371681416" y1="12.2" x2="33.672566371681416" y2="11.1168141592920354" style="stroke:red;stroke-width:1" />
 <line x1="33.672566371681416" y1="11.1168141592920354" x2="33.2265486725663717" y2="10.2247787610619469" style="stroke:red;stroke-width:1" />
 <line x1="33.2265486725663717" y1="10.2247787610619469" x2="32.5893805309734514" y2="9.65132743362831859" style="stroke:red;stroke-width:1" />
 <line x1="32.5893805309734514" y1="9.65132743362831859" x2="31.8247787610619469" y2="9.33274336283185842" style="stroke:red;stroke-width:1" />
 <line x1="31.8247787610619469" y1="9.33274336283185842" x2="30.8690265486725664" y2="9.46017699115044249" style="stroke:red;stroke-width:1" />
 <line x1="30.8690265486725664" y1="9.46017699115044249" x2="30.231858407079646" y2="9.90619469026548674" style="stroke:red;stroke-width:1" />
 <line x1="30.231858407079646" y1="9.90619469026548674" x2="29.9769911504424779" y2="10.7345132743362832" style="stroke:red;stroke-width:1" />
 <line x1="29.9769911504424779" y1="10.7345132743362832" x2="29.9769911504424779" y2="11.5628318584070796" style="stroke:red;stroke-width:1" />
 <line x1="29.9769911504424779" y1="11.5628318584070796" x2="30.2955752212389381" y2="12.263716814159292" style="stroke:red;stroke-width:1" />
 <line x1="31.1876106194690266" y1="12.1362831858407079" x2="30.2955752212389381" y2="12.327433628318584" style="stroke:red;stroke-width:1" />
 <line x1="30.2955752212389381" y1="12.327433628318584" x2="28.8300884955752213" y2="12.327433628318584" style="stroke:red;stroke-width:1" />
 <line x1="28.8300884955752213" y1="12.327433628318584" x2="27.3008849557522124" y2="12.263716814159292" style="stroke:red;stroke-width:1" />
 <line x1="27.3008849557522124" y1="12.263716814159292" x2="25.8991150442477876" y2="12.2" style="stroke:red;stroke-width:1" />
 <line x1="25.8991150442477876" y1="12.2" x2="24.3699115044247788" y2="12.0725663716814159" style="stroke:red;stroke-width:1" />
 <line x1="24.3699115044247788" y1="12.0725663716814159" x2="23.0955752212389381" y2="11.8814159292035398" style="stroke:red;stroke-width:1" />
 <line x1="23.0955752212389381" y1="11.8814159292035398" x2="21.7575221238938053" y2="11.6265486725663717" style="stroke:red;stroke-width:1" />
 <line x1="21.7575221238938053" y1="11.6265486725663717" x2="20.5469026548672566" y2="11.4991150442477876" style="stroke:red;stroke-width:1" />
 <line x1="20.5469026548672566" y1="11.4991150442477876" x2="19.336283185840708" y2="11.4353982300884955" style="stroke:red;stroke-width:1" />

</svg>
