<!DOCTYPE svg PUBLIC "-//W3C//DTD SVG 1.1//EN" "http://www.w3.org/Graphics/SVG/1.1/DTD/svg11.dtd">
<svg width="37" height="46" xmlns="http://www.w3.org/2000/svg">
 <!-- Gardiner/Zz376515 at (0,.51239669421487604) in green, scale=.0595041322314049588, mirror=0 -->
 <line x1="5" y1="34.4545454545454544" x2="31.7768595041322314" y2="34.4545454545454544" style="stroke:green;stroke-width:1" />
 <line x1="31.7768595041322314" y1="37.7272727272727272" x2="5" y2="37.7272727272727272" style="stroke:green;stroke-width:1" />
 <line x1="5" y1="40.9999999999999999" x2="31.7768595041322314" y2="40.9999999999999999" style="stroke:green;stroke-width:1" />
 <line x1="8.27272727272727273" y1="34.4545454545454544" x2="8.27272727272727273" y2="40.9999999999999999" style="stroke:green;stroke-width:1" />
 <line x1="13.3305785123966942" y1="34.4545454545454544" x2="13.3305785123966942" y2="40.9999999999999999" style="stroke:green;stroke-width:1" />
 <line x1="18.3884297520661157" y1="34.4545454545454544" x2="18.3884297520661157" y2="40.9999999999999999" style="stroke:green;stroke-width:1" />
 <line x1="23.4462809917355371" y1="34.4545454545454544" x2="23.4462809917355371" y2="40.9999999999999999" style="stroke:green;stroke-width:1" />
 <line x1="28.5041322314049586" y1="34.4545454545454544" x2="28.5041322314049586" y2="40.9999999999999999" style="stroke:green;stroke-width:1" />
 <line x1="31.6578512396694215" y1="20.8280991735537189" x2="5" y2="20.8280991735537189" style="stroke:green;stroke-width:1" />
 <line x1="9.04628099173553719" y1="20.8280991735537189" x2="8.57024793388429752" y2="19.3999999999999998" style="stroke:green;stroke-width:1" />
 <line x1="8.57024793388429752" y1="19.3999999999999998" x2="7.79669421487603306" y2="18.2099173553719007" style="stroke:green;stroke-width:1" />
 <line x1="7.79669421487603306" y1="18.2099173553719007" x2="6.60661157024793388" y2="17.3173553719008263" style="stroke:green;stroke-width:1" />
 <line x1="6.60661157024793388" y1="17.3173553719008263" x2="5.65454545454545454" y2="17.3173553719008263" style="stroke:green;stroke-width:1" />
 <line x1="5.65454545454545454" y1="17.3173553719008263" x2="5.11900826446280991" y2="17.8528925619834709" style="stroke:green;stroke-width:1" />
 <line x1="5.11900826446280991" y1="17.8528925619834709" x2="5" y2="18.5669421487603304" style="stroke:green;stroke-width:1" />
 <line x1="5" y1="18.5669421487603304" x2="5.23801652892561983" y2="19.7570247933884296" style="stroke:green;stroke-width:1" />
 <line x1="5.23801652892561983" y1="19.7570247933884296" x2="5.59504132231404958" y2="20.8280991735537189" style="stroke:green;stroke-width:1" />
 <line x1="5.59504132231404958" y1="20.8280991735537189" x2="6.66611570247933884" y2="24.3983471074380164" style="stroke:green;stroke-width:1" />
 <line x1="6.66611570247933884" y1="24.3983471074380164" x2="8.57024793388429752" y2="24.3983471074380164" style="stroke:green;stroke-width:1" />
 <line x1="8.57024793388429752" y1="24.3983471074380164" x2="9.04628099173553719" y2="20.8280991735537189" style="stroke:green;stroke-width:1" />
 <line x1="18.3884297520661157" y1="20.8280991735537189" x2="18.3884297520661157" y2="34.4545454545454544" style="stroke:green;stroke-width:1" />
 <line x1="14.0446280991735537" y1="20.8280991735537189" x2="18.3884297520661157" y2="26.4809917355371899" style="stroke:green;stroke-width:1" />
 <line x1="18.3884297520661157" y1="20.8280991735537189" x2="19.7570247933884297" y2="22.6132231404958676" style="stroke:green;stroke-width:1" />
 <line x1="19.7570247933884297" y1="22.6132231404958676" x2="20.6495867768595041" y2="24.5173553719008263" style="stroke:green;stroke-width:1" />
 <line x1="20.6495867768595041" y1="24.5173553719008263" x2="21.3636363636363636" y2="26.3024793388429751" style="stroke:green;stroke-width:1" />
 <line x1="21.3636363636363636" y1="26.3024793388429751" x2="21.6016528925619834" y2="27.4330578512396693" style="stroke:green;stroke-width:1" />
 <line x1="21.6016528925619834" y1="27.4330578512396693" x2="21.3636363636363636" y2="28.1471074380165288" style="stroke:green;stroke-width:1" />
 <line x1="21.3636363636363636" y1="28.1471074380165288" x2="20.9471074380165289" y2="28.5636363636363635" style="stroke:green;stroke-width:1" />
 <line x1="20.9471074380165289" y1="28.5636363636363635" x2="20.3520661157024793" y2="28.6231404958677685" style="stroke:green;stroke-width:1" />
 <line x1="20.3520661157024793" y1="28.6231404958677685" x2="19.8165289256198347" y2="28.2661157024793387" style="stroke:green;stroke-width:1" />
 <line x1="19.8165289256198347" y1="28.2661157024793387" x2="20.1735537190082644" y2="29.5157024793388428" style="stroke:green;stroke-width:1" />
 <line x1="20.1735537190082644" y1="29.5157024793388428" x2="20.2925619834710743" y2="30.2892561983471073" style="stroke:green;stroke-width:1" />
 <line x1="20.2925619834710743" y1="30.2892561983471073" x2="20.2330578512396694" y2="30.9438016528925619" style="stroke:green;stroke-width:1" />
 <line x1="20.2330578512396694" y1="30.9438016528925619" x2="19.6380165289256198" y2="31.1818181818181817" style="stroke:green;stroke-width:1" />
 <line x1="19.6380165289256198" y1="31.1818181818181817" x2="19.0429752066115702" y2="30.8842975206611569" style="stroke:green;stroke-width:1" />
 <line x1="19.0429752066115702" y1="30.8842975206611569" x2="18.3884297520661157" y2="30.4082644628099172" style="stroke:green;stroke-width:1" />
 <line x1="16.6628099173553718" y1="9.87933884297520662" x2="15.4132231404958677" y2="10.2958677685950413" style="stroke:green;stroke-width:1" />
 <line x1="15.4132231404958677" y1="10.2958677685950413" x2="13.7471074380165289" y2="10.8909090909090909" style="stroke:green;stroke-width:1" />
 <line x1="13.7471074380165289" y1="10.8909090909090909" x2="12.2" y2="11.3669421487603305" style="stroke:green;stroke-width:1" />
 <line x1="12.2" y1="11.3669421487603305" x2="11.9024793388429752" y2="11.4859504132231405" style="stroke:green;stroke-width:1" />
 <line x1="11.9024793388429752" y1="11.4859504132231405" x2="11.7239669421487603" y2="11.3669421487603305" style="stroke:green;stroke-width:1" />
 <line x1="11.7239669421487603" y1="11.3669421487603305" x2="11.6644628099173553" y2="11.3074380165289256" style="stroke:green;stroke-width:1" />
 <line x1="11.6644628099173553" y1="11.3074380165289256" x2="11.6049586776859504" y2="11.1289256198347107" style="stroke:green;stroke-width:1" />
 <line x1="11.6049586776859504" y1="11.1289256198347107" x2="11.6049586776859504" y2="10.8909090909090909" style="stroke:green;stroke-width:1" />
 <line x1="11.6049586776859504" y1="10.8909090909090909" x2="11.6644628099173553" y2="10.712396694214876" style="stroke:green;stroke-width:1" />
 <line x1="11.6644628099173553" y1="10.712396694214876" x2="11.7834710743801653" y2="10.5338842975206611" style="stroke:green;stroke-width:1" />
 <line x1="11.7834710743801653" y1="10.5338842975206611" x2="14.0446280991735537" y2="7.55867768595041322" style="stroke:green;stroke-width:1" />
 <line x1="14.0446280991735537" y1="7.55867768595041322" x2="14.1636363636363636" y2="7.38016528925619835" style="stroke:green;stroke-width:1" />
 <line x1="14.1636363636363636" y1="7.38016528925619835" x2="14.4016528925619834" y2="7.20165289256198347" style="stroke:green;stroke-width:1" />
 <line x1="14.4016528925619834" y1="7.20165289256198347" x2="14.5801652892561983" y2="7.26115702479338843" style="stroke:green;stroke-width:1" />
 <line x1="14.5801652892561983" y1="7.26115702479338843" x2="14.8776859504132231" y2="7.38016528925619835" style="stroke:green;stroke-width:1" />
 <line x1="14.8776859504132231" y1="7.38016528925619835" x2="14.937190082644628" y2="7.55867768595041322" style="stroke:green;stroke-width:1" />
 <line x1="14.5206611570247933" y1="7.79669421487603306" x2="14.7586776859504132" y2="7.61818181818181818" style="stroke:green;stroke-width:1" />
 <line x1="14.7586776859504132" y1="7.61818181818181818" x2="14.937190082644628" y2="7.55867768595041322" style="stroke:green;stroke-width:1" />
 <line x1="14.937190082644628" y1="7.55867768595041322" x2="15.2347107438016528" y2="7.55867768595041322" style="stroke:green;stroke-width:1" />
 <line x1="15.2347107438016528" y1="7.55867768595041322" x2="15.4727272727272727" y2="7.55867768595041322" style="stroke:green;stroke-width:1" />
 <line x1="15.4727272727272727" y1="7.55867768595041322" x2="15.5322314049586776" y2="7.61818181818181818" style="stroke:green;stroke-width:1" />
 <line x1="15.5322314049586776" y1="7.61818181818181818" x2="15.4727272727272727" y2="7.7371900826446281" style="stroke:green;stroke-width:1" />
 <line x1="15.4727272727272727" y1="7.7371900826446281" x2="15.2347107438016528" y2="7.91570247933884298" style="stroke:green;stroke-width:1" />
 <line x1="15.2347107438016528" y1="7.91570247933884298" x2="14.5206611570247933" y2="8.21322314049586777" style="stroke:green;stroke-width:1" />
 <line x1="14.5206611570247933" y1="8.21322314049586777" x2="14.2231404958677685" y2="8.27272727272727273" style="stroke:green;stroke-width:1" />
 <line x1="14.2231404958677685" y1="8.27272727272727273" x2="14.0446280991735537" y2="8.45123966942148761" style="stroke:green;stroke-width:1" />
 <line x1="14.0446280991735537" y1="8.45123966942148761" x2="13.8066115702479338" y2="8.62975206611570248" style="stroke:green;stroke-width:1" />
 <line x1="13.8066115702479338" y1="8.62975206611570248" x2="13.3900826446280991" y2="9.16528925619834711" style="stroke:green;stroke-width:1" />
 <line x1="13.3900826446280991" y1="9.16528925619834711" x2="12.6165289256198347" y2="10.652892561983471" style="stroke:green;stroke-width:1" />
 <line x1="12.6165289256198347" y1="10.652892561983471" x2="13.8661157024793388" y2="10.0578512396694214" style="stroke:green;stroke-width:1" />
 <line x1="13.8661157024793388" y1="10.0578512396694214" x2="15.1157024793388429" y2="9.52231404958677686" style="stroke:green;stroke-width:1" />
 <line x1="15.1157024793388429" y1="9.52231404958677686" x2="16.3057851239669421" y2="8.98677685950413223" style="stroke:green;stroke-width:1" />
 <line x1="16.3057851239669421" y1="8.98677685950413223" x2="16.6628099173553718" y2="9.87933884297520662" style="stroke:green;stroke-width:1" />
 <line x1="16.6628099173553718" y1="9.87933884297520662" x2="16.9008264462809917" y2="10.652892561983471" style="stroke:green;stroke-width:1" />
 <line x1="16.9008264462809917" y1="10.652892561983471" x2="17.0793388429752066" y2="11.5454545454545454" style="stroke:green;stroke-width:1" />
 <line x1="17.0793388429752066" y1="11.5454545454545454" x2="17.0198347107438016" y2="12.4380165289256198" style="stroke:green;stroke-width:1" />
 <line x1="17.0198347107438016" y1="12.4380165289256198" x2="16.9008264462809917" y2="13.1520661157024792" style="stroke:green;stroke-width:1" />
 <line x1="16.9008264462809917" y1="13.1520661157024792" x2="16.7223140495867768" y2="13.6280991735537188" style="stroke:green;stroke-width:1" />
 <line x1="16.7223140495867768" y1="13.6280991735537188" x2="14.7586776859504132" y2="14.2826446280991734" style="stroke:green;stroke-width:1" />
 <line x1="14.7586776859504132" y1="14.2826446280991734" x2="14.0446280991735537" y2="14.5206611570247932" style="stroke:green;stroke-width:1" />
 <line x1="14.0446280991735537" y1="14.5206611570247932" x2="13.6280991735537189" y2="14.6991735537190081" style="stroke:green;stroke-width:1" />
 <line x1="13.6280991735537189" y1="14.6991735537190081" x2="13.3305785123966942" y2="14.877685950413223" style="stroke:green;stroke-width:1" />
 <line x1="13.3305785123966942" y1="14.877685950413223" x2="13.0330578512396694" y2="15.0561983471074379" style="stroke:green;stroke-width:1" />
 <line x1="13.0330578512396694" y1="15.0561983471074379" x2="12.9140495867768595" y2="15.2347107438016527" style="stroke:green;stroke-width:1" />
 <line x1="12.9140495867768595" y1="15.2347107438016527" x2="12.7355371900826446" y2="15.5917355371900825" style="stroke:green;stroke-width:1" />
 <line x1="12.7355371900826446" y1="15.5917355371900825" x2="12.6165289256198347" y2="16.0082644628099172" style="stroke:green;stroke-width:1" />
 <line x1="12.6165289256198347" y1="16.0082644628099172" x2="12.4975206611570248" y2="16.4842975206611569" style="stroke:green;stroke-width:1" />
 <line x1="12.4975206611570248" y1="16.4842975206611569" x2="12.2595041322314049" y2="17.4363636363636362" style="stroke:green;stroke-width:1" />
 <line x1="12.2595041322314049" y1="17.4363636363636362" x2="11.9024793388429752" y2="18.2099173553719007" style="stroke:green;stroke-width:1" />
 <line x1="11.9024793388429752" y1="18.2099173553719007" x2="11.6049586776859504" y2="18.9834710743801651" style="stroke:green;stroke-width:1" />
 <line x1="11.6049586776859504" y1="18.9834710743801651" x2="11.3669421487603305" y2="19.3999999999999998" style="stroke:green;stroke-width:1" />
 <line x1="11.3669421487603305" y1="19.3999999999999998" x2="11.1289256198347107" y2="19.6975206611570246" style="stroke:green;stroke-width:1" />
 <line x1="11.1289256198347107" y1="19.6975206611570246" x2="10.8909090909090909" y2="19.9355371900826445" style="stroke:green;stroke-width:1" />
 <line x1="10.8909090909090909" y1="19.9355371900826445" x2="10.5933884297520661" y2="20.1140495867768594" style="stroke:green;stroke-width:1" />
 <line x1="10.5933884297520661" y1="20.1140495867768594" x2="9.70082644628099174" y2="20.649586776859504" style="stroke:green;stroke-width:1" />
 <line x1="9.70082644628099174" y1="20.649586776859504" x2="9.52231404958677686" y2="20.7685950413223139" style="stroke:green;stroke-width:1" />
 <line x1="9.52231404958677686" y1="20.7685950413223139" x2="9.46280991735537191" y2="20.9471074380165288" style="stroke:green;stroke-width:1" />
 <line x1="9.46280991735537191" y1="20.9471074380165288" x2="9.46280991735537191" y2="21.0066115702479337" style="stroke:green;stroke-width:1" />
 <line x1="9.46280991735537191" y1="21.0066115702479337" x2="9.64132231404958678" y2="21.0661157024793387" style="stroke:green;stroke-width:1" />
 <line x1="9.64132231404958678" y1="21.0661157024793387" x2="9.7603305785123967" y2="21.0661157024793387" style="stroke:green;stroke-width:1" />
 <line x1="9.7603305785123967" y1="21.0661157024793387" x2="10.0578512396694214" y2="20.8876033057851238" style="stroke:green;stroke-width:1" />
 <line x1="10.0578512396694214" y1="20.8876033057851238" x2="10.2958677685950413" y2="20.7090909090909089" style="stroke:green;stroke-width:1" />
 <line x1="10.2958677685950413" y1="20.7090909090909089" x2="10.652892561983471" y2="20.5305785123966941" style="stroke:green;stroke-width:1" />
 <line x1="10.652892561983471" y1="20.5305785123966941" x2="10.9504132231404958" y2="20.4710743801652891" style="stroke:green;stroke-width:1" />
 <line x1="10.9504132231404958" y1="20.4710743801652891" x2="11.6049586776859504" y2="20.4710743801652891" style="stroke:green;stroke-width:1" />
 <line x1="11.6049586776859504" y1="20.4710743801652891" x2="11.8429752066115702" y2="20.4115702479338841" style="stroke:green;stroke-width:1" />
 <line x1="11.8429752066115702" y1="20.4115702479338841" x2="11.9619834710743801" y2="20.2925619834710742" style="stroke:green;stroke-width:1" />
 <line x1="11.9619834710743801" y1="20.2925619834710742" x2="12.0214876033057851" y2="19.9950413223140494" style="stroke:green;stroke-width:1" />
 <line x1="12.0214876033057851" y1="19.9950413223140494" x2="12.0214876033057851" y2="19.8760330578512395" style="stroke:green;stroke-width:1" />
 <line x1="12.0214876033057851" y1="19.8760330578512395" x2="11.9024793388429752" y2="19.6975206611570246" style="stroke:green;stroke-width:1" />
 <line x1="11.9024793388429752" y1="19.6975206611570246" x2="12.3190082644628099" y2="18.9834710743801651" style="stroke:green;stroke-width:1" />
 <line x1="12.3190082644628099" y1="18.9834710743801651" x2="12.7355371900826446" y2="17.9719008264462808" style="stroke:green;stroke-width:1" />
 <line x1="12.7355371900826446" y1="17.9719008264462808" x2="13.0330578512396694" y2="17.1983471074380164" style="stroke:green;stroke-width:1" />
 <line x1="13.0330578512396694" y1="17.1983471074380164" x2="13.4495867768595041" y2="16.0082644628099172" style="stroke:green;stroke-width:1" />
 <line x1="13.6280991735537189" y1="14.7586776859504131" x2="13.3900826446280991" y2="14.877685950413223" style="stroke:green;stroke-width:1" />
 <line x1="13.3900826446280991" y1="14.877685950413223" x2="13.2710743801652892" y2="15.1157024793388428" style="stroke:green;stroke-width:1" />
 <line x1="13.2710743801652892" y1="15.1157024793388428" x2="13.2710743801652892" y2="15.3537190082644627" style="stroke:green;stroke-width:1" />
 <line x1="13.2710743801652892" y1="15.3537190082644627" x2="13.2710743801652892" y2="15.5917355371900825" style="stroke:green;stroke-width:1" />
 <line x1="13.2710743801652892" y1="15.5917355371900825" x2="13.3305785123966942" y2="15.7702479338842974" style="stroke:green;stroke-width:1" />
 <line x1="13.3305785123966942" y1="15.7702479338842974" x2="13.3900826446280991" y2="15.9487603305785122" style="stroke:green;stroke-width:1" />
 <line x1="13.3900826446280991" y1="15.9487603305785122" x2="13.4495867768595041" y2="16.0082644628099172" style="stroke:green;stroke-width:1" />
 <line x1="13.4495867768595041" y1="16.0082644628099172" x2="13.6280991735537189" y2="17.2578512396694213" style="stroke:green;stroke-width:1" />
 <line x1="13.6280991735537189" y1="17.2578512396694213" x2="13.6876033057851239" y2="18.1504132231404957" style="stroke:green;stroke-width:1" />
 <line x1="13.6876033057851239" y1="18.1504132231404957" x2="13.6280991735537189" y2="18.8049586776859503" style="stroke:green;stroke-width:1" />
 <line x1="13.6280991735537189" y1="18.8049586776859503" x2="13.5090909090909091" y2="19.221487603305785" style="stroke:green;stroke-width:1" />
 <line x1="13.5090909090909091" y1="19.221487603305785" x2="13.4495867768595041" y2="19.4595041322314048" style="stroke:green;stroke-width:1" />
 <line x1="13.4495867768595041" y1="19.4595041322314048" x2="13.1520661157024793" y2="19.7570247933884296" style="stroke:green;stroke-width:1" />
 <line x1="13.1520661157024793" y1="19.7570247933884296" x2="12.3785123966942148" y2="20.4710743801652891" style="stroke:green;stroke-width:1" />
 <line x1="12.3785123966942148" y1="20.4710743801652891" x2="12.3190082644628099" y2="20.590082644628099" style="stroke:green;stroke-width:1" />
 <line x1="12.3190082644628099" y1="20.590082644628099" x2="12.2595041322314049" y2="20.7685950413223139" style="stroke:green;stroke-width:1" />
 <line x1="12.2595041322314049" y1="20.7685950413223139" x2="12.3190082644628099" y2="20.8280991735537189" style="stroke:green;stroke-width:1" />
 <line x1="12.3190082644628099" y1="20.8280991735537189" x2="12.4380165289256198" y2="20.8280991735537189" style="stroke:green;stroke-width:1" />
 <line x1="12.4380165289256198" y1="20.8280991735537189" x2="13.2710743801652892" y2="20.2925619834710742" style="stroke:green;stroke-width:1" />
 <line x1="13.2710743801652892" y1="20.2925619834710742" x2="13.568595041322314" y2="20.1140495867768594" style="stroke:green;stroke-width:1" />
 <line x1="13.568595041322314" y1="20.1140495867768594" x2="13.8066115702479338" y2="20.0545454545454544" style="stroke:green;stroke-width:1" />
 <line x1="13.8066115702479338" y1="20.0545454545454544" x2="14.0446280991735537" y2="20.0545454545454544" style="stroke:green;stroke-width:1" />
 <line x1="14.0446280991735537" y1="20.0545454545454544" x2="14.2231404958677685" y2="19.9950413223140494" style="stroke:green;stroke-width:1" />
 <line x1="14.2231404958677685" y1="19.9950413223140494" x2="14.3421487603305785" y2="19.9355371900826445" style="stroke:green;stroke-width:1" />
 <line x1="14.3421487603305785" y1="19.9355371900826445" x2="14.4016528925619834" y2="19.7570247933884296" style="stroke:green;stroke-width:1" />
 <line x1="14.4016528925619834" y1="19.7570247933884296" x2="14.4016528925619834" y2="19.5785123966942147" style="stroke:green;stroke-width:1" />
 <line x1="14.4016528925619834" y1="19.5785123966942147" x2="14.3421487603305785" y2="19.4595041322314048" style="stroke:green;stroke-width:1" />
 <line x1="14.3421487603305785" y1="19.4595041322314048" x2="14.2231404958677685" y2="19.2809917355371899" style="stroke:green;stroke-width:1" />
 <line x1="14.2231404958677685" y1="19.2809917355371899" x2="14.2231404958677685" y2="19.16198347107438" style="stroke:green;stroke-width:1" />
 <line x1="14.2231404958677685" y1="19.16198347107438" x2="14.4611570247933884" y2="17.1388429752066114" style="stroke:green;stroke-width:1" />
 <line x1="14.4611570247933884" y1="17.1388429752066114" x2="14.5206611570247933" y2="16.5438016528925618" style="stroke:green;stroke-width:1" />
 <line x1="14.5206611570247933" y1="16.5438016528925618" x2="14.5206611570247933" y2="15.9487603305785122" style="stroke:green;stroke-width:1" />
 <line x1="14.5206611570247933" y1="15.9487603305785122" x2="14.5206611570247933" y2="15.4727272727272726" style="stroke:green;stroke-width:1" />
 <line x1="14.5206611570247933" y1="15.4727272727272726" x2="14.4016528925619834" y2="15.1752066115702478" style="stroke:green;stroke-width:1" />
 <line x1="14.4016528925619834" y1="15.1752066115702478" x2="14.1636363636363636" y2="14.877685950413223" style="stroke:green;stroke-width:1" />
 <line x1="14.1636363636363636" y1="14.877685950413223" x2="14.0446280991735537" y2="14.5206611570247932" style="stroke:green;stroke-width:1" />
 <line x1="14.5206611570247933" y1="15.4727272727272726" x2="15.6512396694214875" y2="15.4727272727272726" style="stroke:green;stroke-width:1" />
 <line x1="15.6512396694214875" y1="15.4727272727272726" x2="16.6628099173553718" y2="15.3537190082644627" style="stroke:green;stroke-width:1" />
 <line x1="16.6628099173553718" y1="15.3537190082644627" x2="17.5553719008264462" y2="15.2347107438016527" style="stroke:green;stroke-width:1" />
 <line x1="17.5553719008264462" y1="15.2347107438016527" x2="18.2099173553719008" y2="15.0561983471074379" style="stroke:green;stroke-width:1" />
 <line x1="18.2099173553719008" y1="15.0561983471074379" x2="18.5074380165289256" y2="14.9371900826446279" style="stroke:green;stroke-width:1" />
 <line x1="18.5074380165289256" y1="14.9371900826446279" x2="18.6859504132231404" y2="14.7586776859504131" style="stroke:green;stroke-width:1" />
 <line x1="18.6859504132231404" y1="14.7586776859504131" x2="18.8049586776859504" y2="14.5206611570247932" style="stroke:green;stroke-width:1" />
 <line x1="18.8049586776859504" y1="14.5206611570247932" x2="18.9239669421487603" y2="14.2231404958677684" style="stroke:green;stroke-width:1" />
 <line x1="18.9239669421487603" y1="14.2231404958677684" x2="18.9834710743801652" y2="13.7471074380165288" style="stroke:green;stroke-width:1" />
 <line x1="18.9834710743801652" y1="13.7471074380165288" x2="19.0429752066115702" y2="13.0925619834710743" style="stroke:green;stroke-width:1" />
 <line x1="19.0429752066115702" y1="13.0925619834710743" x2="19.1619834710743801" y2="11.7834710743801653" style="stroke:green;stroke-width:1" />
 <line x1="19.1619834710743801" y1="11.7834710743801653" x2="19.2214876033057851" y2="11.1289256198347107" style="stroke:green;stroke-width:1" />
 <line x1="19.2214876033057851" y1="11.1289256198347107" x2="19.340495867768595" y2="10.5933884297520661" style="stroke:green;stroke-width:1" />
 <line x1="19.340495867768595" y1="10.5933884297520661" x2="19.6380165289256198" y2="9.87933884297520662" style="stroke:green;stroke-width:1" />
 <line x1="19.6380165289256198" y1="9.87933884297520662" x2="20.0545454545454545" y2="9.16528925619834711" style="stroke:green;stroke-width:1" />
 <line x1="20.0545454545454545" y1="9.16528925619834711" x2="20.5305785123966942" y2="9.58181818181818182" style="stroke:green;stroke-width:1" />
 <line x1="20.5305785123966942" y1="9.58181818181818182" x2="21.0066115702479338" y2="10.1173553719008264" style="stroke:green;stroke-width:1" />
 <line x1="21.0066115702479338" y1="10.1173553719008264" x2="21.4826446280991735" y2="10.8314049586776859" style="stroke:green;stroke-width:1" />
 <line x1="21.4826446280991735" y1="10.8314049586776859" x2="21.8396694214876033" y2="11.6644628099173553" style="stroke:green;stroke-width:1" />
 <line x1="21.8396694214876033" y1="11.6644628099173553" x2="22.1371900826446281" y2="12.6165289256198347" style="stroke:green;stroke-width:1" />
 <line x1="22.1371900826446281" y1="12.6165289256198347" x2="21.4826446280991735" y2="13.8661157024793387" style="stroke:green;stroke-width:1" />
 <line x1="21.4826446280991735" y1="13.8661157024793387" x2="20.768595041322314" y2="15.1157024793388428" style="stroke:green;stroke-width:1" />
 <line x1="20.768595041322314" y1="15.1157024793388428" x2="20.828099173553719" y2="15.4132231404958676" style="stroke:green;stroke-width:1" />
 <line x1="20.828099173553719" y1="15.4132231404958676" x2="20.768595041322314" y2="15.7107438016528924" style="stroke:green;stroke-width:1" />
 <line x1="20.768595041322314" y1="15.7107438016528924" x2="20.5900826446280991" y2="16.0082644628099172" style="stroke:green;stroke-width:1" />
 <line x1="20.5900826446280991" y1="16.0082644628099172" x2="20.3520661157024793" y2="16.1867768595041321" style="stroke:green;stroke-width:1" />
 <line x1="20.3520661157024793" y1="16.1867768595041321" x2="20.1735537190082644" y2="16.1867768595041321" style="stroke:green;stroke-width:1" />
 <line x1="20.1735537190082644" y1="15.7702479338842974" x2="20.1735537190082644" y2="16.1867768595041321" style="stroke:green;stroke-width:1" />
 <line x1="20.1735537190082644" y1="16.1867768595041321" x2="20.0545454545454545" y2="16.365289256198347" style="stroke:green;stroke-width:1" />
 <line x1="20.0545454545454545" y1="16.365289256198347" x2="19.9355371900826446" y2="16.5438016528925618" style="stroke:green;stroke-width:1" />
 <line x1="19.9355371900826446" y1="16.5438016528925618" x2="19.8760330578512396" y2="16.5438016528925618" style="stroke:green;stroke-width:1" />
 <line x1="19.8760330578512396" y1="16.5438016528925618" x2="19.8760330578512396" y2="16.365289256198347" style="stroke:green;stroke-width:1" />
 <line x1="19.8760330578512396" y1="16.365289256198347" x2="19.9355371900826446" y2="15.9487603305785122" style="stroke:green;stroke-width:1" />
 <line x1="19.9355371900826446" y1="15.9487603305785122" x2="19.9950413223140495" y2="15.5917355371900825" style="stroke:green;stroke-width:1" />
 <line x1="19.9950413223140495" y1="15.5917355371900825" x2="20.2330578512396694" y2="14.9371900826446279" style="stroke:green;stroke-width:1" />
 <line x1="20.2330578512396694" y1="14.9371900826446279" x2="20.4710743801652892" y2="14.4016528925619833" style="stroke:green;stroke-width:1" />
 <line x1="20.4710743801652892" y1="14.4016528925619833" x2="21.4826446280991735" y2="12.4380165289256198" style="stroke:green;stroke-width:1" />
 <line x1="21.4826446280991735" y1="12.4380165289256198" x2="21.4826446280991735" y2="12.3785123966942148" style="stroke:green;stroke-width:1" />
 <line x1="21.4826446280991735" y1="12.3785123966942148" x2="20.8876033057851239" y2="11.4859504132231405" style="stroke:green;stroke-width:1" />
 <line x1="20.8876033057851239" y1="11.4859504132231405" x2="20.2925619834710743" y2="10.5933884297520661" style="stroke:green;stroke-width:1" />
 <line x1="20.2925619834710743" y1="10.5933884297520661" x2="19.5785123966942148" y2="9.87933884297520662" style="stroke:green;stroke-width:1" />
 <line x1="20.0545454545454545" y1="9.16528925619834711" x2="19.4595041322314049" y2="8.80826446280991736" style="stroke:green;stroke-width:1" />
 <line x1="19.4595041322314049" y1="8.80826446280991736" x2="18.8644628099173553" y2="8.62975206611570248" style="stroke:green;stroke-width:1" />
 <line x1="18.8644628099173553" y1="8.62975206611570248" x2="18.5074380165289256" y2="8.45123966942148761" style="stroke:green;stroke-width:1" />
 <line x1="18.5074380165289256" y1="8.45123966942148761" x2="18.3289256198347107" y2="8.33223140495867769" style="stroke:green;stroke-width:1" />
 <line x1="18.3289256198347107" y1="8.33223140495867769" x2="18.2694214876033057" y2="8.15371900826446281" style="stroke:green;stroke-width:1" />
 <line x1="18.2694214876033057" y1="8.15371900826446281" x2="18.2099173553719008" y2="7.91570247933884298" style="stroke:green;stroke-width:1" />
 <line x1="18.2099173553719008" y1="7.91570247933884298" x2="18.2694214876033057" y2="7.79669421487603306" style="stroke:green;stroke-width:1" />
 <line x1="18.2694214876033057" y1="7.79669421487603306" x2="18.3289256198347107" y2="7.61818181818181818" style="stroke:green;stroke-width:1" />
 <line x1="18.3289256198347107" y1="7.61818181818181818" x2="18.5074380165289256" y2="7.55867768595041322" style="stroke:green;stroke-width:1" />
 <line x1="18.5074380165289256" y1="7.55867768595041322" x2="18.8644628099173553" y2="7.43966942148760331" style="stroke:green;stroke-width:1" />
 <line x1="18.8644628099173553" y1="7.43966942148760331" x2="19.1619834710743801" y2="7.20165289256198347" style="stroke:green;stroke-width:1" />
 <line x1="19.1619834710743801" y1="7.20165289256198347" x2="19.3999999999999999" y2="6.90413223140495868" style="stroke:green;stroke-width:1" />
 <line x1="19.3999999999999999" y1="6.90413223140495868" x2="19.5785123966942148" y2="6.66611570247933884" style="stroke:green;stroke-width:1" />
 <line x1="19.5785123966942148" y1="6.66611570247933884" x2="19.6380165289256198" y2="6.24958677685950413" style="stroke:green;stroke-width:1" />
 <line x1="19.6380165289256198" y1="6.24958677685950413" x2="19.6380165289256198" y2="5.83305785123966942" style="stroke:green;stroke-width:1" />
 <line x1="19.6380165289256198" y1="5.83305785123966942" x2="19.5190082644628099" y2="5.53553719008264462" style="stroke:green;stroke-width:1" />
 <line x1="19.5190082644628099" y1="5.53553719008264462" x2="19.2214876033057851" y2="5.29752066115702479" style="stroke:green;stroke-width:1" />
 <line x1="19.2214876033057851" y1="5.29752066115702479" x2="18.9239669421487603" y2="5.05950413223140495" style="stroke:green;stroke-width:1" />
 <line x1="18.9239669421487603" y1="5.05950413223140495" x2="18.4479338842975206" y2="5" style="stroke:green;stroke-width:1" />
 <line x1="18.4479338842975206" y1="5" x2="18.0909090909090909" y2="5" style="stroke:green;stroke-width:1" />
 <line x1="18.0909090909090909" y1="5" x2="17.6743801652892561" y2="5.05950413223140495" style="stroke:green;stroke-width:1" />
 <line x1="17.6743801652892561" y1="5.05950413223140495" x2="17.1983471074380165" y2="5.29752066115702479" style="stroke:green;stroke-width:1" />
 <line x1="17.1983471074380165" y1="5.29752066115702479" x2="16.9008264462809917" y2="5.47603305785123967" style="stroke:green;stroke-width:1" />
 <line x1="16.9008264462809917" y1="5.47603305785123967" x2="16.6628099173553718" y2="5.77355371900826446" style="stroke:green;stroke-width:1" />
 <line x1="16.6628099173553718" y1="5.77355371900826446" x2="16.484297520661157" y2="6.07107438016528925" style="stroke:green;stroke-width:1" />
 <line x1="16.484297520661157" y1="6.07107438016528925" x2="16.2462809917355371" y2="6.42809917355371901" style="stroke:green;stroke-width:1" />
 <line x1="16.2462809917355371" y1="6.42809917355371901" x2="16.6033057851239669" y2="6.54710743801652892" style="stroke:green;stroke-width:1" />
 <line x1="16.6033057851239669" y1="6.54710743801652892" x2="16.424793388429752" y2="7.26115702479338843" style="stroke:green;stroke-width:1" />
 <line x1="16.424793388429752" y1="7.26115702479338843" x2="16.9008264462809917" y2="7.49917355371900826" style="stroke:green;stroke-width:1" />
 <line x1="16.9008264462809917" y1="7.49917355371900826" x2="17.0793388429752066" y2="7.61818181818181818" style="stroke:green;stroke-width:1" />
 <line x1="17.0793388429752066" y1="7.61818181818181818" x2="17.2578512396694214" y2="7.91570247933884298" style="stroke:green;stroke-width:1" />
 <line x1="17.2578512396694214" y1="7.91570247933884298" x2="17.1983471074380165" y2="8.39173553719008265" style="stroke:green;stroke-width:1" />
 <line x1="17.1983471074380165" y1="8.39173553719008265" x2="17.0793388429752066" y2="8.62975206611570248" style="stroke:green;stroke-width:1" />
 <line x1="17.0793388429752066" y1="8.62975206611570248" x2="17.0198347107438016" y2="8.80826446280991736" style="stroke:green;stroke-width:1" />
 <line x1="17.0198347107438016" y1="8.80826446280991736" x2="16.3057851239669421" y2="9.04628099173553719" style="stroke:green;stroke-width:1" />
 <path d="M 17.1388429752066115 6.01157024793388429
          A .119008264462809917 .119008264462809917 0 1 0 17.3768595041322313 6.01157024793388429
          A .119008264462809917 .119008264462809917 0 1 0 17.1388429752066115 6.01157024793388429"
       stroke="green" fill="white" stroke-width="1" fill-opacity="0.0"/>
 <line x1="26.0644628099173553" y1="15.8892561983471073" x2="25.4099173553719008" y2="16.0082644628099172" style="stroke:green;stroke-width:1" />
 <line x1="25.4099173553719008" y1="16.0082644628099172" x2="24.6958677685950413" y2="15.9487603305785122" style="stroke:green;stroke-width:1" />
 <line x1="24.6958677685950413" y1="15.9487603305785122" x2="24.2198347107438016" y2="15.8892561983471073" style="stroke:green;stroke-width:1" />
 <line x1="24.2198347107438016" y1="15.8892561983471073" x2="23.624793388429752" y2="15.7702479338842974" style="stroke:green;stroke-width:1" />
 <line x1="23.624793388429752" y1="15.7702479338842974" x2="22.9107438016528925" y2="15.7107438016528924" style="stroke:green;stroke-width:1" />
 <line x1="22.9107438016528925" y1="15.7107438016528924" x2="22.5537190082644628" y2="15.7702479338842974" style="stroke:green;stroke-width:1" />
 <line x1="22.5537190082644628" y1="15.7702479338842974" x2="22.256198347107438" y2="15.8297520661157023" style="stroke:green;stroke-width:1" />
 <line x1="22.256198347107438" y1="15.8297520661157023" x2="22.0181818181818181" y2="16.0677685950413222" style="stroke:green;stroke-width:1" />
 <line x1="22.0181818181818181" y1="16.0677685950413222" x2="21.8991735537190082" y2="16.1867768595041321" style="stroke:green;stroke-width:1" />
 <line x1="21.8991735537190082" y1="16.1867768595041321" x2="21.8991735537190082" y2="16.365289256198347" style="stroke:green;stroke-width:1" />
 <line x1="21.8991735537190082" y1="16.365289256198347" x2="27.6115702479338843" y2="16.365289256198347" style="stroke:green;stroke-width:1" />
 <line x1="27.6115702479338843" y1="16.365289256198347" x2="28.0876033057851239" y2="16.305785123966942" style="stroke:green;stroke-width:1" />
 <line x1="28.0876033057851239" y1="16.305785123966942" x2="28.5041322314049586" y2="16.246280991735537" style="stroke:green;stroke-width:1" />
 <line x1="28.5041322314049586" y1="16.246280991735537" x2="28.9206611570247934" y2="16.0677685950413222" style="stroke:green;stroke-width:1" />
 <line x1="28.9206611570247934" y1="16.0677685950413222" x2="29.2776859504132231" y2="15.7702479338842974" style="stroke:green;stroke-width:1" />
 <line x1="29.2776859504132231" y1="15.7702479338842974" x2="29.456198347107438" y2="15.5917355371900825" style="stroke:green;stroke-width:1" />
 <line x1="29.456198347107438" y1="15.5917355371900825" x2="29.5157024793388429" y2="15.4132231404958676" style="stroke:green;stroke-width:1" />
 <line x1="29.5157024793388429" y1="15.4132231404958676" x2="29.6347107438016529" y2="15.1157024793388428" style="stroke:green;stroke-width:1" />
 <line x1="29.6347107438016529" y1="15.1157024793388428" x2="29.6942148760330578" y2="14.7586776859504131" style="stroke:green;stroke-width:1" />
 <line x1="29.6942148760330578" y1="14.7586776859504131" x2="29.6347107438016529" y2="14.3421487603305784" style="stroke:green;stroke-width:1" />
 <line x1="29.6347107438016529" y1="14.3421487603305784" x2="29.5157024793388429" y2="13.9256198347107436" style="stroke:green;stroke-width:1" />
 <line x1="29.5157024793388429" y1="13.9256198347107436" x2="29.396694214876033" y2="13.509090909090909" style="stroke:green;stroke-width:1" />
 <line x1="29.396694214876033" y1="13.509090909090909" x2="29.0991735537190082" y2="13.0925619834710743" style="stroke:green;stroke-width:1" />
 <line x1="29.0991735537190082" y1="13.0925619834710743" x2="28.8016528925619834" y2="12.6760330578512396" style="stroke:green;stroke-width:1" />
 <line x1="28.8016528925619834" y1="12.6760330578512396" x2="28.4446280991735537" y2="12.2595041322314049" style="stroke:green;stroke-width:1" />
 <line x1="28.4446280991735537" y1="12.2595041322314049" x2="28.028099173553719" y2="11.9024793388429752" style="stroke:green;stroke-width:1" />
 <line x1="28.028099173553719" y1="11.9024793388429752" x2="27.6710743801652892" y2="11.6049586776859504" style="stroke:green;stroke-width:1" />
 <line x1="27.6710743801652892" y1="11.6049586776859504" x2="27.4330578512396694" y2="11.4264462809917355" style="stroke:green;stroke-width:1" />
 <line x1="27.4330578512396694" y1="11.4264462809917355" x2="27.1355371900826446" y2="11.2479338842975206" style="stroke:green;stroke-width:1" />
 <line x1="27.1355371900826446" y1="11.2479338842975206" x2="26.7190082644628099" y2="11.0099173553719008" style="stroke:green;stroke-width:1" />
 <line x1="26.7190082644628099" y1="11.0099173553719008" x2="26.48099173553719" y2="10.712396694214876" style="stroke:green;stroke-width:1" />
 <line x1="26.48099173553719" y1="10.712396694214876" x2="26.1239669421487603" y2="10.2958677685950413" style="stroke:green;stroke-width:1" />
 <line x1="26.1239669421487603" y1="10.2958677685950413" x2="25.8264462809917355" y2="9.93884297520661158" style="stroke:green;stroke-width:1" />
 <line x1="25.8264462809917355" y1="9.93884297520661158" x2="25.5289256198347107" y2="9.58181818181818182" style="stroke:green;stroke-width:1" />
 <line x1="25.5289256198347107" y1="9.58181818181818182" x2="25.2314049586776859" y2="9.28429752066115703" style="stroke:green;stroke-width:1" />
 <line x1="25.2314049586776859" y1="9.28429752066115703" x2="24.9338842975206611" y2="9.10578512396694215" style="stroke:green;stroke-width:1" />
 <line x1="24.9338842975206611" y1="9.10578512396694215" x2="24.6958677685950413" y2="8.98677685950413223" style="stroke:green;stroke-width:1" />
 <line x1="24.6958677685950413" y1="8.98677685950413223" x2="24.3983471074380165" y2="9.04628099173553719" style="stroke:green;stroke-width:1" />
 <line x1="24.3983471074380165" y1="9.04628099173553719" x2="24.1008264462809917" y2="9.10578512396694215" style="stroke:green;stroke-width:1" />
 <line x1="24.1008264462809917" y1="9.10578512396694215" x2="23.8033057851239669" y2="9.28429752066115703" style="stroke:green;stroke-width:1" />
 <line x1="23.8033057851239669" y1="9.28429752066115703" x2="23.5057851239669421" y2="9.52231404958677686" style="stroke:green;stroke-width:1" />
 <line x1="23.5057851239669421" y1="9.52231404958677686" x2="23.3272727272727272" y2="9.7603305785123967" style="stroke:green;stroke-width:1" />
 <line x1="23.3272727272727272" y1="9.7603305785123967" x2="23.2082644628099173" y2="10.0578512396694214" style="stroke:green;stroke-width:1" />
 <line x1="23.2082644628099173" y1="10.0578512396694214" x2="23.0892561983471074" y2="10.3553719008264462" style="stroke:green;stroke-width:1" />
 <line x1="23.0892561983471074" y1="10.3553719008264462" x2="23.2082644628099173" y2="10.652892561983471" style="stroke:green;stroke-width:1" />
 <line x1="23.2082644628099173" y1="10.652892561983471" x2="23.3867768595041322" y2="11.1289256198347107" style="stroke:green;stroke-width:1" />
 <line x1="23.3867768595041322" y1="11.1289256198347107" x2="23.624793388429752" y2="11.7239669421487603" style="stroke:green;stroke-width:1" />
 <line x1="23.624793388429752" y1="11.7239669421487603" x2="23.9223140495867768" y2="12.2" style="stroke:green;stroke-width:1" />
 <line x1="23.9223140495867768" y1="12.2" x2="24.1603305785123967" y2="12.6165289256198347" style="stroke:green;stroke-width:1" />
 <line x1="24.1603305785123967" y1="12.6165289256198347" x2="24.3983471074380165" y2="13.1520661157024792" style="stroke:green;stroke-width:1" />
 <line x1="24.3983471074380165" y1="13.1520661157024792" x2="24.5768595041322314" y2="13.6280991735537188" style="stroke:green;stroke-width:1" />
 <line x1="24.5768595041322314" y1="13.6280991735537188" x2="24.8743801652892562" y2="14.1636363636363635" style="stroke:green;stroke-width:1" />
 <line x1="24.8743801652892562" y1="14.1636363636363635" x2="25.112396694214876" y2="14.6396694214876031" style="stroke:green;stroke-width:1" />
 <line x1="25.112396694214876" y1="14.6396694214876031" x2="25.4099173553719008" y2="15.1157024793388428" style="stroke:green;stroke-width:1" />
 <line x1="25.4099173553719008" y1="15.1157024793388428" x2="25.7074380165289256" y2="15.5322314049586775" style="stroke:green;stroke-width:1" />
 <line x1="25.7074380165289256" y1="15.5322314049586775" x2="26.0644628099173553" y2="15.8892561983471073" style="stroke:green;stroke-width:1" />
 <line x1="26.0644628099173553" y1="15.8892561983471073" x2="26.3619834710743801" y2="16.1272727272727271" style="stroke:green;stroke-width:1" />
 <line x1="26.3619834710743801" y1="16.1272727272727271" x2="26.6595041322314049" y2="16.246280991735537" style="stroke:green;stroke-width:1" />
 <line x1="26.6595041322314049" y1="16.246280991735537" x2="27.1355371900826446" y2="16.305785123966942" style="stroke:green;stroke-width:1" />
 <line x1="27.1355371900826446" y1="16.305785123966942" x2="27.6115702479338843" y2="16.365289256198347" style="stroke:green;stroke-width:1" />
 <line x1="29.5157024793388429" y1="15.4132231404958676" x2="29.8132231404958677" y2="15.6512396694214874" style="stroke:green;stroke-width:1" />
 <line x1="29.8132231404958677" y1="15.6512396694214874" x2="30.1702479338842975" y2="15.7702479338842974" style="stroke:green;stroke-width:1" />
 <line x1="30.1702479338842975" y1="15.7702479338842974" x2="30.4677685950413223" y2="15.8892561983471073" style="stroke:green;stroke-width:1" />
 <line x1="30.4677685950413223" y1="15.8892561983471073" x2="30.884297520661157" y2="15.7702479338842974" style="stroke:green;stroke-width:1" />
 <line x1="30.884297520661157" y1="15.7702479338842974" x2="31.2413223140495868" y2="15.6512396694214874" style="stroke:green;stroke-width:1" />
 <line x1="31.2413223140495868" y1="15.6512396694214874" x2="31.4793388429752066" y2="15.4132231404958676" style="stroke:green;stroke-width:1" />
 <line x1="31.4793388429752066" y1="15.4132231404958676" x2="31.5983471074380165" y2="15.1157024793388428" style="stroke:green;stroke-width:1" />
 <line x1="31.5983471074380165" y1="15.1157024793388428" x2="31.5983471074380165" y2="14.818181818181818" style="stroke:green;stroke-width:1" />
 <line x1="31.5983471074380165" y1="14.818181818181818" x2="31.5983471074380165" y2="14.4016528925619833" style="stroke:green;stroke-width:1" />
 <line x1="31.5983471074380165" y1="14.4016528925619833" x2="31.4793388429752066" y2="14.1041322314049585" style="stroke:green;stroke-width:1" />
 <line x1="31.4793388429752066" y1="14.1041322314049585" x2="31.3603305785123967" y2="13.6280991735537188" style="stroke:green;stroke-width:1" />
 <line x1="31.3603305785123967" y1="13.6280991735537188" x2="31.1818181818181818" y2="13.2710743801652891" style="stroke:green;stroke-width:1" />
 <line x1="31.1818181818181818" y1="13.2710743801652891" x2="30.943801652892562" y2="12.9140495867768595" style="stroke:green;stroke-width:1" />
 <line x1="30.943801652892562" y1="12.9140495867768595" x2="30.7057851239669421" y2="12.5570247933884297" style="stroke:green;stroke-width:1" />
 <line x1="30.7057851239669421" y1="12.5570247933884297" x2="30.4082644628099173" y2="12.140495867768595" style="stroke:green;stroke-width:1" />
 <line x1="30.4082644628099173" y1="12.140495867768595" x2="30.1702479338842975" y2="11.7239669421487603" style="stroke:green;stroke-width:1" />
 <line x1="30.1702479338842975" y1="11.7239669421487603" x2="29.9917355371900826" y2="11.3669421487603305" style="stroke:green;stroke-width:1" />
 <line x1="29.9917355371900826" y1="11.3669421487603305" x2="29.7537190082644628" y2="10.9504132231404958" style="stroke:green;stroke-width:1" />
 <line x1="29.7537190082644628" y1="10.9504132231404958" x2="29.5752066115702479" y2="10.4148760330578512" style="stroke:green;stroke-width:1" />
 <line x1="29.5752066115702479" y1="10.4148760330578512" x2="29.456198347107438" y2="9.87933884297520662" style="stroke:green;stroke-width:1" />
 <line x1="29.456198347107438" y1="9.87933884297520662" x2="29.456198347107438" y2="9.46280991735537191" style="stroke:green;stroke-width:1" />
 <line x1="29.456198347107438" y1="9.46280991735537191" x2="29.5157024793388429" y2="9.16528925619834711" style="stroke:green;stroke-width:1" />
 <line x1="29.5157024793388429" y1="9.16528925619834711" x2="29.5752066115702479" y2="8.80826446280991736" style="stroke:green;stroke-width:1" />

</svg>
