<!DOCTYPE svg PUBLIC "-//W3C//DTD SVG 1.1//EN" "http://www.w3.org/Graphics/SVG/1.1/DTD/svg11.dtd">
<svg width="31" height="47" xmlns="http://www.w3.org/2000/svg">
 <!-- Gardiner/Zz376515 at (0,.8679245283018868) in red, scale=.0452830188679245284, mirror=0 -->
 <line x1="5" y1="36.1094339622641509" x2="25.3773584905660376" y2="36.1094339622641509" style="stroke:red;stroke-width:1" />
 <line x1="25.3773584905660376" y1="38.5999999999999999" x2="5" y2="38.5999999999999999" style="stroke:red;stroke-width:1" />
 <line x1="5" y1="41.090566037735849" x2="25.3773584905660376" y2="41.090566037735849" style="stroke:red;stroke-width:1" />
 <line x1="7.49056603773584906" y1="36.1094339622641509" x2="7.49056603773584906" y2="41.090566037735849" style="stroke:red;stroke-width:1" />
 <line x1="11.3396226415094339" y1="36.1094339622641509" x2="11.3396226415094339" y2="41.090566037735849" style="stroke:red;stroke-width:1" />
 <line x1="15.1886792452830188" y1="36.1094339622641509" x2="15.1886792452830188" y2="41.090566037735849" style="stroke:red;stroke-width:1" />
 <line x1="19.0377358490566037" y1="36.1094339622641509" x2="19.0377358490566037" y2="41.090566037735849" style="stroke:red;stroke-width:1" />
 <line x1="22.8867924528301886" y1="36.1094339622641509" x2="22.8867924528301886" y2="41.090566037735849" style="stroke:red;stroke-width:1" />
 <line x1="25.2867924528301886" y1="25.7396226415094339" x2="5" y2="25.7396226415094339" style="stroke:red;stroke-width:1" />
 <line x1="8.07924528301886793" y1="25.7396226415094339" x2="7.7169811320754717" y2="24.6528301886792452" style="stroke:red;stroke-width:1" />
 <line x1="7.7169811320754717" y1="24.6528301886792452" x2="7.12830188679245283" y2="23.7471698113207546" style="stroke:red;stroke-width:1" />
 <line x1="7.12830188679245283" y1="23.7471698113207546" x2="6.22264150943396226" y2="23.0679245283018867" style="stroke:red;stroke-width:1" />
 <line x1="6.22264150943396226" y1="23.0679245283018867" x2="5.49811320754716981" y2="23.0679245283018867" style="stroke:red;stroke-width:1" />
 <line x1="5.49811320754716981" y1="23.0679245283018867" x2="5.09056603773584905" y2="23.4754716981132074" style="stroke:red;stroke-width:1" />
 <line x1="5.09056603773584905" y1="23.4754716981132074" x2="5" y2="24.0188679245283018" style="stroke:red;stroke-width:1" />
 <line x1="5" y1="24.0188679245283018" x2="5.18113207547169811" y2="24.9245283018867924" style="stroke:red;stroke-width:1" />
 <line x1="5.18113207547169811" y1="24.9245283018867924" x2="5.45283018867924528" y2="25.7396226415094339" style="stroke:red;stroke-width:1" />
 <line x1="5.45283018867924528" y1="25.7396226415094339" x2="6.26792452830188679" y2="28.4566037735849056" style="stroke:red;stroke-width:1" />
 <line x1="6.26792452830188679" y1="28.4566037735849056" x2="7.7169811320754717" y2="28.4566037735849056" style="stroke:red;stroke-width:1" />
 <line x1="7.7169811320754717" y1="28.4566037735849056" x2="8.07924528301886793" y2="25.7396226415094339" style="stroke:red;stroke-width:1" />
 <line x1="15.1886792452830188" y1="25.7396226415094339" x2="15.1886792452830188" y2="36.1094339622641509" style="stroke:red;stroke-width:1" />
 <line x1="11.8830188679245283" y1="25.7396226415094339" x2="15.1886792452830188" y2="30.0415094339622641" style="stroke:red;stroke-width:1" />
 <line x1="15.1886792452830188" y1="25.7396226415094339" x2="16.2301886792452829" y2="27.0981132075471697" style="stroke:red;stroke-width:1" />
 <line x1="16.2301886792452829" y1="27.0981132075471697" x2="16.9094339622641508" y2="28.5471698113207546" style="stroke:red;stroke-width:1" />
 <line x1="16.9094339622641508" y1="28.5471698113207546" x2="17.4528301886792452" y2="29.9056603773584905" style="stroke:red;stroke-width:1" />
 <line x1="17.4528301886792452" y1="29.9056603773584905" x2="17.6339622641509433" y2="30.7660377358490565" style="stroke:red;stroke-width:1" />
 <line x1="17.6339622641509433" y1="30.7660377358490565" x2="17.4528301886792452" y2="31.3094339622641509" style="stroke:red;stroke-width:1" />
 <line x1="17.4528301886792452" y1="31.3094339622641509" x2="17.1358490566037735" y2="31.6264150943396226" style="stroke:red;stroke-width:1" />
 <line x1="17.1358490566037735" y1="31.6264150943396226" x2="16.6830188679245282" y2="31.6716981132075471" style="stroke:red;stroke-width:1" />
 <line x1="16.6830188679245282" y1="31.6716981132075471" x2="16.2754716981132074" y2="31.3999999999999999" style="stroke:red;stroke-width:1" />
 <line x1="16.2754716981132074" y1="31.3999999999999999" x2="16.5471698113207546" y2="32.350943396226415" style="stroke:red;stroke-width:1" />
 <line x1="16.5471698113207546" y1="32.350943396226415" x2="16.6377358490566037" y2="32.9396226415094339" style="stroke:red;stroke-width:1" />
 <line x1="16.6377358490566037" y1="32.9396226415094339" x2="16.5924528301886791" y2="33.4377358490566037" style="stroke:red;stroke-width:1" />
 <line x1="16.5924528301886791" y1="33.4377358490566037" x2="16.1396226415094338" y2="33.6188679245283018" style="stroke:red;stroke-width:1" />
 <line x1="16.1396226415094338" y1="33.6188679245283018" x2="15.6867924528301886" y2="33.3924528301886792" style="stroke:red;stroke-width:1" />
 <line x1="15.6867924528301886" y1="33.3924528301886792" x2="15.1886792452830188" y2="33.0301886792452829" style="stroke:red;stroke-width:1" />
 <path d="M 11.8830188679245282 22.3433962264150942
          A 3.3509433962264151 3.3509433962264151 0 1 0 18.5849056603773584 22.3433962264150942
          A 3.3509433962264151 3.3509433962264151 0 1 0 11.8830188679245282 22.3433962264150942"
       stroke="red" fill="white" stroke-width="1" fill-opacity="0.0"/>
 <line x1="14.4641509433962263" y1="20.441509433962264" x2="14.4641509433962263" y2="24.2452830188679244" style="stroke:red;stroke-width:1" />
 <line x1="16.0490566037735848" y1="24.2452830188679244" x2="16.0490566037735848" y2="20.441509433962264" style="stroke:red;stroke-width:1" />
 <line x1="16.4566037735849055" y1="19.2641509433962263" x2="16.7735849056603772" y2="7.35471698113207547" style="stroke:red;stroke-width:1" />
 <line x1="16.7735849056603772" y1="7.35471698113207547" x2="16.7735849056603772" y2="7.03773584905660377" style="stroke:red;stroke-width:1" />
 <line x1="16.7735849056603772" y1="7.03773584905660377" x2="16.8641509433962263" y2="6.67547169811320755" style="stroke:red;stroke-width:1" />
 <line x1="16.8641509433962263" y1="6.67547169811320755" x2="16.9999999999999999" y2="6.35849056603773585" style="stroke:red;stroke-width:1" />
 <line x1="16.9999999999999999" y1="6.35849056603773585" x2="17.1358490566037735" y2="6.13207547169811321" style="stroke:red;stroke-width:1" />
 <line x1="17.1358490566037735" y1="6.13207547169811321" x2="17.3169811320754716" y2="5.90566037735849056" style="stroke:red;stroke-width:1" />
 <line x1="17.3169811320754716" y1="5.90566037735849056" x2="17.4981132075471697" y2="5.63396226415094339" style="stroke:red;stroke-width:1" />
 <line x1="17.4981132075471697" y1="5.63396226415094339" x2="17.7698113207547169" y2="5.40754716981132075" style="stroke:red;stroke-width:1" />
 <line x1="17.7698113207547169" y1="5.40754716981132075" x2="18.041509433962264" y2="5.27169811320754717" style="stroke:red;stroke-width:1" />
 <line x1="18.041509433962264" y1="5.27169811320754717" x2="18.2226415094339622" y2="5.13584905660377358" style="stroke:red;stroke-width:1" />
 <line x1="18.2226415094339622" y1="5.13584905660377358" x2="18.4490566037735848" y2="5.04528301886792452" style="stroke:red;stroke-width:1" />
 <line x1="18.4490566037735848" y1="5.04528301886792452" x2="18.720754716981132" y2="5" style="stroke:red;stroke-width:1" />
 <line x1="18.720754716981132" y1="5" x2="18.9924528301886791" y2="5" style="stroke:red;stroke-width:1" />
 <line x1="18.9924528301886791" y1="5" x2="19.2641509433962263" y2="5.04528301886792452" style="stroke:red;stroke-width:1" />
 <line x1="19.2641509433962263" y1="5.04528301886792452" x2="19.4905660377358489" y2="5.18113207547169811" style="stroke:red;stroke-width:1" />
 <line x1="19.4905660377358489" y1="5.18113207547169811" x2="19.6716981132075471" y2="5.31698113207547169" style="stroke:red;stroke-width:1" />
 <line x1="19.6716981132075471" y1="5.31698113207547169" x2="19.8981132075471697" y2="5.54339622641509434" style="stroke:red;stroke-width:1" />
 <line x1="19.8981132075471697" y1="5.54339622641509434" x2="20.0792452830188678" y2="5.81509433962264151" style="stroke:red;stroke-width:1" />
 <line x1="20.0792452830188678" y1="5.81509433962264151" x2="20.1245283018867923" y2="6.08679245283018868" style="stroke:red;stroke-width:1" />
 <line x1="20.1245283018867923" y1="6.08679245283018868" x2="20.1698113207547169" y2="6.35849056603773585" style="stroke:red;stroke-width:1" />
 <line x1="20.1698113207547169" y1="6.35849056603773585" x2="20.1245283018867923" y2="6.63018867924528302" style="stroke:red;stroke-width:1" />
 <line x1="20.1245283018867923" y1="6.63018867924528302" x2="20.0339622641509433" y2="6.85660377358490566" style="stroke:red;stroke-width:1" />
 <line x1="20.0339622641509433" y1="6.85660377358490566" x2="19.9433962264150942" y2="7.0830188679245283" style="stroke:red;stroke-width:1" />
 <line x1="19.9433962264150942" y1="7.0830188679245283" x2="19.7622641509433961" y2="7.26415094339622642" style="stroke:red;stroke-width:1" />
 <line x1="19.7622641509433961" y1="7.26415094339622642" x2="19.5358490566037735" y2="7.4" style="stroke:red;stroke-width:1" />
 <line x1="19.5358490566037735" y1="7.4" x2="19.3547169811320754" y2="7.53584905660377359" style="stroke:red;stroke-width:1" />
 <line x1="19.3547169811320754" y1="7.53584905660377359" x2="18.9471698113207546" y2="7.67169811320754717" style="stroke:red;stroke-width:1" />
 <line x1="18.9471698113207546" y1="7.67169811320754717" x2="19.8075471698113206" y2="14.5999999999999999" style="stroke:red;stroke-width:1" />
 <line x1="19.8075471698113206" y1="14.5999999999999999" x2="19.3999999999999999" y2="14.5999999999999999" style="stroke:red;stroke-width:1" />
 <line x1="19.3999999999999999" y1="14.5999999999999999" x2="18.9924528301886791" y2="14.6452830188679244" style="stroke:red;stroke-width:1" />
 <line x1="18.9924528301886791" y1="14.6452830188679244" x2="18.6754716981132074" y2="14.7358490566037735" style="stroke:red;stroke-width:1" />
 <line x1="18.6754716981132074" y1="14.7358490566037735" x2="18.3584905660377357" y2="14.8264150943396225" style="stroke:red;stroke-width:1" />
 <line x1="18.3584905660377357" y1="14.8264150943396225" x2="18.0867924528301886" y2="15.0075471698113206" style="stroke:red;stroke-width:1" />
 <line x1="18.0867924528301886" y1="15.0075471698113206" x2="17.7698113207547169" y2="15.1886792452830188" style="stroke:red;stroke-width:1" />
 <line x1="17.7698113207547169" y1="15.1886792452830188" x2="17.4528301886792452" y2="15.3698113207547169" style="stroke:red;stroke-width:1" />
 <line x1="17.4528301886792452" y1="15.3698113207547169" x2="17.2264150943396225" y2="15.550943396226415" style="stroke:red;stroke-width:1" />
 <line x1="17.2264150943396225" y1="15.550943396226415" x2="17.0905660377358489" y2="15.6867924528301886" style="stroke:red;stroke-width:1" />
 <line x1="17.0905660377358489" y1="15.6867924528301886" x2="16.9999999999999999" y2="15.9132075471698112" style="stroke:red;stroke-width:1" />
 <line x1="16.9999999999999999" y1="15.9132075471698112" x2="17.0905660377358489" y2="19.2641509433962263" style="stroke:red;stroke-width:1" />
 <line x1="17.0905660377358489" y1="19.2641509433962263" x2="16.4566037735849055" y2="19.2641509433962263" style="stroke:red;stroke-width:1" />
 <line x1="13.920754716981132" y1="19.2641509433962263" x2="13.5584905660377358" y2="7.35471698113207547" style="stroke:red;stroke-width:1" />
 <line x1="13.5584905660377358" y1="7.35471698113207547" x2="13.5584905660377358" y2="7.03773584905660377" style="stroke:red;stroke-width:1" />
 <line x1="13.5584905660377358" y1="7.03773584905660377" x2="13.4679245283018868" y2="6.67547169811320755" style="stroke:red;stroke-width:1" />
 <line x1="13.4679245283018868" y1="6.67547169811320755" x2="13.3320754716981132" y2="6.35849056603773585" style="stroke:red;stroke-width:1" />
 <line x1="13.3320754716981132" y1="6.35849056603773585" x2="13.1962264150943396" y2="6.13207547169811321" style="stroke:red;stroke-width:1" />
 <line x1="13.1962264150943396" y1="6.13207547169811321" x2="13.0150943396226415" y2="5.90566037735849056" style="stroke:red;stroke-width:1" />
 <line x1="13.0150943396226415" y1="5.90566037735849056" x2="12.8339622641509434" y2="5.63396226415094339" style="stroke:red;stroke-width:1" />
 <line x1="12.8339622641509434" y1="5.63396226415094339" x2="12.5622641509433962" y2="5.40754716981132075" style="stroke:red;stroke-width:1" />
 <line x1="12.5622641509433962" y1="5.40754716981132075" x2="12.3358490566037736" y2="5.27169811320754717" style="stroke:red;stroke-width:1" />
 <line x1="12.3358490566037736" y1="5.27169811320754717" x2="12.1094339622641509" y2="5.13584905660377358" style="stroke:red;stroke-width:1" />
 <line x1="12.1094339622641509" y1="5.13584905660377358" x2="11.8830188679245283" y2="5.04528301886792452" style="stroke:red;stroke-width:1" />
 <line x1="11.8830188679245283" y1="5.04528301886792452" x2="11.6113207547169811" y2="5" style="stroke:red;stroke-width:1" />
 <line x1="11.6113207547169811" y1="5" x2="11.3849056603773585" y2="5" style="stroke:red;stroke-width:1" />
 <line x1="11.3849056603773585" y1="5" x2="11.0679245283018868" y2="5.04528301886792452" style="stroke:red;stroke-width:1" />
 <line x1="11.0679245283018868" y1="5.04528301886792452" x2="10.8415094339622641" y2="5.18113207547169811" style="stroke:red;stroke-width:1" />
 <line x1="10.8415094339622641" y1="5.18113207547169811" x2="10.660377358490566" y2="5.31698113207547169" style="stroke:red;stroke-width:1" />
 <line x1="10.660377358490566" y1="5.31698113207547169" x2="10.4339622641509434" y2="5.54339622641509434" style="stroke:red;stroke-width:1" />
 <line x1="10.4339622641509434" y1="5.54339622641509434" x2="10.2528301886792452" y2="5.81509433962264151" style="stroke:red;stroke-width:1" />
 <line x1="10.2528301886792452" y1="5.81509433962264151" x2="10.2075471698113207" y2="6.08679245283018868" style="stroke:red;stroke-width:1" />
 <line x1="10.2075471698113207" y1="6.08679245283018868" x2="10.1622641509433962" y2="6.35849056603773585" style="stroke:red;stroke-width:1" />
 <line x1="10.1622641509433962" y1="6.35849056603773585" x2="10.2075471698113207" y2="6.63018867924528302" style="stroke:red;stroke-width:1" />
 <line x1="10.2075471698113207" y1="6.63018867924528302" x2="10.2981132075471698" y2="6.85660377358490566" style="stroke:red;stroke-width:1" />
 <line x1="10.2981132075471698" y1="6.85660377358490566" x2="10.4339622641509434" y2="7.0830188679245283" style="stroke:red;stroke-width:1" />
 <line x1="10.4339622641509434" y1="7.0830188679245283" x2="10.5698113207547169" y2="7.26415094339622642" style="stroke:red;stroke-width:1" />
 <line x1="10.5698113207547169" y1="7.26415094339622642" x2="10.7962264150943396" y2="7.4" style="stroke:red;stroke-width:1" />
 <line x1="10.7962264150943396" y1="7.4" x2="10.9773584905660377" y2="7.53584905660377359" style="stroke:red;stroke-width:1" />
 <line x1="10.9773584905660377" y1="7.53584905660377359" x2="11.3849056603773585" y2="7.67169811320754717" style="stroke:red;stroke-width:1" />
 <line x1="11.3849056603773585" y1="7.67169811320754717" x2="10.5245283018867924" y2="14.5999999999999999" style="stroke:red;stroke-width:1" />
 <line x1="10.5245283018867924" y1="14.5999999999999999" x2="10.9320754716981132" y2="14.5999999999999999" style="stroke:red;stroke-width:1" />
 <line x1="10.9320754716981132" y1="14.5999999999999999" x2="11.3849056603773585" y2="14.6452830188679244" style="stroke:red;stroke-width:1" />
 <line x1="11.3849056603773585" y1="14.6452830188679244" x2="11.6566037735849056" y2="14.7358490566037735" style="stroke:red;stroke-width:1" />
 <line x1="11.6566037735849056" y1="14.7358490566037735" x2="11.9735849056603773" y2="14.8264150943396225" style="stroke:red;stroke-width:1" />
 <line x1="11.9735849056603773" y1="14.8264150943396225" x2="12.2452830188679245" y2="15.0075471698113206" style="stroke:red;stroke-width:1" />
 <line x1="12.2452830188679245" y1="15.0075471698113206" x2="12.5622641509433962" y2="15.1886792452830188" style="stroke:red;stroke-width:1" />
 <line x1="12.5622641509433962" y1="15.1886792452830188" x2="12.8792452830188679" y2="15.3698113207547169" style="stroke:red;stroke-width:1" />
 <line x1="12.8792452830188679" y1="15.3698113207547169" x2="13.1056603773584905" y2="15.550943396226415" style="stroke:red;stroke-width:1" />
 <line x1="13.1056603773584905" y1="15.550943396226415" x2="13.2415094339622641" y2="15.6867924528301886" style="stroke:red;stroke-width:1" />
 <line x1="13.2415094339622641" y1="15.6867924528301886" x2="13.3320754716981132" y2="15.9132075471698112" style="stroke:red;stroke-width:1" />
 <line x1="13.3320754716981132" y1="15.9132075471698112" x2="13.2867924528301886" y2="19.2641509433962263" style="stroke:red;stroke-width:1" />
 <line x1="13.2867924528301886" y1="19.2641509433962263" x2="13.920754716981132" y2="19.2641509433962263" style="stroke:red;stroke-width:1" />

</svg>
