<!DOCTYPE svg PUBLIC "-//W3C//DTD SVG 1.1//EN" "http://www.w3.org/Graphics/SVG/1.1/DTD/svg11.dtd">
<svg width="39" height="47" xmlns="http://www.w3.org/2000/svg">
 <!-- Gardiner/Zz376515 at (0,.40707964601769912) in green, scale=.0637168141592920356, mirror=0 -->
 <line x1="5" y1="33.991150442477876" x2="33.672566371681416" y2="33.991150442477876" style="stroke:green;stroke-width:1" />
 <line x1="33.672566371681416" y1="37.495575221238938" x2="5" y2="37.495575221238938" style="stroke:green;stroke-width:1" />
 <line x1="5" y1="41" x2="33.672566371681416" y2="41" style="stroke:green;stroke-width:1" />
 <line x1="8.50442477876106195" y1="33.991150442477876" x2="8.50442477876106195" y2="41" style="stroke:green;stroke-width:1" />
 <line x1="13.9203539823008849" y1="33.991150442477876" x2="13.9203539823008849" y2="41" style="stroke:green;stroke-width:1" />
 <line x1="19.336283185840708" y1="33.991150442477876" x2="19.336283185840708" y2="41" style="stroke:green;stroke-width:1" />
 <line x1="24.752212389380531" y1="33.991150442477876" x2="24.752212389380531" y2="41" style="stroke:green;stroke-width:1" />
 <line x1="30.168141592920354" y1="33.991150442477876" x2="30.168141592920354" y2="41" style="stroke:green;stroke-width:1" />
 <line x1="33.5451327433628319" y1="19.3999999999999999" x2="5" y2="19.3999999999999999" style="stroke:green;stroke-width:1" />
 <line x1="9.33274336283185842" y1="19.3999999999999999" x2="8.82300884955752213" y2="17.870796460176991" style="stroke:green;stroke-width:1" />
 <line x1="8.82300884955752213" y1="17.870796460176991" x2="7.99469026548672567" y2="16.5964601769911503" style="stroke:green;stroke-width:1" />
 <line x1="7.99469026548672567" y1="16.5964601769911503" x2="6.72035398230088496" y2="15.6407079646017698" style="stroke:green;stroke-width:1" />
 <line x1="6.72035398230088496" y1="15.6407079646017698" x2="5.70088495575221239" y2="15.6407079646017698" style="stroke:green;stroke-width:1" />
 <line x1="5.70088495575221239" y1="15.6407079646017698" x2="5.12743362831858407" y2="16.2141592920353981" style="stroke:green;stroke-width:1" />
 <line x1="5.12743362831858407" y1="16.2141592920353981" x2="5" y2="16.9787610619469025" style="stroke:green;stroke-width:1" />
 <line x1="5" y1="16.9787610619469025" x2="5.25486725663716814" y2="18.2530973451327432" style="stroke:green;stroke-width:1" />
 <line x1="5.25486725663716814" y1="18.2530973451327432" x2="5.63716814159292035" y2="19.3999999999999999" style="stroke:green;stroke-width:1" />
 <line x1="5.63716814159292035" y1="19.3999999999999999" x2="6.78407079646017699" y2="23.223008849557522" style="stroke:green;stroke-width:1" />
 <line x1="6.78407079646017699" y1="23.223008849557522" x2="8.82300884955752213" y2="23.223008849557522" style="stroke:green;stroke-width:1" />
 <line x1="8.82300884955752213" y1="23.223008849557522" x2="9.33274336283185842" y2="19.3999999999999999" style="stroke:green;stroke-width:1" />
 <line x1="19.336283185840708" y1="19.3999999999999999" x2="19.336283185840708" y2="33.991150442477876" style="stroke:green;stroke-width:1" />
 <line x1="14.6849557522123894" y1="19.3999999999999999" x2="19.336283185840708" y2="25.4530973451327433" style="stroke:green;stroke-width:1" />
 <line x1="19.336283185840708" y1="19.3999999999999999" x2="20.8017699115044248" y2="21.311504424778761" style="stroke:green;stroke-width:1" />
 <line x1="20.8017699115044248" y1="21.311504424778761" x2="21.7575221238938053" y2="23.3504424778761061" style="stroke:green;stroke-width:1" />
 <line x1="21.7575221238938053" y1="23.3504424778761061" x2="22.5221238938053097" y2="25.2619469026548672" style="stroke:green;stroke-width:1" />
 <line x1="22.5221238938053097" y1="25.2619469026548672" x2="22.7769911504424779" y2="26.4725663716814158" style="stroke:green;stroke-width:1" />
 <line x1="22.7769911504424779" y1="26.4725663716814158" x2="22.5221238938053097" y2="27.2371681415929203" style="stroke:green;stroke-width:1" />
 <line x1="22.5221238938053097" y1="27.2371681415929203" x2="22.0761061946902655" y2="27.6831858407079645" style="stroke:green;stroke-width:1" />
 <line x1="22.0761061946902655" y1="27.6831858407079645" x2="21.4389380530973451" y2="27.7469026548672565" style="stroke:green;stroke-width:1" />
 <line x1="21.4389380530973451" y1="27.7469026548672565" x2="20.8654867256637168" y2="27.3646017699115043" style="stroke:green;stroke-width:1" />
 <line x1="20.8654867256637168" y1="27.3646017699115043" x2="21.247787610619469" y2="28.7026548672566371" style="stroke:green;stroke-width:1" />
 <line x1="21.247787610619469" y1="28.7026548672566371" x2="21.3752212389380531" y2="29.5309734513274335" style="stroke:green;stroke-width:1" />
 <line x1="21.3752212389380531" y1="29.5309734513274335" x2="21.3115044247787611" y2="30.2318584070796459" style="stroke:green;stroke-width:1" />
 <line x1="21.3115044247787611" y1="30.2318584070796459" x2="20.6743362831858407" y2="30.4867256637168141" style="stroke:green;stroke-width:1" />
 <line x1="20.6743362831858407" y1="30.4867256637168141" x2="20.0371681415929203" y2="30.1681415929203539" style="stroke:green;stroke-width:1" />
 <line x1="20.0371681415929203" y1="30.1681415929203539" x2="19.336283185840708" y2="29.6584070796460176" style="stroke:green;stroke-width:1" />
 <line x1="13.2194690265486725" y1="5" x2="12.9008849557522124" y2="5.06371681415929203" style="stroke:green;stroke-width:1" />
 <line x1="12.9008849557522124" y1="5.06371681415929203" x2="12.7097345132743363" y2="5.25486725663716814" style="stroke:green;stroke-width:1" />
 <line x1="12.7097345132743363" y1="5.25486725663716814" x2="12.5185840707964602" y2="5.44601769911504424" style="stroke:green;stroke-width:1" />
 <line x1="12.5185840707964602" y1="5.44601769911504424" x2="12.263716814159292" y2="5.89203539823008849" style="stroke:green;stroke-width:1" />
 <line x1="12.263716814159292" y1="5.89203539823008849" x2="12.0088495575221239" y2="6.46548672566371681" style="stroke:green;stroke-width:1" />
 <line x1="12.0088495575221239" y1="6.46548672566371681" x2="11.7539823008849557" y2="7.23008849557522124" style="stroke:green;stroke-width:1" />
 <line x1="11.7539823008849557" y1="7.23008849557522124" x2="11.4991150442477876" y2="8.37699115044247788" style="stroke:green;stroke-width:1" />
 <line x1="11.4991150442477876" y1="8.37699115044247788" x2="11.1805309734513274" y2="9.46017699115044249" style="stroke:green;stroke-width:1" />
 <line x1="11.1805309734513274" y1="9.46017699115044249" x2="11.0530973451327433" y2="10.6707964601769911" style="stroke:green;stroke-width:1" />
 <line x1="11.0530973451327433" y1="10.6707964601769911" x2="10.8619469026548672" y2="12.0088495575221239" style="stroke:green;stroke-width:1" />
 <line x1="10.8619469026548672" y1="12.0088495575221239" x2="10.7345132743362832" y2="13.5380530973451326" style="stroke:green;stroke-width:1" />
 <line x1="10.7345132743362832" y1="13.5380530973451326" x2="10.6070796460176991" y2="15.0672566371681415" style="stroke:green;stroke-width:1" />
 <line x1="10.6070796460176991" y1="15.0672566371681415" x2="11.0530973451327433" y2="15.2584070796460176" style="stroke:green;stroke-width:1" />
 <line x1="11.0530973451327433" y1="15.2584070796460176" x2="11.4991150442477876" y2="15.5132743362831857" style="stroke:green;stroke-width:1" />
 <line x1="11.4991150442477876" y1="15.5132743362831857" x2="11.8814159292035398" y2="15.8318584070796459" style="stroke:green;stroke-width:1" />
 <line x1="11.8814159292035398" y1="15.8318584070796459" x2="12.0725663716814159" y2="16.023008849557522" style="stroke:green;stroke-width:1" />
 <line x1="12.0725663716814159" y1="16.023008849557522" x2="12.263716814159292" y2="16.2141592920353981" style="stroke:green;stroke-width:1" />
 <line x1="12.263716814159292" y1="16.2141592920353981" x2="12.3911504424778761" y2="16.5327433628318583" style="stroke:green;stroke-width:1" />
 <line x1="12.3911504424778761" y1="16.5327433628318583" x2="12.5185840707964602" y2="16.8513274336283185" style="stroke:green;stroke-width:1" />
 <line x1="12.5185840707964602" y1="16.8513274336283185" x2="12.6460176991150442" y2="17.3610619469026547" style="stroke:green;stroke-width:1" />
 <line x1="12.6460176991150442" y1="17.3610619469026547" x2="12.6460176991150442" y2="17.807079646017699" style="stroke:green;stroke-width:1" />
 <line x1="12.6460176991150442" y1="17.807079646017699" x2="12.7097345132743363" y2="18.3168141592920353" style="stroke:green;stroke-width:1" />
 <line x1="12.7097345132743363" y1="18.3168141592920353" x2="12.7097345132743363" y2="19.3362831858407079" style="stroke:green;stroke-width:1" />
 <line x1="12.7097345132743363" y1="19.3362831858407079" x2="13.6654867256637168" y2="19.3362831858407079" style="stroke:green;stroke-width:1" />
 <line x1="13.6654867256637168" y1="19.3362831858407079" x2="13.6654867256637168" y2="18.3168141592920353" style="stroke:green;stroke-width:1" />
 <line x1="13.6654867256637168" y1="18.3168141592920353" x2="13.7292035398230088" y2="17.807079646017699" style="stroke:green;stroke-width:1" />
 <line x1="13.7292035398230088" y1="17.807079646017699" x2="13.7292035398230088" y2="17.3610619469026547" style="stroke:green;stroke-width:1" />
 <line x1="13.7292035398230088" y1="17.3610619469026547" x2="13.8566371681415929" y2="16.8513274336283185" style="stroke:green;stroke-width:1" />
 <line x1="13.8566371681415929" y1="16.8513274336283185" x2="13.984070796460177" y2="16.5327433628318583" style="stroke:green;stroke-width:1" />
 <line x1="13.984070796460177" y1="16.5327433628318583" x2="14.111504424778761" y2="16.2141592920353981" style="stroke:green;stroke-width:1" />
 <line x1="14.111504424778761" y1="16.2141592920353981" x2="14.3026548672566371" y2="16.023008849557522" style="stroke:green;stroke-width:1" />
 <line x1="14.3026548672566371" y1="16.023008849557522" x2="14.4938053097345132" y2="15.8318584070796459" style="stroke:green;stroke-width:1" />
 <line x1="14.4938053097345132" y1="15.8318584070796459" x2="14.8761061946902655" y2="15.5132743362831857" style="stroke:green;stroke-width:1" />
 <line x1="14.8761061946902655" y1="15.5132743362831857" x2="15.3221238938053097" y2="15.2584070796460176" style="stroke:green;stroke-width:1" />
 <line x1="15.3221238938053097" y1="15.2584070796460176" x2="15.768141592920354" y2="15.0672566371681415" style="stroke:green;stroke-width:1" />
 <line x1="15.768141592920354" y1="15.0672566371681415" x2="15.6407079646017699" y2="13.5380530973451326" style="stroke:green;stroke-width:1" />
 <line x1="15.6407079646017699" y1="13.5380530973451326" x2="15.5132743362831858" y2="12.0088495575221239" style="stroke:green;stroke-width:1" />
 <line x1="15.5132743362831858" y1="12.0088495575221239" x2="15.3221238938053097" y2="10.6707964601769911" style="stroke:green;stroke-width:1" />
 <line x1="15.3221238938053097" y1="10.6707964601769911" x2="15.1946902654867256" y2="9.46017699115044249" style="stroke:green;stroke-width:1" />
 <line x1="15.1946902654867256" y1="9.46017699115044249" x2="14.9398230088495575" y2="8.37699115044247788" style="stroke:green;stroke-width:1" />
 <line x1="14.9398230088495575" y1="8.37699115044247788" x2="14.6212389380530973" y2="7.23008849557522124" style="stroke:green;stroke-width:1" />
 <line x1="14.6212389380530973" y1="7.23008849557522124" x2="14.3663716814159292" y2="6.46548672566371681" style="stroke:green;stroke-width:1" />
 <line x1="14.3663716814159292" y1="6.46548672566371681" x2="14.111504424778761" y2="5.89203539823008849" style="stroke:green;stroke-width:1" />
 <line x1="14.111504424778761" y1="5.89203539823008849" x2="13.8566371681415929" y2="5.44601769911504424" style="stroke:green;stroke-width:1" />
 <line x1="13.8566371681415929" y1="5.44601769911504424" x2="13.6654867256637168" y2="5.25486725663716814" style="stroke:green;stroke-width:1" />
 <line x1="13.6654867256637168" y1="5.25486725663716814" x2="13.4743362831858407" y2="5.06371681415929203" style="stroke:green;stroke-width:1" />
 <line x1="13.4743362831858407" y1="5.06371681415929203" x2="13.2194690265486725" y2="5" style="stroke:green;stroke-width:1" />
 <line x1="6.59292035398230089" y1="12.2" x2="6.46548672566371681" y2="11.8176991150442478" style="stroke:green;stroke-width:1" />
 <line x1="6.46548672566371681" y1="11.8176991150442478" x2="6.21061946902654867" y2="11.4353982300884955" style="stroke:green;stroke-width:1" />
 <line x1="6.21061946902654867" y1="11.4353982300884955" x2="5.95575221238938053" y2="11.1805309734513274" style="stroke:green;stroke-width:1" />
 <line x1="5.95575221238938053" y1="11.1805309734513274" x2="5.70088495575221239" y2="10.9893805309734513" style="stroke:green;stroke-width:1" />
 <line x1="5.70088495575221239" y1="10.9893805309734513" x2="5.38230088495575221" y2="10.9256637168141593" style="stroke:green;stroke-width:1" />
 <line x1="5.38230088495575221" y1="10.9256637168141593" x2="5.25486725663716814" y2="10.9256637168141593" style="stroke:green;stroke-width:1" />
 <line x1="5.25486725663716814" y1="10.9256637168141593" x2="5.1911504424778761" y2="10.9893805309734513" style="stroke:green;stroke-width:1" />
 <line x1="5.1911504424778761" y1="10.9893805309734513" x2="5.1911504424778761" y2="11.1168141592920354" style="stroke:green;stroke-width:1" />
 <line x1="5.1911504424778761" y1="11.1168141592920354" x2="5.25486725663716814" y2="11.2442477876106194" style="stroke:green;stroke-width:1" />
 <line x1="5.25486725663716814" y1="11.2442477876106194" x2="5.57345132743362832" y2="11.3079646017699115" style="stroke:green;stroke-width:1" />
 <line x1="5.57345132743362832" y1="11.3079646017699115" x2="5.89203539823008849" y2="11.4991150442477876" style="stroke:green;stroke-width:1" />
 <line x1="5.89203539823008849" y1="11.4991150442477876" x2="6.21061946902654867" y2="11.7539823008849557" style="stroke:green;stroke-width:1" />
 <line x1="6.21061946902654867" y1="11.7539823008849557" x2="6.59292035398230089" y2="12.2" style="stroke:green;stroke-width:1" />
 <line x1="6.59292035398230089" y1="12.2" x2="6.91150442477876106" y2="11.7539823008849557" style="stroke:green;stroke-width:1" />
 <line x1="6.91150442477876106" y1="11.7539823008849557" x2="7.23008849557522124" y2="11.4991150442477876" style="stroke:green;stroke-width:1" />
 <line x1="7.23008849557522124" y1="11.4991150442477876" x2="7.54867256637168142" y2="11.3079646017699115" style="stroke:green;stroke-width:1" />
 <line x1="7.54867256637168142" y1="11.3079646017699115" x2="7.8672566371681416" y2="11.2442477876106194" style="stroke:green;stroke-width:1" />
 <line x1="7.8672566371681416" y1="11.2442477876106194" x2="7.93097345132743363" y2="11.1168141592920354" style="stroke:green;stroke-width:1" />
 <line x1="7.93097345132743363" y1="11.1168141592920354" x2="7.99469026548672567" y2="10.9893805309734513" style="stroke:green;stroke-width:1" />
 <line x1="7.99469026548672567" y1="10.9893805309734513" x2="7.8672566371681416" y2="10.9256637168141593" style="stroke:green;stroke-width:1" />
 <line x1="7.8672566371681416" y1="10.9256637168141593" x2="7.73982300884955753" y2="10.9256637168141593" style="stroke:green;stroke-width:1" />
 <line x1="7.73982300884955753" y1="10.9256637168141593" x2="7.48495575221238938" y2="10.9893805309734513" style="stroke:green;stroke-width:1" />
 <line x1="7.48495575221238938" y1="10.9893805309734513" x2="7.16637168141592921" y2="11.1805309734513274" style="stroke:green;stroke-width:1" />
 <line x1="7.16637168141592921" y1="11.1805309734513274" x2="6.91150442477876106" y2="11.4353982300884955" style="stroke:green;stroke-width:1" />
 <line x1="6.91150442477876106" y1="11.4353982300884955" x2="6.65663716814159292" y2="11.8176991150442478" style="stroke:green;stroke-width:1" />
 <line x1="6.65663716814159292" y1="11.8176991150442478" x2="6.59292035398230089" y2="12.2" style="stroke:green;stroke-width:1" />
 <line x1="6.59292035398230089" y1="12.2" x2="6.21061946902654867" y2="12.2" style="stroke:green;stroke-width:1" />
 <line x1="6.21061946902654867" y1="12.2" x2="5.89203539823008849" y2="12.263716814159292" style="stroke:green;stroke-width:1" />
 <line x1="5.89203539823008849" y1="12.263716814159292" x2="5.63716814159292035" y2="12.4548672566371681" style="stroke:green;stroke-width:1" />
 <line x1="5.63716814159292035" y1="12.4548672566371681" x2="5.31858407079646017" y2="12.6460176991150442" style="stroke:green;stroke-width:1" />
 <line x1="5.31858407079646017" y1="12.6460176991150442" x2="5.1911504424778761" y2="12.8371681415929203" style="stroke:green;stroke-width:1" />
 <line x1="5.1911504424778761" y1="12.8371681415929203" x2="5.1911504424778761" y2="13.0283185840707963" style="stroke:green;stroke-width:1" />
 <line x1="5.1911504424778761" y1="13.0283185840707963" x2="5.25486725663716814" y2="13.2831858407079645" style="stroke:green;stroke-width:1" />
 <line x1="5.25486725663716814" y1="13.2831858407079645" x2="5.44601769911504424" y2="13.5380530973451326" style="stroke:green;stroke-width:1" />
 <line x1="5.44601769911504424" y1="13.5380530973451326" x2="5.76460176991150442" y2="13.6654867256637167" style="stroke:green;stroke-width:1" />
 <line x1="5.76460176991150442" y1="13.6654867256637167" x2="6.14690265486725664" y2="13.7929203539823008" style="stroke:green;stroke-width:1" />
 <line x1="6.14690265486725664" y1="13.7929203539823008" x2="6.52920353982300885" y2="13.7929203539823008" style="stroke:green;stroke-width:1" />
 <line x1="6.52920353982300885" y1="13.7929203539823008" x2="6.78407079646017699" y2="13.6654867256637167" style="stroke:green;stroke-width:1" />
 <line x1="6.78407079646017699" y1="13.6654867256637167" x2="7.10265486725663717" y2="13.6017699115044246" style="stroke:green;stroke-width:1" />
 <line x1="7.10265486725663717" y1="13.6017699115044246" x2="7.35752212389380531" y2="13.6017699115044246" style="stroke:green;stroke-width:1" />
 <line x1="7.35752212389380531" y1="13.6017699115044246" x2="7.54867256637168142" y2="13.7292035398230087" style="stroke:green;stroke-width:1" />
 <line x1="7.54867256637168142" y1="13.7292035398230087" x2="7.8672566371681416" y2="13.9203539823008848" style="stroke:green;stroke-width:1" />
 <line x1="7.8672566371681416" y1="13.9203539823008848" x2="8.12212389380530974" y2="14.1115044247787609" style="stroke:green;stroke-width:1" />
 <line x1="8.12212389380530974" y1="14.1115044247787609" x2="8.37699115044247788" y2="14.302654867256637" style="stroke:green;stroke-width:1" />
 <line x1="8.37699115044247788" y1="14.302654867256637" x2="8.69557522123893806" y2="14.4938053097345131" style="stroke:green;stroke-width:1" />
 <line x1="8.69557522123893806" y1="14.4938053097345131" x2="9.07787610619469027" y2="14.6849557522123893" style="stroke:green;stroke-width:1" />
 <line x1="9.07787610619469027" y1="14.6849557522123893" x2="9.52389380530973452" y2="14.8123893805309733" style="stroke:green;stroke-width:1" />
 <line x1="9.52389380530973452" y1="14.8123893805309733" x2="10.0336283185840708" y2="14.9398230088495574" style="stroke:green;stroke-width:1" />
 <line x1="10.0336283185840708" y1="14.9398230088495574" x2="10.6070796460176991" y2="14.9398230088495574" style="stroke:green;stroke-width:1" />
 <line x1="10.6070796460176991" y1="14.9398230088495574" x2="11.1805309734513274" y2="14.8761061946902654" style="stroke:green;stroke-width:1" />
 <line x1="11.1805309734513274" y1="14.8761061946902654" x2="11.7539823008849557" y2="14.8123893805309733" style="stroke:green;stroke-width:1" />
 <line x1="11.7539823008849557" y1="14.8123893805309733" x2="12.263716814159292" y2="14.6849557522123893" style="stroke:green;stroke-width:1" />
 <line x1="12.263716814159292" y1="14.6849557522123893" x2="12.9008849557522124" y2="14.6212389380530972" style="stroke:green;stroke-width:1" />
 <line x1="12.9008849557522124" y1="14.6212389380530972" x2="13.4106194690265486" y2="14.6212389380530972" style="stroke:green;stroke-width:1" />
 <line x1="13.4106194690265486" y1="14.6212389380530972" x2="14.1752212389380531" y2="14.6849557522123893" style="stroke:green;stroke-width:1" />
 <line x1="14.1752212389380531" y1="14.6849557522123893" x2="14.8761061946902655" y2="14.8123893805309733" style="stroke:green;stroke-width:1" />
 <line x1="14.8761061946902655" y1="14.8123893805309733" x2="15.4495575221238938" y2="14.8761061946902654" style="stroke:green;stroke-width:1" />
 <line x1="15.4495575221238938" y1="14.8761061946902654" x2="15.895575221238938" y2="14.9398230088495574" style="stroke:green;stroke-width:1" />
 <line x1="15.895575221238938" y1="14.9398230088495574" x2="16.2778761061946902" y2="15.0035398230088494" style="stroke:green;stroke-width:1" />
 <line x1="16.2778761061946902" y1="15.0035398230088494" x2="16.8513274336283186" y2="15.0035398230088494" style="stroke:green;stroke-width:1" />
 <line x1="16.8513274336283186" y1="15.0035398230088494" x2="17.679646017699115" y2="14.8761061946902654" style="stroke:green;stroke-width:1" />
 <line x1="17.679646017699115" y1="14.8761061946902654" x2="18.4442477876106195" y2="14.8123893805309733" style="stroke:green;stroke-width:1" />
 <line x1="18.4442477876106195" y1="14.8123893805309733" x2="18.9539823008849557" y2="14.7486725663716813" style="stroke:green;stroke-width:1" />
 <line x1="18.9539823008849557" y1="14.7486725663716813" x2="19.2088495575221239" y2="14.6212389380530972" style="stroke:green;stroke-width:1" />
 <line x1="19.2088495575221239" y1="14.6212389380530972" x2="19.2725663716814159" y2="14.5575221238938052" style="stroke:green;stroke-width:1" />
 <line x1="19.2725663716814159" y1="14.5575221238938052" x2="19.2725663716814159" y2="14.4938053097345131" style="stroke:green;stroke-width:1" />
 <line x1="19.2725663716814159" y1="14.4938053097345131" x2="19.0814159292035398" y2="14.4300884955752211" style="stroke:green;stroke-width:1" />
 <line x1="19.0814159292035398" y1="14.4300884955752211" x2="18.6353982300884956" y2="14.4300884955752211" style="stroke:green;stroke-width:1" />
 <line x1="18.6353982300884956" y1="14.4300884955752211" x2="17.8707964601769911" y2="14.4300884955752211" style="stroke:green;stroke-width:1" />
 <line x1="17.8707964601769911" y1="14.4300884955752211" x2="17.1061946902654867" y2="14.4938053097345131" style="stroke:green;stroke-width:1" />
 <line x1="17.1061946902654867" y1="14.4938053097345131" x2="16.4690265486725663" y2="14.4300884955752211" style="stroke:green;stroke-width:1" />
 <line x1="16.4690265486725663" y1="14.4300884955752211" x2="15.831858407079646" y2="14.302654867256637" style="stroke:green;stroke-width:1" />
 <line x1="15.831858407079646" y1="14.302654867256637" x2="15.1309734513274336" y2="14.1115044247787609" style="stroke:green;stroke-width:1" />
 <line x1="15.1309734513274336" y1="14.1115044247787609" x2="14.5575221238938053" y2="13.9203539823008848" style="stroke:green;stroke-width:1" />
 <line x1="14.5575221238938053" y1="13.9203539823008848" x2="14.047787610619469" y2="13.7929203539823008" style="stroke:green;stroke-width:1" />
 <line x1="14.047787610619469" y1="13.7929203539823008" x2="13.5380530973451327" y2="13.7292035398230087" style="stroke:green;stroke-width:1" />
 <line x1="13.5380530973451327" y1="13.7292035398230087" x2="13.0283185840707964" y2="13.6654867256637167" style="stroke:green;stroke-width:1" />
 <line x1="13.0283185840707964" y1="13.6654867256637167" x2="12.5185840707964602" y2="13.6654867256637167" style="stroke:green;stroke-width:1" />
 <line x1="12.5185840707964602" y1="13.6654867256637167" x2="11.9451327433628318" y2="13.7929203539823008" style="stroke:green;stroke-width:1" />
 <line x1="11.9451327433628318" y1="13.7929203539823008" x2="11.4353982300884955" y2="13.8566371681415928" style="stroke:green;stroke-width:1" />
 <line x1="11.4353982300884955" y1="13.8566371681415928" x2="10.9256637168141593" y2="13.9840707964601769" style="stroke:green;stroke-width:1" />
 <line x1="10.9256637168141593" y1="13.9840707964601769" x2="10.3522123893805309" y2="14.1115044247787609" style="stroke:green;stroke-width:1" />
 <line x1="10.3522123893805309" y1="14.1115044247787609" x2="9.90619469026548674" y2="14.0477876106194689" style="stroke:green;stroke-width:1" />
 <line x1="9.90619469026548674" y1="14.0477876106194689" x2="9.46017699115044249" y2="13.9203539823008848" style="stroke:green;stroke-width:1" />
 <line x1="9.46017699115044249" y1="13.9203539823008848" x2="8.88672566371681417" y2="13.6017699115044246" style="stroke:green;stroke-width:1" />
 <line x1="8.88672566371681417" y1="13.6017699115044246" x2="8.50442477876106195" y2="13.2831858407079645" style="stroke:green;stroke-width:1" />
 <line x1="8.50442477876106195" y1="13.2831858407079645" x2="8.12212389380530974" y2="12.9646017699115044" style="stroke:green;stroke-width:1" />
 <line x1="8.12212389380530974" y1="12.9646017699115044" x2="7.73982300884955753" y2="12.6460176991150442" style="stroke:green;stroke-width:1" />
 <line x1="7.73982300884955753" y1="12.6460176991150442" x2="7.48495575221238938" y2="12.4548672566371681" style="stroke:green;stroke-width:1" />
 <line x1="7.48495575221238938" y1="12.4548672566371681" x2="7.16637168141592921" y2="12.263716814159292" style="stroke:green;stroke-width:1" />
 <line x1="7.16637168141592921" y1="12.263716814159292" x2="6.84778761061946903" y2="12.2" style="stroke:green;stroke-width:1" />
 <line x1="6.84778761061946903" y1="12.2" x2="6.59292035398230089" y2="12.2" style="stroke:green;stroke-width:1" />
 <line x1="20.1646017699115044" y1="19.527433628318584" x2="20.1646017699115044" y2="10.9893805309734513" style="stroke:green;stroke-width:1" />
 <line x1="20.1646017699115044" y1="10.9893805309734513" x2="20.1646017699115044" y2="10.6707964601769911" style="stroke:green;stroke-width:1" />
 <line x1="20.1646017699115044" y1="10.6707964601769911" x2="20.2283185840707964" y2="10.3522123893805309" style="stroke:green;stroke-width:1" />
 <line x1="20.2283185840707964" y1="10.3522123893805309" x2="20.3557522123893805" y2="10.0336283185840708" style="stroke:green;stroke-width:1" />
 <line x1="20.3557522123893805" y1="10.0336283185840708" x2="20.5469026548672566" y2="9.71504424778761063" style="stroke:green;stroke-width:1" />
 <line x1="20.5469026548672566" y1="9.71504424778761063" x2="20.7380530973451327" y2="9.46017699115044249" style="stroke:green;stroke-width:1" />
 <line x1="20.7380530973451327" y1="9.46017699115044249" x2="21.0566371681415929" y2="9.33274336283185842" style="stroke:green;stroke-width:1" />
 <line x1="21.0566371681415929" y1="9.33274336283185842" x2="21.3752212389380531" y2="9.20530973451327434" style="stroke:green;stroke-width:1" />
 <line x1="21.3752212389380531" y1="9.20530973451327434" x2="21.7575221238938053" y2="9.14159292035398231" style="stroke:green;stroke-width:1" />
 <line x1="21.7575221238938053" y1="9.14159292035398231" x2="22.2035398230088496" y2="9.07787610619469027" style="stroke:green;stroke-width:1" />
 <line x1="22.0123893805309734" y1="6.78407079646017699" x2="22.2672566371681416" y2="6.72035398230088496" style="stroke:green;stroke-width:1" />
 <line x1="22.2672566371681416" y1="6.72035398230088496" x2="22.5221238938053097" y2="6.46548672566371681" style="stroke:green;stroke-width:1" />
 <line x1="22.5221238938053097" y1="6.46548672566371681" x2="22.7132743362831858" y2="6.21061946902654867" style="stroke:green;stroke-width:1" />
 <line x1="22.7132743362831858" y1="6.21061946902654867" x2="22.8407079646017699" y2="5.76460176991150442" style="stroke:green;stroke-width:1" />
 <line x1="22.8407079646017699" y1="5.76460176991150442" x2="22.968141592920354" y2="5.1911504424778761" style="stroke:green;stroke-width:1" />
 <line x1="22.968141592920354" y1="5.1911504424778761" x2="24.3061946902654867" y2="5.1911504424778761" style="stroke:green;stroke-width:1" />
 <line x1="24.3061946902654867" y1="5.1911504424778761" x2="24.4336283185840708" y2="5.76460176991150442" style="stroke:green;stroke-width:1" />
 <line x1="24.4336283185840708" y1="5.76460176991150442" x2="24.5610619469026549" y2="6.21061946902654867" style="stroke:green;stroke-width:1" />
 <line x1="24.5610619469026549" y1="6.21061946902654867" x2="24.752212389380531" y2="6.46548672566371681" style="stroke:green;stroke-width:1" />
 <line x1="24.752212389380531" y1="6.46548672566371681" x2="25.0070796460176991" y2="6.65663716814159292" style="stroke:green;stroke-width:1" />
 <line x1="25.0070796460176991" y1="6.65663716814159292" x2="25.2619469026548673" y2="6.78407079646017699" style="stroke:green;stroke-width:1" />
 <line x1="25.2619469026548673" y1="6.78407079646017699" x2="25.5168141592920354" y2="6.72035398230088496" style="stroke:green;stroke-width:1" />
 <line x1="25.5168141592920354" y1="6.72035398230088496" x2="25.7716814159292035" y2="6.46548672566371681" style="stroke:green;stroke-width:1" />
 <line x1="25.7716814159292035" y1="6.46548672566371681" x2="25.9628318584070797" y2="6.21061946902654867" style="stroke:green;stroke-width:1" />
 <line x1="25.9628318584070797" y1="6.21061946902654867" x2="26.0902654867256637" y2="5.76460176991150442" style="stroke:green;stroke-width:1" />
 <line x1="26.0902654867256637" y1="5.76460176991150442" x2="26.2176991150442478" y2="5.1911504424778761" style="stroke:green;stroke-width:1" />
 <line x1="26.2176991150442478" y1="5.1911504424778761" x2="27.5557522123893805" y2="5.1911504424778761" style="stroke:green;stroke-width:1" />
 <line x1="27.5557522123893805" y1="5.1911504424778761" x2="27.6831858407079646" y2="5.76460176991150442" style="stroke:green;stroke-width:1" />
 <line x1="27.6831858407079646" y1="5.76460176991150442" x2="27.8106194690265487" y2="6.21061946902654867" style="stroke:green;stroke-width:1" />
 <line x1="27.8106194690265487" y1="6.21061946902654867" x2="28.0017699115044248" y2="6.46548672566371681" style="stroke:green;stroke-width:1" />
 <line x1="28.0017699115044248" y1="6.46548672566371681" x2="28.2566371681415929" y2="6.65663716814159292" style="stroke:green;stroke-width:1" />
 <line x1="28.2566371681415929" y1="6.65663716814159292" x2="28.5115044247787611" y2="6.78407079646017699" style="stroke:green;stroke-width:1" />
 <line x1="28.5115044247787611" y1="6.78407079646017699" x2="28.7026548672566372" y2="6.72035398230088496" style="stroke:green;stroke-width:1" />
 <line x1="28.7026548672566372" y1="6.72035398230088496" x2="28.9575221238938053" y2="6.46548672566371681" style="stroke:green;stroke-width:1" />
 <line x1="28.9575221238938053" y1="6.46548672566371681" x2="29.1486725663716814" y2="6.21061946902654867" style="stroke:green;stroke-width:1" />
 <line x1="29.1486725663716814" y1="6.21061946902654867" x2="29.3398230088495575" y2="5.76460176991150442" style="stroke:green;stroke-width:1" />
 <line x1="29.3398230088495575" y1="5.76460176991150442" x2="29.4672566371681416" y2="5.1911504424778761" style="stroke:green;stroke-width:1" />
 <line x1="29.4672566371681416" y1="5.1911504424778761" x2="30.7415929203539823" y2="5.1911504424778761" style="stroke:green;stroke-width:1" />
 <line x1="30.7415929203539823" y1="5.1911504424778761" x2="30.8690265486725664" y2="5.76460176991150442" style="stroke:green;stroke-width:1" />
 <line x1="30.8690265486725664" y1="5.76460176991150442" x2="31.0601769911504425" y2="6.21061946902654867" style="stroke:green;stroke-width:1" />
 <line x1="31.0601769911504425" y1="6.21061946902654867" x2="31.2513274336283186" y2="6.46548672566371681" style="stroke:green;stroke-width:1" />
 <line x1="31.2513274336283186" y1="6.46548672566371681" x2="31.5061946902654867" y2="6.65663716814159292" style="stroke:green;stroke-width:1" />
 <line x1="31.5061946902654867" y1="6.65663716814159292" x2="31.7610619469026549" y2="6.78407079646017699" style="stroke:green;stroke-width:1" />
 <line x1="31.7610619469026549" y1="6.78407079646017699" x2="22.0123893805309734" y2="6.78407079646017699" style="stroke:green;stroke-width:1" />
 <line x1="23.6690265486725664" y1="6.78407079646017699" x2="23.6690265486725664" y2="7.99469026548672567" style="stroke:green;stroke-width:1" />
 <line x1="23.6690265486725664" y1="7.99469026548672567" x2="24.1150442477876106" y2="8.12212389380530974" style="stroke:green;stroke-width:1" />
 <line x1="24.1150442477876106" y1="8.12212389380530974" x2="24.4336283185840708" y2="8.31327433628318585" style="stroke:green;stroke-width:1" />
 <line x1="24.4336283185840708" y1="8.31327433628318585" x2="24.815929203539823" y2="8.69557522123893806" style="stroke:green;stroke-width:1" />
 <line x1="24.815929203539823" y1="8.69557522123893806" x2="25.0707964601769912" y2="9.07787610619469027" style="stroke:green;stroke-width:1" />
 <line x1="25.0707964601769912" y1="9.07787610619469027" x2="25.1982300884955752" y2="9.52389380530973452" style="stroke:green;stroke-width:1" />
 <line x1="25.1982300884955752" y1="9.52389380530973452" x2="25.2619469026548673" y2="10.0973451327433628" style="stroke:green;stroke-width:1" />
 <line x1="25.2619469026548673" y1="10.0973451327433628" x2="25.2619469026548673" y2="10.7982300884955752" style="stroke:green;stroke-width:1" />
 <line x1="25.2619469026548673" y1="10.7982300884955752" x2="25.1982300884955752" y2="11.3716814159292035" style="stroke:green;stroke-width:1" />
 <line x1="25.1982300884955752" y1="11.3716814159292035" x2="25.0707964601769912" y2="11.8814159292035398" style="stroke:green;stroke-width:1" />
 <line x1="25.0707964601769912" y1="11.8814159292035398" x2="24.9433628318584071" y2="12.3911504424778761" style="stroke:green;stroke-width:1" />
 <line x1="24.9433628318584071" y1="12.3911504424778761" x2="24.815929203539823" y2="13.0283185840707963" style="stroke:green;stroke-width:1" />
 <line x1="24.815929203539823" y1="13.0283185840707963" x2="24.6247787610619469" y2="13.6654867256637167" style="stroke:green;stroke-width:1" />
 <line x1="24.6247787610619469" y1="13.6654867256637167" x2="24.4973451327433628" y2="14.302654867256637" style="stroke:green;stroke-width:1" />
 <line x1="24.4973451327433628" y1="14.302654867256637" x2="24.3699115044247788" y2="14.8761061946902654" style="stroke:green;stroke-width:1" />
 <line x1="24.3699115044247788" y1="14.8761061946902654" x2="24.3699115044247788" y2="15.5132743362831857" style="stroke:green;stroke-width:1" />
 <line x1="24.3699115044247788" y1="15.5132743362831857" x2="24.2424778761061947" y2="16.2141592920353981" style="stroke:green;stroke-width:1" />
 <line x1="24.2424778761061947" y1="16.2141592920353981" x2="24.2424778761061947" y2="16.9150442477876105" style="stroke:green;stroke-width:1" />
 <line x1="24.2424778761061947" y1="16.9150442477876105" x2="24.3061946902654867" y2="17.5522123893805309" style="stroke:green;stroke-width:1" />
 <line x1="24.3061946902654867" y1="17.5522123893805309" x2="24.3699115044247788" y2="18.1893805309734512" style="stroke:green;stroke-width:1" />
 <line x1="24.3699115044247788" y1="18.1893805309734512" x2="24.4973451327433628" y2="18.8265486725663716" style="stroke:green;stroke-width:1" />
 <line x1="24.4973451327433628" y1="18.8265486725663716" x2="24.6884955752212389" y2="19.4637168141592919" style="stroke:green;stroke-width:1" />
 <line x1="24.6884955752212389" y1="19.4637168141592919" x2="22.5858407079646018" y2="19.4637168141592919" style="stroke:green;stroke-width:1" />
 <line x1="22.5858407079646018" y1="19.4637168141592919" x2="22.7769911504424779" y2="18.8265486725663716" style="stroke:green;stroke-width:1" />
 <line x1="22.7769911504424779" y1="18.8265486725663716" x2="22.9044247787610619" y2="18.1893805309734512" style="stroke:green;stroke-width:1" />
 <line x1="22.9044247787610619" y1="18.1893805309734512" x2="22.968141592920354" y2="17.5522123893805309" style="stroke:green;stroke-width:1" />
 <line x1="22.968141592920354" y1="17.5522123893805309" x2="23.031858407079646" y2="16.9150442477876105" style="stroke:green;stroke-width:1" />
 <line x1="23.031858407079646" y1="16.9150442477876105" x2="23.031858407079646" y2="16.2141592920353981" style="stroke:green;stroke-width:1" />
 <line x1="23.031858407079646" y1="16.2141592920353981" x2="22.9044247787610619" y2="15.5132743362831857" style="stroke:green;stroke-width:1" />
 <line x1="22.9044247787610619" y1="15.5132743362831857" x2="22.9044247787610619" y2="14.8761061946902654" style="stroke:green;stroke-width:1" />
 <line x1="22.9044247787610619" y1="14.8761061946902654" x2="22.7769911504424779" y2="14.302654867256637" style="stroke:green;stroke-width:1" />
 <line x1="22.7769911504424779" y1="14.302654867256637" x2="22.6495575221238938" y2="13.6654867256637167" style="stroke:green;stroke-width:1" />
 <line x1="22.6495575221238938" y1="13.6654867256637167" x2="22.4584070796460177" y2="13.0283185840707963" style="stroke:green;stroke-width:1" />
 <line x1="22.4584070796460177" y1="13.0283185840707963" x2="22.3309734513274336" y2="12.3911504424778761" style="stroke:green;stroke-width:1" />
 <line x1="22.3309734513274336" y1="12.3911504424778761" x2="22.2035398230088496" y2="11.8814159292035398" style="stroke:green;stroke-width:1" />
 <line x1="22.2035398230088496" y1="11.8814159292035398" x2="22.0761061946902655" y2="11.3716814159292035" style="stroke:green;stroke-width:1" />
 <line x1="22.0761061946902655" y1="11.3716814159292035" x2="22.0123893805309734" y2="10.7982300884955752" style="stroke:green;stroke-width:1" />
 <line x1="22.0123893805309734" y1="10.7982300884955752" x2="22.0123893805309734" y2="10.0973451327433628" style="stroke:green;stroke-width:1" />
 <line x1="22.0123893805309734" y1="10.0973451327433628" x2="22.0761061946902655" y2="9.52389380530973452" style="stroke:green;stroke-width:1" />
 <line x1="22.0761061946902655" y1="9.52389380530973452" x2="22.2035398230088496" y2="9.07787610619469027" style="stroke:green;stroke-width:1" />
 <line x1="22.2035398230088496" y1="9.07787610619469027" x2="22.4584070796460177" y2="8.69557522123893806" style="stroke:green;stroke-width:1" />
 <line x1="22.4584070796460177" y1="8.69557522123893806" x2="22.8407079646017699" y2="8.31327433628318585" style="stroke:green;stroke-width:1" />
 <line x1="22.8407079646017699" y1="8.31327433628318585" x2="23.1592920353982301" y2="8.12212389380530974" style="stroke:green;stroke-width:1" />
 <line x1="23.1592920353982301" y1="8.12212389380530974" x2="23.6690265486725664" y2="7.99469026548672567" style="stroke:green;stroke-width:1" />
 <line x1="26.8548672566371682" y1="6.78407079646017699" x2="26.8548672566371682" y2="7.99469026548672567" style="stroke:green;stroke-width:1" />
 <line x1="26.8548672566371682" y1="7.99469026548672567" x2="27.3646017699115044" y2="8.12212389380530974" style="stroke:green;stroke-width:1" />
 <line x1="27.3646017699115044" y1="8.12212389380530974" x2="27.6831858407079646" y2="8.31327433628318585" style="stroke:green;stroke-width:1" />
 <line x1="27.6831858407079646" y1="8.31327433628318585" x2="28.0654867256637168" y2="8.69557522123893806" style="stroke:green;stroke-width:1" />
 <line x1="28.0654867256637168" y1="8.69557522123893806" x2="28.320353982300885" y2="9.07787610619469027" style="stroke:green;stroke-width:1" />
 <line x1="28.320353982300885" y1="9.07787610619469027" x2="28.447787610619469" y2="9.52389380530973452" style="stroke:green;stroke-width:1" />
 <line x1="28.447787610619469" y1="9.52389380530973452" x2="28.5115044247787611" y2="10.0973451327433628" style="stroke:green;stroke-width:1" />
 <line x1="28.5115044247787611" y1="10.0973451327433628" x2="28.5115044247787611" y2="10.7982300884955752" style="stroke:green;stroke-width:1" />
 <line x1="28.5115044247787611" y1="10.7982300884955752" x2="28.447787610619469" y2="11.3716814159292035" style="stroke:green;stroke-width:1" />
 <line x1="28.447787610619469" y1="11.3716814159292035" x2="28.320353982300885" y2="11.8814159292035398" style="stroke:green;stroke-width:1" />
 <line x1="28.320353982300885" y1="11.8814159292035398" x2="28.1929203539823009" y2="12.3911504424778761" style="stroke:green;stroke-width:1" />
 <line x1="28.1929203539823009" y1="12.3911504424778761" x2="28.0654867256637168" y2="13.0283185840707963" style="stroke:green;stroke-width:1" />
 <line x1="28.0654867256637168" y1="13.0283185840707963" x2="27.8743362831858407" y2="13.6654867256637167" style="stroke:green;stroke-width:1" />
 <line x1="27.8743362831858407" y1="13.6654867256637167" x2="27.7469026548672566" y2="14.302654867256637" style="stroke:green;stroke-width:1" />
 <line x1="27.7469026548672566" y1="14.302654867256637" x2="27.6194690265486726" y2="14.8761061946902654" style="stroke:green;stroke-width:1" />
 <line x1="27.6194690265486726" y1="14.8761061946902654" x2="27.6194690265486726" y2="15.5132743362831857" style="stroke:green;stroke-width:1" />
 <line x1="27.6194690265486726" y1="15.5132743362831857" x2="27.4920353982300885" y2="16.2141592920353981" style="stroke:green;stroke-width:1" />
 <line x1="27.4920353982300885" y1="16.2141592920353981" x2="27.4920353982300885" y2="16.9150442477876105" style="stroke:green;stroke-width:1" />
 <line x1="27.4920353982300885" y1="16.9150442477876105" x2="27.5557522123893805" y2="17.5522123893805309" style="stroke:green;stroke-width:1" />
 <line x1="27.5557522123893805" y1="17.5522123893805309" x2="27.6194690265486726" y2="18.1893805309734512" style="stroke:green;stroke-width:1" />
 <line x1="27.6194690265486726" y1="18.1893805309734512" x2="27.7469026548672566" y2="18.8265486725663716" style="stroke:green;stroke-width:1" />
 <line x1="27.7469026548672566" y1="18.8265486725663716" x2="27.9380530973451328" y2="19.4637168141592919" style="stroke:green;stroke-width:1" />
 <line x1="27.9380530973451328" y1="19.4637168141592919" x2="25.8353982300884956" y2="19.4637168141592919" style="stroke:green;stroke-width:1" />
 <line x1="25.8353982300884956" y1="19.4637168141592919" x2="26.0265486725663717" y2="18.8265486725663716" style="stroke:green;stroke-width:1" />
 <line x1="26.0265486725663717" y1="18.8265486725663716" x2="26.1539823008849558" y2="18.1893805309734512" style="stroke:green;stroke-width:1" />
 <line x1="26.1539823008849558" y1="18.1893805309734512" x2="26.2176991150442478" y2="17.5522123893805309" style="stroke:green;stroke-width:1" />
 <line x1="26.2176991150442478" y1="17.5522123893805309" x2="26.2814159292035398" y2="16.9150442477876105" style="stroke:green;stroke-width:1" />
 <line x1="26.2814159292035398" y1="16.9150442477876105" x2="26.2814159292035398" y2="16.2141592920353981" style="stroke:green;stroke-width:1" />
 <line x1="26.2814159292035398" y1="16.2141592920353981" x2="26.1539823008849558" y2="15.5132743362831857" style="stroke:green;stroke-width:1" />
 <line x1="26.1539823008849558" y1="15.5132743362831857" x2="26.1539823008849558" y2="14.8761061946902654" style="stroke:green;stroke-width:1" />
 <line x1="26.1539823008849558" y1="14.8761061946902654" x2="26.0265486725663717" y2="14.302654867256637" style="stroke:green;stroke-width:1" />
 <line x1="26.0265486725663717" y1="14.302654867256637" x2="25.8991150442477876" y2="13.6654867256637167" style="stroke:green;stroke-width:1" />
 <line x1="25.8991150442477876" y1="13.6654867256637167" x2="25.7079646017699115" y2="13.0283185840707963" style="stroke:green;stroke-width:1" />
 <line x1="25.7079646017699115" y1="13.0283185840707963" x2="25.5805309734513274" y2="12.3911504424778761" style="stroke:green;stroke-width:1" />
 <line x1="25.5805309734513274" y1="12.3911504424778761" x2="25.4530973451327434" y2="11.8814159292035398" style="stroke:green;stroke-width:1" />
 <line x1="25.4530973451327434" y1="11.8814159292035398" x2="25.3256637168141593" y2="11.3716814159292035" style="stroke:green;stroke-width:1" />
 <line x1="25.3256637168141593" y1="11.3716814159292035" x2="25.2619469026548673" y2="10.7982300884955752" style="stroke:green;stroke-width:1" />
 <line x1="25.2619469026548673" y1="10.7982300884955752" x2="25.2619469026548673" y2="10.0973451327433628" style="stroke:green;stroke-width:1" />
 <line x1="25.2619469026548673" y1="10.0973451327433628" x2="25.3256637168141593" y2="9.52389380530973452" style="stroke:green;stroke-width:1" />
 <line x1="25.3256637168141593" y1="9.52389380530973452" x2="25.4530973451327434" y2="9.07787610619469027" style="stroke:green;stroke-width:1" />
 <line x1="25.4530973451327434" y1="9.07787610619469027" x2="25.7079646017699115" y2="8.69557522123893806" style="stroke:green;stroke-width:1" />
 <line x1="25.7079646017699115" y1="8.69557522123893806" x2="26.0902654867256637" y2="8.31327433628318585" style="stroke:green;stroke-width:1" />
 <line x1="26.0902654867256637" y1="8.31327433628318585" x2="26.4088495575221239" y2="8.12212389380530974" style="stroke:green;stroke-width:1" />
 <line x1="26.4088495575221239" y1="8.12212389380530974" x2="26.8548672566371682" y2="7.99469026548672567" style="stroke:green;stroke-width:1" />
 <line x1="30.104424778761062" y1="6.78407079646017699" x2="30.104424778761062" y2="7.99469026548672567" style="stroke:green;stroke-width:1" />
 <line x1="30.104424778761062" y1="7.99469026548672567" x2="30.6141592920353983" y2="8.12212389380530974" style="stroke:green;stroke-width:1" />
 <line x1="30.6141592920353983" y1="8.12212389380530974" x2="30.9327433628318584" y2="8.31327433628318585" style="stroke:green;stroke-width:1" />
 <line x1="30.9327433628318584" y1="8.31327433628318585" x2="31.2513274336283186" y2="8.69557522123893806" style="stroke:green;stroke-width:1" />
 <line x1="31.2513274336283186" y1="8.69557522123893806" x2="31.5699115044247788" y2="9.07787610619469027" style="stroke:green;stroke-width:1" />
 <line x1="31.5699115044247788" y1="9.07787610619469027" x2="31.6973451327433629" y2="9.52389380530973452" style="stroke:green;stroke-width:1" />
 <line x1="31.6973451327433629" y1="9.52389380530973452" x2="31.7610619469026549" y2="10.0973451327433628" style="stroke:green;stroke-width:1" />
 <line x1="31.7610619469026549" y1="10.0973451327433628" x2="31.7610619469026549" y2="10.7982300884955752" style="stroke:green;stroke-width:1" />
 <line x1="31.7610619469026549" y1="10.7982300884955752" x2="31.6973451327433629" y2="11.3716814159292035" style="stroke:green;stroke-width:1" />
 <line x1="31.6973451327433629" y1="11.3716814159292035" x2="31.5699115044247788" y2="11.8814159292035398" style="stroke:green;stroke-width:1" />
 <line x1="31.5699115044247788" y1="11.8814159292035398" x2="31.3787610619469027" y2="12.3911504424778761" style="stroke:green;stroke-width:1" />
 <line x1="31.3787610619469027" y1="12.3911504424778761" x2="31.2513274336283186" y2="13.0283185840707963" style="stroke:green;stroke-width:1" />
 <line x1="31.2513274336283186" y1="13.0283185840707963" x2="31.1238938053097345" y2="13.6654867256637167" style="stroke:green;stroke-width:1" />
 <line x1="31.1238938053097345" y1="13.6654867256637167" x2="30.9964601769911505" y2="14.302654867256637" style="stroke:green;stroke-width:1" />
 <line x1="30.9964601769911505" y1="14.302654867256637" x2="30.8690265486725664" y2="14.8761061946902654" style="stroke:green;stroke-width:1" />
 <line x1="30.8690265486725664" y1="14.8761061946902654" x2="30.8053097345132744" y2="15.5132743362831857" style="stroke:green;stroke-width:1" />
 <line x1="30.8053097345132744" y1="15.5132743362831857" x2="30.7415929203539823" y2="16.2141592920353981" style="stroke:green;stroke-width:1" />
 <line x1="30.7415929203539823" y1="16.2141592920353981" x2="30.7415929203539823" y2="16.9150442477876105" style="stroke:green;stroke-width:1" />
 <line x1="30.7415929203539823" y1="16.9150442477876105" x2="30.7415929203539823" y2="17.5522123893805309" style="stroke:green;stroke-width:1" />
 <line x1="30.7415929203539823" y1="17.5522123893805309" x2="30.8690265486725664" y2="18.1893805309734512" style="stroke:green;stroke-width:1" />
 <line x1="30.8690265486725664" y1="18.1893805309734512" x2="30.9327433628318584" y2="18.8265486725663716" style="stroke:green;stroke-width:1" />
 <line x1="30.9327433628318584" y1="18.8265486725663716" x2="31.1238938053097345" y2="19.4637168141592919" style="stroke:green;stroke-width:1" />
 <line x1="31.1238938053097345" y1="19.4637168141592919" x2="29.0849557522123894" y2="19.4637168141592919" style="stroke:green;stroke-width:1" />
 <line x1="29.0849557522123894" y1="19.4637168141592919" x2="29.2761061946902655" y2="18.8265486725663716" style="stroke:green;stroke-width:1" />
 <line x1="29.2761061946902655" y1="18.8265486725663716" x2="29.4035398230088496" y2="18.1893805309734512" style="stroke:green;stroke-width:1" />
 <line x1="29.4035398230088496" y1="18.1893805309734512" x2="29.4672566371681416" y2="17.5522123893805309" style="stroke:green;stroke-width:1" />
 <line x1="29.4672566371681416" y1="17.5522123893805309" x2="29.5309734513274336" y2="16.9150442477876105" style="stroke:green;stroke-width:1" />
 <line x1="29.5309734513274336" y1="16.9150442477876105" x2="29.5309734513274336" y2="16.2141592920353981" style="stroke:green;stroke-width:1" />
 <line x1="29.5309734513274336" y1="16.2141592920353981" x2="29.4035398230088496" y2="15.5132743362831857" style="stroke:green;stroke-width:1" />
 <line x1="29.4035398230088496" y1="15.5132743362831857" x2="29.4035398230088496" y2="14.8761061946902654" style="stroke:green;stroke-width:1" />
 <line x1="29.4035398230088496" y1="14.8761061946902654" x2="29.2123893805309735" y2="14.302654867256637" style="stroke:green;stroke-width:1" />
 <line x1="29.2123893805309735" y1="14.302654867256637" x2="29.0849557522123894" y2="13.6654867256637167" style="stroke:green;stroke-width:1" />
 <line x1="29.0849557522123894" y1="13.6654867256637167" x2="28.9575221238938053" y2="13.0283185840707963" style="stroke:green;stroke-width:1" />
 <line x1="28.9575221238938053" y1="13.0283185840707963" x2="28.8300884955752213" y2="12.3911504424778761" style="stroke:green;stroke-width:1" />
 <line x1="28.8300884955752213" y1="12.3911504424778761" x2="28.6389380530973451" y2="11.8814159292035398" style="stroke:green;stroke-width:1" />
 <line x1="28.6389380530973451" y1="11.8814159292035398" x2="28.5752212389380531" y2="11.3716814159292035" style="stroke:green;stroke-width:1" />
 <line x1="28.5752212389380531" y1="11.3716814159292035" x2="28.5115044247787611" y2="10.7982300884955752" style="stroke:green;stroke-width:1" />
 <line x1="28.5115044247787611" y1="10.7982300884955752" x2="28.5115044247787611" y2="10.0973451327433628" style="stroke:green;stroke-width:1" />
 <line x1="28.5115044247787611" y1="10.0973451327433628" x2="28.5752212389380531" y2="9.52389380530973452" style="stroke:green;stroke-width:1" />
 <line x1="28.5752212389380531" y1="9.52389380530973452" x2="28.7026548672566372" y2="9.07787610619469027" style="stroke:green;stroke-width:1" />
 <line x1="28.7026548672566372" y1="9.07787610619469027" x2="28.9575221238938053" y2="8.69557522123893806" style="stroke:green;stroke-width:1" />
 <line x1="28.9575221238938053" y1="8.69557522123893806" x2="29.2761061946902655" y2="8.31327433628318585" style="stroke:green;stroke-width:1" />
 <line x1="29.2761061946902655" y1="8.31327433628318585" x2="29.6584070796460177" y2="8.12212389380530974" style="stroke:green;stroke-width:1" />
 <line x1="29.6584070796460177" y1="8.12212389380530974" x2="30.104424778761062" y2="7.99469026548672567" style="stroke:green;stroke-width:1" />
 <line x1="31.5699115044247788" y1="9.07787610619469027" x2="32.015929203539823" y2="9.14159292035398231" style="stroke:green;stroke-width:1" />
 <line x1="32.015929203539823" y1="9.14159292035398231" x2="32.3982300884955752" y2="9.20530973451327434" style="stroke:green;stroke-width:1" />
 <line x1="32.3982300884955752" y1="9.20530973451327434" x2="32.7168141592920354" y2="9.33274336283185842" style="stroke:green;stroke-width:1" />
 <line x1="32.7168141592920354" y1="9.33274336283185842" x2="32.9716814159292036" y2="9.46017699115044249" style="stroke:green;stroke-width:1" />
 <line x1="32.9716814159292036" y1="9.46017699115044249" x2="33.2265486725663717" y2="9.71504424778761063" style="stroke:green;stroke-width:1" />
 <line x1="33.2265486725663717" y1="9.71504424778761063" x2="33.3539823008849558" y2="10.0336283185840708" style="stroke:green;stroke-width:1" />
 <line x1="33.3539823008849558" y1="10.0336283185840708" x2="33.5451327433628319" y2="10.3522123893805309" style="stroke:green;stroke-width:1" />
 <line x1="33.5451327433628319" y1="10.3522123893805309" x2="33.6088495575221239" y2="10.6707964601769911" style="stroke:green;stroke-width:1" />
 <line x1="33.6088495575221239" y1="10.6707964601769911" x2="33.6088495575221239" y2="10.9893805309734513" style="stroke:green;stroke-width:1" />
 <line x1="33.6088495575221239" y1="10.9893805309734513" x2="33.6088495575221239" y2="19.527433628318584" style="stroke:green;stroke-width:1" />

</svg>
