<!DOCTYPE svg PUBLIC "-//W3C//DTD SVG 1.1//EN" "http://www.w3.org/Graphics/SVG/1.1/DTD/svg11.dtd">
<svg width="36" height="46" xmlns="http://www.w3.org/2000/svg">
 <!-- Gardiner/Zz376515 at (0,.60465116279069768) in red, scale=.0558139534883720928, mirror=0 -->
 <line x1="5" y1="34.8604651162790695" x2="30.1162790697674416" y2="34.8604651162790695" style="stroke:red;stroke-width:1" />
 <line x1="30.1162790697674416" y1="37.9302325581395346" x2="5" y2="37.9302325581395346" style="stroke:red;stroke-width:1" />
 <line x1="5" y1="40.9999999999999997" x2="30.1162790697674416" y2="40.9999999999999997" style="stroke:red;stroke-width:1" />
 <line x1="8.0697674418604651" y1="34.8604651162790695" x2="8.0697674418604651" y2="40.9999999999999997" style="stroke:red;stroke-width:1" />
 <line x1="12.8139534883720929" y1="34.8604651162790695" x2="12.8139534883720929" y2="40.9999999999999997" style="stroke:red;stroke-width:1" />
 <line x1="17.5581395348837208" y1="34.8604651162790695" x2="17.5581395348837208" y2="40.9999999999999997" style="stroke:red;stroke-width:1" />
 <line x1="22.3023255813953486" y1="34.8604651162790695" x2="22.3023255813953486" y2="40.9999999999999997" style="stroke:red;stroke-width:1" />
 <line x1="27.0465116279069765" y1="34.8604651162790695" x2="27.0465116279069765" y2="40.9999999999999997" style="stroke:red;stroke-width:1" />
 <line x1="30.0046511627906974" y1="22.0790697674418603" x2="5" y2="22.0790697674418603" style="stroke:red;stroke-width:1" />
 <line x1="8.79534883720930231" y1="22.0790697674418603" x2="8.34883720930232556" y2="20.73953488372093" style="stroke:red;stroke-width:1" />
 <line x1="8.34883720930232556" y1="20.73953488372093" x2="7.62325581395348836" y2="19.6232558139534882" style="stroke:red;stroke-width:1" />
 <line x1="7.62325581395348836" y1="19.6232558139534882" x2="6.5069767441860465" y2="18.7860465116279068" style="stroke:red;stroke-width:1" />
 <line x1="6.5069767441860465" y1="18.7860465116279068" x2="5.61395348837209302" y2="18.7860465116279068" style="stroke:red;stroke-width:1" />
 <line x1="5.61395348837209302" y1="18.7860465116279068" x2="5.11162790697674418" y2="19.2883720930232556" style="stroke:red;stroke-width:1" />
 <line x1="5.11162790697674418" y1="19.2883720930232556" x2="5" y2="19.9581395348837207" style="stroke:red;stroke-width:1" />
 <line x1="5" y1="19.9581395348837207" x2="5.22325581395348837" y2="21.0744186046511626" style="stroke:red;stroke-width:1" />
 <line x1="5.22325581395348837" y1="21.0744186046511626" x2="5.55813953488372092" y2="22.0790697674418603" style="stroke:red;stroke-width:1" />
 <line x1="5.55813953488372092" y1="22.0790697674418603" x2="6.56279069767441859" y2="25.4279069767441858" style="stroke:red;stroke-width:1" />
 <line x1="6.56279069767441859" y1="25.4279069767441858" x2="8.34883720930232556" y2="25.4279069767441858" style="stroke:red;stroke-width:1" />
 <line x1="8.34883720930232556" y1="25.4279069767441858" x2="8.79534883720930231" y2="22.0790697674418603" style="stroke:red;stroke-width:1" />
 <line x1="17.5581395348837208" y1="22.0790697674418603" x2="17.5581395348837208" y2="34.8604651162790695" style="stroke:red;stroke-width:1" />
 <line x1="13.4837209302325581" y1="22.0790697674418603" x2="17.5581395348837208" y2="27.3813953488372091" style="stroke:red;stroke-width:1" />
 <line x1="17.5581395348837208" y1="22.0790697674418603" x2="18.8418604651162789" y2="23.7534883720930231" style="stroke:red;stroke-width:1" />
 <line x1="18.8418604651162789" y1="23.7534883720930231" x2="19.6790697674418603" y2="25.53953488372093" style="stroke:red;stroke-width:1" />
 <line x1="19.6790697674418603" y1="25.53953488372093" x2="20.3488372093023254" y2="27.2139534883720928" style="stroke:red;stroke-width:1" />
 <line x1="20.3488372093023254" y1="27.2139534883720928" x2="20.5720930232558138" y2="28.2744186046511626" style="stroke:red;stroke-width:1" />
 <line x1="20.5720930232558138" y1="28.2744186046511626" x2="20.3488372093023254" y2="28.9441860465116277" style="stroke:red;stroke-width:1" />
 <line x1="20.3488372093023254" y1="28.9441860465116277" x2="19.9581395348837207" y2="29.3348837209302323" style="stroke:red;stroke-width:1" />
 <line x1="19.9581395348837207" y1="29.3348837209302323" x2="19.3999999999999998" y2="29.3906976744186044" style="stroke:red;stroke-width:1" />
 <line x1="19.3999999999999998" y1="29.3906976744186044" x2="18.897674418604651" y2="29.0558139534883719" style="stroke:red;stroke-width:1" />
 <line x1="18.897674418604651" y1="29.0558139534883719" x2="19.2325581395348835" y2="30.2279069767441858" style="stroke:red;stroke-width:1" />
 <line x1="19.2325581395348835" y1="30.2279069767441858" x2="19.3441860465116277" y2="30.953488372093023" style="stroke:red;stroke-width:1" />
 <line x1="19.3441860465116277" y1="30.953488372093023" x2="19.2883720930232556" y2="31.567441860465116" style="stroke:red;stroke-width:1" />
 <line x1="19.2883720930232556" y1="31.567441860465116" x2="18.7302325581395347" y2="31.7906976744186044" style="stroke:red;stroke-width:1" />
 <line x1="18.7302325581395347" y1="31.7906976744186044" x2="18.1720930232558138" y2="31.511627906976744" style="stroke:red;stroke-width:1" />
 <line x1="18.1720930232558138" y1="31.511627906976744" x2="17.5581395348837208" y2="31.0651162790697672" style="stroke:red;stroke-width:1" />
 <line x1="9.07441860465116277" y1="16.6093023255813952" x2="8.62790697674418603" y2="16.6093023255813952" style="stroke:red;stroke-width:1" />
 <line x1="8.62790697674418603" y1="16.6093023255813952" x2="8.34883720930232556" y2="16.4418604651162789" style="stroke:red;stroke-width:1" />
 <line x1="8.34883720930232556" y1="16.4418604651162789" x2="8.12558139534883719" y2="16.1627906976744184" style="stroke:red;stroke-width:1" />
 <line x1="8.12558139534883719" y1="16.1627906976744184" x2="7.95813953488372091" y2="16.0511627906976742" style="stroke:red;stroke-width:1" />
 <line x1="7.95813953488372091" y1="16.0511627906976742" x2="7.62325581395348836" y2="16.1069767441860463" style="stroke:red;stroke-width:1" />
 <line x1="7.62325581395348836" y1="16.1069767441860463" x2="7.2883720930232558" y2="16.1069767441860463" style="stroke:red;stroke-width:1" />
 <line x1="7.2883720930232558" y1="16.1069767441860463" x2="7.12093023255813952" y2="16.1069767441860463" style="stroke:red;stroke-width:1" />
 <line x1="7.12093023255813952" y1="16.1069767441860463" x2="6.95348837209302324" y2="15.8279069767441859" style="stroke:red;stroke-width:1" />
 <line x1="6.95348837209302324" y1="15.8279069767441859" x2="6.78604651162790696" y2="15.7162790697674417" style="stroke:red;stroke-width:1" />
 <line x1="6.78604651162790696" y1="15.7162790697674417" x2="6.5069767441860465" y2="15.6604651162790696" style="stroke:red;stroke-width:1" />
 <line x1="6.5069767441860465" y1="15.6604651162790696" x2="6.22790697674418604" y2="15.6604651162790696" style="stroke:red;stroke-width:1" />
 <line x1="6.22790697674418604" y1="15.6604651162790696" x2="6.00465116279069767" y2="15.5488372093023254" style="stroke:red;stroke-width:1" />
 <line x1="6.00465116279069767" y1="15.5488372093023254" x2="5.83720930232558139" y2="15.4930232558139533" style="stroke:red;stroke-width:1" />
 <line x1="5.83720930232558139" y1="15.4930232558139533" x2="5.50232558139534883" y2="15.4372093023255812" style="stroke:red;stroke-width:1" />
 <line x1="5.50232558139534883" y1="15.4372093023255812" x2="5.44651162790697674" y2="15.5488372093023254" style="stroke:red;stroke-width:1" />
 <line x1="5.44651162790697674" y1="15.5488372093023254" x2="5.55813953488372092" y2="15.7162790697674417" style="stroke:red;stroke-width:1" />
 <line x1="5.55813953488372092" y1="15.7162790697674417" x2="6.33953488372093022" y2="16.1069767441860463" style="stroke:red;stroke-width:1" />
 <line x1="6.33953488372093022" y1="16.1069767441860463" x2="7.56744186046511626" y2="16.8325581395348835" style="stroke:red;stroke-width:1" />
 <line x1="7.56744186046511626" y1="16.8325581395348835" x2="8.57209302325581393" y2="17.5023255813953487" style="stroke:red;stroke-width:1" />
 <line x1="8.57209302325581393" y1="17.5023255813953487" x2="9.35348837209302323" y2="18.1162790697674417" style="stroke:red;stroke-width:1" />
 <line x1="9.35348837209302323" y1="18.1162790697674417" x2="9.96744186046511625" y2="18.3953488372093021" style="stroke:red;stroke-width:1" />
 <line x1="9.96744186046511625" y1="18.3953488372093021" x2="10.7488372093023255" y2="18.8418604651162789" style="stroke:red;stroke-width:1" />
 <line x1="10.7488372093023255" y1="18.8418604651162789" x2="11.3627906976744185" y2="18.9534883720930231" style="stroke:red;stroke-width:1" />
 <line x1="11.3627906976744185" y1="18.9534883720930231" x2="11.9767441860465116" y2="19.1767441860465114" style="stroke:red;stroke-width:1" />
 <line x1="12.5906976744186046" y1="18.3953488372093021" x2="12.1999999999999999" y2="18.8418604651162789" style="stroke:red;stroke-width:1" />
 <line x1="12.1999999999999999" y1="18.8418604651162789" x2="11.9767441860465116" y2="19.1767441860465114" style="stroke:red;stroke-width:1" />
 <line x1="11.9767441860465116" y1="19.1767441860465114" x2="11.8651162790697674" y2="19.5674418604651161" style="stroke:red;stroke-width:1" />
 <line x1="11.8651162790697674" y1="19.5674418604651161" x2="11.8651162790697674" y2="20.0139534883720928" style="stroke:red;stroke-width:1" />
 <line x1="11.8651162790697674" y1="20.0139534883720928" x2="11.8651162790697674" y2="20.2372093023255812" style="stroke:red;stroke-width:1" />
 <line x1="11.8651162790697674" y1="20.2372093023255812" x2="11.7534883720930232" y2="20.4604651162790696" style="stroke:red;stroke-width:1" />
 <line x1="11.7534883720930232" y1="20.4604651162790696" x2="11.5302325581395348" y2="20.5162790697674417" style="stroke:red;stroke-width:1" />
 <line x1="11.5302325581395348" y1="20.5162790697674417" x2="9.91162790697674416" y2="20.5720930232558138" style="stroke:red;stroke-width:1" />
 <line x1="9.91162790697674416" y1="20.5720930232558138" x2="9.6325581395348837" y2="20.6279069767441859" style="stroke:red;stroke-width:1" />
 <line x1="9.6325581395348837" y1="20.6279069767441859" x2="9.40930232558139533" y2="20.7953488372093021" style="stroke:red;stroke-width:1" />
 <line x1="9.40930232558139533" y1="20.7953488372093021" x2="9.29767441860465114" y2="21.0186046511627905" style="stroke:red;stroke-width:1" />
 <line x1="9.29767441860465114" y1="21.0186046511627905" x2="9.24186046511627905" y2="21.2418604651162789" style="stroke:red;stroke-width:1" />
 <line x1="9.24186046511627905" y1="21.2418604651162789" x2="12.3116279069767441" y2="21.2418604651162789" style="stroke:red;stroke-width:1" />
 <line x1="12.3116279069767441" y1="21.2418604651162789" x2="12.7023255813953488" y2="21.1302325581395347" style="stroke:red;stroke-width:1" />
 <line x1="12.7023255813953488" y1="21.1302325581395347" x2="13.1488372093023255" y2="20.9069767441860463" style="stroke:red;stroke-width:1" />
 <line x1="13.1488372093023255" y1="20.9069767441860463" x2="13.3162790697674418" y2="20.5720930232558138" style="stroke:red;stroke-width:1" />
 <line x1="13.3162790697674418" y1="20.5720930232558138" x2="13.5395348837209301" y2="20.125581395348837" style="stroke:red;stroke-width:1" />
 <line x1="13.5395348837209301" y1="20.125581395348837" x2="13.5953488372093022" y2="19.6232558139534882" style="stroke:red;stroke-width:1" />
 <line x1="13.5953488372093022" y1="19.6232558139534882" x2="13.5395348837209301" y2="19.1209302325581393" style="stroke:red;stroke-width:1" />
 <line x1="13.5953488372093022" y1="19.6232558139534882" x2="14.2093023255813952" y2="19.7906976744186045" style="stroke:red;stroke-width:1" />
 <line x1="14.2093023255813952" y1="19.7906976744186045" x2="15.2139534883720929" y2="19.9581395348837207" style="stroke:red;stroke-width:1" />
 <line x1="15.2139534883720929" y1="19.9581395348837207" x2="16.1069767441860463" y2="20.0139534883720928" style="stroke:red;stroke-width:1" />
 <line x1="16.1069767441860463" y1="20.0139534883720928" x2="16.9999999999999998" y2="20.0697674418604649" style="stroke:red;stroke-width:1" />
 <line x1="16.9999999999999998" y1="20.0697674418604649" x2="17.6139534883720928" y2="20.0697674418604649" style="stroke:red;stroke-width:1" />
 <line x1="18.7302325581395347" y1="17.9488372093023254" x2="18.283720930232558" y2="18.283720930232558" style="stroke:red;stroke-width:1" />
 <line x1="18.283720930232558" y1="18.283720930232558" x2="17.9488372093023254" y2="18.6744186046511626" style="stroke:red;stroke-width:1" />
 <line x1="17.9488372093023254" y1="18.6744186046511626" x2="17.6697674418604649" y2="19.1209302325581393" style="stroke:red;stroke-width:1" />
 <line x1="17.6697674418604649" y1="19.1209302325581393" x2="17.6139534883720928" y2="19.5674418604651161" style="stroke:red;stroke-width:1" />
 <line x1="17.6139534883720928" y1="19.5674418604651161" x2="17.6139534883720928" y2="20.0697674418604649" style="stroke:red;stroke-width:1" />
 <line x1="17.6139534883720928" y1="20.0697674418604649" x2="17.6697674418604649" y2="20.5162790697674417" style="stroke:red;stroke-width:1" />
 <line x1="17.6697674418604649" y1="20.5162790697674417" x2="15.7720930232558138" y2="20.5162790697674417" style="stroke:red;stroke-width:1" />
 <line x1="15.7720930232558138" y1="20.5162790697674417" x2="15.4372093023255812" y2="20.5720930232558138" style="stroke:red;stroke-width:1" />
 <line x1="15.4372093023255812" y1="20.5720930232558138" x2="15.2139534883720929" y2="20.73953488372093" style="stroke:red;stroke-width:1" />
 <line x1="15.2139534883720929" y1="20.73953488372093" x2="15.0465116279069766" y2="21.0186046511627905" style="stroke:red;stroke-width:1" />
 <line x1="15.0465116279069766" y1="21.0186046511627905" x2="14.9348837209302324" y2="21.2418604651162789" style="stroke:red;stroke-width:1" />
 <line x1="14.9348837209302324" y1="21.2418604651162789" x2="18.283720930232558" y2="21.2418604651162789" style="stroke:red;stroke-width:1" />
 <line x1="18.283720930232558" y1="21.2418604651162789" x2="18.7860465116279068" y2="21.1860465116279068" style="stroke:red;stroke-width:1" />
 <line x1="18.7860465116279068" y1="21.1860465116279068" x2="19.2325581395348835" y2="21.0744186046511626" style="stroke:red;stroke-width:1" />
 <line x1="19.2325581395348835" y1="21.0744186046511626" x2="19.6232558139534882" y2="20.7953488372093021" style="stroke:red;stroke-width:1" />
 <line x1="19.6232558139534882" y1="20.7953488372093021" x2="19.9581395348837207" y2="20.4604651162790696" style="stroke:red;stroke-width:1" />
 <line x1="19.9581395348837207" y1="20.4604651162790696" x2="20.125581395348837" y2="20.0139534883720928" style="stroke:red;stroke-width:1" />
 <line x1="20.125581395348837" y1="20.0139534883720928" x2="20.2372093023255812" y2="19.5674418604651161" style="stroke:red;stroke-width:1" />
 <line x1="20.2372093023255812" y1="19.5674418604651161" x2="20.2372093023255812" y2="19.2883720930232556" style="stroke:red;stroke-width:1" />
 <line x1="20.2372093023255812" y1="19.2883720930232556" x2="20.125581395348837" y2="18.8418604651162789" style="stroke:red;stroke-width:1" />
 <line x1="20.2372093023255812" y1="19.5674418604651161" x2="21.6325581395348835" y2="19.9581395348837207" style="stroke:red;stroke-width:1" />
 <line x1="21.6325581395348835" y1="19.9581395348837207" x2="23.0837209302325579" y2="20.1813953488372091" style="stroke:red;stroke-width:1" />
 <line x1="23.0837209302325579" y1="20.1813953488372091" x2="24.6465116279069765" y2="20.4604651162790696" style="stroke:red;stroke-width:1" />
 <line x1="24.6465116279069765" y1="20.4604651162790696" x2="26.3767441860465114" y2="20.6279069767441859" style="stroke:red;stroke-width:1" />
 <line x1="26.3767441860465114" y1="20.6279069767441859" x2="27.8279069767441858" y2="20.6837209302325579" style="stroke:red;stroke-width:1" />
 <line x1="27.8279069767441858" y1="20.6837209302325579" x2="29.5581395348837207" y2="20.73953488372093" style="stroke:red;stroke-width:1" />
 <line x1="29.5581395348837207" y1="20.73953488372093" x2="29.8372093023255812" y2="20.6279069767441859" style="stroke:red;stroke-width:1" />
 <line x1="29.8372093023255812" y1="20.6279069767441859" x2="29.9488372093023254" y2="20.2930232558139533" style="stroke:red;stroke-width:1" />
 <line x1="29.9488372093023254" y1="20.2930232558139533" x2="29.8930232558139533" y2="20.0139534883720928" style="stroke:red;stroke-width:1" />
 <line x1="29.8930232558139533" y1="20.0139534883720928" x2="29.5581395348837207" y2="19.9023255813953486" style="stroke:red;stroke-width:1" />
 <line x1="29.5581395348837207" y1="19.9023255813953486" x2="28.3302325581395347" y2="19.7348837209302324" style="stroke:red;stroke-width:1" />
 <line x1="28.3302325581395347" y1="19.7348837209302324" x2="26.9906976744186044" y2="19.5674418604651161" style="stroke:red;stroke-width:1" />
 <line x1="26.9906976744186044" y1="19.5674418604651161" x2="26.153488372093023" y2="19.3999999999999998" style="stroke:red;stroke-width:1" />
 <line x1="26.153488372093023" y1="19.3999999999999998" x2="25.4279069767441858" y2="19.2325581395348835" style="stroke:red;stroke-width:1" />
 <line x1="25.4279069767441858" y1="19.2325581395348835" x2="24.4232558139534882" y2="18.897674418604651" style="stroke:red;stroke-width:1" />
 <line x1="24.4232558139534882" y1="18.897674418604651" x2="23.3627906976744184" y2="18.4511627906976742" style="stroke:red;stroke-width:1" />
 <line x1="23.3627906976744184" y1="18.4511627906976742" x2="21.7999999999999998" y2="17.7813953488372091" style="stroke:red;stroke-width:1" />
 <line x1="21.7999999999999998" y1="17.7813953488372091" x2="20.3488372093023254" y2="17.1674418604651161" style="stroke:red;stroke-width:1" />
 <line x1="20.3488372093023254" y1="17.1674418604651161" x2="19.3441860465116277" y2="16.7767441860465115" style="stroke:red;stroke-width:1" />
 <line x1="19.3441860465116277" y1="16.7767441860465115" x2="18.5069767441860463" y2="16.5534883720930231" style="stroke:red;stroke-width:1" />
 <line x1="18.5069767441860463" y1="16.5534883720930231" x2="17.6697674418604649" y2="16.3302325581395347" style="stroke:red;stroke-width:1" />
 <line x1="17.6697674418604649" y1="16.3302325581395347" x2="17.0558139534883719" y2="16.2744186046511626" style="stroke:red;stroke-width:1" />
 <line x1="17.0558139534883719" y1="16.2744186046511626" x2="16.497674418604651" y2="16.2744186046511626" style="stroke:red;stroke-width:1" />
 <line x1="16.497674418604651" y1="16.2744186046511626" x2="15.9953488372093022" y2="16.3302325581395347" style="stroke:red;stroke-width:1" />
 <line x1="15.9953488372093022" y1="16.3302325581395347" x2="14.3767441860465115" y2="16.6093023255813952" style="stroke:red;stroke-width:1" />
 <line x1="14.3767441860465115" y1="16.6093023255813952" x2="13.7069767441860463" y2="16.6093023255813952" style="stroke:red;stroke-width:1" />
 <line x1="13.7069767441860463" y1="16.6093023255813952" x2="13.2046511627906976" y2="16.5534883720930231" style="stroke:red;stroke-width:1" />
 <line x1="13.2046511627906976" y1="16.5534883720930231" x2="12.5906976744186046" y2="16.3860465116279068" style="stroke:red;stroke-width:1" />
 <line x1="12.5906976744186046" y1="16.3860465116279068" x2="12.1441860465116278" y2="16.1627906976744184" style="stroke:red;stroke-width:1" />
 <line x1="12.1441860465116278" y1="16.1627906976744184" x2="11.5860465116279069" y2="15.7162790697674417" style="stroke:red;stroke-width:1" />
 <line x1="11.5860465116279069" y1="15.7162790697674417" x2="11.1395348837209302" y2="15.4372093023255812" style="stroke:red;stroke-width:1" />
 <line x1="11.1395348837209302" y1="15.4372093023255812" x2="10.5255813953488371" y2="15.1581395348837208" style="stroke:red;stroke-width:1" />
 <line x1="10.5255813953488371" y1="15.1581395348837208" x2="10.0232558139534883" y2="15.0465116279069766" style="stroke:red;stroke-width:1" />
 <line x1="10.0232558139534883" y1="15.0465116279069766" x2="9.5767441860465116" y2="14.9906976744186045" style="stroke:red;stroke-width:1" />
 <line x1="9.5767441860465116" y1="14.9906976744186045" x2="9.13023255813953486" y2="14.9906976744186045" style="stroke:red;stroke-width:1" />
 <line x1="9.13023255813953486" y1="14.9906976744186045" x2="8.46046511627906975" y2="15.1023255813953487" style="stroke:red;stroke-width:1" />
 <line x1="8.46046511627906975" y1="15.1023255813953487" x2="7.90232558139534882" y2="15.1581395348837208" style="stroke:red;stroke-width:1" />
 <line x1="7.90232558139534882" y1="15.1581395348837208" x2="7.17674418604651161" y2="15.1581395348837208" style="stroke:red;stroke-width:1" />
 <line x1="7.17674418604651161" y1="15.1581395348837208" x2="6.56279069767441859" y2="15.0465116279069766" style="stroke:red;stroke-width:1" />
 <line x1="6.56279069767441859" y1="15.0465116279069766" x2="6.17209302325581394" y2="14.8232558139534882" style="stroke:red;stroke-width:1" />
 <line x1="6.17209302325581394" y1="14.8232558139534882" x2="5.83720930232558139" y2="14.4883720930232556" style="stroke:red;stroke-width:1" />
 <line x1="5.83720930232558139" y1="14.4883720930232556" x2="5.50232558139534883" y2="14.4883720930232556" style="stroke:red;stroke-width:1" />
 <line x1="5.50232558139534883" y1="14.4883720930232556" x2="5.33488372093023255" y2="14.6558139534883719" style="stroke:red;stroke-width:1" />
 <line x1="5.33488372093023255" y1="14.6558139534883719" x2="5.27906976744186046" y2="14.9348837209302324" style="stroke:red;stroke-width:1" />
 <line x1="5.27906976744186046" y1="14.9348837209302324" x2="5.39069767441860464" y2="15.2139534883720929" style="stroke:red;stroke-width:1" />
 <line x1="5.39069767441860464" y1="15.2139534883720929" x2="5.50232558139534883" y2="15.4372093023255812" style="stroke:red;stroke-width:1" />
 <line x1="6.67441860465116278" y1="6.61860465116279069" x2="10.413953488372093" y2="10.8046511627906976" style="stroke:red;stroke-width:1" />
 <line x1="10.413953488372093" y1="10.8046511627906976" x2="10.0232558139534883" y2="11.1395348837209302" style="stroke:red;stroke-width:1" />
 <line x1="10.0232558139534883" y1="11.1395348837209302" x2="9.5767441860465116" y2="11.8651162790697674" style="stroke:red;stroke-width:1" />
 <line x1="9.5767441860465116" y1="11.8651162790697674" x2="9.40930232558139533" y2="12.1441860465116278" style="stroke:red;stroke-width:1" />
 <line x1="9.40930232558139533" y1="12.1441860465116278" x2="9.18604651162790696" y2="12.5906976744186046" style="stroke:red;stroke-width:1" />
 <line x1="9.18604651162790696" y1="12.5906976744186046" x2="9.01860465116279068" y2="13.0930232558139534" style="stroke:red;stroke-width:1" />
 <line x1="9.01860465116279068" y1="13.0930232558139534" x2="9.07441860465116277" y2="13.3720930232558139" style="stroke:red;stroke-width:1" />
 <line x1="9.07441860465116277" y1="13.3720930232558139" x2="9.96744186046511625" y2="14.9348837209302324" style="stroke:red;stroke-width:1" />
 <line x1="9.96744186046511625" y1="14.9348837209302324" x2="9.68837209302325579" y2="15.0465116279069766" style="stroke:red;stroke-width:1" />
 <line x1="9.68837209302325579" y1="15.0465116279069766" x2="5.11162790697674418" y2="6.73023255813953487" style="stroke:red;stroke-width:1" />
 <line x1="5.11162790697674418" y1="6.73023255813953487" x2="5" y2="6.33953488372093022" style="stroke:red;stroke-width:1" />
 <line x1="5" y1="6.33953488372093022" x2="5" y2="6.00465116279069767" style="stroke:red;stroke-width:1" />
 <line x1="5" y1="6.00465116279069767" x2="5.05581395348837209" y2="5.83720930232558139" style="stroke:red;stroke-width:1" />
 <line x1="5.05581395348837209" y1="5.83720930232558139" x2="5.16744186046511627" y2="5.55813953488372092" style="stroke:red;stroke-width:1" />
 <line x1="5.16744186046511627" y1="5.55813953488372092" x2="5.27906976744186046" y2="5.44651162790697674" style="stroke:red;stroke-width:1" />
 <line x1="5.27906976744186046" y1="5.44651162790697674" x2="5.44651162790697674" y2="5.22325581395348837" style="stroke:red;stroke-width:1" />
 <line x1="5.44651162790697674" y1="5.22325581395348837" x2="5.55813953488372092" y2="5.11162790697674418" style="stroke:red;stroke-width:1" />
 <line x1="5.55813953488372092" y1="5.11162790697674418" x2="5.7255813953488372" y2="5.05581395348837209" style="stroke:red;stroke-width:1" />
 <line x1="5.7255813953488372" y1="5.05581395348837209" x2="6.00465116279069767" y2="5" style="stroke:red;stroke-width:1" />
 <line x1="6.00465116279069767" y1="5" x2="6.28372093023255813" y2="5" style="stroke:red;stroke-width:1" />
 <line x1="6.28372093023255813" y1="5" x2="6.56279069767441859" y2="5.11162790697674418" style="stroke:red;stroke-width:1" />
 <line x1="6.56279069767441859" y1="5.11162790697674418" x2="6.67441860465116278" y2="5.16744186046511627" style="stroke:red;stroke-width:1" />
 <line x1="6.67441860465116278" y1="5.16744186046511627" x2="6.84186046511627906" y2="5.27906976744186046" style="stroke:red;stroke-width:1" />
 <line x1="6.84186046511627906" y1="5.27906976744186046" x2="6.95348837209302324" y2="5.44651162790697674" style="stroke:red;stroke-width:1" />
 <line x1="6.95348837209302324" y1="5.44651162790697674" x2="7.06511627906976743" y2="5.61395348837209302" style="stroke:red;stroke-width:1" />
 <line x1="7.06511627906976743" y1="5.61395348837209302" x2="7.12093023255813952" y2="5.89302325581395348" style="stroke:red;stroke-width:1" />
 <line x1="7.12093023255813952" y1="5.89302325581395348" x2="7.12093023255813952" y2="6.11627906976744185" style="stroke:red;stroke-width:1" />
 <line x1="7.12093023255813952" y1="6.11627906976744185" x2="7.00930232558139534" y2="6.33953488372093022" style="stroke:red;stroke-width:1" />
 <line x1="7.00930232558139534" y1="6.33953488372093022" x2="6.84186046511627906" y2="6.5069767441860465" style="stroke:red;stroke-width:1" />
 <line x1="6.84186046511627906" y1="6.5069767441860465" x2="6.67441860465116278" y2="6.61860465116279069" style="stroke:red;stroke-width:1" />

</svg>
