<!DOCTYPE svg PUBLIC "-//W3C//DTD SVG 1.1//EN" "http://www.w3.org/Graphics/SVG/1.1/DTD/svg11.dtd">
<svg width="47" height="44" xmlns="http://www.w3.org/2000/svg">
 <!-- Gardiner/Zz376515 at (0,6) in red, scale=.08, mirror=0 -->
 <path d="M 5 36.48
          A 1.52 1.52 0 1 0 8.04 36.48
          A 1.52 1.52 0 1 0 5 36.48"
       stroke="red" fill="white" stroke-width="1" fill-opacity="0.0"/>
 <line x1="6.6" y1="35.04" x2="6.76" y2="22.16" style="stroke:red;stroke-width:1" />
 <line x1="6.76" y1="22.16" x2="7" y2="21.44" style="stroke:red;stroke-width:1" />
 <line x1="7" y1="21.44" x2="7.64" y2="21.28" style="stroke:red;stroke-width:1" />
 <line x1="7.64" y1="21.28" x2="8.44" y2="21.52" style="stroke:red;stroke-width:1" />
 <line x1="8.44" y1="21.52" x2="10.04" y2="22.64" style="stroke:red;stroke-width:1" />
 <line x1="10.04" y1="22.64" x2="13" y2="24.16" style="stroke:red;stroke-width:1" />
 <line x1="13" y1="24.16" x2="16.92" y2="25.84" style="stroke:red;stroke-width:1" />
 <line x1="16.92" y1="25.84" x2="21.48" y2="27.36" style="stroke:red;stroke-width:1" />
 <line x1="21.48" y1="27.36" x2="23.88" y2="27.76" style="stroke:red;stroke-width:1" />
 <line x1="23.88" y1="27.76" x2="26.04" y2="27.76" style="stroke:red;stroke-width:1" />
 <line x1="26.04" y1="27.76" x2="28.28" y2="27.44" style="stroke:red;stroke-width:1" />
 <line x1="28.28" y1="27.44" x2="30.52" y2="26.88" style="stroke:red;stroke-width:1" />
 <line x1="30.52" y1="26.88" x2="34.2" y2="25.04" style="stroke:red;stroke-width:1" />
 <line x1="34.2" y1="25.04" x2="37.16" y2="22.96" style="stroke:red;stroke-width:1" />
 <line x1="37.16" y1="22.96" x2="38.68" y2="21.68" style="stroke:red;stroke-width:1" />
 <line x1="38.68" y1="21.68" x2="39.72" y2="21.04" style="stroke:red;stroke-width:1" />
 <line x1="39.72" y1="21.04" x2="40.6" y2="21.2" style="stroke:red;stroke-width:1" />
 <line x1="40.6" y1="21.2" x2="41" y2="21.76" style="stroke:red;stroke-width:1" />
 <line x1="41" y1="21.76" x2="40.92" y2="22.88" style="stroke:red;stroke-width:1" />
 <line x1="40.92" y1="22.88" x2="40.04" y2="24" style="stroke:red;stroke-width:1" />
 <line x1="40.04" y1="24" x2="38.52" y2="25.6" style="stroke:red;stroke-width:1" />
 <line x1="38.52" y1="25.6" x2="36.44" y2="27.12" style="stroke:red;stroke-width:1" />
 <line x1="36.44" y1="27.12" x2="33.56" y2="28.72" style="stroke:red;stroke-width:1" />
 <line x1="33.56" y1="28.72" x2="30.6" y2="29.76" style="stroke:red;stroke-width:1" />
 <line x1="30.6" y1="29.76" x2="28.52" y2="30.24" style="stroke:red;stroke-width:1" />
 <line x1="28.52" y1="30.24" x2="26.28" y2="30.64" style="stroke:red;stroke-width:1" />
 <line x1="26.28" y1="30.64" x2="23.96" y2="30.56" style="stroke:red;stroke-width:1" />
 <line x1="23.96" y1="30.56" x2="21.56" y2="30.16" style="stroke:red;stroke-width:1" />
 <line x1="21.56" y1="30.16" x2="19.24" y2="29.52" style="stroke:red;stroke-width:1" />
 <line x1="19.24" y1="29.52" x2="16.92" y2="28.88" style="stroke:red;stroke-width:1" />
 <line x1="16.92" y1="28.88" x2="12.76" y2="27.2" style="stroke:red;stroke-width:1" />
 <line x1="12.76" y1="27.2" x2="9.64" y2="25.44" style="stroke:red;stroke-width:1" />
 <line x1="9.64" y1="25.44" x2="7.72" y2="24" style="stroke:red;stroke-width:1" />
 <line x1="7.72" y1="24" x2="7.08" y2="23.2" style="stroke:red;stroke-width:1" />
 <line x1="7.08" y1="23.2" x2="6.84" y2="22.56" style="stroke:red;stroke-width:1" />
 <line x1="6.84" y1="22.56" x2="6.84" y2="22.08" style="stroke:red;stroke-width:1" />
 <line x1="16.92" y1="8.16" x2="16.84" y2="25.76" style="stroke:red;stroke-width:1" />
 <line x1="21.4" y1="8.16" x2="21.48" y2="27.28" style="stroke:red;stroke-width:1" />
 <line x1="25.8" y1="8.08" x2="26.2" y2="27.68" style="stroke:red;stroke-width:1" />
 <line x1="30.2" y1="8" x2="30.44" y2="26.8" style="stroke:red;stroke-width:1" />

</svg>
