<svg width="65" height="63" xmlns="http://www.w3.org/2000/svg">
 <!-- Gardiner/A5 at (0,14.4) in purple, scale=.12, mirror=6 -->
 <line x1="58.88" y1="57" x2="41.12" y2="57" style="stroke:purple;stroke-width:1" />
 <line x1="41.12" y1="57" x2="41.12" y2="54.6" style="stroke:purple;stroke-width:1" />
 <line x1="41.12" y1="54.6" x2="29.84" y2="54.6" style="stroke:purple;stroke-width:1" />
 <line x1="29.84" y1="54.6" x2="29.84" y2="52.2" style="stroke:purple;stroke-width:1" />
 <line x1="29.84" y1="52.2" x2="54.08" y2="52.2" style="stroke:purple;stroke-width:1" />
 <line x1="54.08" y1="52.2" x2="54.2" y2="27.48" style="stroke:purple;stroke-width:1" />
 <line x1="54.2" y1="27.48" x2="56.48" y2="27.48" style="stroke:purple;stroke-width:1" />
 <line x1="56.48" y1="27.48" x2="56.48" y2="38.52" style="stroke:purple;stroke-width:1" />
 <line x1="56.48" y1="38.52" x2="59" y2="38.52" style="stroke:purple;stroke-width:1" />
 <line x1="59" y1="38.52" x2="58.88" y2="57" style="stroke:purple;stroke-width:1" />
 <line x1="47.84" y1="40.92" x2="47" y2="39.6" style="stroke:purple;stroke-width:1" />
 <line x1="47" y1="39.6" x2="46.52" y2="38.16" style="stroke:purple;stroke-width:1" />
 <line x1="46.52" y1="38.16" x2="46.04" y2="36.72" style="stroke:purple;stroke-width:1" />
 <line x1="46.04" y1="36.72" x2="43.16" y2="36.96" style="stroke:purple;stroke-width:1" />
 <line x1="43.16" y1="36.96" x2="41.36" y2="35.16" style="stroke:purple;stroke-width:1" />
 <line x1="41.36" y1="35.16" x2="41.84" y2="34.32" style="stroke:purple;stroke-width:1" />
 <line x1="41.84" y1="34.32" x2="41.72" y2="33.24" style="stroke:purple;stroke-width:1" />
 <line x1="41.72" y1="33.24" x2="41.48" y2="32.16" style="stroke:purple;stroke-width:1" />
 <line x1="41.48" y1="32.16" x2="42.44" y2="31.92" style="stroke:purple;stroke-width:1" />
 <line x1="42.44" y1="31.92" x2="43.64" y2="31.44" style="stroke:purple;stroke-width:1" />
 <line x1="43.64" y1="31.44" x2="44.72" y2="31.2" style="stroke:purple;stroke-width:1" />
 <line x1="44.72" y1="31.2" x2="46.04" y2="31.32" style="stroke:purple;stroke-width:1" />
 <line x1="46.04" y1="31.32" x2="47.48" y2="31.8" style="stroke:purple;stroke-width:1" />
 <line x1="47.48" y1="31.8" x2="48.8" y2="32.4" style="stroke:purple;stroke-width:1" />
 <line x1="48.8" y1="32.4" x2="49.76" y2="33.36" style="stroke:purple;stroke-width:1" />
 <line x1="49.76" y1="33.36" x2="50.6" y2="34.68" style="stroke:purple;stroke-width:1" />
 <line x1="50.6" y1="34.68" x2="50.72" y2="36" style="stroke:purple;stroke-width:1" />
 <line x1="50.72" y1="36" x2="50.72" y2="37.56" style="stroke:purple;stroke-width:1" />
 <line x1="50.72" y1="37.56" x2="49.88" y2="39" style="stroke:purple;stroke-width:1" />
 <line x1="49.88" y1="39" x2="49.04" y2="40.08" style="stroke:purple;stroke-width:1" />
 <line x1="49.04" y1="40.08" x2="47.84" y2="40.92" style="stroke:purple;stroke-width:1" />
 <line x1="47.84" y1="40.92" x2="46.52" y2="41.4" style="stroke:purple;stroke-width:1" />
 <line x1="46.52" y1="41.4" x2="44.84" y2="41.76" style="stroke:purple;stroke-width:1" />
 <line x1="44.84" y1="41.76" x2="43.64" y2="42" style="stroke:purple;stroke-width:1" />
 <line x1="43.64" y1="42" x2="42.2" y2="42.6" style="stroke:purple;stroke-width:1" />
 <line x1="42.2" y1="42.6" x2="42.2" y2="41.88" style="stroke:purple;stroke-width:1" />
 <line x1="42.2" y1="41.88" x2="40.64" y2="41.88" style="stroke:purple;stroke-width:1" />
 <line x1="40.64" y1="41.88" x2="40.28" y2="41.76" style="stroke:purple;stroke-width:1" />
 <line x1="40.28" y1="41.76" x2="39.32" y2="37.32" style="stroke:purple;stroke-width:1" />
 <path d="M 44.72 39.84
          A .6 .6 0 1 0 45.92 39.84
          A .6 .6 0 1 0 44.72 39.84"
       stroke="purple" fill="white" stroke-width="1" fill-opacity="0.0"/>
 <line x1="41.36" y1="35.16" x2="40.4" y2="36.24" style="stroke:purple;stroke-width:1" />
 <line x1="40.4" y1="36.24" x2="39.08" y2="37.08" style="stroke:purple;stroke-width:1" />
 <line x1="39.08" y1="37.08" x2="38.12" y2="37.92" style="stroke:purple;stroke-width:1" />
 <line x1="38.12" y1="37.92" x2="37.04" y2="38.64" style="stroke:purple;stroke-width:1" />
 <line x1="37.04" y1="38.64" x2="35.84" y2="39.36" style="stroke:purple;stroke-width:1" />
 <line x1="35.84" y1="39.36" x2="34.64" y2="40.2" style="stroke:purple;stroke-width:1" />
 <line x1="34.64" y1="40.2" x2="33.56" y2="41.28" style="stroke:purple;stroke-width:1" />
 <line x1="33.56" y1="41.28" x2="34.28" y2="42.6" style="stroke:purple;stroke-width:1" />
 <line x1="34.28" y1="42.6" x2="35.48" y2="43.56" style="stroke:purple;stroke-width:1" />
 <line x1="35.48" y1="43.56" x2="38.24" y2="45.72" style="stroke:purple;stroke-width:1" />
 <line x1="38.24" y1="45.72" x2="39.68" y2="46.44" style="stroke:purple;stroke-width:1" />
 <line x1="39.68" y1="46.44" x2="41.6" y2="47.52" style="stroke:purple;stroke-width:1" />
 <line x1="41.6" y1="47.52" x2="43.28" y2="48.6" style="stroke:purple;stroke-width:1" />
 <line x1="43.28" y1="48.6" x2="44.48" y2="49.8" style="stroke:purple;stroke-width:1" />
 <line x1="44.48" y1="49.8" x2="44.96" y2="50.88" style="stroke:purple;stroke-width:1" />
 <line x1="44.96" y1="50.88" x2="44.84" y2="51.96" style="stroke:purple;stroke-width:1" />
 <line x1="44.84" y1="51.96" x2="44.48" y2="52.08" style="stroke:purple;stroke-width:1" />
 <line x1="44.48" y1="52.08" x2="43.64" y2="51.96" style="stroke:purple;stroke-width:1" />
 <line x1="43.64" y1="51.96" x2="42.68" y2="50.4" style="stroke:purple;stroke-width:1" />
 <line x1="42.68" y1="50.4" x2="41.96" y2="49.68" style="stroke:purple;stroke-width:1" />
 <line x1="41.96" y1="49.68" x2="41.12" y2="49.44" style="stroke:purple;stroke-width:1" />
 <line x1="41.12" y1="49.44" x2="41.72" y2="50.28" style="stroke:purple;stroke-width:1" />
 <line x1="41.72" y1="50.28" x2="42.32" y2="50.64" style="stroke:purple;stroke-width:1" />
 <line x1="42.32" y1="50.64" x2="42.2" y2="51" style="stroke:purple;stroke-width:1" />
 <line x1="42.2" y1="51" x2="41.84" y2="51.12" style="stroke:purple;stroke-width:1" />
 <line x1="41.84" y1="51.12" x2="40.88" y2="50.64" style="stroke:purple;stroke-width:1" />
 <line x1="40.88" y1="50.64" x2="40.04" y2="49.8" style="stroke:purple;stroke-width:1" />
 <line x1="40.04" y1="49.8" x2="39.44" y2="48.6" style="stroke:purple;stroke-width:1" />
 <line x1="39.44" y1="48.6" x2="38.12" y2="47.52" style="stroke:purple;stroke-width:1" />
 <line x1="38.12" y1="47.52" x2="37.16" y2="46.8" style="stroke:purple;stroke-width:1" />
 <line x1="37.16" y1="46.8" x2="35.12" y2="45.72" style="stroke:purple;stroke-width:1" />
 <line x1="35.12" y1="45.72" x2="32.48" y2="44.04" style="stroke:purple;stroke-width:1" />
 <line x1="32.48" y1="44.04" x2="34.64" y2="45.96" style="stroke:purple;stroke-width:1" />
 <line x1="34.64" y1="45.96" x2="36.8" y2="47.76" style="stroke:purple;stroke-width:1" />
 <line x1="36.8" y1="47.76" x2="38" y2="48.36" style="stroke:purple;stroke-width:1" />
 <line x1="38" y1="48.36" x2="39.08" y2="49.32" style="stroke:purple;stroke-width:1" />
 <line x1="39.08" y1="49.32" x2="39.68" y2="50.16" style="stroke:purple;stroke-width:1" />
 <line x1="39.68" y1="50.16" x2="39.68" y2="51.12" style="stroke:purple;stroke-width:1" />
 <line x1="39.68" y1="51.12" x2="39.08" y2="51.96" style="stroke:purple;stroke-width:1" />
 <line x1="39.08" y1="51.96" x2="38.36" y2="51.96" style="stroke:purple;stroke-width:1" />
 <line x1="38.36" y1="51.96" x2="37.88" y2="51.12" style="stroke:purple;stroke-width:1" />
 <line x1="37.88" y1="51.12" x2="37.88" y2="50.28" style="stroke:purple;stroke-width:1" />
 <line x1="37.88" y1="50.28" x2="37.28" y2="49.56" style="stroke:purple;stroke-width:1" />
 <line x1="37.28" y1="49.56" x2="36.68" y2="49.2" style="stroke:purple;stroke-width:1" />
 <line x1="36.68" y1="49.2" x2="36.08" y2="48.96" style="stroke:purple;stroke-width:1" />
 <line x1="36.08" y1="48.96" x2="36.08" y2="50.04" style="stroke:purple;stroke-width:1" />
 <line x1="36.08" y1="50.04" x2="36.56" y2="50.52" style="stroke:purple;stroke-width:1" />
 <line x1="36.56" y1="50.52" x2="37.04" y2="50.88" style="stroke:purple;stroke-width:1" />
 <line x1="37.04" y1="50.88" x2="36.8" y2="51.36" style="stroke:purple;stroke-width:1" />
 <line x1="36.8" y1="51.36" x2="36.2" y2="51.72" style="stroke:purple;stroke-width:1" />
 <line x1="36.2" y1="51.72" x2="35.48" y2="51" style="stroke:purple;stroke-width:1" />
 <line x1="35.48" y1="51" x2="35.12" y2="49.92" style="stroke:purple;stroke-width:1" />
 <line x1="35.12" y1="49.92" x2="34.64" y2="48.84" style="stroke:purple;stroke-width:1" />
 <line x1="34.64" y1="48.84" x2="33.44" y2="47.28" style="stroke:purple;stroke-width:1" />
 <line x1="33.44" y1="47.28" x2="31.76" y2="45.6" style="stroke:purple;stroke-width:1" />
 <line x1="31.76" y1="45.6" x2="29.84" y2="43.68" style="stroke:purple;stroke-width:1" />
 <line x1="29.84" y1="43.68" x2="28.64" y2="42.6" style="stroke:purple;stroke-width:1" />
 <line x1="28.64" y1="42.6" x2="28.64" y2="41.76" style="stroke:purple;stroke-width:1" />
 <line x1="28.64" y1="41.76" x2="29.12" y2="40.68" style="stroke:purple;stroke-width:1" />
 <line x1="29.12" y1="40.68" x2="29.72" y2="39.96" style="stroke:purple;stroke-width:1" />
 <line x1="29.72" y1="39.96" x2="30.8" y2="39.24" style="stroke:purple;stroke-width:1" />
 <line x1="30.8" y1="39.24" x2="32.24" y2="38.16" style="stroke:purple;stroke-width:1" />
 <line x1="32.24" y1="38.16" x2="32.72" y2="37.08" style="stroke:purple;stroke-width:1" />
 <line x1="32.72" y1="37.08" x2="32.6" y2="36" style="stroke:purple;stroke-width:1" />
 <line x1="32.6" y1="36" x2="32.12" y2="34.8" style="stroke:purple;stroke-width:1" />
 <line x1="32.12" y1="34.8" x2="31.16" y2="33.72" style="stroke:purple;stroke-width:1" />
 <line x1="31.16" y1="33.72" x2="29.6" y2="32.04" style="stroke:purple;stroke-width:1" />
 <line x1="29.6" y1="32.04" x2="27.08" y2="30.24" style="stroke:purple;stroke-width:1" />
 <line x1="27.08" y1="30.24" x2="24.68" y2="28.68" style="stroke:purple;stroke-width:1" />
 <line x1="24.68" y1="28.68" x2="23.36" y2="27.72" style="stroke:purple;stroke-width:1" />
 <line x1="23.36" y1="27.72" x2="21.08" y2="25.92" style="stroke:purple;stroke-width:1" />
 <line x1="21.08" y1="25.92" x2="22.52" y2="27.72" style="stroke:purple;stroke-width:1" />
 <line x1="22.52" y1="27.72" x2="23.6" y2="29.64" style="stroke:purple;stroke-width:1" />
 <line x1="23.6" y1="29.64" x2="24.56" y2="31.92" style="stroke:purple;stroke-width:1" />
 <line x1="24.56" y1="31.92" x2="25.28" y2="34.32" style="stroke:purple;stroke-width:1" />
 <line x1="25.28" y1="34.32" x2="25.52" y2="36" style="stroke:purple;stroke-width:1" />
 <line x1="25.52" y1="36" x2="25.4" y2="37.56" style="stroke:purple;stroke-width:1" />
 <line x1="25.4" y1="37.56" x2="24.56" y2="38.64" style="stroke:purple;stroke-width:1" />
 <line x1="24.56" y1="38.64" x2="23.6" y2="39.48" style="stroke:purple;stroke-width:1" />
 <line x1="23.6" y1="39.48" x2="22.76" y2="39.96" style="stroke:purple;stroke-width:1" />
 <line x1="22.76" y1="39.96" x2="21.56" y2="40.44" style="stroke:purple;stroke-width:1" />
 <line x1="21.56" y1="40.44" x2="19.28" y2="41.04" style="stroke:purple;stroke-width:1" />
 <line x1="19.28" y1="41.04" x2="17.24" y2="41.04" style="stroke:purple;stroke-width:1" />
 <line x1="17.24" y1="41.04" x2="15.08" y2="41.04" style="stroke:purple;stroke-width:1" />
 <line x1="15.08" y1="41.04" x2="12.68" y2="41.16" style="stroke:purple;stroke-width:1" />
 <line x1="12.68" y1="41.16" x2="10.76" y2="41.52" style="stroke:purple;stroke-width:1" />
 <line x1="10.76" y1="41.52" x2="9.44" y2="41.88" style="stroke:purple;stroke-width:1" />
 <line x1="9.44" y1="41.88" x2="8.48" y2="42.12" style="stroke:purple;stroke-width:1" />
 <line x1="8.48" y1="42.12" x2="8" y2="42.96" style="stroke:purple;stroke-width:1" />
 <line x1="8" y1="42.96" x2="7.4" y2="44.16" style="stroke:purple;stroke-width:1" />
 <line x1="7.4" y1="44.16" x2="6.92" y2="45.6" style="stroke:purple;stroke-width:1" />
 <line x1="6.92" y1="45.6" x2="6.44" y2="46.92" style="stroke:purple;stroke-width:1" />
 <line x1="6.44" y1="46.92" x2="6.2" y2="49.08" style="stroke:purple;stroke-width:1" />
 <line x1="6.2" y1="49.08" x2="5.84" y2="49.32" style="stroke:purple;stroke-width:1" />
 <line x1="5.84" y1="49.32" x2="5.12" y2="48.84" style="stroke:purple;stroke-width:1" />
 <line x1="5.12" y1="48.84" x2="5.24" y2="48.12" style="stroke:purple;stroke-width:1" />
 <line x1="5.24" y1="48.12" x2="5.24" y2="47.04" style="stroke:purple;stroke-width:1" />
 <line x1="5.24" y1="47.04" x2="5" y2="45.96" style="stroke:purple;stroke-width:1" />
 <line x1="5" y1="45.96" x2="5.12" y2="44.64" style="stroke:purple;stroke-width:1" />
 <line x1="5.12" y1="44.64" x2="5.6" y2="43.2" style="stroke:purple;stroke-width:1" />
 <line x1="5.6" y1="43.2" x2="5.6" y2="42" style="stroke:purple;stroke-width:1" />
 <line x1="5.6" y1="42" x2="5.48" y2="40.68" style="stroke:purple;stroke-width:1" />
 <line x1="5.48" y1="40.68" x2="5.72" y2="39.96" style="stroke:purple;stroke-width:1" />
 <line x1="5.72" y1="39.96" x2="6.2" y2="39.6" style="stroke:purple;stroke-width:1" />
 <line x1="6.2" y1="39.6" x2="8.72" y2="39" style="stroke:purple;stroke-width:1" />
 <line x1="8.72" y1="39" x2="11.84" y2="38.28" style="stroke:purple;stroke-width:1" />
 <line x1="11.84" y1="38.28" x2="14.72" y2="37.92" style="stroke:purple;stroke-width:1" />
 <line x1="14.72" y1="37.92" x2="17.12" y2="37.44" style="stroke:purple;stroke-width:1" />
 <line x1="17.12" y1="37.44" x2="19.64" y2="36.96" style="stroke:purple;stroke-width:1" />
 <line x1="19.64" y1="36.96" x2="20.48" y2="36.84" style="stroke:purple;stroke-width:1" />
 <line x1="20.48" y1="36.84" x2="20.84" y2="36" style="stroke:purple;stroke-width:1" />
 <line x1="20.84" y1="36" x2="20.72" y2="35.28" style="stroke:purple;stroke-width:1" />
 <line x1="20.72" y1="35.28" x2="20.36" y2="34.32" style="stroke:purple;stroke-width:1" />
 <line x1="20.36" y1="34.32" x2="17.48" y2="32.88" style="stroke:purple;stroke-width:1" />
 <line x1="17.48" y1="32.88" x2="14.72" y2="31.92" style="stroke:purple;stroke-width:1" />
 <line x1="14.72" y1="31.92" x2="11.48" y2="30.96" style="stroke:purple;stroke-width:1" />
 <line x1="11.48" y1="30.96" x2="8.6" y2="30.12" style="stroke:purple;stroke-width:1" />
 <line x1="8.6" y1="30.12" x2="7.64" y2="29.64" style="stroke:purple;stroke-width:1" />
 <line x1="7.64" y1="29.64" x2="7.04" y2="28.92" style="stroke:purple;stroke-width:1" />
 <line x1="7.04" y1="28.92" x2="6.2" y2="28.8" style="stroke:purple;stroke-width:1" />
 <line x1="6.2" y1="28.8" x2="5.72" y2="29.28" style="stroke:purple;stroke-width:1" />
 <line x1="5.72" y1="29.28" x2="5.6" y2="30.24" style="stroke:purple;stroke-width:1" />
 <line x1="5.6" y1="30.24" x2="5.12" y2="34.32" style="stroke:purple;stroke-width:1" />
 <line x1="5.12" y1="34.32" x2="5.48" y2="35.64" style="stroke:purple;stroke-width:1" />
 <line x1="5.48" y1="35.64" x2="5.12" y2="36.96" style="stroke:purple;stroke-width:1" />
 <line x1="5.12" y1="36.96" x2="5.36" y2="37.68" style="stroke:purple;stroke-width:1" />
 <line x1="5.36" y1="37.68" x2="6.08" y2="37.68" style="stroke:purple;stroke-width:1" />
 <line x1="6.08" y1="37.68" x2="6.44" y2="36.84" style="stroke:purple;stroke-width:1" />
 <line x1="6.44" y1="36.84" x2="7.28" y2="33.48" style="stroke:purple;stroke-width:1" />
 <line x1="7.28" y1="33.48" x2="7.64" y2="33" style="stroke:purple;stroke-width:1" />
 <line x1="7.64" y1="33" x2="8.36" y2="32.76" style="stroke:purple;stroke-width:1" />
 <line x1="8.36" y1="32.76" x2="11.36" y2="33.36" style="stroke:purple;stroke-width:1" />
 <line x1="11.36" y1="33.36" x2="14.24" y2="34.56" style="stroke:purple;stroke-width:1" />
 <line x1="14.24" y1="34.56" x2="17.12" y2="35.76" style="stroke:purple;stroke-width:1" />
 <line x1="17.12" y1="35.76" x2="19.64" y2="36.96" style="stroke:purple;stroke-width:1" />
 <line x1="20.36" y1="34.32" x2="19.4" y2="31.56" style="stroke:purple;stroke-width:1" />
 <line x1="19.4" y1="31.56" x2="18.32" y2="29.4" style="stroke:purple;stroke-width:1" />
 <line x1="18.32" y1="29.4" x2="16.88" y2="27.24" style="stroke:purple;stroke-width:1" />
 <line x1="16.88" y1="27.24" x2="15.68" y2="25.8" style="stroke:purple;stroke-width:1" />
 <line x1="15.68" y1="25.8" x2="14.72" y2="24.6" style="stroke:purple;stroke-width:1" />
 <line x1="14.72" y1="24.6" x2="14.24" y2="23.4" style="stroke:purple;stroke-width:1" />
 <line x1="14.24" y1="23.4" x2="13.76" y2="21.96" style="stroke:purple;stroke-width:1" />
 <line x1="13.76" y1="21.96" x2="13.88" y2="20.64" style="stroke:purple;stroke-width:1" />
 <line x1="13.88" y1="20.64" x2="14.6" y2="19.56" style="stroke:purple;stroke-width:1" />
 <line x1="14.6" y1="19.56" x2="15.56" y2="18.36" style="stroke:purple;stroke-width:1" />
 <line x1="15.56" y1="18.36" x2="16.64" y2="17.76" style="stroke:purple;stroke-width:1" />
 <line x1="16.64" y1="17.76" x2="17.96" y2="17.4" style="stroke:purple;stroke-width:1" />
 <line x1="17.96" y1="17.4" x2="19.28" y2="17.28" style="stroke:purple;stroke-width:1" />
 <line x1="19.28" y1="17.28" x2="20.6" y2="17.4" style="stroke:purple;stroke-width:1" />
 <line x1="20.6" y1="17.4" x2="21.92" y2="17.88" style="stroke:purple;stroke-width:1" />
 <line x1="21.92" y1="17.88" x2="23" y2="18.6" style="stroke:purple;stroke-width:1" />
 <line x1="23" y1="18.6" x2="24.68" y2="20.16" style="stroke:purple;stroke-width:1" />
 <line x1="24.68" y1="20.16" x2="26.72" y2="21.72" style="stroke:purple;stroke-width:1" />
 <line x1="26.72" y1="21.72" x2="29.12" y2="23.52" style="stroke:purple;stroke-width:1" />
 <line x1="29.12" y1="23.52" x2="31.64" y2="24.96" style="stroke:purple;stroke-width:1" />
 <line x1="31.64" y1="24.96" x2="34.28" y2="26.64" style="stroke:purple;stroke-width:1" />
 <line x1="34.28" y1="26.64" x2="36.8" y2="28.08" style="stroke:purple;stroke-width:1" />
 <line x1="36.8" y1="28.08" x2="38.6" y2="29.4" style="stroke:purple;stroke-width:1" />
 <line x1="38.6" y1="29.4" x2="40.28" y2="30.84" style="stroke:purple;stroke-width:1" />
 <line x1="40.28" y1="30.84" x2="41.48" y2="32.16" style="stroke:purple;stroke-width:1" />
 <line x1="24.92" y1="28.68" x2="29.24" y2="23.52" style="stroke:purple;stroke-width:1" />

</svg>
