<?xml version="1.0" standalone="no"?>

<!DOCTYPE svg PUBLIC "-//W3C//DTD SVG 1.1//EN" 
"http://www.w3.org/Graphics/SVG/1.1/DTD/svg11.dtd">

<svg width="400px" height="340px"
     viewBox="0 0 400 340"
     preserveAspectRatio="none"
     version="1.1"
     xmlns="http://www.w3.org/2000/svg">

<title>M[UMPS] Logo</title>

<path d="M 10 330 90 330 98 313 18 313 10 330"
          style="stroke: #0000ff; stroke-width: 1; fill: #0000ff; " />

<path d="M 19 310 99 310 107 294 27 294 19 310"
          style="stroke: #0000ff; stroke-width: 1; fill: #0000ff; " />

<path d="M 29 290 109 290 116 275 36 275 29 290"
          style="stroke: #0000ff; stroke-width: 1; fill: #0000ff; " />

<path d="M 38 270 118 270 125 256 45 256 38 270"
          style="stroke: #0000ff; stroke-width: 1; fill: #0000ff; " />

<path d="M 48 250 128 250 134 237 54 237 48 250"
          style="stroke: #0000ff; stroke-width: 1; fill: #0000ff; " />

<path d="M 57 230 137 230 143 218 63 218 57 230"
          style="stroke: #0000ff; stroke-width: 1; fill: #0000ff; " />

<path d="M 66 210 146 210 151 199 71 199 66 210"
          style="stroke: #0000ff; stroke-width: 1; fill: #0000ff; " />

<path d="M 76 190 156 190 160 180 80 180 76 190"
          style="stroke: #0000ff; stroke-width: 1; fill: #0000ff; " />

<path d="M 85 170 165 170 169 161 89 161 85 170"
          style="stroke: #0000ff; stroke-width: 1; fill: #0000ff; " />

<path d="M 94 150 174 150 178 142 98 142 94 150"
          style="stroke: #0000ff; stroke-width: 1; fill: #0000ff; " />

<path d="M 104 130 184 130 187 123 107 123 104 130"
          style="stroke: #0000ff; stroke-width: 1; fill: #0000ff; " />

<path d="M 113 110 193 110 196 104 116 104 113 110"
          style="stroke: #0000ff; stroke-width: 1; fill: #0000ff; " />

<path d="M 123 90 203 90 205 85 125 85 123 90"
          style="stroke: #0000ff; stroke-width: 1; fill: #0000ff; " />

<path d="M 132 70 212 70 214 66 134 66 132 70"
          style="stroke: #0000ff; stroke-width: 1; fill: #0000ff; " />

<path d="M 141 50 221 50 223 47 143 47 141 50"
          style="stroke: #0000ff; stroke-width: 1; fill: #0000ff; " />

<path d="M 151 30 231 30 232 28 152 28 151 30"
          style="stroke: #0000ff; stroke-width: 1; fill: #0000ff; " />

<path d="M 160 330 240 330 240 10 160 182 160 330"
          style="stroke: #0000ff; stroke-width: 1; fill: #0000ff; " />

<path d="M 160 330 240 330 248 313 168 313 160 330"
          style="stroke: #0000ff; stroke-width: 1; fill: #0000ff; " />

<path d="M 169 310 249 310 257 294 177 294 169 310"
          style="stroke: #0000ff; stroke-width: 1; fill: #0000ff; " />

<path d="M 179 290 259 290 266 275 186 275 179 290"
          style="stroke: #0000ff; stroke-width: 1; fill: #0000ff; " />

<path d="M 188 270 268 270 275 256 195 256 188 270"
          style="stroke: #0000ff; stroke-width: 1; fill: #0000ff; " />

<path d="M 198 250 278 250 284 237 204 237 198 250"
          style="stroke: #0000ff; stroke-width: 1; fill: #0000ff; " />

<path d="M 207 230 287 230 293 218 213 218 207 230"
          style="stroke: #0000ff; stroke-width: 1; fill: #0000ff; " />

<path d="M 216 210 296 210 301 199 221 199 216 210"
          style="stroke: #0000ff; stroke-width: 1; fill: #0000ff; " />

<path d="M 226 190 306 190 310 180 230 180 226 190"
          style="stroke: #0000ff; stroke-width: 1; fill: #0000ff; " />

<path d="M 235 170 315 170 319 161 239 161 235 170"
          style="stroke: #0000ff; stroke-width: 1; fill: #0000ff; " />

<path d="M 244 150 324 150 328 142 248 142 244 150"
          style="stroke: #0000ff; stroke-width: 1; fill: #0000ff; " />

<path d="M 254 130 334 130 337 123 257 123 254 130"
          style="stroke: #0000ff; stroke-width: 1; fill: #0000ff; " />

<path d="M 263 110 343 110 346 104 266 104 263 110"
          style="stroke: #0000ff; stroke-width: 1; fill: #0000ff; " />

<path d="M 273 90 353 90 355 85 275 85 273 90"
          style="stroke: #0000ff; stroke-width: 1; fill: #0000ff; " />

<path d="M 282 70 362 70 364 66 284 66 282 70"
          style="stroke: #0000ff; stroke-width: 1; fill: #0000ff; " />

<path d="M 291 50 371 50 373 47 293 47 291 50"
          style="stroke: #0000ff; stroke-width: 1; fill: #0000ff; " />

<path d="M 301 30 381 30 382 28 302 28 301 30"
          style="stroke: #0000ff; stroke-width: 1; fill: #0000ff; " />

<path d="M 310 330 390 330 390 10 310 182 310 330"
          style="stroke: #0000ff; stroke-width: 1; fill: #0000ff; " />

</svg>
