<!DOCTYPE svg PUBLIC "-//W3C//DTD SVG 1.1//EN" "http://www.w3.org/Graphics/SVG/1.1/DTD/svg11.dtd">
<svg width="6486" height="60001" xmlns="http://www.w3.org/2000/svg">
 <line x1="1" y1="153" x2="1" y2="152" style="stroke: black; stroke-width: 1" />
 <line x1="1" y1="152" x2="1" y2="151" style="stroke: black; stroke-width: 1" />
 <line x1="1" y1="151" x2="1" y2="149" style="stroke: black; stroke-width: 1" />
 <line x1="1" y1="149" x2="1" y2="148" style="stroke: black; stroke-width: 1" />
 <line x1="1" y1="148" x2="2" y2="146" style="stroke: black; stroke-width: 1" />
 <line x1="2" y1="146" x2="3" y2="145" style="stroke: black; stroke-width: 1" />
 <line x1="3" y1="145" x2="4" y2="144" style="stroke: black; stroke-width: 1" />
 <line x1="4" y1="144" x2="5" y2="142" style="stroke: black; stroke-width: 1" />
 <line x1="5" y1="142" x2="7" y2="141" style="stroke: black; stroke-width: 1" />
 <line x1="7" y1="141" x2="8" y2="141" style="stroke: black; stroke-width: 1" />
 <line x1="8" y1="141" x2="10" y2="140" style="stroke: black; stroke-width: 1" />
 <line x1="10" y1="140" x2="12" y2="140" style="stroke: black; stroke-width: 1" />
 <line x1="12" y1="140" x2="13" y2="140" style="stroke: black; stroke-width: 1" />
 <line x1="13" y1="140" x2="15" y2="140" style="stroke: black; stroke-width: 1" />
 <line x1="15" y1="140" x2="16" y2="140" style="stroke: black; stroke-width: 1" />
 <line x1="16" y1="140" x2="18" y2="141" style="stroke: black; stroke-width: 1" />
 <line x1="18" y1="141" x2="19" y2="142" style="stroke: black; stroke-width: 1" />
 <line x1="19" y1="142" x2="19" y2="143" style="stroke: black; stroke-width: 1" />
 <line x1="19" y1="143" x2="20" y2="144" style="stroke: black; stroke-width: 1" />
 <line x1="20" y1="144" x2="20" y2="145" style="stroke: black; stroke-width: 1" />
 <line x1="20" y1="145" x2="20" y2="147" style="stroke: black; stroke-width: 1" />
 <line x1="20" y1="147" x2="20" y2="148" style="stroke: black; stroke-width: 1" />
 <line x1="20" y1="148" x2="19" y2="149" style="stroke: black; stroke-width: 1" />
 <line x1="19" y1="149" x2="18" y2="151" style="stroke: black; stroke-width: 1" />
 <line x1="18" y1="151" x2="17" y2="152" style="stroke: black; stroke-width: 1" />
 <line x1="17" y1="152" x2="16" y2="153" style="stroke: black; stroke-width: 1" />
 <line x1="16" y1="153" x2="14" y2="154" style="stroke: black; stroke-width: 1" />
 <line x1="14" y1="154" x2="12" y2="155" style="stroke: black; stroke-width: 1" />
 <line x1="12" y1="155" x2="11" y2="156" style="stroke: black; stroke-width: 1" />
 <line x1="11" y1="156" x2="9" y2="156" style="stroke: black; stroke-width: 1" />
 <line x1="9" y1="156" x2="7" y2="156" style="stroke: black; stroke-width: 1" />
 <line x1="7" y1="156" x2="6" y2="156" style="stroke: black; stroke-width: 1" />
 <line x1="6" y1="156" x2="4" y2="156" style="stroke: black; stroke-width: 1" />
 <line x1="4" y1="156" x2="3" y2="155" style="stroke: black; stroke-width: 1" />
 <line x1="3" y1="155" x2="2" y2="154" style="stroke: black; stroke-width: 1" />
 <line x1="2" y1="154" x2="1" y2="153" style="stroke: black; stroke-width: 1" />
 <line x1="2" y1="153" x2="2" y2="152" style="stroke: black; stroke-width: 1" />
 <line x1="2" y1="152" x2="2" y2="151" style="stroke: black; stroke-width: 1" />
 <line x1="2" y1="151" x2="2" y2="150" style="stroke: black; stroke-width: 1" />
 <line x1="2" y1="150" x2="2" y2="149" style="stroke: black; stroke-width: 1" />
 <line x1="2" y1="149" x2="3" y2="148" style="stroke: black; stroke-width: 1" />
 <line x1="3" y1="148" x2="4" y2="146" style="stroke: black; stroke-width: 1" />
 <line x1="4" y1="146" x2="5" y2="145" style="stroke: black; stroke-width: 1" />
 <line x1="5" y1="145" x2="6" y2="144" style="stroke: black; stroke-width: 1" />
 <line x1="6" y1="144" x2="8" y2="144" style="stroke: black; stroke-width: 1" />
 <line x1="8" y1="144" x2="9" y2="143" style="stroke: black; stroke-width: 1" />
 <line x1="9" y1="143" x2="11" y2="142" style="stroke: black; stroke-width: 1" />
 <line x1="11" y1="142" x2="12" y2="142" style="stroke: black; stroke-width: 1" />
 <line x1="12" y1="142" x2="14" y2="142" style="stroke: black; stroke-width: 1" />
 <line x1="14" y1="142" x2="15" y2="141" style="stroke: black; stroke-width: 1" />
 <line x1="15" y1="141" x2="16" y2="142" style="stroke: black; stroke-width: 1" />
 <line x1="16" y1="142" x2="17" y2="142" style="stroke: black; stroke-width: 1" />
 <line x1="17" y1="142" x2="18" y2="142" style="stroke: black; stroke-width: 1" />
 <line x1="18" y1="142" x2="18" y2="143" style="stroke: black; stroke-width: 1" />
 <line x1="18" y1="143" x2="19" y2="144" style="stroke: black; stroke-width: 1" />
 <line x1="19" y1="144" x2="19" y2="145" style="stroke: black; stroke-width: 1" />
 <line x1="19" y1="145" x2="19" y2="146" style="stroke: black; stroke-width: 1" />
 <line x1="19" y1="146" x2="18" y2="147" style="stroke: black; stroke-width: 1" />
 <line x1="18" y1="147" x2="17" y2="148" style="stroke: black; stroke-width: 1" />
 <line x1="17" y1="148" x2="17" y2="149" style="stroke: black; stroke-width: 1" />
 <line x1="17" y1="149" x2="15" y2="150" style="stroke: black; stroke-width: 1" />
 <line x1="15" y1="150" x2="14" y2="151" style="stroke: black; stroke-width: 1" />
 <line x1="14" y1="151" x2="13" y2="152" style="stroke: black; stroke-width: 1" />
 <line x1="13" y1="152" x2="11" y2="153" style="stroke: black; stroke-width: 1" />
 <line x1="11" y1="153" x2="10" y2="153" style="stroke: black; stroke-width: 1" />
 <line x1="10" y1="153" x2="8" y2="154" style="stroke: black; stroke-width: 1" />
 <line x1="8" y1="154" x2="7" y2="154" style="stroke: black; stroke-width: 1" />
 <line x1="7" y1="154" x2="6" y2="154" style="stroke: black; stroke-width: 1" />
 <line x1="6" y1="154" x2="4" y2="154" style="stroke: black; stroke-width: 1" />
 <line x1="4" y1="154" x2="3" y2="154" style="stroke: black; stroke-width: 1" />
 <line x1="3" y1="154" x2="3" y2="153" style="stroke: black; stroke-width: 1" />
 <line x1="3" y1="153" x2="2" y2="153" style="stroke: black; stroke-width: 1" />
 <line x1="0" y1="140" x2="21" y2="140" style="stroke: black; stroke-width: 1" />
 <line x1="0" y1="123" x2="21" y2="123" style="stroke: black; stroke-width: 1" />
 <line x1="0" y1="106" x2="21" y2="106" style="stroke: black; stroke-width: 1" />
 <line x1="0" y1="90" x2="21" y2="90" style="stroke: black; stroke-width: 1" />
 <line x1="0" y1="73" x2="21" y2="73" style="stroke: black; stroke-width: 1" />
</svg>
