<!DOCTYPE svg PUBLIC "-//W3C//DTD SVG 1.1//EN" "http://www.w3.org/Graphics/SVG/1.1/DTD/svg11.dtd">
<svg width="6486" height="60001" xmlns="http://www.w3.org/2000/svg">
 <line x1="1" y1="195" x2="1" y2="194" style="stroke: black; stroke-width: 1" />
 <line x1="1" y1="194" x2="1" y2="192" style="stroke: black; stroke-width: 1" />
 <line x1="1" y1="192" x2="1" y2="191" style="stroke: black; stroke-width: 1" />
 <line x1="1" y1="191" x2="1" y2="189" style="stroke: black; stroke-width: 1" />
 <line x1="1" y1="189" x2="2" y2="188" style="stroke: black; stroke-width: 1" />
 <line x1="2" y1="188" x2="3" y2="187" style="stroke: black; stroke-width: 1" />
 <line x1="3" y1="187" x2="4" y2="185" style="stroke: black; stroke-width: 1" />
 <line x1="4" y1="185" x2="5" y2="184" style="stroke: black; stroke-width: 1" />
 <line x1="5" y1="184" x2="7" y2="183" style="stroke: black; stroke-width: 1" />
 <line x1="7" y1="183" x2="8" y2="182" style="stroke: black; stroke-width: 1" />
 <line x1="8" y1="182" x2="10" y2="182" style="stroke: black; stroke-width: 1" />
 <line x1="10" y1="182" x2="12" y2="181" style="stroke: black; stroke-width: 1" />
 <line x1="12" y1="181" x2="13" y2="181" style="stroke: black; stroke-width: 1" />
 <line x1="13" y1="181" x2="15" y2="181" style="stroke: black; stroke-width: 1" />
 <line x1="15" y1="181" x2="16" y2="182" style="stroke: black; stroke-width: 1" />
 <line x1="16" y1="182" x2="18" y2="182" style="stroke: black; stroke-width: 1" />
 <line x1="18" y1="182" x2="19" y2="183" style="stroke: black; stroke-width: 1" />
 <line x1="19" y1="183" x2="19" y2="184" style="stroke: black; stroke-width: 1" />
 <line x1="19" y1="184" x2="20" y2="185" style="stroke: black; stroke-width: 1" />
 <line x1="20" y1="185" x2="20" y2="187" style="stroke: black; stroke-width: 1" />
 <line x1="20" y1="187" x2="20" y2="188" style="stroke: black; stroke-width: 1" />
 <line x1="20" y1="188" x2="20" y2="190" style="stroke: black; stroke-width: 1" />
 <line x1="20" y1="190" x2="19" y2="191" style="stroke: black; stroke-width: 1" />
 <line x1="19" y1="191" x2="18" y2="192" style="stroke: black; stroke-width: 1" />
 <line x1="18" y1="192" x2="17" y2="194" style="stroke: black; stroke-width: 1" />
 <line x1="17" y1="194" x2="16" y2="195" style="stroke: black; stroke-width: 1" />
 <line x1="16" y1="195" x2="14" y2="196" style="stroke: black; stroke-width: 1" />
 <line x1="14" y1="196" x2="12" y2="197" style="stroke: black; stroke-width: 1" />
 <line x1="12" y1="197" x2="11" y2="197" style="stroke: black; stroke-width: 1" />
 <line x1="11" y1="197" x2="9" y2="198" style="stroke: black; stroke-width: 1" />
 <line x1="9" y1="198" x2="7" y2="198" style="stroke: black; stroke-width: 1" />
 <line x1="7" y1="198" x2="6" y2="198" style="stroke: black; stroke-width: 1" />
 <line x1="6" y1="198" x2="4" y2="197" style="stroke: black; stroke-width: 1" />
 <line x1="4" y1="197" x2="3" y2="197" style="stroke: black; stroke-width: 1" />
 <line x1="3" y1="197" x2="2" y2="196" style="stroke: black; stroke-width: 1" />
 <line x1="2" y1="196" x2="1" y2="195" style="stroke: black; stroke-width: 1" />
 <line x1="2" y1="194" x2="2" y2="193" style="stroke: black; stroke-width: 1" />
 <line x1="2" y1="193" x2="2" y2="192" style="stroke: black; stroke-width: 1" />
 <line x1="2" y1="192" x2="2" y2="191" style="stroke: black; stroke-width: 1" />
 <line x1="2" y1="191" x2="2" y2="190" style="stroke: black; stroke-width: 1" />
 <line x1="2" y1="190" x2="3" y2="189" style="stroke: black; stroke-width: 1" />
 <line x1="3" y1="189" x2="4" y2="188" style="stroke: black; stroke-width: 1" />
 <line x1="4" y1="188" x2="5" y2="187" style="stroke: black; stroke-width: 1" />
 <line x1="5" y1="187" x2="6" y2="186" style="stroke: black; stroke-width: 1" />
 <line x1="6" y1="186" x2="8" y2="185" style="stroke: black; stroke-width: 1" />
 <line x1="8" y1="185" x2="9" y2="184" style="stroke: black; stroke-width: 1" />
 <line x1="9" y1="184" x2="11" y2="184" style="stroke: black; stroke-width: 1" />
 <line x1="11" y1="184" x2="12" y2="183" style="stroke: black; stroke-width: 1" />
 <line x1="12" y1="183" x2="14" y2="183" style="stroke: black; stroke-width: 1" />
 <line x1="14" y1="183" x2="15" y2="183" style="stroke: black; stroke-width: 1" />
 <line x1="15" y1="183" x2="16" y2="183" style="stroke: black; stroke-width: 1" />
 <line x1="16" y1="183" x2="17" y2="184" style="stroke: black; stroke-width: 1" />
 <line x1="17" y1="184" x2="18" y2="184" style="stroke: black; stroke-width: 1" />
 <line x1="18" y1="184" x2="18" y2="185" style="stroke: black; stroke-width: 1" />
 <line x1="18" y1="185" x2="19" y2="186" style="stroke: black; stroke-width: 1" />
 <line x1="19" y1="186" x2="19" y2="187" style="stroke: black; stroke-width: 1" />
 <line x1="19" y1="187" x2="19" y2="188" style="stroke: black; stroke-width: 1" />
 <line x1="19" y1="188" x2="18" y2="189" style="stroke: black; stroke-width: 1" />
 <line x1="18" y1="189" x2="17" y2="190" style="stroke: black; stroke-width: 1" />
 <line x1="17" y1="190" x2="17" y2="191" style="stroke: black; stroke-width: 1" />
 <line x1="17" y1="191" x2="15" y2="192" style="stroke: black; stroke-width: 1" />
 <line x1="15" y1="192" x2="14" y2="193" style="stroke: black; stroke-width: 1" />
 <line x1="14" y1="193" x2="13" y2="194" style="stroke: black; stroke-width: 1" />
 <line x1="13" y1="194" x2="11" y2="195" style="stroke: black; stroke-width: 1" />
 <line x1="11" y1="195" x2="10" y2="195" style="stroke: black; stroke-width: 1" />
 <line x1="10" y1="195" x2="8" y2="196" style="stroke: black; stroke-width: 1" />
 <line x1="8" y1="196" x2="7" y2="196" style="stroke: black; stroke-width: 1" />
 <line x1="7" y1="196" x2="6" y2="196" style="stroke: black; stroke-width: 1" />
 <line x1="6" y1="196" x2="4" y2="196" style="stroke: black; stroke-width: 1" />
 <line x1="4" y1="196" x2="3" y2="195" style="stroke: black; stroke-width: 1" />
 <line x1="3" y1="195" x2="3" y2="195" style="stroke: black; stroke-width: 1" />
 <line x1="3" y1="195" x2="2" y2="194" style="stroke: black; stroke-width: 1" />
 <line x1="20" y1="190" x2="20" y2="131" style="stroke: black; stroke-width: 1" />
 <line x1="0" y1="190" x2="21" y2="190" style="stroke: black; stroke-width: 1" />
 <line x1="0" y1="173" x2="21" y2="173" style="stroke: black; stroke-width: 1" />
 <line x1="0" y1="156" x2="21" y2="156" style="stroke: black; stroke-width: 1" />
 <line x1="0" y1="140" x2="21" y2="140" style="stroke: black; stroke-width: 1" />
 <line x1="0" y1="123" x2="21" y2="123" style="stroke: black; stroke-width: 1" />
 <line x1="0" y1="106" x2="21" y2="106" style="stroke: black; stroke-width: 1" />
 <line x1="0" y1="90" x2="21" y2="90" style="stroke: black; stroke-width: 1" />
 <line x1="0" y1="73" x2="21" y2="73" style="stroke: black; stroke-width: 1" />
</svg>
