<!DOCTYPE svg PUBLIC "-//W3C//DTD SVG 1.1//EN" "http://www.w3.org/Graphics/SVG/1.1/DTD/svg11.dtd">
<svg width="11486" height="60001" xmlns="http://www.w3.org/2000/svg">
 <line x1="1" y1="161" x2="1" y2="160" style="stroke: black; stroke-width: 1" />
 <line x1="1" y1="160" x2="1" y2="159" style="stroke: black; stroke-width: 1" />
 <line x1="1" y1="159" x2="1" y2="157" style="stroke: black; stroke-width: 1" />
 <line x1="1" y1="157" x2="1" y2="156" style="stroke: black; stroke-width: 1" />
 <line x1="1" y1="156" x2="2" y2="155" style="stroke: black; stroke-width: 1" />
 <line x1="2" y1="155" x2="3" y2="153" style="stroke: black; stroke-width: 1" />
 <line x1="3" y1="153" x2="4" y2="152" style="stroke: black; stroke-width: 1" />
 <line x1="4" y1="152" x2="5" y2="151" style="stroke: black; stroke-width: 1" />
 <line x1="5" y1="151" x2="7" y2="150" style="stroke: black; stroke-width: 1" />
 <line x1="7" y1="150" x2="8" y2="149" style="stroke: black; stroke-width: 1" />
 <line x1="8" y1="149" x2="10" y2="148" style="stroke: black; stroke-width: 1" />
 <line x1="10" y1="148" x2="12" y2="148" style="stroke: black; stroke-width: 1" />
 <line x1="12" y1="148" x2="13" y2="148" style="stroke: black; stroke-width: 1" />
 <line x1="13" y1="148" x2="15" y2="148" style="stroke: black; stroke-width: 1" />
 <line x1="15" y1="148" x2="16" y2="148" style="stroke: black; stroke-width: 1" />
 <line x1="16" y1="148" x2="18" y2="149" style="stroke: black; stroke-width: 1" />
 <line x1="18" y1="149" x2="19" y2="150" style="stroke: black; stroke-width: 1" />
 <line x1="19" y1="150" x2="19" y2="151" style="stroke: black; stroke-width: 1" />
 <line x1="19" y1="151" x2="20" y2="152" style="stroke: black; stroke-width: 1" />
 <line x1="20" y1="152" x2="20" y2="153" style="stroke: black; stroke-width: 1" />
 <line x1="20" y1="153" x2="20" y2="155" style="stroke: black; stroke-width: 1" />
 <line x1="20" y1="155" x2="20" y2="156" style="stroke: black; stroke-width: 1" />
 <line x1="20" y1="156" x2="19" y2="158" style="stroke: black; stroke-width: 1" />
 <line x1="19" y1="158" x2="18" y2="159" style="stroke: black; stroke-width: 1" />
 <line x1="18" y1="159" x2="17" y2="160" style="stroke: black; stroke-width: 1" />
 <line x1="17" y1="160" x2="16" y2="162" style="stroke: black; stroke-width: 1" />
 <line x1="16" y1="162" x2="14" y2="163" style="stroke: black; stroke-width: 1" />
 <line x1="14" y1="163" x2="12" y2="163" style="stroke: black; stroke-width: 1" />
 <line x1="12" y1="163" x2="11" y2="164" style="stroke: black; stroke-width: 1" />
 <line x1="11" y1="164" x2="9" y2="164" style="stroke: black; stroke-width: 1" />
 <line x1="9" y1="164" x2="7" y2="165" style="stroke: black; stroke-width: 1" />
 <line x1="7" y1="165" x2="6" y2="164" style="stroke: black; stroke-width: 1" />
 <line x1="6" y1="164" x2="4" y2="164" style="stroke: black; stroke-width: 1" />
 <line x1="4" y1="164" x2="3" y2="163" style="stroke: black; stroke-width: 1" />
 <line x1="3" y1="163" x2="2" y2="162" style="stroke: black; stroke-width: 1" />
 <line x1="2" y1="162" x2="1" y2="161" style="stroke: black; stroke-width: 1" />
 <line x1="2" y1="161" x2="2" y2="160" style="stroke: black; stroke-width: 1" />
 <line x1="2" y1="160" x2="2" y2="159" style="stroke: black; stroke-width: 1" />
 <line x1="2" y1="159" x2="2" y2="158" style="stroke: black; stroke-width: 1" />
 <line x1="2" y1="158" x2="2" y2="157" style="stroke: black; stroke-width: 1" />
 <line x1="2" y1="157" x2="3" y2="156" style="stroke: black; stroke-width: 1" />
 <line x1="3" y1="156" x2="4" y2="155" style="stroke: black; stroke-width: 1" />
 <line x1="4" y1="155" x2="5" y2="154" style="stroke: black; stroke-width: 1" />
 <line x1="5" y1="154" x2="6" y2="153" style="stroke: black; stroke-width: 1" />
 <line x1="6" y1="153" x2="8" y2="152" style="stroke: black; stroke-width: 1" />
 <line x1="8" y1="152" x2="9" y2="151" style="stroke: black; stroke-width: 1" />
 <line x1="9" y1="151" x2="11" y2="151" style="stroke: black; stroke-width: 1" />
 <line x1="11" y1="151" x2="12" y2="150" style="stroke: black; stroke-width: 1" />
 <line x1="12" y1="150" x2="14" y2="150" style="stroke: black; stroke-width: 1" />
 <line x1="14" y1="150" x2="15" y2="150" style="stroke: black; stroke-width: 1" />
 <line x1="15" y1="150" x2="16" y2="150" style="stroke: black; stroke-width: 1" />
 <line x1="16" y1="150" x2="17" y2="150" style="stroke: black; stroke-width: 1" />
 <line x1="17" y1="150" x2="18" y2="151" style="stroke: black; stroke-width: 1" />
 <line x1="18" y1="151" x2="18" y2="151" style="stroke: black; stroke-width: 1" />
 <line x1="18" y1="151" x2="19" y2="152" style="stroke: black; stroke-width: 1" />
 <line x1="19" y1="152" x2="19" y2="153" style="stroke: black; stroke-width: 1" />
 <line x1="19" y1="153" x2="19" y2="154" style="stroke: black; stroke-width: 1" />
 <line x1="19" y1="154" x2="18" y2="155" style="stroke: black; stroke-width: 1" />
 <line x1="18" y1="155" x2="17" y2="156" style="stroke: black; stroke-width: 1" />
 <line x1="17" y1="156" x2="17" y2="158" style="stroke: black; stroke-width: 1" />
 <line x1="17" y1="158" x2="15" y2="159" style="stroke: black; stroke-width: 1" />
 <line x1="15" y1="159" x2="14" y2="160" style="stroke: black; stroke-width: 1" />
 <line x1="14" y1="160" x2="13" y2="160" style="stroke: black; stroke-width: 1" />
 <line x1="13" y1="160" x2="11" y2="161" style="stroke: black; stroke-width: 1" />
 <line x1="11" y1="161" x2="10" y2="162" style="stroke: black; stroke-width: 1" />
 <line x1="10" y1="162" x2="8" y2="162" style="stroke: black; stroke-width: 1" />
 <line x1="8" y1="162" x2="7" y2="162" style="stroke: black; stroke-width: 1" />
 <line x1="7" y1="162" x2="6" y2="163" style="stroke: black; stroke-width: 1" />
 <line x1="6" y1="163" x2="4" y2="162" style="stroke: black; stroke-width: 1" />
 <line x1="4" y1="162" x2="3" y2="162" style="stroke: black; stroke-width: 1" />
 <line x1="3" y1="162" x2="3" y2="162" style="stroke: black; stroke-width: 1" />
 <line x1="3" y1="162" x2="2" y2="161" style="stroke: black; stroke-width: 1" />
 <line x1="20" y1="156" x2="20" y2="48" style="stroke: black; stroke-width: 1" />
 <line x1="20" y1="48" x2="22" y2="51" style="stroke: black; stroke-width: 1" />
 <line x1="22" y1="51" x2="23" y2="53" style="stroke: black; stroke-width: 1" />
 <line x1="23" y1="53" x2="26" y2="55" style="stroke: black; stroke-width: 1" />
 <line x1="26" y1="55" x2="28" y2="56" style="stroke: black; stroke-width: 1" />
 <line x1="28" y1="56" x2="30" y2="57" style="stroke: black; stroke-width: 1" />
 <line x1="30" y1="57" x2="32" y2="59" style="stroke: black; stroke-width: 1" />
 <line x1="32" y1="59" x2="33" y2="61" style="stroke: black; stroke-width: 1" />
 <line x1="33" y1="61" x2="36" y2="65" style="stroke: black; stroke-width: 1" />
 <line x1="36" y1="65" x2="36" y2="68" style="stroke: black; stroke-width: 1" />
 <line x1="36" y1="68" x2="37" y2="71" style="stroke: black; stroke-width: 1" />
 <line x1="37" y1="71" x2="37" y2="78" style="stroke: black; stroke-width: 1" />
 <line x1="37" y1="78" x2="37" y2="75" style="stroke: black; stroke-width: 1" />
 <line x1="37" y1="75" x2="35" y2="71" style="stroke: black; stroke-width: 1" />
 <line x1="35" y1="71" x2="33" y2="69" style="stroke: black; stroke-width: 1" />
 <line x1="33" y1="69" x2="32" y2="67" style="stroke: black; stroke-width: 1" />
 <line x1="32" y1="67" x2="30" y2="65" style="stroke: black; stroke-width: 1" />
 <line x1="30" y1="65" x2="28" y2="64" style="stroke: black; stroke-width: 1" />
 <line x1="28" y1="64" x2="27" y2="63" style="stroke: black; stroke-width: 1" />
 <line x1="27" y1="63" x2="25" y2="62" style="stroke: black; stroke-width: 1" />
 <line x1="25" y1="62" x2="23" y2="61" style="stroke: black; stroke-width: 1" />
 <line x1="23" y1="61" x2="22" y2="58" style="stroke: black; stroke-width: 1" />
 <line x1="22" y1="58" x2="21" y2="55" style="stroke: black; stroke-width: 1" />
 <line x1="21" y1="55" x2="20" y2="51" style="stroke: black; stroke-width: 1" />
 <line x1="20" y1="51" x2="20" y2="48" style="stroke: black; stroke-width: 1" />
 <line x1="20" y1="65" x2="22" y2="68" style="stroke: black; stroke-width: 1" />
 <line x1="22" y1="68" x2="23" y2="70" style="stroke: black; stroke-width: 1" />
 <line x1="23" y1="70" x2="26" y2="71" style="stroke: black; stroke-width: 1" />
 <line x1="26" y1="71" x2="28" y2="72" style="stroke: black; stroke-width: 1" />
 <line x1="28" y1="72" x2="30" y2="74" style="stroke: black; stroke-width: 1" />
 <line x1="30" y1="74" x2="32" y2="75" style="stroke: black; stroke-width: 1" />
 <line x1="32" y1="75" x2="33" y2="78" style="stroke: black; stroke-width: 1" />
 <line x1="33" y1="78" x2="36" y2="81" style="stroke: black; stroke-width: 1" />
 <line x1="36" y1="81" x2="36" y2="85" style="stroke: black; stroke-width: 1" />
 <line x1="36" y1="85" x2="37" y2="88" style="stroke: black; stroke-width: 1" />
 <line x1="37" y1="88" x2="37" y2="95" style="stroke: black; stroke-width: 1" />
 <line x1="37" y1="95" x2="37" y2="91" style="stroke: black; stroke-width: 1" />
 <line x1="37" y1="91" x2="35" y2="88" style="stroke: black; stroke-width: 1" />
 <line x1="35" y1="88" x2="33" y2="86" style="stroke: black; stroke-width: 1" />
 <line x1="33" y1="86" x2="32" y2="84" style="stroke: black; stroke-width: 1" />
 <line x1="32" y1="84" x2="30" y2="82" style="stroke: black; stroke-width: 1" />
 <line x1="30" y1="82" x2="28" y2="81" style="stroke: black; stroke-width: 1" />
 <line x1="28" y1="81" x2="27" y2="80" style="stroke: black; stroke-width: 1" />
 <line x1="27" y1="80" x2="25" y2="78" style="stroke: black; stroke-width: 1" />
 <line x1="25" y1="78" x2="23" y2="77" style="stroke: black; stroke-width: 1" />
 <line x1="23" y1="77" x2="22" y2="75" style="stroke: black; stroke-width: 1" />
 <line x1="22" y1="75" x2="21" y2="71" style="stroke: black; stroke-width: 1" />
 <line x1="21" y1="71" x2="20" y2="68" style="stroke: black; stroke-width: 1" />
 <line x1="20" y1="68" x2="20" y2="65" style="stroke: black; stroke-width: 1" />
 <line x1="20" y1="81" x2="22" y2="85" style="stroke: black; stroke-width: 1" />
 <line x1="22" y1="85" x2="23" y2="86" style="stroke: black; stroke-width: 1" />
 <line x1="23" y1="86" x2="26" y2="88" style="stroke: black; stroke-width: 1" />
 <line x1="26" y1="88" x2="28" y2="89" style="stroke: black; stroke-width: 1" />
 <line x1="28" y1="89" x2="30" y2="90" style="stroke: black; stroke-width: 1" />
 <line x1="30" y1="90" x2="32" y2="92" style="stroke: black; stroke-width: 1" />
 <line x1="32" y1="92" x2="33" y2="95" style="stroke: black; stroke-width: 1" />
 <line x1="33" y1="95" x2="36" y2="98" style="stroke: black; stroke-width: 1" />
 <line x1="36" y1="98" x2="36" y2="101" style="stroke: black; stroke-width: 1" />
 <line x1="36" y1="101" x2="37" y2="105" style="stroke: black; stroke-width: 1" />
 <line x1="37" y1="105" x2="37" y2="111" style="stroke: black; stroke-width: 1" />
 <line x1="37" y1="111" x2="37" y2="108" style="stroke: black; stroke-width: 1" />
 <line x1="37" y1="108" x2="35" y2="105" style="stroke: black; stroke-width: 1" />
 <line x1="35" y1="105" x2="33" y2="103" style="stroke: black; stroke-width: 1" />
 <line x1="33" y1="103" x2="32" y2="101" style="stroke: black; stroke-width: 1" />
 <line x1="32" y1="101" x2="30" y2="99" style="stroke: black; stroke-width: 1" />
 <line x1="30" y1="99" x2="28" y2="97" style="stroke: black; stroke-width: 1" />
 <line x1="28" y1="97" x2="27" y2="96" style="stroke: black; stroke-width: 1" />
 <line x1="27" y1="96" x2="25" y2="95" style="stroke: black; stroke-width: 1" />
 <line x1="25" y1="95" x2="23" y2="94" style="stroke: black; stroke-width: 1" />
 <line x1="23" y1="94" x2="22" y2="91" style="stroke: black; stroke-width: 1" />
 <line x1="22" y1="91" x2="21" y2="88" style="stroke: black; stroke-width: 1" />
 <line x1="21" y1="88" x2="20" y2="85" style="stroke: black; stroke-width: 1" />
 <line x1="20" y1="85" x2="20" y2="81" style="stroke: black; stroke-width: 1" />
 <line x1="20" y1="98" x2="22" y2="101" style="stroke: black; stroke-width: 1" />
 <line x1="22" y1="101" x2="23" y2="103" style="stroke: black; stroke-width: 1" />
 <line x1="23" y1="103" x2="26" y2="105" style="stroke: black; stroke-width: 1" />
 <line x1="26" y1="105" x2="28" y2="106" style="stroke: black; stroke-width: 1" />
 <line x1="28" y1="106" x2="30" y2="107" style="stroke: black; stroke-width: 1" />
 <line x1="30" y1="107" x2="32" y2="109" style="stroke: black; stroke-width: 1" />
 <line x1="32" y1="109" x2="33" y2="111" style="stroke: black; stroke-width: 1" />
 <line x1="33" y1="111" x2="36" y2="115" style="stroke: black; stroke-width: 1" />
 <line x1="36" y1="115" x2="36" y2="118" style="stroke: black; stroke-width: 1" />
 <line x1="36" y1="118" x2="37" y2="121" style="stroke: black; stroke-width: 1" />
 <line x1="37" y1="121" x2="37" y2="128" style="stroke: black; stroke-width: 1" />
 <line x1="37" y1="128" x2="37" y2="125" style="stroke: black; stroke-width: 1" />
 <line x1="37" y1="125" x2="35" y2="121" style="stroke: black; stroke-width: 1" />
 <line x1="35" y1="121" x2="33" y2="119" style="stroke: black; stroke-width: 1" />
 <line x1="33" y1="119" x2="32" y2="117" style="stroke: black; stroke-width: 1" />
 <line x1="32" y1="117" x2="30" y2="115" style="stroke: black; stroke-width: 1" />
 <line x1="30" y1="115" x2="28" y2="114" style="stroke: black; stroke-width: 1" />
 <line x1="28" y1="114" x2="27" y2="113" style="stroke: black; stroke-width: 1" />
 <line x1="27" y1="113" x2="25" y2="112" style="stroke: black; stroke-width: 1" />
 <line x1="25" y1="112" x2="23" y2="111" style="stroke: black; stroke-width: 1" />
 <line x1="23" y1="111" x2="22" y2="108" style="stroke: black; stroke-width: 1" />
 <line x1="22" y1="108" x2="21" y2="105" style="stroke: black; stroke-width: 1" />
 <line x1="21" y1="105" x2="20" y2="101" style="stroke: black; stroke-width: 1" />
 <line x1="20" y1="101" x2="20" y2="98" style="stroke: black; stroke-width: 1" />
 <line x1="0" y1="156" x2="38" y2="156" style="stroke: black; stroke-width: 1" />
 <line x1="0" y1="140" x2="38" y2="140" style="stroke: black; stroke-width: 1" />
 <line x1="0" y1="123" x2="38" y2="123" style="stroke: black; stroke-width: 1" />
 <line x1="0" y1="106" x2="38" y2="106" style="stroke: black; stroke-width: 1" />
 <line x1="0" y1="90" x2="38" y2="90" style="stroke: black; stroke-width: 1" />
 <line x1="0" y1="73" x2="38" y2="73" style="stroke: black; stroke-width: 1" />
</svg>
