<!DOCTYPE svg PUBLIC "-//W3C//DTD SVG 1.1//EN" "http://www.w3.org/Graphics/SVG/1.1/DTD/svg11.dtd">
<svg width="12001" height="31001" xmlns="http://www.w3.org/2000/svg">
 <line x1="16" y1="130" x2="13" y2="126" style="stroke: black; stroke-width: 1" />
 <line x1="13" y1="126" x2="10" y2="123" style="stroke: black; stroke-width: 1" />
 <line x1="10" y1="123" x2="9" y2="120" style="stroke: black; stroke-width: 1" />
 <line x1="9" y1="120" x2="9" y2="116" style="stroke: black; stroke-width: 1" />
 <line x1="9" y1="116" x2="10" y2="113" style="stroke: black; stroke-width: 1" />
 <line x1="10" y1="113" x2="12" y2="110" style="stroke: black; stroke-width: 1" />
 <line x1="12" y1="110" x2="13" y2="108" style="stroke: black; stroke-width: 1" />
 <line x1="13" y1="108" x2="16" y2="106" style="stroke: black; stroke-width: 1" />
 <line x1="16" y1="106" x2="26" y2="106" style="stroke: black; stroke-width: 1" />
 <line x1="26" y1="106" x2="30" y2="107" style="stroke: black; stroke-width: 1" />
 <line x1="30" y1="107" x2="33" y2="109" style="stroke: black; stroke-width: 1" />
 <line x1="33" y1="109" x2="36" y2="111" style="stroke: black; stroke-width: 1" />
 <line x1="36" y1="111" x2="38" y2="113" style="stroke: black; stroke-width: 1" />
 <line x1="38" y1="113" x2="39" y2="116" style="stroke: black; stroke-width: 1" />
 <line x1="39" y1="116" x2="40" y2="120" style="stroke: black; stroke-width: 1" />
 <line x1="40" y1="120" x2="40" y2="126" style="stroke: black; stroke-width: 1" />
 <line x1="40" y1="126" x2="39" y2="130" style="stroke: black; stroke-width: 1" />
 <line x1="39" y1="130" x2="36" y2="134" style="stroke: black; stroke-width: 1" />
 <line x1="36" y1="134" x2="33" y2="136" style="stroke: black; stroke-width: 1" />
 <line x1="33" y1="136" x2="30" y2="138" style="stroke: black; stroke-width: 1" />
 <line x1="30" y1="138" x2="26" y2="140" style="stroke: black; stroke-width: 1" />
 <line x1="26" y1="140" x2="20" y2="140" style="stroke: black; stroke-width: 1" />
 <line x1="20" y1="140" x2="16" y2="139" style="stroke: black; stroke-width: 1" />
 <line x1="16" y1="139" x2="13" y2="138" style="stroke: black; stroke-width: 1" />
 <line x1="13" y1="138" x2="10" y2="137" style="stroke: black; stroke-width: 1" />
 <line x1="10" y1="137" x2="6" y2="135" style="stroke: black; stroke-width: 1" />
 <line x1="6" y1="135" x2="3" y2="130" style="stroke: black; stroke-width: 1" />
 <line x1="3" y1="130" x2="0" y2="123" style="stroke: black; stroke-width: 1" />
 <line x1="0" y1="123" x2="0" y2="121" style="stroke: black; stroke-width: 1" />
 <line x1="0" y1="121" x2="0" y2="115" style="stroke: black; stroke-width: 1" />
 <line x1="0" y1="115" x2="1" y2="110" style="stroke: black; stroke-width: 1" />
 <line x1="1" y1="110" x2="3" y2="106" style="stroke: black; stroke-width: 1" />
 <line x1="3" y1="106" x2="10" y2="97" style="stroke: black; stroke-width: 1" />
 <line x1="10" y1="97" x2="18" y2="90" style="stroke: black; stroke-width: 1" />
 <line x1="18" y1="90" x2="23" y2="85" style="stroke: black; stroke-width: 1" />
 <line x1="23" y1="85" x2="26" y2="81" style="stroke: black; stroke-width: 1" />
 <line x1="26" y1="81" x2="30" y2="76" style="stroke: black; stroke-width: 1" />
 <line x1="30" y1="76" x2="31" y2="73" style="stroke: black; stroke-width: 1" />
 <line x1="31" y1="73" x2="32" y2="70" style="stroke: black; stroke-width: 1" />
 <line x1="32" y1="70" x2="32" y2="66" style="stroke: black; stroke-width: 1" />
 <line x1="32" y1="66" x2="32" y2="63" style="stroke: black; stroke-width: 1" />
 <line x1="32" y1="63" x2="31" y2="60" style="stroke: black; stroke-width: 1" />
 <line x1="31" y1="60" x2="30" y2="56" style="stroke: black; stroke-width: 1" />
 <line x1="30" y1="56" x2="26" y2="57" style="stroke: black; stroke-width: 1" />
 <line x1="26" y1="57" x2="24" y2="60" style="stroke: black; stroke-width: 1" />
 <line x1="24" y1="60" x2="23" y2="63" style="stroke: black; stroke-width: 1" />
 <line x1="23" y1="63" x2="23" y2="146" style="stroke: black; stroke-width: 1" />
 <line x1="23" y1="146" x2="22" y2="150" style="stroke: black; stroke-width: 1" />
 <line x1="22" y1="150" x2="21" y2="153" style="stroke: black; stroke-width: 1" />
 <line x1="21" y1="153" x2="20" y2="156" style="stroke: black; stroke-width: 1" />
 <line x1="20" y1="156" x2="16" y2="159" style="stroke: black; stroke-width: 1" />
 <line x1="16" y1="159" x2="13" y2="160" style="stroke: black; stroke-width: 1" />
 <line x1="13" y1="160" x2="10" y2="160" style="stroke: black; stroke-width: 1" />
 <line x1="10" y1="160" x2="6" y2="157" style="stroke: black; stroke-width: 1" />
 <line x1="6" y1="157" x2="4" y2="153" style="stroke: black; stroke-width: 1" />
 <line x1="4" y1="153" x2="3" y2="150" style="stroke: black; stroke-width: 1" />
 <line x1="3" y1="150" x2="3" y2="146" style="stroke: black; stroke-width: 1" />
 <line x1="3" y1="146" x2="4" y2="144" style="stroke: black; stroke-width: 1" />
 <line x1="4" y1="144" x2="6" y2="143" style="stroke: black; stroke-width: 1" />
 <line x1="6" y1="143" x2="7" y2="143" style="stroke: black; stroke-width: 1" />
 <line x1="7" y1="143" x2="10" y2="144" style="stroke: black; stroke-width: 1" />
 <line x1="10" y1="144" x2="10" y2="148" style="stroke: black; stroke-width: 1" />
 <line x1="10" y1="148" x2="8" y2="150" style="stroke: black; stroke-width: 1" />
 <line x1="8" y1="150" x2="6" y2="150" style="stroke: black; stroke-width: 1" />
 <line x1="6" y1="150" x2="5" y2="150" style="stroke: black; stroke-width: 1" />
 <line x1="5" y1="150" x2="3" y2="149" style="stroke: black; stroke-width: 1" />
 <line x1="13" y1="126" x2="11" y2="123" style="stroke: black; stroke-width: 1" />
 <line x1="11" y1="123" x2="11" y2="120" style="stroke: black; stroke-width: 1" />
 <line x1="11" y1="120" x2="12" y2="116" style="stroke: black; stroke-width: 1" />
 <line x1="12" y1="116" x2="13" y2="113" style="stroke: black; stroke-width: 1" />
 <line x1="13" y1="113" x2="16" y2="110" style="stroke: black; stroke-width: 1" />
 <line x1="16" y1="110" x2="20" y2="110" style="stroke: black; stroke-width: 1" />
 <line x1="20" y1="110" x2="26" y2="110" style="stroke: black; stroke-width: 1" />
 <line x1="26" y1="110" x2="30" y2="110" style="stroke: black; stroke-width: 1" />
 <line x1="30" y1="110" x2="31" y2="111" style="stroke: black; stroke-width: 1" />
 <line x1="31" y1="111" x2="33" y2="113" style="stroke: black; stroke-width: 1" />
 <line x1="33" y1="113" x2="35" y2="116" style="stroke: black; stroke-width: 1" />
 <line x1="35" y1="116" x2="36" y2="120" style="stroke: black; stroke-width: 1" />
 <line x1="36" y1="120" x2="36" y2="123" style="stroke: black; stroke-width: 1" />
 <line x1="36" y1="123" x2="36" y2="126" style="stroke: black; stroke-width: 1" />
 <line x1="36" y1="126" x2="34" y2="130" style="stroke: black; stroke-width: 1" />
 <line x1="34" y1="130" x2="32" y2="133" style="stroke: black; stroke-width: 1" />
 <line x1="32" y1="133" x2="30" y2="135" style="stroke: black; stroke-width: 1" />
 <line x1="30" y1="135" x2="26" y2="137" style="stroke: black; stroke-width: 1" />
 <line x1="26" y1="137" x2="20" y2="140" style="stroke: black; stroke-width: 1" />
 <line x1="0" y1="117" x2="1" y2="113" style="stroke: black; stroke-width: 1" />
 <line x1="1" y1="113" x2="3" y2="110" style="stroke: black; stroke-width: 1" />
 <line x1="3" y1="110" x2="6" y2="107" style="stroke: black; stroke-width: 1" />
 <line x1="6" y1="107" x2="16" y2="100" style="stroke: black; stroke-width: 1" />
 <line x1="16" y1="100" x2="19" y2="99" style="stroke: black; stroke-width: 1" />
 <line x1="19" y1="99" x2="23" y2="96" style="stroke: black; stroke-width: 1" />
 <line x1="23" y1="96" x2="26" y2="93" style="stroke: black; stroke-width: 1" />
 <line x1="26" y1="93" x2="28" y2="90" style="stroke: black; stroke-width: 1" />
 <line x1="28" y1="90" x2="30" y2="86" style="stroke: black; stroke-width: 1" />
 <line x1="30" y1="86" x2="32" y2="80" style="stroke: black; stroke-width: 1" />
 <line x1="32" y1="80" x2="32" y2="76" style="stroke: black; stroke-width: 1" />
 <line x1="32" y1="76" x2="32" y2="73" style="stroke: black; stroke-width: 1" />
 <line x1="32" y1="73" x2="32" y2="71" style="stroke: black; stroke-width: 1" />
 <line x1="32" y1="71" x2="32" y2="66" style="stroke: black; stroke-width: 1" />
 <line x1="30" y1="56" x2="27" y2="60" style="stroke: black; stroke-width: 1" />
 <line x1="27" y1="60" x2="25" y2="63" style="stroke: black; stroke-width: 1" />
 <line x1="25" y1="63" x2="24" y2="66" style="stroke: black; stroke-width: 1" />
 <line x1="24" y1="66" x2="23" y2="70" style="stroke: black; stroke-width: 1" />
 <line x1="23" y1="70" x2="23" y2="76" style="stroke: black; stroke-width: 1" />
 <line x1="0" y1="140" x2="39" y2="140" style="stroke: black; stroke-width: 1" />
 <line x1="0" y1="123" x2="39" y2="123" style="stroke: black; stroke-width: 1" />
 <line x1="0" y1="106" x2="39" y2="106" style="stroke: black; stroke-width: 1" />
 <line x1="0" y1="90" x2="39" y2="90" style="stroke: black; stroke-width: 1" />
 <line x1="0" y1="73" x2="39" y2="73" style="stroke: black; stroke-width: 1" />
</svg>
