<!DOCTYPE svg PUBLIC "-//W3C//DTD SVG 1.1//EN" "http://www.w3.org/Graphics/SVG/1.1/DTD/svg11.dtd">
<svg width="6486" height="60001" xmlns="http://www.w3.org/2000/svg">
 <line x1="1" y1="128" x2="1" y2="127" style="stroke: black; stroke-width: 1" />
 <line x1="1" y1="127" x2="1" y2="126" style="stroke: black; stroke-width: 1" />
 <line x1="1" y1="126" x2="1" y2="124" style="stroke: black; stroke-width: 1" />
 <line x1="1" y1="124" x2="1" y2="123" style="stroke: black; stroke-width: 1" />
 <line x1="1" y1="123" x2="2" y2="121" style="stroke: black; stroke-width: 1" />
 <line x1="2" y1="121" x2="3" y2="120" style="stroke: black; stroke-width: 1" />
 <line x1="3" y1="120" x2="4" y2="119" style="stroke: black; stroke-width: 1" />
 <line x1="4" y1="119" x2="5" y2="117" style="stroke: black; stroke-width: 1" />
 <line x1="5" y1="117" x2="7" y2="116" style="stroke: black; stroke-width: 1" />
 <line x1="7" y1="116" x2="8" y2="116" style="stroke: black; stroke-width: 1" />
 <line x1="8" y1="116" x2="10" y2="115" style="stroke: black; stroke-width: 1" />
 <line x1="10" y1="115" x2="12" y2="115" style="stroke: black; stroke-width: 1" />
 <line x1="12" y1="115" x2="13" y2="115" style="stroke: black; stroke-width: 1" />
 <line x1="13" y1="115" x2="15" y2="115" style="stroke: black; stroke-width: 1" />
 <line x1="15" y1="115" x2="16" y2="115" style="stroke: black; stroke-width: 1" />
 <line x1="16" y1="115" x2="18" y2="116" style="stroke: black; stroke-width: 1" />
 <line x1="18" y1="116" x2="19" y2="117" style="stroke: black; stroke-width: 1" />
 <line x1="19" y1="117" x2="19" y2="118" style="stroke: black; stroke-width: 1" />
 <line x1="19" y1="118" x2="20" y2="119" style="stroke: black; stroke-width: 1" />
 <line x1="20" y1="119" x2="20" y2="120" style="stroke: black; stroke-width: 1" />
 <line x1="20" y1="120" x2="20" y2="122" style="stroke: black; stroke-width: 1" />
 <line x1="20" y1="122" x2="20" y2="123" style="stroke: black; stroke-width: 1" />
 <line x1="20" y1="123" x2="19" y2="124" style="stroke: black; stroke-width: 1" />
 <line x1="19" y1="124" x2="18" y2="126" style="stroke: black; stroke-width: 1" />
 <line x1="18" y1="126" x2="17" y2="127" style="stroke: black; stroke-width: 1" />
 <line x1="17" y1="127" x2="16" y2="128" style="stroke: black; stroke-width: 1" />
 <line x1="16" y1="128" x2="14" y2="129" style="stroke: black; stroke-width: 1" />
 <line x1="14" y1="129" x2="12" y2="130" style="stroke: black; stroke-width: 1" />
 <line x1="12" y1="130" x2="11" y2="131" style="stroke: black; stroke-width: 1" />
 <line x1="11" y1="131" x2="9" y2="131" style="stroke: black; stroke-width: 1" />
 <line x1="9" y1="131" x2="7" y2="131" style="stroke: black; stroke-width: 1" />
 <line x1="7" y1="131" x2="6" y2="131" style="stroke: black; stroke-width: 1" />
 <line x1="6" y1="131" x2="4" y2="131" style="stroke: black; stroke-width: 1" />
 <line x1="4" y1="131" x2="3" y2="130" style="stroke: black; stroke-width: 1" />
 <line x1="3" y1="130" x2="2" y2="129" style="stroke: black; stroke-width: 1" />
 <line x1="2" y1="129" x2="1" y2="128" style="stroke: black; stroke-width: 1" />
 <line x1="2" y1="128" x2="2" y2="127" style="stroke: black; stroke-width: 1" />
 <line x1="2" y1="127" x2="2" y2="126" style="stroke: black; stroke-width: 1" />
 <line x1="2" y1="126" x2="2" y2="125" style="stroke: black; stroke-width: 1" />
 <line x1="2" y1="125" x2="2" y2="124" style="stroke: black; stroke-width: 1" />
 <line x1="2" y1="124" x2="3" y2="123" style="stroke: black; stroke-width: 1" />
 <line x1="3" y1="123" x2="4" y2="121" style="stroke: black; stroke-width: 1" />
 <line x1="4" y1="121" x2="5" y2="120" style="stroke: black; stroke-width: 1" />
 <line x1="5" y1="120" x2="6" y2="119" style="stroke: black; stroke-width: 1" />
 <line x1="6" y1="119" x2="8" y2="119" style="stroke: black; stroke-width: 1" />
 <line x1="8" y1="119" x2="9" y2="118" style="stroke: black; stroke-width: 1" />
 <line x1="9" y1="118" x2="11" y2="117" style="stroke: black; stroke-width: 1" />
 <line x1="11" y1="117" x2="12" y2="117" style="stroke: black; stroke-width: 1" />
 <line x1="12" y1="117" x2="14" y2="117" style="stroke: black; stroke-width: 1" />
 <line x1="14" y1="117" x2="15" y2="116" style="stroke: black; stroke-width: 1" />
 <line x1="15" y1="116" x2="16" y2="117" style="stroke: black; stroke-width: 1" />
 <line x1="16" y1="117" x2="17" y2="117" style="stroke: black; stroke-width: 1" />
 <line x1="17" y1="117" x2="18" y2="117" style="stroke: black; stroke-width: 1" />
 <line x1="18" y1="117" x2="18" y2="118" style="stroke: black; stroke-width: 1" />
 <line x1="18" y1="118" x2="19" y2="119" style="stroke: black; stroke-width: 1" />
 <line x1="19" y1="119" x2="19" y2="120" style="stroke: black; stroke-width: 1" />
 <line x1="19" y1="120" x2="19" y2="121" style="stroke: black; stroke-width: 1" />
 <line x1="19" y1="121" x2="18" y2="122" style="stroke: black; stroke-width: 1" />
 <line x1="18" y1="122" x2="17" y2="123" style="stroke: black; stroke-width: 1" />
 <line x1="17" y1="123" x2="17" y2="124" style="stroke: black; stroke-width: 1" />
 <line x1="17" y1="124" x2="15" y2="125" style="stroke: black; stroke-width: 1" />
 <line x1="15" y1="125" x2="14" y2="126" style="stroke: black; stroke-width: 1" />
 <line x1="14" y1="126" x2="13" y2="127" style="stroke: black; stroke-width: 1" />
 <line x1="13" y1="127" x2="11" y2="128" style="stroke: black; stroke-width: 1" />
 <line x1="11" y1="128" x2="10" y2="128" style="stroke: black; stroke-width: 1" />
 <line x1="10" y1="128" x2="8" y2="129" style="stroke: black; stroke-width: 1" />
 <line x1="8" y1="129" x2="7" y2="129" style="stroke: black; stroke-width: 1" />
 <line x1="7" y1="129" x2="6" y2="129" style="stroke: black; stroke-width: 1" />
 <line x1="6" y1="129" x2="4" y2="129" style="stroke: black; stroke-width: 1" />
 <line x1="4" y1="129" x2="3" y2="129" style="stroke: black; stroke-width: 1" />
 <line x1="3" y1="129" x2="3" y2="128" style="stroke: black; stroke-width: 1" />
 <line x1="3" y1="128" x2="2" y2="128" style="stroke: black; stroke-width: 1" />
 <line x1="20" y1="123" x2="20" y2="65" style="stroke: black; stroke-width: 1" />
 <line x1="0" y1="140" x2="21" y2="140" style="stroke: black; stroke-width: 1" />
 <line x1="0" y1="123" x2="21" y2="123" style="stroke: black; stroke-width: 1" />
 <line x1="0" y1="106" x2="21" y2="106" style="stroke: black; stroke-width: 1" />
 <line x1="0" y1="90" x2="21" y2="90" style="stroke: black; stroke-width: 1" />
 <line x1="0" y1="73" x2="21" y2="73" style="stroke: black; stroke-width: 1" />
</svg>
