<!DOCTYPE svg PUBLIC "-//W3C//DTD SVG 1.1//EN" "http://www.w3.org/Graphics/SVG/1.1/DTD/svg11.dtd">
<svg width="6486" height="60001" xmlns="http://www.w3.org/2000/svg">
 <line x1="1" y1="78" x2="1" y2="77" style="stroke: black; stroke-width: 1" />
 <line x1="1" y1="77" x2="1" y2="76" style="stroke: black; stroke-width: 1" />
 <line x1="1" y1="76" x2="1" y2="74" style="stroke: black; stroke-width: 1" />
 <line x1="1" y1="74" x2="1" y2="73" style="stroke: black; stroke-width: 1" />
 <line x1="1" y1="73" x2="2" y2="71" style="stroke: black; stroke-width: 1" />
 <line x1="2" y1="71" x2="3" y2="70" style="stroke: black; stroke-width: 1" />
 <line x1="3" y1="70" x2="4" y2="69" style="stroke: black; stroke-width: 1" />
 <line x1="4" y1="69" x2="5" y2="67" style="stroke: black; stroke-width: 1" />
 <line x1="5" y1="67" x2="7" y2="66" style="stroke: black; stroke-width: 1" />
 <line x1="7" y1="66" x2="8" y2="66" style="stroke: black; stroke-width: 1" />
 <line x1="8" y1="66" x2="10" y2="65" style="stroke: black; stroke-width: 1" />
 <line x1="10" y1="65" x2="12" y2="65" style="stroke: black; stroke-width: 1" />
 <line x1="12" y1="65" x2="13" y2="65" style="stroke: black; stroke-width: 1" />
 <line x1="13" y1="65" x2="15" y2="65" style="stroke: black; stroke-width: 1" />
 <line x1="15" y1="65" x2="16" y2="65" style="stroke: black; stroke-width: 1" />
 <line x1="16" y1="65" x2="18" y2="66" style="stroke: black; stroke-width: 1" />
 <line x1="18" y1="66" x2="19" y2="67" style="stroke: black; stroke-width: 1" />
 <line x1="19" y1="67" x2="19" y2="68" style="stroke: black; stroke-width: 1" />
 <line x1="19" y1="68" x2="20" y2="69" style="stroke: black; stroke-width: 1" />
 <line x1="20" y1="69" x2="20" y2="70" style="stroke: black; stroke-width: 1" />
 <line x1="20" y1="70" x2="20" y2="72" style="stroke: black; stroke-width: 1" />
 <line x1="20" y1="72" x2="20" y2="73" style="stroke: black; stroke-width: 1" />
 <line x1="20" y1="73" x2="19" y2="74" style="stroke: black; stroke-width: 1" />
 <line x1="19" y1="74" x2="18" y2="76" style="stroke: black; stroke-width: 1" />
 <line x1="18" y1="76" x2="17" y2="77" style="stroke: black; stroke-width: 1" />
 <line x1="17" y1="77" x2="16" y2="78" style="stroke: black; stroke-width: 1" />
 <line x1="16" y1="78" x2="14" y2="79" style="stroke: black; stroke-width: 1" />
 <line x1="14" y1="79" x2="12" y2="80" style="stroke: black; stroke-width: 1" />
 <line x1="12" y1="80" x2="11" y2="81" style="stroke: black; stroke-width: 1" />
 <line x1="11" y1="81" x2="9" y2="81" style="stroke: black; stroke-width: 1" />
 <line x1="9" y1="81" x2="7" y2="81" style="stroke: black; stroke-width: 1" />
 <line x1="7" y1="81" x2="6" y2="81" style="stroke: black; stroke-width: 1" />
 <line x1="6" y1="81" x2="4" y2="81" style="stroke: black; stroke-width: 1" />
 <line x1="4" y1="81" x2="3" y2="80" style="stroke: black; stroke-width: 1" />
 <line x1="3" y1="80" x2="2" y2="79" style="stroke: black; stroke-width: 1" />
 <line x1="2" y1="79" x2="1" y2="78" style="stroke: black; stroke-width: 1" />
 <line x1="2" y1="78" x2="2" y2="77" style="stroke: black; stroke-width: 1" />
 <line x1="2" y1="77" x2="2" y2="76" style="stroke: black; stroke-width: 1" />
 <line x1="2" y1="76" x2="2" y2="75" style="stroke: black; stroke-width: 1" />
 <line x1="2" y1="75" x2="2" y2="74" style="stroke: black; stroke-width: 1" />
 <line x1="2" y1="74" x2="3" y2="73" style="stroke: black; stroke-width: 1" />
 <line x1="3" y1="73" x2="4" y2="71" style="stroke: black; stroke-width: 1" />
 <line x1="4" y1="71" x2="5" y2="70" style="stroke: black; stroke-width: 1" />
 <line x1="5" y1="70" x2="6" y2="69" style="stroke: black; stroke-width: 1" />
 <line x1="6" y1="69" x2="8" y2="69" style="stroke: black; stroke-width: 1" />
 <line x1="8" y1="69" x2="9" y2="68" style="stroke: black; stroke-width: 1" />
 <line x1="9" y1="68" x2="11" y2="67" style="stroke: black; stroke-width: 1" />
 <line x1="11" y1="67" x2="12" y2="67" style="stroke: black; stroke-width: 1" />
 <line x1="12" y1="67" x2="14" y2="67" style="stroke: black; stroke-width: 1" />
 <line x1="14" y1="67" x2="15" y2="66" style="stroke: black; stroke-width: 1" />
 <line x1="15" y1="66" x2="16" y2="67" style="stroke: black; stroke-width: 1" />
 <line x1="16" y1="67" x2="17" y2="67" style="stroke: black; stroke-width: 1" />
 <line x1="17" y1="67" x2="18" y2="67" style="stroke: black; stroke-width: 1" />
 <line x1="18" y1="67" x2="18" y2="68" style="stroke: black; stroke-width: 1" />
 <line x1="18" y1="68" x2="19" y2="69" style="stroke: black; stroke-width: 1" />
 <line x1="19" y1="69" x2="19" y2="70" style="stroke: black; stroke-width: 1" />
 <line x1="19" y1="70" x2="19" y2="71" style="stroke: black; stroke-width: 1" />
 <line x1="19" y1="71" x2="18" y2="72" style="stroke: black; stroke-width: 1" />
 <line x1="18" y1="72" x2="17" y2="73" style="stroke: black; stroke-width: 1" />
 <line x1="17" y1="73" x2="17" y2="74" style="stroke: black; stroke-width: 1" />
 <line x1="17" y1="74" x2="15" y2="75" style="stroke: black; stroke-width: 1" />
 <line x1="15" y1="75" x2="14" y2="76" style="stroke: black; stroke-width: 1" />
 <line x1="14" y1="76" x2="13" y2="77" style="stroke: black; stroke-width: 1" />
 <line x1="13" y1="77" x2="11" y2="78" style="stroke: black; stroke-width: 1" />
 <line x1="11" y1="78" x2="10" y2="78" style="stroke: black; stroke-width: 1" />
 <line x1="10" y1="78" x2="8" y2="79" style="stroke: black; stroke-width: 1" />
 <line x1="8" y1="79" x2="7" y2="79" style="stroke: black; stroke-width: 1" />
 <line x1="7" y1="79" x2="6" y2="79" style="stroke: black; stroke-width: 1" />
 <line x1="6" y1="79" x2="4" y2="79" style="stroke: black; stroke-width: 1" />
 <line x1="4" y1="79" x2="3" y2="79" style="stroke: black; stroke-width: 1" />
 <line x1="3" y1="79" x2="3" y2="78" style="stroke: black; stroke-width: 1" />
 <line x1="3" y1="78" x2="2" y2="78" style="stroke: black; stroke-width: 1" />
 <line x1="1" y1="77" x2="1" y2="135" style="stroke: black; stroke-width: 1" />
 <line x1="0" y1="140" x2="21" y2="140" style="stroke: black; stroke-width: 1" />
 <line x1="0" y1="123" x2="21" y2="123" style="stroke: black; stroke-width: 1" />
 <line x1="0" y1="106" x2="21" y2="106" style="stroke: black; stroke-width: 1" />
 <line x1="0" y1="90" x2="21" y2="90" style="stroke: black; stroke-width: 1" />
 <line x1="0" y1="73" x2="21" y2="73" style="stroke: black; stroke-width: 1" />
</svg>
