<!DOCTYPE svg PUBLIC "-//W3C//DTD SVG 1.1//EN" "http://www.w3.org/Graphics/SVG/1.1/DTD/svg11.dtd">
<svg width="42" height="34" xmlns="http://www.w3.org/2000/svg">
 <!-- Gardiner/Zz376515 at (0,11.2) in green, scale=.08, mirror=0 -->
 <line x1="11.16" y1="28.16" x2="15.16" y2="27.76" style="stroke:green;stroke-width:1" />
 <line x1="15.16" y1="27.76" x2="19.08" y2="27.76" style="stroke:green;stroke-width:1" />
 <line x1="19.08" y1="27.76" x2="23.08" y2="27.76" style="stroke:green;stroke-width:1" />
 <line x1="23.08" y1="27.76" x2="27.48" y2="27.76" style="stroke:green;stroke-width:1" />
 <line x1="27.48" y1="27.76" x2="32.2" y2="28.16" style="stroke:green;stroke-width:1" />
 <line x1="32.2" y1="28.16" x2="36.28" y2="28.8" style="stroke:green;stroke-width:1" />
 <line x1="36.28" y1="28.8" x2="36.28" y2="26.16" style="stroke:green;stroke-width:1" />
 <line x1="36.28" y1="26.16" x2="35.88" y2="23.92" style="stroke:green;stroke-width:1" />
 <line x1="35.88" y1="23.92" x2="35.4" y2="22.32" style="stroke:green;stroke-width:1" />
 <line x1="35.4" y1="22.32" x2="34.68" y2="21.6" style="stroke:green;stroke-width:1" />
 <line x1="34.68" y1="21.6" x2="33.64" y2="21.28" style="stroke:green;stroke-width:1" />
 <line x1="33.64" y1="21.28" x2="33.64" y2="21.12" style="stroke:green;stroke-width:1" />
 <line x1="33.64" y1="21.12" x2="32.52" y2="21.28" style="stroke:green;stroke-width:1" />
 <line x1="32.52" y1="21.28" x2="31.32" y2="22" style="stroke:green;stroke-width:1" />
 <line x1="31.32" y1="22" x2="30.44" y2="23.2" style="stroke:green;stroke-width:1" />
 <line x1="30.44" y1="23.2" x2="29.96" y2="24.4" style="stroke:green;stroke-width:1" />
 <line x1="29.96" y1="24.4" x2="29.24" y2="26.16" style="stroke:green;stroke-width:1" />
 <line x1="29.24" y1="26.16" x2="24.84" y2="25.84" style="stroke:green;stroke-width:1" />
 <line x1="24.84" y1="25.84" x2="24.52" y2="24.08" style="stroke:green;stroke-width:1" />
 <line x1="24.52" y1="24.08" x2="24.12" y2="22.48" style="stroke:green;stroke-width:1" />
 <line x1="24.12" y1="22.48" x2="23.64" y2="21.6" style="stroke:green;stroke-width:1" />
 <line x1="23.64" y1="21.6" x2="22.92" y2="20.96" style="stroke:green;stroke-width:1" />
 <line x1="22.92" y1="20.96" x2="22.04" y2="20.4" style="stroke:green;stroke-width:1" />
 <line x1="22.04" y1="20.4" x2="21" y2="20.72" style="stroke:green;stroke-width:1" />
 <line x1="21" y1="20.72" x2="20.28" y2="21.6" style="stroke:green;stroke-width:1" />
 <line x1="20.28" y1="21.6" x2="19.56" y2="23.2" style="stroke:green;stroke-width:1" />
 <line x1="19.56" y1="23.2" x2="18.84" y2="25.28" style="stroke:green;stroke-width:1" />
 <line x1="18.84" y1="25.28" x2="14.12" y2="25.12" style="stroke:green;stroke-width:1" />
 <line x1="14.12" y1="25.12" x2="14.12" y2="23.52" style="stroke:green;stroke-width:1" />
 <line x1="14.12" y1="23.52" x2="13.64" y2="22" style="stroke:green;stroke-width:1" />
 <line x1="13.64" y1="22" x2="13.08" y2="21.12" style="stroke:green;stroke-width:1" />
 <line x1="13.08" y1="21.12" x2="11.88" y2="20.08" style="stroke:green;stroke-width:1" />
 <line x1="11.88" y1="20.08" x2="10.12" y2="14.08" style="stroke:green;stroke-width:1" />
 <line x1="10.12" y1="14.08" x2="9.72" y2="13.2" style="stroke:green;stroke-width:1" />
 <line x1="9.72" y1="13.2" x2="8.84" y2="13.2" style="stroke:green;stroke-width:1" />
 <line x1="8.84" y1="13.2" x2="8.36" y2="13.76" style="stroke:green;stroke-width:1" />
 <line x1="8.36" y1="13.76" x2="8.12" y2="14.4" style="stroke:green;stroke-width:1" />
 <line x1="8.12" y1="14.4" x2="8.84" y2="17.76" style="stroke:green;stroke-width:1" />
 <line x1="8.84" y1="17.76" x2="8.84" y2="18.64" style="stroke:green;stroke-width:1" />
 <line x1="8.84" y1="18.64" x2="8.12" y2="19.52" style="stroke:green;stroke-width:1" />
 <line x1="6.92" y1="20.4" x2="8.12" y2="19.36" style="stroke:green;stroke-width:1" />
 <line x1="8.12" y1="19.36" x2="6.04" y2="21.28" style="stroke:green;stroke-width:1" />
 <line x1="6.04" y1="21.28" x2="5.32" y2="22.88" style="stroke:green;stroke-width:1" />
 <line x1="5.32" y1="22.88" x2="5" y2="24.24" style="stroke:green;stroke-width:1" />
 <line x1="5" y1="24.24" x2="5.56" y2="26" style="stroke:green;stroke-width:1" />
 <line x1="5.56" y1="26" x2="6.6" y2="27.44" style="stroke:green;stroke-width:1" />
 <line x1="6.6" y1="27.44" x2="8.36" y2="28.16" style="stroke:green;stroke-width:1" />
 <line x1="8.36" y1="28.16" x2="9.88" y2="28.32" style="stroke:green;stroke-width:1" />
 <line x1="9.88" y1="28.32" x2="11.32" y2="28.16" style="stroke:green;stroke-width:1" />
 <line x1="11.32" y1="28.16" x2="12.76" y2="27.28" style="stroke:green;stroke-width:1" />
 <line x1="12.76" y1="27.28" x2="13.64" y2="26.4" style="stroke:green;stroke-width:1" />
 <line x1="13.64" y1="26.4" x2="14.12" y2="25.12" style="stroke:green;stroke-width:1" />

</svg>
