<!DOCTYPE svg PUBLIC "-//W3C//DTD SVG 1.1//EN" "http://www.w3.org/Graphics/SVG/1.1/DTD/svg11.dtd">
<svg width="35" height="47" xmlns="http://www.w3.org/2000/svg">
 <!-- Gardiner/Zz376515 at (0,.63636363636363636) in green, scale=.0545454545454545456, mirror=0 -->
 <line x1="5" y1="35" x2="29.5454545454545454" y2="35" style="stroke:green;stroke-width:1" />
 <line x1="29.5454545454545454" y1="38" x2="5" y2="38" style="stroke:green;stroke-width:1" />
 <line x1="5" y1="41" x2="29.5454545454545454" y2="41" style="stroke:green;stroke-width:1" />
 <line x1="8" y1="35" x2="8" y2="41" style="stroke:green;stroke-width:1" />
 <line x1="12.6363636363636363" y1="35" x2="12.6363636363636363" y2="41" style="stroke:green;stroke-width:1" />
 <line x1="17.2727272727272727" y1="35" x2="17.2727272727272727" y2="41" style="stroke:green;stroke-width:1" />
 <line x1="21.909090909090909" y1="35" x2="21.909090909090909" y2="41" style="stroke:green;stroke-width:1" />
 <line x1="26.5454545454545454" y1="35" x2="26.5454545454545454" y2="41" style="stroke:green;stroke-width:1" />
 <line x1="29.4363636363636363" y1="22.7818181818181818" x2="5" y2="22.7818181818181818" style="stroke:green;stroke-width:1" />
 <line x1="8.7090909090909091" y1="22.7818181818181818" x2="8.27272727272727273" y2="21.4727272727272727" style="stroke:green;stroke-width:1" />
 <line x1="8.27272727272727273" y1="21.4727272727272727" x2="7.56363636363636364" y2="20.3818181818181817" style="stroke:green;stroke-width:1" />
 <line x1="7.56363636363636364" y1="20.3818181818181817" x2="6.47272727272727273" y2="19.5636363636363636" style="stroke:green;stroke-width:1" />
 <line x1="6.47272727272727273" y1="19.5636363636363636" x2="5.6" y2="19.5636363636363636" style="stroke:green;stroke-width:1" />
 <line x1="5.6" y1="19.5636363636363636" x2="5.10909090909090909" y2="20.0545454545454545" style="stroke:green;stroke-width:1" />
 <line x1="5.10909090909090909" y1="20.0545454545454545" x2="5" y2="20.709090909090909" style="stroke:green;stroke-width:1" />
 <line x1="5" y1="20.709090909090909" x2="5.21818181818181818" y2="21.7999999999999999" style="stroke:green;stroke-width:1" />
 <line x1="5.21818181818181818" y1="21.7999999999999999" x2="5.54545454545454545" y2="22.7818181818181818" style="stroke:green;stroke-width:1" />
 <line x1="5.54545454545454545" y1="22.7818181818181818" x2="6.52727272727272727" y2="26.0545454545454545" style="stroke:green;stroke-width:1" />
 <line x1="6.52727272727272727" y1="26.0545454545454545" x2="8.27272727272727273" y2="26.0545454545454545" style="stroke:green;stroke-width:1" />
 <line x1="8.27272727272727273" y1="26.0545454545454545" x2="8.7090909090909091" y2="22.7818181818181818" style="stroke:green;stroke-width:1" />
 <line x1="17.2727272727272727" y1="22.7818181818181818" x2="17.2727272727272727" y2="35.2727272727272727" style="stroke:green;stroke-width:1" />
 <line x1="13.2909090909090909" y1="22.7818181818181818" x2="17.2727272727272727" y2="27.9636363636363636" style="stroke:green;stroke-width:1" />
 <line x1="17.2727272727272727" y1="22.7818181818181818" x2="18.5272727272727272" y2="24.4181818181818181" style="stroke:green;stroke-width:1" />
 <line x1="18.5272727272727272" y1="24.4181818181818181" x2="19.3454545454545454" y2="26.1636363636363636" style="stroke:green;stroke-width:1" />
 <line x1="19.3454545454545454" y1="26.1636363636363636" x2="19.9999999999999999" y2="27.8" style="stroke:green;stroke-width:1" />
 <line x1="19.9999999999999999" y1="27.8" x2="20.2181818181818181" y2="28.8363636363636363" style="stroke:green;stroke-width:1" />
 <line x1="20.2181818181818181" y1="28.8363636363636363" x2="19.9999999999999999" y2="29.4909090909090909" style="stroke:green;stroke-width:1" />
 <line x1="19.9999999999999999" y1="29.4909090909090909" x2="19.6181818181818181" y2="29.8727272727272727" style="stroke:green;stroke-width:1" />
 <line x1="19.6181818181818181" y1="29.8727272727272727" x2="19.0727272727272727" y2="29.9272727272727272" style="stroke:green;stroke-width:1" />
 <line x1="19.0727272727272727" y1="29.9272727272727272" x2="18.5818181818181817" y2="29.6" style="stroke:green;stroke-width:1" />
 <line x1="18.5818181818181817" y1="29.6" x2="18.909090909090909" y2="30.7454545454545454" style="stroke:green;stroke-width:1" />
 <line x1="18.909090909090909" y1="30.7454545454545454" x2="19.0181818181818181" y2="31.4545454545454545" style="stroke:green;stroke-width:1" />
 <line x1="19.0181818181818181" y1="31.4545454545454545" x2="18.9636363636363636" y2="32.0545454545454545" style="stroke:green;stroke-width:1" />
 <line x1="18.9636363636363636" y1="32.0545454545454545" x2="18.4181818181818181" y2="32.2727272727272727" style="stroke:green;stroke-width:1" />
 <line x1="18.4181818181818181" y1="32.2727272727272727" x2="17.8727272727272727" y2="32" style="stroke:green;stroke-width:1" />
 <line x1="17.8727272727272727" y1="32" x2="17.2727272727272727" y2="31.5636363636363636" style="stroke:green;stroke-width:1" />
 <path d="M 27.3636363636363636 7.18181818181818182
          A 1.09090909090909091 1.09090909090909091 0 1 0 27.3636363636363636 5"
       stroke="green" fill="white" stroke-width="1" fill-opacity="0.0"/>
 <line x1="27.3636363636363636" y1="5" x2="6.09090909090909091" y2="5" style="stroke:green;stroke-width:1" />
 <path d="M 6.09090909090909091 5
          A 1.09090909090909091 1.09090909090909091 0 1 0 6.09090909090909091 7.18181818181818182"
       stroke="green" fill="white" stroke-width="1" fill-opacity="0.0"/>
 <line x1="6.09090909090909091" y1="7.18181818181818182" x2="27.3636363636363636" y2="7.18181818181818182" style="stroke:green;stroke-width:1" />
 <line x1="10.2363636363636363" y1="14.5454545454545454" x2="10.2363636363636363" y2="15.0909090909090908" style="stroke:green;stroke-width:1" />
 <line x1="10.2363636363636363" y1="15.0909090909090908" x2="10.2909090909090909" y2="15.5818181818181817" style="stroke:green;stroke-width:1" />
 <line x1="10.2909090909090909" y1="15.5818181818181817" x2="10.4" y2="16.1818181818181817" style="stroke:green;stroke-width:1" />
 <line x1="10.4" y1="16.1818181818181817" x2="10.5090909090909091" y2="16.7272727272727272" style="stroke:green;stroke-width:1" />
 <line x1="10.5090909090909091" y1="16.7272727272727272" x2="10.5636363636363636" y2="17.3818181818181817" style="stroke:green;stroke-width:1" />
 <line x1="10.5636363636363636" y1="17.3818181818181817" x2="10.5636363636363636" y2="17.9818181818181817" style="stroke:green;stroke-width:1" />
 <line x1="10.5636363636363636" y1="17.9818181818181817" x2="10.6181818181818181" y2="18.6363636363636363" style="stroke:green;stroke-width:1" />
 <line x1="10.6181818181818181" y1="18.6363636363636363" x2="10.6181818181818181" y2="19.2363636363636363" style="stroke:green;stroke-width:1" />
 <line x1="10.6181818181818181" y1="19.2363636363636363" x2="10.5090909090909091" y2="19.6181818181818181" style="stroke:green;stroke-width:1" />
 <line x1="10.5636363636363636" y1="19.2363636363636363" x2="10.2909090909090909" y2="19.1272727272727272" style="stroke:green;stroke-width:1" />
 <line x1="10.2909090909090909" y1="19.1272727272727272" x2="9.9090909090909091" y2="19.1272727272727272" style="stroke:green;stroke-width:1" />
 <line x1="9.9090909090909091" y1="19.1272727272727272" x2="9.58181818181818183" y2="19.2363636363636363" style="stroke:green;stroke-width:1" />
 <line x1="9.58181818181818183" y1="19.2363636363636363" x2="9.36363636363636364" y2="19.509090909090909" style="stroke:green;stroke-width:1" />
 <line x1="9.36363636363636364" y1="19.509090909090909" x2="9.3090909090909091" y2="19.8909090909090908" style="stroke:green;stroke-width:1" />
 <line x1="9.3090909090909091" y1="19.8909090909090908" x2="9.47272727272727273" y2="20.2181818181818181" style="stroke:green;stroke-width:1" />
 <line x1="9.47272727272727273" y1="20.2181818181818181" x2="9.69090909090909092" y2="20.4909090909090908" style="stroke:green;stroke-width:1" />
 <line x1="9.69090909090909092" y1="20.4909090909090908" x2="10.0727272727272727" y2="20.709090909090909" style="stroke:green;stroke-width:1" />
 <line x1="10.0727272727272727" y1="20.709090909090909" x2="10.5636363636363636" y2="20.709090909090909" style="stroke:green;stroke-width:1" />
 <line x1="10.5636363636363636" y1="20.709090909090909" x2="10.9454545454545454" y2="20.4909090909090908" style="stroke:green;stroke-width:1" />
 <line x1="10.9454545454545454" y1="20.4909090909090908" x2="11.2181818181818181" y2="20.2181818181818181" style="stroke:green;stroke-width:1" />
 <line x1="11.2181818181818181" y1="20.2181818181818181" x2="11.4909090909090909" y2="19.7818181818181817" style="stroke:green;stroke-width:1" />
 <line x1="11.4909090909090909" y1="19.7818181818181817" x2="11.6545454545454545" y2="19.2363636363636363" style="stroke:green;stroke-width:1" />
 <line x1="11.6545454545454545" y1="19.2363636363636363" x2="11.7090909090909091" y2="18.6363636363636363" style="stroke:green;stroke-width:1" />
 <line x1="11.7090909090909091" y1="18.6363636363636363" x2="11.7090909090909091" y2="17.9818181818181817" style="stroke:green;stroke-width:1" />
 <line x1="11.7090909090909091" y1="17.9818181818181817" x2="11.6" y2="17.3272727272727272" style="stroke:green;stroke-width:1" />
 <line x1="11.6" y1="17.3272727272727272" x2="11.4909090909090909" y2="16.7818181818181817" style="stroke:green;stroke-width:1" />
 <line x1="11.4909090909090909" y1="16.7818181818181817" x2="11.3818181818181818" y2="16.1272727272727272" style="stroke:green;stroke-width:1" />
 <line x1="11.3818181818181818" y1="16.1272727272727272" x2="11.3272727272727272" y2="15.5272727272727272" style="stroke:green;stroke-width:1" />
 <line x1="11.3272727272727272" y1="15.5272727272727272" x2="11.2727272727272727" y2="14.8727272727272726" style="stroke:green;stroke-width:1" />
 <line x1="11.2727272727272727" y1="14.8727272727272726" x2="11.2727272727272727" y2="14.2727272727272726" style="stroke:green;stroke-width:1" />
 <line x1="11.2727272727272727" y1="14.2727272727272726" x2="11.3272727272727272" y2="13.6181818181818182" style="stroke:green;stroke-width:1" />
 <line x1="11.3272727272727272" y1="13.6181818181818182" x2="11.3818181818181818" y2="12.9636363636363636" style="stroke:green;stroke-width:1" />
 <line x1="11.3818181818181818" y1="12.9636363636363636" x2="11.4909090909090909" y2="12.3636363636363636" style="stroke:green;stroke-width:1" />
 <line x1="11.4909090909090909" y1="12.3636363636363636" x2="11.6" y2="11.7636363636363636" style="stroke:green;stroke-width:1" />
 <line x1="11.6" y1="11.7636363636363636" x2="11.7090909090909091" y2="11.1636363636363636" style="stroke:green;stroke-width:1" />
 <line x1="11.7090909090909091" y1="11.1636363636363636" x2="11.7090909090909091" y2="10.4545454545454545" style="stroke:green;stroke-width:1" />
 <line x1="11.7090909090909091" y1="10.4545454545454545" x2="11.6545454545454545" y2="9.85454545454545455" style="stroke:green;stroke-width:1" />
 <line x1="11.6545454545454545" y1="9.85454545454545455" x2="11.4909090909090909" y2="9.3090909090909091" style="stroke:green;stroke-width:1" />
 <line x1="11.4909090909090909" y1="9.3090909090909091" x2="11.2181818181818181" y2="8.92727272727272728" style="stroke:green;stroke-width:1" />
 <line x1="11.2181818181818181" y1="8.92727272727272728" x2="10.9454545454545454" y2="8.65454545454545455" style="stroke:green;stroke-width:1" />
 <line x1="10.9454545454545454" y1="8.65454545454545455" x2="10.5636363636363636" y2="8.43636363636363637" style="stroke:green;stroke-width:1" />
 <line x1="10.5636363636363636" y1="8.43636363636363637" x2="10.0727272727272727" y2="8.43636363636363637" style="stroke:green;stroke-width:1" />
 <line x1="10.0727272727272727" y1="8.43636363636363637" x2="9.69090909090909092" y2="8.6" style="stroke:green;stroke-width:1" />
 <line x1="9.69090909090909092" y1="8.6" x2="9.47272727272727273" y2="8.87272727272727273" style="stroke:green;stroke-width:1" />
 <line x1="9.47272727272727273" y1="8.87272727272727273" x2="9.3090909090909091" y2="9.20000000000000001" style="stroke:green;stroke-width:1" />
 <line x1="9.3090909090909091" y1="9.20000000000000001" x2="9.36363636363636364" y2="9.63636363636363637" style="stroke:green;stroke-width:1" />
 <line x1="9.36363636363636364" y1="9.63636363636363637" x2="9.58181818181818183" y2="9.9090909090909091" style="stroke:green;stroke-width:1" />
 <line x1="9.58181818181818183" y1="9.9090909090909091" x2="9.9090909090909091" y2="10.0181818181818181" style="stroke:green;stroke-width:1" />
 <line x1="9.9090909090909091" y1="10.0181818181818181" x2="10.2909090909090909" y2="10.0181818181818181" style="stroke:green;stroke-width:1" />
 <line x1="10.2909090909090909" y1="10.0181818181818181" x2="10.5636363636363636" y2="9.85454545454545455" style="stroke:green;stroke-width:1" />
 <line x1="10.5090909090909091" y1="9.47272727272727273" x2="10.6181818181818181" y2="9.85454545454545455" style="stroke:green;stroke-width:1" />
 <line x1="10.6181818181818181" y1="9.85454545454545455" x2="10.6181818181818181" y2="10.5090909090909091" style="stroke:green;stroke-width:1" />
 <line x1="10.6181818181818181" y1="10.5090909090909091" x2="10.5636363636363636" y2="11.1636363636363636" style="stroke:green;stroke-width:1" />
 <line x1="10.5636363636363636" y1="11.1636363636363636" x2="10.5636363636363636" y2="11.7636363636363636" style="stroke:green;stroke-width:1" />
 <line x1="10.5636363636363636" y1="11.7636363636363636" x2="10.5090909090909091" y2="12.4181818181818182" style="stroke:green;stroke-width:1" />
 <line x1="10.5090909090909091" y1="12.4181818181818182" x2="10.4" y2="12.9636363636363636" style="stroke:green;stroke-width:1" />
 <line x1="10.4" y1="12.9636363636363636" x2="10.2909090909090909" y2="13.5090909090909091" style="stroke:green;stroke-width:1" />
 <line x1="10.2909090909090909" y1="13.5090909090909091" x2="10.2363636363636363" y2="14.0545454545454545" style="stroke:green;stroke-width:1" />
 <line x1="10.2363636363636363" y1="14.0545454545454545" x2="10.2363636363636363" y2="14.5454545454545454" style="stroke:green;stroke-width:1" />
 <line x1="18.0363636363636363" y1="14.3272727272727272" x2="24.2545454545454545" y2="14.3272727272727272" style="stroke:green;stroke-width:1" />
 <path d="M 24.2545454545454544 14.3272727272727272
          A 3.10909090909090909 3.10909090909090909 0 1 0 18.0363636363636364 14.3272727272727272"
       stroke="green" fill="white" stroke-width="1" fill-opacity="0.0"/>
 <path d="M 15.4181818181818181 18.309090909090909
          A 1.2 1.2 0 1 0 15.4181818181818181 20.709090909090909"
       stroke="green" fill="white" stroke-width="1" fill-opacity="0.0"/>
 <line x1="15.4181818181818181" y1="20.709090909090909" x2="26.4909090909090909" y2="20.709090909090909" style="stroke:green;stroke-width:1" />
 <path d="M 26.4909090909090909 20.709090909090909
          A 1.2 1.2 0 1 0 26.4909090909090909 18.309090909090909"
       stroke="green" fill="white" stroke-width="1" fill-opacity="0.0"/>
 <line x1="26.4909090909090909" y1="18.309090909090909" x2="15.4181818181818181" y2="18.309090909090909" style="stroke:green;stroke-width:1" />

</svg>
