<!DOCTYPE svg PUBLIC "-//W3C//DTD SVG 1.1//EN" "http://www.w3.org/Graphics/SVG/1.1/DTD/svg11.dtd">
<svg width="48" height="47" xmlns="http://www.w3.org/2000/svg">
 <!-- Gardiner/Zz376515 at (0,.06451612903225806) in red, scale=.0774193548387096776, mirror=0 -->
 <line x1="6.54838709677419355" y1="5" x2="26.7548387096774193" y2="19.864516129032258" style="stroke:red;stroke-width:1" />
 <line x1="26.7548387096774193" y1="19.864516129032258" x2="30.9354838709677419" y2="16.6129032258064515" style="stroke:red;stroke-width:1" />
 <line x1="30.9354838709677419" y1="16.6129032258064515" x2="31.7096774193548387" y2="16.4580645161290322" style="stroke:red;stroke-width:1" />
 <line x1="31.7096774193548387" y1="16.4580645161290322" x2="32.4838709677419354" y2="16.4580645161290322" style="stroke:red;stroke-width:1" />
 <line x1="32.4838709677419354" y1="16.4580645161290322" x2="41" y2="19.4774193548387096" style="stroke:red;stroke-width:1" />
 <line x1="41" y1="19.4774193548387096" x2="41.464516129032258" y2="19.1677419354838709" style="stroke:red;stroke-width:1" />
 <line x1="41.464516129032258" y1="19.1677419354838709" x2="41.7741935483870968" y2="18.7806451612903225" style="stroke:red;stroke-width:1" />
 <line x1="41.7741935483870968" y1="18.7806451612903225" x2="41.6967741935483871" y2="18.0838709677419354" style="stroke:red;stroke-width:1" />
 <line x1="41.6967741935483871" y1="18.0838709677419354" x2="6.54838709677419355" y2="5" style="stroke:red;stroke-width:1" />
 <line x1="5.61935483870967742" y1="23.8129032258064515" x2="5.61935483870967742" y2="25.2064516129032257" style="stroke:red;stroke-width:1" />
 <line x1="5.61935483870967742" y1="25.2064516129032257" x2="42.4709677419354838" y2="25.2064516129032257" style="stroke:red;stroke-width:1" />
 <line x1="42.4709677419354838" y1="25.2064516129032257" x2="42.4709677419354838" y2="23.8129032258064515" style="stroke:red;stroke-width:1" />
 <line x1="42.4709677419354838" y1="23.8129032258064515" x2="5.61935483870967742" y2="23.8129032258064515" style="stroke:red;stroke-width:1" />
 <line x1="23.4258064516129032" y1="25.2064516129032257" x2="23.4258064516129032" y2="35.5032258064516129" style="stroke:red;stroke-width:1" />
 <line x1="23.4258064516129032" y1="35.5032258064516129" x2="24.5870967741935483" y2="35.5032258064516129" style="stroke:red;stroke-width:1" />
 <line x1="24.5870967741935483" y1="35.5032258064516129" x2="24.5870967741935483" y2="25.2064516129032257" style="stroke:red;stroke-width:1" />
 <line x1="14.5999999999999999" y1="25.2064516129032257" x2="15.2193548387096773" y2="26.5999999999999999" style="stroke:red;stroke-width:1" />
 <line x1="15.2193548387096773" y1="26.5999999999999999" x2="17.0774193548387096" y2="28.7677419354838709" style="stroke:red;stroke-width:1" />
 <line x1="17.0774193548387096" y1="28.7677419354838709" x2="19.4774193548387096" y2="30.5483870967741935" style="stroke:red;stroke-width:1" />
 <line x1="19.4774193548387096" y1="30.5483870967741935" x2="21.6451612903225806" y2="31.4774193548387096" style="stroke:red;stroke-width:1" />
 <line x1="21.6451612903225806" y1="31.4774193548387096" x2="23.4258064516129032" y2="31.7870967741935483" style="stroke:red;stroke-width:1" />
 <line x1="15.7612903225806451" y1="25.2064516129032257" x2="16.1483870967741935" y2="25.9806451612903225" style="stroke:red;stroke-width:1" />
 <line x1="16.1483870967741935" y1="25.9806451612903225" x2="18.0064516129032257" y2="28.1483870967741935" style="stroke:red;stroke-width:1" />
 <line x1="18.0064516129032257" y1="28.1483870967741935" x2="20.7161290322580644" y2="29.9290322580645161" style="stroke:red;stroke-width:1" />
 <line x1="20.7161290322580644" y1="29.9290322580645161" x2="22.7290322580645161" y2="30.6258064516129032" style="stroke:red;stroke-width:1" />
 <line x1="22.7290322580645161" y1="30.6258064516129032" x2="23.4258064516129032" y2="30.7806451612903225" style="stroke:red;stroke-width:1" />
 <line x1="24.664516129032258" y1="30.7806451612903225" x2="25.9806451612903225" y2="30.4709677419354838" style="stroke:red;stroke-width:1" />
 <line x1="25.9806451612903225" y1="30.4709677419354838" x2="28.6129032258064516" y2="29.3096774193548387" style="stroke:red;stroke-width:1" />
 <line x1="28.6129032258064516" y1="29.3096774193548387" x2="30.7032258064516129" y2="27.3741935483870967" style="stroke:red;stroke-width:1" />
 <line x1="30.7032258064516129" y1="27.3741935483870967" x2="32.0967741935483871" y2="25.2064516129032257" style="stroke:red;stroke-width:1" />
 <line x1="24.5870967741935483" y1="31.9419354838709677" x2="26.2129032258064516" y2="31.4774193548387096" style="stroke:red;stroke-width:1" />
 <line x1="26.2129032258064516" y1="31.4774193548387096" x2="27.7612903225806451" y2="31.0129032258064516" style="stroke:red;stroke-width:1" />
 <line x1="27.7612903225806451" y1="31.0129032258064516" x2="29.1548387096774193" y2="30.1612903225806451" style="stroke:red;stroke-width:1" />
 <line x1="29.1548387096774193" y1="30.1612903225806451" x2="31.2451612903225806" y2="28.3032258064516128" style="stroke:red;stroke-width:1" />
 <line x1="31.2451612903225806" y1="28.3032258064516128" x2="32.4838709677419354" y2="26.6774193548387096" style="stroke:red;stroke-width:1" />
 <line x1="32.4838709677419354" y1="26.6774193548387096" x2="33.2580645161290322" y2="25.1290322580645161" style="stroke:red;stroke-width:1" />
 <line x1="19.0129032258064515" y1="39.7612903225806451" x2="5" y2="39.7612903225806451" style="stroke:red;stroke-width:1" />
 <line x1="5" y1="39.7612903225806451" x2="5.15483870967741935" y2="38.4451612903225806" style="stroke:red;stroke-width:1" />
 <line x1="5.15483870967741935" y1="38.4451612903225806" x2="5.38709677419354838" y2="37.7483870967741935" style="stroke:red;stroke-width:1" />
 <line x1="5.38709677419354838" y1="37.7483870967741935" x2="5.69677419354838709" y2="36.9741935483870967" style="stroke:red;stroke-width:1" />
 <line x1="5.69677419354838709" y1="36.9741935483870967" x2="6.08387096774193548" y2="36.3548387096774193" style="stroke:red;stroke-width:1" />
 <line x1="6.08387096774193548" y1="36.3548387096774193" x2="6.39354838709677419" y2="35.8129032258064516" style="stroke:red;stroke-width:1" />
 <line x1="6.39354838709677419" y1="35.8129032258064516" x2="6.93548387096774194" y2="35.1935483870967742" style="stroke:red;stroke-width:1" />
 <line x1="6.93548387096774194" y1="35.1935483870967742" x2="7.4" y2="34.7290322580645161" style="stroke:red;stroke-width:1" />
 <line x1="7.4" y1="34.7290322580645161" x2="8.0967741935483871" y2="34.1870967741935483" style="stroke:red;stroke-width:1" />
 <line x1="8.0967741935483871" y1="34.1870967741935483" x2="8.63870967741935484" y2="33.8774193548387096" style="stroke:red;stroke-width:1" />
 <line x1="8.63870967741935484" y1="33.8774193548387096" x2="9.41290322580645162" y2="33.4903225806451612" style="stroke:red;stroke-width:1" />
 <line x1="9.41290322580645162" y1="33.4903225806451612" x2="10.1870967741935483" y2="33.2580645161290322" style="stroke:red;stroke-width:1" />
 <line x1="10.1870967741935483" y1="33.2580645161290322" x2="10.7290322580645161" y2="33.1806451612903225" style="stroke:red;stroke-width:1" />
 <line x1="10.7290322580645161" y1="33.1806451612903225" x2="11.6580645161290322" y2="33.0258064516129032" style="stroke:red;stroke-width:1" />
 <line x1="11.6580645161290322" y1="33.0258064516129032" x2="12.3548387096774193" y2="33.0258064516129032" style="stroke:red;stroke-width:1" />
 <line x1="12.3548387096774193" y1="33.0258064516129032" x2="12.9741935483870967" y2="33.1806451612903225" style="stroke:red;stroke-width:1" />
 <line x1="12.9741935483870967" y1="33.1806451612903225" x2="13.7483870967741935" y2="33.2580645161290322" style="stroke:red;stroke-width:1" />
 <line x1="13.7483870967741935" y1="33.2580645161290322" x2="14.5225806451612902" y2="33.4129032258064516" style="stroke:red;stroke-width:1" />
 <line x1="14.5225806451612902" y1="33.4129032258064516" x2="14.9870967741935483" y2="33.7225806451612903" style="stroke:red;stroke-width:1" />
 <line x1="14.9870967741935483" y1="33.7225806451612903" x2="15.7612903225806451" y2="34.1096774193548387" style="stroke:red;stroke-width:1" />
 <line x1="15.7612903225806451" y1="34.1096774193548387" x2="16.3032258064516128" y2="34.4967741935483871" style="stroke:red;stroke-width:1" />
 <line x1="16.3032258064516128" y1="34.4967741935483871" x2="16.8451612903225806" y2="34.9612903225806451" style="stroke:red;stroke-width:1" />
 <line x1="16.8451612903225806" y1="34.9612903225806451" x2="17.3096774193548386" y2="35.5032258064516129" style="stroke:red;stroke-width:1" />
 <line x1="17.3096774193548386" y1="35.5032258064516129" x2="17.7741935483870967" y2="36.2" style="stroke:red;stroke-width:1" />
 <line x1="17.7741935483870967" y1="36.2" x2="18.2387096774193548" y2="36.8193548387096774" style="stroke:red;stroke-width:1" />
 <line x1="18.2387096774193548" y1="36.8193548387096774" x2="18.5483870967741935" y2="37.4387096774193548" style="stroke:red;stroke-width:1" />
 <line x1="18.5483870967741935" y1="37.4387096774193548" x2="18.7806451612903225" y2="38.2903225806451613" style="stroke:red;stroke-width:1" />
 <line x1="18.7806451612903225" y1="38.2903225806451613" x2="18.9354838709677419" y2="38.9870967741935484" style="stroke:red;stroke-width:1" />
 <line x1="18.9354838709677419" y1="38.9870967741935484" x2="19.0129032258064515" y2="39.7612903225806451" style="stroke:red;stroke-width:1" />
 <line x1="32.6387096774193548" y1="40.0709677419354838" x2="36.0451612903225806" y2="36.8967741935483871" style="stroke:red;stroke-width:1" />
 <line x1="36.0451612903225806" y1="36.8967741935483871" x2="39.3741935483870967" y2="40.0709677419354838" style="stroke:red;stroke-width:1" />
 <line x1="40.7677419354838709" y1="38.6774193548387096" x2="37.5935483870967742" y2="35.5032258064516129" style="stroke:red;stroke-width:1" />
 <line x1="37.5935483870967742" y1="35.5032258064516129" x2="40.9225806451612903" y2="32.4064516129032258" style="stroke:red;stroke-width:1" />
 <line x1="39.4516129032258064" y1="30.7806451612903225" x2="36.2" y2="33.9548387096774193" style="stroke:red;stroke-width:1" />
 <line x1="36.2" y1="33.9548387096774193" x2="32.8709677419354838" y2="30.5483870967741935" style="stroke:red;stroke-width:1" />
 <line x1="31.4774193548387096" y1="31.9419354838709677" x2="34.7290322580645161" y2="35.3483870967741935" style="stroke:red;stroke-width:1" />
 <line x1="34.7290322580645161" y1="35.3483870967741935" x2="31.2451612903225806" y2="38.5225806451612903" style="stroke:red;stroke-width:1" />
 <line x1="35.5806451612903225" y1="41.1548387096774193" x2="36.9741935483870967" y2="41.1548387096774193" style="stroke:red;stroke-width:1" />
 <line x1="36.9741935483870967" y1="41.1548387096774193" x2="37.8258064516129032" y2="40.9225806451612903" style="stroke:red;stroke-width:1" />
 <line x1="37.8258064516129032" y1="40.9225806451612903" x2="38.6" y2="40.6129032258064516" style="stroke:red;stroke-width:1" />
 <line x1="38.6" y1="40.6129032258064516" x2="39.3741935483870967" y2="40.0709677419354838" style="stroke:red;stroke-width:1" />
 <line x1="39.3741935483870967" y1="40.0709677419354838" x2="40.0709677419354838" y2="39.5290322580645161" style="stroke:red;stroke-width:1" />
 <line x1="40.0709677419354838" y1="39.5290322580645161" x2="40.6129032258064516" y2="38.832258064516129" style="stroke:red;stroke-width:1" />
 <line x1="40.6129032258064516" y1="38.832258064516129" x2="41.0774193548387097" y2="38.1354838709677419" style="stroke:red;stroke-width:1" />
 <line x1="41.0774193548387097" y1="38.1354838709677419" x2="41.464516129032258" y2="37.4387096774193548" style="stroke:red;stroke-width:1" />
 <line x1="41.464516129032258" y1="37.4387096774193548" x2="41.6193548387096774" y2="36.664516129032258" style="stroke:red;stroke-width:1" />
 <line x1="41.6193548387096774" y1="36.664516129032258" x2="41.7741935483870968" y2="35.8903225806451613" style="stroke:red;stroke-width:1" />
 <line x1="41.7741935483870968" y1="35.8903225806451613" x2="41.7741935483870968" y2="35.0387096774193548" style="stroke:red;stroke-width:1" />
 <line x1="41.7741935483870968" y1="35.0387096774193548" x2="41.464516129032258" y2="33.6451612903225806" style="stroke:red;stroke-width:1" />
 <line x1="41.464516129032258" y1="33.6451612903225806" x2="41.1548387096774193" y2="32.8709677419354838" style="stroke:red;stroke-width:1" />
 <line x1="41.1548387096774193" y1="32.8709677419354838" x2="40.6903225806451613" y2="32.0967741935483871" style="stroke:red;stroke-width:1" />
 <line x1="40.6903225806451613" y1="32.0967741935483871" x2="40.2258064516129032" y2="31.4" style="stroke:red;stroke-width:1" />
 <line x1="40.2258064516129032" y1="31.4" x2="39.4516129032258064" y2="30.7032258064516129" style="stroke:red;stroke-width:1" />
 <line x1="39.4516129032258064" y1="30.7032258064516129" x2="38.832258064516129" y2="30.2387096774193548" style="stroke:red;stroke-width:1" />
 <line x1="38.832258064516129" y1="30.2387096774193548" x2="38.2129032258064516" y2="30.0064516129032258" style="stroke:red;stroke-width:1" />
 <line x1="38.2129032258064516" y1="30.0064516129032258" x2="37.5935483870967742" y2="29.7741935483870967" style="stroke:red;stroke-width:1" />
 <line x1="37.5935483870967742" y1="29.7741935483870967" x2="36.8193548387096774" y2="29.6193548387096774" style="stroke:red;stroke-width:1" />
 <line x1="36.8193548387096774" y1="29.6193548387096774" x2="36.1225806451612903" y2="29.6193548387096774" style="stroke:red;stroke-width:1" />
 <line x1="36.1225806451612903" y1="29.6193548387096774" x2="35.1161290322580645" y2="29.6193548387096774" style="stroke:red;stroke-width:1" />
 <line x1="35.1161290322580645" y1="29.6193548387096774" x2="34.264516129032258" y2="29.8516129032258064" style="stroke:red;stroke-width:1" />
 <line x1="34.264516129032258" y1="29.8516129032258064" x2="33.4903225806451612" y2="30.1612903225806451" style="stroke:red;stroke-width:1" />
 <line x1="33.4903225806451612" y1="30.1612903225806451" x2="32.7161290322580645" y2="30.5483870967741935" style="stroke:red;stroke-width:1" />
 <line x1="32.7161290322580645" y1="30.5483870967741935" x2="32.0967741935483871" y2="31.0903225806451612" style="stroke:red;stroke-width:1" />
 <line x1="32.0967741935483871" y1="31.0903225806451612" x2="31.4774193548387096" y2="31.7870967741935483" style="stroke:red;stroke-width:1" />
 <line x1="31.4774193548387096" y1="31.7870967741935483" x2="30.8580645161290322" y2="32.5612903225806451" style="stroke:red;stroke-width:1" />
 <line x1="30.8580645161290322" y1="32.5612903225806451" x2="30.6258064516129032" y2="33.0258064516129032" style="stroke:red;stroke-width:1" />
 <line x1="30.6258064516129032" y1="33.0258064516129032" x2="30.3935483870967741" y2="33.6451612903225806" style="stroke:red;stroke-width:1" />
 <line x1="30.3935483870967741" y1="33.6451612903225806" x2="30.2387096774193548" y2="34.5741935483870967" style="stroke:red;stroke-width:1" />
 <line x1="30.2387096774193548" y1="34.5741935483870967" x2="30.2387096774193548" y2="35.5032258064516129" style="stroke:red;stroke-width:1" />
 <line x1="30.2387096774193548" y1="35.5032258064516129" x2="30.3161290322580645" y2="36.2" style="stroke:red;stroke-width:1" />
 <line x1="30.3161290322580645" y1="36.2" x2="30.4709677419354838" y2="36.8967741935483871" style="stroke:red;stroke-width:1" />
 <line x1="30.4709677419354838" y1="36.8967741935483871" x2="30.7032258064516129" y2="37.6709677419354838" style="stroke:red;stroke-width:1" />
 <line x1="30.7032258064516129" y1="37.6709677419354838" x2="31.0903225806451612" y2="38.4451612903225806" style="stroke:red;stroke-width:1" />
 <line x1="31.0903225806451612" y1="38.4451612903225806" x2="31.632258064516129" y2="39.2193548387096774" style="stroke:red;stroke-width:1" />
 <line x1="31.632258064516129" y1="39.2193548387096774" x2="32.2516129032258064" y2="39.7612903225806451" style="stroke:red;stroke-width:1" />
 <line x1="32.2516129032258064" y1="39.7612903225806451" x2="33.0258064516129032" y2="40.3806451612903226" style="stroke:red;stroke-width:1" />
 <line x1="33.0258064516129032" y1="40.3806451612903226" x2="33.7225806451612903" y2="40.6903225806451613" style="stroke:red;stroke-width:1" />
 <line x1="33.7225806451612903" y1="40.6903225806451613" x2="34.5741935483870967" y2="41" style="stroke:red;stroke-width:1" />
 <line x1="34.5741935483870967" y1="41" x2="35.6580645161290322" y2="41.1548387096774193" style="stroke:red;stroke-width:1" />

</svg>
