<!DOCTYPE svg PUBLIC "-//W3C//DTD SVG 1.1//EN" "http://www.w3.org/Graphics/SVG/1.1/DTD/svg11.dtd">
<svg width="33" height="47" xmlns="http://www.w3.org/2000/svg">
 <!-- Gardiner/Zz376515 at (0,.76712328767123288) in red, scale=.0493150684931506848, mirror=0 -->
 <line x1="5" y1="35.6739726027397258" x2="27.191780821917808" y2="35.6739726027397258" style="stroke:red;stroke-width:1" />
 <line x1="27.191780821917808" y1="38.3863013698630135" x2="5" y2="38.3863013698630135" style="stroke:red;stroke-width:1" />
 <line x1="5" y1="41.0986301369863011" x2="27.191780821917808" y2="41.0986301369863011" style="stroke:red;stroke-width:1" />
 <line x1="7.71232876712328766" y1="35.6739726027397258" x2="7.71232876712328766" y2="41.0986301369863011" style="stroke:red;stroke-width:1" />
 <line x1="11.9041095890410958" y1="35.6739726027397258" x2="11.9041095890410958" y2="41.0986301369863011" style="stroke:red;stroke-width:1" />
 <line x1="16.095890410958904" y1="35.6739726027397258" x2="16.095890410958904" y2="41.0986301369863011" style="stroke:red;stroke-width:1" />
 <line x1="20.2876712328767122" y1="35.6739726027397258" x2="20.2876712328767122" y2="41.0986301369863011" style="stroke:red;stroke-width:1" />
 <line x1="24.4794520547945204" y1="35.6739726027397258" x2="24.4794520547945204" y2="41.0986301369863011" style="stroke:red;stroke-width:1" />
 <line x1="27.0931506849315067" y1="24.380821917808219" x2="5" y2="24.380821917808219" style="stroke:red;stroke-width:1" />
 <line x1="8.35342465753424656" y1="24.380821917808219" x2="7.95890410958904108" y2="23.1972602739726026" style="stroke:red;stroke-width:1" />
 <line x1="7.95890410958904108" y1="23.1972602739726026" x2="7.31780821917808218" y2="22.2109589041095889" style="stroke:red;stroke-width:1" />
 <line x1="7.31780821917808218" y1="22.2109589041095889" x2="6.33150684931506848" y2="21.4712328767123286" style="stroke:red;stroke-width:1" />
 <line x1="6.33150684931506848" y1="21.4712328767123286" x2="5.54246575342465753" y2="21.4712328767123286" style="stroke:red;stroke-width:1" />
 <line x1="5.54246575342465753" y1="21.4712328767123286" x2="5.09863013698630136" y2="21.9150684931506848" style="stroke:red;stroke-width:1" />
 <line x1="5.09863013698630136" y1="21.9150684931506848" x2="5" y2="22.506849315068493" style="stroke:red;stroke-width:1" />
 <line x1="5" y1="22.506849315068493" x2="5.19726027397260273" y2="23.4931506849315067" style="stroke:red;stroke-width:1" />
 <line x1="5.19726027397260273" y1="23.4931506849315067" x2="5.49315068493150684" y2="24.380821917808219" style="stroke:red;stroke-width:1" />
 <line x1="5.49315068493150684" y1="24.380821917808219" x2="6.38082191780821917" y2="27.3397260273972601" style="stroke:red;stroke-width:1" />
 <line x1="6.38082191780821917" y1="27.3397260273972601" x2="7.95890410958904108" y2="27.3397260273972601" style="stroke:red;stroke-width:1" />
 <line x1="7.95890410958904108" y1="27.3397260273972601" x2="8.35342465753424656" y2="24.380821917808219" style="stroke:red;stroke-width:1" />
 <line x1="16.095890410958904" y1="24.380821917808219" x2="16.095890410958904" y2="35.6739726027397258" style="stroke:red;stroke-width:1" />
 <line x1="12.495890410958904" y1="24.380821917808219" x2="16.095890410958904" y2="29.0657534246575341" style="stroke:red;stroke-width:1" />
 <line x1="16.095890410958904" y1="24.380821917808219" x2="17.2301369863013697" y2="25.8602739726027395" style="stroke:red;stroke-width:1" />
 <line x1="17.2301369863013697" y1="25.8602739726027395" x2="17.96986301369863" y2="27.4383561643835615" style="stroke:red;stroke-width:1" />
 <line x1="17.96986301369863" y1="27.4383561643835615" x2="18.5616438356164382" y2="28.917808219178082" style="stroke:red;stroke-width:1" />
 <line x1="18.5616438356164382" y1="28.917808219178082" x2="18.7589041095890409" y2="29.854794520547945" style="stroke:red;stroke-width:1" />
 <line x1="18.7589041095890409" y1="29.854794520547945" x2="18.5616438356164382" y2="30.4465753424657532" style="stroke:red;stroke-width:1" />
 <line x1="18.5616438356164382" y1="30.4465753424657532" x2="18.2164383561643834" y2="30.791780821917808" style="stroke:red;stroke-width:1" />
 <line x1="18.2164383561643834" y1="30.791780821917808" x2="17.7232876712328765" y2="30.8410958904109587" style="stroke:red;stroke-width:1" />
 <line x1="17.7232876712328765" y1="30.8410958904109587" x2="17.2794520547945204" y2="30.5452054794520546" style="stroke:red;stroke-width:1" />
 <line x1="17.2794520547945204" y1="30.5452054794520546" x2="17.5753424657534245" y2="31.580821917808219" style="stroke:red;stroke-width:1" />
 <line x1="17.5753424657534245" y1="31.580821917808219" x2="17.6739726027397259" y2="32.2219178082191779" style="stroke:red;stroke-width:1" />
 <line x1="17.6739726027397259" y1="32.2219178082191779" x2="17.6246575342465752" y2="32.7643835616438354" style="stroke:red;stroke-width:1" />
 <line x1="17.6246575342465752" y1="32.7643835616438354" x2="17.1315068493150683" y2="32.9616438356164382" style="stroke:red;stroke-width:1" />
 <line x1="17.1315068493150683" y1="32.9616438356164382" x2="16.6383561643835615" y2="32.7150684931506847" style="stroke:red;stroke-width:1" />
 <line x1="16.6383561643835615" y1="32.7150684931506847" x2="16.095890410958904" y2="32.3205479452054792" style="stroke:red;stroke-width:1" />
 <line x1="14.517808219178082" y1="21.0273972602739724" x2="8.74794520547945204" y2="21.4712328767123286" style="stroke:red;stroke-width:1" />
 <path d="M 8.74794520547945204 21.4712328767123287
          A .394520547945205478 .394520547945205478 0 1 0 8.74794520547945204 22.2602739726027395"
       stroke="red" fill="white" stroke-width="1" fill-opacity="0.0"/>
 <line x1="8.74794520547945204" y1="22.2602739726027396" x2="14.517808219178082" y2="22.7534246575342464" style="stroke:red;stroke-width:1" />
 <line x1="14.517808219178082" y1="22.7534246575342464" x2="14.517808219178082" y2="21.0273972602739724" style="stroke:red;stroke-width:1" />
 <path d="M 15.2082191780821917 21.8657534246575341
          A .887671232876712326 .887671232876712326 0 1 0 16.9835616438356163 21.8657534246575341
          A .887671232876712326 .887671232876712326 0 1 0 15.2082191780821917 21.8657534246575341"
       stroke="red" fill="white" stroke-width="1" fill-opacity="0.0"/>
 <line x1="17.6739726027397259" y1="22.7534246575342464" x2="23.443835616438356" y2="22.2602739726027396" style="stroke:red;stroke-width:1" />
 <path d="M 23.443835616438356 22.2602739726027395
          A .394520547945205478 .394520547945205478 0 1 0 23.443835616438356 21.4712328767123287"
       stroke="red" fill="white" stroke-width="1" fill-opacity="0.0"/>
 <line x1="23.443835616438356" y1="21.4712328767123286" x2="17.6739726027397259" y2="21.0273972602739724" style="stroke:red;stroke-width:1" />
 <line x1="17.6739726027397259" y1="21.0273972602739724" x2="17.6739726027397259" y2="22.7534246575342464" style="stroke:red;stroke-width:1" />
 <line x1="15.7506849315068492" y1="20.5342465753424656" x2="16.095890410958904" y2="7.5643835616438356" style="stroke:red;stroke-width:1" />
 <line x1="16.095890410958904" y1="7.5643835616438356" x2="16.095890410958904" y2="7.21917808219178081" style="stroke:red;stroke-width:1" />
 <line x1="16.095890410958904" y1="7.21917808219178081" x2="16.1945205479452053" y2="6.82465753424657533" style="stroke:red;stroke-width:1" />
 <line x1="16.1945205479452053" y1="6.82465753424657533" x2="16.3424657534246574" y2="6.47945205479452054" style="stroke:red;stroke-width:1" />
 <line x1="16.3424657534246574" y1="6.47945205479452054" x2="16.4904109589041094" y2="6.23287671232876712" style="stroke:red;stroke-width:1" />
 <line x1="16.4904109589041094" y1="6.23287671232876712" x2="16.6876712328767122" y2="5.98630136986301369" style="stroke:red;stroke-width:1" />
 <line x1="16.6876712328767122" y1="5.98630136986301369" x2="16.8849315068493149" y2="5.69041095890410958" style="stroke:red;stroke-width:1" />
 <line x1="16.8849315068493149" y1="5.69041095890410958" x2="17.180821917808219" y2="5.44383561643835616" style="stroke:red;stroke-width:1" />
 <line x1="17.180821917808219" y1="5.44383561643835616" x2="17.4767123287671231" y2="5.2958904109589041" style="stroke:red;stroke-width:1" />
 <line x1="17.4767123287671231" y1="5.2958904109589041" x2="17.6739726027397259" y2="5.14794520547945205" style="stroke:red;stroke-width:1" />
 <line x1="17.6739726027397259" y1="5.14794520547945205" x2="17.9205479452054793" y2="5.04931506849315068" style="stroke:red;stroke-width:1" />
 <line x1="17.9205479452054793" y1="5.04931506849315068" x2="18.2164383561643834" y2="5" style="stroke:red;stroke-width:1" />
 <line x1="18.2164383561643834" y1="5" x2="18.5123287671232875" y2="5" style="stroke:red;stroke-width:1" />
 <line x1="18.5123287671232875" y1="5" x2="18.8082191780821916" y2="5.04931506849315068" style="stroke:red;stroke-width:1" />
 <line x1="18.8082191780821916" y1="5.04931506849315068" x2="19.054794520547945" y2="5.19726027397260273" style="stroke:red;stroke-width:1" />
 <line x1="19.054794520547945" y1="5.19726027397260273" x2="19.2520547945205478" y2="5.34520547945205479" style="stroke:red;stroke-width:1" />
 <line x1="19.2520547945205478" y1="5.34520547945205479" x2="19.4986301369863012" y2="5.59178082191780821" style="stroke:red;stroke-width:1" />
 <line x1="19.4986301369863012" y1="5.59178082191780821" x2="19.6958904109589039" y2="5.88767123287671232" style="stroke:red;stroke-width:1" />
 <line x1="19.6958904109589039" y1="5.88767123287671232" x2="19.7452054794520546" y2="6.18356164383561643" style="stroke:red;stroke-width:1" />
 <line x1="19.7452054794520546" y1="6.18356164383561643" x2="19.7945205479452053" y2="6.47945205479452054" style="stroke:red;stroke-width:1" />
 <line x1="19.7945205479452053" y1="6.47945205479452054" x2="19.7452054794520546" y2="6.77534246575342465" style="stroke:red;stroke-width:1" />
 <line x1="19.7452054794520546" y1="6.77534246575342465" x2="19.6465753424657533" y2="7.02191780821917807" style="stroke:red;stroke-width:1" />
 <line x1="19.6465753424657533" y1="7.02191780821917807" x2="19.5479452054794519" y2="7.2684931506849315" style="stroke:red;stroke-width:1" />
 <line x1="19.5479452054794519" y1="7.2684931506849315" x2="19.3506849315068491" y2="7.46575342465753424" style="stroke:red;stroke-width:1" />
 <line x1="19.3506849315068491" y1="7.46575342465753424" x2="19.1041095890410957" y2="7.61369863013698629" style="stroke:red;stroke-width:1" />
 <line x1="19.1041095890410957" y1="7.61369863013698629" x2="18.906849315068493" y2="7.76164383561643834" style="stroke:red;stroke-width:1" />
 <line x1="18.906849315068493" y1="7.76164383561643834" x2="18.4630136986301368" y2="7.9095890410958904" style="stroke:red;stroke-width:1" />
 <line x1="18.4630136986301368" y1="7.9095890410958904" x2="19.3999999999999998" y2="15.454794520547945" style="stroke:red;stroke-width:1" />
 <line x1="19.3999999999999998" y1="15.454794520547945" x2="18.9561643835616437" y2="15.454794520547945" style="stroke:red;stroke-width:1" />
 <line x1="18.9561643835616437" y1="15.454794520547945" x2="18.5123287671232875" y2="15.5041095890410957" style="stroke:red;stroke-width:1" />
 <line x1="18.5123287671232875" y1="15.5041095890410957" x2="18.1671232876712327" y2="15.6027397260273971" style="stroke:red;stroke-width:1" />
 <line x1="18.1671232876712327" y1="15.6027397260273971" x2="17.8219178082191779" y2="15.7013698630136985" style="stroke:red;stroke-width:1" />
 <line x1="17.8219178082191779" y1="15.7013698630136985" x2="17.5260273972602738" y2="15.8986301369863012" style="stroke:red;stroke-width:1" />
 <line x1="17.5260273972602738" y1="15.8986301369863012" x2="17.180821917808219" y2="16.095890410958904" style="stroke:red;stroke-width:1" />
 <line x1="17.180821917808219" y1="16.095890410958904" x2="16.8356164383561642" y2="16.2931506849315067" style="stroke:red;stroke-width:1" />
 <line x1="16.8356164383561642" y1="16.2931506849315067" x2="16.5890410958904108" y2="16.4904109589041094" style="stroke:red;stroke-width:1" />
 <line x1="16.5890410958904108" y1="16.4904109589041094" x2="16.4410958904109587" y2="16.6383561643835615" style="stroke:red;stroke-width:1" />
 <line x1="16.4410958904109587" y1="16.6383561643835615" x2="16.3424657534246574" y2="16.8849315068493149" style="stroke:red;stroke-width:1" />
 <line x1="16.3424657534246574" y1="16.8849315068493149" x2="16.4410958904109587" y2="20.5342465753424656" style="stroke:red;stroke-width:1" />
 <line x1="16.4410958904109587" y1="20.5342465753424656" x2="15.7506849315068492" y2="20.5342465753424656" style="stroke:red;stroke-width:1" />

</svg>
