<!DOCTYPE svg PUBLIC "-//W3C//DTD SVG 1.1//EN" "http://www.w3.org/Graphics/SVG/1.1/DTD/svg11.dtd">
<svg width="39" height="47" xmlns="http://www.w3.org/2000/svg">
 <!-- Gardiner/Zz376515 at (0,.39285714285714286) in red, scale=.0642857142857142856, mirror=0 -->
 <line x1="5" y1="34.1857142857142856" x2="33.9285714285714284" y2="34.1857142857142856" style="stroke:red;stroke-width:1" />
 <line x1="33.9285714285714284" y1="37.7214285714285713" x2="5" y2="37.7214285714285713" style="stroke:red;stroke-width:1" />
 <line x1="5" y1="41.257142857142857" x2="33.9285714285714284" y2="41.257142857142857" style="stroke:red;stroke-width:1" />
 <line x1="8.5357142857142857" y1="34.1857142857142856" x2="8.5357142857142857" y2="41.257142857142857" style="stroke:red;stroke-width:1" />
 <line x1="13.9999999999999999" y1="34.1857142857142856" x2="13.9999999999999999" y2="41.257142857142857" style="stroke:red;stroke-width:1" />
 <line x1="19.4642857142857142" y1="34.1857142857142856" x2="19.4642857142857142" y2="41.257142857142857" style="stroke:red;stroke-width:1" />
 <line x1="24.9285714285714284" y1="34.1857142857142856" x2="24.9285714285714284" y2="41.257142857142857" style="stroke:red;stroke-width:1" />
 <line x1="30.3928571428571427" y1="34.1857142857142856" x2="30.3928571428571427" y2="41.257142857142857" style="stroke:red;stroke-width:1" />
 <line x1="33.7999999999999998" y1="19.3357142857142856" x2="5" y2="19.3357142857142856" style="stroke:red;stroke-width:1" />
 <line x1="9.37142857142857142" y1="19.3357142857142856" x2="8.85714285714285713" y2="17.7928571428571427" style="stroke:red;stroke-width:1" />
 <line x1="8.85714285714285713" y1="17.7928571428571427" x2="8.02142857142857142" y2="16.507142857142857" style="stroke:red;stroke-width:1" />
 <line x1="8.02142857142857142" y1="16.507142857142857" x2="6.73571428571428571" y2="15.5428571428571427" style="stroke:red;stroke-width:1" />
 <line x1="6.73571428571428571" y1="15.5428571428571427" x2="5.70714285714285714" y2="15.5428571428571427" style="stroke:red;stroke-width:1" />
 <line x1="5.70714285714285714" y1="15.5428571428571427" x2="5.12857142857142857" y2="16.1214285714285713" style="stroke:red;stroke-width:1" />
 <line x1="5.12857142857142857" y1="16.1214285714285713" x2="5" y2="16.8928571428571427" style="stroke:red;stroke-width:1" />
 <line x1="5" y1="16.8928571428571427" x2="5.25714285714285714" y2="18.1785714285714284" style="stroke:red;stroke-width:1" />
 <line x1="5.25714285714285714" y1="18.1785714285714284" x2="5.64285714285714285" y2="19.3357142857142856" style="stroke:red;stroke-width:1" />
 <line x1="5.64285714285714285" y1="19.3357142857142856" x2="6.79999999999999999" y2="23.1928571428571427" style="stroke:red;stroke-width:1" />
 <line x1="6.79999999999999999" y1="23.1928571428571427" x2="8.85714285714285713" y2="23.1928571428571427" style="stroke:red;stroke-width:1" />
 <line x1="8.85714285714285713" y1="23.1928571428571427" x2="9.37142857142857142" y2="19.3357142857142856" style="stroke:red;stroke-width:1" />
 <line x1="19.4642857142857142" y1="19.3357142857142856" x2="19.4642857142857142" y2="34.057142857142857" style="stroke:red;stroke-width:1" />
 <line x1="14.7714285714285713" y1="19.3357142857142856" x2="19.4642857142857142" y2="25.4428571428571427" style="stroke:red;stroke-width:1" />
 <line x1="19.4642857142857142" y1="19.3357142857142856" x2="20.9428571428571427" y2="21.2642857142857141" style="stroke:red;stroke-width:1" />
 <line x1="20.9428571428571427" y1="21.2642857142857141" x2="21.907142857142857" y2="23.3214285714285713" style="stroke:red;stroke-width:1" />
 <line x1="21.907142857142857" y1="23.3214285714285713" x2="22.6785714285714284" y2="25.2499999999999999" style="stroke:red;stroke-width:1" />
 <line x1="22.6785714285714284" y1="25.2499999999999999" x2="22.9357142857142856" y2="26.4714285714285713" style="stroke:red;stroke-width:1" />
 <line x1="22.9357142857142856" y1="26.4714285714285713" x2="22.6785714285714284" y2="27.2428571428571427" style="stroke:red;stroke-width:1" />
 <line x1="22.6785714285714284" y1="27.2428571428571427" x2="22.2285714285714284" y2="27.6928571428571427" style="stroke:red;stroke-width:1" />
 <line x1="22.2285714285714284" y1="27.6928571428571427" x2="21.5857142857142856" y2="27.757142857142857" style="stroke:red;stroke-width:1" />
 <line x1="21.5857142857142856" y1="27.757142857142857" x2="21.007142857142857" y2="27.3714285714285713" style="stroke:red;stroke-width:1" />
 <line x1="21.007142857142857" y1="27.3714285714285713" x2="21.3928571428571427" y2="28.7214285714285713" style="stroke:red;stroke-width:1" />
 <line x1="21.3928571428571427" y1="28.7214285714285713" x2="21.5214285714285713" y2="29.557142857142857" style="stroke:red;stroke-width:1" />
 <line x1="21.5214285714285713" y1="29.557142857142857" x2="21.457142857142857" y2="30.2642857142857141" style="stroke:red;stroke-width:1" />
 <line x1="21.457142857142857" y1="30.2642857142857141" x2="20.8142857142857141" y2="30.5214285714285713" style="stroke:red;stroke-width:1" />
 <line x1="20.8142857142857141" y1="30.5214285714285713" x2="20.1714285714285713" y2="30.1999999999999998" style="stroke:red;stroke-width:1" />
 <line x1="20.1714285714285713" y1="30.1999999999999998" x2="19.4642857142857142" y2="29.6857142857142856" style="stroke:red;stroke-width:1" />
 <line x1="30.0714285714285713" y1="7.82857142857142856" x2="28.0785714285714284" y2="8.47142857142857142" style="stroke:red;stroke-width:1" />
 <line x1="28.0785714285714284" y1="8.47142857142857142" x2="25.4428571428571427" y2="8.9857142857142857" style="stroke:red;stroke-width:1" />
 <line x1="25.4428571428571427" y1="8.9857142857142857" x2="22.7428571428571427" y2="9.56428571428571427" style="stroke:red;stroke-width:1" />
 <line x1="22.7428571428571427" y1="9.56428571428571427" x2="21.5214285714285713" y2="10.0142857142857142" style="stroke:red;stroke-width:1" />
 <line x1="21.5214285714285713" y1="10.0142857142857142" x2="20.557142857142857" y2="10.3999999999999999" style="stroke:red;stroke-width:1" />
 <line x1="20.557142857142857" y1="10.3999999999999999" x2="20.0428571428571427" y2="10.7857142857142857" style="stroke:red;stroke-width:1" />
 <line x1="20.0428571428571427" y1="10.7857142857142857" x2="19.5285714285714284" y2="11.2999999999999999" style="stroke:red;stroke-width:1" />
 <line x1="17.407142857142857" y1="11.1071428571428571" x2="18.4999999999999999" y2="10.3357142857142857" style="stroke:red;stroke-width:1" />
 <line x1="18.4999999999999999" y1="10.3357142857142857" x2="19.5928571428571427" y2="9.49999999999999999" style="stroke:red;stroke-width:1" />
 <line x1="19.5928571428571427" y1="9.49999999999999999" x2="20.6214285714285713" y2="8.92142857142857142" style="stroke:red;stroke-width:1" />
 <line x1="20.6214285714285713" y1="8.92142857142857142" x2="21.6499999999999999" y2="8.40714285714285713" style="stroke:red;stroke-width:1" />
 <line x1="21.6499999999999999" y1="8.40714285714285713" x2="22.7428571428571427" y2="8.21428571428571428" style="stroke:red;stroke-width:1" />
 <line x1="22.7428571428571427" y1="8.21428571428571428" x2="23.8999999999999999" y2="7.95714285714285713" style="stroke:red;stroke-width:1" />
 <line x1="23.8999999999999999" y1="7.95714285714285713" x2="25.057142857142857" y2="7.89285714285714285" style="stroke:red;stroke-width:1" />
 <line x1="25.057142857142857" y1="7.89285714285714285" x2="26.9214285714285713" y2="7.89285714285714285" style="stroke:red;stroke-width:1" />
 <line x1="26.9214285714285713" y1="7.89285714285714285" x2="30.0714285714285713" y2="7.82857142857142856" style="stroke:red;stroke-width:1" />
 <line x1="30.0714285714285713" y1="7.82857142857142856" x2="28.9785714285714284" y2="8.85714285714285713" style="stroke:red;stroke-width:1" />
 <line x1="28.9785714285714284" y1="8.85714285714285713" x2="28.0142857142857141" y2="9.62857142857142856" style="stroke:red;stroke-width:1" />
 <line x1="28.0142857142857141" y1="9.62857142857142856" x2="26.6642857142857141" y2="10.3999999999999999" style="stroke:red;stroke-width:1" />
 <line x1="26.6642857142857141" y1="10.3999999999999999" x2="25.1857142857142856" y2="10.9785714285714285" style="stroke:red;stroke-width:1" />
 <line x1="25.1857142857142856" y1="10.9785714285714285" x2="23.707142857142857" y2="11.4928571428571428" style="stroke:red;stroke-width:1" />
 <line x1="23.707142857142857" y1="11.4928571428571428" x2="21.7785714285714284" y2="11.9428571428571428" style="stroke:red;stroke-width:1" />
 <line x1="21.7785714285714284" y1="11.9428571428571428" x2="20.1714285714285713" y2="12.1999999999999999" style="stroke:red;stroke-width:1" />
 <line x1="20.1714285714285713" y1="12.1999999999999999" x2="19.207142857142857" y2="12.2642857142857142" style="stroke:red;stroke-width:1" />
 <line x1="19.207142857142857" y1="12.2642857142857142" x2="18.6285714285714284" y2="12.5214285714285714" style="stroke:red;stroke-width:1" />
 <line x1="18.6285714285714284" y1="12.5214285714285714" x2="18.3714285714285713" y2="12.7785714285714285" style="stroke:red;stroke-width:1" />
 <line x1="18.3714285714285713" y1="12.7785714285714285" x2="18.2428571428571427" y2="13.2285714285714285" style="stroke:red;stroke-width:1" />
 <line x1="18.2428571428571427" y1="13.2285714285714285" x2="18.4357142857142856" y2="13.6142857142857142" style="stroke:red;stroke-width:1" />
 <line x1="18.4357142857142856" y1="13.6142857142857142" x2="18.6285714285714284" y2="13.9999999999999999" style="stroke:red;stroke-width:1" />
 <line x1="18.6285714285714284" y1="13.9999999999999999" x2="19.2714285714285713" y2="14.257142857142857" style="stroke:red;stroke-width:1" />
 <line x1="19.2714285714285713" y1="14.257142857142857" x2="20.2357142857142856" y2="14.5142857142857142" style="stroke:red;stroke-width:1" />
 <line x1="20.2357142857142856" y1="14.5142857142857142" x2="21.5857142857142856" y2="14.5785714285714284" style="stroke:red;stroke-width:1" />
 <line x1="21.5857142857142856" y1="14.5785714285714284" x2="22.5499999999999999" y2="14.5142857142857142" style="stroke:red;stroke-width:1" />
 <line x1="22.5499999999999999" y1="14.5142857142857142" x2="24.9928571428571427" y2="14.1285714285714284" style="stroke:red;stroke-width:1" />
 <line x1="24.9928571428571427" y1="14.1285714285714284" x2="26.7928571428571427" y2="13.9357142857142856" style="stroke:red;stroke-width:1" />
 <line x1="26.7928571428571427" y1="13.9357142857142856" x2="28.1428571428571427" y2="13.8714285714285713" style="stroke:red;stroke-width:1" />
 <line x1="28.1428571428571427" y1="13.8714285714285713" x2="29.1714285714285713" y2="14.0642857142857142" style="stroke:red;stroke-width:1" />
 <line x1="29.1714285714285713" y1="14.0642857142857142" x2="30.1999999999999998" y2="14.5142857142857142" style="stroke:red;stroke-width:1" />
 <line x1="30.1999999999999998" y1="14.5142857142857142" x2="30.8428571428571427" y2="15.0285714285714284" style="stroke:red;stroke-width:1" />
 <line x1="30.8428571428571427" y1="15.0285714285714284" x2="31.4857142857142856" y2="15.8642857142857142" style="stroke:red;stroke-width:1" />
 <line x1="31.4857142857142856" y1="15.8642857142857142" x2="31.9357142857142856" y2="16.6999999999999999" style="stroke:red;stroke-width:1" />
 <line x1="31.9357142857142856" y1="16.6999999999999999" x2="31.9999999999999998" y2="17.0857142857142856" style="stroke:red;stroke-width:1" />
 <line x1="31.9999999999999998" y1="17.0857142857142856" x2="31.9999999999999998" y2="17.5357142857142856" style="stroke:red;stroke-width:1" />
 <line x1="31.9999999999999998" y1="17.5357142857142856" x2="32.1928571428571427" y2="17.6642857142857142" style="stroke:red;stroke-width:1" />
 <line x1="32.1928571428571427" y1="17.6642857142857142" x2="32.3857142857142856" y2="17.6642857142857142" style="stroke:red;stroke-width:1" />
 <line x1="32.3857142857142856" y1="17.6642857142857142" x2="32.8357142857142856" y2="17.4714285714285713" style="stroke:red;stroke-width:1" />
 <line x1="32.8357142857142856" y1="17.4714285714285713" x2="33.3499999999999998" y2="16.957142857142857" style="stroke:red;stroke-width:1" />
 <line x1="33.3499999999999998" y1="16.957142857142857" x2="33.7357142857142856" y2="16.4428571428571427" style="stroke:red;stroke-width:1" />
 <line x1="33.7357142857142856" y1="16.4428571428571427" x2="33.7999999999999998" y2="17.0214285714285713" style="stroke:red;stroke-width:1" />
 <line x1="33.7999999999999998" y1="17.0214285714285713" x2="33.7357142857142856" y2="17.7928571428571427" style="stroke:red;stroke-width:1" />
 <line x1="33.7357142857142856" y1="17.7928571428571427" x2="33.3499999999999998" y2="18.3714285714285713" style="stroke:red;stroke-width:1" />
 <line x1="33.3499999999999998" y1="18.3714285714285713" x2="32.9642857142857141" y2="18.6285714285714284" style="stroke:red;stroke-width:1" />
 <line x1="32.9642857142857141" y1="18.6285714285714284" x2="32.4499999999999998" y2="18.757142857142857" style="stroke:red;stroke-width:1" />
 <line x1="32.4499999999999998" y1="18.757142857142857" x2="32.0642857142857141" y2="18.757142857142857" style="stroke:red;stroke-width:1" />
 <line x1="32.0642857142857141" y1="18.757142857142857" x2="31.6785714285714284" y2="18.5642857142857142" style="stroke:red;stroke-width:1" />
 <line x1="31.6785714285714284" y1="18.5642857142857142" x2="31.4857142857142856" y2="18.8214285714285713" style="stroke:red;stroke-width:1" />
 <line x1="31.4857142857142856" y1="18.8214285714285713" x2="31.0999999999999998" y2="19.1428571428571427" style="stroke:red;stroke-width:1" />
 <line x1="31.0999999999999998" y1="19.1428571428571427" x2="30.5214285714285713" y2="19.207142857142857" style="stroke:red;stroke-width:1" />
 <line x1="30.5214285714285713" y1="19.207142857142857" x2="24.157142857142857" y2="19.2714285714285713" style="stroke:red;stroke-width:1" />
 <line x1="24.157142857142857" y1="19.2714285714285713" x2="23.8999999999999999" y2="19.1428571428571427" style="stroke:red;stroke-width:1" />
 <line x1="23.8999999999999999" y1="19.1428571428571427" x2="23.8357142857142856" y2="19.0785714285714284" style="stroke:red;stroke-width:1" />
 <line x1="23.8357142857142856" y1="19.0785714285714284" x2="23.7714285714285713" y2="18.8214285714285713" style="stroke:red;stroke-width:1" />
 <line x1="23.7714285714285713" y1="18.8214285714285713" x2="23.8999999999999999" y2="18.6928571428571427" style="stroke:red;stroke-width:1" />
 <line x1="23.8999999999999999" y1="18.6928571428571427" x2="23.9642857142857141" y2="18.5642857142857142" style="stroke:red;stroke-width:1" />
 <line x1="23.9642857142857141" y1="18.5642857142857142" x2="24.4142857142857141" y2="18.4357142857142856" style="stroke:red;stroke-width:1" />
 <line x1="24.4142857142857141" y1="18.4357142857142856" x2="25.4428571428571427" y2="18.3714285714285713" style="stroke:red;stroke-width:1" />
 <line x1="25.4428571428571427" y1="18.3714285714285713" x2="26.7928571428571427" y2="18.4357142857142856" style="stroke:red;stroke-width:1" />
 <line x1="26.7928571428571427" y1="18.4357142857142856" x2="28.0142857142857141" y2="18.5642857142857142" style="stroke:red;stroke-width:1" />
 <line x1="28.0142857142857141" y1="18.5642857142857142" x2="29.0428571428571427" y2="18.5642857142857142" style="stroke:red;stroke-width:1" />
 <line x1="29.0428571428571427" y1="18.5642857142857142" x2="29.4285714285714284" y2="18.4999999999999999" style="stroke:red;stroke-width:1" />
 <line x1="29.4285714285714284" y1="18.4999999999999999" x2="29.4928571428571427" y2="18.307142857142857" style="stroke:red;stroke-width:1" />
 <line x1="29.4928571428571427" y1="18.307142857142857" x2="29.4928571428571427" y2="18.0499999999999999" style="stroke:red;stroke-width:1" />
 <line x1="29.4928571428571427" y1="18.0499999999999999" x2="29.0428571428571427" y2="17.6642857142857142" style="stroke:red;stroke-width:1" />
 <line x1="29.0428571428571427" y1="17.6642857142857142" x2="28.2714285714285713" y2="16.957142857142857" style="stroke:red;stroke-width:1" />
 <line x1="28.2714285714285713" y1="16.957142857142857" x2="27.8214285714285713" y2="16.4428571428571427" style="stroke:red;stroke-width:1" />
 <line x1="27.8214285714285713" y1="16.4428571428571427" x2="27.6285714285714284" y2="15.8642857142857142" style="stroke:red;stroke-width:1" />
 <line x1="28.2714285714285713" y1="16.957142857142857" x2="26.7285714285714284" y2="17.5999999999999999" style="stroke:red;stroke-width:1" />
 <line x1="26.7285714285714284" y1="17.5999999999999999" x2="24.9928571428571427" y2="18.0499999999999999" style="stroke:red;stroke-width:1" />
 <line x1="24.9928571428571427" y1="18.0499999999999999" x2="23.257142857142857" y2="18.307142857142857" style="stroke:red;stroke-width:1" />
 <line x1="23.257142857142857" y1="18.307142857142857" x2="21.5214285714285713" y2="18.2428571428571427" style="stroke:red;stroke-width:1" />
 <line x1="21.5214285714285713" y1="18.2428571428571427" x2="20.107142857142857" y2="18.0499999999999999" style="stroke:red;stroke-width:1" />
 <line x1="20.107142857142857" y1="18.0499999999999999" x2="18.2428571428571427" y2="17.4714285714285713" style="stroke:red;stroke-width:1" />
 <line x1="18.0499999999999999" y1="17.0214285714285713" x2="18.4999999999999999" y2="18.1142857142857142" style="stroke:red;stroke-width:1" />
 <line x1="18.4999999999999999" y1="18.1142857142857142" x2="18.4999999999999999" y2="18.5642857142857142" style="stroke:red;stroke-width:1" />
 <line x1="18.4999999999999999" y1="18.5642857142857142" x2="18.3714285714285713" y2="18.8857142857142856" style="stroke:red;stroke-width:1" />
 <line x1="18.3714285714285713" y1="18.8857142857142856" x2="18.1142857142857142" y2="19.1428571428571427" style="stroke:red;stroke-width:1" />
 <line x1="18.1142857142857142" y1="19.1428571428571427" x2="17.7928571428571427" y2="19.2714285714285713" style="stroke:red;stroke-width:1" />
 <line x1="17.7928571428571427" y1="19.2714285714285713" x2="10.4642857142857142" y2="19.3357142857142856" style="stroke:red;stroke-width:1" />
 <line x1="10.4642857142857142" y1="19.3357142857142856" x2="10.2071428571428571" y2="19.1428571428571427" style="stroke:red;stroke-width:1" />
 <line x1="10.2071428571428571" y1="19.1428571428571427" x2="10.2071428571428571" y2="19.0142857142857142" style="stroke:red;stroke-width:1" />
 <line x1="10.2071428571428571" y1="19.0142857142857142" x2="10.2071428571428571" y2="18.8214285714285713" style="stroke:red;stroke-width:1" />
 <line x1="10.2071428571428571" y1="18.8214285714285713" x2="10.3357142857142857" y2="18.6285714285714284" style="stroke:red;stroke-width:1" />
 <line x1="10.3357142857142857" y1="18.6285714285714284" x2="10.5285714285714285" y2="18.5642857142857142" style="stroke:red;stroke-width:1" />
 <line x1="10.5285714285714285" y1="18.5642857142857142" x2="15.2214285714285713" y2="18.4999999999999999" style="stroke:red;stroke-width:1" />
 <line x1="15.2214285714285713" y1="18.4999999999999999" x2="15.9285714285714284" y2="18.6285714285714284" style="stroke:red;stroke-width:1" />
 <line x1="15.9285714285714284" y1="18.6285714285714284" x2="16.3142857142857142" y2="18.307142857142857" style="stroke:red;stroke-width:1" />
 <line x1="16.3142857142857142" y1="18.307142857142857" x2="16.4428571428571427" y2="18.0499999999999999" style="stroke:red;stroke-width:1" />
 <line x1="16.4428571428571427" y1="18.0499999999999999" x2="16.5714285714285713" y2="17.6642857142857142" style="stroke:red;stroke-width:1" />
 <line x1="16.5714285714285713" y1="17.6642857142857142" x2="16.4428571428571427" y2="17.3428571428571427" style="stroke:red;stroke-width:1" />
 <line x1="16.4428571428571427" y1="17.3428571428571427" x2="16.1857142857142856" y2="16.6999999999999999" style="stroke:red;stroke-width:1" />
 <line x1="16.1857142857142856" y1="16.6999999999999999" x2="15.6714285714285713" y2="15.9285714285714284" style="stroke:red;stroke-width:1" />
 <line x1="15.6714285714285713" y1="15.9285714285714284" x2="15.2214285714285713" y2="15.2857142857142856" style="stroke:red;stroke-width:1" />
 <line x1="15.2214285714285713" y1="15.2857142857142856" x2="14.8999999999999999" y2="14.6428571428571427" style="stroke:red;stroke-width:1" />
 <line x1="14.8999999999999999" y1="14.6428571428571427" x2="14.707142857142857" y2="14.1285714285714284" style="stroke:red;stroke-width:1" />
 <line x1="14.707142857142857" y1="14.1285714285714284" x2="14.6428571428571427" y2="14.257142857142857" style="stroke:red;stroke-width:1" />
 <line x1="14.6428571428571427" y1="14.257142857142857" x2="14.5142857142857142" y2="14.3857142857142856" style="stroke:red;stroke-width:1" />
 <line x1="14.5142857142857142" y1="14.3857142857142856" x2="13.7428571428571427" y2="14.7714285714285713" style="stroke:red;stroke-width:1" />
 <line x1="13.7428571428571427" y1="14.7714285714285713" x2="12.7142857142857142" y2="15.157142857142857" style="stroke:red;stroke-width:1" />
 <line x1="12.7142857142857142" y1="15.157142857142857" x2="12.3285714285714285" y2="15.157142857142857" style="stroke:red;stroke-width:1" />
 <line x1="12.3285714285714285" y1="15.157142857142857" x2="11.9428571428571428" y2="14.8357142857142856" style="stroke:red;stroke-width:1" />
 <line x1="11.9428571428571428" y1="14.8357142857142856" x2="11.7499999999999999" y2="14.5142857142857142" style="stroke:red;stroke-width:1" />
 <line x1="11.7499999999999999" y1="14.5142857142857142" x2="11.7499999999999999" y2="14.1928571428571427" style="stroke:red;stroke-width:1" />
 <line x1="11.7499999999999999" y1="14.1928571428571427" x2="11.9428571428571428" y2="13.8714285714285713" style="stroke:red;stroke-width:1" />
 <line x1="11.9428571428571428" y1="13.8714285714285713" x2="12.3285714285714285" y2="13.5499999999999999" style="stroke:red;stroke-width:1" />
 <line x1="12.3285714285714285" y1="13.5499999999999999" x2="12.7142857142857142" y2="13.0999999999999999" style="stroke:red;stroke-width:1" />
 <line x1="12.7142857142857142" y1="13.0999999999999999" x2="13.0357142857142857" y2="12.7785714285714285" style="stroke:red;stroke-width:1" />
 <line x1="13.0357142857142857" y1="12.7785714285714285" x2="13.4214285714285713" y2="12.3928571428571428" style="stroke:red;stroke-width:1" />
 <line x1="13.4214285714285713" y1="12.3928571428571428" x2="13.6785714285714284" y2="11.8785714285714285" style="stroke:red;stroke-width:1" />
 <line x1="13.6785714285714284" y1="11.8785714285714285" x2="14.0642857142857142" y2="11.3642857142857142" style="stroke:red;stroke-width:1" />
 <line x1="14.0642857142857142" y1="11.3642857142857142" x2="14.5142857142857142" y2="10.9785714285714285" style="stroke:red;stroke-width:1" />
 <line x1="14.5142857142857142" y1="10.9785714285714285" x2="15.0928571428571427" y2="10.7857142857142857" style="stroke:red;stroke-width:1" />
 <line x1="15.0928571428571427" y1="10.7857142857142857" x2="15.9928571428571427" y2="10.4642857142857142" style="stroke:red;stroke-width:1" />
 <line x1="15.9928571428571427" y1="10.4642857142857142" x2="16.3785714285714284" y2="9.75714285714285713" style="stroke:red;stroke-width:1" />
 <line x1="16.3785714285714284" y1="9.75714285714285713" x2="17.0857142857142856" y2="8.85714285714285713" style="stroke:red;stroke-width:1" />
 <line x1="17.0857142857142856" y1="8.85714285714285713" x2="17.9214285714285713" y2="8.14999999999999999" style="stroke:red;stroke-width:1" />
 <line x1="17.9214285714285713" y1="8.14999999999999999" x2="18.8857142857142856" y2="7.6357142857142857" style="stroke:red;stroke-width:1" />
 <line x1="18.8857142857142856" y1="7.6357142857142857" x2="19.9142857142857141" y2="7.05714285714285713" style="stroke:red;stroke-width:1" />
 <line x1="19.9142857142857141" y1="7.05714285714285713" x2="20.8785714285714284" y2="6.67142857142857142" style="stroke:red;stroke-width:1" />
 <line x1="20.8785714285714284" y1="6.67142857142857142" x2="22.2928571428571427" y2="6.41428571428571428" style="stroke:red;stroke-width:1" />
 <line x1="22.2928571428571427" y1="6.41428571428571428" x2="25.7642857142857141" y2="5.70714285714285714" style="stroke:red;stroke-width:1" />
 <line x1="25.7642857142857141" y1="5.70714285714285714" x2="27.6928571428571427" y2="5.38571428571428571" style="stroke:red;stroke-width:1" />
 <line x1="27.6928571428571427" y1="5.38571428571428571" x2="28.9142857142857141" y2="5" style="stroke:red;stroke-width:1" />
 <line x1="28.9142857142857141" y1="5" x2="28.3999999999999998" y2="6.02857142857142856" style="stroke:red;stroke-width:1" />
 <line x1="28.3999999999999998" y1="6.02857142857142856" x2="27.757142857142857" y2="6.99285714285714285" style="stroke:red;stroke-width:1" />
 <line x1="27.757142857142857" y1="6.99285714285714285" x2="26.9214285714285713" y2="7.89285714285714285" style="stroke:red;stroke-width:1" />
 <line x1="13.7428571428571427" y1="14.7714285714285713" x2="13.7428571428571427" y2="15.2214285714285713" style="stroke:red;stroke-width:1" />
 <line x1="13.7428571428571427" y1="15.2214285714285713" x2="13.6142857142857142" y2="15.6714285714285713" style="stroke:red;stroke-width:1" />
 <line x1="13.6142857142857142" y1="15.6714285714285713" x2="13.4857142857142856" y2="15.9285714285714284" style="stroke:red;stroke-width:1" />
 <line x1="13.4857142857142856" y1="15.9285714285714284" x2="13.1642857142857142" y2="16.057142857142857" style="stroke:red;stroke-width:1" />
 <line x1="13.1642857142857142" y1="16.057142857142857" x2="12.9071428571428571" y2="16.1214285714285713" style="stroke:red;stroke-width:1" />
 <line x1="12.9071428571428571" y1="16.1214285714285713" x2="12.7785714285714285" y2="15.9928571428571427" style="stroke:red;stroke-width:1" />
 <line x1="12.7785714285714285" y1="15.9928571428571427" x2="12.8428571428571428" y2="15.7999999999999999" style="stroke:red;stroke-width:1" />
 <line x1="12.8428571428571428" y1="15.7999999999999999" x2="12.8428571428571428" y2="15.4785714285714284" style="stroke:red;stroke-width:1" />
 <line x1="12.8428571428571428" y1="15.4785714285714284" x2="12.7142857142857142" y2="15.157142857142857" style="stroke:red;stroke-width:1" />
 <path d="M 14.3214285714285713 12.5214285714285714
          A .257142857142857142 .257142857142857142 0 1 0 14.8357142857142855 12.5214285714285714
          A .257142857142857142 .257142857142857142 0 1 0 14.3214285714285713 12.5214285714285714"
       stroke="red" fill="white" stroke-width="1" fill-opacity="0.0"/>
 <line x1="11.6857142857142857" y1="14.1928571428571427" x2="10.5285714285714285" y2="13.2928571428571428" style="stroke:red;stroke-width:1" />

</svg>
