<!DOCTYPE svg PUBLIC "-//W3C//DTD SVG 1.1//EN" "http://www.w3.org/Graphics/SVG/1.1/DTD/svg11.dtd">
<svg width="6486" height="60001" xmlns="http://www.w3.org/2000/svg">
 <line x1="1" y1="61" x2="1" y2="60" style="stroke: black; stroke-width: 1" />
 <line x1="1" y1="60" x2="1" y2="59" style="stroke: black; stroke-width: 1" />
 <line x1="1" y1="59" x2="1" y2="57" style="stroke: black; stroke-width: 1" />
 <line x1="1" y1="57" x2="1" y2="56" style="stroke: black; stroke-width: 1" />
 <line x1="1" y1="56" x2="2" y2="55" style="stroke: black; stroke-width: 1" />
 <line x1="2" y1="55" x2="3" y2="53" style="stroke: black; stroke-width: 1" />
 <line x1="3" y1="53" x2="4" y2="52" style="stroke: black; stroke-width: 1" />
 <line x1="4" y1="52" x2="5" y2="51" style="stroke: black; stroke-width: 1" />
 <line x1="5" y1="51" x2="7" y2="50" style="stroke: black; stroke-width: 1" />
 <line x1="7" y1="50" x2="8" y2="49" style="stroke: black; stroke-width: 1" />
 <line x1="8" y1="49" x2="10" y2="48" style="stroke: black; stroke-width: 1" />
 <line x1="10" y1="48" x2="12" y2="48" style="stroke: black; stroke-width: 1" />
 <line x1="12" y1="48" x2="13" y2="48" style="stroke: black; stroke-width: 1" />
 <line x1="13" y1="48" x2="15" y2="48" style="stroke: black; stroke-width: 1" />
 <line x1="15" y1="48" x2="16" y2="48" style="stroke: black; stroke-width: 1" />
 <line x1="16" y1="48" x2="18" y2="49" style="stroke: black; stroke-width: 1" />
 <line x1="18" y1="49" x2="19" y2="50" style="stroke: black; stroke-width: 1" />
 <line x1="19" y1="50" x2="19" y2="51" style="stroke: black; stroke-width: 1" />
 <line x1="19" y1="51" x2="20" y2="52" style="stroke: black; stroke-width: 1" />
 <line x1="20" y1="52" x2="20" y2="53" style="stroke: black; stroke-width: 1" />
 <line x1="20" y1="53" x2="20" y2="55" style="stroke: black; stroke-width: 1" />
 <line x1="20" y1="55" x2="20" y2="56" style="stroke: black; stroke-width: 1" />
 <line x1="20" y1="56" x2="19" y2="58" style="stroke: black; stroke-width: 1" />
 <line x1="19" y1="58" x2="18" y2="59" style="stroke: black; stroke-width: 1" />
 <line x1="18" y1="59" x2="17" y2="60" style="stroke: black; stroke-width: 1" />
 <line x1="17" y1="60" x2="16" y2="62" style="stroke: black; stroke-width: 1" />
 <line x1="16" y1="62" x2="14" y2="63" style="stroke: black; stroke-width: 1" />
 <line x1="14" y1="63" x2="12" y2="63" style="stroke: black; stroke-width: 1" />
 <line x1="12" y1="63" x2="11" y2="64" style="stroke: black; stroke-width: 1" />
 <line x1="11" y1="64" x2="9" y2="64" style="stroke: black; stroke-width: 1" />
 <line x1="9" y1="64" x2="7" y2="65" style="stroke: black; stroke-width: 1" />
 <line x1="7" y1="65" x2="6" y2="64" style="stroke: black; stroke-width: 1" />
 <line x1="6" y1="64" x2="4" y2="64" style="stroke: black; stroke-width: 1" />
 <line x1="4" y1="64" x2="3" y2="63" style="stroke: black; stroke-width: 1" />
 <line x1="3" y1="63" x2="2" y2="62" style="stroke: black; stroke-width: 1" />
 <line x1="2" y1="62" x2="1" y2="61" style="stroke: black; stroke-width: 1" />
 <line x1="2" y1="61" x2="2" y2="60" style="stroke: black; stroke-width: 1" />
 <line x1="2" y1="60" x2="2" y2="59" style="stroke: black; stroke-width: 1" />
 <line x1="2" y1="59" x2="2" y2="58" style="stroke: black; stroke-width: 1" />
 <line x1="2" y1="58" x2="2" y2="57" style="stroke: black; stroke-width: 1" />
 <line x1="2" y1="57" x2="3" y2="56" style="stroke: black; stroke-width: 1" />
 <line x1="3" y1="56" x2="4" y2="55" style="stroke: black; stroke-width: 1" />
 <line x1="4" y1="55" x2="5" y2="54" style="stroke: black; stroke-width: 1" />
 <line x1="5" y1="54" x2="6" y2="53" style="stroke: black; stroke-width: 1" />
 <line x1="6" y1="53" x2="8" y2="52" style="stroke: black; stroke-width: 1" />
 <line x1="8" y1="52" x2="9" y2="51" style="stroke: black; stroke-width: 1" />
 <line x1="9" y1="51" x2="11" y2="51" style="stroke: black; stroke-width: 1" />
 <line x1="11" y1="51" x2="12" y2="50" style="stroke: black; stroke-width: 1" />
 <line x1="12" y1="50" x2="14" y2="50" style="stroke: black; stroke-width: 1" />
 <line x1="14" y1="50" x2="15" y2="50" style="stroke: black; stroke-width: 1" />
 <line x1="15" y1="50" x2="16" y2="50" style="stroke: black; stroke-width: 1" />
 <line x1="16" y1="50" x2="17" y2="50" style="stroke: black; stroke-width: 1" />
 <line x1="17" y1="50" x2="18" y2="51" style="stroke: black; stroke-width: 1" />
 <line x1="18" y1="51" x2="18" y2="51" style="stroke: black; stroke-width: 1" />
 <line x1="18" y1="51" x2="19" y2="52" style="stroke: black; stroke-width: 1" />
 <line x1="19" y1="52" x2="19" y2="53" style="stroke: black; stroke-width: 1" />
 <line x1="19" y1="53" x2="19" y2="54" style="stroke: black; stroke-width: 1" />
 <line x1="19" y1="54" x2="18" y2="55" style="stroke: black; stroke-width: 1" />
 <line x1="18" y1="55" x2="17" y2="56" style="stroke: black; stroke-width: 1" />
 <line x1="17" y1="56" x2="17" y2="58" style="stroke: black; stroke-width: 1" />
 <line x1="17" y1="58" x2="15" y2="59" style="stroke: black; stroke-width: 1" />
 <line x1="15" y1="59" x2="14" y2="60" style="stroke: black; stroke-width: 1" />
 <line x1="14" y1="60" x2="13" y2="60" style="stroke: black; stroke-width: 1" />
 <line x1="13" y1="60" x2="11" y2="61" style="stroke: black; stroke-width: 1" />
 <line x1="11" y1="61" x2="10" y2="62" style="stroke: black; stroke-width: 1" />
 <line x1="10" y1="62" x2="8" y2="62" style="stroke: black; stroke-width: 1" />
 <line x1="8" y1="62" x2="7" y2="62" style="stroke: black; stroke-width: 1" />
 <line x1="7" y1="62" x2="6" y2="63" style="stroke: black; stroke-width: 1" />
 <line x1="6" y1="63" x2="4" y2="62" style="stroke: black; stroke-width: 1" />
 <line x1="4" y1="62" x2="3" y2="62" style="stroke: black; stroke-width: 1" />
 <line x1="3" y1="62" x2="3" y2="62" style="stroke: black; stroke-width: 1" />
 <line x1="3" y1="62" x2="2" y2="61" style="stroke: black; stroke-width: 1" />
 <line x1="1" y1="60" x2="1" y2="169" style="stroke: black; stroke-width: 1" />
 <line x1="1" y1="169" x2="3" y2="165" style="stroke: black; stroke-width: 1" />
 <line x1="3" y1="165" x2="4" y2="164" style="stroke: black; stroke-width: 1" />
 <line x1="4" y1="164" x2="7" y2="162" style="stroke: black; stroke-width: 1" />
 <line x1="7" y1="162" x2="9" y2="161" style="stroke: black; stroke-width: 1" />
 <line x1="9" y1="161" x2="11" y2="160" style="stroke: black; stroke-width: 1" />
 <line x1="11" y1="160" x2="13" y2="158" style="stroke: black; stroke-width: 1" />
 <line x1="13" y1="158" x2="14" y2="155" style="stroke: black; stroke-width: 1" />
 <line x1="14" y1="155" x2="17" y2="152" style="stroke: black; stroke-width: 1" />
 <line x1="17" y1="152" x2="17" y2="149" style="stroke: black; stroke-width: 1" />
 <line x1="17" y1="149" x2="17" y2="145" style="stroke: black; stroke-width: 1" />
 <line x1="17" y1="145" x2="17" y2="139" style="stroke: black; stroke-width: 1" />
 <line x1="17" y1="139" x2="17" y2="142" style="stroke: black; stroke-width: 1" />
 <line x1="17" y1="142" x2="16" y2="145" style="stroke: black; stroke-width: 1" />
 <line x1="16" y1="145" x2="14" y2="147" style="stroke: black; stroke-width: 1" />
 <line x1="14" y1="147" x2="13" y2="149" style="stroke: black; stroke-width: 1" />
 <line x1="13" y1="149" x2="11" y2="151" style="stroke: black; stroke-width: 1" />
 <line x1="11" y1="151" x2="9" y2="153" style="stroke: black; stroke-width: 1" />
 <line x1="9" y1="153" x2="7" y2="154" style="stroke: black; stroke-width: 1" />
 <line x1="7" y1="154" x2="5" y2="155" style="stroke: black; stroke-width: 1" />
 <line x1="5" y1="155" x2="4" y2="156" style="stroke: black; stroke-width: 1" />
 <line x1="4" y1="156" x2="2" y2="159" style="stroke: black; stroke-width: 1" />
 <line x1="2" y1="159" x2="1" y2="162" style="stroke: black; stroke-width: 1" />
 <line x1="1" y1="162" x2="1" y2="165" style="stroke: black; stroke-width: 1" />
 <line x1="1" y1="165" x2="1" y2="169" style="stroke: black; stroke-width: 1" />
 <line x1="1" y1="152" x2="3" y2="149" style="stroke: black; stroke-width: 1" />
 <line x1="3" y1="149" x2="4" y2="147" style="stroke: black; stroke-width: 1" />
 <line x1="4" y1="147" x2="7" y2="145" style="stroke: black; stroke-width: 1" />
 <line x1="7" y1="145" x2="9" y2="144" style="stroke: black; stroke-width: 1" />
 <line x1="9" y1="144" x2="11" y2="143" style="stroke: black; stroke-width: 1" />
 <line x1="11" y1="143" x2="13" y2="141" style="stroke: black; stroke-width: 1" />
 <line x1="13" y1="141" x2="14" y2="139" style="stroke: black; stroke-width: 1" />
 <line x1="14" y1="139" x2="17" y2="135" style="stroke: black; stroke-width: 1" />
 <line x1="17" y1="135" x2="17" y2="132" style="stroke: black; stroke-width: 1" />
 <line x1="17" y1="132" x2="17" y2="129" style="stroke: black; stroke-width: 1" />
 <line x1="17" y1="129" x2="17" y2="122" style="stroke: black; stroke-width: 1" />
 <line x1="17" y1="122" x2="17" y2="125" style="stroke: black; stroke-width: 1" />
 <line x1="17" y1="125" x2="16" y2="129" style="stroke: black; stroke-width: 1" />
 <line x1="16" y1="129" x2="14" y2="130" style="stroke: black; stroke-width: 1" />
 <line x1="14" y1="130" x2="13" y2="133" style="stroke: black; stroke-width: 1" />
 <line x1="13" y1="133" x2="11" y2="135" style="stroke: black; stroke-width: 1" />
 <line x1="11" y1="135" x2="9" y2="136" style="stroke: black; stroke-width: 1" />
 <line x1="9" y1="136" x2="7" y2="137" style="stroke: black; stroke-width: 1" />
 <line x1="7" y1="137" x2="5" y2="138" style="stroke: black; stroke-width: 1" />
 <line x1="5" y1="138" x2="4" y2="139" style="stroke: black; stroke-width: 1" />
 <line x1="4" y1="139" x2="2" y2="142" style="stroke: black; stroke-width: 1" />
 <line x1="2" y1="142" x2="1" y2="145" style="stroke: black; stroke-width: 1" />
 <line x1="1" y1="145" x2="1" y2="149" style="stroke: black; stroke-width: 1" />
 <line x1="1" y1="149" x2="1" y2="152" style="stroke: black; stroke-width: 1" />
 <line x1="1" y1="135" x2="3" y2="132" style="stroke: black; stroke-width: 1" />
 <line x1="3" y1="132" x2="4" y2="130" style="stroke: black; stroke-width: 1" />
 <line x1="4" y1="130" x2="7" y2="129" style="stroke: black; stroke-width: 1" />
 <line x1="7" y1="129" x2="9" y2="128" style="stroke: black; stroke-width: 1" />
 <line x1="9" y1="128" x2="11" y2="126" style="stroke: black; stroke-width: 1" />
 <line x1="11" y1="126" x2="13" y2="125" style="stroke: black; stroke-width: 1" />
 <line x1="13" y1="125" x2="14" y2="122" style="stroke: black; stroke-width: 1" />
 <line x1="14" y1="122" x2="17" y2="119" style="stroke: black; stroke-width: 1" />
 <line x1="17" y1="119" x2="17" y2="115" style="stroke: black; stroke-width: 1" />
 <line x1="17" y1="115" x2="17" y2="112" style="stroke: black; stroke-width: 1" />
 <line x1="17" y1="112" x2="17" y2="105" style="stroke: black; stroke-width: 1" />
 <line x1="17" y1="105" x2="17" y2="109" style="stroke: black; stroke-width: 1" />
 <line x1="17" y1="109" x2="16" y2="112" style="stroke: black; stroke-width: 1" />
 <line x1="16" y1="112" x2="14" y2="113" style="stroke: black; stroke-width: 1" />
 <line x1="14" y1="113" x2="13" y2="116" style="stroke: black; stroke-width: 1" />
 <line x1="13" y1="116" x2="11" y2="118" style="stroke: black; stroke-width: 1" />
 <line x1="11" y1="118" x2="9" y2="119" style="stroke: black; stroke-width: 1" />
 <line x1="9" y1="119" x2="7" y2="120" style="stroke: black; stroke-width: 1" />
 <line x1="7" y1="120" x2="5" y2="122" style="stroke: black; stroke-width: 1" />
 <line x1="5" y1="122" x2="4" y2="123" style="stroke: black; stroke-width: 1" />
 <line x1="4" y1="123" x2="2" y2="125" style="stroke: black; stroke-width: 1" />
 <line x1="2" y1="125" x2="1" y2="129" style="stroke: black; stroke-width: 1" />
 <line x1="1" y1="129" x2="1" y2="132" style="stroke: black; stroke-width: 1" />
 <line x1="1" y1="132" x2="1" y2="135" style="stroke: black; stroke-width: 1" />
 <line x1="1" y1="119" x2="3" y2="115" style="stroke: black; stroke-width: 1" />
 <line x1="3" y1="115" x2="4" y2="114" style="stroke: black; stroke-width: 1" />
 <line x1="4" y1="114" x2="7" y2="112" style="stroke: black; stroke-width: 1" />
 <line x1="7" y1="112" x2="9" y2="111" style="stroke: black; stroke-width: 1" />
 <line x1="9" y1="111" x2="11" y2="110" style="stroke: black; stroke-width: 1" />
 <line x1="11" y1="110" x2="13" y2="108" style="stroke: black; stroke-width: 1" />
 <line x1="13" y1="108" x2="14" y2="105" style="stroke: black; stroke-width: 1" />
 <line x1="14" y1="105" x2="17" y2="102" style="stroke: black; stroke-width: 1" />
 <line x1="17" y1="102" x2="17" y2="99" style="stroke: black; stroke-width: 1" />
 <line x1="17" y1="99" x2="17" y2="95" style="stroke: black; stroke-width: 1" />
 <line x1="17" y1="95" x2="17" y2="89" style="stroke: black; stroke-width: 1" />
 <line x1="17" y1="89" x2="17" y2="92" style="stroke: black; stroke-width: 1" />
 <line x1="17" y1="92" x2="16" y2="95" style="stroke: black; stroke-width: 1" />
 <line x1="16" y1="95" x2="14" y2="97" style="stroke: black; stroke-width: 1" />
 <line x1="14" y1="97" x2="13" y2="99" style="stroke: black; stroke-width: 1" />
 <line x1="13" y1="99" x2="11" y2="101" style="stroke: black; stroke-width: 1" />
 <line x1="11" y1="101" x2="9" y2="103" style="stroke: black; stroke-width: 1" />
 <line x1="9" y1="103" x2="7" y2="104" style="stroke: black; stroke-width: 1" />
 <line x1="7" y1="104" x2="5" y2="105" style="stroke: black; stroke-width: 1" />
 <line x1="5" y1="105" x2="4" y2="106" style="stroke: black; stroke-width: 1" />
 <line x1="4" y1="106" x2="2" y2="109" style="stroke: black; stroke-width: 1" />
 <line x1="2" y1="109" x2="1" y2="112" style="stroke: black; stroke-width: 1" />
 <line x1="1" y1="112" x2="1" y2="115" style="stroke: black; stroke-width: 1" />
 <line x1="1" y1="115" x2="1" y2="119" style="stroke: black; stroke-width: 1" />
 <line x1="0" y1="140" x2="21" y2="140" style="stroke: black; stroke-width: 1" />
 <line x1="0" y1="123" x2="21" y2="123" style="stroke: black; stroke-width: 1" />
 <line x1="0" y1="106" x2="21" y2="106" style="stroke: black; stroke-width: 1" />
 <line x1="0" y1="90" x2="21" y2="90" style="stroke: black; stroke-width: 1" />
 <line x1="0" y1="73" x2="21" y2="73" style="stroke: black; stroke-width: 1" />
 <line x1="0" y1="56" x2="21" y2="56" style="stroke: black; stroke-width: 1" />
</svg>
