<!DOCTYPE svg PUBLIC "-//W3C//DTD SVG 1.1//EN" "http://www.w3.org/Graphics/SVG/1.1/DTD/svg11.dtd">
<svg width="11486" height="60001" xmlns="http://www.w3.org/2000/svg">
 <line x1="1" y1="178" x2="1" y2="177" style="stroke: black; stroke-width: 1" />
 <line x1="1" y1="177" x2="1" y2="176" style="stroke: black; stroke-width: 1" />
 <line x1="1" y1="176" x2="1" y2="174" style="stroke: black; stroke-width: 1" />
 <line x1="1" y1="174" x2="1" y2="173" style="stroke: black; stroke-width: 1" />
 <line x1="1" y1="173" x2="2" y2="171" style="stroke: black; stroke-width: 1" />
 <line x1="2" y1="171" x2="3" y2="170" style="stroke: black; stroke-width: 1" />
 <line x1="3" y1="170" x2="4" y2="169" style="stroke: black; stroke-width: 1" />
 <line x1="4" y1="169" x2="5" y2="167" style="stroke: black; stroke-width: 1" />
 <line x1="5" y1="167" x2="7" y2="166" style="stroke: black; stroke-width: 1" />
 <line x1="7" y1="166" x2="8" y2="166" style="stroke: black; stroke-width: 1" />
 <line x1="8" y1="166" x2="10" y2="165" style="stroke: black; stroke-width: 1" />
 <line x1="10" y1="165" x2="12" y2="165" style="stroke: black; stroke-width: 1" />
 <line x1="12" y1="165" x2="13" y2="165" style="stroke: black; stroke-width: 1" />
 <line x1="13" y1="165" x2="15" y2="165" style="stroke: black; stroke-width: 1" />
 <line x1="15" y1="165" x2="16" y2="165" style="stroke: black; stroke-width: 1" />
 <line x1="16" y1="165" x2="18" y2="166" style="stroke: black; stroke-width: 1" />
 <line x1="18" y1="166" x2="19" y2="167" style="stroke: black; stroke-width: 1" />
 <line x1="19" y1="167" x2="19" y2="168" style="stroke: black; stroke-width: 1" />
 <line x1="19" y1="168" x2="20" y2="169" style="stroke: black; stroke-width: 1" />
 <line x1="20" y1="169" x2="20" y2="170" style="stroke: black; stroke-width: 1" />
 <line x1="20" y1="170" x2="20" y2="172" style="stroke: black; stroke-width: 1" />
 <line x1="20" y1="172" x2="20" y2="173" style="stroke: black; stroke-width: 1" />
 <line x1="20" y1="173" x2="19" y2="174" style="stroke: black; stroke-width: 1" />
 <line x1="19" y1="174" x2="18" y2="176" style="stroke: black; stroke-width: 1" />
 <line x1="18" y1="176" x2="17" y2="177" style="stroke: black; stroke-width: 1" />
 <line x1="17" y1="177" x2="16" y2="178" style="stroke: black; stroke-width: 1" />
 <line x1="16" y1="178" x2="14" y2="179" style="stroke: black; stroke-width: 1" />
 <line x1="14" y1="179" x2="12" y2="180" style="stroke: black; stroke-width: 1" />
 <line x1="12" y1="180" x2="11" y2="181" style="stroke: black; stroke-width: 1" />
 <line x1="11" y1="181" x2="9" y2="181" style="stroke: black; stroke-width: 1" />
 <line x1="9" y1="181" x2="7" y2="181" style="stroke: black; stroke-width: 1" />
 <line x1="7" y1="181" x2="6" y2="181" style="stroke: black; stroke-width: 1" />
 <line x1="6" y1="181" x2="4" y2="181" style="stroke: black; stroke-width: 1" />
 <line x1="4" y1="181" x2="3" y2="180" style="stroke: black; stroke-width: 1" />
 <line x1="3" y1="180" x2="2" y2="179" style="stroke: black; stroke-width: 1" />
 <line x1="2" y1="179" x2="1" y2="178" style="stroke: black; stroke-width: 1" />
 <line x1="2" y1="178" x2="2" y2="177" style="stroke: black; stroke-width: 1" />
 <line x1="2" y1="177" x2="2" y2="176" style="stroke: black; stroke-width: 1" />
 <line x1="2" y1="176" x2="2" y2="175" style="stroke: black; stroke-width: 1" />
 <line x1="2" y1="175" x2="2" y2="174" style="stroke: black; stroke-width: 1" />
 <line x1="2" y1="174" x2="3" y2="173" style="stroke: black; stroke-width: 1" />
 <line x1="3" y1="173" x2="4" y2="171" style="stroke: black; stroke-width: 1" />
 <line x1="4" y1="171" x2="5" y2="170" style="stroke: black; stroke-width: 1" />
 <line x1="5" y1="170" x2="6" y2="169" style="stroke: black; stroke-width: 1" />
 <line x1="6" y1="169" x2="8" y2="169" style="stroke: black; stroke-width: 1" />
 <line x1="8" y1="169" x2="9" y2="168" style="stroke: black; stroke-width: 1" />
 <line x1="9" y1="168" x2="11" y2="167" style="stroke: black; stroke-width: 1" />
 <line x1="11" y1="167" x2="12" y2="167" style="stroke: black; stroke-width: 1" />
 <line x1="12" y1="167" x2="14" y2="167" style="stroke: black; stroke-width: 1" />
 <line x1="14" y1="167" x2="15" y2="166" style="stroke: black; stroke-width: 1" />
 <line x1="15" y1="166" x2="16" y2="167" style="stroke: black; stroke-width: 1" />
 <line x1="16" y1="167" x2="17" y2="167" style="stroke: black; stroke-width: 1" />
 <line x1="17" y1="167" x2="18" y2="167" style="stroke: black; stroke-width: 1" />
 <line x1="18" y1="167" x2="18" y2="168" style="stroke: black; stroke-width: 1" />
 <line x1="18" y1="168" x2="19" y2="169" style="stroke: black; stroke-width: 1" />
 <line x1="19" y1="169" x2="19" y2="170" style="stroke: black; stroke-width: 1" />
 <line x1="19" y1="170" x2="19" y2="171" style="stroke: black; stroke-width: 1" />
 <line x1="19" y1="171" x2="18" y2="172" style="stroke: black; stroke-width: 1" />
 <line x1="18" y1="172" x2="17" y2="173" style="stroke: black; stroke-width: 1" />
 <line x1="17" y1="173" x2="17" y2="174" style="stroke: black; stroke-width: 1" />
 <line x1="17" y1="174" x2="15" y2="175" style="stroke: black; stroke-width: 1" />
 <line x1="15" y1="175" x2="14" y2="176" style="stroke: black; stroke-width: 1" />
 <line x1="14" y1="176" x2="13" y2="177" style="stroke: black; stroke-width: 1" />
 <line x1="13" y1="177" x2="11" y2="178" style="stroke: black; stroke-width: 1" />
 <line x1="11" y1="178" x2="10" y2="178" style="stroke: black; stroke-width: 1" />
 <line x1="10" y1="178" x2="8" y2="179" style="stroke: black; stroke-width: 1" />
 <line x1="8" y1="179" x2="7" y2="179" style="stroke: black; stroke-width: 1" />
 <line x1="7" y1="179" x2="6" y2="179" style="stroke: black; stroke-width: 1" />
 <line x1="6" y1="179" x2="4" y2="179" style="stroke: black; stroke-width: 1" />
 <line x1="4" y1="179" x2="3" y2="179" style="stroke: black; stroke-width: 1" />
 <line x1="3" y1="179" x2="3" y2="178" style="stroke: black; stroke-width: 1" />
 <line x1="3" y1="178" x2="2" y2="178" style="stroke: black; stroke-width: 1" />
 <line x1="20" y1="173" x2="20" y2="98" style="stroke: black; stroke-width: 1" />
 <line x1="20" y1="98" x2="22" y2="101" style="stroke: black; stroke-width: 1" />
 <line x1="22" y1="101" x2="23" y2="103" style="stroke: black; stroke-width: 1" />
 <line x1="23" y1="103" x2="26" y2="105" style="stroke: black; stroke-width: 1" />
 <line x1="26" y1="105" x2="28" y2="106" style="stroke: black; stroke-width: 1" />
 <line x1="28" y1="106" x2="30" y2="107" style="stroke: black; stroke-width: 1" />
 <line x1="30" y1="107" x2="32" y2="109" style="stroke: black; stroke-width: 1" />
 <line x1="32" y1="109" x2="33" y2="111" style="stroke: black; stroke-width: 1" />
 <line x1="33" y1="111" x2="36" y2="115" style="stroke: black; stroke-width: 1" />
 <line x1="36" y1="115" x2="36" y2="118" style="stroke: black; stroke-width: 1" />
 <line x1="36" y1="118" x2="37" y2="121" style="stroke: black; stroke-width: 1" />
 <line x1="37" y1="121" x2="37" y2="128" style="stroke: black; stroke-width: 1" />
 <line x1="37" y1="128" x2="37" y2="125" style="stroke: black; stroke-width: 1" />
 <line x1="37" y1="125" x2="35" y2="121" style="stroke: black; stroke-width: 1" />
 <line x1="35" y1="121" x2="33" y2="119" style="stroke: black; stroke-width: 1" />
 <line x1="33" y1="119" x2="32" y2="117" style="stroke: black; stroke-width: 1" />
 <line x1="32" y1="117" x2="30" y2="115" style="stroke: black; stroke-width: 1" />
 <line x1="30" y1="115" x2="28" y2="114" style="stroke: black; stroke-width: 1" />
 <line x1="28" y1="114" x2="27" y2="113" style="stroke: black; stroke-width: 1" />
 <line x1="27" y1="113" x2="25" y2="112" style="stroke: black; stroke-width: 1" />
 <line x1="25" y1="112" x2="23" y2="111" style="stroke: black; stroke-width: 1" />
 <line x1="23" y1="111" x2="22" y2="108" style="stroke: black; stroke-width: 1" />
 <line x1="22" y1="108" x2="21" y2="105" style="stroke: black; stroke-width: 1" />
 <line x1="21" y1="105" x2="20" y2="101" style="stroke: black; stroke-width: 1" />
 <line x1="20" y1="101" x2="20" y2="98" style="stroke: black; stroke-width: 1" />
 <line x1="20" y1="115" x2="22" y2="118" style="stroke: black; stroke-width: 1" />
 <line x1="22" y1="118" x2="23" y2="120" style="stroke: black; stroke-width: 1" />
 <line x1="23" y1="120" x2="26" y2="121" style="stroke: black; stroke-width: 1" />
 <line x1="26" y1="121" x2="28" y2="122" style="stroke: black; stroke-width: 1" />
 <line x1="28" y1="122" x2="30" y2="124" style="stroke: black; stroke-width: 1" />
 <line x1="30" y1="124" x2="32" y2="125" style="stroke: black; stroke-width: 1" />
 <line x1="32" y1="125" x2="33" y2="128" style="stroke: black; stroke-width: 1" />
 <line x1="33" y1="128" x2="36" y2="131" style="stroke: black; stroke-width: 1" />
 <line x1="36" y1="131" x2="36" y2="135" style="stroke: black; stroke-width: 1" />
 <line x1="36" y1="135" x2="37" y2="138" style="stroke: black; stroke-width: 1" />
 <line x1="37" y1="138" x2="37" y2="145" style="stroke: black; stroke-width: 1" />
 <line x1="37" y1="145" x2="37" y2="141" style="stroke: black; stroke-width: 1" />
 <line x1="37" y1="141" x2="35" y2="138" style="stroke: black; stroke-width: 1" />
 <line x1="35" y1="138" x2="33" y2="136" style="stroke: black; stroke-width: 1" />
 <line x1="33" y1="136" x2="32" y2="134" style="stroke: black; stroke-width: 1" />
 <line x1="32" y1="134" x2="30" y2="132" style="stroke: black; stroke-width: 1" />
 <line x1="30" y1="132" x2="28" y2="131" style="stroke: black; stroke-width: 1" />
 <line x1="28" y1="131" x2="27" y2="130" style="stroke: black; stroke-width: 1" />
 <line x1="27" y1="130" x2="25" y2="128" style="stroke: black; stroke-width: 1" />
 <line x1="25" y1="128" x2="23" y2="127" style="stroke: black; stroke-width: 1" />
 <line x1="23" y1="127" x2="22" y2="125" style="stroke: black; stroke-width: 1" />
 <line x1="22" y1="125" x2="21" y2="121" style="stroke: black; stroke-width: 1" />
 <line x1="21" y1="121" x2="20" y2="118" style="stroke: black; stroke-width: 1" />
 <line x1="20" y1="118" x2="20" y2="115" style="stroke: black; stroke-width: 1" />
 <line x1="0" y1="173" x2="38" y2="173" style="stroke: black; stroke-width: 1" />
 <line x1="0" y1="156" x2="38" y2="156" style="stroke: black; stroke-width: 1" />
 <line x1="0" y1="140" x2="38" y2="140" style="stroke: black; stroke-width: 1" />
 <line x1="0" y1="123" x2="38" y2="123" style="stroke: black; stroke-width: 1" />
 <line x1="0" y1="106" x2="38" y2="106" style="stroke: black; stroke-width: 1" />
 <line x1="0" y1="90" x2="38" y2="90" style="stroke: black; stroke-width: 1" />
 <line x1="0" y1="73" x2="38" y2="73" style="stroke: black; stroke-width: 1" />
</svg>
