<!DOCTYPE svg PUBLIC "-//W3C//DTD SVG 1.1//EN" "http://www.w3.org/Graphics/SVG/1.1/DTD/svg11.dtd">
<svg width="3001" height="7001" xmlns="http://www.w3.org/2000/svg">
 <line x1="0" y1="23" x2="0" y2="3" style="stroke: black; stroke-width: 1" />
 <line x1="10" y1="26" x2="10" y2="6" style="stroke: black; stroke-width: 1" />
 <line x1="0" y1="23" x2="10" y2="20" style="stroke: black; stroke-width: 1" />
 <line x1="0" y1="20" x2="10" y2="16" style="stroke: black; stroke-width: 1" />
 <line x1="0" y1="13" x2="10" y2="10" style="stroke: black; stroke-width: 1" />
 <line x1="0" y1="10" x2="10" y2="6" style="stroke: black; stroke-width: 1" />
 <line x1="0" y1="23" x2="0" y2="3" style="stroke: black; stroke-width: 1" />
 <line x1="9" y1="26" x2="9" y2="6" style="stroke: black; stroke-width: 1" />
 <line x1="0" y1="23" x2="0" y2="3" style="stroke: black; stroke-width: 1" />
 <line x1="9" y1="26" x2="9" y2="6" style="stroke: black; stroke-width: 1" />
 <line x1="0" y1="140" x2="9" y2="140" style="stroke: black; stroke-width: 1" />
 <line x1="0" y1="123" x2="9" y2="123" style="stroke: black; stroke-width: 1" />
 <line x1="0" y1="106" x2="9" y2="106" style="stroke: black; stroke-width: 1" />
 <line x1="0" y1="90" x2="9" y2="90" style="stroke: black; stroke-width: 1" />
 <line x1="0" y1="73" x2="9" y2="73" style="stroke: black; stroke-width: 1" />
</svg>
