<!DOCTYPE svg PUBLIC "-//W3C//DTD SVG 1.1//EN" "http://www.w3.org/Graphics/SVG/1.1/DTD/svg11.dtd">
<svg width="4656" height="7049" xmlns="http://www.w3.org/2000/svg">
 <line x1="0" y1="95" x2="0" y2="94" style="stroke: black; stroke-width: 1" />
 <line x1="0" y1="94" x2="0" y2="93" style="stroke: black; stroke-width: 1" />
 <line x1="0" y1="93" x2="0" y2="93" style="stroke: black; stroke-width: 1" />
 <line x1="0" y1="93" x2="0" y2="92" style="stroke: black; stroke-width: 1" />
 <line x1="0" y1="92" x2="1" y2="92" style="stroke: black; stroke-width: 1" />
 <line x1="1" y1="92" x2="1" y2="92" style="stroke: black; stroke-width: 1" />
 <line x1="1" y1="92" x2="2" y2="91" style="stroke: black; stroke-width: 1" />
 <line x1="2" y1="91" x2="3" y2="91" style="stroke: black; stroke-width: 1" />
 <line x1="3" y1="91" x2="3" y2="91" style="stroke: black; stroke-width: 1" />
 <line x1="3" y1="91" x2="4" y2="91" style="stroke: black; stroke-width: 1" />
 <line x1="4" y1="91" x2="5" y2="91" style="stroke: black; stroke-width: 1" />
 <line x1="5" y1="91" x2="5" y2="92" style="stroke: black; stroke-width: 1" />
 <line x1="5" y1="92" x2="6" y2="92" style="stroke: black; stroke-width: 1" />
 <line x1="6" y1="92" x2="6" y2="92" style="stroke: black; stroke-width: 1" />
 <line x1="6" y1="92" x2="6" y2="93" style="stroke: black; stroke-width: 1" />
 <line x1="6" y1="93" x2="7" y2="93" style="stroke: black; stroke-width: 1" />
 <line x1="7" y1="93" x2="7" y2="94" style="stroke: black; stroke-width: 1" />
 <line x1="7" y1="94" x2="7" y2="95" style="stroke: black; stroke-width: 1" />
 <line x1="7" y1="95" x2="7" y2="95" style="stroke: black; stroke-width: 1" />
 <line x1="7" y1="95" x2="7" y2="96" style="stroke: black; stroke-width: 1" />
 <line x1="7" y1="96" x2="6" y2="97" style="stroke: black; stroke-width: 1" />
 <line x1="6" y1="97" x2="6" y2="97" style="stroke: black; stroke-width: 1" />
 <line x1="6" y1="97" x2="6" y2="98" style="stroke: black; stroke-width: 1" />
 <line x1="6" y1="98" x2="5" y2="98" style="stroke: black; stroke-width: 1" />
 <line x1="5" y1="98" x2="5" y2="98" style="stroke: black; stroke-width: 1" />
 <line x1="5" y1="98" x2="4" y2="98" style="stroke: black; stroke-width: 1" />
 <line x1="4" y1="98" x2="3" y2="99" style="stroke: black; stroke-width: 1" />
 <line x1="3" y1="99" x2="3" y2="98" style="stroke: black; stroke-width: 1" />
 <line x1="3" y1="98" x2="2" y2="98" style="stroke: black; stroke-width: 1" />
 <line x1="2" y1="98" x2="1" y2="98" style="stroke: black; stroke-width: 1" />
 <line x1="1" y1="98" x2="1" y2="98" style="stroke: black; stroke-width: 1" />
 <line x1="1" y1="98" x2="0" y2="97" style="stroke: black; stroke-width: 1" />
 <line x1="0" y1="97" x2="0" y2="97" style="stroke: black; stroke-width: 1" />
 <line x1="0" y1="97" x2="0" y2="96" style="stroke: black; stroke-width: 1" />
 <line x1="0" y1="96" x2="0" y2="95" style="stroke: black; stroke-width: 1" />
 <line x1="0" y1="95" x2="0" y2="95" style="stroke: black; stroke-width: 1" />
 <line x1="5" y1="98" x2="5" y2="98" style="stroke: black; stroke-width: 1" />
 <line x1="5" y1="98" x2="6" y2="98" style="stroke: black; stroke-width: 1" />
 <line x1="6" y1="98" x2="8" y2="97" style="stroke: black; stroke-width: 1" />
 <line x1="8" y1="97" x2="9" y2="96" style="stroke: black; stroke-width: 1" />
 <line x1="9" y1="96" x2="11" y2="95" style="stroke: black; stroke-width: 1" />
 <line x1="11" y1="95" x2="12" y2="94" style="stroke: black; stroke-width: 1" />
 <line x1="12" y1="94" x2="13" y2="92" style="stroke: black; stroke-width: 1" />
 <line x1="13" y1="92" x2="14" y2="91" style="stroke: black; stroke-width: 1" />
 <line x1="14" y1="91" x2="15" y2="90" style="stroke: black; stroke-width: 1" />
 <line x1="15" y1="90" x2="6" y2="113" style="stroke: black; stroke-width: 1" />
 <line x1="15" y1="90" x2="6" y2="113" style="stroke: black; stroke-width: 1" />
 <line x1="15" y1="90" x2="6" y2="113" style="stroke: black; stroke-width: 1" />
 <line x1="0" y1="140" x2="15" y2="140" style="stroke: black; stroke-width: 1" />
 <line x1="0" y1="123" x2="15" y2="123" style="stroke: black; stroke-width: 1" />
 <line x1="0" y1="106" x2="15" y2="106" style="stroke: black; stroke-width: 1" />
 <line x1="0" y1="90" x2="15" y2="90" style="stroke: black; stroke-width: 1" />
 <line x1="0" y1="73" x2="15" y2="73" style="stroke: black; stroke-width: 1" />
</svg>
