<!DOCTYPE svg PUBLIC "-//W3C//DTD SVG 1.1//EN" "http://www.w3.org/Graphics/SVG/1.1/DTD/svg11.dtd">
<svg width="11786" height="60001" xmlns="http://www.w3.org/2000/svg">
 <line x1="1" y1="56" x2="1" y2="90" style="stroke: black; stroke-width: 1" />
 <line x1="1" y1="90" x2="4" y2="88" style="stroke: black; stroke-width: 1" />
 <line x1="4" y1="88" x2="7" y2="87" style="stroke: black; stroke-width: 1" />
 <line x1="7" y1="87" x2="11" y2="86" style="stroke: black; stroke-width: 1" />
 <line x1="11" y1="86" x2="14" y2="84" style="stroke: black; stroke-width: 1" />
 <line x1="14" y1="84" x2="16" y2="82" style="stroke: black; stroke-width: 1" />
 <line x1="16" y1="82" x2="17" y2="80" style="stroke: black; stroke-width: 1" />
 <line x1="17" y1="80" x2="17" y2="78" style="stroke: black; stroke-width: 1" />
 <line x1="17" y1="78" x2="16" y2="76" style="stroke: black; stroke-width: 1" />
 <line x1="16" y1="76" x2="14" y2="73" style="stroke: black; stroke-width: 1" />
 <line x1="14" y1="73" x2="11" y2="73" style="stroke: black; stroke-width: 1" />
 <line x1="11" y1="73" x2="7" y2="73" style="stroke: black; stroke-width: 1" />
 <line x1="7" y1="73" x2="4" y2="74" style="stroke: black; stroke-width: 1" />
 <line x1="4" y1="74" x2="1" y2="76" style="stroke: black; stroke-width: 1" />
 <line x1="4" y1="88" x2="7" y2="86" style="stroke: black; stroke-width: 1" />
 <line x1="7" y1="86" x2="11" y2="83" style="stroke: black; stroke-width: 1" />
 <line x1="11" y1="83" x2="12" y2="80" style="stroke: black; stroke-width: 1" />
 <line x1="12" y1="80" x2="12" y2="76" style="stroke: black; stroke-width: 1" />
 <line x1="12" y1="76" x2="11" y2="75" style="stroke: black; stroke-width: 1" />
 <line x1="11" y1="75" x2="11" y2="73" style="stroke: black; stroke-width: 1" />
 <line x1="11" y1="73" x2="7" y2="73" style="stroke: black; stroke-width: 1" />
 <line x1="19" y1="86" x2="18" y2="85" style="stroke: black; stroke-width: 1" />
 <line x1="18" y1="85" x2="18" y2="84" style="stroke: black; stroke-width: 1" />
 <line x1="18" y1="84" x2="18" y2="82" style="stroke: black; stroke-width: 1" />
 <line x1="18" y1="82" x2="19" y2="81" style="stroke: black; stroke-width: 1" />
 <line x1="19" y1="81" x2="19" y2="80" style="stroke: black; stroke-width: 1" />
 <line x1="19" y1="80" x2="20" y2="78" style="stroke: black; stroke-width: 1" />
 <line x1="20" y1="78" x2="21" y2="77" style="stroke: black; stroke-width: 1" />
 <line x1="21" y1="77" x2="23" y2="76" style="stroke: black; stroke-width: 1" />
 <line x1="23" y1="76" x2="24" y2="75" style="stroke: black; stroke-width: 1" />
 <line x1="24" y1="75" x2="26" y2="74" style="stroke: black; stroke-width: 1" />
 <line x1="26" y1="74" x2="28" y2="73" style="stroke: black; stroke-width: 1" />
 <line x1="28" y1="73" x2="29" y2="73" style="stroke: black; stroke-width: 1" />
 <line x1="29" y1="73" x2="31" y2="73" style="stroke: black; stroke-width: 1" />
 <line x1="31" y1="73" x2="33" y2="73" style="stroke: black; stroke-width: 1" />
 <line x1="33" y1="73" x2="34" y2="73" style="stroke: black; stroke-width: 1" />
 <line x1="34" y1="73" x2="35" y2="74" style="stroke: black; stroke-width: 1" />
 <line x1="35" y1="74" x2="36" y2="75" style="stroke: black; stroke-width: 1" />
 <line x1="36" y1="75" x2="37" y2="76" style="stroke: black; stroke-width: 1" />
 <line x1="37" y1="76" x2="38" y2="77" style="stroke: black; stroke-width: 1" />
 <line x1="38" y1="77" x2="38" y2="78" style="stroke: black; stroke-width: 1" />
 <line x1="38" y1="78" x2="38" y2="80" style="stroke: black; stroke-width: 1" />
 <line x1="38" y1="80" x2="37" y2="81" style="stroke: black; stroke-width: 1" />
 <line x1="37" y1="81" x2="37" y2="83" style="stroke: black; stroke-width: 1" />
 <line x1="37" y1="83" x2="36" y2="84" style="stroke: black; stroke-width: 1" />
 <line x1="36" y1="84" x2="35" y2="85" style="stroke: black; stroke-width: 1" />
 <line x1="35" y1="85" x2="33" y2="87" style="stroke: black; stroke-width: 1" />
 <line x1="33" y1="87" x2="32" y2="88" style="stroke: black; stroke-width: 1" />
 <line x1="32" y1="88" x2="30" y2="88" style="stroke: black; stroke-width: 1" />
 <line x1="30" y1="88" x2="28" y2="89" style="stroke: black; stroke-width: 1" />
 <line x1="28" y1="89" x2="27" y2="89" style="stroke: black; stroke-width: 1" />
 <line x1="27" y1="89" x2="25" y2="90" style="stroke: black; stroke-width: 1" />
 <line x1="25" y1="90" x2="23" y2="89" style="stroke: black; stroke-width: 1" />
 <line x1="23" y1="89" x2="22" y2="89" style="stroke: black; stroke-width: 1" />
 <line x1="22" y1="89" x2="21" y2="88" style="stroke: black; stroke-width: 1" />
 <line x1="21" y1="88" x2="20" y2="87" style="stroke: black; stroke-width: 1" />
 <line x1="20" y1="87" x2="19" y2="86" style="stroke: black; stroke-width: 1" />
 <line x1="20" y1="86" x2="20" y2="85" style="stroke: black; stroke-width: 1" />
 <line x1="20" y1="85" x2="19" y2="84" style="stroke: black; stroke-width: 1" />
 <line x1="19" y1="84" x2="20" y2="83" style="stroke: black; stroke-width: 1" />
 <line x1="20" y1="83" x2="20" y2="82" style="stroke: black; stroke-width: 1" />
 <line x1="20" y1="82" x2="21" y2="81" style="stroke: black; stroke-width: 1" />
 <line x1="21" y1="81" x2="22" y2="80" style="stroke: black; stroke-width: 1" />
 <line x1="22" y1="80" x2="23" y2="79" style="stroke: black; stroke-width: 1" />
 <line x1="23" y1="79" x2="24" y2="78" style="stroke: black; stroke-width: 1" />
 <line x1="24" y1="78" x2="25" y2="77" style="stroke: black; stroke-width: 1" />
 <line x1="25" y1="77" x2="27" y2="76" style="stroke: black; stroke-width: 1" />
 <line x1="27" y1="76" x2="28" y2="76" style="stroke: black; stroke-width: 1" />
 <line x1="28" y1="76" x2="30" y2="75" style="stroke: black; stroke-width: 1" />
 <line x1="30" y1="75" x2="31" y2="75" style="stroke: black; stroke-width: 1" />
 <line x1="31" y1="75" x2="33" y2="75" style="stroke: black; stroke-width: 1" />
 <line x1="33" y1="75" x2="34" y2="75" style="stroke: black; stroke-width: 1" />
 <line x1="34" y1="75" x2="35" y2="75" style="stroke: black; stroke-width: 1" />
 <line x1="35" y1="75" x2="36" y2="76" style="stroke: black; stroke-width: 1" />
 <line x1="36" y1="76" x2="36" y2="76" style="stroke: black; stroke-width: 1" />
 <line x1="36" y1="76" x2="36" y2="77" style="stroke: black; stroke-width: 1" />
 <line x1="36" y1="77" x2="36" y2="78" style="stroke: black; stroke-width: 1" />
 <line x1="36" y1="78" x2="36" y2="79" style="stroke: black; stroke-width: 1" />
 <line x1="36" y1="79" x2="36" y2="80" style="stroke: black; stroke-width: 1" />
 <line x1="36" y1="80" x2="35" y2="81" style="stroke: black; stroke-width: 1" />
 <line x1="35" y1="81" x2="34" y2="83" style="stroke: black; stroke-width: 1" />
 <line x1="34" y1="83" x2="33" y2="84" style="stroke: black; stroke-width: 1" />
 <line x1="33" y1="84" x2="32" y2="85" style="stroke: black; stroke-width: 1" />
 <line x1="32" y1="85" x2="30" y2="85" style="stroke: black; stroke-width: 1" />
 <line x1="30" y1="85" x2="29" y2="86" style="stroke: black; stroke-width: 1" />
 <line x1="29" y1="86" x2="28" y2="87" style="stroke: black; stroke-width: 1" />
 <line x1="28" y1="87" x2="26" y2="87" style="stroke: black; stroke-width: 1" />
 <line x1="26" y1="87" x2="25" y2="87" style="stroke: black; stroke-width: 1" />
 <line x1="25" y1="87" x2="23" y2="88" style="stroke: black; stroke-width: 1" />
 <line x1="23" y1="88" x2="22" y2="87" style="stroke: black; stroke-width: 1" />
 <line x1="22" y1="87" x2="21" y2="87" style="stroke: black; stroke-width: 1" />
 <line x1="21" y1="87" x2="20" y2="87" style="stroke: black; stroke-width: 1" />
 <line x1="20" y1="87" x2="20" y2="86" style="stroke: black; stroke-width: 1" />
 <line x1="18" y1="85" x2="18" y2="144" style="stroke: black; stroke-width: 1" />
 <line x1="0" y1="140" x2="39" y2="140" style="stroke: black; stroke-width: 1" />
 <line x1="0" y1="123" x2="39" y2="123" style="stroke: black; stroke-width: 1" />
 <line x1="0" y1="106" x2="39" y2="106" style="stroke: black; stroke-width: 1" />
 <line x1="0" y1="90" x2="39" y2="90" style="stroke: black; stroke-width: 1" />
 <line x1="0" y1="73" x2="39" y2="73" style="stroke: black; stroke-width: 1" />
</svg>
