<!DOCTYPE svg PUBLIC "-//W3C//DTD SVG 1.1//EN" "http://www.w3.org/Graphics/SVG/1.1/DTD/svg11.dtd">
<svg width="11786" height="60001" xmlns="http://www.w3.org/2000/svg">
 <line x1="1" y1="111" x2="17" y2="105" style="stroke: black; stroke-width: 1" />
 <line x1="17" y1="105" x2="17" y2="101" style="stroke: black; stroke-width: 1" />
 <line x1="17" y1="101" x2="1" y2="108" style="stroke: black; stroke-width: 1" />
 <line x1="1" y1="108" x2="1" y2="111" style="stroke: black; stroke-width: 1" />
 <line x1="1" y1="101" x2="17" y2="95" style="stroke: black; stroke-width: 1" />
 <line x1="17" y1="95" x2="17" y2="91" style="stroke: black; stroke-width: 1" />
 <line x1="17" y1="91" x2="1" y2="98" style="stroke: black; stroke-width: 1" />
 <line x1="1" y1="98" x2="1" y2="101" style="stroke: black; stroke-width: 1" />
 <line x1="4" y1="115" x2="4" y2="91" style="stroke: black; stroke-width: 1" />
 <line x1="14" y1="111" x2="14" y2="88" style="stroke: black; stroke-width: 1" />
 <line x1="4" y1="115" x2="4" y2="91" style="stroke: black; stroke-width: 1" />
 <line x1="14" y1="111" x2="14" y2="88" style="stroke: black; stroke-width: 1" />
 <line x1="4" y1="115" x2="4" y2="91" style="stroke: black; stroke-width: 1" />
 <line x1="14" y1="111" x2="14" y2="88" style="stroke: black; stroke-width: 1" />
 <line x1="19" y1="103" x2="18" y2="102" style="stroke: black; stroke-width: 1" />
 <line x1="18" y1="102" x2="18" y2="101" style="stroke: black; stroke-width: 1" />
 <line x1="18" y1="101" x2="18" y2="99" style="stroke: black; stroke-width: 1" />
 <line x1="18" y1="99" x2="19" y2="98" style="stroke: black; stroke-width: 1" />
 <line x1="19" y1="98" x2="19" y2="96" style="stroke: black; stroke-width: 1" />
 <line x1="19" y1="96" x2="20" y2="95" style="stroke: black; stroke-width: 1" />
 <line x1="20" y1="95" x2="21" y2="94" style="stroke: black; stroke-width: 1" />
 <line x1="21" y1="94" x2="23" y2="92" style="stroke: black; stroke-width: 1" />
 <line x1="23" y1="92" x2="24" y2="91" style="stroke: black; stroke-width: 1" />
 <line x1="24" y1="91" x2="26" y2="91" style="stroke: black; stroke-width: 1" />
 <line x1="26" y1="91" x2="28" y2="90" style="stroke: black; stroke-width: 1" />
 <line x1="28" y1="90" x2="29" y2="90" style="stroke: black; stroke-width: 1" />
 <line x1="29" y1="90" x2="31" y2="90" style="stroke: black; stroke-width: 1" />
 <line x1="31" y1="90" x2="33" y2="90" style="stroke: black; stroke-width: 1" />
 <line x1="33" y1="90" x2="34" y2="90" style="stroke: black; stroke-width: 1" />
 <line x1="34" y1="90" x2="35" y2="91" style="stroke: black; stroke-width: 1" />
 <line x1="35" y1="91" x2="36" y2="92" style="stroke: black; stroke-width: 1" />
 <line x1="36" y1="92" x2="37" y2="93" style="stroke: black; stroke-width: 1" />
 <line x1="37" y1="93" x2="38" y2="94" style="stroke: black; stroke-width: 1" />
 <line x1="38" y1="94" x2="38" y2="95" style="stroke: black; stroke-width: 1" />
 <line x1="38" y1="95" x2="38" y2="97" style="stroke: black; stroke-width: 1" />
 <line x1="38" y1="97" x2="37" y2="98" style="stroke: black; stroke-width: 1" />
 <line x1="37" y1="98" x2="37" y2="99" style="stroke: black; stroke-width: 1" />
 <line x1="37" y1="99" x2="36" y2="101" style="stroke: black; stroke-width: 1" />
 <line x1="36" y1="101" x2="35" y2="102" style="stroke: black; stroke-width: 1" />
 <line x1="35" y1="102" x2="33" y2="103" style="stroke: black; stroke-width: 1" />
 <line x1="33" y1="103" x2="32" y2="104" style="stroke: black; stroke-width: 1" />
 <line x1="32" y1="104" x2="30" y2="105" style="stroke: black; stroke-width: 1" />
 <line x1="30" y1="105" x2="28" y2="106" style="stroke: black; stroke-width: 1" />
 <line x1="28" y1="106" x2="27" y2="106" style="stroke: black; stroke-width: 1" />
 <line x1="27" y1="106" x2="25" y2="106" style="stroke: black; stroke-width: 1" />
 <line x1="25" y1="106" x2="23" y2="106" style="stroke: black; stroke-width: 1" />
 <line x1="23" y1="106" x2="22" y2="106" style="stroke: black; stroke-width: 1" />
 <line x1="22" y1="106" x2="21" y2="105" style="stroke: black; stroke-width: 1" />
 <line x1="21" y1="105" x2="20" y2="104" style="stroke: black; stroke-width: 1" />
 <line x1="20" y1="104" x2="19" y2="103" style="stroke: black; stroke-width: 1" />
 <line x1="20" y1="103" x2="20" y2="102" style="stroke: black; stroke-width: 1" />
 <line x1="20" y1="102" x2="19" y2="101" style="stroke: black; stroke-width: 1" />
 <line x1="19" y1="101" x2="20" y2="100" style="stroke: black; stroke-width: 1" />
 <line x1="20" y1="100" x2="20" y2="99" style="stroke: black; stroke-width: 1" />
 <line x1="20" y1="99" x2="21" y2="98" style="stroke: black; stroke-width: 1" />
 <line x1="21" y1="98" x2="22" y2="96" style="stroke: black; stroke-width: 1" />
 <line x1="22" y1="96" x2="23" y2="95" style="stroke: black; stroke-width: 1" />
 <line x1="23" y1="95" x2="24" y2="94" style="stroke: black; stroke-width: 1" />
 <line x1="24" y1="94" x2="25" y2="94" style="stroke: black; stroke-width: 1" />
 <line x1="25" y1="94" x2="27" y2="93" style="stroke: black; stroke-width: 1" />
 <line x1="27" y1="93" x2="28" y2="92" style="stroke: black; stroke-width: 1" />
 <line x1="28" y1="92" x2="30" y2="92" style="stroke: black; stroke-width: 1" />
 <line x1="30" y1="92" x2="31" y2="92" style="stroke: black; stroke-width: 1" />
 <line x1="31" y1="92" x2="33" y2="91" style="stroke: black; stroke-width: 1" />
 <line x1="33" y1="91" x2="34" y2="92" style="stroke: black; stroke-width: 1" />
 <line x1="34" y1="92" x2="35" y2="92" style="stroke: black; stroke-width: 1" />
 <line x1="35" y1="92" x2="36" y2="92" style="stroke: black; stroke-width: 1" />
 <line x1="36" y1="92" x2="36" y2="93" style="stroke: black; stroke-width: 1" />
 <line x1="36" y1="93" x2="36" y2="94" style="stroke: black; stroke-width: 1" />
 <line x1="36" y1="94" x2="36" y2="95" style="stroke: black; stroke-width: 1" />
 <line x1="36" y1="95" x2="36" y2="96" style="stroke: black; stroke-width: 1" />
 <line x1="36" y1="96" x2="36" y2="97" style="stroke: black; stroke-width: 1" />
 <line x1="36" y1="97" x2="35" y2="98" style="stroke: black; stroke-width: 1" />
 <line x1="35" y1="98" x2="34" y2="99" style="stroke: black; stroke-width: 1" />
 <line x1="34" y1="99" x2="33" y2="100" style="stroke: black; stroke-width: 1" />
 <line x1="33" y1="100" x2="32" y2="101" style="stroke: black; stroke-width: 1" />
 <line x1="32" y1="101" x2="30" y2="102" style="stroke: black; stroke-width: 1" />
 <line x1="30" y1="102" x2="29" y2="103" style="stroke: black; stroke-width: 1" />
 <line x1="29" y1="103" x2="28" y2="103" style="stroke: black; stroke-width: 1" />
 <line x1="28" y1="103" x2="26" y2="104" style="stroke: black; stroke-width: 1" />
 <line x1="26" y1="104" x2="25" y2="104" style="stroke: black; stroke-width: 1" />
 <line x1="25" y1="104" x2="23" y2="104" style="stroke: black; stroke-width: 1" />
 <line x1="23" y1="104" x2="22" y2="104" style="stroke: black; stroke-width: 1" />
 <line x1="22" y1="104" x2="21" y2="104" style="stroke: black; stroke-width: 1" />
 <line x1="21" y1="104" x2="20" y2="103" style="stroke: black; stroke-width: 1" />
 <line x1="20" y1="103" x2="20" y2="103" style="stroke: black; stroke-width: 1" />
 <line x1="18" y1="102" x2="18" y2="160" style="stroke: black; stroke-width: 1" />
 <line x1="0" y1="140" x2="39" y2="140" style="stroke: black; stroke-width: 1" />
 <line x1="0" y1="123" x2="39" y2="123" style="stroke: black; stroke-width: 1" />
 <line x1="0" y1="106" x2="39" y2="106" style="stroke: black; stroke-width: 1" />
 <line x1="0" y1="90" x2="39" y2="90" style="stroke: black; stroke-width: 1" />
 <line x1="0" y1="73" x2="39" y2="73" style="stroke: black; stroke-width: 1" />
</svg>
