<!DOCTYPE svg PUBLIC "-//W3C//DTD SVG 1.1//EN" "http://www.w3.org/Graphics/SVG/1.1/DTD/svg11.dtd">
<svg width="6486" height="60001" xmlns="http://www.w3.org/2000/svg">
 <line x1="1" y1="28" x2="1" y2="27" style="stroke: black; stroke-width: 1" />
 <line x1="1" y1="27" x2="1" y2="26" style="stroke: black; stroke-width: 1" />
 <line x1="1" y1="26" x2="1" y2="24" style="stroke: black; stroke-width: 1" />
 <line x1="1" y1="24" x2="1" y2="23" style="stroke: black; stroke-width: 1" />
 <line x1="1" y1="23" x2="2" y2="21" style="stroke: black; stroke-width: 1" />
 <line x1="2" y1="21" x2="3" y2="20" style="stroke: black; stroke-width: 1" />
 <line x1="3" y1="20" x2="4" y2="19" style="stroke: black; stroke-width: 1" />
 <line x1="4" y1="19" x2="5" y2="17" style="stroke: black; stroke-width: 1" />
 <line x1="5" y1="17" x2="7" y2="16" style="stroke: black; stroke-width: 1" />
 <line x1="7" y1="16" x2="8" y2="16" style="stroke: black; stroke-width: 1" />
 <line x1="8" y1="16" x2="10" y2="15" style="stroke: black; stroke-width: 1" />
 <line x1="10" y1="15" x2="12" y2="15" style="stroke: black; stroke-width: 1" />
 <line x1="12" y1="15" x2="13" y2="15" style="stroke: black; stroke-width: 1" />
 <line x1="13" y1="15" x2="15" y2="15" style="stroke: black; stroke-width: 1" />
 <line x1="15" y1="15" x2="16" y2="15" style="stroke: black; stroke-width: 1" />
 <line x1="16" y1="15" x2="18" y2="16" style="stroke: black; stroke-width: 1" />
 <line x1="18" y1="16" x2="19" y2="17" style="stroke: black; stroke-width: 1" />
 <line x1="19" y1="17" x2="19" y2="18" style="stroke: black; stroke-width: 1" />
 <line x1="19" y1="18" x2="20" y2="19" style="stroke: black; stroke-width: 1" />
 <line x1="20" y1="19" x2="20" y2="20" style="stroke: black; stroke-width: 1" />
 <line x1="20" y1="20" x2="20" y2="22" style="stroke: black; stroke-width: 1" />
 <line x1="20" y1="22" x2="20" y2="23" style="stroke: black; stroke-width: 1" />
 <line x1="20" y1="23" x2="19" y2="24" style="stroke: black; stroke-width: 1" />
 <line x1="19" y1="24" x2="18" y2="26" style="stroke: black; stroke-width: 1" />
 <line x1="18" y1="26" x2="17" y2="27" style="stroke: black; stroke-width: 1" />
 <line x1="17" y1="27" x2="16" y2="28" style="stroke: black; stroke-width: 1" />
 <line x1="16" y1="28" x2="14" y2="29" style="stroke: black; stroke-width: 1" />
 <line x1="14" y1="29" x2="12" y2="30" style="stroke: black; stroke-width: 1" />
 <line x1="12" y1="30" x2="11" y2="31" style="stroke: black; stroke-width: 1" />
 <line x1="11" y1="31" x2="9" y2="31" style="stroke: black; stroke-width: 1" />
 <line x1="9" y1="31" x2="7" y2="31" style="stroke: black; stroke-width: 1" />
 <line x1="7" y1="31" x2="6" y2="31" style="stroke: black; stroke-width: 1" />
 <line x1="6" y1="31" x2="4" y2="31" style="stroke: black; stroke-width: 1" />
 <line x1="4" y1="31" x2="3" y2="30" style="stroke: black; stroke-width: 1" />
 <line x1="3" y1="30" x2="2" y2="29" style="stroke: black; stroke-width: 1" />
 <line x1="2" y1="29" x2="1" y2="28" style="stroke: black; stroke-width: 1" />
 <line x1="2" y1="28" x2="2" y2="27" style="stroke: black; stroke-width: 1" />
 <line x1="2" y1="27" x2="2" y2="26" style="stroke: black; stroke-width: 1" />
 <line x1="2" y1="26" x2="2" y2="25" style="stroke: black; stroke-width: 1" />
 <line x1="2" y1="25" x2="2" y2="24" style="stroke: black; stroke-width: 1" />
 <line x1="2" y1="24" x2="3" y2="23" style="stroke: black; stroke-width: 1" />
 <line x1="3" y1="23" x2="4" y2="21" style="stroke: black; stroke-width: 1" />
 <line x1="4" y1="21" x2="5" y2="20" style="stroke: black; stroke-width: 1" />
 <line x1="5" y1="20" x2="6" y2="19" style="stroke: black; stroke-width: 1" />
 <line x1="6" y1="19" x2="8" y2="19" style="stroke: black; stroke-width: 1" />
 <line x1="8" y1="19" x2="9" y2="18" style="stroke: black; stroke-width: 1" />
 <line x1="9" y1="18" x2="11" y2="17" style="stroke: black; stroke-width: 1" />
 <line x1="11" y1="17" x2="12" y2="17" style="stroke: black; stroke-width: 1" />
 <line x1="12" y1="17" x2="14" y2="17" style="stroke: black; stroke-width: 1" />
 <line x1="14" y1="17" x2="15" y2="16" style="stroke: black; stroke-width: 1" />
 <line x1="15" y1="16" x2="16" y2="17" style="stroke: black; stroke-width: 1" />
 <line x1="16" y1="17" x2="17" y2="17" style="stroke: black; stroke-width: 1" />
 <line x1="17" y1="17" x2="18" y2="17" style="stroke: black; stroke-width: 1" />
 <line x1="18" y1="17" x2="18" y2="18" style="stroke: black; stroke-width: 1" />
 <line x1="18" y1="18" x2="19" y2="19" style="stroke: black; stroke-width: 1" />
 <line x1="19" y1="19" x2="19" y2="20" style="stroke: black; stroke-width: 1" />
 <line x1="19" y1="20" x2="19" y2="21" style="stroke: black; stroke-width: 1" />
 <line x1="19" y1="21" x2="18" y2="22" style="stroke: black; stroke-width: 1" />
 <line x1="18" y1="22" x2="17" y2="23" style="stroke: black; stroke-width: 1" />
 <line x1="17" y1="23" x2="17" y2="24" style="stroke: black; stroke-width: 1" />
 <line x1="17" y1="24" x2="15" y2="25" style="stroke: black; stroke-width: 1" />
 <line x1="15" y1="25" x2="14" y2="26" style="stroke: black; stroke-width: 1" />
 <line x1="14" y1="26" x2="13" y2="27" style="stroke: black; stroke-width: 1" />
 <line x1="13" y1="27" x2="11" y2="28" style="stroke: black; stroke-width: 1" />
 <line x1="11" y1="28" x2="10" y2="28" style="stroke: black; stroke-width: 1" />
 <line x1="10" y1="28" x2="8" y2="29" style="stroke: black; stroke-width: 1" />
 <line x1="8" y1="29" x2="7" y2="29" style="stroke: black; stroke-width: 1" />
 <line x1="7" y1="29" x2="6" y2="29" style="stroke: black; stroke-width: 1" />
 <line x1="6" y1="29" x2="4" y2="29" style="stroke: black; stroke-width: 1" />
 <line x1="4" y1="29" x2="3" y2="29" style="stroke: black; stroke-width: 1" />
 <line x1="3" y1="29" x2="3" y2="28" style="stroke: black; stroke-width: 1" />
 <line x1="3" y1="28" x2="2" y2="28" style="stroke: black; stroke-width: 1" />
 <line x1="1" y1="27" x2="1" y2="85" style="stroke: black; stroke-width: 1" />
 <line x1="0" y1="140" x2="21" y2="140" style="stroke: black; stroke-width: 1" />
 <line x1="0" y1="123" x2="21" y2="123" style="stroke: black; stroke-width: 1" />
 <line x1="0" y1="106" x2="21" y2="106" style="stroke: black; stroke-width: 1" />
 <line x1="0" y1="90" x2="21" y2="90" style="stroke: black; stroke-width: 1" />
 <line x1="0" y1="73" x2="21" y2="73" style="stroke: black; stroke-width: 1" />
 <line x1="0" y1="56" x2="21" y2="56" style="stroke: black; stroke-width: 1" />
 <line x1="0" y1="40" x2="21" y2="40" style="stroke: black; stroke-width: 1" />
 <line x1="0" y1="23" x2="21" y2="23" style="stroke: black; stroke-width: 1" />
</svg>
