<!DOCTYPE svg PUBLIC "-//W3C//DTD SVG 1.1//EN" "http://www.w3.org/Graphics/SVG/1.1/DTD/svg11.dtd">
<svg width="13001" height="15001" xmlns="http://www.w3.org/2000/svg">
 <line x1="0" y1="90" x2="0" y2="89" style="stroke: black; stroke-width: 1" />
 <line x1="0" y1="89" x2="0" y2="88" style="stroke: black; stroke-width: 1" />
 <line x1="0" y1="88" x2="0" y2="87" style="stroke: black; stroke-width: 1" />
 <line x1="0" y1="87" x2="1" y2="86" style="stroke: black; stroke-width: 1" />
 <line x1="1" y1="86" x2="1" y2="86" style="stroke: black; stroke-width: 1" />
 <line x1="1" y1="86" x2="2" y2="85" style="stroke: black; stroke-width: 1" />
 <line x1="2" y1="85" x2="3" y2="85" style="stroke: black; stroke-width: 1" />
 <line x1="3" y1="85" x2="4" y2="85" style="stroke: black; stroke-width: 1" />
 <line x1="4" y1="85" x2="5" y2="85" style="stroke: black; stroke-width: 1" />
 <line x1="5" y1="85" x2="5" y2="85" style="stroke: black; stroke-width: 1" />
 <line x1="5" y1="85" x2="6" y2="85" style="stroke: black; stroke-width: 1" />
 <line x1="6" y1="85" x2="7" y2="85" style="stroke: black; stroke-width: 1" />
 <line x1="7" y1="85" x2="8" y2="86" style="stroke: black; stroke-width: 1" />
 <line x1="8" y1="86" x2="8" y2="86" style="stroke: black; stroke-width: 1" />
 <line x1="8" y1="86" x2="9" y2="87" style="stroke: black; stroke-width: 1" />
 <line x1="9" y1="87" x2="9" y2="88" style="stroke: black; stroke-width: 1" />
 <line x1="9" y1="88" x2="9" y2="89" style="stroke: black; stroke-width: 1" />
 <line x1="9" y1="89" x2="10" y2="90" style="stroke: black; stroke-width: 1" />
 <line x1="10" y1="90" x2="9" y2="90" style="stroke: black; stroke-width: 1" />
 <line x1="9" y1="90" x2="9" y2="91" style="stroke: black; stroke-width: 1" />
 <line x1="9" y1="91" x2="9" y2="92" style="stroke: black; stroke-width: 1" />
 <line x1="9" y1="92" x2="8" y2="93" style="stroke: black; stroke-width: 1" />
 <line x1="8" y1="93" x2="8" y2="93" style="stroke: black; stroke-width: 1" />
 <line x1="8" y1="93" x2="7" y2="94" style="stroke: black; stroke-width: 1" />
 <line x1="7" y1="94" x2="6" y2="94" style="stroke: black; stroke-width: 1" />
 <line x1="6" y1="94" x2="5" y2="94" style="stroke: black; stroke-width: 1" />
 <line x1="5" y1="94" x2="5" y2="95" style="stroke: black; stroke-width: 1" />
 <line x1="5" y1="95" x2="4" y2="94" style="stroke: black; stroke-width: 1" />
 <line x1="4" y1="94" x2="3" y2="94" style="stroke: black; stroke-width: 1" />
 <line x1="3" y1="94" x2="2" y2="94" style="stroke: black; stroke-width: 1" />
 <line x1="2" y1="94" x2="1" y2="93" style="stroke: black; stroke-width: 1" />
 <line x1="1" y1="93" x2="1" y2="93" style="stroke: black; stroke-width: 1" />
 <line x1="1" y1="93" x2="0" y2="92" style="stroke: black; stroke-width: 1" />
 <line x1="0" y1="92" x2="0" y2="91" style="stroke: black; stroke-width: 1" />
 <line x1="0" y1="91" x2="0" y2="90" style="stroke: black; stroke-width: 1" />
 <line x1="0" y1="90" x2="0" y2="90" style="stroke: black; stroke-width: 1" />
 <line x1="0" y1="90" x2="0" y2="86" style="stroke: black; stroke-width: 1" />
 <line x1="0" y1="86" x2="1" y2="83" style="stroke: black; stroke-width: 1" />
 <line x1="1" y1="83" x2="3" y2="80" style="stroke: black; stroke-width: 1" />
 <line x1="3" y1="80" x2="6" y2="76" style="stroke: black; stroke-width: 1" />
 <line x1="6" y1="76" x2="10" y2="74" style="stroke: black; stroke-width: 1" />
 <line x1="10" y1="74" x2="13" y2="73" style="stroke: black; stroke-width: 1" />
 <line x1="13" y1="73" x2="16" y2="73" style="stroke: black; stroke-width: 1" />
 <line x1="16" y1="73" x2="23" y2="73" style="stroke: black; stroke-width: 1" />
 <line x1="23" y1="73" x2="26" y2="74" style="stroke: black; stroke-width: 1" />
 <line x1="26" y1="74" x2="30" y2="76" style="stroke: black; stroke-width: 1" />
 <line x1="30" y1="76" x2="33" y2="80" style="stroke: black; stroke-width: 1" />
 <line x1="33" y1="80" x2="35" y2="83" style="stroke: black; stroke-width: 1" />
 <line x1="35" y1="83" x2="36" y2="86" style="stroke: black; stroke-width: 1" />
 <line x1="36" y1="86" x2="36" y2="96" style="stroke: black; stroke-width: 1" />
 <line x1="36" y1="96" x2="36" y2="100" style="stroke: black; stroke-width: 1" />
 <line x1="36" y1="100" x2="34" y2="103" style="stroke: black; stroke-width: 1" />
 <line x1="34" y1="103" x2="32" y2="106" style="stroke: black; stroke-width: 1" />
 <line x1="32" y1="106" x2="29" y2="110" style="stroke: black; stroke-width: 1" />
 <line x1="29" y1="110" x2="25" y2="113" style="stroke: black; stroke-width: 1" />
 <line x1="25" y1="113" x2="20" y2="116" style="stroke: black; stroke-width: 1" />
 <line x1="20" y1="116" x2="14" y2="120" style="stroke: black; stroke-width: 1" />
 <line x1="14" y1="120" x2="6" y2="123" style="stroke: black; stroke-width: 1" />
 <line x1="13" y1="73" x2="16" y2="74" style="stroke: black; stroke-width: 1" />
 <line x1="16" y1="74" x2="20" y2="74" style="stroke: black; stroke-width: 1" />
 <line x1="20" y1="74" x2="23" y2="76" style="stroke: black; stroke-width: 1" />
 <line x1="23" y1="76" x2="26" y2="79" style="stroke: black; stroke-width: 1" />
 <line x1="26" y1="79" x2="29" y2="83" style="stroke: black; stroke-width: 1" />
 <line x1="29" y1="83" x2="30" y2="86" style="stroke: black; stroke-width: 1" />
 <line x1="30" y1="86" x2="31" y2="90" style="stroke: black; stroke-width: 1" />
 <line x1="31" y1="90" x2="31" y2="93" style="stroke: black; stroke-width: 1" />
 <line x1="31" y1="93" x2="31" y2="96" style="stroke: black; stroke-width: 1" />
 <line x1="31" y1="96" x2="30" y2="100" style="stroke: black; stroke-width: 1" />
 <line x1="30" y1="100" x2="30" y2="103" style="stroke: black; stroke-width: 1" />
 <line x1="30" y1="103" x2="28" y2="106" style="stroke: black; stroke-width: 1" />
 <line x1="28" y1="106" x2="27" y2="110" style="stroke: black; stroke-width: 1" />
 <line x1="27" y1="110" x2="24" y2="113" style="stroke: black; stroke-width: 1" />
 <line x1="24" y1="113" x2="20" y2="116" style="stroke: black; stroke-width: 1" />
 <line x1="40" y1="85" x2="40" y2="84" style="stroke: black; stroke-width: 1" />
 <line x1="40" y1="84" x2="40" y2="84" style="stroke: black; stroke-width: 1" />
 <line x1="40" y1="84" x2="40" y2="84" style="stroke: black; stroke-width: 1" />
 <line x1="40" y1="84" x2="40" y2="83" style="stroke: black; stroke-width: 1" />
 <line x1="40" y1="83" x2="40" y2="83" style="stroke: black; stroke-width: 1" />
 <line x1="40" y1="83" x2="40" y2="83" style="stroke: black; stroke-width: 1" />
 <line x1="40" y1="83" x2="41" y2="83" style="stroke: black; stroke-width: 1" />
 <line x1="41" y1="83" x2="41" y2="83" style="stroke: black; stroke-width: 1" />
 <line x1="41" y1="83" x2="41" y2="83" style="stroke: black; stroke-width: 1" />
 <line x1="41" y1="83" x2="41" y2="83" style="stroke: black; stroke-width: 1" />
 <line x1="41" y1="83" x2="42" y2="83" style="stroke: black; stroke-width: 1" />
 <line x1="42" y1="83" x2="42" y2="83" style="stroke: black; stroke-width: 1" />
 <line x1="42" y1="83" x2="42" y2="83" style="stroke: black; stroke-width: 1" />
 <line x1="42" y1="83" x2="42" y2="83" style="stroke: black; stroke-width: 1" />
 <line x1="42" y1="83" x2="43" y2="84" style="stroke: black; stroke-width: 1" />
 <line x1="43" y1="84" x2="43" y2="84" style="stroke: black; stroke-width: 1" />
 <line x1="43" y1="84" x2="43" y2="84" style="stroke: black; stroke-width: 1" />
 <line x1="43" y1="84" x2="43" y2="85" style="stroke: black; stroke-width: 1" />
 <line x1="43" y1="85" x2="43" y2="85" style="stroke: black; stroke-width: 1" />
 <line x1="43" y1="85" x2="43" y2="85" style="stroke: black; stroke-width: 1" />
 <line x1="43" y1="85" x2="43" y2="85" style="stroke: black; stroke-width: 1" />
 <line x1="43" y1="85" x2="42" y2="86" style="stroke: black; stroke-width: 1" />
 <line x1="42" y1="86" x2="42" y2="86" style="stroke: black; stroke-width: 1" />
 <line x1="42" y1="86" x2="42" y2="86" style="stroke: black; stroke-width: 1" />
 <line x1="42" y1="86" x2="42" y2="86" style="stroke: black; stroke-width: 1" />
 <line x1="42" y1="86" x2="41" y2="86" style="stroke: black; stroke-width: 1" />
 <line x1="41" y1="86" x2="41" y2="86" style="stroke: black; stroke-width: 1" />
 <line x1="41" y1="86" x2="41" y2="86" style="stroke: black; stroke-width: 1" />
 <line x1="41" y1="86" x2="41" y2="86" style="stroke: black; stroke-width: 1" />
 <line x1="41" y1="86" x2="40" y2="86" style="stroke: black; stroke-width: 1" />
 <line x1="40" y1="86" x2="40" y2="86" style="stroke: black; stroke-width: 1" />
 <line x1="40" y1="86" x2="40" y2="86" style="stroke: black; stroke-width: 1" />
 <line x1="40" y1="86" x2="40" y2="85" style="stroke: black; stroke-width: 1" />
 <line x1="40" y1="85" x2="40" y2="85" style="stroke: black; stroke-width: 1" />
 <line x1="40" y1="85" x2="40" y2="85" style="stroke: black; stroke-width: 1" />
 <line x1="40" y1="85" x2="40" y2="85" style="stroke: black; stroke-width: 1" />
 <line x1="40" y1="95" x2="40" y2="95" style="stroke: black; stroke-width: 1" />
 <line x1="40" y1="95" x2="40" y2="94" style="stroke: black; stroke-width: 1" />
 <line x1="40" y1="94" x2="40" y2="94" style="stroke: black; stroke-width: 1" />
 <line x1="40" y1="94" x2="40" y2="94" style="stroke: black; stroke-width: 1" />
 <line x1="40" y1="94" x2="40" y2="94" style="stroke: black; stroke-width: 1" />
 <line x1="40" y1="94" x2="40" y2="93" style="stroke: black; stroke-width: 1" />
 <line x1="40" y1="93" x2="41" y2="93" style="stroke: black; stroke-width: 1" />
 <line x1="41" y1="93" x2="41" y2="93" style="stroke: black; stroke-width: 1" />
 <line x1="41" y1="93" x2="41" y2="93" style="stroke: black; stroke-width: 1" />
 <line x1="41" y1="93" x2="41" y2="93" style="stroke: black; stroke-width: 1" />
 <line x1="41" y1="93" x2="42" y2="93" style="stroke: black; stroke-width: 1" />
 <line x1="42" y1="93" x2="42" y2="93" style="stroke: black; stroke-width: 1" />
 <line x1="42" y1="93" x2="42" y2="94" style="stroke: black; stroke-width: 1" />
 <line x1="42" y1="94" x2="42" y2="94" style="stroke: black; stroke-width: 1" />
 <line x1="42" y1="94" x2="43" y2="94" style="stroke: black; stroke-width: 1" />
 <line x1="43" y1="94" x2="43" y2="94" style="stroke: black; stroke-width: 1" />
 <line x1="43" y1="94" x2="43" y2="95" style="stroke: black; stroke-width: 1" />
 <line x1="43" y1="95" x2="43" y2="95" style="stroke: black; stroke-width: 1" />
 <line x1="43" y1="95" x2="43" y2="95" style="stroke: black; stroke-width: 1" />
 <line x1="43" y1="95" x2="43" y2="95" style="stroke: black; stroke-width: 1" />
 <line x1="43" y1="95" x2="43" y2="96" style="stroke: black; stroke-width: 1" />
 <line x1="43" y1="96" x2="42" y2="96" style="stroke: black; stroke-width: 1" />
 <line x1="42" y1="96" x2="42" y2="96" style="stroke: black; stroke-width: 1" />
 <line x1="42" y1="96" x2="42" y2="96" style="stroke: black; stroke-width: 1" />
 <line x1="42" y1="96" x2="42" y2="96" style="stroke: black; stroke-width: 1" />
 <line x1="42" y1="96" x2="41" y2="96" style="stroke: black; stroke-width: 1" />
 <line x1="41" y1="96" x2="41" y2="97" style="stroke: black; stroke-width: 1" />
 <line x1="41" y1="97" x2="41" y2="96" style="stroke: black; stroke-width: 1" />
 <line x1="41" y1="96" x2="41" y2="96" style="stroke: black; stroke-width: 1" />
 <line x1="41" y1="96" x2="40" y2="96" style="stroke: black; stroke-width: 1" />
 <line x1="40" y1="96" x2="40" y2="96" style="stroke: black; stroke-width: 1" />
 <line x1="40" y1="96" x2="40" y2="96" style="stroke: black; stroke-width: 1" />
 <line x1="40" y1="96" x2="40" y2="96" style="stroke: black; stroke-width: 1" />
 <line x1="40" y1="96" x2="40" y2="95" style="stroke: black; stroke-width: 1" />
 <line x1="40" y1="95" x2="40" y2="95" style="stroke: black; stroke-width: 1" />
 <line x1="40" y1="95" x2="40" y2="95" style="stroke: black; stroke-width: 1" />
 <line x1="0" y1="140" x2="43" y2="140" style="stroke: black; stroke-width: 1" />
 <line x1="0" y1="123" x2="43" y2="123" style="stroke: black; stroke-width: 1" />
 <line x1="0" y1="106" x2="43" y2="106" style="stroke: black; stroke-width: 1" />
 <line x1="0" y1="90" x2="43" y2="90" style="stroke: black; stroke-width: 1" />
 <line x1="0" y1="73" x2="43" y2="73" style="stroke: black; stroke-width: 1" />
</svg>
