<!DOCTYPE svg PUBLIC "-//W3C//DTD SVG 1.1//EN" "http://www.w3.org/Graphics/SVG/1.1/DTD/svg11.dtd">
<svg width="38" height="47" xmlns="http://www.w3.org/2000/svg">
 <!-- Gardiner/Zz376515 at (0,.47457627118644068) in red, scale=.0610169491525423728, mirror=0 -->
 <line x1="5" y1="34.4101694915254236" x2="32.4576271186440676" y2="34.4101694915254236" style="stroke:red;stroke-width:1" />
 <line x1="32.4576271186440676" y1="37.7661016949152541" x2="5" y2="37.7661016949152541" style="stroke:red;stroke-width:1" />
 <line x1="5" y1="41.1220338983050846" x2="32.4576271186440676" y2="41.1220338983050846" style="stroke:red;stroke-width:1" />
 <line x1="8.3559322033898305" y1="34.4101694915254236" x2="8.3559322033898305" y2="41.1220338983050846" style="stroke:red;stroke-width:1" />
 <line x1="13.5423728813559321" y1="34.4101694915254236" x2="13.5423728813559321" y2="41.1220338983050846" style="stroke:red;stroke-width:1" />
 <line x1="18.7288135593220338" y1="34.4101694915254236" x2="18.7288135593220338" y2="41.1220338983050846" style="stroke:red;stroke-width:1" />
 <line x1="23.9152542372881354" y1="34.4101694915254236" x2="23.9152542372881354" y2="41.1220338983050846" style="stroke:red;stroke-width:1" />
 <line x1="29.1016949152542371" y1="34.4101694915254236" x2="29.1016949152542371" y2="41.1220338983050846" style="stroke:red;stroke-width:1" />
 <line x1="32.3355932203389829" y1="24.0983050847457626" x2="5" y2="24.0983050847457626" style="stroke:red;stroke-width:1" />
 <line x1="9.14915254237288135" y1="24.0983050847457626" x2="8.66101694915254236" y2="22.6338983050847456" style="stroke:red;stroke-width:1" />
 <line x1="8.66101694915254236" y1="22.6338983050847456" x2="7.86779661016949152" y2="21.4135593220338982" style="stroke:red;stroke-width:1" />
 <line x1="7.86779661016949152" y1="21.4135593220338982" x2="6.64745762711864406" y2="20.4983050847457626" style="stroke:red;stroke-width:1" />
 <line x1="6.64745762711864406" y1="20.4983050847457626" x2="5.6711864406779661" y2="20.4983050847457626" style="stroke:red;stroke-width:1" />
 <line x1="5.6711864406779661" y1="20.4983050847457626" x2="5.12203389830508474" y2="21.0474576271186439" style="stroke:red;stroke-width:1" />
 <line x1="5.12203389830508474" y1="21.0474576271186439" x2="5" y2="21.7796610169491524" style="stroke:red;stroke-width:1" />
 <line x1="5" y1="21.7796610169491524" x2="5.24406779661016949" y2="22.9999999999999998" style="stroke:red;stroke-width:1" />
 <line x1="5.24406779661016949" y1="22.9999999999999998" x2="5.61016949152542372" y2="24.0983050847457626" style="stroke:red;stroke-width:1" />
 <line x1="5.61016949152542372" y1="24.0983050847457626" x2="6.70847457627118643" y2="27.7593220338983049" style="stroke:red;stroke-width:1" />
 <line x1="6.70847457627118643" y1="27.7593220338983049" x2="8.66101694915254236" y2="27.7593220338983049" style="stroke:red;stroke-width:1" />
 <line x1="8.66101694915254236" y1="27.7593220338983049" x2="9.14915254237288135" y2="24.0983050847457626" style="stroke:red;stroke-width:1" />
 <line x1="18.7288135593220338" y1="24.0983050847457626" x2="18.7288135593220338" y2="38.0711864406779659" style="stroke:red;stroke-width:1" />
 <line x1="14.2745762711864405" y1="24.0983050847457626" x2="18.7288135593220338" y2="29.894915254237288" style="stroke:red;stroke-width:1" />
 <line x1="18.7288135593220338" y1="24.0983050847457626" x2="20.1322033898305083" y2="25.9288135593220337" style="stroke:red;stroke-width:1" />
 <line x1="20.1322033898305083" y1="25.9288135593220337" x2="21.0474576271186439" y2="27.8813559322033897" style="stroke:red;stroke-width:1" />
 <line x1="21.0474576271186439" y1="27.8813559322033897" x2="21.7796610169491524" y2="29.7118644067796609" style="stroke:red;stroke-width:1" />
 <line x1="21.7796610169491524" y1="29.7118644067796609" x2="22.0237288135593219" y2="30.8711864406779659" style="stroke:red;stroke-width:1" />
 <line x1="22.0237288135593219" y1="30.8711864406779659" x2="21.7796610169491524" y2="31.6033898305084744" style="stroke:red;stroke-width:1" />
 <line x1="21.7796610169491524" y1="31.6033898305084744" x2="21.3525423728813558" y2="32.030508474576271" style="stroke:red;stroke-width:1" />
 <line x1="21.3525423728813558" y1="32.030508474576271" x2="20.7423728813559321" y2="32.0915254237288134" style="stroke:red;stroke-width:1" />
 <line x1="20.7423728813559321" y1="32.0915254237288134" x2="20.1932203389830507" y2="31.7254237288135592" style="stroke:red;stroke-width:1" />
 <line x1="20.1932203389830507" y1="31.7254237288135592" x2="20.5593220338983049" y2="33.006779661016949" style="stroke:red;stroke-width:1" />
 <line x1="20.5593220338983049" y1="33.006779661016949" x2="20.6813559322033897" y2="33.7999999999999998" style="stroke:red;stroke-width:1" />
 <line x1="20.6813559322033897" y1="33.7999999999999998" x2="20.6203389830508473" y2="34.4711864406779659" style="stroke:red;stroke-width:1" />
 <line x1="20.6203389830508473" y1="34.4711864406779659" x2="20.0101694915254236" y2="34.7152542372881354" style="stroke:red;stroke-width:1" />
 <line x1="20.0101694915254236" y1="34.7152542372881354" x2="19.3999999999999999" y2="34.4101694915254236" style="stroke:red;stroke-width:1" />
 <line x1="19.3999999999999999" y1="34.4101694915254236" x2="18.7288135593220338" y2="33.9220338983050846" style="stroke:red;stroke-width:1" />
 <line x1="20.3762711864406778" y1="9.88135593220338982" x2="27.0271186440677965" y2="5" style="stroke:red;stroke-width:1" />
 <line x1="27.0271186440677965" y1="5" x2="27.4542372881355931" y2="5.73220338983050847" style="stroke:red;stroke-width:1" />
 <line x1="27.4542372881355931" y1="5.73220338983050847" x2="27.6372881355932202" y2="6.64745762711864406" style="stroke:red;stroke-width:1" />
 <line x1="27.6372881355932202" y1="6.64745762711864406" x2="27.5152542372881354" y2="7.74576271186440677" style="stroke:red;stroke-width:1" />
 <line x1="27.5152542372881354" y1="7.74576271186440677" x2="27.2101694915254236" y2="9.14915254237288135" style="stroke:red;stroke-width:1" />
 <line x1="27.2101694915254236" y1="9.14915254237288135" x2="26.0508474576271185" y2="10.7966101694915254" style="stroke:red;stroke-width:1" />
 <line x1="26.0508474576271185" y1="10.7966101694915254" x2="24.7084745762711863" y2="12.0169491525423728" style="stroke:red;stroke-width:1" />
 <line x1="24.7084745762711863" y1="12.0169491525423728" x2="23.3050847457627117" y2="13.0542372881355932" style="stroke:red;stroke-width:1" />
 <line x1="22.206779661016949" y1="11.711864406779661" x2="23.7322033898305083" y2="10.5525423728813559" style="stroke:red;stroke-width:1" />
 <line x1="23.7322033898305083" y1="10.5525423728813559" x2="24.6474576271186439" y2="9.6983050847457627" style="stroke:red;stroke-width:1" />
 <line x1="24.6474576271186439" y1="9.6983050847457627" x2="25.3796610169491524" y2="8.84406779661016948" style="stroke:red;stroke-width:1" />
 <line x1="25.3796610169491524" y1="8.84406779661016948" x2="25.7457627118644066" y2="8.23389830508474575" style="stroke:red;stroke-width:1" />
 <line x1="25.7457627118644066" y1="8.23389830508474575" x2="25.806779661016949" y2="7.56271186440677965" style="stroke:red;stroke-width:1" />
 <line x1="25.806779661016949" y1="7.56271186440677965" x2="25.7457627118644066" y2="6.76949152542372881" style="stroke:red;stroke-width:1" />
 <line x1="25.7457627118644066" y1="6.76949152542372881" x2="25.5016949152542371" y2="6.09830508474576271" style="stroke:red;stroke-width:1" />
 <line x1="15.3118644067796609" y1="13.359322033898305" x2="8.84406779661016948" y2="17.9355932203389829" style="stroke:red;stroke-width:1" />
 <line x1="8.84406779661016948" y1="17.9355932203389829" x2="9.39322033898305084" y2="18.606779661016949" style="stroke:red;stroke-width:1" />
 <line x1="9.39322033898305084" y1="18.606779661016949" x2="10.1254237288135593" y2="19.0338983050847456" style="stroke:red;stroke-width:1" />
 <line x1="10.1254237288135593" y1="19.0338983050847456" x2="10.8576271186440677" y2="19.2169491525423727" style="stroke:red;stroke-width:1" />
 <line x1="10.8576271186440677" y1="19.2169491525423727" x2="11.8949152542372881" y2="19.3389830508474575" style="stroke:red;stroke-width:1" />
 <line x1="11.8949152542372881" y1="19.3389830508474575" x2="12.871186440677966" y2="19.2169491525423727" style="stroke:red;stroke-width:1" />
 <line x1="12.871186440677966" y1="19.2169491525423727" x2="14.0915254237288134" y2="18.9118644067796609" style="stroke:red;stroke-width:1" />
 <line x1="14.0915254237288134" y1="18.9118644067796609" x2="15.5559322033898304" y2="18.3016949152542371" style="stroke:red;stroke-width:1" />
 <line x1="15.5559322033898304" y1="18.3016949152542371" x2="17.5084745762711863" y2="17.0203389830508473" style="stroke:red;stroke-width:1" />
 <line x1="10.3694915254237288" y1="16.8983050847457626" x2="11.1016949152542372" y2="17.2644067796610168" style="stroke:red;stroke-width:1" />
 <line x1="11.1016949152542372" y1="17.2644067796610168" x2="12.1389830508474576" y2="17.4474576271186439" style="stroke:red;stroke-width:1" />
 <line x1="12.1389830508474576" y1="17.4474576271186439" x2="13.4203389830508474" y2="17.3254237288135592" style="stroke:red;stroke-width:1" />
 <line x1="13.4203389830508474" y1="17.3254237288135592" x2="14.51864406779661" y2="16.8983050847457626" style="stroke:red;stroke-width:1" />
 <line x1="14.51864406779661" y1="16.8983050847457626" x2="15.6169491525423727" y2="16.2271186440677965" style="stroke:red;stroke-width:1" />
 <line x1="15.6169491525423727" y1="16.2271186440677965" x2="16.6542372881355931" y2="15.494915254237288" style="stroke:red;stroke-width:1" />
 <line x1="27.2101694915254236" y1="19.6440677966101693" x2="26.4169491525423727" y2="18.3016949152542371" style="stroke:red;stroke-width:1" />
 <line x1="26.4169491525423727" y1="18.3016949152542371" x2="25.6847457627118642" y2="17.1423728813559321" style="stroke:red;stroke-width:1" />
 <line x1="25.6847457627118642" y1="17.1423728813559321" x2="22.7559322033898304" y2="12.3830508474576271" style="stroke:red;stroke-width:1" />
 <line x1="22.7559322033898304" y1="12.3830508474576271" x2="22.206779661016949" y2="11.5898305084745762" style="stroke:red;stroke-width:1" />
 <line x1="22.206779661016949" y1="11.5898305084745762" x2="21.3525423728813558" y2="10.6745762711864406" style="stroke:red;stroke-width:1" />
 <line x1="21.3525423728813558" y1="10.6745762711864406" x2="20.4372881355932202" y2="9.94237288135593219" style="stroke:red;stroke-width:1" />
 <line x1="20.4372881355932202" y1="9.94237288135593219" x2="19.6440677966101693" y2="9.82033898305084745" style="stroke:red;stroke-width:1" />
 <line x1="19.6440677966101693" y1="9.82033898305084745" x2="19.2169491525423727" y2="8.90508474576271185" style="stroke:red;stroke-width:1" />
 <line x1="19.2169491525423727" y1="8.90508474576271185" x2="18.5457627118644066" y2="7.98983050847457626" style="stroke:red;stroke-width:1" />
 <line x1="18.5457627118644066" y1="7.98983050847457626" x2="18.1796610169491524" y2="7.6847457627118644" style="stroke:red;stroke-width:1" />
 <line x1="18.1796610169491524" y1="7.6847457627118644" x2="17.630508474576271" y2="7.50169491525423728" style="stroke:red;stroke-width:1" />
 <line x1="17.630508474576271" y1="7.50169491525423728" x2="16.5932203389830507" y2="7.37966101694915253" style="stroke:red;stroke-width:1" />
 <line x1="16.5932203389830507" y1="7.37966101694915253" x2="15.6169491525423727" y2="7.56271186440677965" style="stroke:red;stroke-width:1" />
 <line x1="15.6169491525423727" y1="7.56271186440677965" x2="15.0677966101694914" y2="7.74576271186440677" style="stroke:red;stroke-width:1" />
 <line x1="15.0677966101694914" y1="7.74576271186440677" x2="14.8237288135593219" y2="8.11186440677966101" style="stroke:red;stroke-width:1" />
 <line x1="14.8237288135593219" y1="8.11186440677966101" x2="14.51864406779661" y2="8.59999999999999999" style="stroke:red;stroke-width:1" />
 <line x1="14.51864406779661" y1="8.59999999999999999" x2="13.9694915254237287" y2="8.84406779661016948" style="stroke:red;stroke-width:1" />
 <line x1="13.9694915254237287" y1="8.84406779661016948" x2="13.6644067796610168" y2="9.27118644067796609" style="stroke:red;stroke-width:1" />
 <line x1="13.6644067796610168" y1="9.27118644067796609" x2="13.4203389830508474" y2="9.88135593220338982" style="stroke:red;stroke-width:1" />
 <line x1="13.4203389830508474" y1="9.88135593220338982" x2="13.4203389830508474" y2="10.247457627118644" style="stroke:red;stroke-width:1" />
 <line x1="13.4203389830508474" y1="10.247457627118644" x2="13.5423728813559321" y2="10.4305084745762711" style="stroke:red;stroke-width:1" />
 <line x1="13.5423728813559321" y1="10.4305084745762711" x2="13.6033898305084744" y2="10.247457627118644" style="stroke:red;stroke-width:1" />
 <line x1="13.6033898305084744" y1="10.247457627118644" x2="13.7864406779661016" y2="9.82033898305084745" style="stroke:red;stroke-width:1" />
 <line x1="13.7864406779661016" y1="9.82033898305084745" x2="14.2135593220338982" y2="9.51525423728813558" style="stroke:red;stroke-width:1" />
 <line x1="14.2135593220338982" y1="9.51525423728813558" x2="14.6406779661016948" y2="9.45423728813559321" style="stroke:red;stroke-width:1" />
 <line x1="14.6406779661016948" y1="9.45423728813559321" x2="15.006779661016949" y2="9.51525423728813558" style="stroke:red;stroke-width:1" />
 <line x1="15.006779661016949" y1="9.51525423728813558" x2="15.2508474576271185" y2="9.6983050847457627" style="stroke:red;stroke-width:1" />
 <line x1="15.2508474576271185" y1="9.6983050847457627" x2="15.3728813559322032" y2="9.6983050847457627" style="stroke:red;stroke-width:1" />
 <line x1="15.3728813559322032" y1="9.6983050847457627" x2="15.3728813559322032" y2="9.63728813559322033" style="stroke:red;stroke-width:1" />
 <line x1="15.3728813559322032" y1="9.63728813559322033" x2="15.3118644067796609" y2="9.21016949152542372" style="stroke:red;stroke-width:1" />
 <line x1="15.3118644067796609" y1="9.21016949152542372" x2="15.494915254237288" y2="9.14915254237288135" style="stroke:red;stroke-width:1" />
 <line x1="15.494915254237288" y1="9.14915254237288135" x2="15.6169491525423727" y2="8.90508474576271185" style="stroke:red;stroke-width:1" />
 <line x1="15.6169491525423727" y1="8.90508474576271185" x2="15.6169491525423727" y2="8.72203389830508474" style="stroke:red;stroke-width:1" />
 <line x1="15.6169491525423727" y1="8.72203389830508474" x2="15.4338983050847456" y2="8.53898305084745762" style="stroke:red;stroke-width:1" />
 <line x1="15.4338983050847456" y1="8.53898305084745762" x2="15.2508474576271185" y2="8.53898305084745762" style="stroke:red;stroke-width:1" />
 <line x1="15.2508474576271185" y1="8.53898305084745762" x2="15.0677966101694914" y2="8.66101694915254236" style="stroke:red;stroke-width:1" />
 <line x1="15.0677966101694914" y1="8.66101694915254236" x2="15.006779661016949" y2="8.96610169491525423" style="stroke:red;stroke-width:1" />
 <line x1="15.006779661016949" y1="8.96610169491525423" x2="15.1288135593220338" y2="9.08813559322033897" style="stroke:red;stroke-width:1" />
 <line x1="15.1288135593220338" y1="9.08813559322033897" x2="15.3118644067796609" y2="9.14915254237288135" style="stroke:red;stroke-width:1" />
 <line x1="15.4338983050847456" y1="8.53898305084745762" x2="15.9220338983050846" y2="8.53898305084745762" style="stroke:red;stroke-width:1" />
 <line x1="15.9220338983050846" y1="8.53898305084745762" x2="16.3491525423728812" y2="8.59999999999999999" style="stroke:red;stroke-width:1" />
 <line x1="16.3491525423728812" y1="8.59999999999999999" x2="16.8372881355932202" y2="8.84406779661016948" style="stroke:red;stroke-width:1" />
 <line x1="16.8372881355932202" y1="8.84406779661016948" x2="17.0813559322033897" y2="9.27118644067796609" style="stroke:red;stroke-width:1" />
 <line x1="17.0813559322033897" y1="9.27118644067796609" x2="17.0813559322033897" y2="9.88135593220338982" style="stroke:red;stroke-width:1" />
 <line x1="17.0813559322033897" y1="9.88135593220338982" x2="16.7762711864406778" y2="10.247457627118644" style="stroke:red;stroke-width:1" />
 <line x1="16.7762711864406778" y1="10.247457627118644" x2="15.983050847457627" y2="10.7966101694915254" style="stroke:red;stroke-width:1" />
 <line x1="15.9220338983050846" y1="10.6745762711864406" x2="16.1661016949152541" y2="10.5525423728813559" style="stroke:red;stroke-width:1" />
 <line x1="16.1661016949152541" y1="10.5525423728813559" x2="16.4101694915254236" y2="10.247457627118644" style="stroke:red;stroke-width:1" />
 <line x1="16.4101694915254236" y1="10.247457627118644" x2="16.5322033898305083" y2="9.94237288135593219" style="stroke:red;stroke-width:1" />
 <line x1="16.5322033898305083" y1="9.94237288135593219" x2="16.4101694915254236" y2="9.63728813559322033" style="stroke:red;stroke-width:1" />
 <line x1="16.4101694915254236" y1="9.63728813559322033" x2="16.2271186440677965" y2="9.51525423728813558" style="stroke:red;stroke-width:1" />
 <line x1="16.2271186440677965" y1="9.51525423728813558" x2="15.9220338983050846" y2="9.57627118644067796" style="stroke:red;stroke-width:1" />
 <line x1="15.9220338983050846" y1="9.57627118644067796" x2="15.7389830508474575" y2="9.82033898305084745" style="stroke:red;stroke-width:1" />
 <line x1="15.7389830508474575" y1="9.82033898305084745" x2="15.6779661016949151" y2="10.0033898305084745" style="stroke:red;stroke-width:1" />
 <line x1="15.6779661016949151" y1="10.0033898305084745" x2="15.7999999999999999" y2="10.5525423728813559" style="stroke:red;stroke-width:1" />
 <line x1="15.7999999999999999" y1="10.5525423728813559" x2="15.6779661016949151" y2="10.7966101694915254" style="stroke:red;stroke-width:1" />
 <line x1="15.6779661016949151" y1="10.7966101694915254" x2="15.6169491525423727" y2="10.9186440677966101" style="stroke:red;stroke-width:1" />
 <line x1="15.6169491525423727" y1="10.9186440677966101" x2="15.494915254237288" y2="10.8576271186440677" style="stroke:red;stroke-width:1" />
 <line x1="15.494915254237288" y1="10.8576271186440677" x2="15.3728813559322032" y2="10.5525423728813559" style="stroke:red;stroke-width:1" />
 <line x1="15.3728813559322032" y1="10.5525423728813559" x2="15.0677966101694914" y2="9.94237288135593219" style="stroke:red;stroke-width:1" />
 <line x1="15.0677966101694914" y1="9.94237288135593219" x2="14.7627118644067795" y2="9.6983050847457627" style="stroke:red;stroke-width:1" />
 <line x1="14.7627118644067795" y1="9.6983050847457627" x2="14.4576271186440677" y2="9.57627118644067796" style="stroke:red;stroke-width:1" />
 <line x1="14.4576271186440677" y1="9.57627118644067796" x2="14.1525423728813558" y2="9.57627118644067796" style="stroke:red;stroke-width:1" />
 <line x1="13.7864406779661016" y1="9.94237288135593219" x2="14.030508474576271" y2="9.88135593220338982" style="stroke:red;stroke-width:1" />
 <line x1="14.030508474576271" y1="9.88135593220338982" x2="14.4576271186440677" y2="9.88135593220338982" style="stroke:red;stroke-width:1" />
 <line x1="14.4576271186440677" y1="9.88135593220338982" x2="14.8847457627118643" y2="10.247457627118644" style="stroke:red;stroke-width:1" />
 <line x1="14.8847457627118643" y1="10.247457627118644" x2="15.1288135593220338" y2="11.1627118644067796" style="stroke:red;stroke-width:1" />
 <line x1="15.1288135593220338" y1="11.1627118644067796" x2="15.1898305084745761" y2="12.1389830508474576" style="stroke:red;stroke-width:1" />
 <line x1="15.1898305084745761" y1="12.1389830508474576" x2="15.2508474576271185" y2="13.0542372881355932" style="stroke:red;stroke-width:1" />
 <line x1="15.2508474576271185" y1="13.0542372881355932" x2="15.3728813559322032" y2="13.6033898305084744" style="stroke:red;stroke-width:1" />
 <line x1="15.3728813559322032" y1="13.6033898305084744" x2="15.6169491525423727" y2="14.0915254237288134" style="stroke:red;stroke-width:1" />
 <line x1="15.6169491525423727" y1="14.0915254237288134" x2="16.5932203389830507" y2="15.3728813559322032" style="stroke:red;stroke-width:1" />
 <line x1="16.5932203389830507" y1="15.3728813559322032" x2="18.6677966101694914" y2="18.0576271186440676" style="stroke:red;stroke-width:1" />
 <line x1="18.6677966101694914" y1="18.0576271186440676" x2="19.7050847457627117" y2="19.2169491525423727" style="stroke:red;stroke-width:1" />
 <line x1="19.7050847457627117" y1="19.2169491525423727" x2="20.4983050847457626" y2="20.9254237288135592" style="stroke:red;stroke-width:1" />
 <line x1="20.4983050847457626" y1="20.9254237288135592" x2="20.4983050847457626" y2="22.0847457627118643" style="stroke:red;stroke-width:1" />
 <line x1="20.4983050847457626" y1="22.0847457627118643" x2="20.3762711864406778" y2="23.2440677966101693" style="stroke:red;stroke-width:1" />
 <line x1="20.3762711864406778" y1="23.2440677966101693" x2="18.9118644067796609" y2="23.4881355932203388" style="stroke:red;stroke-width:1" />
 <line x1="18.9118644067796609" y1="23.4881355932203388" x2="18.7288135593220338" y2="23.7932203389830507" style="stroke:red;stroke-width:1" />
 <line x1="18.7288135593220338" y1="23.7932203389830507" x2="18.7288135593220338" y2="23.9762711864406778" style="stroke:red;stroke-width:1" />
 <line x1="18.7898305084745761" y1="23.6101694915254236" x2="18.606779661016949" y2="23.6101694915254236" style="stroke:red;stroke-width:1" />
 <line x1="18.606779661016949" y1="23.6101694915254236" x2="18.3627118644067795" y2="23.7322033898305083" style="stroke:red;stroke-width:1" />
 <line x1="18.3627118644067795" y1="23.7322033898305083" x2="18.2406779661016948" y2="24.0983050847457626" style="stroke:red;stroke-width:1" />
 <line x1="18.2406779661016948" y1="24.0983050847457626" x2="18.7288135593220338" y2="24.0372881355932202" style="stroke:red;stroke-width:1" />
 <line x1="18.7288135593220338" y1="24.0372881355932202" x2="18.8508474576271185" y2="24.1593220338983049" style="stroke:red;stroke-width:1" />
 <line x1="18.8508474576271185" y1="24.1593220338983049" x2="20.9254237288135592" y2="24.0372881355932202" style="stroke:red;stroke-width:1" />
 <line x1="20.9254237288135592" y1="24.0372881355932202" x2="22.694915254237288" y2="24.1593220338983049" style="stroke:red;stroke-width:1" />
 <line x1="22.694915254237288" y1="24.1593220338983049" x2="22.8169491525423727" y2="23.9152542372881354" style="stroke:red;stroke-width:1" />
 <line x1="22.8169491525423727" y1="23.9152542372881354" x2="22.694915254237288" y2="23.4881355932203388" style="stroke:red;stroke-width:1" />
 <line x1="22.8169491525423727" y1="23.9762711864406778" x2="23.0610169491525422" y2="23.9152542372881354" style="stroke:red;stroke-width:1" />
 <line x1="23.0610169491525422" y1="23.9152542372881354" x2="23.3661016949152541" y2="24.1593220338983049" style="stroke:red;stroke-width:1" />
 <line x1="23.3661016949152541" y1="24.1593220338983049" x2="23.3050847457627117" y2="23.7932203389830507" style="stroke:red;stroke-width:1" />
 <line x1="23.3050847457627117" y1="23.7932203389830507" x2="23.1220338983050846" y2="23.6101694915254236" style="stroke:red;stroke-width:1" />
 <line x1="23.1220338983050846" y1="23.6101694915254236" x2="22.8779661016949151" y2="23.4881355932203388" style="stroke:red;stroke-width:1" />
 <line x1="22.8779661016949151" y1="23.4881355932203388" x2="22.4508474576271185" y2="23.4271186440677965" style="stroke:red;stroke-width:1" />
 <line x1="22.4508474576271185" y1="23.4271186440677965" x2="21.230508474576271" y2="23.3050847457627117" style="stroke:red;stroke-width:1" />
 <line x1="21.230508474576271" y1="23.3050847457627117" x2="21.3525423728813558" y2="21.6576271186440676" style="stroke:red;stroke-width:1" />
 <line x1="21.3525423728813558" y1="21.6576271186440676" x2="22.0847457627118643" y2="21.8406779661016948" style="stroke:red;stroke-width:1" />
 <line x1="22.0847457627118643" y1="21.8406779661016948" x2="22.6338983050847456" y2="22.3288135593220337" style="stroke:red;stroke-width:1" />
 <line x1="22.6338983050847456" y1="22.3288135593220337" x2="22.6338983050847456" y2="18.9728813559322032" style="stroke:red;stroke-width:1" />
 <line x1="22.6338983050847456" y1="18.9728813559322032" x2="23.6101694915254236" y2="19.3389830508474575" style="stroke:red;stroke-width:1" />
 <line x1="23.6101694915254236" y1="19.3389830508474575" x2="24.2813559322033897" y2="19.7661016949152541" style="stroke:red;stroke-width:1" />
 <line x1="24.2813559322033897" y1="19.7661016949152541" x2="24.7694915254237287" y2="20.6203389830508473" style="stroke:red;stroke-width:1" />
 <line x1="24.7694915254237287" y1="20.6203389830508473" x2="26.5999999999999998" y2="24.1593220338983049" style="stroke:red;stroke-width:1" />
 <line x1="26.5999999999999998" y1="24.1593220338983049" x2="29.1627118644067795" y2="22.5118644067796609" style="stroke:red;stroke-width:1" />
 <line x1="29.1627118644067795" y1="22.5118644067796609" x2="27.2101694915254236" y2="19.6440677966101693" style="stroke:red;stroke-width:1" />
 <line x1="19.094915254237288" y1="23.3661016949152541" x2="19.5220338983050846" y2="21.4745762711864405" style="stroke:red;stroke-width:1" />
 <line x1="19.5220338983050846" y1="21.4745762711864405" x2="20.1932203389830507" y2="21.6576271186440676" style="stroke:red;stroke-width:1" />
 <line x1="20.1932203389830507" y1="21.6576271186440676" x2="20.4983050847457626" y2="22.0237288135593219" style="stroke:red;stroke-width:1" />
 <line x1="18.9728813559322032" y1="23.4271186440677965" x2="18.2406779661016948" y2="23.5491525423728812" style="stroke:red;stroke-width:1" />
 <line x1="18.2406779661016948" y1="23.5491525423728812" x2="17.9355932203389829" y2="23.6711864406779659" style="stroke:red;stroke-width:1" />
 <line x1="17.9355932203389829" y1="23.6711864406779659" x2="17.8135593220338982" y2="23.9152542372881354" style="stroke:red;stroke-width:1" />
 <line x1="17.8135593220338982" y1="23.9152542372881354" x2="17.8745762711864405" y2="24.1593220338983049" style="stroke:red;stroke-width:1" />
 <line x1="17.8745762711864405" y1="24.1593220338983049" x2="18.3016949152542371" y2="24.0372881355932202" style="stroke:red;stroke-width:1" />
 <line x1="17.9355932203389829" y1="23.6101694915254236" x2="17.5084745762711863" y2="23.7932203389830507" style="stroke:red;stroke-width:1" />
 <line x1="17.5084745762711863" y1="23.7932203389830507" x2="17.3864406779661015" y2="24.2203389830508473" style="stroke:red;stroke-width:1" />
 <line x1="17.3864406779661015" y1="24.2203389830508473" x2="17.8135593220338982" y2="24.0372881355932202" style="stroke:red;stroke-width:1" />
 <line x1="17.1423728813559321" y1="16.1661016949152541" x2="17.6915254237288134" y2="17.3254237288135592" style="stroke:red;stroke-width:1" />
 <line x1="17.6915254237288134" y1="17.3254237288135592" x2="18.3627118644067795" y2="19.2169491525423727" style="stroke:red;stroke-width:1" />
 <line x1="18.3627118644067795" y1="19.2169491525423727" x2="18.6677966101694914" y2="20.8033898305084744" style="stroke:red;stroke-width:1" />
 <line x1="18.6677966101694914" y1="20.8033898305084744" x2="18.606779661016949" y2="21.71864406779661" style="stroke:red;stroke-width:1" />
 <line x1="18.606779661016949" y1="21.71864406779661" x2="18.2406779661016948" y2="23.3661016949152541" style="stroke:red;stroke-width:1" />
 <line x1="18.2406779661016948" y1="23.3661016949152541" x2="16.9593220338983049" y2="23.4881355932203388" style="stroke:red;stroke-width:1" />
 <line x1="16.9593220338983049" y1="23.4881355932203388" x2="16.6542372881355931" y2="23.6711864406779659" style="stroke:red;stroke-width:1" />
 <line x1="16.6542372881355931" y1="23.6711864406779659" x2="16.5932203389830507" y2="23.9152542372881354" style="stroke:red;stroke-width:1" />
 <line x1="16.5932203389830507" y1="23.9152542372881354" x2="16.6542372881355931" y2="24.0983050847457626" style="stroke:red;stroke-width:1" />
 <line x1="16.6542372881355931" y1="24.0983050847457626" x2="17.3864406779661015" y2="24.0372881355932202" style="stroke:red;stroke-width:1" />
 <line x1="16.6542372881355931" y1="23.6101694915254236" x2="16.2271186440677965" y2="23.7932203389830507" style="stroke:red;stroke-width:1" />
 <line x1="16.2271186440677965" y1="23.7932203389830507" x2="16.1050847457627117" y2="23.9152542372881354" style="stroke:red;stroke-width:1" />
 <line x1="16.1050847457627117" y1="23.9152542372881354" x2="16.1050847457627117" y2="24.2203389830508473" style="stroke:red;stroke-width:1" />
 <line x1="16.1050847457627117" y1="24.2203389830508473" x2="16.5322033898305083" y2="24.0372881355932202" style="stroke:red;stroke-width:1" />
 <line x1="16.9593220338983049" y1="23.4881355932203388" x2="16.1050847457627117" y2="23.6101694915254236" style="stroke:red;stroke-width:1" />
 <line x1="16.1050847457627117" y1="23.6101694915254236" x2="15.7999999999999999" y2="23.7932203389830507" style="stroke:red;stroke-width:1" />
 <line x1="15.7999999999999999" y1="23.7932203389830507" x2="15.7999999999999999" y2="24.1593220338983049" style="stroke:red;stroke-width:1" />
 <line x1="15.7999999999999999" y1="24.1593220338983049" x2="16.1050847457627117" y2="24.0372881355932202" style="stroke:red;stroke-width:1" />
 <line x1="15.9220338983050846" y1="23.6711864406779659" x2="15.4338983050847456" y2="23.7932203389830507" style="stroke:red;stroke-width:1" />
 <line x1="15.4338983050847456" y1="23.7932203389830507" x2="15.3118644067796609" y2="24.2203389830508473" style="stroke:red;stroke-width:1" />
 <line x1="15.3118644067796609" y1="24.2203389830508473" x2="15.7999999999999999" y2="24.0372881355932202" style="stroke:red;stroke-width:1" />

</svg>
