<!DOCTYPE svg PUBLIC "-//W3C//DTD SVG 1.1//EN" "http://www.w3.org/Graphics/SVG/1.1/DTD/svg11.dtd">
<svg width="36" height="45" xmlns="http://www.w3.org/2000/svg">
 <!-- Gardiner/Zz376515 at (0,.10526315789473684) in red, scale=.0757894736842105264, mirror=0 -->
 <line x1="12.5789473684210525" y1="21.5221052631578946" x2="11.9726315789473683" y2="21.9768421052631578" style="stroke:red;stroke-width:1" />
 <line x1="11.9726315789473683" y1="21.9768421052631578" x2="11.4421052631578946" y2="22.6589473684210525" style="stroke:red;stroke-width:1" />
 <line x1="11.4421052631578946" y1="22.6589473684210525" x2="11.0631578947368421" y2="23.3410526315789473" style="stroke:red;stroke-width:1" />
 <line x1="11.0631578947368421" y1="23.3410526315789473" x2="10.8357894736842105" y2="24.4021052631578946" style="stroke:red;stroke-width:1" />
 <line x1="10.8357894736842105" y1="24.4021052631578946" x2="10.76" y2="25.7663157894736841" style="stroke:red;stroke-width:1" />
 <line x1="10.76" y1="25.7663157894736841" x2="10.8357894736842105" y2="26.903157894736842" style="stroke:red;stroke-width:1" />
 <line x1="10.8357894736842105" y1="26.903157894736842" x2="11.0631578947368421" y2="27.8126315789473683" style="stroke:red;stroke-width:1" />
 <line x1="11.0631578947368421" y1="27.8126315789473683" x2="11.214736842105263" y2="29.4042105263157894" style="stroke:red;stroke-width:1" />
 <line x1="11.214736842105263" y1="29.4042105263157894" x2="11.4421052631578946" y2="31.1473684210526315" style="stroke:red;stroke-width:1" />
 <line x1="11.4421052631578946" y1="31.1473684210526315" x2="11.3663157894736841" y2="33.0421052631578946" style="stroke:red;stroke-width:1" />
 <line x1="11.3663157894736841" y1="33.0421052631578946" x2="11.1389473684210526" y2="35.391578947368421" style="stroke:red;stroke-width:1" />
 <line x1="11.1389473684210526" y1="35.391578947368421" x2="10.6084210526315789" y2="37.9684210526315789" style="stroke:red;stroke-width:1" />
 <line x1="10.6084210526315789" y1="37.9684210526315789" x2="9.69894736842105263" y2="38.9536842105263157" style="stroke:red;stroke-width:1" />
 <line x1="9.69894736842105263" y1="38.9536842105263157" x2="11.0631578947368421" y2="38.9536842105263157" style="stroke:red;stroke-width:1" />
 <line x1="11.0631578947368421" y1="38.9536842105263157" x2="11.214736842105263" y2="38.1199999999999999" style="stroke:red;stroke-width:1" />
 <line x1="11.214736842105263" y1="38.1199999999999999" x2="11.4421052631578946" y2="37.9684210526315789" style="stroke:red;stroke-width:1" />
 <line x1="11.4421052631578946" y1="37.9684210526315789" x2="11.8968421052631578" y2="35.8463157894736841" style="stroke:red;stroke-width:1" />
 <line x1="11.8968421052631578" y1="35.8463157894736841" x2="12.2757894736842104" y2="33.6484210526315788" style="stroke:red;stroke-width:1" />
 <line x1="12.2757894736842104" y1="33.6484210526315788" x2="12.3515789473684209" y2="32.0568421052631578" style="stroke:red;stroke-width:1" />
 <line x1="12.3515789473684209" y1="32.0568421052631578" x2="12.4273684210526315" y2="29.783157894736842" style="stroke:red;stroke-width:1" />
 <line x1="12.4273684210526315" y1="29.783157894736842" x2="12.503157894736842" y2="28.5705263157894736" style="stroke:red;stroke-width:1" />
 <line x1="12.503157894736842" y1="28.5705263157894736" x2="12.8063157894736841" y2="27.8126315789473683" style="stroke:red;stroke-width:1" />
 <line x1="12.8063157894736841" y1="27.8126315789473683" x2="13.4126315789473683" y2="27.6610526315789473" style="stroke:red;stroke-width:1" />
 <line x1="13.4126315789473683" y1="27.6610526315789473" x2="14.2463157894736841" y2="27.9642105263157894" style="stroke:red;stroke-width:1" />
 <line x1="14.2463157894736841" y1="27.9642105263157894" x2="15.0042105263157894" y2="28.4947368421052631" style="stroke:red;stroke-width:1" />
 <line x1="15.0042105263157894" y1="28.4947368421052631" x2="14.8526315789473683" y2="29.0252631578947367" style="stroke:red;stroke-width:1" />
 <line x1="14.8526315789473683" y1="29.0252631578947367" x2="16.0652631578947367" y2="29.4042105263157894" style="stroke:red;stroke-width:1" />
 <line x1="16.0652631578947367" y1="29.4042105263157894" x2="17.7326315789473683" y2="30.0863157894736841" style="stroke:red;stroke-width:1" />
 <line x1="17.7326315789473683" y1="30.0863157894736841" x2="18.9452631578947367" y2="30.8442105263157894" style="stroke:red;stroke-width:1" />
 <line x1="17.7326315789473683" y1="30.0863157894736841" x2="18.263157894736842" y2="32.8147368421052631" style="stroke:red;stroke-width:1" />
 <line x1="18.263157894736842" y1="32.8147368421052631" x2="18.6421052631578946" y2="34.7094736842105262" style="stroke:red;stroke-width:1" />
 <line x1="18.6421052631578946" y1="34.7094736842105262" x2="18.4905263157894736" y2="36.4526315789473683" style="stroke:red;stroke-width:1" />
 <line x1="18.4905263157894736" y1="36.4526315789473683" x2="18.4905263157894736" y2="37.4378947368421052" style="stroke:red;stroke-width:1" />
 <line x1="18.4905263157894736" y1="37.4378947368421052" x2="18.1873684210526315" y2="38.1199999999999999" style="stroke:red;stroke-width:1" />
 <line x1="18.1873684210526315" y1="38.1199999999999999" x2="17.5052631578947367" y2="39.0294736842105262" style="stroke:red;stroke-width:1" />
 <line x1="17.5052631578947367" y1="39.0294736842105262" x2="18.7178947368421051" y2="39.0294736842105262" style="stroke:red;stroke-width:1" />
 <line x1="18.7178947368421051" y1="39.0294736842105262" x2="18.9452631578947367" y2="37.9684210526315789" style="stroke:red;stroke-width:1" />
 <line x1="18.9452631578947367" y1="37.9684210526315789" x2="19.3242105263157894" y2="37.8926315789473683" style="stroke:red;stroke-width:1" />
 <line x1="19.3242105263157894" y1="37.8926315789473683" x2="19.3242105263157894" y2="36.2252631578947367" style="stroke:red;stroke-width:1" />
 <line x1="19.3242105263157894" y1="36.2252631578947367" x2="19.6273684210526315" y2="34.4821052631578946" style="stroke:red;stroke-width:1" />
 <line x1="19.6273684210526315" y1="34.4821052631578946" x2="19.854736842105263" y2="33.4210526315789473" style="stroke:red;stroke-width:1" />
 <line x1="19.854736842105263" y1="33.4210526315789473" x2="20.1578947368421052" y2="32.663157894736842" style="stroke:red;stroke-width:1" />
 <line x1="18.1115789473684209" y1="27.9642105263157894" x2="18.1873684210526315" y2="28.8736842105263157" style="stroke:red;stroke-width:1" />
 <line x1="18.1873684210526315" y1="28.8736842105263157" x2="18.4905263157894736" y2="29.8589473684210525" style="stroke:red;stroke-width:1" />
 <line x1="18.4905263157894736" y1="29.8589473684210525" x2="18.9452631578947367" y2="30.8442105263157894" style="stroke:red;stroke-width:1" />
 <line x1="18.9452631578947367" y1="30.8442105263157894" x2="20.1578947368421052" y2="32.5873684210526315" style="stroke:red;stroke-width:1" />
 <line x1="20.1578947368421052" y1="32.5873684210526315" x2="20.8399999999999999" y2="33.8757894736842104" style="stroke:red;stroke-width:1" />
 <line x1="20.8399999999999999" y1="33.8757894736842104" x2="21.0673684210526315" y2="34.5578947368421052" style="stroke:red;stroke-width:1" />
 <line x1="21.0673684210526315" y1="34.5578947368421052" x2="21.2189473684210525" y2="35.7705263157894736" style="stroke:red;stroke-width:1" />
 <line x1="21.2189473684210525" y1="35.7705263157894736" x2="21.2189473684210525" y2="37.0589473684210525" style="stroke:red;stroke-width:1" />
 <line x1="21.2189473684210525" y1="37.0589473684210525" x2="21.0673684210526315" y2="38.0442105263157894" style="stroke:red;stroke-width:1" />
 <line x1="21.0673684210526315" y1="38.0442105263157894" x2="20.3094736842105262" y2="39.1052631578947368" style="stroke:red;stroke-width:1" />
 <line x1="20.3094736842105262" y1="39.1052631578947368" x2="21.6736842105263157" y2="39.0294736842105262" style="stroke:red;stroke-width:1" />
 <line x1="21.6736842105263157" y1="39.0294736842105262" x2="21.8252631578947367" y2="38.3473684210526315" style="stroke:red;stroke-width:1" />
 <line x1="21.8252631578947367" y1="38.3473684210526315" x2="21.6736842105263157" y2="38.0442105263157894" style="stroke:red;stroke-width:1" />
 <line x1="21.6736842105263157" y1="38.0442105263157894" x2="21.9010526315789473" y2="37.7410526315789473" style="stroke:red;stroke-width:1" />
 <line x1="21.9010526315789473" y1="37.7410526315789473" x2="21.9010526315789473" y2="36.1494736842105262" style="stroke:red;stroke-width:1" />
 <line x1="21.9010526315789473" y1="36.1494736842105262" x2="21.8252631578947367" y2="34.103157894736842" style="stroke:red;stroke-width:1" />
 <line x1="21.8252631578947367" y1="34.103157894736842" x2="21.294736842105263" y2="33.2694736842105262" style="stroke:red;stroke-width:1" />
 <line x1="21.294736842105263" y1="33.2694736842105262" x2="21.0673684210526315" y2="32.2084210526315788" style="stroke:red;stroke-width:1" />
 <line x1="21.0673684210526315" y1="32.2084210526315788" x2="21.0673684210526315" y2="31.2989473684210525" style="stroke:red;stroke-width:1" />
 <line x1="21.0673684210526315" y1="31.2989473684210525" x2="21.143157894736842" y2="30.5410526315789473" style="stroke:red;stroke-width:1" />
 <line x1="21.143157894736842" y1="30.5410526315789473" x2="21.5978947368421052" y2="29.5557894736842104" style="stroke:red;stroke-width:1" />
 <line x1="21.5978947368421052" y1="29.5557894736842104" x2="21.8252631578947367" y2="28.5705263157894736" style="stroke:red;stroke-width:1" />
 <line x1="21.8252631578947367" y1="28.5705263157894736" x2="21.8252631578947367" y2="27.5852631578947367" style="stroke:red;stroke-width:1" />
 <line x1="21.8252631578947367" y1="27.5852631578947367" x2="21.8252631578947367" y2="27.1305263157894736" style="stroke:red;stroke-width:1" />
 <line x1="21.8252631578947367" y1="27.1305263157894736" x2="21.5978947368421052" y2="26.5999999999999999" style="stroke:red;stroke-width:1" />
 <line x1="21.5978947368421052" y1="26.5999999999999999" x2="22.2042105263157894" y2="27.7368421052631578" style="stroke:red;stroke-width:1" />
 <line x1="22.2042105263157894" y1="27.7368421052631578" x2="22.734736842105263" y2="28.7221052631578946" style="stroke:red;stroke-width:1" />
 <line x1="22.734736842105263" y1="28.7221052631578946" x2="23.3410526315789473" y2="30.3894736842105262" style="stroke:red;stroke-width:1" />
 <line x1="23.3410526315789473" y1="30.3894736842105262" x2="23.4926315789473683" y2="31.6778947368421052" style="stroke:red;stroke-width:1" />
 <line x1="23.4926315789473683" y1="31.6778947368421052" x2="23.5684210526315788" y2="32.663157894736842" style="stroke:red;stroke-width:1" />
 <line x1="21.5978947368421052" y1="26.5999999999999999" x2="20.9915789473684209" y2="25.9178947368421052" style="stroke:red;stroke-width:1" />
 <line x1="20.9915789473684209" y1="25.9178947368421052" x2="19.6273684210526315" y2="25.0084210526315788" style="stroke:red;stroke-width:1" />
 <line x1="19.6273684210526315" y1="25.0084210526315788" x2="17.6568421052631578" y2="23.8715789473684209" style="stroke:red;stroke-width:1" />
 <line x1="17.6568421052631578" y1="23.8715789473684209" x2="15.9894736842105262" y2="22.6589473684210525" style="stroke:red;stroke-width:1" />
 <line x1="15.9894736842105262" y1="22.6589473684210525" x2="14.8526315789473683" y2="21.5978947368421052" style="stroke:red;stroke-width:1" />
 <line x1="14.8526315789473683" y1="21.5978947368421052" x2="13.943157894736842" y2="20.5368421052631578" style="stroke:red;stroke-width:1" />
 <line x1="13.943157894736842" y1="20.5368421052631578" x2="13.1852631578947367" y2="19.1726315789473683" style="stroke:red;stroke-width:1" />
 <line x1="13.1852631578947367" y1="19.1726315789473683" x2="12.654736842105263" y2="17.6568421052631578" style="stroke:red;stroke-width:1" />
 <line x1="12.654736842105263" y1="17.6568421052631578" x2="12.3515789473684209" y2="15.9894736842105262" style="stroke:red;stroke-width:1" />
 <line x1="12.3515789473684209" y1="15.9894736842105262" x2="11.8968421052631578" y2="13.1852631578947367" style="stroke:red;stroke-width:1" />
 <line x1="11.8968421052631578" y1="13.1852631578947367" x2="11.6694736842105262" y2="10.2294736842105263" style="stroke:red;stroke-width:1" />
 <line x1="11.6694736842105262" y1="10.2294736842105263" x2="11.5178947368421051" y2="8.86526315789473684" style="stroke:red;stroke-width:1" />
 <line x1="11.5178947368421051" y1="8.86526315789473684" x2="11.214736842105263" y2="7.95578947368421052" style="stroke:red;stroke-width:1" />
 <line x1="11.214736842105263" y1="7.95578947368421052" x2="10.9873684210526315" y2="7.27368421052631579" style="stroke:red;stroke-width:1" />
 <line x1="10.9873684210526315" y1="7.27368421052631579" x2="10.6842105263157894" y2="6.89473684210526316" style="stroke:red;stroke-width:1" />
 <line x1="10.6842105263157894" y1="6.89473684210526316" x2="10.1536842105263157" y2="6.59157894736842105" style="stroke:red;stroke-width:1" />
 <line x1="10.1536842105263157" y1="6.59157894736842105" x2="10.1536842105263157" y2="5.53052631578947368" style="stroke:red;stroke-width:1" />
 <line x1="10.6084210526315789" y1="6.89473684210526316" x2="11.5178947368421051" y2="5.3031578947368421" style="stroke:red;stroke-width:1" />
 <line x1="11.5178947368421051" y1="5.3031578947368421" x2="11.7452631578947367" y2="5.15157894736842105" style="stroke:red;stroke-width:1" />
 <line x1="11.7452631578947367" y1="5.15157894736842105" x2="11.8968421052631578" y2="5.37894736842105263" style="stroke:red;stroke-width:1" />
 <line x1="11.8968421052631578" y1="5.37894736842105263" x2="11.6694736842105262" y2="6.66736842105263158" style="stroke:red;stroke-width:1" />
 <line x1="11.6694736842105262" y1="6.66736842105263158" x2="11.214736842105263" y2="7.95578947368421052" style="stroke:red;stroke-width:1" />
 <line x1="10.0778947368421052" y1="6.59157894736842105" x2="9.39578947368421053" y2="6.51578947368421052" style="stroke:red;stroke-width:1" />
 <line x1="9.39578947368421053" y1="6.51578947368421052" x2="9.39578947368421053" y2="5.53052631578947368" style="stroke:red;stroke-width:1" />
 <line x1="9.47157894736842105" y1="6.51578947368421052" x2="8.78947368421052632" y2="6.66736842105263158" style="stroke:red;stroke-width:1" />
 <line x1="8.78947368421052632" y1="6.66736842105263158" x2="8.33473684210526316" y2="6.97052631578947368" style="stroke:red;stroke-width:1" />
 <line x1="8.33473684210526316" y1="6.97052631578947368" x2="7.95578947368421052" y2="7.19789473684210526" style="stroke:red;stroke-width:1" />
 <line x1="7.95578947368421052" y1="7.19789473684210526" x2="7.34947368421052631" y2="5.22736842105263157" style="stroke:red;stroke-width:1" />
 <line x1="7.34947368421052631" y1="5.22736842105263157" x2="7.42526315789473684" y2="5.07578947368421052" style="stroke:red;stroke-width:1" />
 <line x1="7.42526315789473684" y1="5.07578947368421052" x2="7.65263157894736842" y2="5" style="stroke:red;stroke-width:1" />
 <line x1="7.65263157894736842" y1="5" x2="7.95578947368421052" y2="5.15157894736842105" style="stroke:red;stroke-width:1" />
 <line x1="7.95578947368421052" y1="5.15157894736842105" x2="8.78947368421052632" y2="6.59157894736842105" style="stroke:red;stroke-width:1" />
 <path d="M 8.33473684210526316 8.25894736842105263
          A .303157894736842105 .303157894736842105 0 1 0 8.94105263157894736 8.25894736842105263
          A .303157894736842105 .303157894736842105 0 1 0 8.33473684210526316 8.25894736842105263"
       stroke="red" fill="white" stroke-width="1" fill-opacity="0.0"/>
 <line x1="8.03157894736842105" y1="7.19789473684210526" x2="7.42526315789473684" y2="7.80421052631578947" style="stroke:red;stroke-width:1" />
 <line x1="7.42526315789473684" y1="7.80421052631578947" x2="7.12210526315789473" y2="8.48631578947368421" style="stroke:red;stroke-width:1" />
 <line x1="7.12210526315789473" y1="8.48631578947368421" x2="6.89473684210526316" y2="8.94105263157894737" style="stroke:red;stroke-width:1" />
 <line x1="6.89473684210526316" y1="8.94105263157894737" x2="5" y2="10.911578947368421" style="stroke:red;stroke-width:1" />
 <line x1="5" y1="10.911578947368421" x2="5" y2="11.2905263157894736" style="stroke:red;stroke-width:1" />
 <line x1="5" y1="11.2905263157894736" x2="5" y2="11.5936842105263157" style="stroke:red;stroke-width:1" />
 <line x1="5" y1="11.5936842105263157" x2="5.37894736842105263" y2="11.8210526315789472" style="stroke:red;stroke-width:1" />
 <line x1="5.37894736842105263" y1="11.8210526315789472" x2="5.75789473684210526" y2="11.7452631578947367" style="stroke:red;stroke-width:1" />
 <line x1="5.75789473684210526" y1="11.7452631578947367" x2="7.34947368421052631" y2="10.8357894736842105" style="stroke:red;stroke-width:1" />
 <line x1="7.34947368421052631" y1="10.8357894736842105" x2="8.10736842105263158" y2="10.76" style="stroke:red;stroke-width:1" />
 <line x1="8.10736842105263158" y1="10.76" x2="8.78947368421052632" y2="10.2294736842105263" style="stroke:red;stroke-width:1" />
 <line x1="8.78947368421052632" y1="10.2294736842105263" x2="9.54736842105263158" y2="9.54736842105263158" style="stroke:red;stroke-width:1" />
 <line x1="9.54736842105263158" y1="9.54736842105263158" x2="9.77473684210526316" y2="9.24421052631578947" style="stroke:red;stroke-width:1" />
 <line x1="9.54736842105263158" y1="9.54736842105263158" x2="9.47157894736842105" y2="11.6694736842105262" style="stroke:red;stroke-width:1" />
 <line x1="9.47157894736842105" y1="11.6694736842105262" x2="9.54736842105263158" y2="13.943157894736842" style="stroke:red;stroke-width:1" />
 <line x1="9.54736842105263158" y1="13.943157894736842" x2="9.77473684210526316" y2="16.2926315789473683" style="stroke:red;stroke-width:1" />
 <line x1="9.77473684210526316" y1="16.2926315789473683" x2="9.92631578947368421" y2="18.1115789473684209" style="stroke:red;stroke-width:1" />
 <line x1="9.92631578947368421" y1="18.1115789473684209" x2="10.0778947368421052" y2="20.0821052631578946" style="stroke:red;stroke-width:1" />
 <line x1="10.0778947368421052" y1="20.0821052631578946" x2="10.3810526315789473" y2="21.7494736842105262" style="stroke:red;stroke-width:1" />
 <line x1="10.3810526315789473" y1="21.7494736842105262" x2="10.6084210526315789" y2="22.9621052631578946" style="stroke:red;stroke-width:1" />
 <line x1="10.6084210526315789" y1="22.9621052631578946" x2="11.0631578947368421" y2="23.4168421052631578" style="stroke:red;stroke-width:1" />
 <line x1="11.0631578947368421" y1="23.4168421052631578" x2="7.34947368421052631" y2="38.0442105263157894" style="stroke:red;stroke-width:1" />
 <line x1="7.34947368421052631" y1="38.0442105263157894" x2="6.51578947368421052" y2="38.9536842105263157" style="stroke:red;stroke-width:1" />
 <line x1="6.51578947368421052" y1="38.9536842105263157" x2="8.03157894736842105" y2="39.0294736842105262" style="stroke:red;stroke-width:1" />
 <line x1="8.03157894736842105" y1="39.0294736842105262" x2="8.1831578947368421" y2="38.0442105263157894" style="stroke:red;stroke-width:1" />
 <line x1="8.1831578947368421" y1="38.0442105263157894" x2="8.33473684210526316" y2="37.9684210526315789" style="stroke:red;stroke-width:1" />
 <line x1="8.33473684210526316" y1="37.9684210526315789" x2="8.48631578947368421" y2="37.8168421052631578" style="stroke:red;stroke-width:1" />
 <line x1="8.48631578947368421" y1="37.8168421052631578" x2="9.62315789473684211" y2="32.8147368421052631" style="stroke:red;stroke-width:1" />
 <line x1="9.62315789473684211" y1="32.8147368421052631" x2="10.1536842105263157" y2="30.8442105263157894" style="stroke:red;stroke-width:1" />
 <line x1="10.1536842105263157" y1="30.8442105263157894" x2="10.9873684210526315" y2="27.8884210526315788" style="stroke:red;stroke-width:1" />
 <line x1="12.5789473684210525" y1="21.5221052631578946" x2="11.9726315789473683" y2="21.9768421052631578" style="stroke:red;stroke-width:1" />
 <line x1="11.9726315789473683" y1="21.9768421052631578" x2="11.4421052631578946" y2="22.6589473684210525" style="stroke:red;stroke-width:1" />
 <line x1="11.4421052631578946" y1="22.6589473684210525" x2="11.0631578947368421" y2="23.3410526315789473" style="stroke:red;stroke-width:1" />
 <line x1="11.0631578947368421" y1="23.3410526315789473" x2="10.8357894736842105" y2="24.4021052631578946" style="stroke:red;stroke-width:1" />
 <line x1="10.8357894736842105" y1="24.4021052631578946" x2="10.76" y2="25.7663157894736841" style="stroke:red;stroke-width:1" />
 <line x1="10.76" y1="25.7663157894736841" x2="10.8357894736842105" y2="26.903157894736842" style="stroke:red;stroke-width:1" />
 <line x1="10.8357894736842105" y1="26.903157894736842" x2="11.0631578947368421" y2="27.8126315789473683" style="stroke:red;stroke-width:1" />
 <line x1="11.0631578947368421" y1="27.8126315789473683" x2="11.214736842105263" y2="29.4042105263157894" style="stroke:red;stroke-width:1" />
 <line x1="11.214736842105263" y1="29.4042105263157894" x2="11.4421052631578946" y2="31.1473684210526315" style="stroke:red;stroke-width:1" />
 <line x1="11.4421052631578946" y1="31.1473684210526315" x2="11.3663157894736841" y2="33.0421052631578946" style="stroke:red;stroke-width:1" />
 <line x1="11.3663157894736841" y1="33.0421052631578946" x2="11.1389473684210526" y2="35.391578947368421" style="stroke:red;stroke-width:1" />
 <line x1="11.1389473684210526" y1="35.391578947368421" x2="10.6084210526315789" y2="37.9684210526315789" style="stroke:red;stroke-width:1" />
 <line x1="10.6084210526315789" y1="37.9684210526315789" x2="9.69894736842105263" y2="38.9536842105263157" style="stroke:red;stroke-width:1" />
 <line x1="9.69894736842105263" y1="38.9536842105263157" x2="11.0631578947368421" y2="38.9536842105263157" style="stroke:red;stroke-width:1" />
 <line x1="11.0631578947368421" y1="38.9536842105263157" x2="11.214736842105263" y2="38.1199999999999999" style="stroke:red;stroke-width:1" />
 <line x1="11.214736842105263" y1="38.1199999999999999" x2="11.4421052631578946" y2="37.9684210526315789" style="stroke:red;stroke-width:1" />
 <line x1="11.4421052631578946" y1="37.9684210526315789" x2="11.8968421052631578" y2="35.8463157894736841" style="stroke:red;stroke-width:1" />
 <line x1="11.8968421052631578" y1="35.8463157894736841" x2="12.2757894736842104" y2="33.6484210526315788" style="stroke:red;stroke-width:1" />
 <line x1="12.2757894736842104" y1="33.6484210526315788" x2="12.3515789473684209" y2="32.0568421052631578" style="stroke:red;stroke-width:1" />
 <line x1="12.3515789473684209" y1="32.0568421052631578" x2="12.4273684210526315" y2="29.783157894736842" style="stroke:red;stroke-width:1" />
 <line x1="12.4273684210526315" y1="29.783157894736842" x2="12.503157894736842" y2="28.5705263157894736" style="stroke:red;stroke-width:1" />
 <line x1="12.503157894736842" y1="28.5705263157894736" x2="12.8063157894736841" y2="27.8126315789473683" style="stroke:red;stroke-width:1" />
 <line x1="12.8063157894736841" y1="27.8126315789473683" x2="13.4126315789473683" y2="27.6610526315789473" style="stroke:red;stroke-width:1" />
 <line x1="13.4126315789473683" y1="27.6610526315789473" x2="14.2463157894736841" y2="27.9642105263157894" style="stroke:red;stroke-width:1" />
 <line x1="14.2463157894736841" y1="27.9642105263157894" x2="15.0042105263157894" y2="28.4947368421052631" style="stroke:red;stroke-width:1" />
 <line x1="15.0042105263157894" y1="28.4947368421052631" x2="14.8526315789473683" y2="29.0252631578947367" style="stroke:red;stroke-width:1" />
 <line x1="14.8526315789473683" y1="29.0252631578947367" x2="16.0652631578947367" y2="29.4042105263157894" style="stroke:red;stroke-width:1" />
 <line x1="16.0652631578947367" y1="29.4042105263157894" x2="17.7326315789473683" y2="30.0863157894736841" style="stroke:red;stroke-width:1" />
 <line x1="17.7326315789473683" y1="30.0863157894736841" x2="18.9452631578947367" y2="30.8442105263157894" style="stroke:red;stroke-width:1" />
 <line x1="17.7326315789473683" y1="30.0863157894736841" x2="18.263157894736842" y2="32.8147368421052631" style="stroke:red;stroke-width:1" />
 <line x1="18.263157894736842" y1="32.8147368421052631" x2="18.6421052631578946" y2="34.7094736842105262" style="stroke:red;stroke-width:1" />
 <line x1="18.6421052631578946" y1="34.7094736842105262" x2="18.4905263157894736" y2="36.4526315789473683" style="stroke:red;stroke-width:1" />
 <line x1="18.4905263157894736" y1="36.4526315789473683" x2="18.4905263157894736" y2="37.4378947368421052" style="stroke:red;stroke-width:1" />
 <line x1="18.4905263157894736" y1="37.4378947368421052" x2="18.1873684210526315" y2="38.1199999999999999" style="stroke:red;stroke-width:1" />
 <line x1="18.1873684210526315" y1="38.1199999999999999" x2="17.5052631578947367" y2="39.0294736842105262" style="stroke:red;stroke-width:1" />
 <line x1="17.5052631578947367" y1="39.0294736842105262" x2="18.7178947368421051" y2="39.0294736842105262" style="stroke:red;stroke-width:1" />
 <line x1="18.7178947368421051" y1="39.0294736842105262" x2="18.9452631578947367" y2="37.9684210526315789" style="stroke:red;stroke-width:1" />
 <line x1="18.9452631578947367" y1="37.9684210526315789" x2="19.3242105263157894" y2="37.8926315789473683" style="stroke:red;stroke-width:1" />
 <line x1="19.3242105263157894" y1="37.8926315789473683" x2="19.3242105263157894" y2="36.2252631578947367" style="stroke:red;stroke-width:1" />
 <line x1="19.3242105263157894" y1="36.2252631578947367" x2="19.6273684210526315" y2="34.4821052631578946" style="stroke:red;stroke-width:1" />
 <line x1="19.6273684210526315" y1="34.4821052631578946" x2="19.854736842105263" y2="33.4210526315789473" style="stroke:red;stroke-width:1" />
 <line x1="19.854736842105263" y1="33.4210526315789473" x2="20.1578947368421052" y2="32.663157894736842" style="stroke:red;stroke-width:1" />
 <line x1="18.1115789473684209" y1="27.9642105263157894" x2="18.1873684210526315" y2="28.8736842105263157" style="stroke:red;stroke-width:1" />
 <line x1="18.1873684210526315" y1="28.8736842105263157" x2="18.4905263157894736" y2="29.8589473684210525" style="stroke:red;stroke-width:1" />
 <line x1="18.4905263157894736" y1="29.8589473684210525" x2="18.9452631578947367" y2="30.8442105263157894" style="stroke:red;stroke-width:1" />
 <line x1="18.9452631578947367" y1="30.8442105263157894" x2="20.1578947368421052" y2="32.5873684210526315" style="stroke:red;stroke-width:1" />
 <line x1="20.1578947368421052" y1="32.5873684210526315" x2="20.8399999999999999" y2="33.8757894736842104" style="stroke:red;stroke-width:1" />
 <line x1="20.8399999999999999" y1="33.8757894736842104" x2="21.0673684210526315" y2="34.5578947368421052" style="stroke:red;stroke-width:1" />
 <line x1="21.0673684210526315" y1="34.5578947368421052" x2="21.2189473684210525" y2="35.7705263157894736" style="stroke:red;stroke-width:1" />
 <line x1="21.2189473684210525" y1="35.7705263157894736" x2="21.2189473684210525" y2="37.0589473684210525" style="stroke:red;stroke-width:1" />
 <line x1="21.2189473684210525" y1="37.0589473684210525" x2="21.0673684210526315" y2="38.0442105263157894" style="stroke:red;stroke-width:1" />
 <line x1="21.0673684210526315" y1="38.0442105263157894" x2="20.3094736842105262" y2="39.1052631578947368" style="stroke:red;stroke-width:1" />
 <line x1="20.3094736842105262" y1="39.1052631578947368" x2="21.6736842105263157" y2="39.0294736842105262" style="stroke:red;stroke-width:1" />
 <line x1="21.6736842105263157" y1="39.0294736842105262" x2="21.8252631578947367" y2="38.3473684210526315" style="stroke:red;stroke-width:1" />
 <line x1="21.8252631578947367" y1="38.3473684210526315" x2="21.6736842105263157" y2="38.0442105263157894" style="stroke:red;stroke-width:1" />
 <line x1="21.6736842105263157" y1="38.0442105263157894" x2="21.9010526315789473" y2="37.7410526315789473" style="stroke:red;stroke-width:1" />
 <line x1="21.9010526315789473" y1="37.7410526315789473" x2="21.9010526315789473" y2="36.1494736842105262" style="stroke:red;stroke-width:1" />
 <line x1="21.9010526315789473" y1="36.1494736842105262" x2="21.8252631578947367" y2="34.103157894736842" style="stroke:red;stroke-width:1" />
 <line x1="21.8252631578947367" y1="34.103157894736842" x2="21.294736842105263" y2="33.2694736842105262" style="stroke:red;stroke-width:1" />
 <line x1="21.294736842105263" y1="33.2694736842105262" x2="21.0673684210526315" y2="32.2084210526315788" style="stroke:red;stroke-width:1" />
 <line x1="21.0673684210526315" y1="32.2084210526315788" x2="21.0673684210526315" y2="31.2989473684210525" style="stroke:red;stroke-width:1" />
 <line x1="21.0673684210526315" y1="31.2989473684210525" x2="21.143157894736842" y2="30.5410526315789473" style="stroke:red;stroke-width:1" />
 <line x1="21.143157894736842" y1="30.5410526315789473" x2="21.5978947368421052" y2="29.5557894736842104" style="stroke:red;stroke-width:1" />
 <line x1="21.5978947368421052" y1="29.5557894736842104" x2="21.8252631578947367" y2="28.5705263157894736" style="stroke:red;stroke-width:1" />
 <line x1="21.8252631578947367" y1="28.5705263157894736" x2="21.8252631578947367" y2="27.5852631578947367" style="stroke:red;stroke-width:1" />
 <line x1="21.8252631578947367" y1="27.5852631578947367" x2="21.8252631578947367" y2="27.1305263157894736" style="stroke:red;stroke-width:1" />
 <line x1="21.8252631578947367" y1="27.1305263157894736" x2="21.5978947368421052" y2="26.5999999999999999" style="stroke:red;stroke-width:1" />
 <line x1="21.5978947368421052" y1="26.5999999999999999" x2="22.2042105263157894" y2="27.7368421052631578" style="stroke:red;stroke-width:1" />
 <line x1="22.2042105263157894" y1="27.7368421052631578" x2="22.734736842105263" y2="28.7221052631578946" style="stroke:red;stroke-width:1" />
 <line x1="22.734736842105263" y1="28.7221052631578946" x2="23.3410526315789473" y2="30.3894736842105262" style="stroke:red;stroke-width:1" />
 <line x1="23.3410526315789473" y1="30.3894736842105262" x2="23.4926315789473683" y2="31.6778947368421052" style="stroke:red;stroke-width:1" />
 <line x1="23.4926315789473683" y1="31.6778947368421052" x2="23.5684210526315788" y2="32.663157894736842" style="stroke:red;stroke-width:1" />
 <line x1="21.5978947368421052" y1="26.5999999999999999" x2="20.9915789473684209" y2="25.9178947368421052" style="stroke:red;stroke-width:1" />
 <line x1="20.9915789473684209" y1="25.9178947368421052" x2="19.6273684210526315" y2="25.0084210526315788" style="stroke:red;stroke-width:1" />
 <line x1="19.6273684210526315" y1="25.0084210526315788" x2="17.6568421052631578" y2="23.8715789473684209" style="stroke:red;stroke-width:1" />
 <line x1="17.6568421052631578" y1="23.8715789473684209" x2="15.9894736842105262" y2="22.6589473684210525" style="stroke:red;stroke-width:1" />
 <line x1="15.9894736842105262" y1="22.6589473684210525" x2="14.8526315789473683" y2="21.5978947368421052" style="stroke:red;stroke-width:1" />
 <line x1="14.8526315789473683" y1="21.5978947368421052" x2="13.943157894736842" y2="20.5368421052631578" style="stroke:red;stroke-width:1" />
 <line x1="13.943157894736842" y1="20.5368421052631578" x2="13.1852631578947367" y2="19.1726315789473683" style="stroke:red;stroke-width:1" />
 <line x1="13.1852631578947367" y1="19.1726315789473683" x2="12.654736842105263" y2="17.6568421052631578" style="stroke:red;stroke-width:1" />
 <line x1="12.654736842105263" y1="17.6568421052631578" x2="12.3515789473684209" y2="15.9894736842105262" style="stroke:red;stroke-width:1" />
 <line x1="12.3515789473684209" y1="15.9894736842105262" x2="11.8968421052631578" y2="13.1852631578947367" style="stroke:red;stroke-width:1" />
 <line x1="11.8968421052631578" y1="13.1852631578947367" x2="11.6694736842105262" y2="10.2294736842105263" style="stroke:red;stroke-width:1" />
 <line x1="11.6694736842105262" y1="10.2294736842105263" x2="11.5178947368421051" y2="8.86526315789473684" style="stroke:red;stroke-width:1" />
 <line x1="11.5178947368421051" y1="8.86526315789473684" x2="11.214736842105263" y2="7.95578947368421052" style="stroke:red;stroke-width:1" />
 <line x1="11.214736842105263" y1="7.95578947368421052" x2="10.9873684210526315" y2="7.27368421052631579" style="stroke:red;stroke-width:1" />
 <line x1="10.9873684210526315" y1="7.27368421052631579" x2="10.6842105263157894" y2="6.89473684210526316" style="stroke:red;stroke-width:1" />
 <line x1="10.6842105263157894" y1="6.89473684210526316" x2="10.1536842105263157" y2="6.59157894736842105" style="stroke:red;stroke-width:1" />
 <line x1="10.1536842105263157" y1="6.59157894736842105" x2="10.1536842105263157" y2="5.53052631578947368" style="stroke:red;stroke-width:1" />
 <line x1="10.6084210526315789" y1="6.89473684210526316" x2="11.5178947368421051" y2="5.3031578947368421" style="stroke:red;stroke-width:1" />
 <line x1="11.5178947368421051" y1="5.3031578947368421" x2="11.7452631578947367" y2="5.15157894736842105" style="stroke:red;stroke-width:1" />
 <line x1="11.7452631578947367" y1="5.15157894736842105" x2="11.8968421052631578" y2="5.37894736842105263" style="stroke:red;stroke-width:1" />
 <line x1="11.8968421052631578" y1="5.37894736842105263" x2="11.6694736842105262" y2="6.66736842105263158" style="stroke:red;stroke-width:1" />
 <line x1="11.6694736842105262" y1="6.66736842105263158" x2="11.214736842105263" y2="7.95578947368421052" style="stroke:red;stroke-width:1" />
 <line x1="10.0778947368421052" y1="6.59157894736842105" x2="9.39578947368421053" y2="6.51578947368421052" style="stroke:red;stroke-width:1" />
 <line x1="9.39578947368421053" y1="6.51578947368421052" x2="9.39578947368421053" y2="5.53052631578947368" style="stroke:red;stroke-width:1" />
 <line x1="9.47157894736842105" y1="6.51578947368421052" x2="8.78947368421052632" y2="6.66736842105263158" style="stroke:red;stroke-width:1" />
 <line x1="8.78947368421052632" y1="6.66736842105263158" x2="8.33473684210526316" y2="6.97052631578947368" style="stroke:red;stroke-width:1" />
 <line x1="8.33473684210526316" y1="6.97052631578947368" x2="7.95578947368421052" y2="7.19789473684210526" style="stroke:red;stroke-width:1" />
 <line x1="7.95578947368421052" y1="7.19789473684210526" x2="7.34947368421052631" y2="5.22736842105263157" style="stroke:red;stroke-width:1" />
 <line x1="7.34947368421052631" y1="5.22736842105263157" x2="7.42526315789473684" y2="5.07578947368421052" style="stroke:red;stroke-width:1" />
 <line x1="7.42526315789473684" y1="5.07578947368421052" x2="7.65263157894736842" y2="5" style="stroke:red;stroke-width:1" />
 <line x1="7.65263157894736842" y1="5" x2="7.95578947368421052" y2="5.15157894736842105" style="stroke:red;stroke-width:1" />
 <line x1="7.95578947368421052" y1="5.15157894736842105" x2="8.78947368421052632" y2="6.59157894736842105" style="stroke:red;stroke-width:1" />
 <path d="M 8.33473684210526316 8.25894736842105263
          A .303157894736842105 .303157894736842105 0 1 0 8.94105263157894736 8.25894736842105263
          A .303157894736842105 .303157894736842105 0 1 0 8.33473684210526316 8.25894736842105263"
       stroke="red" fill="white" stroke-width="1" fill-opacity="0.0"/>
 <line x1="8.03157894736842105" y1="7.19789473684210526" x2="7.42526315789473684" y2="7.80421052631578947" style="stroke:red;stroke-width:1" />
 <line x1="7.42526315789473684" y1="7.80421052631578947" x2="7.12210526315789473" y2="8.48631578947368421" style="stroke:red;stroke-width:1" />
 <line x1="7.12210526315789473" y1="8.48631578947368421" x2="6.89473684210526316" y2="8.94105263157894737" style="stroke:red;stroke-width:1" />
 <line x1="6.89473684210526316" y1="8.94105263157894737" x2="5" y2="10.911578947368421" style="stroke:red;stroke-width:1" />
 <line x1="5" y1="10.911578947368421" x2="5" y2="11.2905263157894736" style="stroke:red;stroke-width:1" />
 <line x1="5" y1="11.2905263157894736" x2="5" y2="11.5936842105263157" style="stroke:red;stroke-width:1" />
 <line x1="5" y1="11.5936842105263157" x2="5.37894736842105263" y2="11.8210526315789472" style="stroke:red;stroke-width:1" />
 <line x1="5.37894736842105263" y1="11.8210526315789472" x2="5.75789473684210526" y2="11.7452631578947367" style="stroke:red;stroke-width:1" />
 <line x1="5.75789473684210526" y1="11.7452631578947367" x2="7.34947368421052631" y2="10.8357894736842105" style="stroke:red;stroke-width:1" />
 <line x1="7.34947368421052631" y1="10.8357894736842105" x2="8.10736842105263158" y2="10.76" style="stroke:red;stroke-width:1" />
 <line x1="8.10736842105263158" y1="10.76" x2="8.78947368421052632" y2="10.2294736842105263" style="stroke:red;stroke-width:1" />
 <line x1="8.78947368421052632" y1="10.2294736842105263" x2="9.54736842105263158" y2="9.54736842105263158" style="stroke:red;stroke-width:1" />
 <line x1="9.54736842105263158" y1="9.54736842105263158" x2="9.77473684210526316" y2="9.24421052631578947" style="stroke:red;stroke-width:1" />
 <line x1="9.54736842105263158" y1="9.54736842105263158" x2="9.47157894736842105" y2="11.6694736842105262" style="stroke:red;stroke-width:1" />
 <line x1="9.47157894736842105" y1="11.6694736842105262" x2="9.54736842105263158" y2="13.943157894736842" style="stroke:red;stroke-width:1" />
 <line x1="9.54736842105263158" y1="13.943157894736842" x2="9.77473684210526316" y2="16.2926315789473683" style="stroke:red;stroke-width:1" />
 <line x1="9.77473684210526316" y1="16.2926315789473683" x2="9.92631578947368421" y2="18.1115789473684209" style="stroke:red;stroke-width:1" />
 <line x1="9.92631578947368421" y1="18.1115789473684209" x2="10.0778947368421052" y2="20.0821052631578946" style="stroke:red;stroke-width:1" />
 <line x1="10.0778947368421052" y1="20.0821052631578946" x2="10.3810526315789473" y2="21.7494736842105262" style="stroke:red;stroke-width:1" />
 <line x1="10.3810526315789473" y1="21.7494736842105262" x2="10.6084210526315789" y2="22.9621052631578946" style="stroke:red;stroke-width:1" />
 <line x1="10.6084210526315789" y1="22.9621052631578946" x2="11.0631578947368421" y2="23.4168421052631578" style="stroke:red;stroke-width:1" />
 <line x1="11.0631578947368421" y1="23.4168421052631578" x2="7.34947368421052631" y2="38.0442105263157894" style="stroke:red;stroke-width:1" />
 <line x1="7.34947368421052631" y1="38.0442105263157894" x2="6.51578947368421052" y2="38.9536842105263157" style="stroke:red;stroke-width:1" />
 <line x1="6.51578947368421052" y1="38.9536842105263157" x2="8.03157894736842105" y2="39.0294736842105262" style="stroke:red;stroke-width:1" />
 <line x1="8.03157894736842105" y1="39.0294736842105262" x2="8.1831578947368421" y2="38.0442105263157894" style="stroke:red;stroke-width:1" />
 <line x1="8.1831578947368421" y1="38.0442105263157894" x2="8.33473684210526316" y2="37.9684210526315789" style="stroke:red;stroke-width:1" />
 <line x1="8.33473684210526316" y1="37.9684210526315789" x2="8.48631578947368421" y2="37.8168421052631578" style="stroke:red;stroke-width:1" />
 <line x1="8.48631578947368421" y1="37.8168421052631578" x2="9.62315789473684211" y2="32.8147368421052631" style="stroke:red;stroke-width:1" />
 <line x1="9.62315789473684211" y1="32.8147368421052631" x2="10.1536842105263157" y2="30.8442105263157894" style="stroke:red;stroke-width:1" />
 <line x1="10.1536842105263157" y1="30.8442105263157894" x2="10.9873684210526315" y2="27.8884210526315788" style="stroke:red;stroke-width:1" />
 <line x1="19.3999999999999999" y1="11.7452631578947367" x2="30.6168421052631578" y2="11.7452631578947367" style="stroke:red;stroke-width:1" />
 <path d="M 30.6168421052631577 11.7452631578947367
          A 5.60842105263157895 5.60842105263157895 0 1 0 19.3999999999999999 11.7452631578947367"
       stroke="red" fill="white" stroke-width="1" fill-opacity="0.0"/>

</svg>
