<!DOCTYPE svg PUBLIC "-//W3C//DTD SVG 1.1//EN" "http://www.w3.org/Graphics/SVG/1.1/DTD/svg11.dtd">
<svg width="39" height="47" xmlns="http://www.w3.org/2000/svg">
 <!-- Gardiner/Zz376515 at (0,.43478260869565218) in red, scale=.0626086956521739132, mirror=0 -->
 <line x1="5" y1="34.3634782608695651" x2="33.1739130434782608" y2="34.3634782608695651" style="stroke:red;stroke-width:1" />
 <line x1="33.1739130434782608" y1="37.8069565217391303" x2="5" y2="37.8069565217391303" style="stroke:red;stroke-width:1" />
 <line x1="5" y1="41.2504347826086955" x2="33.1739130434782608" y2="41.2504347826086955" style="stroke:red;stroke-width:1" />
 <line x1="8.44347826086956522" y1="34.3634782608695651" x2="8.44347826086956522" y2="41.2504347826086955" style="stroke:red;stroke-width:1" />
 <line x1="13.7652173913043477" y1="34.3634782608695651" x2="13.7652173913043477" y2="41.2504347826086955" style="stroke:red;stroke-width:1" />
 <line x1="19.0869565217391304" y1="34.3634782608695651" x2="19.0869565217391304" y2="41.2504347826086955" style="stroke:red;stroke-width:1" />
 <line x1="24.408695652173913" y1="34.3634782608695651" x2="24.408695652173913" y2="41.2504347826086955" style="stroke:red;stroke-width:1" />
 <line x1="29.7304347826086956" y1="34.3634782608695651" x2="29.7304347826086956" y2="41.2504347826086955" style="stroke:red;stroke-width:1" />
 <line x1="33.048695652173913" y1="20.0260869565217389" x2="5" y2="20.0260869565217389" style="stroke:red;stroke-width:1" />
 <line x1="9.25739130434782609" y1="20.0260869565217389" x2="8.75652173913043479" y2="18.523478260869565" style="stroke:red;stroke-width:1" />
 <line x1="8.75652173913043479" y1="18.523478260869565" x2="7.94260869565217392" y2="17.2713043478260868" style="stroke:red;stroke-width:1" />
 <line x1="7.94260869565217392" y1="17.2713043478260868" x2="6.69043478260869565" y2="16.3321739130434781" style="stroke:red;stroke-width:1" />
 <line x1="6.69043478260869565" y1="16.3321739130434781" x2="5.68869565217391304" y2="16.3321739130434781" style="stroke:red;stroke-width:1" />
 <line x1="5.68869565217391304" y1="16.3321739130434781" x2="5.12521739130434782" y2="16.8956521739130433" style="stroke:red;stroke-width:1" />
 <line x1="5.12521739130434782" y1="16.8956521739130433" x2="5" y2="17.6469565217391302" style="stroke:red;stroke-width:1" />
 <line x1="5" y1="17.6469565217391302" x2="5.25043478260869565" y2="18.8991304347826085" style="stroke:red;stroke-width:1" />
 <line x1="5.25043478260869565" y1="18.8991304347826085" x2="5.62608695652173913" y2="20.0260869565217389" style="stroke:red;stroke-width:1" />
 <line x1="5.62608695652173913" y1="20.0260869565217389" x2="6.75304347826086956" y2="23.7826086956521737" style="stroke:red;stroke-width:1" />
 <line x1="6.75304347826086956" y1="23.7826086956521737" x2="8.75652173913043479" y2="23.7826086956521737" style="stroke:red;stroke-width:1" />
 <line x1="8.75652173913043479" y1="23.7826086956521737" x2="9.25739130434782609" y2="20.0260869565217389" style="stroke:red;stroke-width:1" />
 <line x1="19.0869565217391304" y1="20.0260869565217389" x2="19.0869565217391304" y2="34.3634782608695651" style="stroke:red;stroke-width:1" />
 <line x1="14.5165217391304347" y1="20.0260869565217389" x2="19.0869565217391304" y2="25.9739130434782607" style="stroke:red;stroke-width:1" />
 <line x1="19.0869565217391304" y1="20.0260869565217389" x2="20.5269565217391304" y2="21.9043478260869563" style="stroke:red;stroke-width:1" />
 <line x1="20.5269565217391304" y1="21.9043478260869563" x2="21.4660869565217391" y2="23.9078260869565216" style="stroke:red;stroke-width:1" />
 <line x1="21.4660869565217391" y1="23.9078260869565216" x2="22.217391304347826" y2="25.786086956521739" style="stroke:red;stroke-width:1" />
 <line x1="22.217391304347826" y1="25.786086956521739" x2="22.4678260869565217" y2="26.9756521739130433" style="stroke:red;stroke-width:1" />
 <line x1="22.4678260869565217" y1="26.9756521739130433" x2="22.217391304347826" y2="27.7269565217391303" style="stroke:red;stroke-width:1" />
 <line x1="22.217391304347826" y1="27.7269565217391303" x2="21.7791304347826086" y2="28.1652173913043477" style="stroke:red;stroke-width:1" />
 <line x1="21.7791304347826086" y1="28.1652173913043477" x2="21.1530434782608695" y2="28.2278260869565216" style="stroke:red;stroke-width:1" />
 <line x1="21.1530434782608695" y1="28.2278260869565216" x2="20.5895652173913043" y2="27.8521739130434781" style="stroke:red;stroke-width:1" />
 <line x1="20.5895652173913043" y1="27.8521739130434781" x2="20.9652173913043477" y2="29.1669565217391303" style="stroke:red;stroke-width:1" />
 <line x1="20.9652173913043477" y1="29.1669565217391303" x2="21.0904347826086956" y2="29.9808695652173911" style="stroke:red;stroke-width:1" />
 <line x1="21.0904347826086956" y1="29.9808695652173911" x2="21.0278260869565217" y2="30.6695652173913042" style="stroke:red;stroke-width:1" />
 <line x1="21.0278260869565217" y1="30.6695652173913042" x2="20.4017391304347825" y2="30.9199999999999998" style="stroke:red;stroke-width:1" />
 <line x1="20.4017391304347825" y1="30.9199999999999998" x2="19.7756521739130434" y2="30.6069565217391303" style="stroke:red;stroke-width:1" />
 <line x1="19.7756521739130434" y1="30.6069565217391303" x2="19.0869565217391304" y2="30.106086956521739" style="stroke:red;stroke-width:1" />
 <line x1="9.57043478260869566" y1="13.8904347826086955" x2="9.06956521739130435" y2="13.8904347826086955" style="stroke:red;stroke-width:1" />
 <line x1="9.06956521739130435" y1="13.8904347826086955" x2="8.75652173913043479" y2="13.7026086956521737" style="stroke:red;stroke-width:1" />
 <line x1="8.75652173913043479" y1="13.7026086956521737" x2="8.50608695652173913" y2="13.3895652173913042" style="stroke:red;stroke-width:1" />
 <line x1="8.50608695652173913" y1="13.3895652173913042" x2="8.31826086956521739" y2="13.2643478260869564" style="stroke:red;stroke-width:1" />
 <line x1="8.31826086956521739" y1="13.2643478260869564" x2="7.94260869565217392" y2="13.3269565217391303" style="stroke:red;stroke-width:1" />
 <line x1="7.94260869565217392" y1="13.3269565217391303" x2="7.56695652173913044" y2="13.3269565217391303" style="stroke:red;stroke-width:1" />
 <line x1="7.56695652173913044" y1="13.3269565217391303" x2="7.3791304347826087" y2="13.3269565217391303" style="stroke:red;stroke-width:1" />
 <line x1="7.3791304347826087" y1="13.3269565217391303" x2="7.19130434782608696" y2="13.0139130434782607" style="stroke:red;stroke-width:1" />
 <line x1="7.19130434782608696" y1="13.0139130434782607" x2="7.00347826086956522" y2="12.888695652173913" style="stroke:red;stroke-width:1" />
 <line x1="7.00347826086956522" y1="12.888695652173913" x2="6.69043478260869565" y2="12.8260869565217391" style="stroke:red;stroke-width:1" />
 <line x1="6.69043478260869565" y1="12.8260869565217391" x2="6.37739130434782609" y2="12.8260869565217391" style="stroke:red;stroke-width:1" />
 <line x1="6.37739130434782609" y1="12.8260869565217391" x2="6.12695652173913043" y2="12.7008695652173913" style="stroke:red;stroke-width:1" />
 <line x1="6.12695652173913043" y1="12.7008695652173913" x2="5.93913043478260869" y2="12.6382608695652174" style="stroke:red;stroke-width:1" />
 <line x1="5.93913043478260869" y1="12.6382608695652174" x2="5.56347826086956521" y2="12.5756521739130434" style="stroke:red;stroke-width:1" />
 <line x1="5.56347826086956521" y1="12.5756521739130434" x2="5.5008695652173913" y2="12.7008695652173913" style="stroke:red;stroke-width:1" />
 <line x1="5.5008695652173913" y1="12.7008695652173913" x2="5.62608695652173913" y2="12.888695652173913" style="stroke:red;stroke-width:1" />
 <line x1="5.62608695652173913" y1="12.888695652173913" x2="6.50260869565217391" y2="13.3269565217391303" style="stroke:red;stroke-width:1" />
 <line x1="6.50260869565217391" y1="13.3269565217391303" x2="7.88" y2="14.1408695652173911" style="stroke:red;stroke-width:1" />
 <line x1="7.88" y1="14.1408695652173911" x2="9.00695652173913044" y2="14.8921739130434781" style="stroke:red;stroke-width:1" />
 <line x1="9.00695652173913044" y1="14.8921739130434781" x2="9.88347826086956522" y2="15.5808695652173911" style="stroke:red;stroke-width:1" />
 <line x1="9.88347826086956522" y1="15.5808695652173911" x2="10.5721739130434782" y2="15.8939130434782607" style="stroke:red;stroke-width:1" />
 <line x1="10.5721739130434782" y1="15.8939130434782607" x2="11.448695652173913" y2="16.394782608695652" style="stroke:red;stroke-width:1" />
 <line x1="11.448695652173913" y1="16.394782608695652" x2="12.1373913043478261" y2="16.5199999999999998" style="stroke:red;stroke-width:1" />
 <line x1="12.1373913043478261" y1="16.5199999999999998" x2="12.8260869565217391" y2="16.7704347826086955" style="stroke:red;stroke-width:1" />
 <line x1="13.5147826086956521" y1="15.8939130434782607" x2="13.0765217391304348" y2="16.394782608695652" style="stroke:red;stroke-width:1" />
 <line x1="13.0765217391304348" y1="16.394782608695652" x2="12.8260869565217391" y2="16.7704347826086955" style="stroke:red;stroke-width:1" />
 <line x1="12.8260869565217391" y1="16.7704347826086955" x2="12.7008695652173913" y2="17.2086956521739129" style="stroke:red;stroke-width:1" />
 <line x1="12.7008695652173913" y1="17.2086956521739129" x2="12.7008695652173913" y2="17.7095652173913042" style="stroke:red;stroke-width:1" />
 <line x1="12.7008695652173913" y1="17.7095652173913042" x2="12.7008695652173913" y2="17.9599999999999998" style="stroke:red;stroke-width:1" />
 <line x1="12.7008695652173913" y1="17.9599999999999998" x2="12.5756521739130434" y2="18.2104347826086955" style="stroke:red;stroke-width:1" />
 <line x1="12.5756521739130434" y1="18.2104347826086955" x2="12.3252173913043478" y2="18.2730434782608694" style="stroke:red;stroke-width:1" />
 <line x1="12.3252173913043478" y1="18.2730434782608694" x2="10.5095652173913043" y2="18.3356521739130433" style="stroke:red;stroke-width:1" />
 <line x1="10.5095652173913043" y1="18.3356521739130433" x2="10.1965217391304347" y2="18.3982608695652172" style="stroke:red;stroke-width:1" />
 <line x1="10.1965217391304347" y1="18.3982608695652172" x2="9.94608695652173914" y2="18.5860869565217389" style="stroke:red;stroke-width:1" />
 <line x1="9.94608695652173914" y1="18.5860869565217389" x2="9.82086956521739131" y2="18.8365217391304346" style="stroke:red;stroke-width:1" />
 <line x1="9.82086956521739131" y1="18.8365217391304346" x2="9.7582608695652174" y2="19.0869565217391303" style="stroke:red;stroke-width:1" />
 <line x1="9.7582608695652174" y1="19.0869565217391303" x2="13.2017391304347826" y2="19.0869565217391303" style="stroke:red;stroke-width:1" />
 <line x1="13.2017391304347826" y1="19.0869565217391303" x2="13.6399999999999999" y2="18.9617391304347824" style="stroke:red;stroke-width:1" />
 <line x1="13.6399999999999999" y1="18.9617391304347824" x2="14.1408695652173912" y2="18.7113043478260868" style="stroke:red;stroke-width:1" />
 <line x1="14.1408695652173912" y1="18.7113043478260868" x2="14.3286956521739129" y2="18.3356521739130433" style="stroke:red;stroke-width:1" />
 <line x1="14.3286956521739129" y1="18.3356521739130433" x2="14.5791304347826086" y2="17.834782608695652" style="stroke:red;stroke-width:1" />
 <line x1="14.5791304347826086" y1="17.834782608695652" x2="14.6417391304347825" y2="17.2713043478260868" style="stroke:red;stroke-width:1" />
 <line x1="14.6417391304347825" y1="17.2713043478260868" x2="14.5791304347826086" y2="16.7078260869565215" style="stroke:red;stroke-width:1" />
 <line x1="14.6417391304347825" y1="17.2713043478260868" x2="15.3304347826086956" y2="17.4591304347826085" style="stroke:red;stroke-width:1" />
 <line x1="15.3304347826086956" y1="17.4591304347826085" x2="16.457391304347826" y2="17.6469565217391302" style="stroke:red;stroke-width:1" />
 <line x1="16.457391304347826" y1="17.6469565217391302" x2="17.4591304347826086" y2="17.7095652173913042" style="stroke:red;stroke-width:1" />
 <line x1="17.4591304347826086" y1="17.7095652173913042" x2="18.4608695652173912" y2="17.7721739130434781" style="stroke:red;stroke-width:1" />
 <line x1="18.4608695652173912" y1="17.7721739130434781" x2="19.1495652173913043" y2="17.7721739130434781" style="stroke:red;stroke-width:1" />
 <line x1="20.4017391304347825" y1="15.3930434782608694" x2="19.9008695652173912" y2="15.7686956521739129" style="stroke:red;stroke-width:1" />
 <line x1="19.9008695652173912" y1="15.7686956521739129" x2="19.5252173913043477" y2="16.2069565217391302" style="stroke:red;stroke-width:1" />
 <line x1="19.5252173913043477" y1="16.2069565217391302" x2="19.2121739130434782" y2="16.7078260869565215" style="stroke:red;stroke-width:1" />
 <line x1="19.2121739130434782" y1="16.7078260869565215" x2="19.1495652173913043" y2="17.2086956521739129" style="stroke:red;stroke-width:1" />
 <line x1="19.1495652173913043" y1="17.2086956521739129" x2="19.1495652173913043" y2="17.7721739130434781" style="stroke:red;stroke-width:1" />
 <line x1="19.1495652173913043" y1="17.7721739130434781" x2="19.2121739130434782" y2="18.2730434782608694" style="stroke:red;stroke-width:1" />
 <line x1="19.2121739130434782" y1="18.2730434782608694" x2="17.0834782608695651" y2="18.2730434782608694" style="stroke:red;stroke-width:1" />
 <line x1="17.0834782608695651" y1="18.2730434782608694" x2="16.7078260869565216" y2="18.3356521739130433" style="stroke:red;stroke-width:1" />
 <line x1="16.7078260869565216" y1="18.3356521739130433" x2="16.457391304347826" y2="18.523478260869565" style="stroke:red;stroke-width:1" />
 <line x1="16.457391304347826" y1="18.523478260869565" x2="16.2695652173913043" y2="18.8365217391304346" style="stroke:red;stroke-width:1" />
 <line x1="16.2695652173913043" y1="18.8365217391304346" x2="16.1443478260869564" y2="19.0869565217391303" style="stroke:red;stroke-width:1" />
 <line x1="16.1443478260869564" y1="19.0869565217391303" x2="19.9008695652173912" y2="19.0869565217391303" style="stroke:red;stroke-width:1" />
 <line x1="19.9008695652173912" y1="19.0869565217391303" x2="20.4643478260869564" y2="19.0243478260869563" style="stroke:red;stroke-width:1" />
 <line x1="20.4643478260869564" y1="19.0243478260869563" x2="20.9652173913043477" y2="18.8991304347826085" style="stroke:red;stroke-width:1" />
 <line x1="20.9652173913043477" y1="18.8991304347826085" x2="21.4034782608695651" y2="18.5860869565217389" style="stroke:red;stroke-width:1" />
 <line x1="21.4034782608695651" y1="18.5860869565217389" x2="21.7791304347826086" y2="18.2104347826086955" style="stroke:red;stroke-width:1" />
 <line x1="21.7791304347826086" y1="18.2104347826086955" x2="21.9669565217391304" y2="17.7095652173913042" style="stroke:red;stroke-width:1" />
 <line x1="21.9669565217391304" y1="17.7095652173913042" x2="22.0921739130434782" y2="17.2086956521739129" style="stroke:red;stroke-width:1" />
 <line x1="22.0921739130434782" y1="17.2086956521739129" x2="22.0921739130434782" y2="16.8956521739130433" style="stroke:red;stroke-width:1" />
 <line x1="22.0921739130434782" y1="16.8956521739130433" x2="21.9669565217391304" y2="16.394782608695652" style="stroke:red;stroke-width:1" />
 <line x1="22.0921739130434782" y1="17.2086956521739129" x2="23.657391304347826" y2="17.6469565217391302" style="stroke:red;stroke-width:1" />
 <line x1="23.657391304347826" y1="17.6469565217391302" x2="25.2852173913043478" y2="17.8973913043478259" style="stroke:red;stroke-width:1" />
 <line x1="25.2852173913043478" y1="17.8973913043478259" x2="27.0382608695652173" y2="18.2104347826086955" style="stroke:red;stroke-width:1" />
 <line x1="27.0382608695652173" y1="18.2104347826086955" x2="28.9791304347826086" y2="18.3982608695652172" style="stroke:red;stroke-width:1" />
 <line x1="28.9791304347826086" y1="18.3982608695652172" x2="30.6069565217391304" y2="18.4608695652173911" style="stroke:red;stroke-width:1" />
 <line x1="30.6069565217391304" y1="18.4608695652173911" x2="32.5478260869565217" y2="18.523478260869565" style="stroke:red;stroke-width:1" />
 <line x1="32.5478260869565217" y1="18.523478260869565" x2="32.8608695652173913" y2="18.3982608695652172" style="stroke:red;stroke-width:1" />
 <line x1="32.8608695652173913" y1="18.3982608695652172" x2="32.9860869565217391" y2="18.0226086956521737" style="stroke:red;stroke-width:1" />
 <line x1="32.9860869565217391" y1="18.0226086956521737" x2="32.9234782608695652" y2="17.7095652173913042" style="stroke:red;stroke-width:1" />
 <line x1="32.9234782608695652" y1="17.7095652173913042" x2="32.5478260869565217" y2="17.5843478260869563" style="stroke:red;stroke-width:1" />
 <line x1="32.5478260869565217" y1="17.5843478260869563" x2="31.1704347826086956" y2="17.3965217391304346" style="stroke:red;stroke-width:1" />
 <line x1="31.1704347826086956" y1="17.3965217391304346" x2="29.6678260869565217" y2="17.2086956521739129" style="stroke:red;stroke-width:1" />
 <line x1="29.6678260869565217" y1="17.2086956521739129" x2="28.728695652173913" y2="17.0208695652173911" style="stroke:red;stroke-width:1" />
 <line x1="28.728695652173913" y1="17.0208695652173911" x2="27.9147826086956521" y2="16.8330434782608694" style="stroke:red;stroke-width:1" />
 <line x1="27.9147826086956521" y1="16.8330434782608694" x2="26.7878260869565217" y2="16.4573913043478259" style="stroke:red;stroke-width:1" />
 <line x1="26.7878260869565217" y1="16.4573913043478259" x2="25.5982608695652173" y2="15.9565217391304346" style="stroke:red;stroke-width:1" />
 <line x1="25.5982608695652173" y1="15.9565217391304346" x2="23.8452173913043478" y2="15.2052173913043476" style="stroke:red;stroke-width:1" />
 <line x1="23.8452173913043478" y1="15.2052173913043476" x2="22.217391304347826" y2="14.5165217391304346" style="stroke:red;stroke-width:1" />
 <line x1="22.217391304347826" y1="14.5165217391304346" x2="21.0904347826086956" y2="14.0782608695652172" style="stroke:red;stroke-width:1" />
 <line x1="21.0904347826086956" y1="14.0782608695652172" x2="20.1513043478260869" y2="13.8278260869565215" style="stroke:red;stroke-width:1" />
 <line x1="20.1513043478260869" y1="13.8278260869565215" x2="19.2121739130434782" y2="13.5773913043478259" style="stroke:red;stroke-width:1" />
 <line x1="19.2121739130434782" y1="13.5773913043478259" x2="18.5234782608695651" y2="13.514782608695652" style="stroke:red;stroke-width:1" />
 <line x1="18.5234782608695651" y1="13.514782608695652" x2="17.897391304347826" y2="13.514782608695652" style="stroke:red;stroke-width:1" />
 <line x1="17.897391304347826" y1="13.514782608695652" x2="17.3339130434782608" y2="13.5773913043478259" style="stroke:red;stroke-width:1" />
 <line x1="17.3339130434782608" y1="13.5773913043478259" x2="15.5182608695652173" y2="13.8904347826086955" style="stroke:red;stroke-width:1" />
 <line x1="15.5182608695652173" y1="13.8904347826086955" x2="14.7669565217391303" y2="13.8904347826086955" style="stroke:red;stroke-width:1" />
 <line x1="14.7669565217391303" y1="13.8904347826086955" x2="14.2034782608695651" y2="13.8278260869565215" style="stroke:red;stroke-width:1" />
 <line x1="14.2034782608695651" y1="13.8278260869565215" x2="13.5147826086956521" y2="13.6399999999999998" style="stroke:red;stroke-width:1" />
 <line x1="13.5147826086956521" y1="13.6399999999999998" x2="13.0139130434782608" y2="13.3895652173913042" style="stroke:red;stroke-width:1" />
 <line x1="13.0139130434782608" y1="13.3895652173913042" x2="12.3878260869565217" y2="12.888695652173913" style="stroke:red;stroke-width:1" />
 <line x1="12.3878260869565217" y1="12.888695652173913" x2="11.8869565217391304" y2="12.5756521739130434" style="stroke:red;stroke-width:1" />
 <line x1="11.8869565217391304" y1="12.5756521739130434" x2="11.1982608695652174" y2="12.2626086956521739" style="stroke:red;stroke-width:1" />
 <line x1="11.1982608695652174" y1="12.2626086956521739" x2="10.6347826086956521" y2="12.1373913043478261" style="stroke:red;stroke-width:1" />
 <line x1="10.6347826086956521" y1="12.1373913043478261" x2="10.1339130434782608" y2="12.0747826086956521" style="stroke:red;stroke-width:1" />
 <line x1="10.1339130434782608" y1="12.0747826086956521" x2="9.63304347826086957" y2="12.0747826086956521" style="stroke:red;stroke-width:1" />
 <line x1="9.63304347826086957" y1="12.0747826086956521" x2="8.88173913043478261" y2="12.2" style="stroke:red;stroke-width:1" />
 <line x1="8.88173913043478261" y1="12.2" x2="8.25565217391304348" y2="12.2626086956521739" style="stroke:red;stroke-width:1" />
 <line x1="8.25565217391304348" y1="12.2626086956521739" x2="7.44173913043478261" y2="12.2626086956521739" style="stroke:red;stroke-width:1" />
 <line x1="7.44173913043478261" y1="12.2626086956521739" x2="6.75304347826086956" y2="12.1373913043478261" style="stroke:red;stroke-width:1" />
 <line x1="6.75304347826086956" y1="12.1373913043478261" x2="6.31478260869565217" y2="11.8869565217391304" style="stroke:red;stroke-width:1" />
 <line x1="6.31478260869565217" y1="11.8869565217391304" x2="5.93913043478260869" y2="11.5113043478260869" style="stroke:red;stroke-width:1" />
 <line x1="5.93913043478260869" y1="11.5113043478260869" x2="5.56347826086956521" y2="11.5113043478260869" style="stroke:red;stroke-width:1" />
 <line x1="5.56347826086956521" y1="11.5113043478260869" x2="5.37565217391304347" y2="11.6991304347826087" style="stroke:red;stroke-width:1" />
 <line x1="5.37565217391304347" y1="11.6991304347826087" x2="5.31304347826086956" y2="12.0121739130434782" style="stroke:red;stroke-width:1" />
 <line x1="5.31304347826086956" y1="12.0121739130434782" x2="5.43826086956521739" y2="12.3252173913043478" style="stroke:red;stroke-width:1" />
 <line x1="5.43826086956521739" y1="12.3252173913043478" x2="5.56347826086956521" y2="12.5756521739130434" style="stroke:red;stroke-width:1" />
 <line x1="10.3843478260869565" y1="12.0747826086956521" x2="10.5721739130434782" y2="6.18956521739130435" style="stroke:red;stroke-width:1" />
 <line x1="10.5721739130434782" y1="6.18956521739130435" x2="10.5721739130434782" y2="6.06434782608695652" style="stroke:red;stroke-width:1" />
 <line x1="10.5721739130434782" y1="6.06434782608695652" x2="10.6347826086956521" y2="5.87652173913043478" style="stroke:red;stroke-width:1" />
 <line x1="10.6347826086956521" y1="5.87652173913043478" x2="10.6973913043478261" y2="5.68869565217391304" style="stroke:red;stroke-width:1" />
 <line x1="10.6973913043478261" y1="5.68869565217391304" x2="10.76" y2="5.56347826086956521" style="stroke:red;stroke-width:1" />
 <line x1="10.76" y1="5.56347826086956521" x2="10.8226086956521739" y2="5.5008695652173913" style="stroke:red;stroke-width:1" />
 <line x1="10.8226086956521739" y1="5.5008695652173913" x2="10.9478260869565217" y2="5.31304347826086956" style="stroke:red;stroke-width:1" />
 <line x1="10.9478260869565217" y1="5.31304347826086956" x2="11.0730434782608695" y2="5.25043478260869565" style="stroke:red;stroke-width:1" />
 <line x1="11.0730434782608695" y1="5.25043478260869565" x2="11.1982608695652174" y2="5.18782608695652173" style="stroke:red;stroke-width:1" />
 <line x1="11.1982608695652174" y1="5.18782608695652173" x2="11.2608695652173913" y2="5.12521739130434782" style="stroke:red;stroke-width:1" />
 <line x1="11.2608695652173913" y1="5.12521739130434782" x2="11.3860869565217391" y2="5.06260869565217391" style="stroke:red;stroke-width:1" />
 <line x1="11.3860869565217391" y1="5.06260869565217391" x2="11.5113043478260869" y2="5" style="stroke:red;stroke-width:1" />
 <line x1="11.5113043478260869" y1="5" x2="11.6365217391304347" y2="5" style="stroke:red;stroke-width:1" />
 <line x1="11.6365217391304347" y1="5" x2="11.8243478260869565" y2="5.06260869565217391" style="stroke:red;stroke-width:1" />
 <line x1="11.8243478260869565" y1="5.06260869565217391" x2="11.8869565217391304" y2="5.12521739130434782" style="stroke:red;stroke-width:1" />
 <line x1="11.8869565217391304" y1="5.12521739130434782" x2="12.0121739130434782" y2="5.18782608695652173" style="stroke:red;stroke-width:1" />
 <line x1="12.0121739130434782" y1="5.18782608695652173" x2="12.1373913043478261" y2="5.31304347826086956" style="stroke:red;stroke-width:1" />
 <line x1="12.1373913043478261" y1="5.31304347826086956" x2="12.2" y2="5.43826086956521739" style="stroke:red;stroke-width:1" />
 <line x1="12.2" y1="5.43826086956521739" x2="12.2626086956521739" y2="5.56347826086956521" style="stroke:red;stroke-width:1" />
 <line x1="12.2626086956521739" y1="5.56347826086956521" x2="12.2626086956521739" y2="5.68869565217391304" style="stroke:red;stroke-width:1" />
 <line x1="12.2626086956521739" y1="5.68869565217391304" x2="12.2626086956521739" y2="5.81391304347826087" style="stroke:red;stroke-width:1" />
 <line x1="12.2626086956521739" y1="5.81391304347826087" x2="12.2" y2="5.93913043478260869" style="stroke:red;stroke-width:1" />
 <line x1="12.2" y1="5.93913043478260869" x2="12.1373913043478261" y2="6.06434782608695652" style="stroke:red;stroke-width:1" />
 <line x1="12.1373913043478261" y1="6.06434782608695652" x2="12.0747826086956521" y2="6.12695652173913043" style="stroke:red;stroke-width:1" />
 <line x1="12.0747826086956521" y1="6.12695652173913043" x2="11.9495652173913043" y2="6.18956521739130435" style="stroke:red;stroke-width:1" />
 <line x1="11.9495652173913043" y1="6.18956521739130435" x2="11.8243478260869565" y2="6.25217391304347826" style="stroke:red;stroke-width:1" />
 <line x1="11.8243478260869565" y1="6.25217391304347826" x2="11.6365217391304347" y2="6.37739130434782609" style="stroke:red;stroke-width:1" />
 <line x1="11.6365217391304347" y1="6.37739130434782609" x2="12.0747826086956521" y2="9.7582608695652174" style="stroke:red;stroke-width:1" />
 <line x1="12.0747826086956521" y1="9.7582608695652174" x2="11.8869565217391304" y2="9.7582608695652174" style="stroke:red;stroke-width:1" />
 <line x1="11.8869565217391304" y1="9.7582608695652174" x2="11.6365217391304347" y2="9.82086956521739131" style="stroke:red;stroke-width:1" />
 <line x1="11.6365217391304347" y1="9.82086956521739131" x2="11.5113043478260869" y2="9.82086956521739131" style="stroke:red;stroke-width:1" />
 <line x1="11.5113043478260869" y1="9.82086956521739131" x2="11.3860869565217391" y2="9.88347826086956522" style="stroke:red;stroke-width:1" />
 <line x1="11.3860869565217391" y1="9.88347826086956522" x2="11.1982608695652174" y2="9.94608695652173914" style="stroke:red;stroke-width:1" />
 <line x1="11.1982608695652174" y1="9.94608695652173914" x2="11.0730434782608695" y2="10.0713043478260869" style="stroke:red;stroke-width:1" />
 <line x1="11.0730434782608695" y1="10.0713043478260869" x2="10.8852173913043478" y2="10.1339130434782608" style="stroke:red;stroke-width:1" />
 <line x1="10.8852173913043478" y1="10.1339130434782608" x2="10.8226086956521739" y2="10.2591304347826087" style="stroke:red;stroke-width:1" />
 <line x1="10.8226086956521739" y1="10.2591304347826087" x2="10.76" y2="10.3217391304347826" style="stroke:red;stroke-width:1" />
 <line x1="10.76" y1="10.3217391304347826" x2="10.6973913043478261" y2="10.4469565217391304" style="stroke:red;stroke-width:1" />
 <line x1="10.6973913043478261" y1="10.4469565217391304" x2="10.6973913043478261" y2="12.0747826086956521" style="stroke:red;stroke-width:1" />
 <line x1="10.6973913043478261" y1="12.0747826086956521" x2="10.3843478260869565" y2="12.0747826086956521" style="stroke:red;stroke-width:1" />
 <line x1="20.3391304347826086" y1="14.0156521739130433" x2="18.9617391304347825" y2="9.13217391304347827" style="stroke:red;stroke-width:1" />
 <line x1="18.9617391304347825" y1="9.13217391304347827" x2="19.8382608695652173" y2="8.56869565217391305" style="stroke:red;stroke-width:1" />
 <line x1="19.8382608695652173" y1="8.56869565217391305" x2="19.9634782608695651" y2="8.44347826086956522" style="stroke:red;stroke-width:1" />
 <line x1="19.9634782608695651" y1="8.44347826086956522" x2="20.026086956521739" y2="8.25565217391304348" style="stroke:red;stroke-width:1" />
 <line x1="20.026086956521739" y1="8.25565217391304348" x2="20.026086956521739" y2="6.44" style="stroke:red;stroke-width:1" />
 <line x1="20.026086956521739" y1="6.44" x2="20.088695652173913" y2="6.37739130434782609" style="stroke:red;stroke-width:1" />
 <line x1="20.088695652173913" y1="6.37739130434782609" x2="20.2139130434782608" y2="6.37739130434782609" style="stroke:red;stroke-width:1" />
 <line x1="20.2139130434782608" y1="6.37739130434782609" x2="20.3391304347826086" y2="6.44" style="stroke:red;stroke-width:1" />
 <line x1="20.3391304347826086" y1="6.44" x2="20.3391304347826086" y2="14.0156521739130433" style="stroke:red;stroke-width:1" />

</svg>
