<!DOCTYPE svg PUBLIC "-//W3C//DTD SVG 1.1//EN" "http://www.w3.org/Graphics/SVG/1.1/DTD/svg11.dtd">
<svg width="26" height="46" xmlns="http://www.w3.org/2000/svg">
 <!-- Gardiner/Zz376515 at (0,2.8) in green, scale=.08, mirror=0 -->
 <line x1="13.96" y1="27.24" x2="13.08" y2="22.6" style="stroke:green;stroke-width:1" />
 <line x1="13.08" y1="22.6" x2="13.72" y2="18.76" style="stroke:green;stroke-width:1" />
 <line x1="13.72" y1="18.76" x2="14.2" y2="18.44" style="stroke:green;stroke-width:1" />
 <line x1="14.2" y1="18.44" x2="14.68" y2="18.6" style="stroke:green;stroke-width:1" />
 <line x1="14.68" y1="18.6" x2="15.16" y2="19.16" style="stroke:green;stroke-width:1" />
 <line x1="15.16" y1="19.16" x2="16.28" y2="21" style="stroke:green;stroke-width:1" />
 <line x1="16.28" y1="21" x2="16.68" y2="22.04" style="stroke:green;stroke-width:1" />
 <line x1="16.68" y1="22.04" x2="16.84" y2="23.08" style="stroke:green;stroke-width:1" />
 <line x1="16.84" y1="23.08" x2="16.84" y2="24.2" style="stroke:green;stroke-width:1" />
 <line x1="16.84" y1="24.2" x2="16.68" y2="25.32" style="stroke:green;stroke-width:1" />
 <line x1="16.68" y1="25.32" x2="16.12" y2="27.24" style="stroke:green;stroke-width:1" />
 <line x1="16.12" y1="27.24" x2="15.4" y2="29.24" style="stroke:green;stroke-width:1" />
 <line x1="15.4" y1="29.24" x2="15.56" y2="29.88" style="stroke:green;stroke-width:1" />
 <line x1="15.56" y1="29.88" x2="16.04" y2="30.04" style="stroke:green;stroke-width:1" />
 <line x1="16.04" y1="30.04" x2="16.84" y2="29.96" style="stroke:green;stroke-width:1" />
 <line x1="16.84" y1="29.96" x2="18.52" y2="24.6" style="stroke:green;stroke-width:1" />
 <line x1="18.52" y1="24.6" x2="18.6" y2="23.08" style="stroke:green;stroke-width:1" />
 <line x1="18.6" y1="23.08" x2="18.36" y2="21.64" style="stroke:green;stroke-width:1" />
 <line x1="18.36" y1="21.64" x2="17.72" y2="20.28" style="stroke:green;stroke-width:1" />
 <line x1="17.72" y1="20.28" x2="17.08" y2="19.08" style="stroke:green;stroke-width:1" />
 <line x1="17.08" y1="19.08" x2="16.12" y2="18.04" style="stroke:green;stroke-width:1" />
 <line x1="16.12" y1="18.04" x2="15" y2="17.4" style="stroke:green;stroke-width:1" />
 <line x1="15" y1="17.4" x2="13.72" y2="17" style="stroke:green;stroke-width:1" />
 <line x1="13.72" y1="17" x2="13.16" y2="16.36" style="stroke:green;stroke-width:1" />
 <line x1="13.16" y1="16.36" x2="12.92" y2="15.4" style="stroke:green;stroke-width:1" />
 <line x1="12.92" y1="15.4" x2="12.92" y2="13.88" style="stroke:green;stroke-width:1" />
 <line x1="12.92" y1="13.88" x2="13.16" y2="12.92" style="stroke:green;stroke-width:1" />
 <line x1="13.16" y1="12.92" x2="13.72" y2="11.96" style="stroke:green;stroke-width:1" />
 <line x1="13.72" y1="11.96" x2="13.8" y2="11.16" style="stroke:green;stroke-width:1" />
 <line x1="13.8" y1="11.16" x2="13.48" y2="10.76" style="stroke:green;stroke-width:1" />
 <line x1="13.48" y1="10.76" x2="13.08" y2="10.12" style="stroke:green;stroke-width:1" />
 <line x1="13.08" y1="10.12" x2="13.08" y2="9.48" style="stroke:green;stroke-width:1" />
 <line x1="13.08" y1="9.48" x2="13.56" y2="8.76" style="stroke:green;stroke-width:1" />
 <line x1="13.56" y1="8.76" x2="14.36" y2="8.04" style="stroke:green;stroke-width:1" />
 <line x1="14.36" y1="8.04" x2="15" y2="8.04" style="stroke:green;stroke-width:1" />
 <line x1="15" y1="8.04" x2="15.48" y2="8.44" style="stroke:green;stroke-width:1" />
 <line x1="15.48" y1="8.44" x2="15.88" y2="9.08" style="stroke:green;stroke-width:1" />
 <line x1="15.88" y1="9.08" x2="15.96" y2="10.04" style="stroke:green;stroke-width:1" />
 <line x1="15.96" y1="10.04" x2="16.04" y2="11.96" style="stroke:green;stroke-width:1" />
 <line x1="16.04" y1="11.96" x2="16.04" y2="12.52" style="stroke:green;stroke-width:1" />
 <line x1="16.04" y1="12.52" x2="16.44" y2="12.84" style="stroke:green;stroke-width:1" />
 <line x1="16.44" y1="12.84" x2="16.84" y2="12.44" style="stroke:green;stroke-width:1" />
 <line x1="16.84" y1="12.44" x2="17.08" y2="11.4" style="stroke:green;stroke-width:1" />
 <line x1="17.08" y1="11.4" x2="17.24" y2="10.04" style="stroke:green;stroke-width:1" />
 <line x1="17.24" y1="10.04" x2="17.08" y2="8.76" style="stroke:green;stroke-width:1" />
 <line x1="17.08" y1="8.76" x2="16.44" y2="7.64" style="stroke:green;stroke-width:1" />
 <line x1="16.44" y1="7.64" x2="15.8" y2="6.92" style="stroke:green;stroke-width:1" />
 <line x1="15.8" y1="6.92" x2="15" y2="6.76" style="stroke:green;stroke-width:1" />
 <line x1="15" y1="6.76" x2="14.28" y2="6.92" style="stroke:green;stroke-width:1" />
 <line x1="14.28" y1="6.92" x2="13.32" y2="7.48" style="stroke:green;stroke-width:1" />
 <line x1="13.32" y1="7.48" x2="12.52" y2="8.28" style="stroke:green;stroke-width:1" />
 <line x1="12.52" y1="8.28" x2="11.88" y2="9.16" style="stroke:green;stroke-width:1" />
 <line x1="11.88" y1="9.16" x2="11.4" y2="9" style="stroke:green;stroke-width:1" />
 <line x1="11.4" y1="9" x2="11.8" y2="8.04" style="stroke:green;stroke-width:1" />
 <line x1="11.8" y1="8.04" x2="12.68" y2="7.08" style="stroke:green;stroke-width:1" />
 <line x1="12.68" y1="7.08" x2="13.56" y2="6.52" style="stroke:green;stroke-width:1" />
 <line x1="13.56" y1="6.52" x2="14.68" y2="6.2" style="stroke:green;stroke-width:1" />
 <line x1="14.68" y1="6.2" x2="15.96" y2="5.96" style="stroke:green;stroke-width:1" />
 <line x1="15.96" y1="5.96" x2="19.4" y2="5.88" style="stroke:green;stroke-width:1" />
 <line x1="19.4" y1="5.88" x2="19.96" y2="5.8" style="stroke:green;stroke-width:1" />
 <line x1="19.96" y1="5.8" x2="20.12" y2="5.08" style="stroke:green;stroke-width:1" />
 <line x1="20.12" y1="5.08" x2="19.4" y2="5" style="stroke:green;stroke-width:1" />
 <line x1="19.4" y1="5" x2="16.44" y2="5.08" style="stroke:green;stroke-width:1" />
 <line x1="16.44" y1="5.08" x2="14.68" y2="5.16" style="stroke:green;stroke-width:1" />
 <line x1="14.68" y1="5.16" x2="13" y2="5.56" style="stroke:green;stroke-width:1" />
 <line x1="13" y1="5.56" x2="11.72" y2="6.28" style="stroke:green;stroke-width:1" />
 <line x1="11.72" y1="6.28" x2="10.84" y2="7.08" style="stroke:green;stroke-width:1" />
 <line x1="10.84" y1="7.08" x2="9.96" y2="8.44" style="stroke:green;stroke-width:1" />
 <line x1="9.96" y1="8.44" x2="9.72" y2="9.48" style="stroke:green;stroke-width:1" />
 <line x1="9.72" y1="9.48" x2="9.56" y2="10.36" style="stroke:green;stroke-width:1" />
 <line x1="9.56" y1="10.36" x2="8.6" y2="11.4" style="stroke:green;stroke-width:1" />
 <line x1="8.6" y1="11.4" x2="8.12" y2="12.52" style="stroke:green;stroke-width:1" />
 <line x1="8.12" y1="12.52" x2="8.04" y2="13.4" style="stroke:green;stroke-width:1" />
 <line x1="8.04" y1="13.4" x2="8.2" y2="14.12" style="stroke:green;stroke-width:1" />
 <line x1="8.2" y1="14.12" x2="8.92" y2="14.2" style="stroke:green;stroke-width:1" />
 <line x1="8.92" y1="14.2" x2="9.64" y2="14.52" style="stroke:green;stroke-width:1" />
 <line x1="9.64" y1="14.52" x2="10.12" y2="15.08" style="stroke:green;stroke-width:1" />
 <line x1="10.12" y1="15.08" x2="10.2" y2="15.72" style="stroke:green;stroke-width:1" />
 <line x1="10.2" y1="15.72" x2="10.04" y2="16.28" style="stroke:green;stroke-width:1" />
 <line x1="10.04" y1="16.28" x2="9.32" y2="16.68" style="stroke:green;stroke-width:1" />
 <line x1="9.32" y1="16.68" x2="8.52" y2="17.08" style="stroke:green;stroke-width:1" />
 <line x1="8.52" y1="17.08" x2="7.24" y2="17.96" style="stroke:green;stroke-width:1" />
 <line x1="7.24" y1="17.96" x2="6.12" y2="19.24" style="stroke:green;stroke-width:1" />
 <line x1="6.12" y1="19.24" x2="5.48" y2="20.52" style="stroke:green;stroke-width:1" />
 <line x1="5.48" y1="20.52" x2="5.08" y2="21.96" style="stroke:green;stroke-width:1" />
 <line x1="5.08" y1="21.96" x2="5" y2="23.32" style="stroke:green;stroke-width:1" />
 <line x1="5" y1="23.32" x2="5.08" y2="24.68" style="stroke:green;stroke-width:1" />
 <line x1="5.08" y1="24.68" x2="5.56" y2="26.28" style="stroke:green;stroke-width:1" />
 <line x1="5.56" y1="26.28" x2="7.48" y2="29.96" style="stroke:green;stroke-width:1" />
 <line x1="7.48" y1="29.96" x2="7.48" y2="31" style="stroke:green;stroke-width:1" />
 <line x1="7.48" y1="31" x2="9.72" y2="32.44" style="stroke:green;stroke-width:1" />
 <line x1="11" y1="33.4" x2="11.8" y2="33.8" style="stroke:green;stroke-width:1" />
 <line x1="12.6" y1="35.32" x2="12.68" y2="36.28" style="stroke:green;stroke-width:1" />
 <line x1="12.68" y1="36.28" x2="12.36" y2="37" style="stroke:green;stroke-width:1" />
 <line x1="12.36" y1="37" x2="11.72" y2="37.16" style="stroke:green;stroke-width:1" />
 <line x1="11.72" y1="37.16" x2="9.64" y2="37.56" style="stroke:green;stroke-width:1" />
 <line x1="9.64" y1="37.56" x2="9.24" y2="37.88" style="stroke:green;stroke-width:1" />
 <line x1="9.24" y1="37.88" x2="9.72" y2="38.28" style="stroke:green;stroke-width:1" />
 <line x1="9.72" y1="38.28" x2="13.72" y2="38.2" style="stroke:green;stroke-width:1" />
 <line x1="13.72" y1="38.2" x2="13.96" y2="37.64" style="stroke:green;stroke-width:1" />
 <line x1="13.96" y1="37.64" x2="13.96" y2="37" style="stroke:green;stroke-width:1" />
 <line x1="13.96" y1="37" x2="13.96" y2="36.52" style="stroke:green;stroke-width:1" />
 <line x1="13.96" y1="36.52" x2="14.28" y2="35.88" style="stroke:green;stroke-width:1" />
 <line x1="14.68" y1="35.8" x2="16.36" y2="37.08" style="stroke:green;stroke-width:1" />
 <line x1="16.36" y1="37.08" x2="16.44" y2="37.64" style="stroke:green;stroke-width:1" />
 <line x1="16.44" y1="37.64" x2="15.48" y2="39.32" style="stroke:green;stroke-width:1" />
 <line x1="15.48" y1="39.32" x2="15.56" y2="40.04" style="stroke:green;stroke-width:1" />
 <line x1="15.56" y1="40.04" x2="16.12" y2="39.72" style="stroke:green;stroke-width:1" />
 <line x1="16.12" y1="39.72" x2="18.12" y2="37.24" style="stroke:green;stroke-width:1" />
 <line x1="18.12" y1="37.24" x2="17.96" y2="36.6" style="stroke:green;stroke-width:1" />
 <line x1="17.96" y1="36.6" x2="16.92" y2="35.88" style="stroke:green;stroke-width:1" />
 <line x1="16.92" y1="35.88" x2="15.08" y2="34.28" style="stroke:green;stroke-width:1" />
 <line x1="10.84" y1="31.16" x2="9.4" y2="30.28" style="stroke:green;stroke-width:1" />
 <line x1="9.4" y1="30.28" x2="11.4" y2="27" style="stroke:green;stroke-width:1" />
 <line x1="11.4" y1="27" x2="11.72" y2="28.84" style="stroke:green;stroke-width:1" />
 <line x1="8.44" y1="28.28" x2="10.84" y2="24.28" style="stroke:green;stroke-width:1" />
 <line x1="10.84" y1="24.28" x2="9.96" y2="20.68" style="stroke:green;stroke-width:1" />
 <line x1="9.96" y1="20.68" x2="9.56" y2="19" style="stroke:green;stroke-width:1" />
 <line x1="9.56" y1="19" x2="8.92" y2="18.6" style="stroke:green;stroke-width:1" />
 <line x1="8.92" y1="18.6" x2="8.52" y2="18.76" style="stroke:green;stroke-width:1" />
 <line x1="8.52" y1="18.76" x2="7.48" y2="19.88" style="stroke:green;stroke-width:1" />
 <line x1="7.48" y1="19.88" x2="6.76" y2="20.92" style="stroke:green;stroke-width:1" />
 <line x1="6.76" y1="20.92" x2="6.52" y2="22.36" style="stroke:green;stroke-width:1" />
 <line x1="6.52" y1="22.36" x2="6.68" y2="23.72" style="stroke:green;stroke-width:1" />
 <line x1="6.68" y1="23.72" x2="6.92" y2="25" style="stroke:green;stroke-width:1" />
 <line x1="6.92" y1="25" x2="7.48" y2="26.52" style="stroke:green;stroke-width:1" />
 <line x1="7.48" y1="26.52" x2="8.52" y2="28.2" style="stroke:green;stroke-width:1" />

</svg>
