<!DOCTYPE svg PUBLIC "-//W3C//DTD SVG 1.1//EN" "http://www.w3.org/Graphics/SVG/1.1/DTD/svg11.dtd">
<svg width="39" height="47" xmlns="http://www.w3.org/2000/svg">
 <!-- Gardiner/Zz376515 at (0,.40707964601769912) in red, scale=.0637168141592920356, mirror=0 -->
 <line x1="5" y1="34.2460176991150442" x2="33.672566371681416" y2="34.2460176991150442" style="stroke:red;stroke-width:1" />
 <line x1="33.672566371681416" y1="37.7504424778761061" x2="5" y2="37.7504424778761061" style="stroke:red;stroke-width:1" />
 <line x1="5" y1="41.2548672566371681" x2="33.672566371681416" y2="41.2548672566371681" style="stroke:red;stroke-width:1" />
 <line x1="8.50442477876106195" y1="34.2460176991150442" x2="8.50442477876106195" y2="41.2548672566371681" style="stroke:red;stroke-width:1" />
 <line x1="13.9203539823008849" y1="34.2460176991150442" x2="13.9203539823008849" y2="41.2548672566371681" style="stroke:red;stroke-width:1" />
 <line x1="19.336283185840708" y1="34.2460176991150442" x2="19.336283185840708" y2="41.2548672566371681" style="stroke:red;stroke-width:1" />
 <line x1="24.752212389380531" y1="34.2460176991150442" x2="24.752212389380531" y2="41.2548672566371681" style="stroke:red;stroke-width:1" />
 <line x1="30.168141592920354" y1="34.2460176991150442" x2="30.168141592920354" y2="41.2548672566371681" style="stroke:red;stroke-width:1" />
 <line x1="33.5451327433628319" y1="19.654867256637168" x2="5" y2="19.654867256637168" style="stroke:red;stroke-width:1" />
 <line x1="9.33274336283185842" y1="19.654867256637168" x2="8.82300884955752213" y2="18.1256637168141592" style="stroke:red;stroke-width:1" />
 <line x1="8.82300884955752213" y1="18.1256637168141592" x2="7.99469026548672567" y2="16.8513274336283185" style="stroke:red;stroke-width:1" />
 <line x1="7.99469026548672567" y1="16.8513274336283185" x2="6.72035398230088496" y2="15.8955752212389379" style="stroke:red;stroke-width:1" />
 <line x1="6.72035398230088496" y1="15.8955752212389379" x2="5.70088495575221239" y2="15.8955752212389379" style="stroke:red;stroke-width:1" />
 <line x1="5.70088495575221239" y1="15.8955752212389379" x2="5.12743362831858407" y2="16.4690265486725662" style="stroke:red;stroke-width:1" />
 <line x1="5.12743362831858407" y1="16.4690265486725662" x2="5" y2="17.2336283185840707" style="stroke:red;stroke-width:1" />
 <line x1="5" y1="17.2336283185840707" x2="5.25486725663716814" y2="18.5079646017699114" style="stroke:red;stroke-width:1" />
 <line x1="5.25486725663716814" y1="18.5079646017699114" x2="5.63716814159292035" y2="19.654867256637168" style="stroke:red;stroke-width:1" />
 <line x1="5.63716814159292035" y1="19.654867256637168" x2="6.78407079646017699" y2="23.4778761061946902" style="stroke:red;stroke-width:1" />
 <line x1="6.78407079646017699" y1="23.4778761061946902" x2="8.82300884955752213" y2="23.4778761061946902" style="stroke:red;stroke-width:1" />
 <line x1="8.82300884955752213" y1="23.4778761061946902" x2="9.33274336283185842" y2="19.654867256637168" style="stroke:red;stroke-width:1" />
 <line x1="19.336283185840708" y1="19.654867256637168" x2="19.336283185840708" y2="34.2460176991150442" style="stroke:red;stroke-width:1" />
 <line x1="14.6849557522123894" y1="19.654867256637168" x2="19.336283185840708" y2="25.7079646017699114" style="stroke:red;stroke-width:1" />
 <line x1="19.336283185840708" y1="19.654867256637168" x2="20.8017699115044248" y2="21.5663716814159291" style="stroke:red;stroke-width:1" />
 <line x1="20.8017699115044248" y1="21.5663716814159291" x2="21.7575221238938053" y2="23.6053097345132742" style="stroke:red;stroke-width:1" />
 <line x1="21.7575221238938053" y1="23.6053097345132742" x2="22.5221238938053097" y2="25.5168141592920353" style="stroke:red;stroke-width:1" />
 <line x1="22.5221238938053097" y1="25.5168141592920353" x2="22.7769911504424779" y2="26.727433628318584" style="stroke:red;stroke-width:1" />
 <line x1="22.7769911504424779" y1="26.727433628318584" x2="22.5221238938053097" y2="27.4920353982300884" style="stroke:red;stroke-width:1" />
 <line x1="22.5221238938053097" y1="27.4920353982300884" x2="22.0761061946902655" y2="27.9380530973451327" style="stroke:red;stroke-width:1" />
 <line x1="22.0761061946902655" y1="27.9380530973451327" x2="21.4389380530973451" y2="28.0017699115044247" style="stroke:red;stroke-width:1" />
 <line x1="21.4389380530973451" y1="28.0017699115044247" x2="20.8654867256637168" y2="27.6194690265486725" style="stroke:red;stroke-width:1" />
 <line x1="20.8654867256637168" y1="27.6194690265486725" x2="21.247787610619469" y2="28.9575221238938052" style="stroke:red;stroke-width:1" />
 <line x1="21.247787610619469" y1="28.9575221238938052" x2="21.3752212389380531" y2="29.7858407079646017" style="stroke:red;stroke-width:1" />
 <line x1="21.3752212389380531" y1="29.7858407079646017" x2="21.3115044247787611" y2="30.4867256637168141" style="stroke:red;stroke-width:1" />
 <line x1="21.3115044247787611" y1="30.4867256637168141" x2="20.6743362831858407" y2="30.7415929203539822" style="stroke:red;stroke-width:1" />
 <line x1="20.6743362831858407" y1="30.7415929203539822" x2="20.0371681415929203" y2="30.423008849557522" style="stroke:red;stroke-width:1" />
 <line x1="20.0371681415929203" y1="30.423008849557522" x2="19.336283185840708" y2="29.9132743362831858" style="stroke:red;stroke-width:1" />
 <line x1="15.2584070796460177" y1="5.25486725663716814" x2="15.6407079646017699" y2="5.38230088495575221" style="stroke:red;stroke-width:1" />
 <line x1="15.6407079646017699" y1="5.38230088495575221" x2="16.0867256637168141" y2="5.57345132743362832" style="stroke:red;stroke-width:1" />
 <line x1="16.0867256637168141" y1="5.57345132743362832" x2="16.4690265486725663" y2="6.01946902654867256" style="stroke:red;stroke-width:1" />
 <line x1="16.4690265486725663" y1="6.01946902654867256" x2="16.9150442477876106" y2="6.59292035398230089" style="stroke:red;stroke-width:1" />
 <line x1="16.9150442477876106" y1="6.59292035398230089" x2="17.2336283185840708" y2="7.10265486725663717" style="stroke:red;stroke-width:1" />
 <line x1="17.2336283185840708" y1="7.10265486725663717" x2="17.552212389380531" y2="7.48495575221238938" style="stroke:red;stroke-width:1" />
 <line x1="17.552212389380531" y1="7.48495575221238938" x2="17.9345132743362832" y2="7.73982300884955753" style="stroke:red;stroke-width:1" />
 <line x1="17.9345132743362832" y1="7.73982300884955753" x2="18.2530973451327433" y2="7.8672566371681416" style="stroke:red;stroke-width:1" />
 <line x1="18.2530973451327433" y1="7.8672566371681416" x2="18.4442477876106195" y2="7.93097345132743363" style="stroke:red;stroke-width:1" />
 <line x1="18.4442477876106195" y1="7.93097345132743363" x2="18.8265486725663717" y2="7.80353982300884956" style="stroke:red;stroke-width:1" />
 <line x1="18.8265486725663717" y1="7.80353982300884956" x2="19.1451327433628318" y2="7.61238938053097345" style="stroke:red;stroke-width:1" />
 <line x1="19.1451327433628318" y1="7.61238938053097345" x2="19.463716814159292" y2="7.35752212389380531" style="stroke:red;stroke-width:1" />
 <line x1="19.463716814159292" y1="7.35752212389380531" x2="19.7185840707964602" y2="7.03893805309734513" style="stroke:red;stroke-width:1" />
 <line x1="19.7185840707964602" y1="7.03893805309734513" x2="20.1008849557522124" y2="6.21061946902654867" style="stroke:red;stroke-width:1" />
 <line x1="20.1008849557522124" y1="6.21061946902654867" x2="20.3557522123893805" y2="5.82831858407079646" style="stroke:red;stroke-width:1" />
 <line x1="20.3557522123893805" y1="5.82831858407079646" x2="20.6106194690265487" y2="5.44601769911504424" style="stroke:red;stroke-width:1" />
 <line x1="20.6106194690265487" y1="5.44601769911504424" x2="20.9292035398230088" y2="5.1911504424778761" style="stroke:red;stroke-width:1" />
 <line x1="20.9292035398230088" y1="5.1911504424778761" x2="21.3752212389380531" y2="5" style="stroke:red;stroke-width:1" />
 <line x1="19.8460176991150442" y1="9.14159292035398231" x2="20.4194690265486726" y2="8.44070796460176992" style="stroke:red;stroke-width:1" />
 <line x1="20.4194690265486726" y1="8.44070796460176992" x2="20.6106194690265487" y2="8.12212389380530974" style="stroke:red;stroke-width:1" />
 <line x1="20.6106194690265487" y1="8.12212389380530974" x2="20.6743362831858407" y2="7.93097345132743363" style="stroke:red;stroke-width:1" />
 <line x1="20.6743362831858407" y1="7.93097345132743363" x2="20.6106194690265487" y2="7.80353982300884956" style="stroke:red;stroke-width:1" />
 <line x1="20.6106194690265487" y1="7.80353982300884956" x2="20.3557522123893805" y2="7.80353982300884956" style="stroke:red;stroke-width:1" />
 <line x1="20.3557522123893805" y1="7.80353982300884956" x2="20.0371681415929203" y2="7.8672566371681416" style="stroke:red;stroke-width:1" />
 <line x1="20.0371681415929203" y1="7.8672566371681416" x2="19.7185840707964602" y2="8.0584070796460177" style="stroke:red;stroke-width:1" />
 <line x1="19.7185840707964602" y1="8.0584070796460177" x2="19.2088495575221239" y2="8.50442477876106195" style="stroke:red;stroke-width:1" />
 <line x1="19.7185840707964602" y1="8.0584070796460177" x2="19.2088495575221239" y2="7.93097345132743363" style="stroke:red;stroke-width:1" />
 <line x1="19.2088495575221239" y1="7.93097345132743363" x2="18.4442477876106195" y2="7.93097345132743363" style="stroke:red;stroke-width:1" />
 <line x1="18.4442477876106195" y1="7.93097345132743363" x2="17.9982300884955752" y2="7.99469026548672567" style="stroke:red;stroke-width:1" />
 <line x1="17.9982300884955752" y1="7.99469026548672567" x2="17.615929203539823" y2="8.31327433628318585" style="stroke:red;stroke-width:1" />
 <line x1="17.615929203539823" y1="8.31327433628318585" x2="17.1699115044247787" y2="9.07787610619469027" style="stroke:red;stroke-width:1" />
 <line x1="17.1699115044247787" y1="9.07787610619469027" x2="16.7238938053097345" y2="9.52389380530973452" style="stroke:red;stroke-width:1" />
 <line x1="16.7238938053097345" y1="9.52389380530973452" x2="15.831858407079646" y2="10.415929203539823" style="stroke:red;stroke-width:1" />
 <line x1="15.831858407079646" y1="10.415929203539823" x2="15.6407079646017699" y2="10.7345132743362832" style="stroke:red;stroke-width:1" />
 <line x1="15.6407079646017699" y1="10.7345132743362832" x2="15.7044247787610619" y2="11.1168141592920354" style="stroke:red;stroke-width:1" />
 <line x1="15.7044247787610619" y1="11.1168141592920354" x2="15.9592920353982301" y2="11.3716814159292035" style="stroke:red;stroke-width:1" />
 <line x1="15.9592920353982301" y1="11.3716814159292035" x2="16.0867256637168141" y2="11.4991150442477876" style="stroke:red;stroke-width:1" />
 <line x1="16.0867256637168141" y1="11.4991150442477876" x2="16.3415929203539823" y2="11.6265486725663717" style="stroke:red;stroke-width:1" />
 <line x1="16.3415929203539823" y1="11.6265486725663717" x2="16.7876106194690265" y2="11.5628318584070796" style="stroke:red;stroke-width:1" />
 <line x1="16.7876106194690265" y1="11.5628318584070796" x2="17.4247787610619469" y2="11.3716814159292035" style="stroke:red;stroke-width:1" />
 <line x1="17.4247787610619469" y1="11.3716814159292035" x2="17.9982300884955752" y2="11.3079646017699115" style="stroke:red;stroke-width:1" />
 <line x1="17.9982300884955752" y1="11.3079646017699115" x2="18.5716814159292035" y2="11.3079646017699115" style="stroke:red;stroke-width:1" />
 <line x1="18.5716814159292035" y1="11.3079646017699115" x2="18.9539823008849557" y2="11.4353982300884955" style="stroke:red;stroke-width:1" />
 <line x1="18.9539823008849557" y1="11.4353982300884955" x2="19.2088495575221239" y2="11.5628318584070796" style="stroke:red;stroke-width:1" />
 <line x1="19.2088495575221239" y1="11.5628318584070796" x2="19.463716814159292" y2="11.8176991150442478" style="stroke:red;stroke-width:1" />
 <line x1="19.463716814159292" y1="11.8176991150442478" x2="20.4194690265486726" y2="14.0477876106194689" style="stroke:red;stroke-width:1" />
 <line x1="20.4194690265486726" y1="14.0477876106194689" x2="20.5469026548672566" y2="14.302654867256637" style="stroke:red;stroke-width:1" />
 <line x1="20.5469026548672566" y1="14.302654867256637" x2="20.6106194690265487" y2="14.6849557522123893" style="stroke:red;stroke-width:1" />
 <line x1="20.6106194690265487" y1="14.6849557522123893" x2="20.5469026548672566" y2="15.1309734513274335" style="stroke:red;stroke-width:1" />
 <line x1="20.5469026548672566" y1="15.1309734513274335" x2="20.4194690265486726" y2="15.5769911504424777" style="stroke:red;stroke-width:1" />
 <line x1="20.4194690265486726" y1="15.5769911504424777" x2="20.0371681415929203" y2="16.7238938053097344" style="stroke:red;stroke-width:1" />
 <line x1="20.0371681415929203" y1="16.7238938053097344" x2="19.8460176991150442" y2="17.4247787610619468" style="stroke:red;stroke-width:1" />
 <line x1="19.8460176991150442" y1="17.4247787610619468" x2="19.5911504424778761" y2="17.9345132743362831" style="stroke:red;stroke-width:1" />
 <line x1="19.5911504424778761" y1="17.9345132743362831" x2="19.2088495575221239" y2="18.5079646017699114" style="stroke:red;stroke-width:1" />
 <line x1="19.2088495575221239" y1="18.5079646017699114" x2="18.9539823008849557" y2="18.7628318584070795" style="stroke:red;stroke-width:1" />
 <line x1="18.9539823008849557" y1="18.7628318584070795" x2="18.3168141592920354" y2="19.4637168141592919" style="stroke:red;stroke-width:1" />
 <line x1="18.3168141592920354" y1="19.4637168141592919" x2="19.6548672566371681" y2="19.4637168141592919" style="stroke:red;stroke-width:1" />
 <line x1="19.6548672566371681" y1="19.4637168141592919" x2="19.6548672566371681" y2="19.2088495575221238" style="stroke:red;stroke-width:1" />
 <line x1="19.6548672566371681" y1="19.2088495575221238" x2="19.7185840707964602" y2="18.9539823008849556" style="stroke:red;stroke-width:1" />
 <line x1="19.7185840707964602" y1="18.9539823008849556" x2="19.8460176991150442" y2="18.6991150442477875" style="stroke:red;stroke-width:1" />
 <line x1="19.8460176991150442" y1="18.6991150442477875" x2="20.0371681415929203" y2="18.5079646017699114" style="stroke:red;stroke-width:1" />
 <line x1="20.0371681415929203" y1="18.5079646017699114" x2="20.2920353982300885" y2="18.3805309734513273" style="stroke:red;stroke-width:1" />
 <line x1="20.2920353982300885" y1="18.3805309734513273" x2="20.6106194690265487" y2="17.2336283185840707" style="stroke:red;stroke-width:1" />
 <line x1="20.6106194690265487" y1="17.2336283185840707" x2="21.0566371681415929" y2="16.2778761061946901" style="stroke:red;stroke-width:1" />
 <line x1="21.0566371681415929" y1="16.2778761061946901" x2="21.3752212389380531" y2="15.7044247787610618" style="stroke:red;stroke-width:1" />
 <line x1="21.3752212389380531" y1="15.7044247787610618" x2="21.6938053097345133" y2="15.1309734513274335" style="stroke:red;stroke-width:1" />
 <line x1="21.6938053097345133" y1="15.1309734513274335" x2="22.0761061946902655" y2="14.7486725663716813" style="stroke:red;stroke-width:1" />
 <line x1="22.6495575221238938" y1="10.9256637168141593" x2="22.2672566371681416" y2="11.3716814159292035" style="stroke:red;stroke-width:1" />
 <line x1="22.2672566371681416" y1="11.3716814159292035" x2="22.0123893805309734" y2="11.7539823008849557" style="stroke:red;stroke-width:1" />
 <line x1="22.0123893805309734" y1="11.7539823008849557" x2="21.8849557522123894" y2="12.327433628318584" style="stroke:red;stroke-width:1" />
 <line x1="21.8849557522123894" y1="12.327433628318584" x2="21.7575221238938053" y2="13.0920353982300884" style="stroke:red;stroke-width:1" />
 <line x1="21.7575221238938053" y1="13.0920353982300884" x2="21.8849557522123894" y2="13.8566371681415928" style="stroke:red;stroke-width:1" />
 <line x1="21.8849557522123894" y1="13.8566371681415928" x2="22.0761061946902655" y2="14.7486725663716813" style="stroke:red;stroke-width:1" />
 <line x1="22.0761061946902655" y1="14.7486725663716813" x2="22.8407079646017699" y2="17.4884955752212388" style="stroke:red;stroke-width:1" />
 <line x1="22.8407079646017699" y1="17.4884955752212388" x2="22.9044247787610619" y2="17.9345132743362831" style="stroke:red;stroke-width:1" />
 <line x1="22.9044247787610619" y1="17.9345132743362831" x2="22.8407079646017699" y2="18.2530973451327432" style="stroke:red;stroke-width:1" />
 <line x1="22.8407079646017699" y1="18.2530973451327432" x2="22.6495575221238938" y2="18.6991150442477875" style="stroke:red;stroke-width:1" />
 <line x1="22.6495575221238938" y1="18.6991150442477875" x2="22.2035398230088496" y2="19.4637168141592919" style="stroke:red;stroke-width:1" />
 <line x1="22.2035398230088496" y1="19.4637168141592919" x2="23.3504424778761062" y2="19.4637168141592919" style="stroke:red;stroke-width:1" />
 <line x1="23.3504424778761062" y1="19.4637168141592919" x2="23.3504424778761062" y2="19.0176991150442477" style="stroke:red;stroke-width:1" />
 <line x1="23.3504424778761062" y1="19.0176991150442477" x2="23.4141592920353982" y2="18.5716814159292034" style="stroke:red;stroke-width:1" />
 <line x1="23.4141592920353982" y1="18.5716814159292034" x2="23.5415929203539823" y2="18.2530973451327432" style="stroke:red;stroke-width:1" />
 <line x1="23.5415929203539823" y1="18.2530973451327432" x2="23.7327433628318584" y2="17.870796460176991" style="stroke:red;stroke-width:1" />
 <line x1="23.7327433628318584" y1="17.870796460176991" x2="23.4141592920353982" y2="16.7238938053097344" style="stroke:red;stroke-width:1" />
 <line x1="23.4141592920353982" y1="16.7238938053097344" x2="23.1592920353982301" y2="15.7681415929203539" style="stroke:red;stroke-width:1" />
 <line x1="23.1592920353982301" y1="15.7681415929203539" x2="23.031858407079646" y2="15.0672566371681415" style="stroke:red;stroke-width:1" />
 <line x1="23.031858407079646" y1="15.0672566371681415" x2="23.031858407079646" y2="14.6212389380530972" style="stroke:red;stroke-width:1" />
 <line x1="23.031858407079646" y1="14.6212389380530972" x2="23.031858407079646" y2="14.0477876106194689" style="stroke:red;stroke-width:1" />
 <line x1="23.031858407079646" y1="14.5575221238938052" x2="23.9238938053097345" y2="14.5575221238938052" style="stroke:red;stroke-width:1" />
 <line x1="23.9238938053097345" y1="14.5575221238938052" x2="24.815929203539823" y2="14.5575221238938052" style="stroke:red;stroke-width:1" />
 <line x1="24.815929203539823" y1="14.5575221238938052" x2="25.3893805309734513" y2="14.6212389380530972" style="stroke:red;stroke-width:1" />
 <line x1="25.3893805309734513" y1="14.6212389380530972" x2="26.0265486725663717" y2="14.6849557522123893" style="stroke:red;stroke-width:1" />
 <line x1="26.0265486725663717" y1="14.6849557522123893" x2="26.4088495575221239" y2="15.1309734513274335" style="stroke:red;stroke-width:1" />
 <line x1="26.4088495575221239" y1="15.1309734513274335" x2="27.5557522123893805" y2="14.8123893805309733" style="stroke:red;stroke-width:1" />
 <line x1="27.5557522123893805" y1="14.8123893805309733" x2="28.2566371681415929" y2="14.6849557522123893" style="stroke:red;stroke-width:1" />
 <line x1="28.2566371681415929" y1="14.6849557522123893" x2="28.9575221238938053" y2="14.6212389380530972" style="stroke:red;stroke-width:1" />
 <line x1="28.9575221238938053" y1="14.6212389380530972" x2="29.4035398230088496" y2="14.6849557522123893" style="stroke:red;stroke-width:1" />
 <line x1="29.4035398230088496" y1="14.6849557522123893" x2="29.7858407079646018" y2="14.8761061946902654" style="stroke:red;stroke-width:1" />
 <line x1="29.7858407079646018" y1="14.8761061946902654" x2="30.168141592920354" y2="15.1309734513274335" style="stroke:red;stroke-width:1" />
 <line x1="30.168141592920354" y1="15.1309734513274335" x2="30.6141592920353983" y2="15.5769911504424777" style="stroke:red;stroke-width:1" />
 <line x1="30.6141592920353983" y1="15.5769911504424777" x2="30.9327433628318584" y2="15.6407079646017698" style="stroke:red;stroke-width:1" />
 <line x1="30.9327433628318584" y1="15.6407079646017698" x2="31.1238938053097345" y2="15.5769911504424777" style="stroke:red;stroke-width:1" />
 <line x1="30.6141592920353983" y1="15.5769911504424777" x2="29.7221238938053098" y2="18.5079646017699114" style="stroke:red;stroke-width:1" />
 <line x1="29.7221238938053098" y1="18.5079646017699114" x2="29.5309734513274336" y2="18.6353982300884955" style="stroke:red;stroke-width:1" />
 <line x1="29.5309734513274336" y1="18.6353982300884955" x2="29.3398230088495575" y2="18.8902654867256636" style="stroke:red;stroke-width:1" />
 <line x1="29.3398230088495575" y1="18.8902654867256636" x2="29.1486725663716814" y2="19.4637168141592919" style="stroke:red;stroke-width:1" />
 <line x1="29.1486725663716814" y1="19.4637168141592919" x2="28.0017699115044248" y2="19.527433628318584" style="stroke:red;stroke-width:1" />
 <line x1="28.0017699115044248" y1="19.527433628318584" x2="28.6389380530973451" y2="18.6991150442477875" style="stroke:red;stroke-width:1" />
 <line x1="28.6389380530973451" y1="18.6991150442477875" x2="28.8300884955752213" y2="18.2530973451327432" style="stroke:red;stroke-width:1" />
 <line x1="28.8300884955752213" y1="18.2530973451327432" x2="29.0849557522123894" y2="17.743362831858407" style="stroke:red;stroke-width:1" />
 <line x1="29.0849557522123894" y1="17.743362831858407" x2="29.2761061946902655" y2="17.1699115044247786" style="stroke:red;stroke-width:1" />
 <line x1="29.2761061946902655" y1="17.1699115044247786" x2="29.4672566371681416" y2="16.5327433628318583" style="stroke:red;stroke-width:1" />
 <line x1="29.4672566371681416" y1="16.5327433628318583" x2="29.5309734513274336" y2="15.7681415929203539" style="stroke:red;stroke-width:1" />
 <line x1="29.5309734513274336" y1="15.7681415929203539" x2="29.7858407079646018" y2="14.8761061946902654" style="stroke:red;stroke-width:1" />
 <line x1="28.5115044247787611" y1="11.6265486725663717" x2="29.0849557522123894" y2="12.7097345132743363" style="stroke:red;stroke-width:1" />
 <line x1="29.0849557522123894" y1="12.7097345132743363" x2="29.6584070796460177" y2="13.6017699115044246" style="stroke:red;stroke-width:1" />
 <line x1="29.6584070796460177" y1="13.6017699115044246" x2="30.2955752212389381" y2="14.5575221238938052" style="stroke:red;stroke-width:1" />
 <line x1="30.2955752212389381" y1="14.5575221238938052" x2="31.1238938053097345" y2="15.5769911504424777" style="stroke:red;stroke-width:1" />
 <line x1="31.1238938053097345" y1="15.5769911504424777" x2="31.888495575221239" y2="16.4690265486725662" style="stroke:red;stroke-width:1" />
 <line x1="31.888495575221239" y1="16.4690265486725662" x2="31.8247787610619469" y2="18.6353982300884955" style="stroke:red;stroke-width:1" />
 <line x1="31.8247787610619469" y1="18.6353982300884955" x2="31.3150442477876106" y2="19.527433628318584" style="stroke:red;stroke-width:1" />
 <line x1="31.3150442477876106" y1="19.527433628318584" x2="32.4619469026548673" y2="19.527433628318584" style="stroke:red;stroke-width:1" />
 <line x1="32.4619469026548673" y1="19.527433628318584" x2="32.4619469026548673" y2="19.0814159292035397" style="stroke:red;stroke-width:1" />
 <line x1="32.4619469026548673" y1="19.0814159292035397" x2="32.5893805309734514" y2="18.6991150442477875" style="stroke:red;stroke-width:1" />
 <line x1="32.5893805309734514" y1="18.6991150442477875" x2="32.6530973451327434" y2="18.4442477876106194" style="stroke:red;stroke-width:1" />
 <line x1="32.6530973451327434" y1="18.4442477876106194" x2="32.8442477876106195" y2="18.3805309734513273" style="stroke:red;stroke-width:1" />
 <line x1="32.8442477876106195" y1="18.3805309734513273" x2="32.7168141592920354" y2="17.743362831858407" style="stroke:red;stroke-width:1" />
 <line x1="32.7168141592920354" y1="17.743362831858407" x2="32.5893805309734514" y2="17.2336283185840707" style="stroke:red;stroke-width:1" />
 <line x1="32.5893805309734514" y1="17.2336283185840707" x2="32.5893805309734514" y2="16.6601769911504424" style="stroke:red;stroke-width:1" />
 <line x1="32.5893805309734514" y1="16.6601769911504424" x2="32.5256637168141593" y2="16.2778761061946901" style="stroke:red;stroke-width:1" />
 <line x1="32.5256637168141593" y1="16.2778761061946901" x2="32.2707964601769912" y2="15.7681415929203539" style="stroke:red;stroke-width:1" />
 <line x1="32.2707964601769912" y1="15.7681415929203539" x2="32.015929203539823" y2="15.2584070796460176" style="stroke:red;stroke-width:1" />
 <line x1="32.015929203539823" y1="15.2584070796460176" x2="31.888495575221239" y2="14.7486725663716813" style="stroke:red;stroke-width:1" />
 <line x1="31.888495575221239" y1="14.7486725663716813" x2="31.8247787610619469" y2="14.1115044247787609" style="stroke:red;stroke-width:1" />
 <line x1="31.8247787610619469" y1="14.1115044247787609" x2="31.888495575221239" y2="13.3469026548672565" style="stroke:red;stroke-width:1" />
 <line x1="31.888495575221239" y1="13.3469026548672565" x2="32.0796460176991151" y2="12.5823008849557522" style="stroke:red;stroke-width:1" />
 <line x1="32.0796460176991151" y1="12.5823008849557522" x2="32.2070796460176991" y2="11.9451327433628318" style="stroke:red;stroke-width:1" />
 <line x1="32.2070796460176991" y1="11.9451327433628318" x2="32.3982300884955752" y2="11.3079646017699115" style="stroke:red;stroke-width:1" />
 <line x1="32.3982300884955752" y1="11.3079646017699115" x2="32.4619469026548673" y2="10.9893805309734513" style="stroke:red;stroke-width:1" />
 <line x1="32.4619469026548673" y1="10.9893805309734513" x2="32.3345132743362832" y2="10.543362831858407" style="stroke:red;stroke-width:1" />
 <line x1="32.3345132743362832" y1="10.543362831858407" x2="32.1433628318584071" y2="10.2884955752212389" style="stroke:red;stroke-width:1" />
 <line x1="32.1433628318584071" y1="10.2884955752212389" x2="31.888495575221239" y2="9.96991150442477877" style="stroke:red;stroke-width:1" />
 <line x1="32.9079646017699115" y1="10.479646017699115" x2="33.0353982300884956" y2="12.0725663716814159" style="stroke:red;stroke-width:1" />
 <line x1="33.0353982300884956" y1="12.0725663716814159" x2="33.0353982300884956" y2="13.6017699115044246" style="stroke:red;stroke-width:1" />
 <line x1="33.0353982300884956" y1="13.6017699115044246" x2="33.0353982300884956" y2="15.7681415929203539" style="stroke:red;stroke-width:1" />
 <line x1="33.0353982300884956" y1="15.7681415929203539" x2="33.0353982300884956" y2="16.086725663716814" style="stroke:red;stroke-width:1" />
 <line x1="33.0353982300884956" y1="16.086725663716814" x2="33.0991150442477876" y2="16.2778761061946901" style="stroke:red;stroke-width:1" />
 <line x1="33.0991150442477876" y1="16.2778761061946901" x2="33.2902654867256637" y2="16.3415929203539822" style="stroke:red;stroke-width:1" />
 <line x1="33.2902654867256637" y1="16.3415929203539822" x2="33.4176991150442478" y2="16.2778761061946901" style="stroke:red;stroke-width:1" />
 <line x1="33.4176991150442478" y1="16.2778761061946901" x2="33.5451327433628319" y2="16.1504424778761061" style="stroke:red;stroke-width:1" />
 <line x1="33.5451327433628319" y1="16.1504424778761061" x2="33.4176991150442478" y2="15.5132743362831857" style="stroke:red;stroke-width:1" />
 <line x1="33.4176991150442478" y1="15.5132743362831857" x2="33.2902654867256637" y2="13.6654867256637167" style="stroke:red;stroke-width:1" />
 <line x1="33.2902654867256637" y1="13.6654867256637167" x2="33.2265486725663717" y2="12.1362831858407079" style="stroke:red;stroke-width:1" />
 <line x1="33.2265486725663717" y1="12.1362831858407079" x2="33.0991150442477876" y2="11.3079646017699115" style="stroke:red;stroke-width:1" />
 <line x1="33.0991150442477876" y1="11.3079646017699115" x2="33.0353982300884956" y2="10.7982300884955752" style="stroke:red;stroke-width:1" />
 <line x1="33.0353982300884956" y1="10.7982300884955752" x2="32.9079646017699115" y2="10.479646017699115" style="stroke:red;stroke-width:1" />
 <line x1="32.9079646017699115" y1="10.479646017699115" x2="32.6530973451327434" y2="10.2884955752212389" style="stroke:red;stroke-width:1" />
 <line x1="32.6530973451327434" y1="10.2884955752212389" x2="32.3345132743362832" y2="10.0336283185840708" style="stroke:red;stroke-width:1" />
 <line x1="32.3345132743362832" y1="10.0336283185840708" x2="31.888495575221239" y2="9.96991150442477877" style="stroke:red;stroke-width:1" />
 <line x1="31.888495575221239" y1="9.96991150442477877" x2="30.6778761061946903" y2="9.90619469026548674" style="stroke:red;stroke-width:1" />
 <line x1="30.6778761061946903" y1="9.90619469026548674" x2="29.0849557522123894" y2="9.90619469026548674" style="stroke:red;stroke-width:1" />
 <line x1="29.0849557522123894" y1="9.90619469026548674" x2="26.6" y2="9.96991150442477877" style="stroke:red;stroke-width:1" />
 <line x1="26.6" y1="9.96991150442477877" x2="25.1345132743362832" y2="9.90619469026548674" style="stroke:red;stroke-width:1" />
 <line x1="25.1345132743362832" y1="9.90619469026548674" x2="23.7964601769911504" y2="9.71504424778761063" style="stroke:red;stroke-width:1" />
 <line x1="23.7964601769911504" y1="9.71504424778761063" x2="22.9044247787610619" y2="9.52389380530973452" style="stroke:red;stroke-width:1" />
 <line x1="22.9044247787610619" y1="9.52389380530973452" x2="21.8849557522123894" y2="9.14159292035398231" style="stroke:red;stroke-width:1" />
 <line x1="21.8849557522123894" y1="9.14159292035398231" x2="20.4194690265486726" y2="8.44070796460176992" style="stroke:red;stroke-width:1" />
 <path d="M 17.615929203539823 9.77876106194690267
          A .254867256637168142 .254867256637168142 0 1 0 18.1256637168141592 9.77876106194690267
          A .254867256637168142 .254867256637168142 0 1 0 17.615929203539823 9.77876106194690267"
       stroke="red" fill="white" stroke-width="1" fill-opacity="0.0"/>
 <line x1="9.77876106194690267" y1="12.0725663716814159" x2="9.65132743362831859" y2="12.263716814159292" style="stroke:red;stroke-width:1" />
 <line x1="9.65132743362831859" y1="12.263716814159292" x2="9.52389380530973452" y2="12.5185840707964602" style="stroke:red;stroke-width:1" />
 <line x1="9.52389380530973452" y1="12.5185840707964602" x2="9.46017699115044249" y2="12.9008849557522124" style="stroke:red;stroke-width:1" />
 <line x1="9.46017699115044249" y1="12.9008849557522124" x2="9.46017699115044249" y2="13.3469026548672565" style="stroke:red;stroke-width:1" />
 <line x1="9.46017699115044249" y1="13.3469026548672565" x2="9.58761061946902656" y2="13.8566371681415928" style="stroke:red;stroke-width:1" />
 <line x1="9.58761061946902656" y1="13.8566371681415928" x2="9.8424778761061947" y2="14.3663716814159291" style="stroke:red;stroke-width:1" />
 <line x1="9.8424778761061947" y1="14.3663716814159291" x2="10.0973451327433628" y2="14.7486725663716813" style="stroke:red;stroke-width:1" />
 <line x1="10.0973451327433628" y1="14.7486725663716813" x2="10.543362831858407" y2="15.3858407079646016" style="stroke:red;stroke-width:1" />
 <line x1="10.543362831858407" y1="15.3858407079646016" x2="10.9893805309734513" y2="15.8318584070796459" style="stroke:red;stroke-width:1" />
 <line x1="10.9893805309734513" y1="15.8318584070796459" x2="11.4353982300884955" y2="16.2778761061946901" style="stroke:red;stroke-width:1" />
 <line x1="11.4353982300884955" y1="16.2778761061946901" x2="11.8814159292035398" y2="16.6601769911504424" style="stroke:red;stroke-width:1" />
 <line x1="11.8814159292035398" y1="16.6601769911504424" x2="12.5185840707964602" y2="16.9787610619469025" style="stroke:red;stroke-width:1" />
 <line x1="12.5185840707964602" y1="16.9787610619469025" x2="13.0283185840707964" y2="17.1699115044247786" style="stroke:red;stroke-width:1" />
 <line x1="13.0283185840707964" y1="17.1699115044247786" x2="13.5380530973451327" y2="17.2336283185840707" style="stroke:red;stroke-width:1" />
 <line x1="13.5380530973451327" y1="17.2336283185840707" x2="13.9203539823008849" y2="17.2336283185840707" style="stroke:red;stroke-width:1" />
 <line x1="13.9203539823008849" y1="17.2336283185840707" x2="14.3026548672566371" y2="17.1061946902654866" style="stroke:red;stroke-width:1" />
 <line x1="14.3026548672566371" y1="17.1061946902654866" x2="14.5575221238938053" y2="16.9150442477876105" style="stroke:red;stroke-width:1" />
 <line x1="14.5575221238938053" y1="16.9150442477876105" x2="14.8123893805309734" y2="16.6601769911504424" style="stroke:red;stroke-width:1" />
 <line x1="14.8123893805309734" y1="16.6601769911504424" x2="14.9398230088495575" y2="16.2778761061946901" style="stroke:red;stroke-width:1" />
 <line x1="14.9398230088495575" y1="16.2778761061946901" x2="15.0035398230088495" y2="15.8955752212389379" style="stroke:red;stroke-width:1" />
 <line x1="15.0035398230088495" y1="15.8955752212389379" x2="14.9398230088495575" y2="15.4495575221238937" style="stroke:red;stroke-width:1" />
 <line x1="14.9398230088495575" y1="15.4495575221238937" x2="14.8123893805309734" y2="14.8761061946902654" style="stroke:red;stroke-width:1" />
 <line x1="14.8123893805309734" y1="14.8761061946902654" x2="14.5575221238938053" y2="14.238938053097345" style="stroke:red;stroke-width:1" />
 <line x1="14.5575221238938053" y1="14.238938053097345" x2="14.1752212389380531" y2="13.7292035398230087" style="stroke:red;stroke-width:1" />
 <line x1="14.1752212389380531" y1="13.7292035398230087" x2="13.7929203539823009" y2="13.2194690265486725" style="stroke:red;stroke-width:1" />
 <line x1="13.7929203539823009" y1="13.2194690265486725" x2="13.3469026548672566" y2="12.7734513274336283" style="stroke:red;stroke-width:1" />
 <line x1="13.3469026548672566" y1="12.7734513274336283" x2="12.7734513274336283" y2="12.327433628318584" style="stroke:red;stroke-width:1" />
 <line x1="12.7734513274336283" y1="12.327433628318584" x2="12.327433628318584" y2="12.0725663716814159" style="stroke:red;stroke-width:1" />
 <line x1="12.327433628318584" y1="12.0725663716814159" x2="11.8176991150442478" y2="11.8176991150442478" style="stroke:red;stroke-width:1" />
 <line x1="11.8176991150442478" y1="11.8176991150442478" x2="11.3079646017699115" y2="11.6265486725663717" style="stroke:red;stroke-width:1" />
 <line x1="11.3079646017699115" y1="11.6265486725663717" x2="10.7982300884955752" y2="11.6265486725663717" style="stroke:red;stroke-width:1" />
 <line x1="10.7982300884955752" y1="11.6265486725663717" x2="10.3522123893805309" y2="11.6902654867256637" style="stroke:red;stroke-width:1" />
 <line x1="10.3522123893805309" y1="11.6902654867256637" x2="10.0336283185840708" y2="11.8814159292035398" style="stroke:red;stroke-width:1" />
 <line x1="10.0336283185840708" y1="11.8814159292035398" x2="9.77876106194690267" y2="12.0725663716814159" style="stroke:red;stroke-width:1" />
 <line x1="10.0973451327433628" y1="14.7486725663716813" x2="9.90619469026548674" y2="15.1309734513274335" style="stroke:red;stroke-width:1" />
 <line x1="9.90619469026548674" y1="15.1309734513274335" x2="9.8424778761061947" y2="15.4495575221238937" style="stroke:red;stroke-width:1" />
 <line x1="9.8424778761061947" y1="15.4495575221238937" x2="9.90619469026548674" y2="15.8318584070796459" style="stroke:red;stroke-width:1" />
 <line x1="9.90619469026548674" y1="15.8318584070796459" x2="10.0973451327433628" y2="16.1504424778761061" style="stroke:red;stroke-width:1" />
 <line x1="10.0973451327433628" y1="16.1504424778761061" x2="10.415929203539823" y2="16.3415929203539822" style="stroke:red;stroke-width:1" />
 <line x1="10.415929203539823" y1="16.3415929203539822" x2="10.7345132743362832" y2="16.4690265486725662" style="stroke:red;stroke-width:1" />
 <line x1="10.7345132743362832" y1="16.4690265486725662" x2="11.0530973451327433" y2="16.4053097345132742" style="stroke:red;stroke-width:1" />
 <line x1="11.0530973451327433" y1="16.4053097345132742" x2="11.4353982300884955" y2="16.2778761061946901" style="stroke:red;stroke-width:1" />
 <line x1="12.7734513274336283" y1="12.327433628318584" x2="13.1557522123893805" y2="12.1362831858407079" style="stroke:red;stroke-width:1" />
 <line x1="13.1557522123893805" y1="12.1362831858407079" x2="13.5380530973451327" y2="12.1362831858407079" style="stroke:red;stroke-width:1" />
 <line x1="13.5380530973451327" y1="12.1362831858407079" x2="13.8566371681415929" y2="12.2" style="stroke:red;stroke-width:1" />
 <line x1="13.8566371681415929" y1="12.2" x2="14.111504424778761" y2="12.3911504424778761" style="stroke:red;stroke-width:1" />
 <line x1="14.111504424778761" y1="12.3911504424778761" x2="14.3026548672566371" y2="12.7097345132743363" style="stroke:red;stroke-width:1" />
 <line x1="14.3026548672566371" y1="12.7097345132743363" x2="14.4300884955752212" y2="13.1557522123893804" style="stroke:red;stroke-width:1" />
 <line x1="14.4300884955752212" y1="13.1557522123893804" x2="14.3663716814159292" y2="13.4743362831858406" style="stroke:red;stroke-width:1" />
 <line x1="14.3663716814159292" y1="13.4743362831858406" x2="14.1752212389380531" y2="13.7292035398230087" style="stroke:red;stroke-width:1" />

</svg>
