<!DOCTYPE svg PUBLIC "-//W3C//DTD SVG 1.1//EN" "http://www.w3.org/Graphics/SVG/1.1/DTD/svg11.dtd">
<svg width="30" height="47" xmlns="http://www.w3.org/2000/svg">
 <!-- Gardiner/Zz376515 at (0,.94736842105263158) in red, scale=.0421052631578947368, mirror=0 -->
 <line x1="5.16842105263157894" y1="36.4105263157894735" x2="24.1157894736842104" y2="36.4105263157894735" style="stroke:red;stroke-width:1" />
 <line x1="24.1157894736842104" y1="38.726315789473684" x2="5.16842105263157894" y2="38.726315789473684" style="stroke:red;stroke-width:1" />
 <line x1="5.16842105263157894" y1="41.0421052631578946" x2="24.1157894736842104" y2="41.0421052631578946" style="stroke:red;stroke-width:1" />
 <line x1="7.48421052631578947" y1="36.4105263157894735" x2="7.48421052631578947" y2="41.0421052631578946" style="stroke:red;stroke-width:1" />
 <line x1="11.063157894736842" y1="36.4105263157894735" x2="11.063157894736842" y2="41.0421052631578946" style="stroke:red;stroke-width:1" />
 <line x1="14.6421052631578946" y1="36.4105263157894735" x2="14.6421052631578946" y2="41.0421052631578946" style="stroke:red;stroke-width:1" />
 <line x1="18.2210526315789472" y1="36.4105263157894735" x2="18.2210526315789472" y2="41.0421052631578946" style="stroke:red;stroke-width:1" />
 <line x1="21.7999999999999998" y1="36.4105263157894735" x2="21.7999999999999998" y2="41.0421052631578946" style="stroke:red;stroke-width:1" />
 <line x1="24.0315789473684209" y1="26.7684210526315788" x2="5.16842105263157894" y2="26.7684210526315788" style="stroke:red;stroke-width:1" />
 <line x1="8.03157894736842104" y1="26.7684210526315788" x2="7.69473684210526315" y2="25.7578947368421051" style="stroke:red;stroke-width:1" />
 <line x1="7.69473684210526315" y1="25.7578947368421051" x2="7.14736842105263157" y2="24.9157894736842104" style="stroke:red;stroke-width:1" />
 <line x1="7.14736842105263157" y1="24.9157894736842104" x2="6.30526315789473684" y2="24.2842105263157893" style="stroke:red;stroke-width:1" />
 <line x1="6.30526315789473684" y1="24.2842105263157893" x2="5.63157894736842105" y2="24.2842105263157893" style="stroke:red;stroke-width:1" />
 <line x1="5.63157894736842105" y1="24.2842105263157893" x2="5.25263157894736842" y2="24.663157894736842" style="stroke:red;stroke-width:1" />
 <line x1="5.25263157894736842" y1="24.663157894736842" x2="5.16842105263157894" y2="25.1684210526315788" style="stroke:red;stroke-width:1" />
 <line x1="5.16842105263157894" y1="25.1684210526315788" x2="5.33684210526315789" y2="26.0105263157894735" style="stroke:red;stroke-width:1" />
 <line x1="5.33684210526315789" y1="26.0105263157894735" x2="5.58947368421052631" y2="26.7684210526315788" style="stroke:red;stroke-width:1" />
 <line x1="5.58947368421052631" y1="26.7684210526315788" x2="6.34736842105263157" y2="29.294736842105263" style="stroke:red;stroke-width:1" />
 <line x1="6.34736842105263157" y1="29.294736842105263" x2="7.69473684210526315" y2="29.294736842105263" style="stroke:red;stroke-width:1" />
 <line x1="7.69473684210526315" y1="29.294736842105263" x2="8.03157894736842104" y2="26.7684210526315788" style="stroke:red;stroke-width:1" />
 <line x1="14.6421052631578946" y1="26.7684210526315788" x2="14.6421052631578946" y2="36.4105263157894735" style="stroke:red;stroke-width:1" />
 <line x1="11.5684210526315789" y1="26.7684210526315788" x2="14.6421052631578946" y2="30.7684210526315788" style="stroke:red;stroke-width:1" />
 <line x1="14.6421052631578946" y1="26.7684210526315788" x2="15.6105263157894735" y2="28.0315789473684209" style="stroke:red;stroke-width:1" />
 <line x1="15.6105263157894735" y1="28.0315789473684209" x2="16.2421052631578946" y2="29.3789473684210525" style="stroke:red;stroke-width:1" />
 <line x1="16.2421052631578946" y1="29.3789473684210525" x2="16.7473684210526314" y2="30.6421052631578946" style="stroke:red;stroke-width:1" />
 <line x1="16.7473684210526314" y1="30.6421052631578946" x2="16.9157894736842104" y2="31.4421052631578946" style="stroke:red;stroke-width:1" />
 <line x1="16.9157894736842104" y1="31.4421052631578946" x2="16.7473684210526314" y2="31.9473684210526314" style="stroke:red;stroke-width:1" />
 <line x1="16.7473684210526314" y1="31.9473684210526314" x2="16.4526315789473683" y2="32.2421052631578946" style="stroke:red;stroke-width:1" />
 <line x1="16.4526315789473683" y1="32.2421052631578946" x2="16.0315789473684209" y2="32.2842105263157893" style="stroke:red;stroke-width:1" />
 <line x1="16.0315789473684209" y1="32.2842105263157893" x2="15.6526315789473683" y2="32.0315789473684209" style="stroke:red;stroke-width:1" />
 <line x1="15.6526315789473683" y1="32.0315789473684209" x2="15.9052631578947367" y2="32.9157894736842104" style="stroke:red;stroke-width:1" />
 <line x1="15.9052631578947367" y1="32.9157894736842104" x2="15.9894736842105262" y2="33.4631578947368419" style="stroke:red;stroke-width:1" />
 <line x1="15.9894736842105262" y1="33.4631578947368419" x2="15.9473684210526314" y2="33.9263157894736841" style="stroke:red;stroke-width:1" />
 <line x1="15.9473684210526314" y1="33.9263157894736841" x2="15.5263157894736841" y2="34.094736842105263" style="stroke:red;stroke-width:1" />
 <line x1="15.5263157894736841" y1="34.094736842105263" x2="15.1052631578947367" y2="33.8842105263157893" style="stroke:red;stroke-width:1" />
 <line x1="15.1052631578947367" y1="33.8842105263157893" x2="14.6421052631578946" y2="33.5473684210526314" style="stroke:red;stroke-width:1" />
 <path d="M 5 22.3473684210526314
          A .589473684210526315 .589473684210526315 0 1 0 6.17894736842105262 22.3473684210526314
          A .589473684210526315 .589473684210526315 0 1 0 5 22.3473684210526314"
       stroke="red" fill="white" stroke-width="1" fill-opacity="0.0"/>
 <line x1="5.58947368421052631" y1="21.7578947368421051" x2="5.58947368421052631" y2="16.7052631578947367" style="stroke:red;stroke-width:1" />
 <line x1="5.58947368421052631" y1="16.7052631578947367" x2="5.71578947368421052" y2="16.4105263157894735" style="stroke:red;stroke-width:1" />
 <line x1="5.71578947368421052" y1="16.4105263157894735" x2="5.96842105263157894" y2="16.3263157894736841" style="stroke:red;stroke-width:1" />
 <line x1="5.96842105263157894" y1="16.3263157894736841" x2="6.2631578947368421" y2="16.4526315789473683" style="stroke:red;stroke-width:1" />
 <line x1="6.2631578947368421" y1="16.4526315789473683" x2="6.89473684210526315" y2="16.8736842105263156" style="stroke:red;stroke-width:1" />
 <line x1="6.89473684210526315" y1="16.8736842105263156" x2="8.07368421052631578" y2="17.463157894736842" style="stroke:red;stroke-width:1" />
 <line x1="8.07368421052631578" y1="17.463157894736842" x2="9.63157894736842104" y2="18.1368421052631578" style="stroke:red;stroke-width:1" />
 <line x1="9.63157894736842104" y1="18.1368421052631578" x2="11.3999999999999999" y2="18.7263157894736841" style="stroke:red;stroke-width:1" />
 <line x1="11.3999999999999999" y1="18.7263157894736841" x2="12.3684210526315789" y2="18.894736842105263" style="stroke:red;stroke-width:1" />
 <line x1="12.3684210526315789" y1="18.894736842105263" x2="13.2105263157894736" y2="18.894736842105263" style="stroke:red;stroke-width:1" />
 <line x1="13.2105263157894736" y1="18.894736842105263" x2="14.094736842105263" y2="18.7684210526315788" style="stroke:red;stroke-width:1" />
 <line x1="14.094736842105263" y1="18.7684210526315788" x2="14.9789473684210525" y2="18.5578947368421051" style="stroke:red;stroke-width:1" />
 <line x1="14.9789473684210525" y1="18.5578947368421051" x2="16.4526315789473683" y2="17.8421052631578946" style="stroke:red;stroke-width:1" />
 <line x1="16.4526315789473683" y1="17.8421052631578946" x2="17.5894736842105262" y2="16.9999999999999999" style="stroke:red;stroke-width:1" />
 <line x1="17.5894736842105262" y1="16.9999999999999999" x2="18.2210526315789472" y2="16.494736842105263" style="stroke:red;stroke-width:1" />
 <line x1="18.2210526315789472" y1="16.494736842105263" x2="18.5999999999999998" y2="16.2421052631578946" style="stroke:red;stroke-width:1" />
 <line x1="18.5999999999999998" y1="16.2421052631578946" x2="18.9789473684210525" y2="16.3263157894736841" style="stroke:red;stroke-width:1" />
 <line x1="18.9789473684210525" y1="16.3263157894736841" x2="19.1052631578947367" y2="16.5368421052631578" style="stroke:red;stroke-width:1" />
 <line x1="19.1052631578947367" y1="16.5368421052631578" x2="19.1052631578947367" y2="16.9578947368421051" style="stroke:red;stroke-width:1" />
 <line x1="19.1052631578947367" y1="16.9578947368421051" x2="18.7263157894736841" y2="17.4210526315789472" style="stroke:red;stroke-width:1" />
 <line x1="18.7263157894736841" y1="17.4210526315789472" x2="18.1368421052631577" y2="18.0526315789473683" style="stroke:red;stroke-width:1" />
 <line x1="18.1368421052631577" y1="18.0526315789473683" x2="17.3368421052631577" y2="18.6421052631578946" style="stroke:red;stroke-width:1" />
 <line x1="17.3368421052631577" y1="18.6421052631578946" x2="16.1999999999999998" y2="19.2736842105263156" style="stroke:red;stroke-width:1" />
 <line x1="16.1999999999999998" y1="19.2736842105263156" x2="15.0210526315789472" y2="19.694736842105263" style="stroke:red;stroke-width:1" />
 <line x1="15.0210526315789472" y1="19.694736842105263" x2="14.1789473684210525" y2="19.863157894736842" style="stroke:red;stroke-width:1" />
 <line x1="14.1789473684210525" y1="19.863157894736842" x2="13.2947368421052631" y2="20.0315789473684209" style="stroke:red;stroke-width:1" />
 <line x1="13.2947368421052631" y1="20.0315789473684209" x2="12.4105263157894736" y2="19.9894736842105262" style="stroke:red;stroke-width:1" />
 <line x1="12.4105263157894736" y1="19.9894736842105262" x2="11.4421052631578947" y2="19.863157894736842" style="stroke:red;stroke-width:1" />
 <line x1="11.4421052631578947" y1="19.863157894736842" x2="10.5157894736842105" y2="19.6105263157894735" style="stroke:red;stroke-width:1" />
 <line x1="10.5157894736842105" y1="19.6105263157894735" x2="9.63157894736842104" y2="19.3578947368421051" style="stroke:red;stroke-width:1" />
 <line x1="9.63157894736842104" y1="19.3578947368421051" x2="7.98947368421052631" y2="18.6842105263157893" style="stroke:red;stroke-width:1" />
 <line x1="7.98947368421052631" y1="18.6842105263157893" x2="6.7263157894736842" y2="17.9684210526315788" style="stroke:red;stroke-width:1" />
 <line x1="6.7263157894736842" y1="17.9684210526315788" x2="5.96842105263157894" y2="17.4210526315789472" style="stroke:red;stroke-width:1" />
 <line x1="5.96842105263157894" y1="17.4210526315789472" x2="5.71578947368421052" y2="17.0842105263157893" style="stroke:red;stroke-width:1" />
 <line x1="5.71578947368421052" y1="17.0842105263157893" x2="5.58947368421052631" y2="16.8315789473684209" style="stroke:red;stroke-width:1" />
 <line x1="5.58947368421052631" y1="16.8315789473684209" x2="5.58947368421052631" y2="16.663157894736842" style="stroke:red;stroke-width:1" />
 <line x1="9.63157894736842104" y1="11.1473684210526315" x2="9.63157894736842104" y2="18.094736842105263" style="stroke:red;stroke-width:1" />
 <line x1="11.3999999999999999" y1="11.1473684210526315" x2="11.3999999999999999" y2="18.7263157894736841" style="stroke:red;stroke-width:1" />
 <line x1="13.1263157894736842" y1="11.1473684210526315" x2="13.1263157894736842" y2="18.8526315789473683" style="stroke:red;stroke-width:1" />
 <line x1="14.8526315789473683" y1="11.1052631578947368" x2="14.8526315789473683" y2="18.5157894736842104" style="stroke:red;stroke-width:1" />
 <line x1="7.31578947368421052" y1="12.0736842105263157" x2="5.79999999999999999" y2="10.9368421052631578" style="stroke:red;stroke-width:1" />
 <line x1="5.79999999999999999" y1="10.9368421052631578" x2="5.21052631578947368" y2="10.5578947368421052" style="stroke:red;stroke-width:1" />
 <line x1="5.21052631578947368" y1="10.5578947368421052" x2="5.12631578947368421" y2="10.2210526315789473" style="stroke:red;stroke-width:1" />
 <line x1="5.12631578947368421" y1="10.2210526315789473" x2="5.25263157894736842" y2="10.0105263157894736" style="stroke:red;stroke-width:1" />
 <line x1="5.25263157894736842" y1="10.0105263157894736" x2="8.83157894736842104" y2="10.0105263157894736" style="stroke:red;stroke-width:1" />
 <line x1="8.83157894736842104" y1="10.0105263157894736" x2="8.83157894736842104" y2="9.33684210526315789" style="stroke:red;stroke-width:1" />
 <line x1="8.83157894736842104" y1="9.33684210526315789" x2="14.8526315789473683" y2="9.33684210526315789" style="stroke:red;stroke-width:1" />
 <line x1="14.8526315789473683" y1="9.33684210526315789" x2="14.8526315789473683" y2="10.0105263157894736" style="stroke:red;stroke-width:1" />
 <line x1="14.8526315789473683" y1="10.0105263157894736" x2="20.494736842105263" y2="10.0105263157894736" style="stroke:red;stroke-width:1" />
 <line x1="20.494736842105263" y1="10.0105263157894736" x2="20.494736842105263" y2="10.4736842105263157" style="stroke:red;stroke-width:1" />
 <line x1="20.494736842105263" y1="10.4736842105263157" x2="14.894736842105263" y2="10.4736842105263157" style="stroke:red;stroke-width:1" />
 <line x1="14.894736842105263" y1="10.4736842105263157" x2="14.8526315789473683" y2="11.231578947368421" style="stroke:red;stroke-width:1" />
 <line x1="14.8526315789473683" y1="11.231578947368421" x2="8.83157894736842104" y2="11.231578947368421" style="stroke:red;stroke-width:1" />
 <line x1="8.83157894736842104" y1="11.231578947368421" x2="8.83157894736842104" y2="10.4736842105263157" style="stroke:red;stroke-width:1" />
 <line x1="8.83157894736842104" y1="10.4736842105263157" x2="6.43157894736842105" y2="10.4736842105263157" style="stroke:red;stroke-width:1" />
 <line x1="6.43157894736842105" y1="10.4736842105263157" x2="6.30526315789473684" y2="10.6421052631578947" style="stroke:red;stroke-width:1" />
 <line x1="6.30526315789473684" y1="10.6421052631578947" x2="6.38947368421052631" y2="10.7684210526315789" style="stroke:red;stroke-width:1" />
 <line x1="6.38947368421052631" y1="10.7684210526315789" x2="6.89473684210526315" y2="11.3999999999999999" style="stroke:red;stroke-width:1" />
 <line x1="6.89473684210526315" y1="11.3999999999999999" x2="7.31578947368421052" y2="12.0736842105263157" style="stroke:red;stroke-width:1" />
 <line x1="12.2421052631578947" y1="9.29473684210526315" x2="14.3894736842105262" y2="7.35789473684210526" style="stroke:red;stroke-width:1" />
 <line x1="14.3894736842105262" y1="7.35789473684210526" x2="14.263157894736842" y2="6.97894736842105262" style="stroke:red;stroke-width:1" />
 <line x1="14.263157894736842" y1="6.97894736842105262" x2="14.3894736842105262" y2="6.68421052631578947" style="stroke:red;stroke-width:1" />
 <line x1="14.3894736842105262" y1="6.68421052631578947" x2="14.5578947368421051" y2="6.34736842105263157" style="stroke:red;stroke-width:1" />
 <line x1="14.5578947368421051" y1="6.34736842105263157" x2="14.9368421052631577" y2="6.09473684210526315" style="stroke:red;stroke-width:1" />
 <line x1="14.9368421052631577" y1="6.09473684210526315" x2="15.4421052631578946" y2="6.05263157894736842" style="stroke:red;stroke-width:1" />
 <line x1="15.4421052631578946" y1="6.05263157894736842" x2="15.7789473684210525" y2="6.13684210526315789" style="stroke:red;stroke-width:1" />
 <line x1="15.7789473684210525" y1="6.13684210526315789" x2="15.9052631578947367" y2="6.34736842105263157" style="stroke:red;stroke-width:1" />
 <line x1="15.9052631578947367" y1="6.34736842105263157" x2="15.9473684210526314" y2="6.7263157894736842" style="stroke:red;stroke-width:1" />
 <line x1="15.9473684210526314" y1="6.7263157894736842" x2="15.8210526315789472" y2="7.02105263157894736" style="stroke:red;stroke-width:1" />
 <line x1="15.8210526315789472" y1="7.02105263157894736" x2="15.3999999999999998" y2="7.35789473684210526" style="stroke:red;stroke-width:1" />
 <line x1="15.3999999999999998" y1="7.35789473684210526" x2="15.0210526315789472" y2="7.48421052631578947" style="stroke:red;stroke-width:1" />
 <line x1="15.0210526315789472" y1="7.48421052631578947" x2="14.6421052631578946" y2="7.48421052631578947" style="stroke:red;stroke-width:1" />
 <line x1="14.6421052631578946" y1="7.48421052631578947" x2="14.4315789473684209" y2="7.35789473684210526" style="stroke:red;stroke-width:1" />
 <line x1="21.294736842105263" y1="11.7368421052631578" x2="22.5157894736842104" y2="11.1052631578947368" style="stroke:red;stroke-width:1" />
 <line x1="22.5157894736842104" y1="11.1052631578947368" x2="22.9368421052631577" y2="10.7263157894736842" style="stroke:red;stroke-width:1" />
 <line x1="22.9368421052631577" y1="10.7263157894736842" x2="22.9368421052631577" y2="10.3052631578947368" style="stroke:red;stroke-width:1" />
 <line x1="22.9368421052631577" y1="10.3052631578947368" x2="22.6842105263157893" y2="9.50526315789473683" style="stroke:red;stroke-width:1" />
 <line x1="22.6842105263157893" y1="9.50526315789473683" x2="22.094736842105263" y2="8.45263157894736841" style="stroke:red;stroke-width:1" />
 <line x1="22.094736842105263" y1="8.45263157894736841" x2="21.8842105263157893" y2="7.8631578947368421" style="stroke:red;stroke-width:1" />
 <line x1="21.8842105263157893" y1="7.8631578947368421" x2="21.8842105263157893" y2="7.61052631578947368" style="stroke:red;stroke-width:1" />
 <line x1="21.8842105263157893" y1="7.61052631578947368" x2="22.094736842105263" y2="6.81052631578947368" style="stroke:red;stroke-width:1" />
 <line x1="22.094736842105263" y1="6.81052631578947368" x2="22.3052631578947367" y2="6.22105263157894736" style="stroke:red;stroke-width:1" />
 <line x1="22.3052631578947367" y1="6.22105263157894736" x2="22.3052631578947367" y2="5.79999999999999999" style="stroke:red;stroke-width:1" />
 <line x1="22.3052631578947367" y1="5.79999999999999999" x2="22.094736842105263" y2="5.21052631578947368" style="stroke:red;stroke-width:1" />
 <line x1="22.094736842105263" y1="5.21052631578947368" x2="21.8842105263157893" y2="5" style="stroke:red;stroke-width:1" />
 <line x1="21.8842105263157893" y1="5" x2="21.7157894736842104" y2="5" style="stroke:red;stroke-width:1" />
 <line x1="21.7157894736842104" y1="5" x2="21.0842105263157893" y2="5.37894736842105263" style="stroke:red;stroke-width:1" />
 <line x1="21.0842105263157893" y1="5.37894736842105263" x2="20.4526315789473683" y2="6.22105263157894736" style="stroke:red;stroke-width:1" />
 <line x1="20.4526315789473683" y1="6.22105263157894736" x2="20.2842105263157893" y2="7.23157894736842105" style="stroke:red;stroke-width:1" />
 <line x1="20.2842105263157893" y1="7.23157894736842105" x2="20.2842105263157893" y2="7.8631578947368421" style="stroke:red;stroke-width:1" />
 <line x1="20.2842105263157893" y1="7.8631578947368421" x2="20.4526315789473683" y2="9.08421052631578946" style="stroke:red;stroke-width:1" />
 <line x1="20.4526315789473683" y1="9.08421052631578946" x2="21.0842105263157893" y2="10.7263157894736842" style="stroke:red;stroke-width:1" />
 <line x1="21.0842105263157893" y1="10.7263157894736842" x2="21.294736842105263" y2="11.7368421052631578" style="stroke:red;stroke-width:1" />
 <line x1="21.294736842105263" y1="11.7368421052631578" x2="21.294736842105263" y2="12.5368421052631578" style="stroke:red;stroke-width:1" />
 <line x1="21.294736842105263" y1="12.5368421052631578" x2="20.8736842105263156" y2="12.7473684210526315" style="stroke:red;stroke-width:1" />
 <line x1="20.8736842105263156" y1="12.7473684210526315" x2="20.4526315789473683" y2="13.2105263157894736" style="stroke:red;stroke-width:1" />
 <line x1="20.4526315789473683" y1="13.2105263157894736" x2="20.0736842105263156" y2="14.0105263157894735" style="stroke:red;stroke-width:1" />
 <line x1="20.0736842105263156" y1="14.0105263157894735" x2="24.1578947368421051" y2="14.0105263157894735" style="stroke:red;stroke-width:1" />
 <line x1="24.1578947368421051" y1="14.0105263157894735" x2="23.7368421052631577" y2="13.2105263157894736" style="stroke:red;stroke-width:1" />
 <line x1="23.7368421052631577" y1="13.2105263157894736" x2="23.3578947368421051" y2="12.7473684210526315" style="stroke:red;stroke-width:1" />
 <line x1="23.3578947368421051" y1="12.7473684210526315" x2="22.9368421052631577" y2="12.5368421052631578" style="stroke:red;stroke-width:1" />
 <line x1="22.9368421052631577" y1="12.5368421052631578" x2="22.3052631578947367" y2="12.3684210526315789" style="stroke:red;stroke-width:1" />
 <line x1="22.3052631578947367" y1="12.3684210526315789" x2="21.8842105263157893" y2="12.3684210526315789" style="stroke:red;stroke-width:1" />
 <line x1="21.8842105263157893" y1="12.3684210526315789" x2="21.294736842105263" y2="12.5368421052631578" style="stroke:red;stroke-width:1" />
 <line x1="20.8736842105263156" y1="14.0105263157894735" x2="20.8736842105263156" y2="22.9789473684210525" style="stroke:red;stroke-width:1" />
 <line x1="22.9368421052631577" y1="18.0526315789473683" x2="22.9368421052631577" y2="14.0105263157894735" style="stroke:red;stroke-width:1" />

</svg>
