<!DOCTYPE svg PUBLIC "-//W3C//DTD SVG 1.1//EN" "http://www.w3.org/Graphics/SVG/1.1/DTD/svg11.dtd">
<svg width="31" height="46" xmlns="http://www.w3.org/2000/svg">
 <!-- Gardiner/Zz376515 at (0,.86075949367088608) in red, scale=.0455696202531645568, mirror=0 -->
 <line x1="5" y1="35.9873417721518985" x2="25.5063291139240504" y2="35.9873417721518985" style="stroke:red;stroke-width:1" />
 <line x1="25.5063291139240504" y1="38.4936708860759491" x2="5" y2="38.4936708860759491" style="stroke:red;stroke-width:1" />
 <line x1="5" y1="40.9999999999999997" x2="25.5063291139240504" y2="40.9999999999999997" style="stroke:red;stroke-width:1" />
 <line x1="7.50632911392405062" y1="35.9873417721518985" x2="7.50632911392405062" y2="40.9999999999999997" style="stroke:red;stroke-width:1" />
 <line x1="11.3797468354430379" y1="35.9873417721518985" x2="11.3797468354430379" y2="40.9999999999999997" style="stroke:red;stroke-width:1" />
 <line x1="15.2531645569620252" y1="35.9873417721518985" x2="15.2531645569620252" y2="40.9999999999999997" style="stroke:red;stroke-width:1" />
 <line x1="19.1265822784810125" y1="35.9873417721518985" x2="19.1265822784810125" y2="40.9999999999999997" style="stroke:red;stroke-width:1" />
 <line x1="22.9999999999999998" y1="35.9873417721518985" x2="22.9999999999999998" y2="40.9999999999999997" style="stroke:red;stroke-width:1" />
 <line x1="25.4151898734177213" y1="25.551898734177215" x2="5" y2="25.551898734177215" style="stroke:red;stroke-width:1" />
 <line x1="8.09873417721518986" y1="25.551898734177215" x2="7.7341772151898734" y2="24.4582278481012656" style="stroke:red;stroke-width:1" />
 <line x1="7.7341772151898734" y1="24.4582278481012656" x2="7.14177215189873416" y2="23.5468354430379745" style="stroke:red;stroke-width:1" />
 <line x1="7.14177215189873416" y1="23.5468354430379745" x2="6.23037974683544303" y2="22.8632911392405061" style="stroke:red;stroke-width:1" />
 <line x1="6.23037974683544303" y1="22.8632911392405061" x2="5.50126582278481012" y2="22.8632911392405061" style="stroke:red;stroke-width:1" />
 <line x1="5.50126582278481012" y1="22.8632911392405061" x2="5.09113924050632911" y2="23.2734177215189871" style="stroke:red;stroke-width:1" />
 <line x1="5.09113924050632911" y1="23.2734177215189871" x2="5" y2="23.8202531645569618" style="stroke:red;stroke-width:1" />
 <line x1="5" y1="23.8202531645569618" x2="5.18227848101265822" y2="24.731645569620253" style="stroke:red;stroke-width:1" />
 <line x1="5.18227848101265822" y1="24.731645569620253" x2="5.45569620253164556" y2="25.551898734177215" style="stroke:red;stroke-width:1" />
 <line x1="5.45569620253164556" y1="25.551898734177215" x2="6.27594936708860759" y2="28.2860759493670884" style="stroke:red;stroke-width:1" />
 <line x1="6.27594936708860759" y1="28.2860759493670884" x2="7.7341772151898734" y2="28.2860759493670884" style="stroke:red;stroke-width:1" />
 <line x1="7.7341772151898734" y1="28.2860759493670884" x2="8.09873417721518986" y2="25.551898734177215" style="stroke:red;stroke-width:1" />
 <line x1="15.2531645569620252" y1="25.551898734177215" x2="15.2531645569620252" y2="35.9873417721518985" style="stroke:red;stroke-width:1" />
 <line x1="11.9265822784810126" y1="25.551898734177215" x2="15.2531645569620252" y2="29.8810126582278479" style="stroke:red;stroke-width:1" />
 <line x1="15.2531645569620252" y1="25.551898734177215" x2="16.30126582278481" y2="26.9189873417721517" style="stroke:red;stroke-width:1" />
 <line x1="16.30126582278481" y1="26.9189873417721517" x2="16.9848101265822783" y2="28.3772151898734175" style="stroke:red;stroke-width:1" />
 <line x1="16.9848101265822783" y1="28.3772151898734175" x2="17.531645569620253" y2="29.7443037974683542" style="stroke:red;stroke-width:1" />
 <line x1="17.531645569620253" y1="29.7443037974683542" x2="17.7139240506329112" y2="30.6101265822784808" style="stroke:red;stroke-width:1" />
 <line x1="17.7139240506329112" y1="30.6101265822784808" x2="17.531645569620253" y2="31.1569620253164555" style="stroke:red;stroke-width:1" />
 <line x1="17.531645569620253" y1="31.1569620253164555" x2="17.2126582278481011" y2="31.4759493670886074" style="stroke:red;stroke-width:1" />
 <line x1="17.2126582278481011" y1="31.4759493670886074" x2="16.7569620253164555" y2="31.5215189873417719" style="stroke:red;stroke-width:1" />
 <line x1="16.7569620253164555" y1="31.5215189873417719" x2="16.3468354430379745" y2="31.2481012658227846" style="stroke:red;stroke-width:1" />
 <line x1="16.3468354430379745" y1="31.2481012658227846" x2="16.6202531645569619" y2="32.2050632911392403" style="stroke:red;stroke-width:1" />
 <line x1="16.6202531645569619" y1="32.2050632911392403" x2="16.711392405063291" y2="32.7974683544303795" style="stroke:red;stroke-width:1" />
 <line x1="16.711392405063291" y1="32.7974683544303795" x2="16.6658227848101264" y2="33.2987341772151896" style="stroke:red;stroke-width:1" />
 <line x1="16.6658227848101264" y1="33.2987341772151896" x2="16.2101265822784808" y2="33.4810126582278479" style="stroke:red;stroke-width:1" />
 <line x1="16.2101265822784808" y1="33.4810126582278479" x2="15.7544303797468353" y2="33.2531645569620251" style="stroke:red;stroke-width:1" />
 <line x1="15.7544303797468353" y1="33.2531645569620251" x2="15.2531645569620252" y2="32.8886075949367086" style="stroke:red;stroke-width:1" />
 <line x1="17.7594936708860758" y1="16.0278481012658226" x2="15.9822784810126581" y2="16.3924050632911391" style="stroke:red;stroke-width:1" />
 <line x1="15.9822784810126581" y1="16.3924050632911391" x2="14.0227848101265821" y2="20.311392405063291" style="stroke:red;stroke-width:1" />
 <line x1="14.0227848101265821" y1="20.311392405063291" x2="17.941772151898734" y2="20.2658227848101264" style="stroke:red;stroke-width:1" />
 <line x1="14.7063291139240505" y1="20.311392405063291" x2="14.5696202531645568" y2="20.4936708860759492" style="stroke:red;stroke-width:1" />
 <line x1="14.5696202531645568" y1="20.4936708860759492" x2="14.4329113924050631" y2="20.8126582278481011" style="stroke:red;stroke-width:1" />
 <line x1="14.4329113924050631" y1="20.8126582278481011" x2="14.3873417721518986" y2="21.1772151898734175" style="stroke:red;stroke-width:1" />
 <line x1="14.3873417721518986" y1="21.1772151898734175" x2="14.2962025316455695" y2="21.4962025316455694" style="stroke:red;stroke-width:1" />
 <line x1="14.2962025316455695" y1="21.4962025316455694" x2="14.2506329113924049" y2="21.7696202531645568" style="stroke:red;stroke-width:1" />
 <line x1="14.2506329113924049" y1="21.7696202531645568" x2="14.2050632911392403" y2="22.2253164556962023" style="stroke:red;stroke-width:1" />
 <line x1="14.2050632911392403" y1="22.2253164556962023" x2="14.0683544303797467" y2="22.772151898734177" style="stroke:red;stroke-width:1" />
 <line x1="14.0683544303797467" y1="22.772151898734177" x2="13.931645569620253" y2="23.4556962025316454" style="stroke:red;stroke-width:1" />
 <line x1="13.931645569620253" y1="23.4556962025316454" x2="13.7493670886075949" y2="24.0025316455696201" style="stroke:red;stroke-width:1" />
 <line x1="13.7493670886075949" y1="24.0025316455696201" x2="13.5670886075949366" y2="24.4126582278481011" style="stroke:red;stroke-width:1" />
 <line x1="13.5670886075949366" y1="24.4126582278481011" x2="13.3392405063291138" y2="24.5493670886075947" style="stroke:red;stroke-width:1" />
 <line x1="13.3392405063291138" y1="24.5493670886075947" x2="13.1113924050632911" y2="24.731645569620253" style="stroke:red;stroke-width:1" />
 <line x1="13.1113924050632911" y1="24.731645569620253" x2="12.7468354430379746" y2="24.8683544303797466" style="stroke:red;stroke-width:1" />
 <line x1="12.7468354430379746" y1="24.8683544303797466" x2="12.5189873417721518" y2="24.9139240506329112" style="stroke:red;stroke-width:1" />
 <line x1="12.5189873417721518" y1="24.9139240506329112" x2="12.1544303797468354" y2="25.0050632911392403" style="stroke:red;stroke-width:1" />
 <line x1="12.1544303797468354" y1="25.0050632911392403" x2="11.8354430379746835" y2="25.0506329113924049" style="stroke:red;stroke-width:1" />
 <line x1="11.8354430379746835" y1="25.0506329113924049" x2="11.5164556962025316" y2="25.141772151898734" style="stroke:red;stroke-width:1" />
 <line x1="11.5164556962025316" y1="25.141772151898734" x2="11.5620253164556961" y2="25.4607594936708859" style="stroke:red;stroke-width:1" />
 <line x1="11.5620253164556961" y1="25.4607594936708859" x2="12.7468354430379746" y2="25.5063291139240504" style="stroke:red;stroke-width:1" />
 <line x1="12.7468354430379746" y1="25.5063291139240504" x2="13.2481012658227847" y2="25.3696202531645568" style="stroke:red;stroke-width:1" />
 <line x1="13.2481012658227847" y1="25.3696202531645568" x2="13.6126582278481012" y2="25.5063291139240504" style="stroke:red;stroke-width:1" />
 <line x1="13.6126582278481012" y1="25.5063291139240504" x2="13.8860759493670884" y2="25.5063291139240504" style="stroke:red;stroke-width:1" />
 <line x1="13.8860759493670884" y1="25.5063291139240504" x2="14.0683544303797467" y2="25.4151898734177213" style="stroke:red;stroke-width:1" />
 <line x1="14.0683544303797467" y1="25.4151898734177213" x2="14.1139240506329112" y2="25.2784810126582276" style="stroke:red;stroke-width:1" />
 <line x1="14.1139240506329112" y1="25.2784810126582276" x2="14.1594936708860758" y2="25.141772151898734" style="stroke:red;stroke-width:1" />
 <line x1="14.1594936708860758" y1="25.141772151898734" x2="14.1594936708860758" y2="24.9139240506329112" style="stroke:red;stroke-width:1" />
 <line x1="14.1594936708860758" y1="24.9139240506329112" x2="14.2506329113924049" y2="24.4582278481012656" style="stroke:red;stroke-width:1" />
 <line x1="14.2506329113924049" y1="24.4582278481012656" x2="14.4784810126582277" y2="23.9113924050632909" style="stroke:red;stroke-width:1" />
 <line x1="14.4784810126582277" y1="23.9113924050632909" x2="14.751898734177215" y2="23.2734177215189871" style="stroke:red;stroke-width:1" />
 <line x1="14.751898734177215" y1="23.2734177215189871" x2="14.9797468354430378" y2="22.772151898734177" style="stroke:red;stroke-width:1" />
 <line x1="14.9797468354430378" y1="22.772151898734177" x2="15.162025316455696" y2="22.1341772151898732" style="stroke:red;stroke-width:1" />
 <line x1="15.162025316455696" y1="22.1341772151898732" x2="15.2075949367088606" y2="21.7240506329113922" style="stroke:red;stroke-width:1" />
 <line x1="15.2075949367088606" y1="21.7240506329113922" x2="15.2987341772151897" y2="21.3594936708860758" style="stroke:red;stroke-width:1" />
 <line x1="15.2987341772151897" y1="21.3594936708860758" x2="15.2987341772151897" y2="21.131645569620253" style="stroke:red;stroke-width:1" />
 <line x1="15.2987341772151897" y1="21.131645569620253" x2="15.572151898734177" y2="20.7670886075949365" style="stroke:red;stroke-width:1" />
 <line x1="15.572151898734177" y1="20.7670886075949365" x2="15.7999999999999998" y2="20.311392405063291" style="stroke:red;stroke-width:1" />
 <line x1="16.7569620253164555" y1="20.311392405063291" x2="16.8481012658227846" y2="20.5848101265822783" style="stroke:red;stroke-width:1" />
 <line x1="16.8481012658227846" y1="20.5848101265822783" x2="16.8481012658227846" y2="20.8582278481012656" style="stroke:red;stroke-width:1" />
 <line x1="16.8481012658227846" y1="20.8582278481012656" x2="16.9392405063291138" y2="21.0860759493670884" style="stroke:red;stroke-width:1" />
 <line x1="16.9392405063291138" y1="21.0860759493670884" x2="16.9848101265822783" y2="21.2683544303797466" style="stroke:red;stroke-width:1" />
 <line x1="16.9848101265822783" y1="21.2683544303797466" x2="17.121518987341772" y2="21.4962025316455694" style="stroke:red;stroke-width:1" />
 <line x1="17.121518987341772" y1="21.4962025316455694" x2="17.3493670886075948" y2="22.362025316455696" style="stroke:red;stroke-width:1" />
 <line x1="17.3493670886075948" y1="22.362025316455696" x2="17.531645569620253" y2="23.0455696202531644" style="stroke:red;stroke-width:1" />
 <line x1="17.531645569620253" y1="23.0455696202531644" x2="17.6683544303797467" y2="23.6379746835443036" style="stroke:red;stroke-width:1" />
 <line x1="17.6683544303797467" y1="23.6379746835443036" x2="17.7139240506329112" y2="24.0936708860759492" style="stroke:red;stroke-width:1" />
 <line x1="17.7139240506329112" y1="24.0936708860759492" x2="17.7594936708860758" y2="24.2759493670886074" style="stroke:red;stroke-width:1" />
 <line x1="17.7594936708860758" y1="24.2759493670886074" x2="17.5772151898734175" y2="24.5493670886075947" style="stroke:red;stroke-width:1" />
 <line x1="17.5772151898734175" y1="24.5493670886075947" x2="17.4405063291139239" y2="24.731645569620253" style="stroke:red;stroke-width:1" />
 <line x1="17.4405063291139239" y1="24.731645569620253" x2="17.121518987341772" y2="24.8683544303797466" style="stroke:red;stroke-width:1" />
 <line x1="17.121518987341772" y1="24.8683544303797466" x2="16.7569620253164555" y2="25.0050632911392403" style="stroke:red;stroke-width:1" />
 <line x1="16.7569620253164555" y1="25.0050632911392403" x2="16.4835443037974682" y2="25.0506329113924049" style="stroke:red;stroke-width:1" />
 <line x1="16.4835443037974682" y1="25.0506329113924049" x2="15.9822784810126581" y2="25.1873417721518985" style="stroke:red;stroke-width:1" />
 <line x1="15.9822784810126581" y1="25.1873417721518985" x2="15.9367088607594935" y2="25.5063291139240504" style="stroke:red;stroke-width:1" />
 <line x1="15.9367088607594935" y1="25.5063291139240504" x2="17.3949367088607593" y2="25.5063291139240504" style="stroke:red;stroke-width:1" />
 <line x1="17.3949367088607593" y1="25.5063291139240504" x2="17.8050632911392403" y2="25.3696202531645568" style="stroke:red;stroke-width:1" />
 <line x1="17.8050632911392403" y1="25.3696202531645568" x2="18.2151898734177213" y2="25.5063291139240504" style="stroke:red;stroke-width:1" />
 <line x1="18.2151898734177213" y1="25.5063291139240504" x2="18.4430379746835441" y2="25.5063291139240504" style="stroke:red;stroke-width:1" />
 <line x1="18.4430379746835441" y1="25.5063291139240504" x2="18.6253164556962024" y2="25.4151898734177213" style="stroke:red;stroke-width:1" />
 <line x1="18.6253164556962024" y1="25.4151898734177213" x2="18.7164556962025315" y2="25.2329113924050631" style="stroke:red;stroke-width:1" />
 <line x1="18.7164556962025315" y1="25.2329113924050631" x2="18.6708860759493669" y2="25.0506329113924049" style="stroke:red;stroke-width:1" />
 <line x1="18.6708860759493669" y1="25.0506329113924049" x2="18.5797468354430378" y2="24.8683544303797466" style="stroke:red;stroke-width:1" />
 <line x1="18.5797468354430378" y1="24.8683544303797466" x2="18.4886075949367087" y2="24.2759493670886074" style="stroke:red;stroke-width:1" />
 <line x1="18.4886075949367087" y1="24.2759493670886074" x2="18.4886075949367087" y2="23.5012658227848099" style="stroke:red;stroke-width:1" />
 <line x1="18.4886075949367087" y1="23.5012658227848099" x2="18.4886075949367087" y2="22.772151898734177" style="stroke:red;stroke-width:1" />
 <line x1="18.4886075949367087" y1="22.772151898734177" x2="18.351898734177215" y2="22.1341772151898732" style="stroke:red;stroke-width:1" />
 <line x1="18.351898734177215" y1="22.1341772151898732" x2="18.2607594936708859" y2="21.5873417721518985" style="stroke:red;stroke-width:1" />
 <line x1="18.2607594936708859" y1="21.5873417721518985" x2="18.0784810126582277" y2="21.0405063291139239" style="stroke:red;stroke-width:1" />
 <line x1="18.0784810126582277" y1="21.0405063291139239" x2="18.0329113924050631" y2="20.6303797468354429" style="stroke:red;stroke-width:1" />
 <line x1="18.0329113924050631" y1="20.6303797468354429" x2="17.941772151898734" y2="20.4025316455696201" style="stroke:red;stroke-width:1" />
 <line x1="17.941772151898734" y1="20.4025316455696201" x2="17.941772151898734" y2="19.9468354430379745" style="stroke:red;stroke-width:1" />
 <line x1="17.941772151898734" y1="19.9468354430379745" x2="17.941772151898734" y2="19.4911392405063289" style="stroke:red;stroke-width:1" />
 <line x1="17.941772151898734" y1="19.4911392405063289" x2="17.941772151898734" y2="19.172151898734177" style="stroke:red;stroke-width:1" />
 <line x1="17.941772151898734" y1="19.172151898734177" x2="17.9873417721518986" y2="18.8987341772151897" style="stroke:red;stroke-width:1" />
 <line x1="17.9873417721518986" y1="18.8987341772151897" x2="18.0329113924050631" y2="18.5797468354430378" style="stroke:red;stroke-width:1" />
 <line x1="18.0329113924050631" y1="18.5797468354430378" x2="18.1240506329113922" y2="18.1696202531645568" style="stroke:red;stroke-width:1" />
 <line x1="18.1240506329113922" y1="18.1696202531645568" x2="18.2151898734177213" y2="17.7594936708860758" style="stroke:red;stroke-width:1" />
 <line x1="18.2151898734177213" y1="17.7594936708860758" x2="18.2607594936708859" y2="17.3493670886075948" style="stroke:red;stroke-width:1" />
 <line x1="18.2607594936708859" y1="17.3493670886075948" x2="18.1696202531645568" y2="16.9392405063291138" style="stroke:red;stroke-width:1" />
 <line x1="18.1696202531645568" y1="16.9392405063291138" x2="17.941772151898734" y2="16.5291139240506327" style="stroke:red;stroke-width:1" />
 <line x1="17.941772151898734" y1="16.5291139240506327" x2="17.8050632911392403" y2="16.1189873417721517" style="stroke:red;stroke-width:1" />
 <line x1="17.8050632911392403" y1="16.1189873417721517" x2="17.7594936708860758" y2="15.8911392405063289" style="stroke:red;stroke-width:1" />
 <line x1="17.7594936708860758" y1="15.8911392405063289" x2="17.8506329113924049" y2="15.4810126582278479" style="stroke:red;stroke-width:1" />
 <line x1="17.8506329113924049" y1="15.4810126582278479" x2="17.9873417721518986" y2="15.0253164556962024" style="stroke:red;stroke-width:1" />
 <line x1="17.9873417721518986" y1="15.0253164556962024" x2="18.2151898734177213" y2="14.6607594936708859" style="stroke:red;stroke-width:1" />
 <line x1="18.2151898734177213" y1="14.6607594936708859" x2="18.351898734177215" y2="14.341772151898734" style="stroke:red;stroke-width:1" />
 <line x1="18.351898734177215" y1="14.341772151898734" x2="18.3974683544303796" y2="14.1594936708860758" style="stroke:red;stroke-width:1" />
 <line x1="18.3974683544303796" y1="14.1594936708860758" x2="18.6253164556962024" y2="14.7063291139240505" style="stroke:red;stroke-width:1" />
 <line x1="18.6253164556962024" y1="14.7063291139240505" x2="18.8531645569620251" y2="15.1164556962025315" style="stroke:red;stroke-width:1" />
 <line x1="18.8531645569620251" y1="15.1164556962025315" x2="19.0354430379746834" y2="15.4810126582278479" style="stroke:red;stroke-width:1" />
 <line x1="19.0354430379746834" y1="15.4810126582278479" x2="19.3544303797468353" y2="16.1645569620253163" style="stroke:red;stroke-width:1" />
 <line x1="19.3544303797468353" y1="16.1645569620253163" x2="19.172151898734177" y2="16.6658227848101264" style="stroke:red;stroke-width:1" />
 <line x1="19.172151898734177" y1="16.6658227848101264" x2="18.9898734177215188" y2="17.3037974683544302" style="stroke:red;stroke-width:1" />
 <line x1="18.9898734177215188" y1="17.3037974683544302" x2="18.8075949367088606" y2="17.941772151898734" style="stroke:red;stroke-width:1" />
 <line x1="18.8075949367088606" y1="17.941772151898734" x2="18.7164556962025315" y2="18.351898734177215" style="stroke:red;stroke-width:1" />
 <line x1="18.7164556962025315" y1="18.351898734177215" x2="18.6708860759493669" y2="18.6253164556962024" style="stroke:red;stroke-width:1" />
 <line x1="18.6708860759493669" y1="18.6253164556962024" x2="18.4886075949367087" y2="18.762025316455696" style="stroke:red;stroke-width:1" />
 <line x1="18.4886075949367087" y1="18.762025316455696" x2="18.351898734177215" y2="19.1265822784810125" style="stroke:red;stroke-width:1" />
 <line x1="18.351898734177215" y1="19.1265822784810125" x2="18.2607594936708859" y2="19.9468354430379745" style="stroke:red;stroke-width:1" />
 <line x1="18.2607594936708859" y1="19.9468354430379745" x2="18.3974683544303796" y2="19.9012658227848099" style="stroke:red;stroke-width:1" />
 <line x1="18.3974683544303796" y1="19.9012658227848099" x2="18.4886075949367087" y2="19.6734177215189872" style="stroke:red;stroke-width:1" />
 <line x1="18.4886075949367087" y1="19.6734177215189872" x2="18.5341772151898732" y2="19.2177215189873416" style="stroke:red;stroke-width:1" />
 <line x1="18.5341772151898732" y1="19.582278481012658" x2="18.5797468354430378" y2="19.7645569620253163" style="stroke:red;stroke-width:1" />
 <line x1="18.5797468354430378" y1="19.7645569620253163" x2="18.7164556962025315" y2="19.8556962025316454" style="stroke:red;stroke-width:1" />
 <line x1="18.7164556962025315" y1="19.8556962025316454" x2="18.8531645569620251" y2="19.9012658227848099" style="stroke:red;stroke-width:1" />
 <line x1="18.8531645569620251" y1="19.9012658227848099" x2="19.0354430379746834" y2="19.8556962025316454" style="stroke:red;stroke-width:1" />
 <line x1="19.0354430379746834" y1="19.8556962025316454" x2="19.172151898734177" y2="19.8556962025316454" style="stroke:red;stroke-width:1" />
 <line x1="19.172151898734177" y1="19.8556962025316454" x2="19.2632911392405061" y2="19.7189873417721517" style="stroke:red;stroke-width:1" />
 <line x1="19.2632911392405061" y1="19.7189873417721517" x2="19.3088607594936707" y2="19.6278481012658226" style="stroke:red;stroke-width:1" />
 <line x1="19.3088607594936707" y1="19.6278481012658226" x2="19.3544303797468353" y2="19.4911392405063289" style="stroke:red;stroke-width:1" />
 <line x1="19.3544303797468353" y1="19.4911392405063289" x2="19.3544303797468353" y2="19.172151898734177" style="stroke:red;stroke-width:1" />
 <line x1="19.3544303797468353" y1="19.172151898734177" x2="19.3544303797468353" y2="18.8987341772151897" style="stroke:red;stroke-width:1" />
 <line x1="19.3544303797468353" y1="18.8987341772151897" x2="19.2177215189873416" y2="18.6708860759493669" style="stroke:red;stroke-width:1" />
 <line x1="19.2177215189873416" y1="18.6708860759493669" x2="19.5367088607594935" y2="18.1240506329113922" style="stroke:red;stroke-width:1" />
 <line x1="19.5367088607594935" y1="18.1240506329113922" x2="19.7645569620253163" y2="17.5772151898734175" style="stroke:red;stroke-width:1" />
 <line x1="19.7645569620253163" y1="17.5772151898734175" x2="19.9924050632911391" y2="16.9848101265822783" style="stroke:red;stroke-width:1" />
 <line x1="19.9924050632911391" y1="16.9848101265822783" x2="20.1291139240506327" y2="16.5291139240506327" style="stroke:red;stroke-width:1" />
 <line x1="20.1291139240506327" y1="16.5291139240506327" x2="20.2658227848101264" y2="16.1189873417721517" style="stroke:red;stroke-width:1" />
 <line x1="20.2658227848101264" y1="16.1189873417721517" x2="19.9924050632911391" y2="15.4354430379746834" style="stroke:red;stroke-width:1" />
 <line x1="19.9924050632911391" y1="15.4354430379746834" x2="19.6734177215189872" y2="14.6607594936708859" style="stroke:red;stroke-width:1" />
 <line x1="19.6734177215189872" y1="14.6607594936708859" x2="19.2632911392405061" y2="13.7949367088607594" style="stroke:red;stroke-width:1" />
 <line x1="19.2632911392405061" y1="13.7949367088607594" x2="18.8987341772151897" y2="13.1113924050632911" style="stroke:red;stroke-width:1" />
 <line x1="18.8987341772151897" y1="13.1113924050632911" x2="18.7164556962025315" y2="12.8835443037974683" style="stroke:red;stroke-width:1" />
 <line x1="18.7164556962025315" y1="12.8835443037974683" x2="18.351898734177215" y2="12.6556962025316455" style="stroke:red;stroke-width:1" />
 <line x1="16.30126582278481" y1="12.0632911392405063" x2="16.30126582278481" y2="12.5645569620253164" style="stroke:red;stroke-width:1" />
 <line x1="16.30126582278481" y1="12.5645569620253164" x2="15.6177215189873416" y2="12.6556962025316455" style="stroke:red;stroke-width:1" />
 <line x1="15.6177215189873416" y1="12.6556962025316455" x2="15.2531645569620252" y2="12.70126582278481" style="stroke:red;stroke-width:1" />
 <line x1="15.2531645569620252" y1="12.70126582278481" x2="14.8886075949367087" y2="12.8379746835443037" style="stroke:red;stroke-width:1" />
 <line x1="14.8886075949367087" y1="12.8379746835443037" x2="14.7974683544303796" y2="12.9291139240506328" style="stroke:red;stroke-width:1" />
 <line x1="14.7974683544303796" y1="12.9291139240506328" x2="14.6151898734177214" y2="13.2025316455696202" style="stroke:red;stroke-width:1" />
 <line x1="14.6151898734177214" y1="13.2025316455696202" x2="14.3873417721518986" y2="13.7949367088607594" style="stroke:red;stroke-width:1" />
 <line x1="14.3873417721518986" y1="13.7949367088607594" x2="14.1594936708860758" y2="14.4784810126582277" style="stroke:red;stroke-width:1" />
 <line x1="14.1594936708860758" y1="14.4784810126582277" x2="13.931645569620253" y2="15.0253164556962024" style="stroke:red;stroke-width:1" />
 <line x1="13.931645569620253" y1="15.0253164556962024" x2="13.840506329113924" y2="15.4810126582278479" style="stroke:red;stroke-width:1" />
 <line x1="13.840506329113924" y1="15.4810126582278479" x2="13.7037974683544303" y2="15.7544303797468353" style="stroke:red;stroke-width:1" />
 <line x1="13.7037974683544303" y1="15.7544303797468353" x2="13.3392405063291138" y2="16.0734177215189872" style="stroke:red;stroke-width:1" />
 <line x1="13.3392405063291138" y1="16.0734177215189872" x2="12.7468354430379746" y2="16.5291139240506327" style="stroke:red;stroke-width:1" />
 <line x1="12.7468354430379746" y1="16.5291139240506327" x2="12.1999999999999999" y2="16.9848101265822783" style="stroke:red;stroke-width:1" />
 <line x1="12.1999999999999999" y1="16.9848101265822783" x2="11.8354430379746835" y2="17.2582278481012656" style="stroke:red;stroke-width:1" />
 <line x1="11.8354430379746835" y1="17.2582278481012656" x2="11.5164556962025316" y2="17.531645569620253" style="stroke:red;stroke-width:1" />
 <line x1="11.5164556962025316" y1="17.531645569620253" x2="11.1974683544303797" y2="17.7139240506329112" style="stroke:red;stroke-width:1" />
 <line x1="11.1974683544303797" y1="17.7139240506329112" x2="10.7417721518987341" y2="17.6227848101265821" style="stroke:red;stroke-width:1" />
 <line x1="10.7417721518987341" y1="17.6227848101265821" x2="10.240506329113924" y2="17.7594936708860758" style="stroke:red;stroke-width:1" />
 <line x1="10.240506329113924" y1="17.7594936708860758" x2="10.3316455696202531" y2="17.941772151898734" style="stroke:red;stroke-width:1" />
 <line x1="10.3316455696202531" y1="17.941772151898734" x2="10.7417721518987341" y2="17.8506329113924049" style="stroke:red;stroke-width:1" />
 <line x1="10.7417721518987341" y1="17.8506329113924049" x2="10.8784810126582278" y2="17.8962025316455694" style="stroke:red;stroke-width:1" />
 <line x1="10.8784810126582278" y1="17.8962025316455694" x2="11.060759493670886" y2="17.9873417721518986" style="stroke:red;stroke-width:1" />
 <line x1="11.060759493670886" y1="17.9873417721518986" x2="11.1518987341772151" y2="18.1696202531645568" style="stroke:red;stroke-width:1" />
 <line x1="11.1518987341772151" y1="18.1696202531645568" x2="11.1518987341772151" y2="18.3063291139240505" style="stroke:red;stroke-width:1" />
 <line x1="11.1518987341772151" y1="18.3063291139240505" x2="11.1063291139240506" y2="18.4430379746835441" style="stroke:red;stroke-width:1" />
 <line x1="11.1063291139240506" y1="18.4430379746835441" x2="10.9240506329113923" y2="18.5797468354430378" style="stroke:red;stroke-width:1" />
 <line x1="10.9240506329113923" y1="18.5797468354430378" x2="10.8329113924050632" y2="18.6253164556962024" style="stroke:red;stroke-width:1" />
 <line x1="10.8329113924050632" y1="18.6253164556962024" x2="10.6962025316455696" y2="18.6253164556962024" style="stroke:red;stroke-width:1" />
 <line x1="10.6962025316455696" y1="18.6253164556962024" x2="10.4227848101265822" y2="18.5797468354430378" style="stroke:red;stroke-width:1" />
 <line x1="10.4227848101265822" y1="18.5797468354430378" x2="10.2860759493670885" y2="18.4430379746835441" style="stroke:red;stroke-width:1" />
 <line x1="10.2860759493670885" y1="18.4430379746835441" x2="10.240506329113924" y2="18.3063291139240505" style="stroke:red;stroke-width:1" />
 <line x1="10.240506329113924" y1="18.3063291139240505" x2="10.240506329113924" y2="18.1696202531645568" style="stroke:red;stroke-width:1" />
 <line x1="10.240506329113924" y1="18.1696202531645568" x2="10.240506329113924" y2="18.0329113924050631" style="stroke:red;stroke-width:1" />
 <line x1="10.240506329113924" y1="18.0329113924050631" x2="10.2860759493670885" y2="17.9873417721518986" style="stroke:red;stroke-width:1" />
 <line x1="10.2860759493670885" y1="17.9873417721518986" x2="10.5594936708860759" y2="17.8962025316455694" style="stroke:red;stroke-width:1" />
 <line x1="10.9696202531645569" y1="18.5797468354430378" x2="11.1518987341772151" y2="18.4886075949367087" style="stroke:red;stroke-width:1" />
 <line x1="11.1518987341772151" y1="18.4886075949367087" x2="11.4253164556962025" y2="18.1696202531645568" style="stroke:red;stroke-width:1" />
 <line x1="11.4253164556962025" y1="18.1696202531645568" x2="12.1999999999999999" y2="17.7594936708860758" style="stroke:red;stroke-width:1" />
 <line x1="12.1999999999999999" y1="17.7594936708860758" x2="13.0658227848101265" y2="17.2582278481012656" style="stroke:red;stroke-width:1" />
 <line x1="13.0658227848101265" y1="17.2582278481012656" x2="13.7493670886075949" y2="16.8481012658227846" style="stroke:red;stroke-width:1" />
 <line x1="13.7493670886075949" y1="16.8481012658227846" x2="14.4329113924050631" y2="16.3468354430379745" style="stroke:red;stroke-width:1" />
 <line x1="14.4329113924050631" y1="16.3468354430379745" x2="14.5696202531645568" y2="16.1645569620253163" style="stroke:red;stroke-width:1" />
 <line x1="14.5696202531645568" y1="16.1645569620253163" x2="14.7063291139240505" y2="15.7544303797468353" style="stroke:red;stroke-width:1" />
 <line x1="14.7063291139240505" y1="15.7544303797468353" x2="14.9797468354430378" y2="15.1164556962025315" style="stroke:red;stroke-width:1" />
 <line x1="14.9797468354430378" y1="15.1164556962025315" x2="15.1164556962025315" y2="14.7063291139240505" style="stroke:red;stroke-width:1" />
 <line x1="15.1164556962025315" y1="14.7063291139240505" x2="15.2987341772151897" y2="14.2050632911392403" style="stroke:red;stroke-width:1" />
 <line x1="15.2987341772151897" y1="14.2050632911392403" x2="15.9367088607594935" y2="16.3924050632911391" style="stroke:red;stroke-width:1" />
 <line x1="10.7417721518987341" y1="18.6253164556962024" x2="10.7417721518987341" y2="25.5063291139240504" style="stroke:red;stroke-width:1" />
 <line x1="10.7417721518987341" y1="25.5063291139240504" x2="10.5594936708860759" y2="25.4607594936708859" style="stroke:red;stroke-width:1" />
 <line x1="10.5594936708860759" y1="25.4607594936708859" x2="10.5594936708860759" y2="18.6253164556962024" style="stroke:red;stroke-width:1" />
 <line x1="10.5139240506329113" y1="17.8050632911392403" x2="10.5139240506329113" y2="11.3797468354430379" style="stroke:red;stroke-width:1" />
 <line x1="10.5139240506329113" y1="11.3797468354430379" x2="10.7417721518987341" y2="11.2886075949367088" style="stroke:red;stroke-width:1" />
 <line x1="10.7417721518987341" y1="11.2886075949367088" x2="10.9696202531645569" y2="11.1518987341772151" style="stroke:red;stroke-width:1" />
 <line x1="10.9696202531645569" y1="11.1518987341772151" x2="11.1974683544303797" y2="10.9696202531645569" style="stroke:red;stroke-width:1" />
 <line x1="11.1974683544303797" y1="10.9696202531645569" x2="11.2886075949367088" y2="10.7417721518987341" style="stroke:red;stroke-width:1" />
 <line x1="11.2886075949367088" y1="10.7417721518987341" x2="11.2886075949367088" y2="10.4227848101265822" style="stroke:red;stroke-width:1" />
 <line x1="11.2886075949367088" y1="10.4227848101265822" x2="11.1974683544303797" y2="10.240506329113924" style="stroke:red;stroke-width:1" />
 <line x1="11.1974683544303797" y1="10.240506329113924" x2="10.9696202531645569" y2="10.1037974683544303" style="stroke:red;stroke-width:1" />
 <line x1="10.9696202531645569" y1="10.1037974683544303" x2="10.7417721518987341" y2="10.0582278481012658" style="stroke:red;stroke-width:1" />
 <line x1="10.7417721518987341" y1="10.0582278481012658" x2="10.5594936708860759" y2="10.1037974683544303" style="stroke:red;stroke-width:1" />
 <line x1="10.5594936708860759" y1="10.1037974683544303" x2="10.4227848101265822" y2="10.1949367088607594" style="stroke:red;stroke-width:1" />
 <line x1="10.4227848101265822" y1="10.1949367088607594" x2="10.2860759493670885" y2="10.3316455696202531" style="stroke:red;stroke-width:1" />
 <line x1="10.2860759493670885" y1="10.3316455696202531" x2="10.1949367088607594" y2="10.5594936708860759" style="stroke:red;stroke-width:1" />
 <line x1="10.1949367088607594" y1="10.5594936708860759" x2="10.1037974683544303" y2="10.7873417721518987" style="stroke:red;stroke-width:1" />
 <line x1="10.1037974683544303" y1="10.7873417721518987" x2="10.0126582278481012" y2="10.9696202531645569" style="stroke:red;stroke-width:1" />
 <line x1="10.0126582278481012" y1="10.9696202531645569" x2="9.69367088607594935" y2="11.1063291139240506" style="stroke:red;stroke-width:1" />
 <line x1="9.69367088607594935" y1="11.1063291139240506" x2="9.55696202531645568" y2="10.9240506329113923" style="stroke:red;stroke-width:1" />
 <line x1="9.55696202531645568" y1="10.9240506329113923" x2="9.92151898734177213" y2="10.8329113924050632" style="stroke:red;stroke-width:1" />
 <line x1="9.92151898734177213" y1="10.8329113924050632" x2="9.96708860759493669" y2="10.6050632911392404" style="stroke:red;stroke-width:1" />
 <line x1="9.96708860759493669" y1="10.6050632911392404" x2="10.0126582278481012" y2="10.3316455696202531" style="stroke:red;stroke-width:1" />
 <line x1="10.0126582278481012" y1="10.3316455696202531" x2="10.1493670886075949" y2="10.1493670886075949" style="stroke:red;stroke-width:1" />
 <line x1="10.1493670886075949" y1="10.1493670886075949" x2="10.2860759493670885" y2="9.96708860759493669" style="stroke:red;stroke-width:1" />
 <line x1="10.2860759493670885" y1="9.96708860759493669" x2="10.5139240506329113" y2="9.87594936708860757" style="stroke:red;stroke-width:1" />
 <line x1="10.5139240506329113" y1="9.87594936708860757" x2="10.7417721518987341" y2="9.83037974683544302" style="stroke:red;stroke-width:1" />
 <line x1="10.7417721518987341" y1="9.83037974683544302" x2="10.9696202531645569" y2="9.87594936708860757" style="stroke:red;stroke-width:1" />
 <line x1="10.9696202531645569" y1="9.87594936708860757" x2="11.060759493670886" y2="9.92151898734177213" style="stroke:red;stroke-width:1" />
 <line x1="11.060759493670886" y1="9.92151898734177213" x2="11.3797468354430379" y2="10.1493670886075949" style="stroke:red;stroke-width:1" />
 <line x1="11.3797468354430379" y1="10.1493670886075949" x2="11.470886075949367" y2="10.3316455696202531" style="stroke:red;stroke-width:1" />
 <line x1="11.470886075949367" y1="10.3316455696202531" x2="11.5164556962025316" y2="10.6050632911392404" style="stroke:red;stroke-width:1" />
 <line x1="11.5164556962025316" y1="10.6050632911392404" x2="11.4253164556962025" y2="10.8784810126582278" style="stroke:red;stroke-width:1" />
 <line x1="11.4253164556962025" y1="10.8784810126582278" x2="11.3341772151898733" y2="11.1063291139240506" style="stroke:red;stroke-width:1" />
 <line x1="11.3341772151898733" y1="11.1063291139240506" x2="11.1974683544303797" y2="11.2886075949367088" style="stroke:red;stroke-width:1" />
 <line x1="11.1974683544303797" y1="11.2886075949367088" x2="11.060759493670886" y2="11.3797468354430379" style="stroke:red;stroke-width:1" />
 <line x1="11.060759493670886" y1="11.3797468354430379" x2="10.7417721518987341" y2="11.5164556962025316" style="stroke:red;stroke-width:1" />
 <line x1="10.7417721518987341" y1="11.5164556962025316" x2="10.7417721518987341" y2="17.8506329113924049" style="stroke:red;stroke-width:1" />
 <line x1="20.2658227848101264" y1="19.4911392405063289" x2="19.3544303797468353" y2="19.4911392405063289" style="stroke:red;stroke-width:1" />
 <line x1="18.4886075949367087" y1="19.4911392405063289" x2="12.9291139240506328" y2="19.4455696202531644" style="stroke:red;stroke-width:1" />
 <line x1="12.9291139240506328" y1="19.4455696202531644" x2="13.2481012658227847" y2="23.8202531645569618" style="stroke:red;stroke-width:1" />
 <line x1="13.2025316455696202" y1="23.5012658227848099" x2="12.1999999999999999" y2="23.5012658227848099" style="stroke:red;stroke-width:1" />
 <line x1="12.70126582278481" y1="23.7291139240506327" x2="12.70126582278481" y2="23.5012658227848099" style="stroke:red;stroke-width:1" />
 <line x1="12.1999999999999999" y1="23.8202531645569618" x2="12.8835443037974683" y2="19.4911392405063289" style="stroke:red;stroke-width:1" />
 <line x1="18.3974683544303796" y1="10.7417721518987341" x2="18.3974683544303796" y2="10.5139240506329113" style="stroke:red;stroke-width:1" />
 <line x1="18.3974683544303796" y1="10.5139240506329113" x2="18.3063291139240505" y2="10.240506329113924" style="stroke:red;stroke-width:1" />
 <line x1="18.3063291139240505" y1="10.240506329113924" x2="18.2151898734177213" y2="9.92151898734177213" style="stroke:red;stroke-width:1" />
 <line x1="18.2151898734177213" y1="9.92151898734177213" x2="17.941772151898734" y2="9.69367088607594935" style="stroke:red;stroke-width:1" />
 <line x1="17.941772151898734" y1="9.69367088607594935" x2="17.6227848101265821" y2="9.46582278481012656" style="stroke:red;stroke-width:1" />
 <line x1="17.6227848101265821" y1="9.46582278481012656" x2="17.3493670886075948" y2="9.420253164556962" style="stroke:red;stroke-width:1" />
 <line x1="17.3493670886075948" y1="9.420253164556962" x2="16.9848101265822783" y2="9.37468354430379745" style="stroke:red;stroke-width:1" />
 <line x1="16.9848101265822783" y1="9.37468354430379745" x2="16.5746835443037973" y2="9.420253164556962" style="stroke:red;stroke-width:1" />
 <line x1="16.5746835443037973" y1="9.420253164556962" x2="16.2556962025316454" y2="9.55696202531645568" style="stroke:red;stroke-width:1" />
 <line x1="16.2556962025316454" y1="9.55696202531645568" x2="16.0278481012658226" y2="9.78481012658227846" style="stroke:red;stroke-width:1" />
 <line x1="16.0278481012658226" y1="9.78481012658227846" x2="15.8911392405063289" y2="10.0126582278481012" style="stroke:red;stroke-width:1" />
 <line x1="15.8911392405063289" y1="10.0126582278481012" x2="15.7088607594936707" y2="10.4227848101265822" style="stroke:red;stroke-width:1" />
 <line x1="15.7088607594936707" y1="10.4227848101265822" x2="17.121518987341772" y2="10.5594936708860759" style="stroke:red;stroke-width:1" />
 <line x1="17.121518987341772" y1="10.5594936708860759" x2="17.1670886075949365" y2="10.6962025316455696" style="stroke:red;stroke-width:1" />
 <line x1="17.1670886075949365" y1="10.6962025316455696" x2="17.3037974683544302" y2="10.7417721518987341" style="stroke:red;stroke-width:1" />
 <line x1="17.3037974683544302" y1="10.7417721518987341" x2="17.3493670886075948" y2="10.9696202531645569" style="stroke:red;stroke-width:1" />
 <line x1="17.3493670886075948" y1="10.9696202531645569" x2="17.3037974683544302" y2="11.1518987341772151" style="stroke:red;stroke-width:1" />
 <line x1="17.3037974683544302" y1="11.1518987341772151" x2="17.121518987341772" y2="11.3341772151898733" style="stroke:red;stroke-width:1" />
 <line x1="17.121518987341772" y1="11.3341772151898733" x2="17.121518987341772" y2="13.1113924050632911" style="stroke:red;stroke-width:1" />
 <line x1="17.121518987341772" y1="13.1113924050632911" x2="17.8506329113924049" y2="13.1569620253164556" style="stroke:red;stroke-width:1" />
 <line x1="17.8506329113924049" y1="13.1569620253164556" x2="17.8506329113924049" y2="12.6101265822784809" style="stroke:red;stroke-width:1" />
 <line x1="17.8506329113924049" y1="12.6101265822784809" x2="18.0329113924050631" y2="12.6101265822784809" style="stroke:red;stroke-width:1" />
 <line x1="18.0329113924050631" y1="12.6101265822784809" x2="18.2607594936708859" y2="12.6101265822784809" style="stroke:red;stroke-width:1" />
 <line x1="18.2607594936708859" y1="12.6101265822784809" x2="18.3974683544303796" y2="12.7468354430379746" style="stroke:red;stroke-width:1" />
 <line x1="18.3974683544303796" y1="12.7468354430379746" x2="18.3974683544303796" y2="10.7417721518987341" style="stroke:red;stroke-width:1" />
 <line x1="16.0278481012658226" y1="10.9240506329113923" x2="16.4835443037974682" y2="10.9696202531645569" style="stroke:red;stroke-width:1" />
 <line x1="16.4835443037974682" y1="10.9696202531645569" x2="16.3468354430379745" y2="10.7873417721518987" style="stroke:red;stroke-width:1" />
 <line x1="16.3468354430379745" y1="10.7873417721518987" x2="16.2101265822784808" y2="10.7873417721518987" style="stroke:red;stroke-width:1" />
 <line x1="16.2101265822784808" y1="10.7873417721518987" x2="16.0734177215189872" y2="10.8784810126582278" style="stroke:red;stroke-width:1" />
 <line x1="15.7088607594936707" y1="10.4227848101265822" x2="15.572151898734177" y2="10.8329113924050632" style="stroke:red;stroke-width:1" />
 <line x1="15.572151898734177" y1="10.8329113924050632" x2="15.3443037974683543" y2="11.1974683544303797" style="stroke:red;stroke-width:1" />
 <line x1="15.3443037974683543" y1="11.1974683544303797" x2="15.3898734177215188" y2="11.3341772151898733" style="stroke:red;stroke-width:1" />
 <line x1="15.3898734177215188" y1="11.3341772151898733" x2="15.7544303797468353" y2="11.4253164556962025" style="stroke:red;stroke-width:1" />
 <line x1="15.7544303797468353" y1="11.4253164556962025" x2="15.7544303797468353" y2="11.7898734177215189" style="stroke:red;stroke-width:1" />
 <line x1="15.7544303797468353" y1="11.7898734177215189" x2="15.8455696202531644" y2="12.0177215189873417" style="stroke:red;stroke-width:1" />
 <line x1="15.8455696202531644" y1="12.0177215189873417" x2="16.30126582278481" y2="12.0632911392405063" style="stroke:red;stroke-width:1" />
 <line x1="16.5746835443037973" y1="9.420253164556962" x2="16.5291139240506327" y2="9.23797468354430378" style="stroke:red;stroke-width:1" />
 <line x1="16.5291139240506327" y1="9.23797468354430378" x2="16.2556962025316454" y2="9.14683544303797466" style="stroke:red;stroke-width:1" />
 <line x1="16.2556962025316454" y1="9.14683544303797466" x2="15.9822784810126581" y2="9.14683544303797466" style="stroke:red;stroke-width:1" />
 <line x1="15.9822784810126581" y1="9.14683544303797466" x2="15.5265822784810125" y2="9.10126582278481011" style="stroke:red;stroke-width:1" />
 <line x1="15.5265822784810125" y1="9.10126582278481011" x2="15.1164556962025315" y2="9.14683544303797466" style="stroke:red;stroke-width:1" />
 <line x1="15.1164556962025315" y1="9.14683544303797466" x2="14.751898734177215" y2="9.10126582278481011" style="stroke:red;stroke-width:1" />
 <line x1="14.751898734177215" y1="9.10126582278481011" x2="14.4784810126582277" y2="8.96455696202531644" style="stroke:red;stroke-width:1" />
 <line x1="14.4784810126582277" y1="8.96455696202531644" x2="14.2506329113924049" y2="8.87341772151898732" style="stroke:red;stroke-width:1" />
 <line x1="14.2506329113924049" y1="8.87341772151898732" x2="14.2050632911392403" y2="8.59999999999999998" style="stroke:red;stroke-width:1" />
 <line x1="14.2050632911392403" y1="8.59999999999999998" x2="14.1594936708860758" y2="8.46329113924050631" style="stroke:red;stroke-width:1" />
 <line x1="14.1594936708860758" y1="8.46329113924050631" x2="14.1594936708860758" y2="8.41772151898734176" style="stroke:red;stroke-width:1" />
 <line x1="14.1594936708860758" y1="8.41772151898734176" x2="14.2506329113924049" y2="8.3721518987341772" style="stroke:red;stroke-width:1" />
 <line x1="14.2506329113924049" y1="8.3721518987341772" x2="14.341772151898734" y2="8.41772151898734176" style="stroke:red;stroke-width:1" />
 <line x1="14.341772151898734" y1="8.41772151898734176" x2="14.4329113924050631" y2="8.59999999999999998" style="stroke:red;stroke-width:1" />
 <line x1="14.4329113924050631" y1="8.59999999999999998" x2="14.5240506329113922" y2="8.6911392405063291" style="stroke:red;stroke-width:1" />
 <line x1="14.5240506329113922" y1="8.6911392405063291" x2="14.751898734177215" y2="8.78227848101265821" style="stroke:red;stroke-width:1" />
 <line x1="14.751898734177215" y1="8.78227848101265821" x2="15.162025316455696" y2="8.82784810126582277" style="stroke:red;stroke-width:1" />
 <line x1="15.162025316455696" y1="8.82784810126582277" x2="15.4810126582278479" y2="8.73670886075949365" style="stroke:red;stroke-width:1" />
 <line x1="15.4810126582278479" y1="8.73670886075949365" x2="16.0278481012658226" y2="8.6911392405063291" style="stroke:red;stroke-width:1" />
 <line x1="16.0278481012658226" y1="8.6911392405063291" x2="16.4835443037974682" y2="8.73670886075949365" style="stroke:red;stroke-width:1" />
 <line x1="16.4835443037974682" y1="8.73670886075949365" x2="16.7569620253164555" y2="8.78227848101265821" style="stroke:red;stroke-width:1" />
 <line x1="16.7569620253164555" y1="8.78227848101265821" x2="16.9392405063291138" y2="8.91898734177215188" style="stroke:red;stroke-width:1" />
 <line x1="16.9392405063291138" y1="8.91898734177215188" x2="17.2126582278481011" y2="9.10126582278481011" style="stroke:red;stroke-width:1" />
 <line x1="17.2126582278481011" y1="9.10126582278481011" x2="17.3949367088607593" y2="8.87341772151898732" style="stroke:red;stroke-width:1" />
 <line x1="17.3949367088607593" y1="8.87341772151898732" x2="17.7139240506329112" y2="8.6911392405063291" style="stroke:red;stroke-width:1" />
 <line x1="17.7139240506329112" y1="8.6911392405063291" x2="18.1240506329113922" y2="8.64556962025316454" style="stroke:red;stroke-width:1" />
 <line x1="18.1240506329113922" y1="8.64556962025316454" x2="18.6253164556962024" y2="8.64556962025316454" style="stroke:red;stroke-width:1" />
 <line x1="18.6253164556962024" y1="8.64556962025316454" x2="18.8531645569620251" y2="8.6911392405063291" style="stroke:red;stroke-width:1" />
 <line x1="18.8531645569620251" y1="8.6911392405063291" x2="19.2632911392405061" y2="8.64556962025316454" style="stroke:red;stroke-width:1" />
 <line x1="19.2632911392405061" y1="8.64556962025316454" x2="19.582278481012658" y2="8.59999999999999998" style="stroke:red;stroke-width:1" />
 <line x1="19.582278481012658" y1="8.59999999999999998" x2="19.7645569620253163" y2="8.50886075949367087" style="stroke:red;stroke-width:1" />
 <line x1="19.7645569620253163" y1="8.50886075949367087" x2="19.9012658227848099" y2="8.3721518987341772" style="stroke:red;stroke-width:1" />
 <line x1="19.9012658227848099" y1="8.3721518987341772" x2="20.0379746835443036" y2="8.28101265822784808" style="stroke:red;stroke-width:1" />
 <line x1="20.0379746835443036" y1="8.28101265822784808" x2="19.9924050632911391" y2="8.46329113924050631" style="stroke:red;stroke-width:1" />
 <line x1="19.9924050632911391" y1="8.46329113924050631" x2="19.9012658227848099" y2="8.6911392405063291" style="stroke:red;stroke-width:1" />
 <line x1="19.9012658227848099" y1="8.6911392405063291" x2="19.6734177215189872" y2="8.87341772151898732" style="stroke:red;stroke-width:1" />
 <line x1="19.6734177215189872" y1="8.87341772151898732" x2="19.4455696202531644" y2="8.96455696202531644" style="stroke:red;stroke-width:1" />
 <line x1="19.4455696202531644" y1="8.96455696202531644" x2="18.9898734177215188" y2="9.01012658227848099" style="stroke:red;stroke-width:1" />
 <line x1="18.9898734177215188" y1="9.01012658227848099" x2="18.4430379746835441" y2="9.10126582278481011" style="stroke:red;stroke-width:1" />
 <line x1="18.4430379746835441" y1="9.10126582278481011" x2="18.0329113924050631" y2="9.14683544303797466" style="stroke:red;stroke-width:1" />
 <line x1="18.0329113924050631" y1="9.14683544303797466" x2="17.7139240506329112" y2="9.23797468354430378" style="stroke:red;stroke-width:1" />
 <line x1="17.7139240506329112" y1="9.23797468354430378" x2="17.6683544303797467" y2="9.46582278481012656" style="stroke:red;stroke-width:1" />
 <line x1="17.1670886075949365" y1="8.91898734177215188" x2="17.1670886075949365" y2="5.91139240506329113" style="stroke:red;stroke-width:1" />
 <line x1="17.1670886075949365" y1="5.91139240506329113" x2="17.0759493670886074" y2="5.54683544303797468" style="stroke:red;stroke-width:1" />
 <line x1="17.0759493670886074" y1="5.54683544303797468" x2="16.9848101265822783" y2="5.31898734177215189" style="stroke:red;stroke-width:1" />
 <line x1="16.9848101265822783" y1="5.31898734177215189" x2="16.8025316455696201" y2="5.13670886075949367" style="stroke:red;stroke-width:1" />
 <line x1="16.8025316455696201" y1="5.13670886075949367" x2="16.5291139240506327" y2="5" style="stroke:red;stroke-width:1" />
 <line x1="16.5291139240506327" y1="5" x2="16.1645569620253163" y2="5.09113924050632911" style="stroke:red;stroke-width:1" />
 <line x1="16.1645569620253163" y1="5.09113924050632911" x2="15.9822784810126581" y2="5.18227848101265822" style="stroke:red;stroke-width:1" />
 <line x1="15.9822784810126581" y1="5.18227848101265822" x2="15.8455696202531644" y2="5.41012658227848101" style="stroke:red;stroke-width:1" />
 <line x1="15.8455696202531644" y1="5.41012658227848101" x2="15.8455696202531644" y2="5.63797468354430379" style="stroke:red;stroke-width:1" />
 <line x1="15.8455696202531644" y1="5.63797468354430379" x2="16.0278481012658226" y2="5.77468354430379746" style="stroke:red;stroke-width:1" />
 <line x1="16.0278481012658226" y1="5.77468354430379746" x2="16.1645569620253163" y2="5.82025316455696202" style="stroke:red;stroke-width:1" />
 <line x1="16.1645569620253163" y1="5.82025316455696202" x2="16.5291139240506327" y2="5.91139240506329113" style="stroke:red;stroke-width:1" />
 <line x1="16.5291139240506327" y1="5.91139240506329113" x2="15.9367088607594935" y2="8.14430379746835441" style="stroke:red;stroke-width:1" />
 <line x1="15.9367088607594935" y1="8.14430379746835441" x2="16.4379746835443036" y2="8.23544303797468353" style="stroke:red;stroke-width:1" />
 <line x1="16.4379746835443036" y1="8.23544303797468353" x2="16.9392405063291138" y2="8.55443037974683543" style="stroke:red;stroke-width:1" />
 <line x1="16.9392405063291138" y1="8.55443037974683543" x2="17.1670886075949365" y2="8.96455696202531644" style="stroke:red;stroke-width:1" />
 <line x1="17.1670886075949365" y1="8.96455696202531644" x2="17.3493670886075948" y2="8.59999999999999998" style="stroke:red;stroke-width:1" />
 <line x1="17.3493670886075948" y1="8.59999999999999998" x2="17.941772151898734" y2="8.32658227848101264" style="stroke:red;stroke-width:1" />
 <line x1="17.941772151898734" y1="8.32658227848101264" x2="18.4886075949367087" y2="8.18987341772151897" style="stroke:red;stroke-width:1" />
 <line x1="18.4886075949367087" y1="8.18987341772151897" x2="17.941772151898734" y2="5.91139240506329113" style="stroke:red;stroke-width:1" />
 <line x1="17.941772151898734" y1="5.91139240506329113" x2="18.2151898734177213" y2="5.82025316455696202" style="stroke:red;stroke-width:1" />
 <line x1="18.2151898734177213" y1="5.82025316455696202" x2="18.351898734177215" y2="5.7291139240506329" style="stroke:red;stroke-width:1" />
 <line x1="18.351898734177215" y1="5.7291139240506329" x2="18.3974683544303796" y2="5.50126582278481012" style="stroke:red;stroke-width:1" />
 <line x1="18.3974683544303796" y1="5.50126582278481012" x2="18.3974683544303796" y2="5.31898734177215189" style="stroke:red;stroke-width:1" />
 <line x1="18.3974683544303796" y1="5.31898734177215189" x2="18.2151898734177213" y2="5.13670886075949367" style="stroke:red;stroke-width:1" />
 <line x1="18.2151898734177213" y1="5.13670886075949367" x2="17.8962025316455694" y2="5" style="stroke:red;stroke-width:1" />
 <line x1="17.8962025316455694" y1="5" x2="17.5772151898734175" y2="5.04556962025316455" style="stroke:red;stroke-width:1" />
 <line x1="17.5772151898734175" y1="5.04556962025316455" x2="17.3493670886075948" y2="5.27341772151898734" style="stroke:red;stroke-width:1" />
 <line x1="17.3493670886075948" y1="5.27341772151898734" x2="17.3037974683544302" y2="5.50126582278481012" style="stroke:red;stroke-width:1" />
 <line x1="17.3037974683544302" y1="5.50126582278481012" x2="17.2126582278481011" y2="5.7291139240506329" style="stroke:red;stroke-width:1" />
 <line x1="17.2126582278481011" y1="5.7291139240506329" x2="17.1670886075949365" y2="5.95696202531645569" style="stroke:red;stroke-width:1" />

</svg>
