<!DOCTYPE svg PUBLIC "-//W3C//DTD SVG 1.1//EN" "http://www.w3.org/Graphics/SVG/1.1/DTD/svg11.dtd">
<svg width="38" height="47" xmlns="http://www.w3.org/2000/svg">
 <!-- Gardiner/Zz376515 at (0,.46153846153846154) in red, scale=.0615384615384615384, mirror=0 -->
 <line x1="5" y1="34.2923076923076922" x2="32.6923076923076922" y2="34.2923076923076922" style="stroke:red;stroke-width:1" />
 <line x1="32.6923076923076922" y1="37.6769230769230768" x2="5" y2="37.6769230769230768" style="stroke:red;stroke-width:1" />
 <line x1="5" y1="41.0615384615384614" x2="32.6923076923076922" y2="41.0615384615384614" style="stroke:red;stroke-width:1" />
 <line x1="8.38461538461538461" y1="34.2923076923076922" x2="8.38461538461538461" y2="41.0615384615384614" style="stroke:red;stroke-width:1" />
 <line x1="13.6153846153846153" y1="34.2923076923076922" x2="13.6153846153846153" y2="41.0615384615384614" style="stroke:red;stroke-width:1" />
 <line x1="18.8461538461538461" y1="34.2923076923076922" x2="18.8461538461538461" y2="41.0615384615384614" style="stroke:red;stroke-width:1" />
 <line x1="24.0769230769230768" y1="34.2923076923076922" x2="24.0769230769230768" y2="41.0615384615384614" style="stroke:red;stroke-width:1" />
 <line x1="29.3076923076923076" y1="34.2923076923076922" x2="29.3076923076923076" y2="41.0615384615384614" style="stroke:red;stroke-width:1" />
 <line x1="32.5692307692307691" y1="20.1999999999999999" x2="5" y2="20.1999999999999999" style="stroke:red;stroke-width:1" />
 <line x1="9.18461538461538461" y1="20.1999999999999999" x2="8.6923076923076923" y2="18.723076923076923" style="stroke:red;stroke-width:1" />
 <line x1="8.6923076923076923" y1="18.723076923076923" x2="7.8923076923076923" y2="17.4923076923076922" style="stroke:red;stroke-width:1" />
 <line x1="7.8923076923076923" y1="17.4923076923076922" x2="6.66153846153846153" y2="16.5692307692307691" style="stroke:red;stroke-width:1" />
 <line x1="6.66153846153846153" y1="16.5692307692307691" x2="5.67692307692307692" y2="16.5692307692307691" style="stroke:red;stroke-width:1" />
 <line x1="5.67692307692307692" y1="16.5692307692307691" x2="5.12307692307692307" y2="17.123076923076923" style="stroke:red;stroke-width:1" />
 <line x1="5.12307692307692307" y1="17.123076923076923" x2="5" y2="17.8615384615384614" style="stroke:red;stroke-width:1" />
 <line x1="5" y1="17.8615384615384614" x2="5.24615384615384615" y2="19.0923076923076922" style="stroke:red;stroke-width:1" />
 <line x1="5.24615384615384615" y1="19.0923076923076922" x2="5.61538461538461538" y2="20.1999999999999999" style="stroke:red;stroke-width:1" />
 <line x1="5.61538461538461538" y1="20.1999999999999999" x2="6.72307692307692307" y2="23.8923076923076922" style="stroke:red;stroke-width:1" />
 <line x1="6.72307692307692307" y1="23.8923076923076922" x2="8.6923076923076923" y2="23.8923076923076922" style="stroke:red;stroke-width:1" />
 <line x1="8.6923076923076923" y1="23.8923076923076922" x2="9.18461538461538461" y2="20.1999999999999999" style="stroke:red;stroke-width:1" />
 <line x1="18.8461538461538461" y1="20.1999999999999999" x2="18.8461538461538461" y2="34.2923076923076922" style="stroke:red;stroke-width:1" />
 <line x1="14.3538461538461537" y1="20.1999999999999999" x2="18.8461538461538461" y2="26.046153846153846" style="stroke:red;stroke-width:1" />
 <line x1="18.8461538461538461" y1="20.1999999999999999" x2="20.2615384615384614" y2="22.046153846153846" style="stroke:red;stroke-width:1" />
 <line x1="20.2615384615384614" y1="22.046153846153846" x2="21.1846153846153845" y2="24.0153846153846153" style="stroke:red;stroke-width:1" />
 <line x1="21.1846153846153845" y1="24.0153846153846153" x2="21.923076923076923" y2="25.8615384615384614" style="stroke:red;stroke-width:1" />
 <line x1="21.923076923076923" y1="25.8615384615384614" x2="22.1692307692307691" y2="27.0307692307692307" style="stroke:red;stroke-width:1" />
 <line x1="22.1692307692307691" y1="27.0307692307692307" x2="21.923076923076923" y2="27.7692307692307691" style="stroke:red;stroke-width:1" />
 <line x1="21.923076923076923" y1="27.7692307692307691" x2="21.4923076923076922" y2="28.1999999999999999" style="stroke:red;stroke-width:1" />
 <line x1="21.4923076923076922" y1="28.1999999999999999" x2="20.8769230769230768" y2="28.2615384615384614" style="stroke:red;stroke-width:1" />
 <line x1="20.8769230769230768" y1="28.2615384615384614" x2="20.323076923076923" y2="27.8923076923076922" style="stroke:red;stroke-width:1" />
 <line x1="20.323076923076923" y1="27.8923076923076922" x2="20.6923076923076922" y2="29.1846153846153845" style="stroke:red;stroke-width:1" />
 <line x1="20.6923076923076922" y1="29.1846153846153845" x2="20.8153846153846153" y2="29.9846153846153845" style="stroke:red;stroke-width:1" />
 <line x1="20.8153846153846153" y1="29.9846153846153845" x2="20.7538461538461537" y2="30.6615384615384614" style="stroke:red;stroke-width:1" />
 <line x1="20.7538461538461537" y1="30.6615384615384614" x2="20.1384615384615384" y2="30.9076923076923076" style="stroke:red;stroke-width:1" />
 <line x1="20.1384615384615384" y1="30.9076923076923076" x2="19.523076923076923" y2="30.5999999999999999" style="stroke:red;stroke-width:1" />
 <line x1="19.523076923076923" y1="30.5999999999999999" x2="18.8461538461538461" y2="30.1076923076923076" style="stroke:red;stroke-width:1" />
 <line x1="12.6307692307692307" y1="5" x2="12.323076923076923" y2="5.06153846153846153" style="stroke:red;stroke-width:1" />
 <line x1="12.323076923076923" y1="5.06153846153846153" x2="12.1384615384615384" y2="5.24615384615384615" style="stroke:red;stroke-width:1" />
 <line x1="12.1384615384615384" y1="5.24615384615384615" x2="11.8923076923076923" y2="5.43076923076923076" style="stroke:red;stroke-width:1" />
 <line x1="11.8923076923076923" y1="5.43076923076923076" x2="11.6461538461538461" y2="5.92307692307692307" style="stroke:red;stroke-width:1" />
 <line x1="11.6461538461538461" y1="5.92307692307692307" x2="11.3999999999999999" y2="6.53846153846153846" style="stroke:red;stroke-width:1" />
 <line x1="11.3999999999999999" y1="6.53846153846153846" x2="11.0923076923076923" y2="7.33846153846153845" style="stroke:red;stroke-width:1" />
 <line x1="11.0923076923076923" y1="7.33846153846153845" x2="10.7846153846153846" y2="8.56923076923076922" style="stroke:red;stroke-width:1" />
 <line x1="10.7846153846153846" y1="8.56923076923076922" x2="10.4769230769230769" y2="9.67692307692307691" style="stroke:red;stroke-width:1" />
 <line x1="10.4769230769230769" y1="9.67692307692307691" x2="10.2923076923076923" y2="10.9692307692307692" style="stroke:red;stroke-width:1" />
 <line x1="10.2923076923076923" y1="10.9692307692307692" x2="10.1076923076923076" y2="12.4461538461538461" style="stroke:red;stroke-width:1" />
 <line x1="10.1076923076923076" y1="12.4461538461538461" x2="9.98461538461538461" y2="14.0461538461538461" style="stroke:red;stroke-width:1" />
 <line x1="9.98461538461538461" y1="14.0461538461538461" x2="9.86153846153846153" y2="15.7076923076923076" style="stroke:red;stroke-width:1" />
 <line x1="9.86153846153846153" y1="15.7076923076923076" x2="10.2923076923076923" y2="15.8923076923076922" style="stroke:red;stroke-width:1" />
 <line x1="10.2923076923076923" y1="15.8923076923076922" x2="10.8461538461538461" y2="16.1384615384615384" style="stroke:red;stroke-width:1" />
 <line x1="10.8461538461538461" y1="16.1384615384615384" x2="11.2153846153846153" y2="16.4461538461538461" style="stroke:red;stroke-width:1" />
 <line x1="11.2153846153846153" y1="16.4461538461538461" x2="11.4615384615384615" y2="16.6923076923076922" style="stroke:red;stroke-width:1" />
 <line x1="11.4615384615384615" y1="16.6923076923076922" x2="11.5846153846153846" y2="16.8769230769230768" style="stroke:red;stroke-width:1" />
 <line x1="11.5846153846153846" y1="16.8769230769230768" x2="11.7692307692307692" y2="17.2461538461538461" style="stroke:red;stroke-width:1" />
 <line x1="11.7692307692307692" y1="17.2461538461538461" x2="11.8923076923076923" y2="17.5538461538461537" style="stroke:red;stroke-width:1" />
 <line x1="11.8923076923076923" y1="17.5538461538461537" x2="12.0153846153846153" y2="18.1076923076923076" style="stroke:red;stroke-width:1" />
 <line x1="12.0153846153846153" y1="18.1076923076923076" x2="12.0769230769230769" y2="18.5384615384615384" style="stroke:red;stroke-width:1" />
 <line x1="12.0769230769230769" y1="18.5384615384615384" x2="12.1384615384615384" y2="19.0923076923076922" style="stroke:red;stroke-width:1" />
 <line x1="12.1384615384615384" y1="19.0923076923076922" x2="12.0769230769230769" y2="20.1999999999999999" style="stroke:red;stroke-width:1" />
 <line x1="12.0769230769230769" y1="20.1999999999999999" x2="13.123076923076923" y2="20.1999999999999999" style="stroke:red;stroke-width:1" />
 <line x1="13.123076923076923" y1="20.1999999999999999" x2="13.123076923076923" y2="19.0923076923076922" style="stroke:red;stroke-width:1" />
 <line x1="13.123076923076923" y1="19.0923076923076922" x2="13.1846153846153846" y2="18.5384615384615384" style="stroke:red;stroke-width:1" />
 <line x1="13.1846153846153846" y1="18.5384615384615384" x2="13.1846153846153846" y2="18.1076923076923076" style="stroke:red;stroke-width:1" />
 <line x1="13.1846153846153846" y1="18.1076923076923076" x2="13.3076923076923076" y2="17.5538461538461537" style="stroke:red;stroke-width:1" />
 <line x1="13.3076923076923076" y1="17.5538461538461537" x2="13.4307692307692307" y2="17.2461538461538461" style="stroke:red;stroke-width:1" />
 <line x1="13.4307692307692307" y1="17.2461538461538461" x2="13.6153846153846153" y2="16.8769230769230768" style="stroke:red;stroke-width:1" />
 <line x1="13.6153846153846153" y1="16.8769230769230768" x2="13.7999999999999999" y2="16.6923076923076922" style="stroke:red;stroke-width:1" />
 <line x1="13.7999999999999999" y1="16.6923076923076922" x2="13.9846153846153845" y2="16.4461538461538461" style="stroke:red;stroke-width:1" />
 <line x1="13.9846153846153845" y1="16.4461538461538461" x2="14.4153846153846153" y2="16.1384615384615384" style="stroke:red;stroke-width:1" />
 <line x1="14.4153846153846153" y1="16.1384615384615384" x2="14.9076923076923076" y2="15.8923076923076922" style="stroke:red;stroke-width:1" />
 <line x1="14.9076923076923076" y1="15.8923076923076922" x2="15.3384615384615384" y2="15.7076923076923076" style="stroke:red;stroke-width:1" />
 <line x1="15.3384615384615384" y1="15.7076923076923076" x2="15.2153846153846153" y2="14.0461538461538461" style="stroke:red;stroke-width:1" />
 <line x1="15.2153846153846153" y1="14.0461538461538461" x2="15.0923076923076922" y2="12.4461538461538461" style="stroke:red;stroke-width:1" />
 <line x1="15.0923076923076922" y1="12.4461538461538461" x2="14.9076923076923076" y2="10.9692307692307692" style="stroke:red;stroke-width:1" />
 <line x1="14.9076923076923076" y1="10.9692307692307692" x2="14.723076923076923" y2="9.67692307692307691" style="stroke:red;stroke-width:1" />
 <line x1="14.723076923076923" y1="9.67692307692307691" x2="14.4769230769230768" y2="8.56923076923076922" style="stroke:red;stroke-width:1" />
 <line x1="14.4769230769230768" y1="8.56923076923076922" x2="14.1692307692307691" y2="7.33846153846153845" style="stroke:red;stroke-width:1" />
 <line x1="14.1692307692307691" y1="7.33846153846153845" x2="13.8615384615384614" y2="6.53846153846153846" style="stroke:red;stroke-width:1" />
 <line x1="13.8615384615384614" y1="6.53846153846153846" x2="13.5538461538461537" y2="5.92307692307692307" style="stroke:red;stroke-width:1" />
 <line x1="13.5538461538461537" y1="5.92307692307692307" x2="13.3076923076923076" y2="5.43076923076923076" style="stroke:red;stroke-width:1" />
 <line x1="13.3076923076923076" y1="5.43076923076923076" x2="13.123076923076923" y2="5.24615384615384615" style="stroke:red;stroke-width:1" />
 <line x1="13.123076923076923" y1="5.24615384615384615" x2="12.8769230769230769" y2="5.06153846153846153" style="stroke:red;stroke-width:1" />
 <line x1="12.8769230769230769" y1="5.06153846153846153" x2="12.6307692307692307" y2="5" style="stroke:red;stroke-width:1" />
 <line x1="18.0461538461538461" y1="20.1999999999999999" x2="18.0461538461538461" y2="11.1538461538461538" style="stroke:red;stroke-width:1" />
 <line x1="18.0461538461538461" y1="11.1538461538461538" x2="18.0461538461538461" y2="10.7846153846153846" style="stroke:red;stroke-width:1" />
 <line x1="18.0461538461538461" y1="10.7846153846153846" x2="18.1076923076923076" y2="10.4769230769230769" style="stroke:red;stroke-width:1" />
 <line x1="18.1076923076923076" y1="10.4769230769230769" x2="18.2923076923076922" y2="10.1076923076923076" style="stroke:red;stroke-width:1" />
 <line x1="18.2923076923076922" y1="10.1076923076923076" x2="18.4153846153846153" y2="9.79999999999999999" style="stroke:red;stroke-width:1" />
 <line x1="18.4153846153846153" y1="9.79999999999999999" x2="18.6615384615384614" y2="9.55384615384615384" style="stroke:red;stroke-width:1" />
 <line x1="18.6615384615384614" y1="9.55384615384615384" x2="18.9692307692307691" y2="9.36923076923076922" style="stroke:red;stroke-width:1" />
 <line x1="18.9692307692307691" y1="9.36923076923076922" x2="19.3384615384615384" y2="9.24615384615384614" style="stroke:red;stroke-width:1" />
 <line x1="19.3384615384615384" y1="9.24615384615384614" x2="19.7692307692307691" y2="9.18461538461538461" style="stroke:red;stroke-width:1" />
 <line x1="19.7692307692307691" y1="9.18461538461538461" x2="20.2615384615384614" y2="9.12307692307692307" style="stroke:red;stroke-width:1" />
 <line x1="20.0153846153846153" y1="6.66153846153846153" x2="20.2615384615384614" y2="6.59999999999999999" style="stroke:red;stroke-width:1" />
 <line x1="20.2615384615384614" y1="6.59999999999999999" x2="20.5076923076923076" y2="6.35384615384615384" style="stroke:red;stroke-width:1" />
 <line x1="20.5076923076923076" y1="6.35384615384615384" x2="20.7538461538461537" y2="6.10769230769230769" style="stroke:red;stroke-width:1" />
 <line x1="20.7538461538461537" y1="6.10769230769230769" x2="20.9384615384615384" y2="5.61538461538461538" style="stroke:red;stroke-width:1" />
 <line x1="20.9384615384615384" y1="5.61538461538461538" x2="21.0615384615384614" y2="5" style="stroke:red;stroke-width:1" />
 <line x1="21.0615384615384614" y1="5" x2="22.4153846153846153" y2="5" style="stroke:red;stroke-width:1" />
 <line x1="22.4153846153846153" y1="5" x2="22.5384615384615384" y2="5.61538461538461538" style="stroke:red;stroke-width:1" />
 <line x1="22.5384615384615384" y1="5.61538461538461538" x2="22.723076923076923" y2="6.10769230769230769" style="stroke:red;stroke-width:1" />
 <line x1="22.723076923076923" y1="6.10769230769230769" x2="22.9692307692307691" y2="6.35384615384615384" style="stroke:red;stroke-width:1" />
 <line x1="22.9692307692307691" y1="6.35384615384615384" x2="23.1538461538461537" y2="6.59999999999999999" style="stroke:red;stroke-width:1" />
 <line x1="23.1538461538461537" y1="6.59999999999999999" x2="23.4615384615384614" y2="6.66153846153846153" style="stroke:red;stroke-width:1" />
 <line x1="23.4615384615384614" y1="6.66153846153846153" x2="23.7076923076923076" y2="6.59999999999999999" style="stroke:red;stroke-width:1" />
 <line x1="23.7076923076923076" y1="6.59999999999999999" x2="24.0153846153846153" y2="6.35384615384615384" style="stroke:red;stroke-width:1" />
 <line x1="24.0153846153846153" y1="6.35384615384615384" x2="24.1999999999999999" y2="6.10769230769230769" style="stroke:red;stroke-width:1" />
 <line x1="24.1999999999999999" y1="6.10769230769230769" x2="24.3846153846153845" y2="5.61538461538461538" style="stroke:red;stroke-width:1" />
 <line x1="24.3846153846153845" y1="5.61538461538461538" x2="24.5076923076923076" y2="5" style="stroke:red;stroke-width:1" />
 <line x1="24.5076923076923076" y1="5" x2="25.8615384615384614" y2="5" style="stroke:red;stroke-width:1" />
 <line x1="25.8615384615384614" y1="5" x2="26.046153846153846" y2="5.61538461538461538" style="stroke:red;stroke-width:1" />
 <line x1="26.046153846153846" y1="5.61538461538461538" x2="26.1692307692307691" y2="6.10769230769230769" style="stroke:red;stroke-width:1" />
 <line x1="26.1692307692307691" y1="6.10769230769230769" x2="26.4153846153846153" y2="6.35384615384615384" style="stroke:red;stroke-width:1" />
 <line x1="26.4153846153846153" y1="6.35384615384615384" x2="26.5999999999999999" y2="6.59999999999999999" style="stroke:red;stroke-width:1" />
 <line x1="26.5999999999999999" y1="6.59999999999999999" x2="26.9076923076923076" y2="6.66153846153846153" style="stroke:red;stroke-width:1" />
 <line x1="26.9076923076923076" y1="6.66153846153846153" x2="27.1538461538461537" y2="6.59999999999999999" style="stroke:red;stroke-width:1" />
 <line x1="27.1538461538461537" y1="6.59999999999999999" x2="27.3999999999999999" y2="6.35384615384615384" style="stroke:red;stroke-width:1" />
 <line x1="27.3999999999999999" y1="6.35384615384615384" x2="27.5846153846153845" y2="6.10769230769230769" style="stroke:red;stroke-width:1" />
 <line x1="27.5846153846153845" y1="6.10769230769230769" x2="27.7692307692307691" y2="5.61538461538461538" style="stroke:red;stroke-width:1" />
 <line x1="27.7692307692307691" y1="5.61538461538461538" x2="27.9538461538461537" y2="5" style="stroke:red;stroke-width:1" />
 <line x1="27.9538461538461537" y1="5" x2="29.3076923076923076" y2="5" style="stroke:red;stroke-width:1" />
 <line x1="29.3076923076923076" y1="5" x2="29.4307692307692307" y2="5.61538461538461538" style="stroke:red;stroke-width:1" />
 <line x1="29.4307692307692307" y1="5.61538461538461538" x2="29.6153846153846153" y2="6.10769230769230769" style="stroke:red;stroke-width:1" />
 <line x1="29.6153846153846153" y1="6.10769230769230769" x2="29.7999999999999999" y2="6.35384615384615384" style="stroke:red;stroke-width:1" />
 <line x1="29.7999999999999999" y1="6.35384615384615384" x2="30.1076923076923076" y2="6.59999999999999999" style="stroke:red;stroke-width:1" />
 <line x1="30.1076923076923076" y1="6.59999999999999999" x2="30.3538461538461537" y2="6.66153846153846153" style="stroke:red;stroke-width:1" />
 <line x1="30.3538461538461537" y1="6.66153846153846153" x2="20.0153846153846153" y2="6.66153846153846153" style="stroke:red;stroke-width:1" />
 <line x1="21.7384615384615384" y1="6.66153846153846153" x2="21.7384615384615384" y2="8.01538461538461538" style="stroke:red;stroke-width:1" />
 <line x1="21.7384615384615384" y1="8.01538461538461538" x2="22.2923076923076922" y2="8.13846153846153845" style="stroke:red;stroke-width:1" />
 <line x1="22.2923076923076922" y1="8.13846153846153845" x2="22.5999999999999999" y2="8.32307692307692307" style="stroke:red;stroke-width:1" />
 <line x1="22.5999999999999999" y1="8.32307692307692307" x2="22.9692307692307691" y2="8.6923076923076923" style="stroke:red;stroke-width:1" />
 <line x1="22.9692307692307691" y1="8.6923076923076923" x2="23.2153846153846153" y2="9.12307692307692307" style="stroke:red;stroke-width:1" />
 <line x1="23.2153846153846153" y1="9.12307692307692307" x2="23.3999999999999999" y2="9.61538461538461538" style="stroke:red;stroke-width:1" />
 <line x1="23.3999999999999999" y1="9.61538461538461538" x2="23.4615384615384614" y2="10.2307692307692307" style="stroke:red;stroke-width:1" />
 <line x1="23.4615384615384614" y1="10.2307692307692307" x2="23.4615384615384614" y2="10.9692307692307692" style="stroke:red;stroke-width:1" />
 <line x1="23.4615384615384614" y1="10.9692307692307692" x2="23.3999999999999999" y2="11.523076923076923" style="stroke:red;stroke-width:1" />
 <line x1="23.3999999999999999" y1="11.523076923076923" x2="23.2769230769230768" y2="12.0769230769230769" style="stroke:red;stroke-width:1" />
 <line x1="23.2769230769230768" y1="12.0769230769230769" x2="23.0923076923076922" y2="12.6307692307692307" style="stroke:red;stroke-width:1" />
 <line x1="23.0923076923076922" y1="12.6307692307692307" x2="22.9692307692307691" y2="13.3076923076923076" style="stroke:red;stroke-width:1" />
 <line x1="22.9692307692307691" y1="13.3076923076923076" x2="22.7846153846153845" y2="13.9846153846153845" style="stroke:red;stroke-width:1" />
 <line x1="22.7846153846153845" y1="13.9846153846153845" x2="22.6615384615384614" y2="14.6615384615384614" style="stroke:red;stroke-width:1" />
 <line x1="22.6615384615384614" y1="14.6615384615384614" x2="22.5384615384615384" y2="15.3384615384615384" style="stroke:red;stroke-width:1" />
 <line x1="22.5384615384615384" y1="15.3384615384615384" x2="22.4769230769230768" y2="15.9538461538461537" style="stroke:red;stroke-width:1" />
 <line x1="22.4769230769230768" y1="15.9538461538461537" x2="22.4153846153846153" y2="16.7538461538461537" style="stroke:red;stroke-width:1" />
 <line x1="22.4153846153846153" y1="16.7538461538461537" x2="22.4153846153846153" y2="17.4923076923076922" style="stroke:red;stroke-width:1" />
 <line x1="22.4153846153846153" y1="17.4923076923076922" x2="22.4153846153846153" y2="18.1692307692307691" style="stroke:red;stroke-width:1" />
 <line x1="22.4153846153846153" y1="18.1692307692307691" x2="22.5384615384615384" y2="18.7846153846153845" style="stroke:red;stroke-width:1" />
 <line x1="22.5384615384615384" y1="18.7846153846153845" x2="22.6615384615384614" y2="19.523076923076923" style="stroke:red;stroke-width:1" />
 <line x1="22.6615384615384614" y1="19.523076923076923" x2="22.846153846153846" y2="20.1999999999999999" style="stroke:red;stroke-width:1" />
 <line x1="22.846153846153846" y1="20.1999999999999999" x2="20.6307692307692307" y2="20.1999999999999999" style="stroke:red;stroke-width:1" />
 <line x1="20.6307692307692307" y1="20.1999999999999999" x2="20.8153846153846153" y2="19.523076923076923" style="stroke:red;stroke-width:1" />
 <line x1="20.8153846153846153" y1="19.523076923076923" x2="20.9384615384615384" y2="18.7846153846153845" style="stroke:red;stroke-width:1" />
 <line x1="20.9384615384615384" y1="18.7846153846153845" x2="21.0615384615384614" y2="18.1692307692307691" style="stroke:red;stroke-width:1" />
 <line x1="21.0615384615384614" y1="18.1692307692307691" x2="21.0615384615384614" y2="17.4923076923076922" style="stroke:red;stroke-width:1" />
 <line x1="21.0615384615384614" y1="17.4923076923076922" x2="21.0615384615384614" y2="16.7538461538461537" style="stroke:red;stroke-width:1" />
 <line x1="21.0615384615384614" y1="16.7538461538461537" x2="20.9999999999999999" y2="15.9538461538461537" style="stroke:red;stroke-width:1" />
 <line x1="20.9999999999999999" y1="15.9538461538461537" x2="20.9384615384615384" y2="15.3384615384615384" style="stroke:red;stroke-width:1" />
 <line x1="20.9384615384615384" y1="15.3384615384615384" x2="20.8153846153846153" y2="14.6615384615384614" style="stroke:red;stroke-width:1" />
 <line x1="20.8153846153846153" y1="14.6615384615384614" x2="20.6923076923076922" y2="13.9846153846153845" style="stroke:red;stroke-width:1" />
 <line x1="20.6923076923076922" y1="13.9846153846153845" x2="20.5076923076923076" y2="13.3076923076923076" style="stroke:red;stroke-width:1" />
 <line x1="20.5076923076923076" y1="13.3076923076923076" x2="20.3846153846153845" y2="12.6307692307692307" style="stroke:red;stroke-width:1" />
 <line x1="20.3846153846153845" y1="12.6307692307692307" x2="20.1999999999999999" y2="12.0769230769230769" style="stroke:red;stroke-width:1" />
 <line x1="20.1999999999999999" y1="12.0769230769230769" x2="20.0769230769230768" y2="11.523076923076923" style="stroke:red;stroke-width:1" />
 <line x1="20.0769230769230768" y1="11.523076923076923" x2="20.0153846153846153" y2="10.9692307692307692" style="stroke:red;stroke-width:1" />
 <line x1="20.0153846153846153" y1="10.9692307692307692" x2="20.0153846153846153" y2="10.2307692307692307" style="stroke:red;stroke-width:1" />
 <line x1="20.0153846153846153" y1="10.2307692307692307" x2="20.0769230769230768" y2="9.61538461538461538" style="stroke:red;stroke-width:1" />
 <line x1="20.0769230769230768" y1="9.61538461538461538" x2="20.2615384615384614" y2="9.12307692307692307" style="stroke:red;stroke-width:1" />
 <line x1="20.2615384615384614" y1="9.12307692307692307" x2="20.5076923076923076" y2="8.6923076923076923" style="stroke:red;stroke-width:1" />
 <line x1="20.5076923076923076" y1="8.6923076923076923" x2="20.8769230769230768" y2="8.32307692307692307" style="stroke:red;stroke-width:1" />
 <line x1="20.8769230769230768" y1="8.32307692307692307" x2="21.1846153846153845" y2="8.13846153846153845" style="stroke:red;stroke-width:1" />
 <line x1="21.1846153846153845" y1="8.13846153846153845" x2="21.7384615384615384" y2="8.01538461538461538" style="stroke:red;stroke-width:1" />
 <line x1="25.1846153846153845" y1="6.66153846153846153" x2="25.1846153846153845" y2="8.01538461538461538" style="stroke:red;stroke-width:1" />
 <line x1="25.1846153846153845" y1="8.01538461538461538" x2="25.7384615384615384" y2="8.13846153846153845" style="stroke:red;stroke-width:1" />
 <line x1="25.7384615384615384" y1="8.13846153846153845" x2="26.046153846153846" y2="8.32307692307692307" style="stroke:red;stroke-width:1" />
 <line x1="26.046153846153846" y1="8.32307692307692307" x2="26.4153846153846153" y2="8.6923076923076923" style="stroke:red;stroke-width:1" />
 <line x1="26.4153846153846153" y1="8.6923076923076923" x2="26.723076923076923" y2="9.12307692307692307" style="stroke:red;stroke-width:1" />
 <line x1="26.723076923076923" y1="9.12307692307692307" x2="26.846153846153846" y2="9.61538461538461538" style="stroke:red;stroke-width:1" />
 <line x1="26.846153846153846" y1="9.61538461538461538" x2="26.9076923076923076" y2="10.2307692307692307" style="stroke:red;stroke-width:1" />
 <line x1="26.9076923076923076" y1="10.2307692307692307" x2="26.9076923076923076" y2="10.9692307692307692" style="stroke:red;stroke-width:1" />
 <line x1="26.9076923076923076" y1="10.9692307692307692" x2="26.846153846153846" y2="11.523076923076923" style="stroke:red;stroke-width:1" />
 <line x1="26.846153846153846" y1="11.523076923076923" x2="26.723076923076923" y2="12.0769230769230769" style="stroke:red;stroke-width:1" />
 <line x1="26.723076923076923" y1="12.0769230769230769" x2="26.5384615384615384" y2="12.6307692307692307" style="stroke:red;stroke-width:1" />
 <line x1="26.5384615384615384" y1="12.6307692307692307" x2="26.4153846153846153" y2="13.3076923076923076" style="stroke:red;stroke-width:1" />
 <line x1="26.4153846153846153" y1="13.3076923076923076" x2="26.2307692307692307" y2="13.9846153846153845" style="stroke:red;stroke-width:1" />
 <line x1="26.2307692307692307" y1="13.9846153846153845" x2="26.1076923076923076" y2="14.6615384615384614" style="stroke:red;stroke-width:1" />
 <line x1="26.1076923076923076" y1="14.6615384615384614" x2="25.9846153846153845" y2="15.3384615384615384" style="stroke:red;stroke-width:1" />
 <line x1="25.9846153846153845" y1="15.3384615384615384" x2="25.923076923076923" y2="15.9538461538461537" style="stroke:red;stroke-width:1" />
 <line x1="25.923076923076923" y1="15.9538461538461537" x2="25.8615384615384614" y2="16.7538461538461537" style="stroke:red;stroke-width:1" />
 <line x1="25.8615384615384614" y1="16.7538461538461537" x2="25.8615384615384614" y2="17.4923076923076922" style="stroke:red;stroke-width:1" />
 <line x1="25.8615384615384614" y1="17.4923076923076922" x2="25.8615384615384614" y2="18.1692307692307691" style="stroke:red;stroke-width:1" />
 <line x1="25.8615384615384614" y1="18.1692307692307691" x2="25.9846153846153845" y2="18.7846153846153845" style="stroke:red;stroke-width:1" />
 <line x1="25.9846153846153845" y1="18.7846153846153845" x2="26.1076923076923076" y2="19.523076923076923" style="stroke:red;stroke-width:1" />
 <line x1="26.1076923076923076" y1="19.523076923076923" x2="26.2923076923076922" y2="20.1999999999999999" style="stroke:red;stroke-width:1" />
 <line x1="26.2923076923076922" y1="20.1999999999999999" x2="24.0769230769230768" y2="20.1999999999999999" style="stroke:red;stroke-width:1" />
 <line x1="24.0769230769230768" y1="20.1999999999999999" x2="24.323076923076923" y2="19.523076923076923" style="stroke:red;stroke-width:1" />
 <line x1="24.323076923076923" y1="19.523076923076923" x2="24.3846153846153845" y2="18.7846153846153845" style="stroke:red;stroke-width:1" />
 <line x1="24.3846153846153845" y1="18.7846153846153845" x2="24.5076923076923076" y2="18.1692307692307691" style="stroke:red;stroke-width:1" />
 <line x1="24.5076923076923076" y1="18.1692307692307691" x2="24.5076923076923076" y2="17.4923076923076922" style="stroke:red;stroke-width:1" />
 <line x1="24.5076923076923076" y1="17.4923076923076922" x2="24.5076923076923076" y2="16.7538461538461537" style="stroke:red;stroke-width:1" />
 <line x1="24.5076923076923076" y1="16.7538461538461537" x2="24.446153846153846" y2="15.9538461538461537" style="stroke:red;stroke-width:1" />
 <line x1="24.446153846153846" y1="15.9538461538461537" x2="24.3846153846153845" y2="15.3384615384615384" style="stroke:red;stroke-width:1" />
 <line x1="24.3846153846153845" y1="15.3384615384615384" x2="24.2615384615384614" y2="14.6615384615384614" style="stroke:red;stroke-width:1" />
 <line x1="24.2615384615384614" y1="14.6615384615384614" x2="24.1384615384615384" y2="13.9846153846153845" style="stroke:red;stroke-width:1" />
 <line x1="24.1384615384615384" y1="13.9846153846153845" x2="23.9538461538461537" y2="13.3076923076923076" style="stroke:red;stroke-width:1" />
 <line x1="23.9538461538461537" y1="13.3076923076923076" x2="23.8307692307692307" y2="12.6307692307692307" style="stroke:red;stroke-width:1" />
 <line x1="23.8307692307692307" y1="12.6307692307692307" x2="23.646153846153846" y2="12.0769230769230769" style="stroke:red;stroke-width:1" />
 <line x1="23.646153846153846" y1="12.0769230769230769" x2="23.523076923076923" y2="11.523076923076923" style="stroke:red;stroke-width:1" />
 <line x1="23.523076923076923" y1="11.523076923076923" x2="23.4615384615384614" y2="10.9692307692307692" style="stroke:red;stroke-width:1" />
 <line x1="23.4615384615384614" y1="10.9692307692307692" x2="23.4615384615384614" y2="10.2307692307692307" style="stroke:red;stroke-width:1" />
 <line x1="23.4615384615384614" y1="10.2307692307692307" x2="23.523076923076923" y2="9.61538461538461538" style="stroke:red;stroke-width:1" />
 <line x1="23.523076923076923" y1="9.61538461538461538" x2="23.7076923076923076" y2="9.12307692307692307" style="stroke:red;stroke-width:1" />
 <line x1="23.7076923076923076" y1="9.12307692307692307" x2="23.9538461538461537" y2="8.6923076923076923" style="stroke:red;stroke-width:1" />
 <line x1="23.9538461538461537" y1="8.6923076923076923" x2="24.323076923076923" y2="8.32307692307692307" style="stroke:red;stroke-width:1" />
 <line x1="24.323076923076923" y1="8.32307692307692307" x2="24.6923076923076922" y2="8.13846153846153845" style="stroke:red;stroke-width:1" />
 <line x1="24.6923076923076922" y1="8.13846153846153845" x2="25.1846153846153845" y2="8.01538461538461538" style="stroke:red;stroke-width:1" />
 <line x1="28.6307692307692307" y1="6.66153846153846153" x2="28.6307692307692307" y2="8.01538461538461538" style="stroke:red;stroke-width:1" />
 <line x1="28.6307692307692307" y1="8.01538461538461538" x2="29.123076923076923" y2="8.13846153846153845" style="stroke:red;stroke-width:1" />
 <line x1="29.123076923076923" y1="8.13846153846153845" x2="29.4923076923076922" y2="8.32307692307692307" style="stroke:red;stroke-width:1" />
 <line x1="29.4923076923076922" y1="8.32307692307692307" x2="29.8615384615384614" y2="8.6923076923076923" style="stroke:red;stroke-width:1" />
 <line x1="29.8615384615384614" y1="8.6923076923076923" x2="30.1692307692307691" y2="9.12307692307692307" style="stroke:red;stroke-width:1" />
 <line x1="30.1692307692307691" y1="9.12307692307692307" x2="30.2923076923076922" y2="9.61538461538461538" style="stroke:red;stroke-width:1" />
 <line x1="30.2923076923076922" y1="9.61538461538461538" x2="30.3538461538461537" y2="10.2307692307692307" style="stroke:red;stroke-width:1" />
 <line x1="30.3538461538461537" y1="10.2307692307692307" x2="30.3538461538461537" y2="10.9692307692307692" style="stroke:red;stroke-width:1" />
 <line x1="30.3538461538461537" y1="10.9692307692307692" x2="30.2923076923076922" y2="11.523076923076923" style="stroke:red;stroke-width:1" />
 <line x1="30.2923076923076922" y1="11.523076923076923" x2="30.1692307692307691" y2="12.0769230769230769" style="stroke:red;stroke-width:1" />
 <line x1="30.1692307692307691" y1="12.0769230769230769" x2="29.9846153846153845" y2="12.6307692307692307" style="stroke:red;stroke-width:1" />
 <line x1="29.9846153846153845" y1="12.6307692307692307" x2="29.8615384615384614" y2="13.3076923076923076" style="stroke:red;stroke-width:1" />
 <line x1="29.8615384615384614" y1="13.3076923076923076" x2="29.6769230769230768" y2="13.9846153846153845" style="stroke:red;stroke-width:1" />
 <line x1="29.6769230769230768" y1="13.9846153846153845" x2="29.5538461538461537" y2="14.6615384615384614" style="stroke:red;stroke-width:1" />
 <line x1="29.5538461538461537" y1="14.6615384615384614" x2="29.4307692307692307" y2="15.3384615384615384" style="stroke:red;stroke-width:1" />
 <line x1="29.4307692307692307" y1="15.3384615384615384" x2="29.3692307692307691" y2="15.9538461538461537" style="stroke:red;stroke-width:1" />
 <line x1="29.3692307692307691" y1="15.9538461538461537" x2="29.246153846153846" y2="16.7538461538461537" style="stroke:red;stroke-width:1" />
 <line x1="29.246153846153846" y1="16.7538461538461537" x2="29.246153846153846" y2="17.4923076923076922" style="stroke:red;stroke-width:1" />
 <line x1="29.246153846153846" y1="17.4923076923076922" x2="29.3076923076923076" y2="18.1692307692307691" style="stroke:red;stroke-width:1" />
 <line x1="29.3076923076923076" y1="18.1692307692307691" x2="29.4307692307692307" y2="18.7846153846153845" style="stroke:red;stroke-width:1" />
 <line x1="29.4307692307692307" y1="18.7846153846153845" x2="29.4923076923076922" y2="19.523076923076923" style="stroke:red;stroke-width:1" />
 <line x1="29.4923076923076922" y1="19.523076923076923" x2="29.7384615384615383" y2="20.1999999999999999" style="stroke:red;stroke-width:1" />
 <line x1="29.7384615384615383" y1="20.1999999999999999" x2="27.523076923076923" y2="20.1999999999999999" style="stroke:red;stroke-width:1" />
 <line x1="27.523076923076923" y1="20.1999999999999999" x2="27.7076923076923076" y2="19.523076923076923" style="stroke:red;stroke-width:1" />
 <line x1="27.7076923076923076" y1="19.523076923076923" x2="27.8307692307692307" y2="18.7846153846153845" style="stroke:red;stroke-width:1" />
 <line x1="27.8307692307692307" y1="18.7846153846153845" x2="27.9538461538461537" y2="18.1692307692307691" style="stroke:red;stroke-width:1" />
 <line x1="27.9538461538461537" y1="18.1692307692307691" x2="27.9538461538461537" y2="17.4923076923076922" style="stroke:red;stroke-width:1" />
 <line x1="27.9538461538461537" y1="17.4923076923076922" x2="27.9538461538461537" y2="16.7538461538461537" style="stroke:red;stroke-width:1" />
 <line x1="27.9538461538461537" y1="16.7538461538461537" x2="27.8923076923076922" y2="15.9538461538461537" style="stroke:red;stroke-width:1" />
 <line x1="27.8923076923076922" y1="15.9538461538461537" x2="27.8307692307692307" y2="15.3384615384615384" style="stroke:red;stroke-width:1" />
 <line x1="27.8307692307692307" y1="15.3384615384615384" x2="27.7076923076923076" y2="14.6615384615384614" style="stroke:red;stroke-width:1" />
 <line x1="27.7076923076923076" y1="14.6615384615384614" x2="27.523076923076923" y2="13.9846153846153845" style="stroke:red;stroke-width:1" />
 <line x1="27.523076923076923" y1="13.9846153846153845" x2="27.3999999999999999" y2="13.3076923076923076" style="stroke:red;stroke-width:1" />
 <line x1="27.3999999999999999" y1="13.3076923076923076" x2="27.2153846153846153" y2="12.6307692307692307" style="stroke:red;stroke-width:1" />
 <line x1="27.2153846153846153" y1="12.6307692307692307" x2="27.0923076923076922" y2="12.0769230769230769" style="stroke:red;stroke-width:1" />
 <line x1="27.0923076923076922" y1="12.0769230769230769" x2="26.9692307692307691" y2="11.523076923076923" style="stroke:red;stroke-width:1" />
 <line x1="26.9692307692307691" y1="11.523076923076923" x2="26.9076923076923076" y2="10.9692307692307692" style="stroke:red;stroke-width:1" />
 <line x1="26.9076923076923076" y1="10.9692307692307692" x2="26.9076923076923076" y2="10.2307692307692307" style="stroke:red;stroke-width:1" />
 <line x1="26.9076923076923076" y1="10.2307692307692307" x2="26.9692307692307691" y2="9.61538461538461538" style="stroke:red;stroke-width:1" />
 <line x1="26.9692307692307691" y1="9.61538461538461538" x2="27.0923076923076922" y2="9.12307692307692307" style="stroke:red;stroke-width:1" />
 <line x1="27.0923076923076922" y1="9.12307692307692307" x2="27.3999999999999999" y2="8.6923076923076923" style="stroke:red;stroke-width:1" />
 <line x1="27.3999999999999999" y1="8.6923076923076923" x2="27.7692307692307691" y2="8.32307692307692307" style="stroke:red;stroke-width:1" />
 <line x1="27.7692307692307691" y1="8.32307692307692307" x2="28.1384615384615383" y2="8.13846153846153845" style="stroke:red;stroke-width:1" />
 <line x1="28.1384615384615383" y1="8.13846153846153845" x2="28.6307692307692307" y2="8.01538461538461538" style="stroke:red;stroke-width:1" />
 <line x1="30.1692307692307691" y1="9.12307692307692307" x2="30.5999999999999999" y2="9.18461538461538461" style="stroke:red;stroke-width:1" />
 <line x1="30.5999999999999999" y1="9.18461538461538461" x2="31.0923076923076922" y2="9.24615384615384614" style="stroke:red;stroke-width:1" />
 <line x1="31.0923076923076922" y1="9.24615384615384614" x2="31.3384615384615383" y2="9.36923076923076922" style="stroke:red;stroke-width:1" />
 <line x1="31.3384615384615383" y1="9.36923076923076922" x2="31.646153846153846" y2="9.55384615384615384" style="stroke:red;stroke-width:1" />
 <line x1="31.646153846153846" y1="9.55384615384615384" x2="31.8923076923076922" y2="9.79999999999999999" style="stroke:red;stroke-width:1" />
 <line x1="31.8923076923076922" y1="9.79999999999999999" x2="32.0769230769230768" y2="10.1076923076923076" style="stroke:red;stroke-width:1" />
 <line x1="32.0769230769230768" y1="10.1076923076923076" x2="32.2615384615384614" y2="10.4769230769230769" style="stroke:red;stroke-width:1" />
 <line x1="32.2615384615384614" y1="10.4769230769230769" x2="32.323076923076923" y2="10.7846153846153846" style="stroke:red;stroke-width:1" />
 <line x1="32.323076923076923" y1="10.7846153846153846" x2="32.323076923076923" y2="11.1538461538461538" style="stroke:red;stroke-width:1" />
 <line x1="32.323076923076923" y1="11.1538461538461538" x2="32.323076923076923" y2="20.1999999999999999" style="stroke:red;stroke-width:1" />

</svg>
