<!DOCTYPE svg PUBLIC "-//W3C//DTD SVG 1.1//EN" "http://www.w3.org/Graphics/SVG/1.1/DTD/svg11.dtd">
<svg width="33" height="47" xmlns="http://www.w3.org/2000/svg">
 <!-- Gardiner/Zz376515 at (0,.77551020408163266) in green, scale=.0489795918367346936, mirror=0 -->
 <line x1="5" y1="35.6612244897959181" x2="27.040816326530612" y2="35.6612244897959181" style="stroke:green;stroke-width:1" />
 <line x1="27.040816326530612" y1="38.3551020408163262" x2="5" y2="38.3551020408163262" style="stroke:green;stroke-width:1" />
 <line x1="5" y1="41.0489795918367344" x2="27.040816326530612" y2="41.0489795918367344" style="stroke:green;stroke-width:1" />
 <line x1="7.69387755102040814" y1="35.6612244897959181" x2="7.69387755102040814" y2="41.0489795918367344" style="stroke:green;stroke-width:1" />
 <line x1="11.8571428571428571" y1="35.6612244897959181" x2="11.8571428571428571" y2="41.0489795918367344" style="stroke:green;stroke-width:1" />
 <line x1="16.020408163265306" y1="35.6612244897959181" x2="16.020408163265306" y2="41.0489795918367344" style="stroke:green;stroke-width:1" />
 <line x1="20.1836734693877549" y1="35.6612244897959181" x2="20.1836734693877549" y2="41.0489795918367344" style="stroke:green;stroke-width:1" />
 <line x1="24.3469387755102039" y1="35.6612244897959181" x2="24.3469387755102039" y2="41.0489795918367344" style="stroke:green;stroke-width:1" />
 <line x1="26.9428571428571426" y1="24.4448979591836732" x2="5" y2="24.4448979591836732" style="stroke:green;stroke-width:1" />
 <line x1="8.33061224489795916" y1="24.4448979591836732" x2="7.93877551020408161" y2="23.2693877551020406" style="stroke:green;stroke-width:1" />
 <line x1="7.93877551020408161" y1="23.2693877551020406" x2="7.30204081632653059" y2="22.2897959183673467" style="stroke:green;stroke-width:1" />
 <line x1="7.30204081632653059" y1="22.2897959183673467" x2="6.32244897959183672" y2="21.5551020408163263" style="stroke:green;stroke-width:1" />
 <line x1="6.32244897959183672" y1="21.5551020408163263" x2="5.53877551020408162" y2="21.5551020408163263" style="stroke:green;stroke-width:1" />
 <line x1="5.53877551020408162" y1="21.5551020408163263" x2="5.09795918367346938" y2="21.9959183673469386" style="stroke:green;stroke-width:1" />
 <line x1="5.09795918367346938" y1="21.9959183673469386" x2="5" y2="22.5836734693877549" style="stroke:green;stroke-width:1" />
 <line x1="5" y1="22.5836734693877549" x2="5.19591836734693877" y2="23.5632653061224488" style="stroke:green;stroke-width:1" />
 <line x1="5.19591836734693877" y1="23.5632653061224488" x2="5.48979591836734693" y2="24.4448979591836732" style="stroke:green;stroke-width:1" />
 <line x1="5.48979591836734693" y1="24.4448979591836732" x2="6.37142857142857142" y2="27.3836734693877549" style="stroke:green;stroke-width:1" />
 <line x1="6.37142857142857142" y1="27.3836734693877549" x2="7.93877551020408161" y2="27.3836734693877549" style="stroke:green;stroke-width:1" />
 <line x1="7.93877551020408161" y1="27.3836734693877549" x2="8.33061224489795916" y2="24.4448979591836732" style="stroke:green;stroke-width:1" />
 <line x1="16.020408163265306" y1="24.4448979591836732" x2="16.020408163265306" y2="35.6612244897959181" style="stroke:green;stroke-width:1" />
 <line x1="12.4448979591836734" y1="24.4448979591836732" x2="16.020408163265306" y2="29.0979591836734691" style="stroke:green;stroke-width:1" />
 <line x1="16.020408163265306" y1="24.4448979591836732" x2="17.1469387755102039" y2="25.9142857142857141" style="stroke:green;stroke-width:1" />
 <line x1="17.1469387755102039" y1="25.9142857142857141" x2="17.8816326530612243" y2="27.4816326530612243" style="stroke:green;stroke-width:1" />
 <line x1="17.8816326530612243" y1="27.4816326530612243" x2="18.4693877551020406" y2="28.9510204081632651" style="stroke:green;stroke-width:1" />
 <line x1="18.4693877551020406" y1="28.9510204081632651" x2="18.6653061224489794" y2="29.8816326530612242" style="stroke:green;stroke-width:1" />
 <line x1="18.6653061224489794" y1="29.8816326530612242" x2="18.4693877551020406" y2="30.4693877551020406" style="stroke:green;stroke-width:1" />
 <line x1="18.4693877551020406" y1="30.4693877551020406" x2="18.1265306122448978" y2="30.8122448979591834" style="stroke:green;stroke-width:1" />
 <line x1="18.1265306122448978" y1="30.8122448979591834" x2="17.6367346938775508" y2="30.8612244897959181" style="stroke:green;stroke-width:1" />
 <line x1="17.6367346938775508" y1="30.8612244897959181" x2="17.1959183673469386" y2="30.5673469387755099" style="stroke:green;stroke-width:1" />
 <line x1="17.1959183673469386" y1="30.5673469387755099" x2="17.4897959183673468" y2="31.5959183673469385" style="stroke:green;stroke-width:1" />
 <line x1="17.4897959183673468" y1="31.5959183673469385" x2="17.5877551020408161" y2="32.2326530612244895" style="stroke:green;stroke-width:1" />
 <line x1="17.5877551020408161" y1="32.2326530612244895" x2="17.5387755102040815" y2="32.7714285714285712" style="stroke:green;stroke-width:1" />
 <line x1="17.5387755102040815" y1="32.7714285714285712" x2="17.0489795918367345" y2="32.9673469387755099" style="stroke:green;stroke-width:1" />
 <line x1="17.0489795918367345" y1="32.9673469387755099" x2="16.5591836734693876" y2="32.7224489795918365" style="stroke:green;stroke-width:1" />
 <line x1="16.5591836734693876" y1="32.7224489795918365" x2="16.020408163265306" y2="32.3306122448979589" style="stroke:green;stroke-width:1" />
 <line x1="24.8857142857142855" y1="7.69387755102040814" x2="13.0816326530612244" y2="7.69387755102040814" style="stroke:green;stroke-width:1" />
 <line x1="13.0816326530612244" y1="7.69387755102040814" x2="12.6408163265306122" y2="7.69387755102040814" style="stroke:green;stroke-width:1" />
 <line x1="12.6408163265306122" y1="7.69387755102040814" x2="12.2979591836734693" y2="7.54693877551020406" style="stroke:green;stroke-width:1" />
 <line x1="12.2979591836734693" y1="7.54693877551020406" x2="11.9061224489795917" y2="7.20408163265306121" style="stroke:green;stroke-width:1" />
 <line x1="11.9061224489795917" y1="7.20408163265306121" x2="11.5632653061224489" y2="6.81224489795918366" style="stroke:green;stroke-width:1" />
 <line x1="11.5632653061224489" y1="6.81224489795918366" x2="11.0244897959183673" y2="6.17551020408163264" style="stroke:green;stroke-width:1" />
 <line x1="11.0244897959183673" y1="6.17551020408163264" x2="10.8285714285714285" y2="5.78367346938775509" style="stroke:green;stroke-width:1" />
 <line x1="10.8285714285714285" y1="5.78367346938775509" x2="10.6816326530612244" y2="5.44081632653061224" style="stroke:green;stroke-width:1" />
 <line x1="10.6816326530612244" y1="5.44081632653061224" x2="10.4857142857142856" y2="5.19591836734693877" style="stroke:green;stroke-width:1" />
 <line x1="10.4857142857142856" y1="5.19591836734693877" x2="10.2897959183673469" y2="5.04897959183673469" style="stroke:green;stroke-width:1" />
 <line x1="10.2897959183673469" y1="5.04897959183673469" x2="10.0938775510204081" y2="5" style="stroke:green;stroke-width:1" />
 <line x1="10.0938775510204081" y1="5" x2="9.79999999999999997" y2="5" style="stroke:green;stroke-width:1" />
 <line x1="9.79999999999999997" y1="5" x2="9.5551020408163265" y2="5.14693877551020408" style="stroke:green;stroke-width:1" />
 <line x1="9.5551020408163265" y1="5.14693877551020408" x2="9.40816326530612242" y2="5.34285714285714285" style="stroke:green;stroke-width:1" />
 <line x1="9.40816326530612242" y1="5.34285714285714285" x2="9.35918367346938773" y2="5.53877551020408162" style="stroke:green;stroke-width:1" />
 <line x1="9.35918367346938773" y1="5.53877551020408162" x2="9.35918367346938773" y2="5.93061224489795917" style="stroke:green;stroke-width:1" />
 <line x1="9.35918367346938773" y1="5.93061224489795917" x2="9.40816326530612242" y2="6.17551020408163264" style="stroke:green;stroke-width:1" />
 <line x1="9.40816326530612242" y1="6.17551020408163264" x2="9.50612244897959181" y2="6.5183673469387755" style="stroke:green;stroke-width:1" />
 <line x1="9.50612244897959181" y1="6.5183673469387755" x2="9.70204081632653058" y2="6.81224489795918366" style="stroke:green;stroke-width:1" />
 <line x1="9.70204081632653058" y1="6.81224489795918366" x2="9.89795918367346936" y2="7.15510204081632651" style="stroke:green;stroke-width:1" />
 <line x1="9.89795918367346936" y1="7.15510204081632651" x2="10.2408163265306122" y2="7.59591836734693876" style="stroke:green;stroke-width:1" />
 <line x1="10.2408163265306122" y1="7.59591836734693876" x2="10.583673469387755" y2="7.9877551020408163" style="stroke:green;stroke-width:1" />
 <line x1="10.583673469387755" y1="7.9877551020408163" x2="11.0244897959183673" y2="8.33061224489795916" style="stroke:green;stroke-width:1" />
 <line x1="11.0244897959183673" y1="8.33061224489795916" x2="11.4653061224489795" y2="8.62448979591836732" style="stroke:green;stroke-width:1" />
 <line x1="11.4653061224489795" y1="8.62448979591836732" x2="11.9551020408163264" y2="8.86938775510204079" style="stroke:green;stroke-width:1" />
 <line x1="11.9551020408163264" y1="8.86938775510204079" x2="12.2489795918367346" y2="8.96734693877551018" style="stroke:green;stroke-width:1" />
 <line x1="12.2489795918367346" y1="8.96734693877551018" x2="12.7387755102040815" y2="9.01632653061224487" style="stroke:green;stroke-width:1" />
 <line x1="12.7387755102040815" y1="9.01632653061224487" x2="24.8857142857142855" y2="9.01632653061224487" style="stroke:green;stroke-width:1" />
 <path d="M 24.8857142857142855 9.06530612244897956
          A .68571428571428571 .68571428571428571 0 1 0 24.8857142857142855 7.69387755102040814"
       stroke="green" fill="white" stroke-width="1" fill-opacity="0.0"/>
 <line x1="12.9346938775510203" y1="11.6612244897959183" x2="12.6408163265306122" y2="11.5142857142857142" style="stroke:green;stroke-width:1" />
 <line x1="12.6408163265306122" y1="11.5142857142857142" x2="12.4448979591836734" y2="11.3183673469387754" style="stroke:green;stroke-width:1" />
 <line x1="12.4448979591836734" y1="11.3183673469387754" x2="12.346938775510204" y2="11.0244897959183673" style="stroke:green;stroke-width:1" />
 <line x1="12.346938775510204" y1="11.0244897959183673" x2="12.346938775510204" y2="10.7795918367346938" style="stroke:green;stroke-width:1" />
 <line x1="12.346938775510204" y1="10.7795918367346938" x2="12.5428571428571428" y2="10.5346938775510203" style="stroke:green;stroke-width:1" />
 <line x1="12.5428571428571428" y1="10.5346938775510203" x2="12.5918367346938775" y2="10.5346938775510203" style="stroke:green;stroke-width:1" />
 <line x1="12.5918367346938775" y1="10.5346938775510203" x2="12.7877551020408162" y2="10.5346938775510203" style="stroke:green;stroke-width:1" />
 <line x1="12.7877551020408162" y1="10.5346938775510203" x2="13.7673469387755101" y2="10.6326530612244897" style="stroke:green;stroke-width:1" />
 <line x1="13.7673469387755101" y1="10.6326530612244897" x2="15.4816326530612243" y2="10.4857142857142856" style="stroke:green;stroke-width:1" />
 <line x1="15.4816326530612243" y1="10.4857142857142856" x2="16.5591836734693876" y2="10.4367346938775509" style="stroke:green;stroke-width:1" />
 <line x1="16.5591836734693876" y1="10.4367346938775509" x2="17.3918367346938774" y2="10.4367346938775509" style="stroke:green;stroke-width:1" />
 <line x1="17.3918367346938774" y1="10.4367346938775509" x2="18.4204081632653059" y2="10.5346938775510203" style="stroke:green;stroke-width:1" />
 <line x1="18.4204081632653059" y1="10.5346938775510203" x2="19.1551020408163263" y2="10.7795918367346938" style="stroke:green;stroke-width:1" />
 <line x1="19.1551020408163263" y1="10.7795918367346938" x2="20.1836734693877549" y2="11.073469387755102" style="stroke:green;stroke-width:1" />
 <line x1="20.1836734693877549" y1="11.073469387755102" x2="20.9183673469387753" y2="11.3183673469387754" style="stroke:green;stroke-width:1" />
 <line x1="20.9183673469387753" y1="11.3183673469387754" x2="21.604081632653061" y2="11.5142857142857142" style="stroke:green;stroke-width:1" />
 <line x1="21.604081632653061" y1="11.5142857142857142" x2="22.3387755102040814" y2="11.710204081632653" style="stroke:green;stroke-width:1" />
 <line x1="22.3387755102040814" y1="11.710204081632653" x2="23.0244897959183671" y2="11.7591836734693877" style="stroke:green;stroke-width:1" />
 <line x1="23.0244897959183671" y1="11.7591836734693877" x2="23.6612244897959182" y2="11.8081632653061224" style="stroke:green;stroke-width:1" />
 <line x1="23.6612244897959182" y1="11.8081632653061224" x2="25.4734693877551018" y2="11.8081632653061224" style="stroke:green;stroke-width:1" />
 <line x1="25.4734693877551018" y1="11.8081632653061224" x2="25.3755102040816324" y2="14.1591836734693876" style="stroke:green;stroke-width:1" />
 <line x1="25.3755102040816324" y1="14.1591836734693876" x2="24.4448979591836732" y2="14.0122448979591835" style="stroke:green;stroke-width:1" />
 <line x1="24.4448979591836732" y1="14.0122448979591835" x2="23.5142857142857141" y2="13.9142857142857141" style="stroke:green;stroke-width:1" />
 <line x1="23.5142857142857141" y1="13.9142857142857141" x2="22.6326530612244896" y2="13.9142857142857141" style="stroke:green;stroke-width:1" />
 <line x1="22.6326530612244896" y1="13.9142857142857141" x2="21.7020408163265304" y2="14.0612244897959182" style="stroke:green;stroke-width:1" />
 <line x1="21.7020408163265304" y1="14.0612244897959182" x2="20.96734693877551" y2="14.257142857142857" style="stroke:green;stroke-width:1" />
 <line x1="20.96734693877551" y1="14.257142857142857" x2="20.2326530612244896" y2="14.4530612244897958" style="stroke:green;stroke-width:1" />
 <line x1="20.2326530612244896" y1="14.4530612244897958" x2="19.3999999999999998" y2="14.6489795918367345" style="stroke:green;stroke-width:1" />
 <line x1="19.3999999999999998" y1="14.6489795918367345" x2="10.3877551020408162" y2="14.6489795918367345" style="stroke:green;stroke-width:1" />
 <path d="M 10.3877551020408162 11.710204081632653
          A 1.4693877551020408 1.4693877551020408 0 1 0 10.3877551020408162 14.6489795918367346"
       stroke="green" fill="white" stroke-width="1" fill-opacity="0.0"/>
 <line x1="10.3877551020408162" y1="11.710204081632653" x2="16.9510204081632651" y2="11.710204081632653" style="stroke:green;stroke-width:1" />
 <line x1="16.9510204081632651" y1="11.710204081632653" x2="18.0285714285714284" y2="11.8081632653061224" style="stroke:green;stroke-width:1" />
 <line x1="9.35918367346938773" y1="23.0244897959183671" x2="16.9999999999999998" y2="23.0244897959183671" style="stroke:green;stroke-width:1" />
 <path d="M 16.9999999999999998 23.0244897959183671
          A 3.8204081632653061 3.8204081632653061 0 1 0 9.35918367346938773 23.0244897959183671"
       stroke="green" fill="white" stroke-width="1" fill-opacity="0.0"/>
 <path d="M 17.930612244897959 19.3510204081632651
          A 3.8204081632653061 3.8204081632653061 0 1 0 25.5714285714285712 19.3510204081632651
          A 3.8204081632653061 3.8204081632653061 0 1 0 17.930612244897959 19.3510204081632651"
       stroke="green" fill="white" stroke-width="1" fill-opacity="0.0"/>
 <line x1="19.693877551020408" y1="22.5836734693877549" x2="21.7510204081632651" y2="20.4285714285714284" style="stroke:green;stroke-width:1" />
 <line x1="21.7510204081632651" y1="20.4285714285714284" x2="23.8081632653061222" y2="22.5836734693877549" style="stroke:green;stroke-width:1" />
 <line x1="24.9836734693877549" y1="21.4081632653061222" x2="22.8285714285714284" y2="19.3510204081632651" style="stroke:green;stroke-width:1" />
 <line x1="22.8285714285714284" y1="19.3510204081632651" x2="24.9836734693877549" y2="17.293877551020408" style="stroke:green;stroke-width:1" />
 <line x1="23.8081632653061222" y1="16.1183673469387753" x2="21.7510204081632651" y2="18.2244897959183672" style="stroke:green;stroke-width:1" />
 <line x1="21.7510204081632651" y1="18.2244897959183672" x2="19.693877551020408" y2="16.1183673469387753" style="stroke:green;stroke-width:1" />
 <line x1="18.5183673469387753" y1="17.293877551020408" x2="20.6244897959183671" y2="19.3510204081632651" style="stroke:green;stroke-width:1" />
 <line x1="20.6244897959183671" y1="19.3510204081632651" x2="18.5183673469387753" y2="21.4081632653061222" style="stroke:green;stroke-width:1" />

</svg>
