<!DOCTYPE svg PUBLIC "-//W3C//DTD SVG 1.1//EN" "http://www.w3.org/Graphics/SVG/1.1/DTD/svg11.dtd">
<svg width="23" height="35" xmlns="http://www.w3.org/2000/svg">
 <!-- Gardiner/Zz376515 at (0,10.4) in green, scale=.08, mirror=0 -->
 <line x1="5" y1="21.6" x2="7.64" y2="23.92" style="stroke:green;stroke-width:1" />
 <line x1="7.64" y1="23.92" x2="9" y2="25.84" style="stroke:green;stroke-width:1" />
 <line x1="9" y1="25.84" x2="9.88" y2="27.36" style="stroke:green;stroke-width:1" />
 <line x1="9.88" y1="27.36" x2="10.6" y2="29.28" style="stroke:green;stroke-width:1" />
 <line x1="10.6" y1="29.28" x2="16.12" y2="29.28" style="stroke:green;stroke-width:1" />
 <line x1="16.12" y1="29.28" x2="17" y2="24.8" style="stroke:green;stroke-width:1" />
 <line x1="17" y1="24.8" x2="17.4" y2="22.64" style="stroke:green;stroke-width:1" />
 <line x1="17.4" y1="22.64" x2="17.4" y2="20.56" style="stroke:green;stroke-width:1" />
 <line x1="17.4" y1="20.56" x2="16.84" y2="19.04" style="stroke:green;stroke-width:1" />
 <line x1="16.84" y1="19.04" x2="15.96" y2="18" style="stroke:green;stroke-width:1" />
 <line x1="15.96" y1="18" x2="14.76" y2="16.96" style="stroke:green;stroke-width:1" />
 <line x1="14.76" y1="16.96" x2="11.48" y2="16.96" style="stroke:green;stroke-width:1" />
 <line x1="11.64" y1="16.96" x2="10.04" y2="18" style="stroke:green;stroke-width:1" />
 <line x1="10.04" y1="18" x2="9.16" y2="19.2" style="stroke:green;stroke-width:1" />
 <line x1="9.16" y1="19.2" x2="8.52" y2="20.4" style="stroke:green;stroke-width:1" />
 <line x1="8.52" y1="20.4" x2="7.96" y2="22" style="stroke:green;stroke-width:1" />
 <line x1="7.96" y1="22" x2="7.64" y2="23.92" style="stroke:green;stroke-width:1" />
 <line x1="11.24" y1="17.12" x2="10.92" y2="16.24" style="stroke:green;stroke-width:1" />
 <line x1="10.92" y1="16.24" x2="10.76" y2="14.96" style="stroke:green;stroke-width:1" />
 <line x1="10.76" y1="14.96" x2="11.08" y2="13.44" style="stroke:green;stroke-width:1" />
 <line x1="11.08" y1="13.44" x2="11.96" y2="12.56" style="stroke:green;stroke-width:1" />
 <line x1="11.96" y1="12.56" x2="12.84" y2="12.4" style="stroke:green;stroke-width:1" />
 <line x1="12.84" y1="12.4" x2="13.88" y2="12.56" style="stroke:green;stroke-width:1" />
 <line x1="13.88" y1="12.56" x2="14.6" y2="13.6" style="stroke:green;stroke-width:1" />
 <line x1="14.6" y1="13.6" x2="14.92" y2="15.04" style="stroke:green;stroke-width:1" />
 <line x1="14.92" y1="15.04" x2="14.92" y2="16.08" style="stroke:green;stroke-width:1" />
 <line x1="14.92" y1="16.08" x2="14.76" y2="17.12" style="stroke:green;stroke-width:1" />

</svg>
