<!DOCTYPE svg PUBLIC "-//W3C//DTD SVG 1.1//EN" "http://www.w3.org/Graphics/SVG/1.1/DTD/svg11.dtd">
<svg width="44" height="45" xmlns="http://www.w3.org/2000/svg">
 <!-- Gardiner/Zz376515 at (0,.10526315789473684) in red, scale=.0757894736842105264, mirror=0 -->
 <line x1="18.1873684210526315" y1="13.2610526315789472" x2="15.7621052631578946" y2="12.2757894736842104" style="stroke:red;stroke-width:1" />
 <line x1="15.7621052631578946" y1="12.2757894736842104" x2="13.5642105263157894" y2="11.6694736842105262" style="stroke:red;stroke-width:1" />
 <line x1="13.5642105263157894" y1="11.6694736842105262" x2="11.7452631578947367" y2="11.2905263157894736" style="stroke:red;stroke-width:1" />
 <line x1="11.7452631578947367" y1="11.2905263157894736" x2="9.54736842105263158" y2="10.911578947368421" style="stroke:red;stroke-width:1" />
 <line x1="9.54736842105263158" y1="10.911578947368421" x2="7.34947368421052631" y2="10.76" style="stroke:red;stroke-width:1" />
 <line x1="7.34947368421052631" y1="10.76" x2="5" y2="10.5326315789473684" style="stroke:red;stroke-width:1" />
 <line x1="5" y1="10.5326315789473684" x2="5" y2="6.44" style="stroke:red;stroke-width:1" />
 <line x1="5" y1="6.44" x2="7.27368421052631579" y2="6.36421052631578947" style="stroke:red;stroke-width:1" />
 <line x1="7.27368421052631579" y1="6.36421052631578947" x2="9.69894736842105263" y2="6.21263157894736842" style="stroke:red;stroke-width:1" />
 <line x1="9.69894736842105263" y1="6.21263157894736842" x2="11.8968421052631578" y2="5.90947368421052631" style="stroke:red;stroke-width:1" />
 <line x1="11.8968421052631578" y1="5.90947368421052631" x2="14.3221052631578946" y2="5.60631578947368421" style="stroke:red;stroke-width:1" />
 <line x1="14.3221052631578946" y1="5.60631578947368421" x2="18.1873684210526315" y2="5" style="stroke:red;stroke-width:1" />
 <line x1="18.1873684210526315" y1="5" x2="18.1873684210526315" y2="39.1052631578947368" style="stroke:red;stroke-width:1" />
 <line x1="23.9473684210526315" y1="5.98526315789473684" x2="23.9473684210526315" y2="12.9578947368421051" style="stroke:red;stroke-width:1" />
 <line x1="23.9473684210526315" y1="12.9578947368421051" x2="26.4484210526315788" y2="12.654736842105263" style="stroke:red;stroke-width:1" />
 <line x1="26.4484210526315788" y1="12.654736842105263" x2="30.2378947368421052" y2="12.8063157894736841" style="stroke:red;stroke-width:1" />
 <line x1="30.2378947368421052" y1="12.8063157894736841" x2="33.3452631578947367" y2="13.2610526315789472" style="stroke:red;stroke-width:1" />
 <line x1="33.3452631578947367" y1="13.2610526315789472" x2="36.5284210526315789" y2="14.1705263157894736" style="stroke:red;stroke-width:1" />
 <line x1="36.5284210526315789" y1="5" x2="36.5284210526315789" y2="39.1052631578947368" style="stroke:red;stroke-width:1" />
 <line x1="36.5284210526315789" y1="39.1052631578947368" x2="38.1199999999999999" y2="39.1052631578947368" style="stroke:red;stroke-width:1" />
 <line x1="38.1199999999999999" y1="39.1052631578947368" x2="38.1199999999999999" y2="5" style="stroke:red;stroke-width:1" />
 <line x1="38.1199999999999999" y1="5" x2="36.5284210526315789" y2="5" style="stroke:red;stroke-width:1" />
 <line x1="36.5284210526315789" y1="5" x2="33.3452631578947367" y2="5.75789473684210526" style="stroke:red;stroke-width:1" />
 <line x1="33.3452631578947367" y1="5.75789473684210526" x2="30.2378947368421052" y2="6.06105263157894736" style="stroke:red;stroke-width:1" />
 <line x1="30.2378947368421052" y1="6.06105263157894736" x2="26.4484210526315788" y2="6.21263157894736842" style="stroke:red;stroke-width:1" />
 <line x1="26.4484210526315788" y1="6.21263157894736842" x2="23.9473684210526315" y2="5.98526315789473684" style="stroke:red;stroke-width:1" />

</svg>
