<!DOCTYPE svg PUBLIC "-//W3C//DTD SVG 1.1//EN" "http://www.w3.org/Graphics/SVG/1.1/DTD/svg11.dtd">
<svg width="24" height="45" xmlns="http://www.w3.org/2000/svg">
 <!-- Gardiner/Zz376515 at (0,.10526315789473684) in green, scale=.0757894736842105264, mirror=0 -->
 <line x1="18.7178947368421052" y1="13.2610526315789472" x2="16.2926315789473683" y2="12.2757894736842104" style="stroke:green;stroke-width:1" />
 <line x1="16.2926315789473683" y1="12.2757894736842104" x2="14.0947368421052631" y2="11.6694736842105262" style="stroke:green;stroke-width:1" />
 <line x1="14.0947368421052631" y1="11.6694736842105262" x2="12.2757894736842104" y2="11.2905263157894736" style="stroke:green;stroke-width:1" />
 <line x1="12.2757894736842104" y1="11.2905263157894736" x2="10.0778947368421052" y2="10.911578947368421" style="stroke:green;stroke-width:1" />
 <line x1="10.0778947368421052" y1="10.911578947368421" x2="7.88" y2="10.76" style="stroke:green;stroke-width:1" />
 <line x1="7.88" y1="10.76" x2="5.53052631578947369" y2="10.5326315789473684" style="stroke:green;stroke-width:1" />
 <line x1="5.53052631578947369" y1="10.5326315789473684" x2="5.53052631578947369" y2="6.44" style="stroke:green;stroke-width:1" />
 <line x1="5.53052631578947369" y1="6.44" x2="7.80421052631578948" y2="6.36421052631578947" style="stroke:green;stroke-width:1" />
 <line x1="7.80421052631578948" y1="6.36421052631578947" x2="10.2294736842105263" y2="6.21263157894736842" style="stroke:green;stroke-width:1" />
 <line x1="10.2294736842105263" y1="6.21263157894736842" x2="12.4273684210526315" y2="5.90947368421052631" style="stroke:green;stroke-width:1" />
 <line x1="12.4273684210526315" y1="5.90947368421052631" x2="14.8526315789473683" y2="5.60631578947368421" style="stroke:green;stroke-width:1" />
 <line x1="14.8526315789473683" y1="5.60631578947368421" x2="18.7178947368421052" y2="5" style="stroke:green;stroke-width:1" />
 <line x1="18.7178947368421052" y1="5" x2="18.7178947368421052" y2="39.1052631578947368" style="stroke:green;stroke-width:1" />
 <line x1="5" y1="38.423157894736842" x2="5.68210526315789474" y2="38.1199999999999999" style="stroke:green;stroke-width:1" />
 <line x1="5.68210526315789474" y1="38.1199999999999999" x2="6.44" y2="37.6652631578947367" style="stroke:green;stroke-width:1" />
 <line x1="6.44" y1="37.6652631578947367" x2="7.12210526315789474" y2="37.2105263157894736" style="stroke:green;stroke-width:1" />
 <line x1="7.12210526315789474" y1="37.2105263157894736" x2="7.72842105263157895" y2="36.7557894736842104" style="stroke:green;stroke-width:1" />
 <line x1="7.72842105263157895" y1="36.7557894736842104" x2="8.25894736842105264" y2="36.2252631578947367" style="stroke:green;stroke-width:1" />
 <line x1="8.25894736842105264" y1="36.2252631578947367" x2="8.71368421052631579" y2="35.6189473684210525" style="stroke:green;stroke-width:1" />
 <line x1="8.71368421052631579" y1="35.6189473684210525" x2="9.16842105263157895" y2="35.0126315789473683" style="stroke:green;stroke-width:1" />
 <line x1="9.16842105263157895" y1="35.0126315789473683" x2="9.77473684210526316" y2="33.7999999999999999" style="stroke:green;stroke-width:1" />
 <line x1="9.77473684210526316" y1="33.7999999999999999" x2="10.3810526315789473" y2="32.7389473684210525" style="stroke:green;stroke-width:1" />
 <line x1="10.3810526315789473" y1="32.7389473684210525" x2="10.9873684210526315" y2="31.4505263157894736" style="stroke:green;stroke-width:1" />
 <line x1="10.9873684210526315" y1="31.4505263157894736" x2="11.5178947368421052" y2="30.4652631578947367" style="stroke:green;stroke-width:1" />
 <line x1="11.5178947368421052" y1="30.4652631578947367" x2="12.0484210526315788" y2="29.7073684210526315" style="stroke:green;stroke-width:1" />
 <line x1="12.0484210526315788" y1="29.7073684210526315" x2="12.4273684210526315" y2="29.1768421052631578" style="stroke:green;stroke-width:1" />
 <line x1="12.4273684210526315" y1="29.1768421052631578" x2="12.8063157894736841" y2="28.7221052631578946" style="stroke:green;stroke-width:1" />
 <line x1="12.8063157894736841" y1="28.7221052631578946" x2="13.2610526315789473" y2="28.4189473684210525" style="stroke:green;stroke-width:1" />
 <line x1="13.2610526315789473" y1="28.4189473684210525" x2="13.7157894736842104" y2="28.343157894736842" style="stroke:green;stroke-width:1" />
 <line x1="13.7157894736842104" y1="28.343157894736842" x2="14.1705263157894736" y2="28.343157894736842" style="stroke:green;stroke-width:1" />
 <line x1="14.1705263157894736" y1="28.343157894736842" x2="14.5494736842105262" y2="28.5705263157894736" style="stroke:green;stroke-width:1" />
 <line x1="14.5494736842105262" y1="28.5705263157894736" x2="14.8526315789473683" y2="28.8736842105263157" style="stroke:green;stroke-width:1" />
 <line x1="14.8526315789473683" y1="28.8736842105263157" x2="15.2315789473684209" y2="29.2526315789473683" style="stroke:green;stroke-width:1" />
 <line x1="15.2315789473684209" y1="29.2526315789473683" x2="15.3073684210526315" y2="29.631578947368421" style="stroke:green;stroke-width:1" />
 <line x1="15.3073684210526315" y1="29.631578947368421" x2="15.383157894736842" y2="30.0863157894736841" style="stroke:green;stroke-width:1" />
 <line x1="15.383157894736842" y1="30.0863157894736841" x2="15.383157894736842" y2="38.423157894736842" style="stroke:green;stroke-width:1" />
 <line x1="15.383157894736842" y1="38.423157894736842" x2="5" y2="38.423157894736842" style="stroke:green;stroke-width:1" />

</svg>
