<!DOCTYPE svg PUBLIC "-//W3C//DTD SVG 1.1//EN" "http://www.w3.org/Graphics/SVG/1.1/DTD/svg11.dtd">
<svg width="37" height="47" xmlns="http://www.w3.org/2000/svg">
 <!-- Gardiner/Zz376515 at (0,.53658536585365854) in red, scale=.0585365853658536588, mirror=0 -->
 <line x1="5" y1="34.7365853658536585" x2="31.3414634146341464" y2="34.7365853658536585" style="stroke:red;stroke-width:1" />
 <line x1="31.3414634146341464" y1="37.9560975609756097" x2="5" y2="37.9560975609756097" style="stroke:red;stroke-width:1" />
 <line x1="5" y1="41.175609756097561" x2="31.3414634146341464" y2="41.175609756097561" style="stroke:red;stroke-width:1" />
 <line x1="8.21951219512195123" y1="34.7365853658536585" x2="8.21951219512195123" y2="41.175609756097561" style="stroke:red;stroke-width:1" />
 <line x1="13.1951219512195122" y1="34.7365853658536585" x2="13.1951219512195122" y2="41.175609756097561" style="stroke:red;stroke-width:1" />
 <line x1="18.1707317073170732" y1="34.7365853658536585" x2="18.1707317073170732" y2="41.175609756097561" style="stroke:red;stroke-width:1" />
 <line x1="23.1463414634146341" y1="34.7365853658536585" x2="23.1463414634146341" y2="41.175609756097561" style="stroke:red;stroke-width:1" />
 <line x1="28.1219512195121951" y1="34.7365853658536585" x2="28.1219512195121951" y2="41.175609756097561" style="stroke:red;stroke-width:1" />
 <line x1="31.2243902439024391" y1="21.3317073170731706" x2="5" y2="21.3317073170731706" style="stroke:red;stroke-width:1" />
 <line x1="8.98048780487804879" y1="21.3317073170731706" x2="8.51219512195121952" y2="19.9268292682926828" style="stroke:red;stroke-width:1" />
 <line x1="8.51219512195121952" y1="19.9268292682926828" x2="7.75121951219512196" y2="18.7560975609756096" style="stroke:red;stroke-width:1" />
 <line x1="7.75121951219512196" y1="18.7560975609756096" x2="6.58048780487804878" y2="17.8780487804878048" style="stroke:red;stroke-width:1" />
 <line x1="6.58048780487804878" y1="17.8780487804878048" x2="5.64390243902439024" y2="17.8780487804878048" style="stroke:red;stroke-width:1" />
 <line x1="5.64390243902439024" y1="17.8780487804878048" x2="5.11707317073170731" y2="18.4048780487804877" style="stroke:red;stroke-width:1" />
 <line x1="5.11707317073170731" y1="18.4048780487804877" x2="5" y2="19.1073170731707316" style="stroke:red;stroke-width:1" />
 <line x1="5" y1="19.1073170731707316" x2="5.23414634146341463" y2="20.2780487804878048" style="stroke:red;stroke-width:1" />
 <line x1="5.23414634146341463" y1="20.2780487804878048" x2="5.58536585365853658" y2="21.3317073170731706" style="stroke:red;stroke-width:1" />
 <line x1="5.58536585365853658" y1="21.3317073170731706" x2="6.63902439024390244" y2="24.8439024390243902" style="stroke:red;stroke-width:1" />
 <line x1="6.63902439024390244" y1="24.8439024390243902" x2="8.51219512195121952" y2="24.8439024390243902" style="stroke:red;stroke-width:1" />
 <line x1="8.51219512195121952" y1="24.8439024390243902" x2="8.98048780487804879" y2="21.3317073170731706" style="stroke:red;stroke-width:1" />
 <line x1="18.1707317073170732" y1="21.3317073170731706" x2="18.1707317073170732" y2="34.7365853658536585" style="stroke:red;stroke-width:1" />
 <line x1="13.8975609756097561" y1="21.3317073170731706" x2="18.1707317073170732" y2="26.8926829268292682" style="stroke:red;stroke-width:1" />
 <line x1="18.1707317073170732" y1="21.3317073170731706" x2="19.5170731707317073" y2="23.0878048780487804" style="stroke:red;stroke-width:1" />
 <line x1="19.5170731707317073" y1="23.0878048780487804" x2="20.3951219512195122" y2="24.9609756097560975" style="stroke:red;stroke-width:1" />
 <line x1="20.3951219512195122" y1="24.9609756097560975" x2="21.0975609756097561" y2="26.7170731707317072" style="stroke:red;stroke-width:1" />
 <line x1="21.0975609756097561" y1="26.7170731707317072" x2="21.3317073170731707" y2="27.8292682926829268" style="stroke:red;stroke-width:1" />
 <line x1="21.3317073170731707" y1="27.8292682926829268" x2="21.0975609756097561" y2="28.5317073170731707" style="stroke:red;stroke-width:1" />
 <line x1="21.0975609756097561" y1="28.5317073170731707" x2="20.6878048780487805" y2="28.9414634146341463" style="stroke:red;stroke-width:1" />
 <line x1="20.6878048780487805" y1="28.9414634146341463" x2="20.1024390243902439" y2="28.9999999999999999" style="stroke:red;stroke-width:1" />
 <line x1="20.1024390243902439" y1="28.9999999999999999" x2="19.575609756097561" y2="28.648780487804878" style="stroke:red;stroke-width:1" />
 <line x1="19.575609756097561" y1="28.648780487804878" x2="19.9268292682926829" y2="29.8780487804878048" style="stroke:red;stroke-width:1" />
 <line x1="19.9268292682926829" y1="29.8780487804878048" x2="20.0439024390243902" y2="30.6390243902439024" style="stroke:red;stroke-width:1" />
 <line x1="20.0439024390243902" y1="30.6390243902439024" x2="19.9853658536585366" y2="31.2829268292682926" style="stroke:red;stroke-width:1" />
 <line x1="19.9853658536585366" y1="31.2829268292682926" x2="19.4" y2="31.5170731707317073" style="stroke:red;stroke-width:1" />
 <line x1="19.4" y1="31.5170731707317073" x2="18.8146341463414634" y2="31.224390243902439" style="stroke:red;stroke-width:1" />
 <line x1="18.8146341463414634" y1="31.224390243902439" x2="18.1707317073170732" y2="30.7560975609756097" style="stroke:red;stroke-width:1" />
 <line x1="20.1609756097560975" y1="5.46829268292682927" x2="12.375609756097561" y2="20.4536585365853657" style="stroke:red;stroke-width:1" />
 <line x1="11.7902439024390244" y1="21.3317073170731706" x2="12.1414634146341463" y2="19.3414634146341462" style="stroke:red;stroke-width:1" />
 <line x1="12.1414634146341463" y1="19.3414634146341462" x2="12.3170731707317073" y2="20.4536585365853657" style="stroke:red;stroke-width:1" />
 <line x1="12.3170731707317073" y1="20.4536585365853657" x2="13.3121951219512195" y2="20.1024390243902438" style="stroke:red;stroke-width:1" />
 <line x1="13.3121951219512195" y1="20.1024390243902438" x2="11.848780487804878" y2="21.3317073170731706" style="stroke:red;stroke-width:1" />
 <line x1="20.8634146341463415" y1="5.87804878048780488" x2="19.9268292682926829" y2="6.11219512195121951" style="stroke:red;stroke-width:1" />
 <line x1="19.9268292682926829" y1="6.11219512195121951" x2="19.7512195121951219" y2="5" style="stroke:red;stroke-width:1" />
 <line x1="20.5707317073170732" y1="6.58048780487804878" x2="19.5170731707317073" y2="6.81463414634146342" style="stroke:red;stroke-width:1" />
 <line x1="19.5170731707317073" y1="6.81463414634146342" x2="19.3414634146341463" y2="5.7024390243902439" style="stroke:red;stroke-width:1" />
 <line x1="20.2195121951219512" y1="7.28292682926829269" x2="19.048780487804878" y2="7.57560975609756098" style="stroke:red;stroke-width:1" />
 <line x1="19.048780487804878" y1="7.57560975609756098" x2="18.9317073170731707" y2="6.40487804878048781" style="stroke:red;stroke-width:1" />
 <line x1="19.7512195121951219" y1="8.04390243902439025" x2="18.6975609756097561" y2="8.27804878048780489" style="stroke:red;stroke-width:1" />
 <line x1="18.6975609756097561" y1="8.27804878048780489" x2="18.4634146341463414" y2="7.16585365853658537" style="stroke:red;stroke-width:1" />
 <line x1="9.80000000000000002" y1="5.46829268292682927" x2="17.6439024390243902" y2="20.3951219512195121" style="stroke:red;stroke-width:1" />
 <line x1="18.1121951219512195" y1="21.3317073170731706" x2="17.8195121951219512" y2="19.3414634146341462" style="stroke:red;stroke-width:1" />
 <line x1="17.8195121951219512" y1="19.3414634146341462" x2="17.6439024390243902" y2="20.4536585365853657" style="stroke:red;stroke-width:1" />
 <line x1="17.6439024390243902" y1="20.4536585365853657" x2="16.7073170731707317" y2="20.1024390243902438" style="stroke:red;stroke-width:1" />
 <line x1="16.7073170731707317" y1="20.1024390243902438" x2="18.1121951219512195" y2="21.3317073170731706" style="stroke:red;stroke-width:1" />
 <line x1="9.15609756097560977" y1="5.87804878048780488" x2="10.0926829268292683" y2="6.11219512195121951" style="stroke:red;stroke-width:1" />
 <line x1="10.0926829268292683" y1="6.11219512195121951" x2="10.2682926829268292" y2="5" style="stroke:red;stroke-width:1" />
 <line x1="9.39024390243902441" y1="6.58048780487804878" x2="10.4439024390243902" y2="6.81463414634146342" style="stroke:red;stroke-width:1" />
 <line x1="10.4439024390243902" y1="6.81463414634146342" x2="10.6780487804878049" y2="5.7024390243902439" style="stroke:red;stroke-width:1" />
 <line x1="9.80000000000000002" y1="7.28292682926829269" x2="10.9121951219512195" y2="7.57560975609756098" style="stroke:red;stroke-width:1" />
 <line x1="10.9121951219512195" y1="7.57560975609756098" x2="11.0292682926829268" y2="6.40487804878048781" style="stroke:red;stroke-width:1" />
 <line x1="10.2682926829268292" y1="8.04390243902439025" x2="11.2634146341463414" y2="8.27804878048780489" style="stroke:red;stroke-width:1" />
 <line x1="11.2634146341463414" y1="8.27804878048780489" x2="11.5560975609756097" y2="7.16585365853658537" style="stroke:red;stroke-width:1" />
 <line x1="18.1121951219512195" y1="21.3317073170731706" x2="18.1121951219512195" y2="9.56585365853658538" style="stroke:red;stroke-width:1" />
 <line x1="18.1121951219512195" y1="9.56585365853658538" x2="17.8780487804878049" y2="8.80487804878048782" style="stroke:red;stroke-width:1" />
 <line x1="17.8780487804878049" y1="8.80487804878048782" x2="17.4097560975609756" y2="8.10243902439024391" style="stroke:red;stroke-width:1" />
 <line x1="17.4097560975609756" y1="8.10243902439024391" x2="16.7658536585365853" y2="7.57560975609756098" style="stroke:red;stroke-width:1" />
 <line x1="16.7658536585365853" y1="7.57560975609756098" x2="16.1219512195121951" y2="7.28292682926829269" style="stroke:red;stroke-width:1" />
 <line x1="16.1219512195121951" y1="7.28292682926829269" x2="14.9512195121951219" y2="7.16585365853658537" style="stroke:red;stroke-width:1" />
 <line x1="14.9512195121951219" y1="7.16585365853658537" x2="14.0146341463414634" y2="7.28292682926829269" style="stroke:red;stroke-width:1" />
 <line x1="14.0146341463414634" y1="7.28292682926829269" x2="13.3121951219512195" y2="7.51707317073170732" style="stroke:red;stroke-width:1" />
 <line x1="13.3121951219512195" y1="7.51707317073170732" x2="12.7853658536585366" y2="7.86829268292682928" style="stroke:red;stroke-width:1" />
 <line x1="12.7853658536585366" y1="7.86829268292682928" x2="12.375609756097561" y2="8.39512195121951221" style="stroke:red;stroke-width:1" />
 <line x1="12.375609756097561" y1="8.39512195121951221" x2="11.9658536585365853" y2="8.92195121951219513" style="stroke:red;stroke-width:1" />
 <line x1="11.9658536585365853" y1="8.92195121951219513" x2="11.7902439024390244" y2="9.50731707317073172" style="stroke:red;stroke-width:1" />
 <line x1="11.7902439024390244" y1="9.50731707317073172" x2="11.7902439024390244" y2="21.3317073170731706" style="stroke:red;stroke-width:1" />
 <line x1="11.7902439024390244" y1="21.3317073170731706" x2="18.1121951219512195" y2="21.3317073170731706" style="stroke:red;stroke-width:1" />
 <line x1="24.6097560975609756" y1="8.27804878048780489" x2="24.6097560975609756" y2="17.1756097560975609" style="stroke:red;stroke-width:1" />
 <line x1="24.6097560975609756" y1="17.1756097560975609" x2="26.0731707317073171" y2="17.1756097560975609" style="stroke:red;stroke-width:1" />
 <line x1="26.0731707317073171" y1="17.1756097560975609" x2="26.424390243902439" y2="21.3317073170731706" style="stroke:red;stroke-width:1" />
 <line x1="26.424390243902439" y1="21.3317073170731706" x2="22.7951219512195122" y2="21.3317073170731706" style="stroke:red;stroke-width:1" />
 <line x1="22.7951219512195122" y1="21.3317073170731706" x2="23.2048780487804878" y2="17.1756097560975609" style="stroke:red;stroke-width:1" />
 <line x1="23.2048780487804878" y1="17.1756097560975609" x2="24.6097560975609756" y2="17.1756097560975609" style="stroke:red;stroke-width:1" />
 <line x1="26.0731707317073171" y1="17.1756097560975609" x2="27.1853658536585366" y2="15.4780487804878047" style="stroke:red;stroke-width:1" />
 <line x1="27.1853658536585366" y1="15.4780487804878047" x2="27.3024390243902439" y2="15.3024390243902438" style="stroke:red;stroke-width:1" />
 <line x1="27.3024390243902439" y1="15.3024390243902438" x2="27.5365853658536586" y2="15.3024390243902438" style="stroke:red;stroke-width:1" />
 <line x1="27.5365853658536586" y1="15.3024390243902438" x2="27.6536585365853659" y2="15.5365853658536584" style="stroke:red;stroke-width:1" />
 <line x1="27.6536585365853659" y1="15.5365853658536584" x2="28.5317073170731708" y2="17.5853658536585365" style="stroke:red;stroke-width:1" />
 <line x1="28.5317073170731708" y1="17.5853658536585365" x2="28.4146341463414634" y2="17.8780487804878048" style="stroke:red;stroke-width:1" />
 <line x1="28.4146341463414634" y1="17.8780487804878048" x2="28.2975609756097561" y2="18.1707317073170731" style="stroke:red;stroke-width:1" />
 <line x1="28.2975609756097561" y1="18.1707317073170731" x2="28.3560975609756098" y2="18.7560975609756096" style="stroke:red;stroke-width:1" />
 <line x1="28.3560975609756098" y1="18.7560975609756096" x2="28.5317073170731708" y2="19.3414634146341462" style="stroke:red;stroke-width:1" />
 <line x1="28.5317073170731708" y1="19.3414634146341462" x2="28.7073170731707317" y2="19.5756097560975609" style="stroke:red;stroke-width:1" />
 <line x1="28.7073170731707317" y1="19.5756097560975609" x2="29.1170731707317073" y2="20.0439024390243901" style="stroke:red;stroke-width:1" />
 <line x1="29.1170731707317073" y1="20.0439024390243901" x2="29.4682926829268293" y2="20.2780487804878048" style="stroke:red;stroke-width:1" />
 <line x1="29.4682926829268293" y1="20.2780487804878048" x2="29.8780487804878049" y2="20.3951219512195121" style="stroke:red;stroke-width:1" />
 <line x1="29.8780487804878049" y1="20.3951219512195121" x2="30.0536585365853659" y2="20.2780487804878048" style="stroke:red;stroke-width:1" />
 <line x1="30.0536585365853659" y1="20.2780487804878048" x2="30.1707317073170732" y2="19.9268292682926828" style="stroke:red;stroke-width:1" />
 <line x1="30.1707317073170732" y1="19.9268292682926828" x2="30.1121951219512195" y2="19.3999999999999999" style="stroke:red;stroke-width:1" />
 <line x1="30.1121951219512195" y1="19.3999999999999999" x2="30.0536585365853659" y2="18.873170731707317" style="stroke:red;stroke-width:1" />
 <line x1="30.0536585365853659" y1="18.873170731707317" x2="29.8780487804878049" y2="18.521951219512195" style="stroke:red;stroke-width:1" />
 <line x1="29.8780487804878049" y1="18.521951219512195" x2="29.526829268292683" y2="18.0536585365853657" style="stroke:red;stroke-width:1" />
 <line x1="29.526829268292683" y1="18.0536585365853657" x2="29.2926829268292683" y2="17.8780487804878048" style="stroke:red;stroke-width:1" />
 <line x1="29.2926829268292683" y1="17.8780487804878048" x2="28.8829268292682927" y2="17.6439024390243901" style="stroke:red;stroke-width:1" />
 <line x1="28.8829268292682927" y1="17.6439024390243901" x2="28.5317073170731708" y2="17.5853658536585365" style="stroke:red;stroke-width:1" />
 <line x1="25.3121951219512195" y1="17.1756097560975609" x2="26.8926829268292683" y2="10.8536585365853658" style="stroke:red;stroke-width:1" />
 <line x1="26.8926829268292683" y1="10.8536585365853658" x2="27.3609756097560976" y2="10.7951219512195122" style="stroke:red;stroke-width:1" />
 <line x1="27.3609756097560976" y1="10.7951219512195122" x2="27.8292682926829269" y2="10.6780487804878049" style="stroke:red;stroke-width:1" />
 <line x1="27.8292682926829269" y1="10.6780487804878049" x2="28.0634146341463415" y2="10.2682926829268292" style="stroke:red;stroke-width:1" />
 <line x1="28.0634146341463415" y1="10.2682926829268292" x2="28.4146341463414634" y2="9.97560975609756099" style="stroke:red;stroke-width:1" />
 <line x1="28.4146341463414634" y1="9.97560975609756099" x2="28.6487804878048781" y2="9.80000000000000002" style="stroke:red;stroke-width:1" />
 <line x1="28.6487804878048781" y1="9.80000000000000002" x2="29" y2="9.6829268292682927" style="stroke:red;stroke-width:1" />
 <line x1="29" y1="9.6829268292682927" x2="29.4097560975609756" y2="9.62439024390243904" style="stroke:red;stroke-width:1" />
 <line x1="29.4097560975609756" y1="9.62439024390243904" x2="29.526829268292683" y2="9.62439024390243904" style="stroke:red;stroke-width:1" />
 <line x1="29.526829268292683" y1="9.62439024390243904" x2="29.5853658536585366" y2="9.56585365853658538" style="stroke:red;stroke-width:1" />
 <line x1="29.5853658536585366" y1="9.56585365853658538" x2="29.526829268292683" y2="9.39024390243902441" style="stroke:red;stroke-width:1" />
 <line x1="29.526829268292683" y1="9.39024390243902441" x2="29.2926829268292683" y2="9.15609756097560977" style="stroke:red;stroke-width:1" />
 <line x1="29.2926829268292683" y1="9.15609756097560977" x2="28.7658536585365854" y2="8.74634146341463416" style="stroke:red;stroke-width:1" />
 <line x1="28.7658536585365854" y1="8.74634146341463416" x2="28.1804878048780488" y2="8.45365853658536586" style="stroke:red;stroke-width:1" />
 <line x1="28.1804878048780488" y1="8.45365853658536586" x2="27.3024390243902439" y2="8.16097560975609757" style="stroke:red;stroke-width:1" />
 <line x1="27.3024390243902439" y1="8.16097560975609757" x2="26.6585365853658537" y2="8.04390243902439025" style="stroke:red;stroke-width:1" />
 <line x1="26.6585365853658537" y1="8.04390243902439025" x2="26.0146341463414634" y2="8.04390243902439025" style="stroke:red;stroke-width:1" />
 <line x1="26.0146341463414634" y1="8.04390243902439025" x2="25.6048780487804878" y2="8.21951219512195123" style="stroke:red;stroke-width:1" />
 <line x1="25.6048780487804878" y1="8.21951219512195123" x2="25.4878048780487805" y2="8.33658536585365855" style="stroke:red;stroke-width:1" />
 <line x1="25.4878048780487805" y1="8.33658536585365855" x2="25.4878048780487805" y2="8.51219512195121952" style="stroke:red;stroke-width:1" />
 <line x1="25.4878048780487805" y1="8.51219512195121952" x2="25.5463414634146342" y2="8.62926829268292684" style="stroke:red;stroke-width:1" />
 <line x1="25.5463414634146342" y1="8.62926829268292684" x2="25.7804878048780488" y2="8.74634146341463416" style="stroke:red;stroke-width:1" />
 <line x1="25.7804878048780488" y1="8.74634146341463416" x2="26.0146341463414634" y2="8.98048780487804879" style="stroke:red;stroke-width:1" />
 <line x1="26.0146341463414634" y1="8.98048780487804879" x2="26.3073170731707317" y2="9.33170731707317075" style="stroke:red;stroke-width:1" />
 <line x1="26.3073170731707317" y1="9.33170731707317075" x2="26.3658536585365854" y2="9.97560975609756099" style="stroke:red;stroke-width:1" />
 <line x1="26.3658536585365854" y1="9.97560975609756099" x2="26.3658536585365854" y2="10.1512195121951219" style="stroke:red;stroke-width:1" />
 <line x1="26.3658536585365854" y1="10.1512195121951219" x2="26.5414634146341464" y2="10.6195121951219512" style="stroke:red;stroke-width:1" />
 <line x1="26.5414634146341464" y1="10.6195121951219512" x2="26.8926829268292683" y2="10.8536585365853658" style="stroke:red;stroke-width:1" />
 <line x1="24.6097560975609756" y1="8.27804878048780489" x2="24.8439024390243903" y2="8.04390243902439025" style="stroke:red;stroke-width:1" />
 <line x1="24.8439024390243903" y1="8.04390243902439025" x2="25.0780487804878049" y2="7.92682926829268294" style="stroke:red;stroke-width:1" />
 <line x1="25.0780487804878049" y1="7.92682926829268294" x2="25.3121951219512195" y2="7.6926829268292683" style="stroke:red;stroke-width:1" />
 <line x1="25.3121951219512195" y1="7.6926829268292683" x2="25.4878048780487805" y2="7.28292682926829269" style="stroke:red;stroke-width:1" />
 <line x1="25.4878048780487805" y1="7.28292682926829269" x2="25.6634146341463415" y2="6.63902439024390244" style="stroke:red;stroke-width:1" />
 <line x1="25.6634146341463415" y1="6.63902439024390244" x2="25.8390243902439025" y2="6.28780487804878049" style="stroke:red;stroke-width:1" />
 <line x1="25.8390243902439025" y1="6.28780487804878049" x2="26.2487804878048781" y2="5.93658536585365854" style="stroke:red;stroke-width:1" />
 <line x1="26.2487804878048781" y1="5.93658536585365854" x2="26.4829268292682927" y2="5.76097560975609756" style="stroke:red;stroke-width:1" />
 <line x1="26.4829268292682927" y1="5.76097560975609756" x2="26.7170731707317073" y2="5.64390243902439024" style="stroke:red;stroke-width:1" />
 <line x1="26.7170731707317073" y1="5.64390243902439024" x2="26.7170731707317073" y2="5.52682926829268292" style="stroke:red;stroke-width:1" />
 <line x1="26.7170731707317073" y1="5.52682926829268292" x2="26.3658536585365854" y2="5.29268292682926829" style="stroke:red;stroke-width:1" />
 <line x1="26.3658536585365854" y1="5.29268292682926829" x2="25.6634146341463415" y2="5.11707317073170731" style="stroke:red;stroke-width:1" />
 <line x1="25.6634146341463415" y1="5.11707317073170731" x2="24.9024390243902439" y2="5" style="stroke:red;stroke-width:1" />
 <line x1="24.9024390243902439" y1="5" x2="24.3170731707317073" y2="5" style="stroke:red;stroke-width:1" />
 <line x1="24.3170731707317073" y1="5" x2="23.4975609756097561" y2="5.11707317073170731" style="stroke:red;stroke-width:1" />
 <line x1="23.4975609756097561" y1="5.11707317073170731" x2="22.8536585365853659" y2="5.29268292682926829" style="stroke:red;stroke-width:1" />
 <line x1="22.8536585365853659" y1="5.29268292682926829" x2="22.5024390243902439" y2="5.52682926829268292" style="stroke:red;stroke-width:1" />
 <line x1="22.5024390243902439" y1="5.52682926829268292" x2="22.5024390243902439" y2="5.64390243902439024" style="stroke:red;stroke-width:1" />
 <line x1="22.5024390243902439" y1="5.64390243902439024" x2="22.7365853658536585" y2="5.76097560975609756" style="stroke:red;stroke-width:1" />
 <line x1="22.7365853658536585" y1="5.76097560975609756" x2="22.9707317073170732" y2="5.93658536585365854" style="stroke:red;stroke-width:1" />
 <line x1="22.9707317073170732" y1="5.93658536585365854" x2="23.3219512195121951" y2="6.28780487804878049" style="stroke:red;stroke-width:1" />
 <line x1="23.3219512195121951" y1="6.28780487804878049" x2="23.4975609756097561" y2="6.63902439024390244" style="stroke:red;stroke-width:1" />
 <line x1="23.4975609756097561" y1="6.63902439024390244" x2="23.7317073170731707" y2="7.28292682926829269" style="stroke:red;stroke-width:1" />
 <line x1="23.7317073170731707" y1="7.28292682926829269" x2="23.8487804878048781" y2="7.6926829268292683" style="stroke:red;stroke-width:1" />
 <line x1="23.8487804878048781" y1="7.6926829268292683" x2="24.0829268292682927" y2="7.92682926829268294" style="stroke:red;stroke-width:1" />
 <line x1="24.0829268292682927" y1="7.92682926829268294" x2="24.3170731707317073" y2="8.04390243902439025" style="stroke:red;stroke-width:1" />
 <line x1="24.3170731707317073" y1="8.04390243902439025" x2="24.6097560975609756" y2="8.27804878048780489" style="stroke:red;stroke-width:1" />
 <line x1="22.3268292682926829" y1="10.8536585365853658" x2="22.7365853658536585" y2="10.6195121951219512" style="stroke:red;stroke-width:1" />
 <line x1="22.7365853658536585" y1="10.6195121951219512" x2="22.8536585365853659" y2="10.1512195121951219" style="stroke:red;stroke-width:1" />
 <line x1="22.8536585365853659" y1="10.1512195121951219" x2="22.8536585365853659" y2="9.97560975609756099" style="stroke:red;stroke-width:1" />
 <line x1="22.8536585365853659" y1="9.97560975609756099" x2="22.9121951219512195" y2="9.33170731707317075" style="stroke:red;stroke-width:1" />
 <line x1="22.9121951219512195" y1="9.33170731707317075" x2="23.2048780487804878" y2="8.98048780487804879" style="stroke:red;stroke-width:1" />
 <line x1="23.2048780487804878" y1="8.98048780487804879" x2="23.3804878048780488" y2="8.74634146341463416" style="stroke:red;stroke-width:1" />
 <line x1="23.3804878048780488" y1="8.74634146341463416" x2="23.6146341463414634" y2="8.62926829268292684" style="stroke:red;stroke-width:1" />
 <line x1="23.6146341463414634" y1="8.62926829268292684" x2="23.7317073170731707" y2="8.51219512195121952" style="stroke:red;stroke-width:1" />
 <line x1="23.7317073170731707" y1="8.51219512195121952" x2="23.7317073170731707" y2="8.33658536585365855" style="stroke:red;stroke-width:1" />
 <line x1="23.7317073170731707" y1="8.33658536585365855" x2="23.5560975609756098" y2="8.21951219512195123" style="stroke:red;stroke-width:1" />
 <line x1="23.5560975609756098" y1="8.21951219512195123" x2="23.2048780487804878" y2="8.04390243902439025" style="stroke:red;stroke-width:1" />
 <line x1="23.2048780487804878" y1="8.04390243902439025" x2="22.5609756097560976" y2="8.04390243902439025" style="stroke:red;stroke-width:1" />
 <line x1="22.5609756097560976" y1="8.04390243902439025" x2="21.9170731707317073" y2="8.16097560975609757" style="stroke:red;stroke-width:1" />
 <line x1="21.9170731707317073" y1="8.16097560975609757" x2="21.0975609756097561" y2="8.45365853658536586" style="stroke:red;stroke-width:1" />
 <line x1="21.0975609756097561" y1="8.45365853658536586" x2="20.4536585365853658" y2="8.74634146341463416" style="stroke:red;stroke-width:1" />
 <line x1="20.4536585365853658" y1="8.74634146341463416" x2="19.9268292682926829" y2="9.15609756097560977" style="stroke:red;stroke-width:1" />
 <line x1="19.9268292682926829" y1="9.15609756097560977" x2="19.6926829268292683" y2="9.39024390243902441" style="stroke:red;stroke-width:1" />
 <line x1="19.6926829268292683" y1="9.39024390243902441" x2="19.6341463414634146" y2="9.56585365853658538" style="stroke:red;stroke-width:1" />
 <line x1="19.6341463414634146" y1="9.56585365853658538" x2="19.6926829268292683" y2="9.62439024390243904" style="stroke:red;stroke-width:1" />
 <line x1="19.6926829268292683" y1="9.62439024390243904" x2="19.8682926829268293" y2="9.62439024390243904" style="stroke:red;stroke-width:1" />
 <line x1="19.8682926829268293" y1="9.62439024390243904" x2="20.2195121951219512" y2="9.6829268292682927" style="stroke:red;stroke-width:1" />
 <line x1="20.2195121951219512" y1="9.6829268292682927" x2="20.6292682926829268" y2="9.80000000000000002" style="stroke:red;stroke-width:1" />
 <line x1="20.6292682926829268" y1="9.80000000000000002" x2="20.8048780487804878" y2="9.97560975609756099" style="stroke:red;stroke-width:1" />
 <line x1="20.8048780487804878" y1="9.97560975609756099" x2="21.1560975609756097" y2="10.2682926829268292" style="stroke:red;stroke-width:1" />
 <line x1="21.1560975609756097" y1="10.2682926829268292" x2="21.3902439024390244" y2="10.6780487804878049" style="stroke:red;stroke-width:1" />
 <line x1="21.3902439024390244" y1="10.6780487804878049" x2="21.8585365853658537" y2="10.7951219512195122" style="stroke:red;stroke-width:1" />
 <line x1="21.8585365853658537" y1="10.7951219512195122" x2="22.3268292682926829" y2="10.8536585365853658" style="stroke:red;stroke-width:1" />
 <line x1="22.3268292682926829" y1="10.8536585365853658" x2="23.9073170731707317" y2="17.1756097560975609" style="stroke:red;stroke-width:1" />
 <line x1="20.6878048780487805" y1="17.5853658536585365" x2="20.3365853658536585" y2="17.6439024390243901" style="stroke:red;stroke-width:1" />
 <line x1="20.3365853658536585" y1="17.6439024390243901" x2="19.9268292682926829" y2="17.8780487804878048" style="stroke:red;stroke-width:1" />
 <line x1="19.9268292682926829" y1="17.8780487804878048" x2="19.6926829268292683" y2="18.0536585365853657" style="stroke:red;stroke-width:1" />
 <line x1="19.6926829268292683" y1="18.0536585365853657" x2="19.3414634146341463" y2="18.521951219512195" style="stroke:red;stroke-width:1" />
 <line x1="19.3414634146341463" y1="18.521951219512195" x2="19.1658536585365853" y2="18.873170731707317" style="stroke:red;stroke-width:1" />
 <line x1="19.1658536585365853" y1="18.873170731707317" x2="19.1073170731707317" y2="19.3999999999999999" style="stroke:red;stroke-width:1" />
 <line x1="19.1073170731707317" y1="19.3999999999999999" x2="19.1073170731707317" y2="19.9268292682926828" style="stroke:red;stroke-width:1" />
 <line x1="19.1073170731707317" y1="19.9268292682926828" x2="19.1658536585365853" y2="20.2780487804878048" style="stroke:red;stroke-width:1" />
 <line x1="19.1658536585365853" y1="20.2780487804878048" x2="19.3414634146341463" y2="20.3951219512195121" style="stroke:red;stroke-width:1" />
 <line x1="19.3414634146341463" y1="20.3951219512195121" x2="19.7512195121951219" y2="20.2780487804878048" style="stroke:red;stroke-width:1" />
 <line x1="19.7512195121951219" y1="20.2780487804878048" x2="20.1024390243902439" y2="20.0439024390243901" style="stroke:red;stroke-width:1" />
 <line x1="20.1024390243902439" y1="20.0439024390243901" x2="20.5121951219512195" y2="19.5756097560975609" style="stroke:red;stroke-width:1" />
 <line x1="20.5121951219512195" y1="19.5756097560975609" x2="20.6878048780487805" y2="19.3414634146341462" style="stroke:red;stroke-width:1" />
 <line x1="20.6878048780487805" y1="19.3414634146341462" x2="20.9219512195121951" y2="18.7560975609756096" style="stroke:red;stroke-width:1" />
 <line x1="20.9219512195121951" y1="18.7560975609756096" x2="20.9219512195121951" y2="18.1707317073170731" style="stroke:red;stroke-width:1" />
 <line x1="20.9219512195121951" y1="18.1707317073170731" x2="20.8048780487804878" y2="17.8780487804878048" style="stroke:red;stroke-width:1" />
 <line x1="20.8048780487804878" y1="17.8780487804878048" x2="20.6878048780487805" y2="17.5853658536585365" style="stroke:red;stroke-width:1" />
 <line x1="20.6878048780487805" y1="17.5853658536585365" x2="21.5658536585365854" y2="15.5365853658536584" style="stroke:red;stroke-width:1" />
 <line x1="21.5658536585365854" y1="15.5365853658536584" x2="21.6829268292682927" y2="15.3024390243902438" style="stroke:red;stroke-width:1" />
 <line x1="21.6829268292682927" y1="15.3024390243902438" x2="21.9170731707317073" y2="15.3024390243902438" style="stroke:red;stroke-width:1" />
 <line x1="21.9170731707317073" y1="15.3024390243902438" x2="22.0341463414634146" y2="15.4780487804878047" style="stroke:red;stroke-width:1" />
 <line x1="22.0341463414634146" y1="15.4780487804878047" x2="23.2048780487804878" y2="17.1756097560975609" style="stroke:red;stroke-width:1" />

</svg>
