<!DOCTYPE svg PUBLIC "-//W3C//DTD SVG 1.1//EN" "http://www.w3.org/Graphics/SVG/1.1/DTD/svg11.dtd">
<svg width="44" height="48" xmlns="http://www.w3.org/2000/svg">
 <!-- Gardiner/Zz376515 at (0,.10526315789473684) in red, scale=.0757894736842105264, mirror=0 -->
 <line x1="23.4926315789473683" y1="26.5242105263157894" x2="21.9768421052631578" y2="25.0842105263157894" style="stroke:red;stroke-width:1" />
 <line x1="21.9768421052631578" y1="25.0842105263157894" x2="20.5368421052631578" y2="24.0989473684210525" style="stroke:red;stroke-width:1" />
 <line x1="20.5368421052631578" y1="24.0989473684210525" x2="18.9452631578947367" y2="23.2652631578947367" style="stroke:red;stroke-width:1" />
 <line x1="18.9452631578947367" y1="23.2652631578947367" x2="17.5052631578947367" y2="22.8863157894736841" style="stroke:red;stroke-width:1" />
 <line x1="17.5052631578947367" y1="22.8863157894736841" x2="16.2926315789473683" y2="22.6589473684210525" style="stroke:red;stroke-width:1" />
 <line x1="16.2926315789473683" y1="22.6589473684210525" x2="15.1557894736842104" y2="22.734736842105263" style="stroke:red;stroke-width:1" />
 <line x1="15.1557894736842104" y1="22.734736842105263" x2="14.1705263157894736" y2="22.9621052631578946" style="stroke:red;stroke-width:1" />
 <line x1="14.1705263157894736" y1="22.9621052631578946" x2="13.0336842105263157" y2="23.2652631578947367" style="stroke:red;stroke-width:1" />
 <line x1="13.0336842105263157" y1="23.2652631578947367" x2="11.5178947368421051" y2="23.8715789473684209" style="stroke:red;stroke-width:1" />
 <line x1="13.6399999999999999" y1="21.4463157894736841" x2="13.6399999999999999" y2="27.7368421052631578" style="stroke:red;stroke-width:1" />
 <line x1="11.5178947368421051" y1="26.903157894736842" x2="13.0336842105263157" y2="26.2968421052631578" style="stroke:red;stroke-width:1" />
 <line x1="13.0336842105263157" y1="26.2968421052631578" x2="14.1705263157894736" y2="25.9936842105263157" style="stroke:red;stroke-width:1" />
 <line x1="14.1705263157894736" y1="25.9936842105263157" x2="15.1557894736842104" y2="25.7663157894736841" style="stroke:red;stroke-width:1" />
 <line x1="15.1557894736842104" y1="25.7663157894736841" x2="16.2926315789473683" y2="25.7663157894736841" style="stroke:red;stroke-width:1" />
 <line x1="16.2926315789473683" y1="25.7663157894736841" x2="17.4294736842105262" y2="25.9936842105263157" style="stroke:red;stroke-width:1" />
 <line x1="17.4294736842105262" y1="25.9936842105263157" x2="18.8694736842105262" y2="26.3726315789473683" style="stroke:red;stroke-width:1" />
 <line x1="18.8694736842105262" y1="26.3726315789473683" x2="20.5368421052631578" y2="27.2063157894736841" style="stroke:red;stroke-width:1" />
 <line x1="20.5368421052631578" y1="27.2063157894736841" x2="21.9768421052631578" y2="28.2673684210526315" style="stroke:red;stroke-width:1" />
 <line x1="21.9768421052631578" y1="28.2673684210526315" x2="23.4926315789473683" y2="29.8589473684210525" style="stroke:red;stroke-width:1" />
 <line x1="23.4926315789473683" y1="29.8589473684210525" x2="25.0084210526315788" y2="28.2673684210526315" style="stroke:red;stroke-width:1" />
 <line x1="25.0084210526315788" y1="28.2673684210526315" x2="26.4484210526315788" y2="27.2063157894736841" style="stroke:red;stroke-width:1" />
 <line x1="26.4484210526315788" y1="27.2063157894736841" x2="28.1157894736842104" y2="26.3726315789473683" style="stroke:red;stroke-width:1" />
 <line x1="28.1157894736842104" y1="26.3726315789473683" x2="29.5557894736842104" y2="25.9936842105263157" style="stroke:red;stroke-width:1" />
 <line x1="29.5557894736842104" y1="25.9936842105263157" x2="30.6926315789473683" y2="25.7663157894736841" style="stroke:red;stroke-width:1" />
 <line x1="30.6926315789473683" y1="25.7663157894736841" x2="31.8294736842105262" y2="25.7663157894736841" style="stroke:red;stroke-width:1" />
 <line x1="31.8294736842105262" y1="25.7663157894736841" x2="32.8147368421052631" y2="25.9936842105263157" style="stroke:red;stroke-width:1" />
 <line x1="32.8147368421052631" y1="25.9936842105263157" x2="33.951578947368421" y2="26.2968421052631578" style="stroke:red;stroke-width:1" />
 <line x1="33.951578947368421" y1="26.2968421052631578" x2="35.4673684210526315" y2="26.903157894736842" style="stroke:red;stroke-width:1" />
 <line x1="33.3452631578947367" y1="27.7368421052631578" x2="33.3452631578947367" y2="21.4463157894736841" style="stroke:red;stroke-width:1" />
 <line x1="35.4673684210526315" y1="23.8715789473684209" x2="33.951578947368421" y2="23.2652631578947367" style="stroke:red;stroke-width:1" />
 <line x1="33.951578947368421" y1="23.2652631578947367" x2="32.8147368421052631" y2="22.9621052631578946" style="stroke:red;stroke-width:1" />
 <line x1="32.8147368421052631" y1="22.9621052631578946" x2="31.8294736842105262" y2="22.734736842105263" style="stroke:red;stroke-width:1" />
 <line x1="31.8294736842105262" y1="22.734736842105263" x2="30.6926315789473683" y2="22.6589473684210525" style="stroke:red;stroke-width:1" />
 <line x1="30.6926315789473683" y1="22.6589473684210525" x2="29.4799999999999999" y2="22.8863157894736841" style="stroke:red;stroke-width:1" />
 <line x1="29.4799999999999999" y1="22.8863157894736841" x2="28.0399999999999999" y2="23.2652631578947367" style="stroke:red;stroke-width:1" />
 <line x1="28.0399999999999999" y1="23.2652631578947367" x2="26.4484210526315788" y2="24.0989473684210525" style="stroke:red;stroke-width:1" />
 <line x1="26.4484210526315788" y1="24.0989473684210525" x2="25.0084210526315788" y2="25.0842105263157894" style="stroke:red;stroke-width:1" />
 <line x1="25.0084210526315788" y1="25.0842105263157894" x2="23.4926315789473683" y2="26.5242105263157894" style="stroke:red;stroke-width:1" />
 <line x1="15.1557894736842104" y1="9.54736842105263158" x2="17.4294736842105262" y2="8.03157894736842105" style="stroke:red;stroke-width:1" />
 <line x1="17.4294736842105262" y1="8.03157894736842105" x2="19.703157894736842" y2="9.54736842105263158" style="stroke:red;stroke-width:1" />
 <line x1="17.4294736842105262" y1="11.8210526315789472" x2="17.4294736842105262" y2="8.03157894736842105" style="stroke:red;stroke-width:1" />
 <path d="M 23.4926315789473683 8.03157894736842105
          A 3.03157894736842105 3.03157894736842105 0 1 0 17.4294736842105263 8.03157894736842105"
       stroke="red" fill="white" stroke-width="1" fill-opacity="0.0"/>
 <line x1="23.4926315789473683" y1="8.03157894736842105" x2="23.4926315789473683" y2="39.1052631578947368" style="stroke:red;stroke-width:1" />
 <line x1="23.4926315789473683" y1="39.1052631578947368" x2="19.703157894736842" y2="39.1052631578947368" style="stroke:red;stroke-width:1" />
 <line x1="19.703157894736842" y1="39.1052631578947368" x2="27.2821052631578946" y2="39.1052631578947368" style="stroke:red;stroke-width:1" />
 <line x1="27.2821052631578946" y1="39.1052631578947368" x2="23.4926315789473683" y2="39.1052631578947368" style="stroke:red;stroke-width:1" />
 <line x1="33.4210526315789473" y1="16.6715789473684209" x2="34.9368421052631578" y2="8.48631578947368421" style="stroke:red;stroke-width:1" />
 <line x1="34.9368421052631578" y1="8.48631578947368421" x2="38.1957894736842104" y2="8.48631578947368421" style="stroke:red;stroke-width:1" />
 <line x1="38.1957894736842104" y1="8.48631578947368421" x2="38.1957894736842104" y2="17.9599999999999999" style="stroke:red;stroke-width:1" />
 <line x1="38.1957894736842104" y1="17.9599999999999999" x2="33.4968421052631578" y2="16.6715789473684209" style="stroke:red;stroke-width:1" />
 <line x1="33.4968421052631578" y1="16.6715789473684209" x2="30.3894736842105262" y2="16.2168421052631578" style="stroke:red;stroke-width:1" />
 <line x1="30.3894736842105262" y1="16.2168421052631578" x2="27.3578947368421052" y2="16.1410526315789473" style="stroke:red;stroke-width:1" />
 <line x1="27.3578947368421052" y1="16.1410526315789473" x2="24.5536842105263157" y2="16.0652631578947367" style="stroke:red;stroke-width:1" />
 <line x1="24.5536842105263157" y1="16.0652631578947367" x2="20.3094736842105262" y2="16.2168421052631578" style="stroke:red;stroke-width:1" />
 <line x1="20.3094736842105262" y1="16.2168421052631578" x2="12.7305263157894736" y2="16.974736842105263" style="stroke:red;stroke-width:1" />
 <line x1="12.7305263157894736" y1="16.974736842105263" x2="12.1999999999999999" y2="16.823157894736842" style="stroke:red;stroke-width:1" />
 <line x1="12.1999999999999999" y1="16.823157894736842" x2="11.8210526315789472" y2="16.6715789473684209" style="stroke:red;stroke-width:1" />
 <line x1="11.8210526315789472" y1="16.6715789473684209" x2="11.214736842105263" y2="16.0652631578947367" style="stroke:red;stroke-width:1" />
 <line x1="11.214736842105263" y1="16.0652631578947367" x2="10.2294736842105263" y2="15.6105263157894736" style="stroke:red;stroke-width:1" />
 <line x1="10.2294736842105263" y1="15.6105263157894736" x2="9.24421052631578947" y2="15.383157894736842" style="stroke:red;stroke-width:1" />
 <line x1="9.24421052631578947" y1="15.383157894736842" x2="8.1831578947368421" y2="15.383157894736842" style="stroke:red;stroke-width:1" />
 <line x1="8.1831578947368421" y1="15.383157894736842" x2="7.57684210526315789" y2="15.534736842105263" style="stroke:red;stroke-width:1" />
 <line x1="7.57684210526315789" y1="15.534736842105263" x2="7.42526315789473684" y2="15.6863157894736841" style="stroke:red;stroke-width:1" />
 <line x1="7.42526315789473684" y1="15.6863157894736841" x2="7.42526315789473684" y2="15.9136842105263157" style="stroke:red;stroke-width:1" />
 <line x1="7.42526315789473684" y1="15.9136842105263157" x2="7.57684210526315789" y2="16.0652631578947367" style="stroke:red;stroke-width:1" />
 <line x1="7.57684210526315789" y1="16.0652631578947367" x2="8.03157894736842105" y2="16.1410526315789473" style="stroke:red;stroke-width:1" />
 <line x1="8.03157894736842105" y1="16.1410526315789473" x2="8.56210526315789474" y2="16.1410526315789473" style="stroke:red;stroke-width:1" />
 <line x1="8.56210526315789474" y1="16.1410526315789473" x2="9.69894736842105263" y2="16.2926315789473683" style="stroke:red;stroke-width:1" />
 <line x1="9.69894736842105263" y1="16.2926315789473683" x2="10.4568421052631579" y2="16.5957894736842104" style="stroke:red;stroke-width:1" />
 <line x1="10.4568421052631579" y1="16.5957894736842104" x2="11.2905263157894736" y2="17.2021052631578946" style="stroke:red;stroke-width:1" />
 <line x1="11.2905263157894736" y1="17.2021052631578946" x2="10.5326315789473684" y2="17.4294736842105262" style="stroke:red;stroke-width:1" />
 <line x1="10.5326315789473684" y1="17.4294736842105262" x2="9.62315789473684211" y2="17.5810526315789473" style="stroke:red;stroke-width:1" />
 <line x1="9.62315789473684211" y1="17.5810526315789473" x2="8.48631578947368421" y2="17.5052631578947367" style="stroke:red;stroke-width:1" />
 <line x1="8.48631578947368421" y1="17.5052631578947367" x2="7.50105263157894737" y2="17.4294736842105262" style="stroke:red;stroke-width:1" />
 <line x1="7.50105263157894737" y1="17.4294736842105262" x2="5.75789473684210526" y2="16.8989473684210525" style="stroke:red;stroke-width:1" />
 <line x1="5.75789473684210526" y1="16.8989473684210525" x2="5.3031578947368421" y2="16.823157894736842" style="stroke:red;stroke-width:1" />
 <line x1="5.3031578947368421" y1="16.823157894736842" x2="5.07578947368421052" y2="16.974736842105263" style="stroke:red;stroke-width:1" />
 <line x1="5.07578947368421052" y1="16.974736842105263" x2="5" y2="17.2021052631578946" style="stroke:red;stroke-width:1" />
 <line x1="5" y1="17.2021052631578946" x2="5.07578947368421052" y2="17.4294736842105262" style="stroke:red;stroke-width:1" />
 <line x1="5.07578947368421052" y1="17.4294736842105262" x2="5.37894736842105263" y2="17.7326315789473683" style="stroke:red;stroke-width:1" />
 <line x1="5.37894736842105263" y1="17.7326315789473683" x2="6.7431578947368421" y2="18.263157894736842" style="stroke:red;stroke-width:1" />
 <line x1="6.7431578947368421" y1="18.263157894736842" x2="8.1831578947368421" y2="18.4905263157894736" style="stroke:red;stroke-width:1" />
 <line x1="8.1831578947368421" y1="18.4905263157894736" x2="9.47157894736842105" y2="18.6421052631578946" style="stroke:red;stroke-width:1" />
 <line x1="9.47157894736842105" y1="18.6421052631578946" x2="10.4568421052631579" y2="18.414736842105263" style="stroke:red;stroke-width:1" />
 <line x1="10.4568421052631579" y1="18.414736842105263" x2="11.4421052631578946" y2="17.9599999999999999" style="stroke:red;stroke-width:1" />
 <line x1="11.4421052631578946" y1="17.9599999999999999" x2="38.1957894736842104" y2="17.9599999999999999" style="stroke:red;stroke-width:1" />
 <line x1="6.66736842105263158" y1="36.6799999999999999" x2="18.5663157894736841" y2="36.6799999999999999" style="stroke:red;stroke-width:1" />
 <path d="M 18.4905263157894735 36.6799999999999999
          A 5.91157894736842105 5.91157894736842105 0 1 0 6.66736842105263158 36.6799999999999999"
       stroke="red" fill="white" stroke-width="1" fill-opacity="0.0"/>
 <line x1="28.343157894736842" y1="30.2378947368421052" x2="33.1178947368421052" y2="37.6652631578947367" style="stroke:red;stroke-width:1" />
 <line x1="32.5873684210526315" y1="30.2378947368421052" x2="37.3621052631578946" y2="37.6652631578947367" style="stroke:red;stroke-width:1" />

</svg>
