<!DOCTYPE svg PUBLIC "-//W3C//DTD SVG 1.1//EN" "http://www.w3.org/Graphics/SVG/1.1/DTD/svg11.dtd">
<svg width="47" height="45" xmlns="http://www.w3.org/2000/svg">
 <!-- Gardiner/Zz376515 at (0,2) in red, scale=.08, mirror=0 -->
 <line x1="5" y1="32.68" x2="31.96" y2="32.68" style="stroke:red;stroke-width:1" />
 <line x1="31.96" y1="35.96" x2="5" y2="35.96" style="stroke:red;stroke-width:1" />
 <line x1="5" y1="39.24" x2="31.96" y2="39.24" style="stroke:red;stroke-width:1" />
 <line x1="8.28" y1="32.68" x2="8.28" y2="39.24" style="stroke:red;stroke-width:1" />
 <line x1="13.4" y1="32.68" x2="13.4" y2="39.24" style="stroke:red;stroke-width:1" />
 <line x1="18.52" y1="32.68" x2="18.52" y2="39.24" style="stroke:red;stroke-width:1" />
 <line x1="23.56" y1="32.68" x2="23.56" y2="39.24" style="stroke:red;stroke-width:1" />
 <line x1="28.68" y1="32.68" x2="28.68" y2="39.24" style="stroke:red;stroke-width:1" />
 <line x1="31.88" y1="19.16" x2="5" y2="19.16" style="stroke:red;stroke-width:1" />
 <line x1="9.08" y1="19.16" x2="8.6" y2="17.72" style="stroke:red;stroke-width:1" />
 <line x1="8.6" y1="17.72" x2="7.8" y2="16.52" style="stroke:red;stroke-width:1" />
 <line x1="7.8" y1="16.52" x2="6.6" y2="15.56" style="stroke:red;stroke-width:1" />
 <line x1="6.6" y1="15.56" x2="5.64" y2="15.56" style="stroke:red;stroke-width:1" />
 <line x1="5.64" y1="15.56" x2="5.08" y2="16.12" style="stroke:red;stroke-width:1" />
 <line x1="5.08" y1="16.12" x2="5" y2="16.84" style="stroke:red;stroke-width:1" />
 <line x1="5" y1="16.84" x2="5.24" y2="18.04" style="stroke:red;stroke-width:1" />
 <line x1="5.24" y1="18.04" x2="5.56" y2="19.16" style="stroke:red;stroke-width:1" />
 <line x1="5.56" y1="19.16" x2="6.68" y2="22.76" style="stroke:red;stroke-width:1" />
 <line x1="6.68" y1="22.76" x2="8.6" y2="22.76" style="stroke:red;stroke-width:1" />
 <line x1="8.6" y1="22.76" x2="9.08" y2="19.16" style="stroke:red;stroke-width:1" />
 <line x1="18.52" y1="19.16" x2="18.52" y2="32.84" style="stroke:red;stroke-width:1" />
 <line x1="14.12" y1="19.16" x2="18.52" y2="24.84" style="stroke:red;stroke-width:1" />
 <line x1="18.52" y1="19.16" x2="19.88" y2="20.92" style="stroke:red;stroke-width:1" />
 <line x1="19.88" y1="20.92" x2="20.76" y2="22.84" style="stroke:red;stroke-width:1" />
 <line x1="20.76" y1="22.84" x2="21.48" y2="24.68" style="stroke:red;stroke-width:1" />
 <line x1="21.48" y1="24.68" x2="21.72" y2="25.8" style="stroke:red;stroke-width:1" />
 <line x1="21.72" y1="25.8" x2="21.48" y2="26.52" style="stroke:red;stroke-width:1" />
 <line x1="21.48" y1="26.52" x2="21.08" y2="26.92" style="stroke:red;stroke-width:1" />
 <line x1="21.08" y1="26.92" x2="20.44" y2="27" style="stroke:red;stroke-width:1" />
 <line x1="20.44" y1="27" x2="19.96" y2="26.6" style="stroke:red;stroke-width:1" />
 <line x1="19.96" y1="26.6" x2="20.28" y2="27.88" style="stroke:red;stroke-width:1" />
 <line x1="20.28" y1="27.88" x2="20.44" y2="28.68" style="stroke:red;stroke-width:1" />
 <line x1="20.44" y1="28.68" x2="20.36" y2="29.32" style="stroke:red;stroke-width:1" />
 <line x1="20.36" y1="29.32" x2="19.72" y2="29.56" style="stroke:red;stroke-width:1" />
 <line x1="19.72" y1="29.56" x2="19.16" y2="29.24" style="stroke:red;stroke-width:1" />
 <line x1="19.16" y1="29.24" x2="18.52" y2="28.76" style="stroke:red;stroke-width:1" />
 <line x1="15.72" y1="13.24" x2="17.64" y2="13.88" style="stroke:red;stroke-width:1" />
 <line x1="17.64" y1="13.88" x2="20.04" y2="14.2" style="stroke:red;stroke-width:1" />
 <line x1="22.44" y1="14.28" x2="24.76" y2="13.8" style="stroke:red;stroke-width:1" />
 <line x1="24.76" y1="13.8" x2="26.92" y2="13.24" style="stroke:red;stroke-width:1" />
 <line x1="26.92" y1="13.24" x2="29.72" y2="12.76" style="stroke:red;stroke-width:1" />
 <line x1="29.72" y1="12.76" x2="30.92" y2="12.76" style="stroke:red;stroke-width:1" />
 <line x1="30.92" y1="12.76" x2="32.2" y2="12.92" style="stroke:red;stroke-width:1" />
 <line x1="32.2" y1="12.92" x2="33.16" y2="13.16" style="stroke:red;stroke-width:1" />
 <line x1="33.16" y1="13.16" x2="34.12" y2="13.64" style="stroke:red;stroke-width:1" />
 <line x1="34.12" y1="13.64" x2="35.16" y2="14.68" style="stroke:red;stroke-width:1" />
 <line x1="35.16" y1="14.68" x2="35.88" y2="15.64" style="stroke:red;stroke-width:1" />
 <line x1="35.88" y1="15.64" x2="36.52" y2="17.08" style="stroke:red;stroke-width:1" />
 <line x1="36.52" y1="17.08" x2="36.84" y2="18.6" style="stroke:red;stroke-width:1" />
 <line x1="36.84" y1="18.6" x2="36.76" y2="22.12" style="stroke:red;stroke-width:1" />
 <line x1="36.76" y1="22.12" x2="35.88" y2="27.48" style="stroke:red;stroke-width:1" />
 <line x1="35.88" y1="27.48" x2="34.68" y2="31.48" style="stroke:red;stroke-width:1" />
 <line x1="34.68" y1="31.48" x2="32.68" y2="37.4" style="stroke:red;stroke-width:1" />
 <line x1="32.68" y1="37.4" x2="33" y2="37.4" style="stroke:red;stroke-width:1" />
 <line x1="33" y1="37.4" x2="35.08" y2="34.92" style="stroke:red;stroke-width:1" />
 <line x1="35.08" y1="34.92" x2="36.44" y2="34.2" style="stroke:red;stroke-width:1" />
 <line x1="36.44" y1="34.2" x2="37.48" y2="34.2" style="stroke:red;stroke-width:1" />
 <line x1="37.48" y1="34.2" x2="39.16" y2="35.4" style="stroke:red;stroke-width:1" />
 <line x1="39.16" y1="35.4" x2="40.84" y2="37.4" style="stroke:red;stroke-width:1" />
 <line x1="40.84" y1="37.4" x2="41.16" y2="37.4" style="stroke:red;stroke-width:1" />
 <line x1="41.16" y1="37.4" x2="40.44" y2="34.28" style="stroke:red;stroke-width:1" />
 <line x1="40.44" y1="34.28" x2="39.88" y2="30.76" style="stroke:red;stroke-width:1" />
 <line x1="39.88" y1="30.76" x2="39.8" y2="26.12" style="stroke:red;stroke-width:1" />
 <line x1="39.8" y1="26.12" x2="39.4" y2="19.48" style="stroke:red;stroke-width:1" />
 <line x1="39.4" y1="19.48" x2="39.08" y2="17.56" style="stroke:red;stroke-width:1" />
 <line x1="39.08" y1="17.56" x2="38.44" y2="15.64" style="stroke:red;stroke-width:1" />
 <line x1="38.44" y1="15.64" x2="37.72" y2="14.28" style="stroke:red;stroke-width:1" />
 <line x1="37.72" y1="14.28" x2="36.76" y2="12.84" style="stroke:red;stroke-width:1" />
 <line x1="36.76" y1="12.84" x2="35.48" y2="11.48" style="stroke:red;stroke-width:1" />
 <line x1="35.48" y1="11.48" x2="33.96" y2="10.52" style="stroke:red;stroke-width:1" />
 <line x1="33.96" y1="10.52" x2="29.96" y2="8.68" style="stroke:red;stroke-width:1" />
 <line x1="29.96" y1="8.68" x2="26.84" y2="7.72" style="stroke:red;stroke-width:1" />
 <line x1="26.84" y1="7.72" x2="23.56" y2="7.08" style="stroke:red;stroke-width:1" />
 <line x1="23.56" y1="7.08" x2="21.24" y2="7" style="stroke:red;stroke-width:1" />
 <line x1="21.24" y1="7" x2="19.32" y2="7.16" style="stroke:red;stroke-width:1" />
 <line x1="19.32" y1="7.16" x2="18.28" y2="7.48" style="stroke:red;stroke-width:1" />
 <line x1="18.28" y1="7.48" x2="17.4" y2="7.88" style="stroke:red;stroke-width:1" />
 <line x1="17.4" y1="7.88" x2="16.04" y2="8.76" style="stroke:red;stroke-width:1" />
 <line x1="16.04" y1="8.76" x2="14.6" y2="8.92" style="stroke:red;stroke-width:1" />
 <line x1="14.6" y1="8.92" x2="13.56" y2="9.32" style="stroke:red;stroke-width:1" />
 <line x1="13.56" y1="9.32" x2="12.6" y2="9.8" style="stroke:red;stroke-width:1" />
 <line x1="12.6" y1="9.8" x2="11.8" y2="10.6" style="stroke:red;stroke-width:1" />
 <line x1="11.8" y1="10.6" x2="12.76" y2="11.24" style="stroke:red;stroke-width:1" />
 <line x1="12.76" y1="11.24" x2="12.2" y2="12.2" style="stroke:red;stroke-width:1" />
 <line x1="11.72" y1="10.76" x2="11.72" y2="10.92" style="stroke:red;stroke-width:1" />
 <line x1="11.72" y1="10.92" x2="12.2" y2="11.32" style="stroke:red;stroke-width:1" />
 <line x1="12.2" y1="11.32" x2="11.8" y2="11.72" style="stroke:red;stroke-width:1" />
 <line x1="11.8" y1="11.72" x2="11.72" y2="11.96" style="stroke:red;stroke-width:1" />
 <line x1="11.72" y1="11.96" x2="12.28" y2="12.36" style="stroke:red;stroke-width:1" />
 <line x1="12.28" y1="12.36" x2="13.64" y2="12.92" style="stroke:red;stroke-width:1" />
 <line x1="13.64" y1="12.92" x2="15.24" y2="13.16" style="stroke:red;stroke-width:1" />
 <line x1="15.24" y1="13.16" x2="15.8" y2="12.68" style="stroke:red;stroke-width:1" />
 <line x1="15.8" y1="12.68" x2="16.2" y2="11.64" style="stroke:red;stroke-width:1" />
 <line x1="16.2" y1="11.64" x2="16.36" y2="10.76" style="stroke:red;stroke-width:1" />
 <line x1="16.92" y1="10.84" x2="16.76" y2="11.88" style="stroke:red;stroke-width:1" />
 <line x1="16.76" y1="11.88" x2="16.36" y2="12.68" style="stroke:red;stroke-width:1" />
 <line x1="16.36" y1="12.68" x2="15.8" y2="13.24" style="stroke:red;stroke-width:1" />
 <line x1="15.8" y1="13.24" x2="15.32" y2="13.08" style="stroke:red;stroke-width:1" />
 <line x1="14.28" y1="10.52" x2="14.6" y2="10.44" style="stroke:red;stroke-width:1" />
 <line x1="14.6" y1="10.44" x2="14.6" y2="10.04" style="stroke:red;stroke-width:1" />
 <line x1="14.6" y1="10.04" x2="14.36" y2="9.8" style="stroke:red;stroke-width:1" />
 <line x1="14.36" y1="9.8" x2="14.04" y2="10.04" style="stroke:red;stroke-width:1" />
 <line x1="14.04" y1="10.04" x2="14.04" y2="10.36" style="stroke:red;stroke-width:1" />
 <line x1="14.04" y1="10.36" x2="14.44" y2="10.52" style="stroke:red;stroke-width:1" />
 <line x1="17.24" y1="11.88" x2="17.48" y2="11.4" style="stroke:red;stroke-width:1" />
 <line x1="17.48" y1="11.4" x2="17.48" y2="10.76" style="stroke:red;stroke-width:1" />
 <line x1="17.48" y1="10.76" x2="19.16" y2="10.6" style="stroke:red;stroke-width:1" />
 <line x1="19.16" y1="10.6" x2="20.28" y2="10.68" style="stroke:red;stroke-width:1" />
 <line x1="20.28" y1="10.68" x2="21.4" y2="11.08" style="stroke:red;stroke-width:1" />
 <line x1="21.4" y1="11.08" x2="22.84" y2="11.88" style="stroke:red;stroke-width:1" />
 <line x1="22.84" y1="11.88" x2="21.56" y2="12.28" style="stroke:red;stroke-width:1" />
 <line x1="21.56" y1="12.28" x2="19.56" y2="12.52" style="stroke:red;stroke-width:1" />
 <line x1="19.56" y1="12.52" x2="17.96" y2="12.28" style="stroke:red;stroke-width:1" />
 <line x1="17.96" y1="12.28" x2="17.32" y2="11.96" style="stroke:red;stroke-width:1" />
 <line x1="20.12" y1="14.28" x2="20.2" y2="13.72" style="stroke:red;stroke-width:1" />
 <line x1="20.2" y1="13.72" x2="20.92" y2="13.48" style="stroke:red;stroke-width:1" />
 <line x1="20.92" y1="13.48" x2="25.4" y2="15.8" style="stroke:red;stroke-width:1" />
 <line x1="25.4" y1="15.8" x2="23.72" y2="15.88" style="stroke:red;stroke-width:1" />
 <line x1="23.72" y1="15.88" x2="21.8" y2="15.16" style="stroke:red;stroke-width:1" />
 <line x1="21.8" y1="15.16" x2="20.04" y2="14.2" style="stroke:red;stroke-width:1" />
 <line x1="20.36" y1="13.8" x2="21.72" y2="14.52" style="stroke:red;stroke-width:1" />
 <line x1="21.72" y1="14.52" x2="23.4" y2="15.32" style="stroke:red;stroke-width:1" />
 <line x1="23.4" y1="15.32" x2="25.24" y2="15.72" style="stroke:red;stroke-width:1" />
 <line x1="20.76" y1="7" x2="22.44" y2="5.88" style="stroke:red;stroke-width:1" />
 <line x1="22.44" y1="5.88" x2="23.96" y2="5.24" style="stroke:red;stroke-width:1" />
 <line x1="23.96" y1="5.24" x2="26.04" y2="5" style="stroke:red;stroke-width:1" />
 <line x1="26.04" y1="5" x2="26.84" y2="5.16" style="stroke:red;stroke-width:1" />
 <line x1="26.84" y1="5.16" x2="25.8" y2="6.36" style="stroke:red;stroke-width:1" />
 <line x1="25.8" y1="6.36" x2="24.68" y2="7.24" style="stroke:red;stroke-width:1" />
 <line x1="23.56" y1="7.08" x2="25" y2="6.04" style="stroke:red;stroke-width:1" />
 <line x1="25" y1="6.04" x2="26.76" y2="5.24" style="stroke:red;stroke-width:1" />
 <line x1="26.84" y1="13.4" x2="27.64" y2="14.44" style="stroke:red;stroke-width:1" />
 <line x1="27.64" y1="14.44" x2="29.88" y2="14.04" style="stroke:red;stroke-width:1" />
 <line x1="29.88" y1="14.04" x2="31" y2="14.04" style="stroke:red;stroke-width:1" />
 <line x1="31" y1="14.04" x2="32.04" y2="14.12" style="stroke:red;stroke-width:1" />
 <line x1="32.04" y1="14.12" x2="33.8" y2="14.44" style="stroke:red;stroke-width:1" />
 <line x1="33.8" y1="14.44" x2="33.32" y2="13.24" style="stroke:red;stroke-width:1" />
 <line x1="35.16" y1="30.2" x2="36.12" y2="30.6" style="stroke:red;stroke-width:1" />
 <line x1="36.12" y1="30.6" x2="37.56" y2="30.76" style="stroke:red;stroke-width:1" />
 <line x1="37.56" y1="30.76" x2="38.68" y2="30.6" style="stroke:red;stroke-width:1" />
 <line x1="38.68" y1="30.6" x2="39.8" y2="30.28" style="stroke:red;stroke-width:1" />

</svg>
