<!DOCTYPE svg PUBLIC "-//W3C//DTD SVG 1.1//EN" "http://www.w3.org/Graphics/SVG/1.1/DTD/svg11.dtd">
<svg width="32" height="47" xmlns="http://www.w3.org/2000/svg">
 <!-- Gardiner/Zz376515 at (0,.7837837837837838) in red, scale=.0486486486486486484, mirror=0 -->
 <line x1="5" y1="35.7459459459459456" x2="26.8918918918918916" y2="35.7459459459459456" style="stroke:red;stroke-width:1" />
 <line x1="26.8918918918918916" y1="38.4216216216216213" x2="5" y2="38.4216216216216213" style="stroke:red;stroke-width:1" />
 <line x1="5" y1="41.097297297297297" x2="26.8918918918918916" y2="41.097297297297297" style="stroke:red;stroke-width:1" />
 <line x1="7.67567567567567566" y1="35.7459459459459456" x2="7.67567567567567566" y2="41.097297297297297" style="stroke:red;stroke-width:1" />
 <line x1="11.8108108108108107" y1="35.7459459459459456" x2="11.8108108108108107" y2="41.097297297297297" style="stroke:red;stroke-width:1" />
 <line x1="15.9459459459459458" y1="35.7459459459459456" x2="15.9459459459459458" y2="41.097297297297297" style="stroke:red;stroke-width:1" />
 <line x1="20.0810810810810809" y1="35.7459459459459456" x2="20.0810810810810809" y2="41.097297297297297" style="stroke:red;stroke-width:1" />
 <line x1="24.216216216216216" y1="35.7459459459459456" x2="24.216216216216216" y2="41.097297297297297" style="stroke:red;stroke-width:1" />
 <line x1="26.7945945945945943" y1="24.6054054054054052" x2="5" y2="24.6054054054054052" style="stroke:red;stroke-width:1" />
 <line x1="8.30810810810810809" y1="24.6054054054054052" x2="7.9189189189189189" y2="23.4378378378378376" style="stroke:red;stroke-width:1" />
 <line x1="7.9189189189189189" y1="23.4378378378378376" x2="7.28648648648648647" y2="22.4648648648648646" style="stroke:red;stroke-width:1" />
 <line x1="7.28648648648648647" y1="22.4648648648648646" x2="6.3135135135135135" y2="21.7351351351351349" style="stroke:red;stroke-width:1" />
 <line x1="6.3135135135135135" y1="21.7351351351351349" x2="5.53513513513513513" y2="21.7351351351351349" style="stroke:red;stroke-width:1" />
 <line x1="5.53513513513513513" y1="21.7351351351351349" x2="5.09729729729729729" y2="22.1729729729729727" style="stroke:red;stroke-width:1" />
 <line x1="5.09729729729729729" y1="22.1729729729729727" x2="5" y2="22.7567567567567565" style="stroke:red;stroke-width:1" />
 <line x1="5" y1="22.7567567567567565" x2="5.19459459459459459" y2="23.7297297297297295" style="stroke:red;stroke-width:1" />
 <line x1="5.19459459459459459" y1="23.7297297297297295" x2="5.48648648648648648" y2="24.6054054054054052" style="stroke:red;stroke-width:1" />
 <line x1="5.48648648648648648" y1="24.6054054054054052" x2="6.36216216216216215" y2="27.5243243243243241" style="stroke:red;stroke-width:1" />
 <line x1="6.36216216216216215" y1="27.5243243243243241" x2="7.9189189189189189" y2="27.5243243243243241" style="stroke:red;stroke-width:1" />
 <line x1="7.9189189189189189" y1="27.5243243243243241" x2="8.30810810810810809" y2="24.6054054054054052" style="stroke:red;stroke-width:1" />
 <line x1="15.9459459459459458" y1="24.6054054054054052" x2="15.9459459459459458" y2="35.7459459459459456" style="stroke:red;stroke-width:1" />
 <line x1="12.3945945945945945" y1="24.6054054054054052" x2="15.9459459459459458" y2="29.2270270270270268" style="stroke:red;stroke-width:1" />
 <line x1="15.9459459459459458" y1="24.6054054054054052" x2="17.0648648648648647" y2="26.0648648648648646" style="stroke:red;stroke-width:1" />
 <line x1="17.0648648648648647" y1="26.0648648648648646" x2="17.7945945945945944" y2="27.6216216216216214" style="stroke:red;stroke-width:1" />
 <line x1="17.7945945945945944" y1="27.6216216216216214" x2="18.3783783783783782" y2="29.0810810810810808" style="stroke:red;stroke-width:1" />
 <line x1="18.3783783783783782" y1="29.0810810810810808" x2="18.5729729729729728" y2="30.0054054054054051" style="stroke:red;stroke-width:1" />
 <line x1="18.5729729729729728" y1="30.0054054054054051" x2="18.3783783783783782" y2="30.5891891891891889" style="stroke:red;stroke-width:1" />
 <line x1="18.3783783783783782" y1="30.5891891891891889" x2="18.0378378378378376" y2="30.9297297297297295" style="stroke:red;stroke-width:1" />
 <line x1="18.0378378378378376" y1="30.9297297297297295" x2="17.5513513513513511" y2="30.9783783783783781" style="stroke:red;stroke-width:1" />
 <line x1="17.5513513513513511" y1="30.9783783783783781" x2="17.1135135135135133" y2="30.6864864864864862" style="stroke:red;stroke-width:1" />
 <line x1="17.1135135135135133" y1="30.6864864864864862" x2="17.4054054054054052" y2="31.7081081081081078" style="stroke:red;stroke-width:1" />
 <line x1="17.4054054054054052" y1="31.7081081081081078" x2="17.5027027027027025" y2="32.3405405405405403" style="stroke:red;stroke-width:1" />
 <line x1="17.5027027027027025" y1="32.3405405405405403" x2="17.4540540540540539" y2="32.8756756756756754" style="stroke:red;stroke-width:1" />
 <line x1="17.4540540540540539" y1="32.8756756756756754" x2="16.9675675675675674" y2="33.07027027027027" style="stroke:red;stroke-width:1" />
 <line x1="16.9675675675675674" y1="33.07027027027027" x2="16.4810810810810809" y2="32.8270270270270267" style="stroke:red;stroke-width:1" />
 <line x1="16.4810810810810809" y1="32.8270270270270267" x2="15.9459459459459458" y2="32.4378378378378376" style="stroke:red;stroke-width:1" />
 <line x1="9.76756756756756754" y1="7.87027027027027025" x2="8.55135135135135133" y2="7.87027027027027025" style="stroke:red;stroke-width:1" />
 <line x1="8.55135135135135133" y1="7.87027027027027025" x2="8.55135135135135133" y2="5" style="stroke:red;stroke-width:1" />
 <line x1="8.55135135135135133" y1="5" x2="10.9837837837837837" y2="5" style="stroke:red;stroke-width:1" />
 <line x1="10.9837837837837837" y1="5" x2="10.9837837837837837" y2="6.21621621621621621" style="stroke:red;stroke-width:1" />
 <line x1="13.4648648648648648" y1="6.21621621621621621" x2="13.4648648648648648" y2="5" style="stroke:red;stroke-width:1" />
 <line x1="13.4648648648648648" y1="5" x2="15.9459459459459458" y2="5" style="stroke:red;stroke-width:1" />
 <line x1="15.9459459459459458" y1="5" x2="15.9459459459459458" y2="7.87027027027027025" style="stroke:red;stroke-width:1" />
 <line x1="15.9459459459459458" y1="7.87027027027027025" x2="14.6810810810810809" y2="7.87027027027027025" style="stroke:red;stroke-width:1" />
 <line x1="14.6810810810810809" y1="13.2216216216216214" x2="15.9459459459459458" y2="13.2216216216216214" style="stroke:red;stroke-width:1" />
 <line x1="15.9459459459459458" y1="13.2216216216216214" x2="15.9459459459459458" y2="16.4810810810810809" style="stroke:red;stroke-width:1" />
 <line x1="15.9459459459459458" y1="16.4810810810810809" x2="14.6810810810810809" y2="16.4810810810810809" style="stroke:red;stroke-width:1" />
 <line x1="14.6810810810810809" y1="21.7837837837837836" x2="15.9459459459459458" y2="21.7837837837837836" style="stroke:red;stroke-width:1" />
 <line x1="15.9459459459459458" y1="21.7837837837837836" x2="15.9459459459459458" y2="24.7027027027027025" style="stroke:red;stroke-width:1" />
 <line x1="15.9459459459459458" y1="24.7027027027027025" x2="13.4648648648648648" y2="24.7027027027027025" style="stroke:red;stroke-width:1" />
 <line x1="13.4648648648648648" y1="24.7027027027027025" x2="13.4648648648648648" y2="23.4378378378378376" style="stroke:red;stroke-width:1" />
 <line x1="10.9837837837837837" y1="23.4378378378378376" x2="10.9837837837837837" y2="24.7027027027027025" style="stroke:red;stroke-width:1" />
 <line x1="10.9837837837837837" y1="24.7027027027027025" x2="8.55135135135135133" y2="24.7027027027027025" style="stroke:red;stroke-width:1" />
 <line x1="8.55135135135135133" y1="24.7027027027027025" x2="8.55135135135135133" y2="21.7837837837837836" style="stroke:red;stroke-width:1" />
 <line x1="8.55135135135135133" y1="21.7837837837837836" x2="9.76756756756756754" y2="21.7837837837837836" style="stroke:red;stroke-width:1" />
 <line x1="9.76756756756756754" y1="16.4810810810810809" x2="8.55135135135135133" y2="16.4810810810810809" style="stroke:red;stroke-width:1" />
 <line x1="8.55135135135135133" y1="16.4810810810810809" x2="8.55135135135135133" y2="13.2216216216216214" style="stroke:red;stroke-width:1" />
 <line x1="8.55135135135135133" y1="13.2216216216216214" x2="9.76756756756756754" y2="13.2216216216216214" style="stroke:red;stroke-width:1" />
 <line x1="9.76756756756756754" y1="13.2216216216216214" x2="9.76756756756756754" y2="6.21621621621621621" style="stroke:red;stroke-width:1" />
 <line x1="9.76756756756756754" y1="6.21621621621621621" x2="14.6810810810810809" y2="6.21621621621621621" style="stroke:red;stroke-width:1" />
 <line x1="14.6810810810810809" y1="6.21621621621621621" x2="14.6810810810810809" y2="23.4378378378378376" style="stroke:red;stroke-width:1" />
 <line x1="14.6810810810810809" y1="23.4378378378378376" x2="9.76756756756756754" y2="23.4378378378378376" style="stroke:red;stroke-width:1" />
 <line x1="9.76756756756756754" y1="23.4378378378378376" x2="9.76756756756756754" y2="13.2216216216216214" style="stroke:red;stroke-width:1" />
 <line x1="22.9513513513513511" y1="24.7027027027027025" x2="22.9513513513513511" y2="11.6162162162162161" style="stroke:red;stroke-width:1" />
 <line x1="22.9513513513513511" y1="11.6162162162162161" x2="23.1945945945945944" y2="11.081081081081081" style="stroke:red;stroke-width:1" />
 <line x1="23.1945945945945944" y1="11.081081081081081" x2="23.4864864864864863" y2="10.5459459459459459" style="stroke:red;stroke-width:1" />
 <line x1="23.4864864864864863" y1="10.5459459459459459" x2="24.4108108108108106" y2="9.71891891891891889" style="stroke:red;stroke-width:1" />
 <line x1="24.4108108108108106" y1="9.71891891891891889" x2="24.7513513513513511" y2="9.23243243243243241" style="stroke:red;stroke-width:1" />
 <line x1="24.7513513513513511" y1="9.23243243243243241" x2="25.0918918918918916" y2="8.64864864864864863" style="stroke:red;stroke-width:1" />
 <line x1="25.0918918918918916" y1="8.64864864864864863" x2="25.2378378378378376" y2="7.87027027027027025" style="stroke:red;stroke-width:1" />
 <line x1="25.2378378378378376" y1="7.87027027027027025" x2="25.1405405405405403" y2="7.23783783783783782" style="stroke:red;stroke-width:1" />
 <line x1="25.1405405405405403" y1="7.23783783783783782" x2="24.7999999999999998" y2="6.60540540540540539" style="stroke:red;stroke-width:1" />
 <line x1="24.7999999999999998" y1="6.60540540540540539" x2="24.3621621621621619" y2="6.16756756756756756" style="stroke:red;stroke-width:1" />
 <line x1="24.3621621621621619" y1="6.16756756756756756" x2="23.7783783783783781" y2="5.87567567567567567" style="stroke:red;stroke-width:1" />
 <line x1="23.7783783783783781" y1="5.87567567567567567" x2="23.3405405405405403" y2="5.77837837837837837" style="stroke:red;stroke-width:1" />
 <line x1="23.3405405405405403" y1="5.77837837837837837" x2="22.6108108108108106" y2="5.77837837837837837" style="stroke:red;stroke-width:1" />
 <line x1="22.6108108108108106" y1="5.77837837837837837" x2="22.2216216216216214" y2="5.87567567567567567" style="stroke:red;stroke-width:1" />
 <line x1="22.2216216216216214" y1="5.87567567567567567" x2="21.589189189189189" y2="6.16756756756756756" style="stroke:red;stroke-width:1" />
 <line x1="21.589189189189189" y1="6.16756756756756756" x2="21.1513513513513511" y2="6.60540540540540539" style="stroke:red;stroke-width:1" />
 <line x1="21.1513513513513511" y1="6.60540540540540539" x2="20.7621621621621619" y2="7.23783783783783782" style="stroke:red;stroke-width:1" />
 <line x1="20.7621621621621619" y1="7.23783783783783782" x2="20.7135135135135133" y2="7.87027027027027025" style="stroke:red;stroke-width:1" />
 <line x1="20.7135135135135133" y1="7.87027027027027025" x2="20.8108108108108106" y2="8.64864864864864863" style="stroke:red;stroke-width:1" />
 <line x1="20.8108108108108106" y1="8.64864864864864863" x2="21.1513513513513511" y2="9.23243243243243241" style="stroke:red;stroke-width:1" />
 <line x1="21.1513513513513511" y1="9.23243243243243241" x2="21.5405405405405403" y2="9.71891891891891889" style="stroke:red;stroke-width:1" />
 <line x1="21.5405405405405403" y1="9.71891891891891889" x2="22.4648648648648646" y2="10.5459459459459459" style="stroke:red;stroke-width:1" />
 <line x1="22.4648648648648646" y1="10.5459459459459459" x2="22.7567567567567565" y2="11.081081081081081" style="stroke:red;stroke-width:1" />
 <line x1="22.7567567567567565" y1="11.081081081081081" x2="22.9513513513513511" y2="11.6162162162162161" style="stroke:red;stroke-width:1" />
 <line x1="23.3405405405405403" y1="5.77837837837837837" x2="23.4864864864864863" y2="5" style="stroke:red;stroke-width:1" />
 <line x1="23.4864864864864863" y1="5" x2="22.4648648648648646" y2="5" style="stroke:red;stroke-width:1" />
 <line x1="22.4648648648648646" y1="5" x2="22.6108108108108106" y2="5.77837837837837837" style="stroke:red;stroke-width:1" />

</svg>
