<!DOCTYPE svg PUBLIC "-//W3C//DTD SVG 1.1//EN" "http://www.w3.org/Graphics/SVG/1.1/DTD/svg11.dtd">
<svg width="44" height="45" xmlns="http://www.w3.org/2000/svg">
 <!-- Gardiner/Zz376515 at (0,.10526315789473684) in red, scale=.0757894736842105264, mirror=0 -->
 <line x1="19.5515789473684209" y1="15.6863157894736842" x2="16.2926315789473683" y2="15.6863157894736842" style="stroke:red;stroke-width:1" />
 <line x1="16.2926315789473683" y1="15.6863157894736842" x2="15.9136842105263157" y2="15.7621052631578947" style="stroke:red;stroke-width:1" />
 <line x1="15.9136842105263157" y1="15.7621052631578947" x2="15.7621052631578946" y2="15.9894736842105263" style="stroke:red;stroke-width:1" />
 <line x1="15.7621052631578946" y1="15.9894736842105263" x2="15.6863157894736841" y2="16.4442105263157895" style="stroke:red;stroke-width:1" />
 <line x1="15.6863157894736841" y1="16.4442105263157895" x2="15.8378947368421051" y2="17.1263157894736842" style="stroke:red;stroke-width:1" />
 <line x1="15.8378947368421051" y1="17.1263157894736842" x2="16.0652631578947367" y2="17.8842105263157895" style="stroke:red;stroke-width:1" />
 <line x1="16.0652631578947367" y1="17.8842105263157895" x2="16.823157894736842" y2="19.0968421052631579" style="stroke:red;stroke-width:1" />
 <line x1="16.823157894736842" y1="19.0968421052631579" x2="17.8842105263157894" y2="20.3852631578947368" style="stroke:red;stroke-width:1" />
 <line x1="17.8842105263157894" y1="20.3852631578947368" x2="19.1726315789473683" y2="21.9010526315789474" style="stroke:red;stroke-width:1" />
 <line x1="19.1726315789473683" y1="21.9010526315789474" x2="20.4610526315789473" y2="23.2652631578947368" style="stroke:red;stroke-width:1" />
 <line x1="20.4610526315789473" y1="23.2652631578947368" x2="21.9768421052631578" y2="24.5536842105263158" style="stroke:red;stroke-width:1" />
 <line x1="21.9768421052631578" y1="24.5536842105263158" x2="23.7199999999999999" y2="25.9178947368421053" style="stroke:red;stroke-width:1" />
 <line x1="23.7199999999999999" y1="25.9178947368421053" x2="25.3115789473684209" y2="27.1305263157894737" style="stroke:red;stroke-width:1" />
 <line x1="25.3115789473684209" y1="27.1305263157894737" x2="27.4336842105263157" y2="28.4189473684210526" style="stroke:red;stroke-width:1" />
 <line x1="27.4336842105263157" y1="28.4189473684210526" x2="29.3284210526315788" y2="29.7073684210526316" style="stroke:red;stroke-width:1" />
 <line x1="29.3284210526315788" y1="29.7073684210526316" x2="30.9199999999999999" y2="30.7684210526315789" style="stroke:red;stroke-width:1" />
 <line x1="30.9199999999999999" y1="30.7684210526315789" x2="32.0568421052631578" y2="31.7536842105263158" style="stroke:red;stroke-width:1" />
 <line x1="32.0568421052631578" y1="31.7536842105263158" x2="33.3452631578947367" y2="32.8147368421052632" style="stroke:red;stroke-width:1" />
 <line x1="33.3452631578947367" y1="32.8147368421052632" x2="34.7094736842105262" y2="34.0273684210526316" style="stroke:red;stroke-width:1" />
 <line x1="34.7094736842105262" y1="34.0273684210526316" x2="35.9221052631578946" y2="35.1642105263157895" style="stroke:red;stroke-width:1" />
 <line x1="35.9221052631578946" y1="35.1642105263157895" x2="37.0589473684210525" y2="36.4526315789473684" style="stroke:red;stroke-width:1" />
 <line x1="37.0589473684210525" y1="36.4526315789473684" x2="36.6042105263157894" y2="35.088421052631579" style="stroke:red;stroke-width:1" />
 <line x1="36.6042105263157894" y1="35.088421052631579" x2="35.9221052631578946" y2="33.6484210526315789" style="stroke:red;stroke-width:1" />
 <line x1="35.9221052631578946" y1="33.6484210526315789" x2="35.1642105263157894" y2="31.9810526315789474" style="stroke:red;stroke-width:1" />
 <line x1="35.1642105263157894" y1="31.9810526315789474" x2="34.1789473684210525" y2="30.2378947368421053" style="stroke:red;stroke-width:1" />
 <line x1="34.1789473684210525" y1="30.2378947368421053" x2="33.1178947368421052" y2="28.5705263157894737" style="stroke:red;stroke-width:1" />
 <line x1="33.1178947368421052" y1="28.5705263157894737" x2="32.2084210526315788" y2="27.1305263157894737" style="stroke:red;stroke-width:1" />
 <line x1="32.2084210526315788" y1="27.1305263157894737" x2="31.3747368421052631" y2="25.7663157894736842" style="stroke:red;stroke-width:1" />
 <line x1="31.3747368421052631" y1="25.7663157894736842" x2="30.3894736842105262" y2="24.3263157894736842" style="stroke:red;stroke-width:1" />
 <line x1="30.3894736842105262" y1="24.3263157894736842" x2="29.2526315789473683" y2="23.1894736842105263" style="stroke:red;stroke-width:1" />
 <line x1="29.2526315789473683" y1="23.1894736842105263" x2="28.1915789473684209" y2="21.6736842105263158" style="stroke:red;stroke-width:1" />
 <line x1="28.1915789473684209" y1="21.6736842105263158" x2="26.7515789473684209" y2="20.0821052631578947" style="stroke:red;stroke-width:1" />
 <line x1="26.7515789473684209" y1="20.0821052631578947" x2="25.3115789473684209" y2="18.4905263157894737" style="stroke:red;stroke-width:1" />
 <line x1="25.3115789473684209" y1="18.4905263157894737" x2="24.174736842105263" y2="17.1263157894736842" style="stroke:red;stroke-width:1" />
 <line x1="24.174736842105263" y1="17.1263157894736842" x2="22.8863157894736841" y2="15.8378947368421052" style="stroke:red;stroke-width:1" />
 <line x1="22.8863157894736841" y1="15.8378947368421052" x2="21.7494736842105262" y2="14.7010526315789473" style="stroke:red;stroke-width:1" />
 <line x1="21.7494736842105262" y1="14.7010526315789473" x2="21.143157894736842" y2="13.9431578947368421" style="stroke:red;stroke-width:1" />
 <line x1="21.143157894736842" y1="13.9431578947368421" x2="20.5368421052631578" y2="13.3368421052631579" style="stroke:red;stroke-width:1" />
 <line x1="20.5368421052631578" y1="13.3368421052631579" x2="20.0063157894736841" y2="12.5789473684210526" style="stroke:red;stroke-width:1" />
 <line x1="20.0063157894736841" y1="12.5789473684210526" x2="19.5515789473684209" y2="11.5936842105263158" style="stroke:red;stroke-width:1" />
 <line x1="19.5515789473684209" y1="11.5936842105263158" x2="19.2484210526315788" y2="10.4568421052631579" style="stroke:red;stroke-width:1" />
 <line x1="19.2484210526315788" y1="10.4568421052631579" x2="19.0210526315789473" y2="9.24421052631578953" style="stroke:red;stroke-width:1" />
 <line x1="19.0210526315789473" y1="9.24421052631578953" x2="18.8694736842105262" y2="7.19789473684210532" style="stroke:red;stroke-width:1" />
 <line x1="18.8694736842105262" y1="7.19789473684210532" x2="18.7178947368421051" y2="5.00000000000000006" style="stroke:red;stroke-width:1" />
 <line x1="18.7178947368421051" y1="5.00000000000000006" x2="12.8821052631578946" y2="5.00000000000000006" style="stroke:red;stroke-width:1" />
 <line x1="12.8821052631578946" y1="5.00000000000000006" x2="12.7305263157894736" y2="5.22736842105263163" style="stroke:red;stroke-width:1" />
 <line x1="12.7305263157894736" y1="5.22736842105263163" x2="12.5789473684210525" y2="5.53052631578947374" style="stroke:red;stroke-width:1" />
 <line x1="12.5789473684210525" y1="5.53052631578947374" x2="12.1999999999999999" y2="5.68210526315789479" style="stroke:red;stroke-width:1" />
 <line x1="12.1999999999999999" y1="5.68210526315789479" x2="8.03157894736842105" y2="6.44000000000000006" style="stroke:red;stroke-width:1" />
 <line x1="8.03157894736842105" y1="6.44000000000000006" x2="7.42526315789473684" y2="6.59157894736842111" style="stroke:red;stroke-width:1" />
 <line x1="7.42526315789473684" y1="6.59157894736842111" x2="6.97052631578947368" y2="6.97052631578947374" style="stroke:red;stroke-width:1" />
 <line x1="6.97052631578947368" y1="6.97052631578947374" x2="6.51578947368421052" y2="7.4252631578947369" style="stroke:red;stroke-width:1" />
 <line x1="6.51578947368421052" y1="7.4252631578947369" x2="6.28842105263157894" y2="8.03157894736842111" style="stroke:red;stroke-width:1" />
 <line x1="6.28842105263157894" y1="8.03157894736842111" x2="6.13684210526315789" y2="8.63789473684210532" style="stroke:red;stroke-width:1" />
 <line x1="6.13684210526315789" y1="8.63789473684210532" x2="6.28842105263157894" y2="8.10736842105263164" style="stroke:red;stroke-width:1" />
 <line x1="6.28842105263157894" y1="8.10736842105263164" x2="6.59157894736842105" y2="7.88000000000000006" style="stroke:red;stroke-width:1" />
 <line x1="6.59157894736842105" y1="7.88000000000000006" x2="7.04631578947368421" y2="7.57684210526315795" style="stroke:red;stroke-width:1" />
 <line x1="7.04631578947368421" y1="7.57684210526315795" x2="7.42526315789473684" y2="7.50105263157894743" style="stroke:red;stroke-width:1" />
 <line x1="7.42526315789473684" y1="7.50105263157894743" x2="11.8968421052631578" y2="7.50105263157894743" style="stroke:red;stroke-width:1" />
 <line x1="11.8968421052631578" y1="7.50105263157894743" x2="12.1242105263157894" y2="7.65263157894736848" style="stroke:red;stroke-width:1" />
 <line x1="12.1242105263157894" y1="7.65263157894736848" x2="12.503157894736842" y2="7.80421052631578953" style="stroke:red;stroke-width:1" />
 <line x1="12.503157894736842" y1="7.80421052631578953" x2="12.654736842105263" y2="7.95578947368421058" style="stroke:red;stroke-width:1" />
 <line x1="12.654736842105263" y1="7.95578947368421058" x2="12.7305263157894736" y2="8.25894736842105269" style="stroke:red;stroke-width:1" />
 <line x1="12.7305263157894736" y1="8.25894736842105269" x2="12.8063157894736841" y2="9.01684210526315795" style="stroke:red;stroke-width:1" />
 <line x1="12.8063157894736841" y1="9.01684210526315795" x2="12.8063157894736841" y2="10.2294736842105263" style="stroke:red;stroke-width:1" />
 <line x1="12.8063157894736841" y1="10.2294736842105263" x2="12.7305263157894736" y2="11.4421052631578947" style="stroke:red;stroke-width:1" />
 <line x1="12.7305263157894736" y1="11.4421052631578947" x2="12.5789473684210525" y2="12.8821052631578947" style="stroke:red;stroke-width:1" />
 <line x1="12.5789473684210525" y1="12.8821052631578947" x2="12.5789473684210525" y2="14.3978947368421052" style="stroke:red;stroke-width:1" />
 <line x1="12.5789473684210525" y1="14.3978947368421052" x2="12.7305263157894736" y2="15.8378947368421052" style="stroke:red;stroke-width:1" />
 <line x1="12.7305263157894736" y1="15.8378947368421052" x2="12.8821052631578946" y2="16.8989473684210526" style="stroke:red;stroke-width:1" />
 <line x1="12.8821052631578946" y1="16.8989473684210526" x2="13.3368421052631578" y2="17.8842105263157895" style="stroke:red;stroke-width:1" />
 <line x1="13.3368421052631578" y1="17.8842105263157895" x2="13.5642105263157894" y2="18.7178947368421052" style="stroke:red;stroke-width:1" />
 <line x1="13.5642105263157894" y1="18.7178947368421052" x2="13.943157894736842" y2="19.6273684210526316" style="stroke:red;stroke-width:1" />
 <line x1="13.943157894736842" y1="19.6273684210526316" x2="15.7621052631578946" y2="22.3557894736842105" style="stroke:red;stroke-width:1" />
 <line x1="15.7621052631578946" y1="22.3557894736842105" x2="17.1263157894736841" y2="24.5536842105263158" style="stroke:red;stroke-width:1" />
 <line x1="17.1263157894736841" y1="24.5536842105263158" x2="18.1115789473684209" y2="26.2968421052631579" style="stroke:red;stroke-width:1" />
 <line x1="18.1115789473684209" y1="26.2968421052631579" x2="19.0210526315789473" y2="27.8884210526315789" style="stroke:red;stroke-width:1" />
 <line x1="19.0210526315789473" y1="27.8884210526315789" x2="19.7789473684210525" y2="29.5557894736842105" style="stroke:red;stroke-width:1" />
 <line x1="19.7789473684210525" y1="29.5557894736842105" x2="20.4610526315789473" y2="31.1473684210526316" style="stroke:red;stroke-width:1" />
 <line x1="20.4610526315789473" y1="31.1473684210526316" x2="20.9157894736842104" y2="32.6631578947368421" style="stroke:red;stroke-width:1" />
 <line x1="20.9157894736842104" y1="32.6631578947368421" x2="24.174736842105263" y2="33.8757894736842105" style="stroke:red;stroke-width:1" />
 <line x1="24.174736842105263" y1="33.8757894736842105" x2="24.4778947368421052" y2="32.8905263157894737" style="stroke:red;stroke-width:1" />
 <line x1="24.4778947368421052" y1="32.8905263157894737" x2="24.8568421052631578" y2="31.9052631578947368" style="stroke:red;stroke-width:1" />
 <line x1="24.8568421052631578" y1="31.9052631578947368" x2="25.0084210526315788" y2="30.6926315789473684" style="stroke:red;stroke-width:1" />
 <line x1="25.0084210526315788" y1="30.6926315789473684" x2="25.1599999999999999" y2="29.1768421052631579" style="stroke:red;stroke-width:1" />
 <line x1="25.1599999999999999" y1="29.1768421052631579" x2="25.2357894736842104" y2="27.2821052631578947" style="stroke:red;stroke-width:1" />
 <line x1="25.2357894736842104" y1="27.2821052631578947" x2="25.9936842105263157" y2="28.8736842105263158" style="stroke:red;stroke-width:1" />
 <line x1="25.9936842105263157" y1="28.8736842105263158" x2="26.6757894736842104" y2="30.3894736842105263" style="stroke:red;stroke-width:1" />
 <line x1="26.6757894736842104" y1="30.3894736842105263" x2="27.4336842105263157" y2="31.9052631578947368" style="stroke:red;stroke-width:1" />
 <line x1="27.4336842105263157" y1="31.9052631578947368" x2="28.343157894736842" y2="33.4968421052631579" style="stroke:red;stroke-width:1" />
 <line x1="28.343157894736842" y1="33.4968421052631579" x2="29.4799999999999999" y2="34.9368421052631579" style="stroke:red;stroke-width:1" />
 <line x1="29.4799999999999999" y1="34.9368421052631579" x2="30.6168421052631578" y2="36.1494736842105263" style="stroke:red;stroke-width:1" />
 <line x1="30.6168421052631578" y1="36.1494736842105263" x2="31.7536842105263157" y2="37.2863157894736842" style="stroke:red;stroke-width:1" />
 <line x1="31.7536842105263157" y1="37.2863157894736842" x2="33.1178947368421052" y2="38.1957894736842105" style="stroke:red;stroke-width:1" />
 <line x1="33.1178947368421052" y1="38.1957894736842105" x2="34.4821052631578946" y2="38.8778947368421053" style="stroke:red;stroke-width:1" />
 <line x1="34.4821052631578946" y1="38.8778947368421053" x2="35.3157894736842104" y2="38.9536842105263158" style="stroke:red;stroke-width:1" />
 <line x1="35.3157894736842104" y1="38.9536842105263158" x2="35.9221052631578946" y2="38.8778947368421053" style="stroke:red;stroke-width:1" />
 <line x1="35.9221052631578946" y1="38.8778947368421053" x2="36.3768421052631578" y2="38.4989473684210526" style="stroke:red;stroke-width:1" />
 <line x1="36.3768421052631578" y1="38.4989473684210526" x2="36.4526315789473683" y2="38.12" style="stroke:red;stroke-width:1" />
 <line x1="36.4526315789473683" y1="38.12" x2="36.4526315789473683" y2="37.5136842105263158" style="stroke:red;stroke-width:1" />
 <line x1="36.4526315789473683" y1="37.5136842105263158" x2="35.9978947368421052" y2="36.8315789473684211" style="stroke:red;stroke-width:1" />
 <line x1="35.9978947368421052" y1="36.8315789473684211" x2="35.391578947368421" y2="35.9221052631578947" style="stroke:red;stroke-width:1" />
 <line x1="35.391578947368421" y1="35.9221052631578947" x2="34.6336842105263157" y2="34.7094736842105263" style="stroke:red;stroke-width:1" />
 <line x1="34.6336842105263157" y1="34.7094736842105263" x2="33.8757894736842104" y2="33.5726315789473684" style="stroke:red;stroke-width:1" />
 <line x1="33.8757894736842104" y1="33.5726315789473684" x2="33.0421052631578946" y2="32.6631578947368421" style="stroke:red;stroke-width:1" />
 <line x1="27.5094736842105262" y1="39.0294736842105263" x2="27.4336842105263157" y2="38.8021052631578947" style="stroke:red;stroke-width:1" />
 <line x1="27.4336842105263157" y1="38.8021052631578947" x2="27.2821052631578946" y2="38.4989473684210526" style="stroke:red;stroke-width:1" />
 <line x1="27.2821052631578946" y1="38.4989473684210526" x2="27.0547368421052631" y2="38.3473684210526316" style="stroke:red;stroke-width:1" />
 <line x1="27.0547368421052631" y1="38.3473684210526316" x2="26.7515789473684209" y2="38.1957894736842105" style="stroke:red;stroke-width:1" />
 <line x1="26.7515789473684209" y1="38.1957894736842105" x2="24.4778947368421052" y2="38.3473684210526316" style="stroke:red;stroke-width:1" />
 <line x1="24.4778947368421052" y1="38.3473684210526316" x2="22.2042105263157894" y2="38.4231578947368421" style="stroke:red;stroke-width:1" />
 <line x1="22.2042105263157894" y1="38.4231578947368421" x2="19.854736842105263" y2="38.3473684210526316" style="stroke:red;stroke-width:1" />
 <line x1="19.854736842105263" y1="38.3473684210526316" x2="16.974736842105263" y2="38.3473684210526316" style="stroke:red;stroke-width:1" />
 <line x1="16.974736842105263" y1="38.3473684210526316" x2="13.8673684210526315" y2="38.3473684210526316" style="stroke:red;stroke-width:1" />
 <line x1="13.8673684210526315" y1="38.3473684210526316" x2="11.3663157894736841" y2="38.3473684210526316" style="stroke:red;stroke-width:1" />
 <line x1="11.3663157894736841" y1="38.3473684210526316" x2="8.78947368421052632" y2="38.1957894736842105" style="stroke:red;stroke-width:1" />
 <line x1="8.78947368421052632" y1="38.1957894736842105" x2="5.98526315789473684" y2="38.12" style="stroke:red;stroke-width:1" />
 <line x1="5.98526315789473684" y1="38.12" x2="5.68210526315789473" y2="38.1957894736842105" style="stroke:red;stroke-width:1" />
 <line x1="5.68210526315789473" y1="38.1957894736842105" x2="5.3031578947368421" y2="38.4231578947368421" style="stroke:red;stroke-width:1" />
 <line x1="5.3031578947368421" y1="38.4231578947368421" x2="5.07578947368421052" y2="38.7263157894736842" style="stroke:red;stroke-width:1" />
 <line x1="5.07578947368421052" y1="38.7263157894736842" x2="5" y2="39.1052631578947369" style="stroke:red;stroke-width:1" />
 <line x1="19.9305263157894736" y1="38.3473684210526316" x2="20.3094736842105262" y2="36.4526315789473684" style="stroke:red;stroke-width:1" />
 <line x1="20.3094736842105262" y1="36.4526315789473684" x2="20.6126315789473683" y2="34.7094736842105263" style="stroke:red;stroke-width:1" />
 <line x1="20.6126315789473683" y1="34.7094736842105263" x2="20.9157894736842104" y2="32.6631578947368421" style="stroke:red;stroke-width:1" />
 <line x1="19.7789473684210525" y1="29.5557894736842105" x2="19.2484210526315788" y2="33.1936842105263158" style="stroke:red;stroke-width:1" />
 <line x1="19.2484210526315788" y1="33.1936842105263158" x2="18.3389473684210525" y2="32.6631578947368421" style="stroke:red;stroke-width:1" />
 <line x1="18.3389473684210525" y1="32.6631578947368421" x2="17.2778947368421051" y2="32.2084210526315789" style="stroke:red;stroke-width:1" />
 <line x1="17.2778947368421051" y1="32.2084210526315789" x2="16.4442105263157894" y2="32.0568421052631579" style="stroke:red;stroke-width:1" />
 <line x1="16.4442105263157894" y1="32.0568421052631579" x2="15.1557894736842104" y2="32.1326315789473684" style="stroke:red;stroke-width:1" />
 <line x1="13.7915789473684209" y1="38.3473684210526316" x2="14.3221052631578946" y2="36.2252631578947368" style="stroke:red;stroke-width:1" />
 <line x1="14.3221052631578946" y1="36.2252631578947368" x2="14.9284210526315788" y2="34.1789473684210526" style="stroke:red;stroke-width:1" />
 <line x1="14.9284210526315788" y1="34.1789473684210526" x2="15.1557894736842104" y2="32.1326315789473684" style="stroke:red;stroke-width:1" />
 <line x1="15.1557894736842104" y1="32.1326315789473684" x2="15.383157894736842" y2="30.6926315789473684" style="stroke:red;stroke-width:1" />
 <line x1="15.383157894736842" y1="30.6926315789473684" x2="15.534736842105263" y2="29.0252631578947368" style="stroke:red;stroke-width:1" />
 <line x1="15.534736842105263" y1="29.0252631578947368" x2="15.6105263157894736" y2="27.5094736842105263" style="stroke:red;stroke-width:1" />
 <line x1="15.6105263157894736" y1="27.5094736842105263" x2="15.534736842105263" y2="25.7663157894736842" style="stroke:red;stroke-width:1" />
 <line x1="15.534736842105263" y1="25.7663157894736842" x2="15.3073684210526315" y2="24.0989473684210526" style="stroke:red;stroke-width:1" />
 <line x1="15.3073684210526315" y1="24.0989473684210526" x2="15.0799999999999999" y2="22.5073684210526316" style="stroke:red;stroke-width:1" />
 <line x1="15.0799999999999999" y1="22.5073684210526316" x2="14.6252631578947367" y2="20.9157894736842105" style="stroke:red;stroke-width:1" />
 <line x1="14.6252631578947367" y1="20.9157894736842105" x2="13.943157894736842" y2="19.551578947368421" style="stroke:red;stroke-width:1" />
 <path d="M 14.3221052631578947 14.7768421052631579
          A .454736842105263158 .454736842105263158 0 1 0 15.2315789473684209 14.7768421052631579
          A .454736842105263158 .454736842105263158 0 1 0 14.3221052631578947 14.7768421052631579"
       stroke="red" fill="white" stroke-width="1" fill-opacity="0.0"/>
 <line x1="23.1894736842105262" y1="12.8821052631578947" x2="38.9536842105263157" y2="12.8821052631578947" style="stroke:red;stroke-width:1" />
 <path d="M 38.9536842105263157 12.8821052631578947
          A 7.88210526315789474 7.88210526315789474 0 1 0 23.1894736842105263 12.8821052631578947"
       stroke="red" fill="white" stroke-width="1" fill-opacity="0.0"/>

</svg>
