<!DOCTYPE svg PUBLIC "-//W3C//DTD SVG 1.1//EN" "http://www.w3.org/Graphics/SVG/1.1/DTD/svg11.dtd">
<svg width="37" height="46" xmlns="http://www.w3.org/2000/svg">
 <!-- Gardiner/Zz376515 at (0,.39285714285714286) in green, scale=.0642857142857142856, mirror=0 -->
 <line x1="19.0785714285714284" y1="40.9999999999999998" x2="31.4214285714285713" y2="40.9999999999999998" style="stroke:green;stroke-width:1" />
 <line x1="31.4214285714285713" y1="40.9999999999999998" x2="31.4214285714285713" y2="33.7999999999999998" style="stroke:green;stroke-width:1" />
 <line x1="31.4214285714285713" y1="33.7999999999999998" x2="30.8428571428571427" y2="33.2214285714285713" style="stroke:green;stroke-width:1" />
 <line x1="30.8428571428571427" y1="33.2214285714285713" x2="30.1357142857142856" y2="33.0285714285714284" style="stroke:green;stroke-width:1" />
 <line x1="30.1357142857142856" y1="33.0285714285714284" x2="29.3642857142857141" y2="33.3499999999999998" style="stroke:green;stroke-width:1" />
 <line x1="29.3642857142857141" y1="33.3499999999999998" x2="28.207142857142857" y2="34.507142857142857" style="stroke:green;stroke-width:1" />
 <line x1="28.207142857142857" y1="34.507142857142857" x2="27.1785714285714284" y2="35.7928571428571427" style="stroke:green;stroke-width:1" />
 <line x1="27.1785714285714284" y1="35.7928571428571427" x2="25.957142857142857" y2="36.8214285714285713" style="stroke:green;stroke-width:1" />
 <line x1="25.957142857142857" y1="36.8214285714285713" x2="24.6714285714285713" y2="37.3999999999999998" style="stroke:green;stroke-width:1" />
 <line x1="24.6714285714285713" y1="37.3999999999999998" x2="23.6428571428571427" y2="37.4642857142857141" style="stroke:green;stroke-width:1" />
 <line x1="23.6428571428571427" y1="37.4642857142857141" x2="22.6142857142857141" y2="37.1428571428571427" style="stroke:green;stroke-width:1" />
 <line x1="22.6142857142857141" y1="37.1428571428571427" x2="21.907142857142857" y2="35.9857142857142855" style="stroke:green;stroke-width:1" />
 <line x1="21.907142857142857" y1="35.9857142857142855" x2="21.1357142857142856" y2="34.6357142857142856" style="stroke:green;stroke-width:1" />
 <line x1="21.1357142857142856" y1="34.6357142857142856" x2="19.9785714285714284" y2="33.4785714285714284" style="stroke:green;stroke-width:1" />
 <line x1="19.9785714285714284" y1="33.4785714285714284" x2="18.9499999999999999" y2="33.157142857142857" style="stroke:green;stroke-width:1" />
 <line x1="19.0785714285714284" y1="40.9999999999999998" x2="6.79999999999999999" y2="40.9357142857142855" style="stroke:green;stroke-width:1" />
 <line x1="6.79999999999999999" y1="40.9357142857142855" x2="6.73571428571428571" y2="33.7999999999999998" style="stroke:green;stroke-width:1" />
 <line x1="6.73571428571428571" y1="33.7999999999999998" x2="7.24999999999999999" y2="33.2214285714285713" style="stroke:green;stroke-width:1" />
 <line x1="7.24999999999999999" y1="33.2214285714285713" x2="7.95714285714285713" y2="33.0285714285714284" style="stroke:green;stroke-width:1" />
 <line x1="7.95714285714285713" y1="33.0285714285714284" x2="8.79285714285714285" y2="33.3499999999999998" style="stroke:green;stroke-width:1" />
 <line x1="8.79285714285714285" y1="33.3499999999999998" x2="9.8857142857142857" y2="34.507142857142857" style="stroke:green;stroke-width:1" />
 <line x1="9.8857142857142857" y1="34.507142857142857" x2="10.9142857142857142" y2="35.7928571428571427" style="stroke:green;stroke-width:1" />
 <line x1="10.9142857142857142" y1="35.7928571428571427" x2="12.1999999999999999" y2="36.8214285714285713" style="stroke:green;stroke-width:1" />
 <line x1="12.1999999999999999" y1="36.8214285714285713" x2="13.4857142857142856" y2="37.3999999999999998" style="stroke:green;stroke-width:1" />
 <line x1="13.4857142857142856" y1="37.3999999999999998" x2="14.5142857142857142" y2="37.4642857142857141" style="stroke:green;stroke-width:1" />
 <line x1="14.5142857142857142" y1="37.4642857142857141" x2="15.5428571428571427" y2="37.1428571428571427" style="stroke:green;stroke-width:1" />
 <line x1="15.5428571428571427" y1="37.1428571428571427" x2="16.1857142857142856" y2="35.9857142857142855" style="stroke:green;stroke-width:1" />
 <line x1="16.1857142857142856" y1="35.9857142857142855" x2="17.0214285714285713" y2="34.6357142857142856" style="stroke:green;stroke-width:1" />
 <line x1="17.0214285714285713" y1="34.6357142857142856" x2="18.1785714285714284" y2="33.4785714285714284" style="stroke:green;stroke-width:1" />
 <line x1="18.1785714285714284" y1="33.4785714285714284" x2="19.207142857142857" y2="33.157142857142857" style="stroke:green;stroke-width:1" />
 <line x1="20.8785714285714284" y1="34.2499999999999998" x2="12.3285714285714285" y2="10.4642857142857142" style="stroke:green;stroke-width:1" />
 <line x1="12.3285714285714285" y1="10.4642857142857142" x2="11.4928571428571428" y2="8.79285714285714285" style="stroke:green;stroke-width:1" />
 <line x1="11.4928571428571428" y1="8.79285714285714285" x2="10.5928571428571428" y2="7.37857142857142856" style="stroke:green;stroke-width:1" />
 <line x1="10.5928571428571428" y1="7.37857142857142856" x2="9.69285714285714284" y2="6.34999999999999999" style="stroke:green;stroke-width:1" />
 <line x1="9.69285714285714284" y1="6.34999999999999999" x2="8.66428571428571427" y2="5.64285714285714285" style="stroke:green;stroke-width:1" />
 <line x1="8.66428571428571427" y1="5.64285714285714285" x2="7.6357142857142857" y2="5.19285714285714285" style="stroke:green;stroke-width:1" />
 <line x1="7.6357142857142857" y1="5.19285714285714285" x2="6.60714285714285714" y2="5.32142857142857142" style="stroke:green;stroke-width:1" />
 <line x1="6.60714285714285714" y1="5.32142857142857142" x2="5.77142857142857142" y2="5.57857142857142857" style="stroke:green;stroke-width:1" />
 <line x1="5.77142857142857142" y1="5.57857142857142857" x2="5.19285714285714285" y2="6.15714285714285714" style="stroke:green;stroke-width:1" />
 <line x1="5.19285714285714285" y1="6.15714285714285714" x2="5" y2="6.67142857142857142" style="stroke:green;stroke-width:1" />
 <line x1="5" y1="6.67142857142857142" x2="5" y2="7.37857142857142856" style="stroke:green;stroke-width:1" />
 <line x1="5" y1="7.37857142857142856" x2="5.32142857142857142" y2="7.95714285714285713" style="stroke:green;stroke-width:1" />
 <line x1="5.32142857142857142" y1="7.95714285714285713" x2="5.89999999999999999" y2="8.5357142857142857" style="stroke:green;stroke-width:1" />
 <line x1="5.89999999999999999" y1="8.5357142857142857" x2="6.02857142857142856" y2="8.40714285714285713" style="stroke:green;stroke-width:1" />
 <line x1="6.02857142857142856" y1="8.40714285714285713" x2="6.79999999999999999" y2="8.79285714285714285" style="stroke:green;stroke-width:1" />
 <line x1="6.79999999999999999" y1="8.79285714285714285" x2="7.50714285714285713" y2="9.4357142857142857" style="stroke:green;stroke-width:1" />
 <line x1="7.50714285714285713" y1="9.4357142857142857" x2="7.95714285714285713" y2="10.4642857142857142" style="stroke:green;stroke-width:1" />
 <line x1="7.95714285714285713" y1="10.4642857142857142" x2="8.40714285714285713" y2="11.8785714285714285" style="stroke:green;stroke-width:1" />
 <line x1="8.40714285714285713" y1="11.8785714285714285" x2="8.5357142857142857" y2="13.6785714285714284" style="stroke:green;stroke-width:1" />
 <line x1="8.5357142857142857" y1="13.6785714285714284" x2="8.66428571428571427" y2="15.607142857142857" style="stroke:green;stroke-width:1" />
 <line x1="8.66428571428571427" y1="15.607142857142857" x2="8.5357142857142857" y2="18.1142857142857142" style="stroke:green;stroke-width:1" />
 <line x1="8.5357142857142857" y1="18.1142857142857142" x2="8.85714285714285713" y2="18.8214285714285713" style="stroke:green;stroke-width:1" />
 <line x1="8.85714285714285713" y1="18.8214285714285713" x2="10.3357142857142857" y2="19.8499999999999999" style="stroke:green;stroke-width:1" />
 <line x1="10.3357142857142857" y1="19.8499999999999999" x2="11.9428571428571428" y2="21.007142857142857" style="stroke:green;stroke-width:1" />
 <line x1="11.9428571428571428" y1="21.007142857142857" x2="13.4857142857142856" y2="22.4857142857142856" style="stroke:green;stroke-width:1" />
 <line x1="13.4857142857142856" y1="22.4857142857142856" x2="14.707142857142857" y2="23.9642857142857141" style="stroke:green;stroke-width:1" />
 <line x1="14.707142857142857" y1="23.9642857142857141" x2="15.8642857142857142" y2="25.957142857142857" style="stroke:green;stroke-width:1" />
 <line x1="15.8642857142857142" y1="25.957142857142857" x2="16.8928571428571427" y2="28.0142857142857141" style="stroke:green;stroke-width:1" />
 <line x1="16.8928571428571427" y1="28.0142857142857141" x2="17.4714285714285713" y2="29.6857142857142856" style="stroke:green;stroke-width:1" />
 <line x1="17.4714285714285713" y1="29.6857142857142856" x2="17.9214285714285713" y2="31.4214285714285713" style="stroke:green;stroke-width:1" />
 <line x1="17.9214285714285713" y1="31.4214285714285713" x2="18.3714285714285713" y2="33.3499999999999998" style="stroke:green;stroke-width:1" />
 <line x1="31.4214285714285713" y1="22.0357142857142856" x2="19.4642857142857142" y2="22.0357142857142856" style="stroke:green;stroke-width:1" />
 <path d="M 31.4214285714285712 22.0357142857142856
          A 5.97857142857142856 5.97857142857142856 0 1 0 19.4642857142857142 22.0357142857142856"
       stroke="green" fill="white" stroke-width="1" fill-opacity="0.0"/>
 <line x1="31.4214285714285713" y1="11.7499999999999999" x2="17.6642857142857142" y2="11.7499999999999999" style="stroke:green;stroke-width:1" />
 <path d="M 31.2928571428571426 11.7499999999999999
          A 6.74999999999999998 6.74999999999999998 0 1 0 17.7928571428571428 11.7499999999999999"
       stroke="green" fill="white" stroke-width="1" fill-opacity="0.0"/>

</svg>
