<!DOCTYPE svg PUBLIC "-//W3C//DTD SVG 1.1//EN" "http://www.w3.org/Graphics/SVG/1.1/DTD/svg11.dtd">
<svg width="36" height="47" xmlns="http://www.w3.org/2000/svg">
 <!-- Gardiner/Zz376515 at (0,.59375) in green, scale=.05625, mirror=0 -->
 <line x1="5.16875" y1="34.98125" x2="30.48125" y2="34.98125" style="stroke:green;stroke-width:1" />
 <line x1="30.48125" y1="38.075" x2="5.16875" y2="38.075" style="stroke:green;stroke-width:1" />
 <line x1="5.16875" y1="41.16875" x2="30.48125" y2="41.16875" style="stroke:green;stroke-width:1" />
 <line x1="8.2625" y1="34.98125" x2="8.2625" y2="41.16875" style="stroke:green;stroke-width:1" />
 <line x1="13.04375" y1="34.98125" x2="13.04375" y2="41.16875" style="stroke:green;stroke-width:1" />
 <line x1="17.825" y1="34.98125" x2="17.825" y2="41.16875" style="stroke:green;stroke-width:1" />
 <line x1="22.60625" y1="34.98125" x2="22.60625" y2="41.16875" style="stroke:green;stroke-width:1" />
 <line x1="27.3875" y1="34.98125" x2="27.3875" y2="41.16875" style="stroke:green;stroke-width:1" />
 <line x1="30.36875" y1="22.1" x2="5.16875" y2="22.1" style="stroke:green;stroke-width:1" />
 <line x1="8.99375" y1="22.1" x2="8.54375" y2="20.75" style="stroke:green;stroke-width:1" />
 <line x1="8.54375" y1="20.75" x2="7.8125" y2="19.625" style="stroke:green;stroke-width:1" />
 <line x1="7.8125" y1="19.625" x2="6.6875" y2="18.78125" style="stroke:green;stroke-width:1" />
 <line x1="6.6875" y1="18.78125" x2="5.7875" y2="18.78125" style="stroke:green;stroke-width:1" />
 <line x1="5.7875" y1="18.78125" x2="5.28125" y2="19.2875" style="stroke:green;stroke-width:1" />
 <line x1="5.28125" y1="19.2875" x2="5.16875" y2="19.9625" style="stroke:green;stroke-width:1" />
 <line x1="5.16875" y1="19.9625" x2="5.39375" y2="21.0875" style="stroke:green;stroke-width:1" />
 <line x1="5.39375" y1="21.0875" x2="5.73125" y2="22.1" style="stroke:green;stroke-width:1" />
 <line x1="5.73125" y1="22.1" x2="6.74375" y2="25.475" style="stroke:green;stroke-width:1" />
 <line x1="6.74375" y1="25.475" x2="8.54375" y2="25.475" style="stroke:green;stroke-width:1" />
 <line x1="8.54375" y1="25.475" x2="8.99375" y2="22.1" style="stroke:green;stroke-width:1" />
 <line x1="17.825" y1="22.1" x2="17.825" y2="34.98125" style="stroke:green;stroke-width:1" />
 <line x1="13.71875" y1="22.1" x2="17.825" y2="27.44375" style="stroke:green;stroke-width:1" />
 <line x1="17.825" y1="22.1" x2="19.11875" y2="23.7875" style="stroke:green;stroke-width:1" />
 <line x1="19.11875" y1="23.7875" x2="19.9625" y2="25.5875" style="stroke:green;stroke-width:1" />
 <line x1="19.9625" y1="25.5875" x2="20.6375" y2="27.275" style="stroke:green;stroke-width:1" />
 <line x1="20.6375" y1="27.275" x2="20.8625" y2="28.34375" style="stroke:green;stroke-width:1" />
 <line x1="20.8625" y1="28.34375" x2="20.6375" y2="29.01875" style="stroke:green;stroke-width:1" />
 <line x1="20.6375" y1="29.01875" x2="20.24375" y2="29.4125" style="stroke:green;stroke-width:1" />
 <line x1="20.24375" y1="29.4125" x2="19.68125" y2="29.46875" style="stroke:green;stroke-width:1" />
 <line x1="19.68125" y1="29.46875" x2="19.175" y2="29.13125" style="stroke:green;stroke-width:1" />
 <line x1="19.175" y1="29.13125" x2="19.5125" y2="30.3125" style="stroke:green;stroke-width:1" />
 <line x1="19.5125" y1="30.3125" x2="19.625" y2="31.04375" style="stroke:green;stroke-width:1" />
 <line x1="19.625" y1="31.04375" x2="19.56875" y2="31.6625" style="stroke:green;stroke-width:1" />
 <line x1="19.56875" y1="31.6625" x2="19.00625" y2="31.8875" style="stroke:green;stroke-width:1" />
 <line x1="19.00625" y1="31.8875" x2="18.44375" y2="31.60625" style="stroke:green;stroke-width:1" />
 <line x1="18.44375" y1="31.60625" x2="17.825" y2="31.15625" style="stroke:green;stroke-width:1" />
 <line x1="5" y1="17.15" x2="6.85625" y2="13.8875" style="stroke:green;stroke-width:1" />
 <line x1="6.85625" y1="13.8875" x2="7.025" y2="13.49375" style="stroke:green;stroke-width:1" />
 <line x1="7.025" y1="13.49375" x2="7.1375" y2="13.15625" style="stroke:green;stroke-width:1" />
 <line x1="7.1375" y1="13.15625" x2="7.25" y2="12.7625" style="stroke:green;stroke-width:1" />
 <line x1="7.25" y1="12.7625" x2="7.25" y2="12.425" style="stroke:green;stroke-width:1" />
 <line x1="7.25" y1="12.425" x2="7.19375" y2="12.0875" style="stroke:green;stroke-width:1" />
 <line x1="7.19375" y1="12.0875" x2="7.08125" y2="11.75" style="stroke:green;stroke-width:1" />
 <line x1="7.08125" y1="11.75" x2="6.85625" y2="11.4125" style="stroke:green;stroke-width:1" />
 <line x1="6.85625" y1="11.4125" x2="6.63125" y2="11.13125" style="stroke:green;stroke-width:1" />
 <line x1="6.63125" y1="11.13125" x2="6.40625" y2="10.9625" style="stroke:green;stroke-width:1" />
 <line x1="6.40625" y1="10.9625" x2="6.2375" y2="10.68125" style="stroke:green;stroke-width:1" />
 <line x1="6.2375" y1="10.68125" x2="6.06875" y2="10.4" style="stroke:green;stroke-width:1" />
 <line x1="6.06875" y1="10.4" x2="5.95625" y2="10.11875" style="stroke:green;stroke-width:1" />
 <line x1="5.95625" y1="10.11875" x2="5.84375" y2="9.8375" style="stroke:green;stroke-width:1" />
 <line x1="5.84375" y1="9.8375" x2="5.7875" y2="9.5" style="stroke:green;stroke-width:1" />
 <line x1="5.7875" y1="9.5" x2="5.84375" y2="9.1625" style="stroke:green;stroke-width:1" />
 <line x1="5.84375" y1="9.1625" x2="5.95625" y2="8.88125" style="stroke:green;stroke-width:1" />
 <line x1="5.95625" y1="8.88125" x2="6.125" y2="8.6" style="stroke:green;stroke-width:1" />
 <line x1="6.125" y1="8.6" x2="6.29375" y2="8.31875" style="stroke:green;stroke-width:1" />
 <line x1="6.29375" y1="8.31875" x2="6.575" y2="7.98125" style="stroke:green;stroke-width:1" />
 <line x1="6.575" y1="7.98125" x2="6.8" y2="7.7" style="stroke:green;stroke-width:1" />
 <line x1="6.8" y1="7.7" x2="7.025" y2="7.475" style="stroke:green;stroke-width:1" />
 <line x1="7.025" y1="7.475" x2="7.1375" y2="7.19375" style="stroke:green;stroke-width:1" />
 <line x1="7.1375" y1="7.19375" x2="7.30625" y2="6.9125" style="stroke:green;stroke-width:1" />
 <line x1="7.30625" y1="6.9125" x2="7.41875" y2="6.575" style="stroke:green;stroke-width:1" />
 <line x1="7.41875" y1="6.575" x2="7.475" y2="6.29375" style="stroke:green;stroke-width:1" />
 <line x1="7.475" y1="6.29375" x2="7.475" y2="6.0125" style="stroke:green;stroke-width:1" />
 <line x1="7.475" y1="6.0125" x2="7.475" y2="5.73125" style="stroke:green;stroke-width:1" />
 <line x1="7.475" y1="5.73125" x2="7.3625" y2="5.45" style="stroke:green;stroke-width:1" />
 <line x1="7.3625" y1="5.45" x2="7.19375" y2="5.225" style="stroke:green;stroke-width:1" />
 <line x1="7.19375" y1="5.225" x2="7.025" y2="5.1125" style="stroke:green;stroke-width:1" />
 <line x1="7.025" y1="5.1125" x2="6.6875" y2="5" style="stroke:green;stroke-width:1" />
 <line x1="6.6875" y1="5" x2="6.35" y2="5" style="stroke:green;stroke-width:1" />
 <line x1="6.35" y1="5" x2="6.06875" y2="5.1125" style="stroke:green;stroke-width:1" />
 <line x1="6.06875" y1="5.1125" x2="5.84375" y2="5.225" style="stroke:green;stroke-width:1" />
 <line x1="5.84375" y1="5.225" x2="5.675" y2="5.45" style="stroke:green;stroke-width:1" />
 <line x1="5.675" y1="5.45" x2="5.5625" y2="5.73125" style="stroke:green;stroke-width:1" />
 <line x1="5.5625" y1="5.73125" x2="5.5625" y2="6.0125" style="stroke:green;stroke-width:1" />
 <line x1="5.5625" y1="6.0125" x2="5.5625" y2="6.29375" style="stroke:green;stroke-width:1" />
 <line x1="5.5625" y1="6.29375" x2="5.61875" y2="6.575" style="stroke:green;stroke-width:1" />
 <line x1="5.61875" y1="6.575" x2="5.73125" y2="6.9125" style="stroke:green;stroke-width:1" />
 <line x1="5.73125" y1="6.9125" x2="5.9" y2="7.19375" style="stroke:green;stroke-width:1" />
 <line x1="5.9" y1="7.19375" x2="6.06875" y2="7.475" style="stroke:green;stroke-width:1" />
 <line x1="6.06875" y1="7.475" x2="6.2375" y2="7.7" style="stroke:green;stroke-width:1" />
 <line x1="6.2375" y1="7.7" x2="6.4625" y2="7.98125" style="stroke:green;stroke-width:1" />
 <line x1="6.4625" y1="7.98125" x2="6.74375" y2="8.31875" style="stroke:green;stroke-width:1" />
 <line x1="6.74375" y1="8.31875" x2="6.96875" y2="8.6" style="stroke:green;stroke-width:1" />
 <line x1="6.96875" y1="8.6" x2="7.08125" y2="8.88125" style="stroke:green;stroke-width:1" />
 <line x1="7.08125" y1="8.88125" x2="7.19375" y2="9.1625" style="stroke:green;stroke-width:1" />
 <line x1="7.19375" y1="9.1625" x2="7.25" y2="9.5" style="stroke:green;stroke-width:1" />
 <line x1="7.25" y1="9.5" x2="7.19375" y2="9.8375" style="stroke:green;stroke-width:1" />
 <line x1="7.19375" y1="9.8375" x2="7.08125" y2="10.11875" style="stroke:green;stroke-width:1" />
 <line x1="7.08125" y1="10.11875" x2="6.96875" y2="10.4" style="stroke:green;stroke-width:1" />
 <line x1="6.96875" y1="10.4" x2="6.8" y2="10.68125" style="stroke:green;stroke-width:1" />
 <line x1="6.8" y1="10.68125" x2="6.575" y2="10.9625" style="stroke:green;stroke-width:1" />
 <line x1="6.575" y1="10.9625" x2="6.35" y2="11.13125" style="stroke:green;stroke-width:1" />
 <line x1="6.35" y1="11.13125" x2="6.18125" y2="11.4125" style="stroke:green;stroke-width:1" />
 <line x1="6.18125" y1="11.4125" x2="5.95625" y2="11.75" style="stroke:green;stroke-width:1" />
 <line x1="5.95625" y1="11.75" x2="5.84375" y2="12.0875" style="stroke:green;stroke-width:1" />
 <line x1="5.84375" y1="12.0875" x2="5.7875" y2="12.425" style="stroke:green;stroke-width:1" />
 <line x1="5.7875" y1="12.425" x2="5.7875" y2="12.7625" style="stroke:green;stroke-width:1" />
 <line x1="5.7875" y1="12.7625" x2="5.9" y2="13.15625" style="stroke:green;stroke-width:1" />
 <line x1="5.9" y1="13.15625" x2="6.0125" y2="13.49375" style="stroke:green;stroke-width:1" />
 <line x1="6.0125" y1="13.49375" x2="6.2375" y2="13.8875" style="stroke:green;stroke-width:1" />
 <line x1="6.2375" y1="13.8875" x2="8.0375" y2="17.15" style="stroke:green;stroke-width:1" />
 <line x1="9.5" y1="6.9125" x2="9.5" y2="7.1375" style="stroke:green;stroke-width:1" />
 <line x1="9.5" y1="7.1375" x2="9.6125" y2="7.30625" style="stroke:green;stroke-width:1" />
 <line x1="9.6125" y1="7.30625" x2="9.78125" y2="7.41875" style="stroke:green;stroke-width:1" />
 <line x1="9.78125" y1="7.41875" x2="10.0625" y2="7.475" style="stroke:green;stroke-width:1" />
 <line x1="10.0625" y1="7.475" x2="10.2875" y2="7.41875" style="stroke:green;stroke-width:1" />
 <line x1="10.2875" y1="7.41875" x2="10.5125" y2="7.19375" style="stroke:green;stroke-width:1" />
 <line x1="10.5125" y1="7.19375" x2="10.5125" y2="6.9125" style="stroke:green;stroke-width:1" />
 <line x1="10.5125" y1="6.9125" x2="10.5125" y2="6.63125" style="stroke:green;stroke-width:1" />
 <line x1="10.5125" y1="6.63125" x2="10.34375" y2="6.40625" style="stroke:green;stroke-width:1" />
 <line x1="10.34375" y1="6.40625" x2="10.23125" y2="6.2375" style="stroke:green;stroke-width:1" />
 <line x1="10.23125" y1="6.2375" x2="10.00625" y2="6.125" style="stroke:green;stroke-width:1" />
 <line x1="10.00625" y1="6.125" x2="9.78125" y2="6.0125" style="stroke:green;stroke-width:1" />
 <line x1="9.78125" y1="6.0125" x2="9.6125" y2="6.0125" style="stroke:green;stroke-width:1" />
 <line x1="9.6125" y1="6.0125" x2="9.3875" y2="6.0125" style="stroke:green;stroke-width:1" />
 <line x1="9.3875" y1="6.0125" x2="9.21875" y2="6.125" style="stroke:green;stroke-width:1" />
 <line x1="9.21875" y1="6.125" x2="8.99375" y2="6.18125" style="stroke:green;stroke-width:1" />
 <line x1="8.99375" y1="6.18125" x2="8.825" y2="6.35" style="stroke:green;stroke-width:1" />
 <line x1="8.825" y1="6.35" x2="8.7125" y2="6.575" style="stroke:green;stroke-width:1" />
 <line x1="8.7125" y1="6.575" x2="8.65625" y2="6.74375" style="stroke:green;stroke-width:1" />
 <line x1="8.65625" y1="6.74375" x2="8.65625" y2="7.1375" style="stroke:green;stroke-width:1" />
 <line x1="8.65625" y1="7.1375" x2="8.65625" y2="7.3625" style="stroke:green;stroke-width:1" />
 <line x1="8.65625" y1="7.3625" x2="8.7125" y2="7.64375" style="stroke:green;stroke-width:1" />
 <line x1="8.7125" y1="7.64375" x2="8.88125" y2="7.925" style="stroke:green;stroke-width:1" />
 <line x1="8.88125" y1="7.925" x2="9.05" y2="8.2625" style="stroke:green;stroke-width:1" />
 <line x1="9.05" y1="8.2625" x2="9.33125" y2="8.54375" style="stroke:green;stroke-width:1" />
 <line x1="9.33125" y1="8.54375" x2="9.6125" y2="8.825" style="stroke:green;stroke-width:1" />
 <line x1="9.6125" y1="8.825" x2="10.00625" y2="9.1625" style="stroke:green;stroke-width:1" />
 <line x1="10.00625" y1="9.1625" x2="10.4" y2="9.5" style="stroke:green;stroke-width:1" />
 <line x1="10.4" y1="9.5" x2="10.90625" y2="9.78125" style="stroke:green;stroke-width:1" />
 <line x1="10.90625" y1="9.78125" x2="11.4125" y2="10.11875" style="stroke:green;stroke-width:1" />
 <line x1="11.4125" y1="10.11875" x2="12.03125" y2="10.4" style="stroke:green;stroke-width:1" />
 <line x1="12.03125" y1="10.4" x2="12.7625" y2="10.7375" style="stroke:green;stroke-width:1" />
 <line x1="12.7625" y1="10.7375" x2="13.38125" y2="11.01875" style="stroke:green;stroke-width:1" />
 <line x1="13.38125" y1="11.01875" x2="13.94375" y2="11.13125" style="stroke:green;stroke-width:1" />
 <line x1="13.94375" y1="11.13125" x2="17.375" y2="5" style="stroke:green;stroke-width:1" />
 <line x1="17.375" y1="5" x2="17.825" y2="5.16875" style="stroke:green;stroke-width:1" />
 <line x1="17.825" y1="5.16875" x2="12.3125" y2="17.15" style="stroke:green;stroke-width:1" />
 <line x1="12.3125" y1="17.15" x2="11.1875" y2="16.25" style="stroke:green;stroke-width:1" />
 <line x1="11.1875" y1="16.25" x2="11.525" y2="15.96875" style="stroke:green;stroke-width:1" />
 <line x1="11.525" y1="15.96875" x2="11.75" y2="15.575" style="stroke:green;stroke-width:1" />
 <line x1="11.75" y1="15.575" x2="11.975" y2="15.2375" style="stroke:green;stroke-width:1" />
 <line x1="11.975" y1="15.2375" x2="12.0875" y2="14.95625" style="stroke:green;stroke-width:1" />
 <line x1="12.0875" y1="14.95625" x2="12.0875" y2="14.675" style="stroke:green;stroke-width:1" />
 <line x1="12.0875" y1="14.675" x2="12.03125" y2="14.5625" style="stroke:green;stroke-width:1" />
 <line x1="12.03125" y1="14.5625" x2="11.975" y2="14.45" style="stroke:green;stroke-width:1" />
 <line x1="11.975" y1="14.45" x2="11.80625" y2="14.39375" style="stroke:green;stroke-width:1" />
 <line x1="11.80625" y1="14.39375" x2="11.6375" y2="14.45" style="stroke:green;stroke-width:1" />
 <line x1="11.6375" y1="14.45" x2="11.525" y2="14.50625" style="stroke:green;stroke-width:1" />
 <line x1="11.525" y1="14.50625" x2="11.01875" y2="14.9" style="stroke:green;stroke-width:1" />
 <line x1="11.01875" y1="14.9" x2="10.79375" y2="14.675" style="stroke:green;stroke-width:1" />
 <line x1="10.79375" y1="14.675" x2="10.56875" y2="14.45" style="stroke:green;stroke-width:1" />
 <line x1="10.56875" y1="14.45" x2="10.2875" y2="14.39375" style="stroke:green;stroke-width:1" />
 <line x1="10.2875" y1="14.39375" x2="10.11875" y2="14.39375" style="stroke:green;stroke-width:1" />
 <line x1="10.11875" y1="14.39375" x2="9.78125" y2="14.3375" style="stroke:green;stroke-width:1" />
 <line x1="9.78125" y1="14.3375" x2="9.21875" y2="14.39375" style="stroke:green;stroke-width:1" />
 <line x1="9.21875" y1="14.39375" x2="9.21875" y2="13.6625" style="stroke:green;stroke-width:1" />
 <line x1="9.21875" y1="13.6625" x2="9.1625" y2="12.875" style="stroke:green;stroke-width:1" />
 <line x1="9.1625" y1="12.875" x2="8.99375" y2="11.975" style="stroke:green;stroke-width:1" />
 <line x1="8.99375" y1="11.975" x2="8.88125" y2="11.13125" style="stroke:green;stroke-width:1" />
 <line x1="8.88125" y1="11.13125" x2="13.94375" y2="11.13125" style="stroke:green;stroke-width:1" />
 <line x1="18.5" y1="6.35" x2="19.2875" y2="5" style="stroke:green;stroke-width:1" />
 <line x1="19.2875" y1="5" x2="20.13125" y2="6.06875" style="stroke:green;stroke-width:1" />
 <line x1="20.13125" y1="6.06875" x2="20.91875" y2="5" style="stroke:green;stroke-width:1" />
 <line x1="20.91875" y1="5" x2="21.7625" y2="6.06875" style="stroke:green;stroke-width:1" />
 <line x1="21.7625" y1="6.06875" x2="22.55" y2="5" style="stroke:green;stroke-width:1" />
 <line x1="22.55" y1="5" x2="23.3375" y2="6.06875" style="stroke:green;stroke-width:1" />
 <line x1="23.3375" y1="6.06875" x2="24.18125" y2="5" style="stroke:green;stroke-width:1" />
 <line x1="24.18125" y1="5" x2="24.96875" y2="6.06875" style="stroke:green;stroke-width:1" />
 <line x1="24.96875" y1="6.06875" x2="25.8125" y2="5" style="stroke:green;stroke-width:1" />
 <line x1="25.8125" y1="5" x2="26.6" y2="6.06875" style="stroke:green;stroke-width:1" />
 <line x1="26.6" y1="6.06875" x2="27.3875" y2="5" style="stroke:green;stroke-width:1" />
 <line x1="27.3875" y1="5" x2="28.23125" y2="6.06875" style="stroke:green;stroke-width:1" />
 <line x1="28.23125" y1="6.06875" x2="29.01875" y2="5" style="stroke:green;stroke-width:1" />
 <line x1="29.01875" y1="5" x2="29.8625" y2="6.35" style="stroke:green;stroke-width:1" />
 <line x1="18.5" y1="11.75" x2="19.2875" y2="10.4" style="stroke:green;stroke-width:1" />
 <line x1="19.2875" y1="10.4" x2="20.13125" y2="11.46875" style="stroke:green;stroke-width:1" />
 <line x1="20.13125" y1="11.46875" x2="20.91875" y2="10.4" style="stroke:green;stroke-width:1" />
 <line x1="20.91875" y1="10.4" x2="21.7625" y2="11.46875" style="stroke:green;stroke-width:1" />
 <line x1="21.7625" y1="11.46875" x2="22.55" y2="10.4" style="stroke:green;stroke-width:1" />
 <line x1="22.55" y1="10.4" x2="23.3375" y2="11.46875" style="stroke:green;stroke-width:1" />
 <line x1="23.3375" y1="11.46875" x2="24.18125" y2="10.4" style="stroke:green;stroke-width:1" />
 <line x1="24.18125" y1="10.4" x2="24.96875" y2="11.46875" style="stroke:green;stroke-width:1" />
 <line x1="24.96875" y1="11.46875" x2="25.8125" y2="10.4" style="stroke:green;stroke-width:1" />
 <line x1="25.8125" y1="10.4" x2="26.6" y2="11.46875" style="stroke:green;stroke-width:1" />
 <line x1="26.6" y1="11.46875" x2="27.3875" y2="10.4" style="stroke:green;stroke-width:1" />
 <line x1="27.3875" y1="10.4" x2="28.23125" y2="11.46875" style="stroke:green;stroke-width:1" />
 <line x1="28.23125" y1="11.46875" x2="29.01875" y2="10.4" style="stroke:green;stroke-width:1" />
 <line x1="29.01875" y1="10.4" x2="29.8625" y2="11.75" style="stroke:green;stroke-width:1" />
 <line x1="18.5" y1="17.15" x2="19.2875" y2="15.8" style="stroke:green;stroke-width:1" />
 <line x1="19.2875" y1="15.8" x2="20.13125" y2="16.86875" style="stroke:green;stroke-width:1" />
 <line x1="20.13125" y1="16.86875" x2="20.91875" y2="15.8" style="stroke:green;stroke-width:1" />
 <line x1="20.91875" y1="15.8" x2="21.7625" y2="16.86875" style="stroke:green;stroke-width:1" />
 <line x1="21.7625" y1="16.86875" x2="22.55" y2="15.8" style="stroke:green;stroke-width:1" />
 <line x1="22.55" y1="15.8" x2="23.3375" y2="16.86875" style="stroke:green;stroke-width:1" />
 <line x1="23.3375" y1="16.86875" x2="24.18125" y2="15.8" style="stroke:green;stroke-width:1" />
 <line x1="24.18125" y1="15.8" x2="24.96875" y2="16.86875" style="stroke:green;stroke-width:1" />
 <line x1="24.96875" y1="16.86875" x2="25.8125" y2="15.8" style="stroke:green;stroke-width:1" />
 <line x1="25.8125" y1="15.8" x2="26.6" y2="16.86875" style="stroke:green;stroke-width:1" />
 <line x1="26.6" y1="16.86875" x2="27.3875" y2="15.8" style="stroke:green;stroke-width:1" />
 <line x1="27.3875" y1="15.8" x2="28.23125" y2="16.86875" style="stroke:green;stroke-width:1" />
 <line x1="28.23125" y1="16.86875" x2="29.01875" y2="15.8" style="stroke:green;stroke-width:1" />
 <line x1="29.01875" y1="15.8" x2="29.8625" y2="17.15" style="stroke:green;stroke-width:1" />

</svg>
