<!DOCTYPE svg PUBLIC "-//W3C//DTD SVG 1.1//EN" "http://www.w3.org/Graphics/SVG/1.1/DTD/svg11.dtd">
<svg width="45" height="46" xmlns="http://www.w3.org/2000/svg">
 <!-- Gardiner/Zz376515 at (0,.0851063829787234) in red, scale=.076595744680851064, mirror=0 -->
 <line x1="5.2297872340425532" y1="5" x2="5.99574468085106384" y2="6.22553191489361702" style="stroke:red;stroke-width:1" />
 <line x1="5.99574468085106384" y1="6.22553191489361702" x2="6.83829787234042554" y2="7.37446808510638298" style="stroke:red;stroke-width:1" />
 <line x1="6.83829787234042554" y1="7.37446808510638298" x2="7.91063829787234044" y2="8.52340425531914894" style="stroke:red;stroke-width:1" />
 <line x1="7.91063829787234044" y1="8.52340425531914894" x2="8.8297872340425532" y2="9.44255319148936171" style="stroke:red;stroke-width:1" />
 <line x1="8.8297872340425532" y1="9.44255319148936171" x2="9.9021276595744681" y2="10.2085106382978723" style="stroke:red;stroke-width:1" />
 <line x1="9.9021276595744681" y1="10.2085106382978723" x2="11.1276595744680851" y2="11.1276595744680851" style="stroke:red;stroke-width:1" />
 <line x1="11.1276595744680851" y1="11.1276595744680851" x2="12.3531914893617021" y2="11.8170212765957446" style="stroke:red;stroke-width:1" />
 <line x1="12.3531914893617021" y1="11.8170212765957446" x2="13.6553191489361702" y2="12.5063829787234042" style="stroke:red;stroke-width:1" />
 <line x1="13.6553191489361702" y1="12.5063829787234042" x2="14.8808510638297872" y2="13.0425531914893617" style="stroke:red;stroke-width:1" />
 <line x1="14.8808510638297872" y1="13.0425531914893617" x2="16.1829787234042553" y2="13.5021276595744681" style="stroke:red;stroke-width:1" />
 <line x1="16.1829787234042553" y1="13.5021276595744681" x2="17.4085106382978723" y2="13.7319148936170212" style="stroke:red;stroke-width:1" />
 <line x1="17.4085106382978723" y1="13.7319148936170212" x2="19.2468085106382979" y2="14.0382978723404255" style="stroke:red;stroke-width:1" />
 <line x1="19.2468085106382979" y1="14.0382978723404255" x2="20.9319148936170213" y2="14.1914893617021276" style="stroke:red;stroke-width:1" />
 <line x1="20.9319148936170213" y1="14.1914893617021276" x2="22.3106382978723404" y2="14.2680851063829787" style="stroke:red;stroke-width:1" />
 <line x1="22.3106382978723404" y1="14.2680851063829787" x2="23.9957446808510638" y2="14.3446808510638298" style="stroke:red;stroke-width:1" />
 <line x1="23.9957446808510638" y1="14.3446808510638298" x2="25.6808510638297872" y2="14.2680851063829787" style="stroke:red;stroke-width:1" />
 <line x1="25.6808510638297872" y1="14.2680851063829787" x2="27.2893617021276596" y2="14.1148936170212766" style="stroke:red;stroke-width:1" />
 <line x1="27.2893617021276596" y1="14.1148936170212766" x2="28.8212765957446809" y2="14.0382978723404255" style="stroke:red;stroke-width:1" />
 <line x1="28.8212765957446809" y1="14.0382978723404255" x2="30.2" y2="13.8851063829787234" style="stroke:red;stroke-width:1" />
 <line x1="30.2" y1="13.8851063829787234" x2="31.6553191489361702" y2="13.6553191489361702" style="stroke:red;stroke-width:1" />
 <line x1="31.6553191489361702" y1="13.6553191489361702" x2="32.4978723404255319" y2="13.6553191489361702" style="stroke:red;stroke-width:1" />
 <line x1="32.4978723404255319" y1="13.6553191489361702" x2="33.3404255319148936" y2="13.8085106382978723" style="stroke:red;stroke-width:1" />
 <line x1="33.3404255319148936" y1="13.8085106382978723" x2="33.8765957446808511" y2="14.1148936170212766" style="stroke:red;stroke-width:1" />
 <line x1="33.8765957446808511" y1="14.1148936170212766" x2="34.6425531914893617" y2="14.651063829787234" style="stroke:red;stroke-width:1" />
 <line x1="34.6425531914893617" y1="14.651063829787234" x2="35.4085106382978724" y2="15.4170212765957447" style="stroke:red;stroke-width:1" />
 <line x1="35.4085106382978724" y1="15.4170212765957447" x2="36.0978723404255319" y2="16.3361702127659574" style="stroke:red;stroke-width:1" />
 <line x1="36.0978723404255319" y1="16.3361702127659574" x2="36.4808510638297873" y2="17.025531914893617" style="stroke:red;stroke-width:1" />
 <line x1="36.4808510638297873" y1="17.025531914893617" x2="36.8638297872340426" y2="17.7914893617021276" style="stroke:red;stroke-width:1" />
 <line x1="36.8638297872340426" y1="17.7914893617021276" x2="37.0170212765957447" y2="18.5574468085106383" style="stroke:red;stroke-width:1" />
 <line x1="37.0170212765957447" y1="18.5574468085106383" x2="39.9276595744680851" y2="18.6340425531914893" style="stroke:red;stroke-width:1" />
 <line x1="39.9276595744680851" y1="18.6340425531914893" x2="39.697872340425532" y2="17.6382978723404255" style="stroke:red;stroke-width:1" />
 <line x1="39.697872340425532" y1="17.6382978723404255" x2="39.1617021276595745" y2="16.4893617021276596" style="stroke:red;stroke-width:1" />
 <line x1="39.1617021276595745" y1="16.4893617021276596" x2="38.4723404255319149" y2="15.3404255319148936" style="stroke:red;stroke-width:1" />
 <line x1="38.4723404255319149" y1="15.3404255319148936" x2="37.8595744680851064" y2="14.651063829787234" style="stroke:red;stroke-width:1" />
 <line x1="37.8595744680851064" y1="14.651063829787234" x2="37.0936170212765958" y2="13.8851063829787234" style="stroke:red;stroke-width:1" />
 <line x1="37.0936170212765958" y1="13.8851063829787234" x2="36.4042553191489362" y2="13.3489361702127659" style="stroke:red;stroke-width:1" />
 <line x1="36.4042553191489362" y1="13.3489361702127659" x2="35.5617021276595745" y2="12.8127659574468085" style="stroke:red;stroke-width:1" />
 <line x1="35.5617021276595745" y1="12.8127659574468085" x2="34.1063829787234043" y2="12.0468085106382978" style="stroke:red;stroke-width:1" />
 <line x1="34.1063829787234043" y1="12.0468085106382978" x2="33.0340425531914894" y2="11.5872340425531915" style="stroke:red;stroke-width:1" />
 <line x1="33.0340425531914894" y1="11.5872340425531915" x2="31.8085106382978724" y2="11.2042553191489361" style="stroke:red;stroke-width:1" />
 <line x1="31.8085106382978724" y1="11.2042553191489361" x2="29.6638297872340426" y2="10.8212765957446808" style="stroke:red;stroke-width:1" />
 <line x1="29.6638297872340426" y1="10.8212765957446808" x2="5.2297872340425532" y2="5" style="stroke:red;stroke-width:1" />
 <line x1="14.574468085106383" y1="23.2297872340425532" x2="13.9617021276595744" y2="23.1531914893617021" style="stroke:red;stroke-width:1" />
 <line x1="13.9617021276595744" y1="23.1531914893617021" x2="13.1957446808510638" y2="23.0765957446808511" style="stroke:red;stroke-width:1" />
 <line x1="13.1957446808510638" y1="23.0765957446808511" x2="12.5063829787234042" y2="22.7702127659574468" style="stroke:red;stroke-width:1" />
 <line x1="12.5063829787234042" y1="22.7702127659574468" x2="11.8170212765957447" y2="22.4638297872340425" style="stroke:red;stroke-width:1" />
 <line x1="11.8170212765957447" y1="22.4638297872340425" x2="11.051063829787234" y2="22.0808510638297872" style="stroke:red;stroke-width:1" />
 <line x1="11.051063829787234" y1="22.0808510638297872" x2="10.4382978723404255" y2="21.5446808510638298" style="stroke:red;stroke-width:1" />
 <line x1="10.4382978723404255" y1="21.5446808510638298" x2="10.0553191489361702" y2="21.0085106382978723" style="stroke:red;stroke-width:1" />
 <line x1="10.0553191489361702" y1="21.0085106382978723" x2="9.59574468085106384" y2="20.3191489361702128" style="stroke:red;stroke-width:1" />
 <line x1="9.59574468085106384" y1="20.3191489361702128" x2="7.91063829787234044" y2="17.4085106382978723" style="stroke:red;stroke-width:1" />
 <line x1="7.91063829787234044" y1="17.4085106382978723" x2="7.68085106382978724" y2="17.025531914893617" style="stroke:red;stroke-width:1" />
 <line x1="7.68085106382978724" y1="17.025531914893617" x2="7.22127659574468086" y2="16.7191489361702127" style="stroke:red;stroke-width:1" />
 <line x1="7.22127659574468086" y1="16.7191489361702127" x2="6.76170212765957448" y2="16.6425531914893617" style="stroke:red;stroke-width:1" />
 <line x1="6.76170212765957448" y1="16.6425531914893617" x2="6.37872340425531916" y2="16.6425531914893617" style="stroke:red;stroke-width:1" />
 <line x1="6.37872340425531916" y1="16.6425531914893617" x2="5.84255319148936171" y2="16.7957446808510638" style="stroke:red;stroke-width:1" />
 <line x1="5.84255319148936171" y1="16.7957446808510638" x2="5.38297872340425532" y2="17.1787234042553191" style="stroke:red;stroke-width:1" />
 <line x1="5.38297872340425532" y1="17.1787234042553191" x2="5.15319148936170213" y2="17.5617021276595744" style="stroke:red;stroke-width:1" />
 <line x1="5.15319148936170213" y1="17.5617021276595744" x2="5" y2="17.8680851063829787" style="stroke:red;stroke-width:1" />
 <line x1="5" y1="17.8680851063829787" x2="5" y2="18.251063829787234" style="stroke:red;stroke-width:1" />
 <line x1="5" y1="18.251063829787234" x2="5" y2="25.8340425531914894" style="stroke:red;stroke-width:1" />
 <line x1="5" y1="25.8340425531914894" x2="24.148936170212766" y2="25.8340425531914894" style="stroke:red;stroke-width:1" />
 <line x1="24.148936170212766" y1="25.8340425531914894" x2="24.148936170212766" y2="18.251063829787234" style="stroke:red;stroke-width:1" />
 <line x1="24.148936170212766" y1="18.251063829787234" x2="24.148936170212766" y2="17.8680851063829787" style="stroke:red;stroke-width:1" />
 <line x1="24.148936170212766" y1="17.8680851063829787" x2="23.9957446808510638" y2="17.5617021276595744" style="stroke:red;stroke-width:1" />
 <line x1="23.9957446808510638" y1="17.5617021276595744" x2="23.6893617021276596" y2="17.1787234042553191" style="stroke:red;stroke-width:1" />
 <line x1="23.6893617021276596" y1="17.1787234042553191" x2="23.2297872340425532" y2="16.7957446808510638" style="stroke:red;stroke-width:1" />
 <line x1="23.2297872340425532" y1="16.7957446808510638" x2="22.7702127659574468" y2="16.6425531914893617" style="stroke:red;stroke-width:1" />
 <line x1="22.7702127659574468" y1="16.6425531914893617" x2="22.3106382978723404" y2="16.6425531914893617" style="stroke:red;stroke-width:1" />
 <line x1="22.3106382978723404" y1="16.6425531914893617" x2="21.9276595744680851" y2="16.7191489361702127" style="stroke:red;stroke-width:1" />
 <line x1="21.9276595744680851" y1="16.7191489361702127" x2="21.4680851063829787" y2="17.025531914893617" style="stroke:red;stroke-width:1" />
 <line x1="21.4680851063829787" y1="17.025531914893617" x2="21.1617021276595745" y2="17.4085106382978723" style="stroke:red;stroke-width:1" />
 <line x1="21.1617021276595745" y1="17.4085106382978723" x2="19.4765957446808511" y2="20.3191489361702128" style="stroke:red;stroke-width:1" />
 <line x1="19.4765957446808511" y1="20.3191489361702128" x2="19.0936170212765957" y2="21.0085106382978723" style="stroke:red;stroke-width:1" />
 <line x1="19.0936170212765957" y1="21.0085106382978723" x2="18.6340425531914894" y2="21.5446808510638298" style="stroke:red;stroke-width:1" />
 <line x1="18.6340425531914894" y1="21.5446808510638298" x2="18.0212765957446808" y2="22.0808510638297872" style="stroke:red;stroke-width:1" />
 <line x1="18.0212765957446808" y1="22.0808510638297872" x2="17.3319148936170213" y2="22.4638297872340425" style="stroke:red;stroke-width:1" />
 <line x1="17.3319148936170213" y1="22.4638297872340425" x2="16.6425531914893617" y2="22.7702127659574468" style="stroke:red;stroke-width:1" />
 <line x1="16.6425531914893617" y1="22.7702127659574468" x2="15.876595744680851" y2="23.0765957446808511" style="stroke:red;stroke-width:1" />
 <line x1="15.876595744680851" y1="23.0765957446808511" x2="15.1872340425531915" y2="23.1531914893617021" style="stroke:red;stroke-width:1" />
 <line x1="15.1872340425531915" y1="23.1531914893617021" x2="14.574468085106383" y2="23.2297872340425532" style="stroke:red;stroke-width:1" />
 <line x1="14.651063829787234" y1="30.8893617021276596" x2="14.3446808510638298" y2="31.1957446808510638" style="stroke:red;stroke-width:1" />
 <line x1="14.3446808510638298" y1="31.1957446808510638" x2="14.1914893617021276" y2="31.7319148936170213" style="stroke:red;stroke-width:1" />
 <line x1="14.1914893617021276" y1="31.7319148936170213" x2="14.1914893617021276" y2="32.2680851063829787" style="stroke:red;stroke-width:1" />
 <line x1="14.1914893617021276" y1="32.2680851063829787" x2="14.2680851063829787" y2="32.7276595744680851" style="stroke:red;stroke-width:1" />
 <line x1="14.2680851063829787" y1="32.7276595744680851" x2="14.574468085106383" y2="33.1872340425531915" style="stroke:red;stroke-width:1" />
 <line x1="14.574468085106383" y1="33.1872340425531915" x2="15.1106382978723404" y2="33.4936170212765958" style="stroke:red;stroke-width:1" />
 <line x1="15.1106382978723404" y1="33.4936170212765958" x2="15.8" y2="33.4936170212765958" style="stroke:red;stroke-width:1" />
 <line x1="15.8" y1="33.4936170212765958" x2="16.4127659574468085" y2="33.3404255319148936" style="stroke:red;stroke-width:1" />
 <line x1="16.4127659574468085" y1="33.3404255319148936" x2="16.9489361702127659" y2="32.9574468085106383" style="stroke:red;stroke-width:1" />
 <line x1="16.9489361702127659" y1="32.9574468085106383" x2="17.4085106382978723" y2="32.3446808510638298" style="stroke:red;stroke-width:1" />
 <line x1="17.4085106382978723" y1="32.3446808510638298" x2="17.5617021276595745" y2="31.6553191489361702" style="stroke:red;stroke-width:1" />
 <line x1="17.5617021276595745" y1="31.6553191489361702" x2="17.7148936170212766" y2="30.9659574468085106" style="stroke:red;stroke-width:1" />
 <line x1="17.7148936170212766" y1="30.9659574468085106" x2="17.5617021276595745" y2="30.2" style="stroke:red;stroke-width:1" />
 <line x1="17.5617021276595745" y1="30.2" x2="17.2553191489361702" y2="29.4340425531914894" style="stroke:red;stroke-width:1" />
 <line x1="17.2553191489361702" y1="29.4340425531914894" x2="16.8723404255319149" y2="28.8212765957446809" style="stroke:red;stroke-width:1" />
 <line x1="16.8723404255319149" y1="28.8212765957446809" x2="16.3361702127659574" y2="28.3617021276595745" style="stroke:red;stroke-width:1" />
 <line x1="16.3361702127659574" y1="28.3617021276595745" x2="15.6468085106382979" y2="28.0553191489361702" style="stroke:red;stroke-width:1" />
 <line x1="15.6468085106382979" y1="28.0553191489361702" x2="14.8808510638297872" y2="27.825531914893617" style="stroke:red;stroke-width:1" />
 <line x1="14.8808510638297872" y1="27.825531914893617" x2="14.3446808510638298" y2="27.825531914893617" style="stroke:red;stroke-width:1" />
 <line x1="14.3446808510638298" y1="27.825531914893617" x2="13.8085106382978723" y2="27.9021276595744681" style="stroke:red;stroke-width:1" />
 <line x1="13.8085106382978723" y1="27.9021276595744681" x2="13.0425531914893617" y2="28.2085106382978723" style="stroke:red;stroke-width:1" />
 <line x1="13.0425531914893617" y1="28.2085106382978723" x2="12.4297872340425532" y2="28.6680851063829787" style="stroke:red;stroke-width:1" />
 <line x1="12.4297872340425532" y1="28.6680851063829787" x2="11.8936170212765957" y2="29.2808510638297872" style="stroke:red;stroke-width:1" />
 <line x1="11.8936170212765957" y1="29.2808510638297872" x2="11.5872340425531915" y2="29.8936170212765958" style="stroke:red;stroke-width:1" />
 <line x1="11.5872340425531915" y1="29.8936170212765958" x2="11.3574468085106383" y2="30.7361702127659575" style="stroke:red;stroke-width:1" />
 <line x1="11.3574468085106383" y1="30.7361702127659575" x2="11.2042553191489361" y2="31.5021276595744681" style="stroke:red;stroke-width:1" />
 <line x1="11.2042553191489361" y1="31.5021276595744681" x2="11.2042553191489361" y2="32.4212765957446809" style="stroke:red;stroke-width:1" />
 <line x1="11.2042553191489361" y1="32.4212765957446809" x2="11.3574468085106383" y2="33.3404255319148936" style="stroke:red;stroke-width:1" />
 <line x1="11.3574468085106383" y1="33.3404255319148936" x2="11.5106382978723404" y2="34.3361702127659575" style="stroke:red;stroke-width:1" />
 <line x1="11.5106382978723404" y1="34.3361702127659575" x2="11.8936170212765957" y2="35.1021276595744681" style="stroke:red;stroke-width:1" />
 <line x1="11.8936170212765957" y1="35.1021276595744681" x2="12.4297872340425532" y2="35.9446808510638298" style="stroke:red;stroke-width:1" />
 <line x1="12.4297872340425532" y1="35.9446808510638298" x2="12.9659574468085106" y2="36.7106382978723404" style="stroke:red;stroke-width:1" />
 <line x1="12.9659574468085106" y1="36.7106382978723404" x2="13.7319148936170213" y2="37.4765957446808511" style="stroke:red;stroke-width:1" />
 <line x1="13.7319148936170213" y1="37.4765957446808511" x2="14.3446808510638298" y2="38.1659574468085107" style="stroke:red;stroke-width:1" />
 <line x1="14.3446808510638298" y1="38.1659574468085107" x2="15.0340425531914893" y2="38.7021276595744681" style="stroke:red;stroke-width:1" />
 <line x1="15.0340425531914893" y1="38.7021276595744681" x2="15.8" y2="39.3148936170212766" style="stroke:red;stroke-width:1" />
 <path d="M 24.9148936170212766 33.9531914893617021
          A 6.28085106382978724 6.28085106382978724 0 1 0 37.476595744680851 33.9531914893617021
          A 6.28085106382978724 6.28085106382978724 0 1 0 24.9148936170212766 33.9531914893617021"
       stroke="red" fill="white" stroke-width="1" fill-opacity="0.0"/>
 <line x1="27.825531914893617" y1="39.2382978723404256" x2="31.1957446808510638" y2="35.7148936170212766" style="stroke:red;stroke-width:1" />
 <line x1="31.1957446808510638" y1="35.7148936170212766" x2="34.5659574468085107" y2="39.2382978723404256" style="stroke:red;stroke-width:1" />
 <line x1="36.4808510638297873" y1="37.323404255319149" x2="32.9574468085106383" y2="33.9531914893617021" style="stroke:red;stroke-width:1" />
 <line x1="32.9574468085106383" y1="33.9531914893617021" x2="36.4808510638297873" y2="30.5829787234042553" style="stroke:red;stroke-width:1" />
 <line x1="34.5659574468085107" y1="28.5914893617021277" x2="31.1957446808510638" y2="32.1148936170212766" style="stroke:red;stroke-width:1" />
 <line x1="31.1957446808510638" y1="32.1148936170212766" x2="27.825531914893617" y2="28.5914893617021277" style="stroke:red;stroke-width:1" />
 <line x1="25.8340425531914894" y1="30.5829787234042553" x2="29.3574468085106383" y2="33.9531914893617021" style="stroke:red;stroke-width:1" />
 <line x1="29.3574468085106383" y1="33.9531914893617021" x2="25.8340425531914894" y2="37.323404255319149" style="stroke:red;stroke-width:1" />

</svg>
