<!DOCTYPE svg PUBLIC "-//W3C//DTD SVG 1.1//EN" "http://www.w3.org/Graphics/SVG/1.1/DTD/svg11.dtd">
<svg width="32" height="47" xmlns="http://www.w3.org/2000/svg">
 <!-- Gardiner/Zz376515 at (0,.8) in red, scale=.048, mirror=0 -->
 <line x1="5" y1="35.912" x2="26.6" y2="35.912" style="stroke:red;stroke-width:1" />
 <line x1="26.6" y1="38.552" x2="5" y2="38.552" style="stroke:red;stroke-width:1" />
 <line x1="5" y1="41.192" x2="26.6" y2="41.192" style="stroke:red;stroke-width:1" />
 <line x1="7.64" y1="35.912" x2="7.64" y2="41.192" style="stroke:red;stroke-width:1" />
 <line x1="11.72" y1="35.912" x2="11.72" y2="41.192" style="stroke:red;stroke-width:1" />
 <line x1="15.8" y1="35.912" x2="15.8" y2="41.192" style="stroke:red;stroke-width:1" />
 <line x1="19.88" y1="35.912" x2="19.88" y2="41.192" style="stroke:red;stroke-width:1" />
 <line x1="23.96" y1="35.912" x2="23.96" y2="41.192" style="stroke:red;stroke-width:1" />
 <line x1="26.504" y1="24.92" x2="5" y2="24.92" style="stroke:red;stroke-width:1" />
 <line x1="8.264" y1="24.92" x2="7.88" y2="23.768" style="stroke:red;stroke-width:1" />
 <line x1="7.88" y1="23.768" x2="7.256" y2="22.808" style="stroke:red;stroke-width:1" />
 <line x1="7.256" y1="22.808" x2="6.296" y2="22.088" style="stroke:red;stroke-width:1" />
 <line x1="6.296" y1="22.088" x2="5.528" y2="22.088" style="stroke:red;stroke-width:1" />
 <line x1="5.528" y1="22.088" x2="5.096" y2="22.52" style="stroke:red;stroke-width:1" />
 <line x1="5.096" y1="22.52" x2="5" y2="23.096" style="stroke:red;stroke-width:1" />
 <line x1="5" y1="23.096" x2="5.192" y2="24.056" style="stroke:red;stroke-width:1" />
 <line x1="5.192" y1="24.056" x2="5.48" y2="24.92" style="stroke:red;stroke-width:1" />
 <line x1="5.48" y1="24.92" x2="6.344" y2="27.8" style="stroke:red;stroke-width:1" />
 <line x1="6.344" y1="27.8" x2="7.88" y2="27.8" style="stroke:red;stroke-width:1" />
 <line x1="7.88" y1="27.8" x2="8.264" y2="24.92" style="stroke:red;stroke-width:1" />
 <line x1="15.8" y1="24.92" x2="15.8" y2="35.912" style="stroke:red;stroke-width:1" />
 <line x1="12.296" y1="24.92" x2="15.8" y2="29.48" style="stroke:red;stroke-width:1" />
 <line x1="15.8" y1="24.92" x2="16.904" y2="26.36" style="stroke:red;stroke-width:1" />
 <line x1="16.904" y1="26.36" x2="17.624" y2="27.896" style="stroke:red;stroke-width:1" />
 <line x1="17.624" y1="27.896" x2="18.2" y2="29.336" style="stroke:red;stroke-width:1" />
 <line x1="18.2" y1="29.336" x2="18.392" y2="30.248" style="stroke:red;stroke-width:1" />
 <line x1="18.392" y1="30.248" x2="18.2" y2="30.824" style="stroke:red;stroke-width:1" />
 <line x1="18.2" y1="30.824" x2="17.864" y2="31.16" style="stroke:red;stroke-width:1" />
 <line x1="17.864" y1="31.16" x2="17.384" y2="31.208" style="stroke:red;stroke-width:1" />
 <line x1="17.384" y1="31.208" x2="16.952" y2="30.92" style="stroke:red;stroke-width:1" />
 <line x1="16.952" y1="30.92" x2="17.24" y2="31.928" style="stroke:red;stroke-width:1" />
 <line x1="17.24" y1="31.928" x2="17.336" y2="32.552" style="stroke:red;stroke-width:1" />
 <line x1="17.336" y1="32.552" x2="17.288" y2="33.08" style="stroke:red;stroke-width:1" />
 <line x1="17.288" y1="33.08" x2="16.808" y2="33.272" style="stroke:red;stroke-width:1" />
 <line x1="16.808" y1="33.272" x2="16.328" y2="33.032" style="stroke:red;stroke-width:1" />
 <line x1="16.328" y1="33.032" x2="15.8" y2="32.648" style="stroke:red;stroke-width:1" />
 <line x1="11.96" y1="10.184" x2="12.2" y2="24.872" style="stroke:red;stroke-width:1" />
 <line x1="12.2" y1="24.872" x2="11.864" y2="24.872" style="stroke:red;stroke-width:1" />
 <line x1="11.864" y1="24.872" x2="11.96" y2="10.184" style="stroke:red;stroke-width:1" />
 <line x1="11.96" y1="10.184" x2="12.056" y2="9.752" style="stroke:red;stroke-width:1" />
 <line x1="12.056" y1="9.752" x2="12.2" y2="9.416" style="stroke:red;stroke-width:1" />
 <line x1="12.2" y1="9.416" x2="12.44" y2="9.08" style="stroke:red;stroke-width:1" />
 <line x1="12.44" y1="9.08" x2="12.728" y2="8.84" style="stroke:red;stroke-width:1" />
 <line x1="12.728" y1="8.84" x2="13.016" y2="8.696" style="stroke:red;stroke-width:1" />
 <line x1="13.016" y1="8.696" x2="13.304" y2="8.552" style="stroke:red;stroke-width:1" />
 <line x1="13.304" y1="8.552" x2="13.592" y2="8.36" style="stroke:red;stroke-width:1" />
 <line x1="13.592" y1="8.36" x2="13.832" y2="8.216" style="stroke:red;stroke-width:1" />
 <line x1="13.832" y1="8.216" x2="14.072" y2="7.88" style="stroke:red;stroke-width:1" />
 <line x1="14.072" y1="7.88" x2="14.312" y2="7.496" style="stroke:red;stroke-width:1" />
 <line x1="14.312" y1="7.496" x2="14.36" y2="7.064" style="stroke:red;stroke-width:1" />
 <line x1="14.36" y1="7.064" x2="14.408" y2="6.728" style="stroke:red;stroke-width:1" />
 <line x1="14.408" y1="6.728" x2="14.312" y2="6.344" style="stroke:red;stroke-width:1" />
 <line x1="14.312" y1="6.344" x2="14.168" y2="5.96" style="stroke:red;stroke-width:1" />
 <line x1="14.168" y1="5.96" x2="13.832" y2="5.576" style="stroke:red;stroke-width:1" />
 <line x1="13.832" y1="5.576" x2="13.544" y2="5.288" style="stroke:red;stroke-width:1" />
 <line x1="13.544" y1="5.288" x2="13.304" y2="5.144" style="stroke:red;stroke-width:1" />
 <line x1="13.304" y1="5.144" x2="13.016" y2="5.048" style="stroke:red;stroke-width:1" />
 <line x1="13.016" y1="5.048" x2="12.728" y2="5" style="stroke:red;stroke-width:1" />
 <line x1="12.728" y1="5" x2="12.344" y2="5" style="stroke:red;stroke-width:1" />
 <line x1="12.344" y1="5" x2="11.96" y2="5.048" style="stroke:red;stroke-width:1" />
 <line x1="11.96" y1="5.048" x2="11.624" y2="5.192" style="stroke:red;stroke-width:1" />
 <line x1="11.624" y1="5.192" x2="11.432" y2="5.288" style="stroke:red;stroke-width:1" />
 <line x1="11.432" y1="5.288" x2="11.24" y2="5.576" style="stroke:red;stroke-width:1" />
 <line x1="11.24" y1="5.576" x2="11.048" y2="5.816" style="stroke:red;stroke-width:1" />
 <line x1="11.048" y1="5.816" x2="11" y2="6.152" style="stroke:red;stroke-width:1" />
 <line x1="11" y1="6.152" x2="10.856" y2="6.488" style="stroke:red;stroke-width:1" />
 <line x1="10.856" y1="6.488" x2="10.712" y2="6.824" style="stroke:red;stroke-width:1" />
 <line x1="10.712" y1="6.824" x2="10.52" y2="7.208" style="stroke:red;stroke-width:1" />
 <line x1="10.52" y1="7.208" x2="10.328" y2="7.448" style="stroke:red;stroke-width:1" />
 <line x1="10.328" y1="7.448" x2="9.944" y2="7.736" style="stroke:red;stroke-width:1" />
 <line x1="9.944" y1="7.736" x2="9.704" y2="7.88" style="stroke:red;stroke-width:1" />
 <line x1="19.64" y1="24.968" x2="19.64" y2="23.432" style="stroke:red;stroke-width:1" />
 <line x1="19.64" y1="23.432" x2="20.504" y2="21.896" style="stroke:red;stroke-width:1" />
 <line x1="20.504" y1="21.896" x2="21.32" y2="23.432" style="stroke:red;stroke-width:1" />
 <line x1="21.32" y1="23.432" x2="21.32" y2="24.968" style="stroke:red;stroke-width:1" />
 <line x1="20.504" y1="21.896" x2="20.504" y2="15.032" style="stroke:red;stroke-width:1" />
 <line x1="20.504" y1="15.032" x2="20.504" y2="15.032" style="stroke:red;stroke-width:1" />
 <line x1="20.504" y1="15.032" x2="20.504" y2="8.168" style="stroke:red;stroke-width:1" />
 <line x1="21.32" y1="5.048" x2="21.32" y2="6.632" style="stroke:red;stroke-width:1" />
 <line x1="21.32" y1="6.632" x2="20.504" y2="8.168" style="stroke:red;stroke-width:1" />
 <line x1="20.504" y1="8.168" x2="19.64" y2="6.632" style="stroke:red;stroke-width:1" />
 <line x1="19.64" y1="6.632" x2="19.64" y2="5.048" style="stroke:red;stroke-width:1" />

</svg>
