<!DOCTYPE svg PUBLIC "-//W3C//DTD SVG 1.1//EN" "http://www.w3.org/Graphics/SVG/1.1/DTD/svg11.dtd">
<svg width="45" height="50" xmlns="http://www.w3.org/2000/svg">
 <!-- Gardiner/Zz376515 at (0,.10526315789473684) in red, scale=.0757894736842105264, mirror=0 -->
 <line x1="5" y1="7.80421052631578947" x2="5.07578947368421052" y2="7.27368421052631579" style="stroke:red;stroke-width:1" />
 <line x1="5.07578947368421052" y1="7.27368421052631579" x2="5.45473684210526315" y2="6.81894736842105263" style="stroke:red;stroke-width:1" />
 <line x1="5.45473684210526315" y1="6.81894736842105263" x2="5.83368421052631579" y2="6.21263157894736842" style="stroke:red;stroke-width:1" />
 <line x1="5.83368421052631579" y1="6.21263157894736842" x2="6.51578947368421052" y2="5.68210526315789473" style="stroke:red;stroke-width:1" />
 <line x1="6.51578947368421052" y1="5.68210526315789473" x2="7.34947368421052631" y2="5.37894736842105263" style="stroke:red;stroke-width:1" />
 <line x1="7.34947368421052631" y1="5.37894736842105263" x2="8.10736842105263158" y2="5.07578947368421052" style="stroke:red;stroke-width:1" />
 <line x1="8.10736842105263158" y1="5.07578947368421052" x2="8.78947368421052632" y2="5" style="stroke:red;stroke-width:1" />
 <line x1="8.78947368421052632" y1="5" x2="9.47157894736842105" y2="5.07578947368421052" style="stroke:red;stroke-width:1" />
 <line x1="9.47157894736842105" y1="5.07578947368421052" x2="10.2294736842105263" y2="5.3031578947368421" style="stroke:red;stroke-width:1" />
 <line x1="10.2294736842105263" y1="5.3031578947368421" x2="10.911578947368421" y2="5.60631578947368421" style="stroke:red;stroke-width:1" />
 <line x1="10.911578947368421" y1="5.60631578947368421" x2="11.2905263157894736" y2="6.13684210526315789" style="stroke:red;stroke-width:1" />
 <line x1="11.2905263157894736" y1="6.13684210526315789" x2="11.8210526315789472" y2="6.89473684210526316" style="stroke:red;stroke-width:1" />
 <line x1="11.8210526315789472" y1="6.89473684210526316" x2="12.0484210526315788" y2="7.72842105263157895" style="stroke:red;stroke-width:1" />
 <line x1="12.0484210526315788" y1="7.72842105263157895" x2="12.2757894736842104" y2="8.56210526315789474" style="stroke:red;stroke-width:1" />
 <line x1="12.2757894736842104" y1="8.56210526315789474" x2="12.4273684210526315" y2="9.47157894736842105" style="stroke:red;stroke-width:1" />
 <line x1="12.4273684210526315" y1="9.47157894736842105" x2="12.4273684210526315" y2="10.3810526315789473" style="stroke:red;stroke-width:1" />
 <line x1="12.4273684210526315" y1="10.3810526315789473" x2="12.2757894736842104" y2="11.1389473684210525" style="stroke:red;stroke-width:1" />
 <line x1="12.2757894736842104" y1="11.1389473684210525" x2="12.1242105263157894" y2="11.9726315789473683" style="stroke:red;stroke-width:1" />
 <line x1="12.1242105263157894" y1="11.9726315789473683" x2="11.8968421052631578" y2="12.5789473684210525" style="stroke:red;stroke-width:1" />
 <line x1="11.8968421052631578" y1="12.5789473684210525" x2="11.8968421052631578" y2="13.1852631578947367" style="stroke:red;stroke-width:1" />
 <line x1="11.8968421052631578" y1="13.1852631578947367" x2="11.9726315789473683" y2="13.7915789473684209" style="stroke:red;stroke-width:1" />
 <line x1="11.9726315789473683" y1="13.7915789473684209" x2="12.1242105263157894" y2="14.094736842105263" style="stroke:red;stroke-width:1" />
 <line x1="12.1242105263157894" y1="14.094736842105263" x2="12.5789473684210525" y2="14.3221052631578946" style="stroke:red;stroke-width:1" />
 <line x1="12.5789473684210525" y1="14.3221052631578946" x2="13.2610526315789472" y2="14.4736842105263157" style="stroke:red;stroke-width:1" />
 <line x1="13.2610526315789472" y1="14.4736842105263157" x2="13.943157894736842" y2="14.5494736842105262" style="stroke:red;stroke-width:1" />
 <line x1="13.943157894736842" y1="14.5494736842105262" x2="15.6105263157894736" y2="14.1705263157894736" style="stroke:red;stroke-width:1" />
 <line x1="15.6105263157894736" y1="14.1705263157894736" x2="17.2778947368421051" y2="14.0189473684210525" style="stroke:red;stroke-width:1" />
 <line x1="17.2778947368421051" y1="14.0189473684210525" x2="19.2484210526315788" y2="13.5642105263157894" style="stroke:red;stroke-width:1" />
 <line x1="19.2484210526315788" y1="13.5642105263157894" x2="21.294736842105263" y2="13.2610526315789472" style="stroke:red;stroke-width:1" />
 <line x1="21.294736842105263" y1="13.2610526315789472" x2="23.4168421052631578" y2="13.1852631578947367" style="stroke:red;stroke-width:1" />
 <line x1="23.4168421052631578" y1="13.1852631578947367" x2="25.1599999999999999" y2="13.0336842105263157" style="stroke:red;stroke-width:1" />
 <line x1="25.1599999999999999" y1="13.0336842105263157" x2="26.903157894736842" y2="13.0336842105263157" style="stroke:red;stroke-width:1" />
 <line x1="26.903157894736842" y1="13.0336842105263157" x2="28.343157894736842" y2="13.0336842105263157" style="stroke:red;stroke-width:1" />
 <line x1="28.343157894736842" y1="13.0336842105263157" x2="29.7073684210526315" y2="13.1852631578947367" style="stroke:red;stroke-width:1" />
 <line x1="29.7073684210526315" y1="13.1852631578947367" x2="31.1473684210526315" y2="13.4126315789473683" style="stroke:red;stroke-width:1" />
 <line x1="31.1473684210526315" y1="13.4126315789473683" x2="32.1326315789473683" y2="13.943157894736842" style="stroke:red;stroke-width:1" />
 <line x1="32.1326315789473683" y1="13.943157894736842" x2="33.2694736842105262" y2="14.3978947368421051" style="stroke:red;stroke-width:1" />
 <line x1="33.2694736842105262" y1="14.3978947368421051" x2="34.2547368421052631" y2="15.0042105263157894" style="stroke:red;stroke-width:1" />
 <line x1="34.2547368421052631" y1="15.0042105263157894" x2="35.0884210526315789" y2="15.6863157894736841" style="stroke:red;stroke-width:1" />
 <line x1="35.0884210526315789" y1="15.6863157894736841" x2="35.8463157894736841" y2="16.4442105263157894" style="stroke:red;stroke-width:1" />
 <line x1="35.8463157894736841" y1="16.4442105263157894" x2="36.3768421052631578" y2="17.3536842105263157" style="stroke:red;stroke-width:1" />
 <line x1="36.3768421052631578" y1="17.3536842105263157" x2="36.7557894736842104" y2="18.1115789473684209" style="stroke:red;stroke-width:1" />
 <line x1="36.7557894736842104" y1="18.1115789473684209" x2="37.2105263157894736" y2="18.8694736842105262" style="stroke:red;stroke-width:1" />
 <line x1="37.2105263157894736" y1="18.8694736842105262" x2="37.5136842105263157" y2="19.7789473684210525" style="stroke:red;stroke-width:1" />
 <line x1="37.5136842105263157" y1="19.7789473684210525" x2="37.7410526315789473" y2="20.9157894736842104" style="stroke:red;stroke-width:1" />
 <line x1="37.7410526315789473" y1="20.9157894736842104" x2="37.8926315789473683" y2="21.8252631578947367" style="stroke:red;stroke-width:1" />
 <line x1="37.8926315789473683" y1="21.8252631578947367" x2="37.8926315789473683" y2="23.0378947368421052" style="stroke:red;stroke-width:1" />
 <line x1="37.8926315789473683" y1="23.0378947368421052" x2="37.8168421052631578" y2="24.2505263157894736" style="stroke:red;stroke-width:1" />
 <line x1="37.8168421052631578" y1="24.2505263157894736" x2="37.5894736842105262" y2="25.6905263157894736" style="stroke:red;stroke-width:1" />
 <line x1="37.5894736842105262" y1="25.6905263157894736" x2="37.2105263157894736" y2="27.3578947368421052" style="stroke:red;stroke-width:1" />
 <line x1="37.2105263157894736" y1="27.3578947368421052" x2="36.9073684210526315" y2="28.8736842105263157" style="stroke:red;stroke-width:1" />
 <line x1="36.9073684210526315" y1="28.8736842105263157" x2="36.7557894736842104" y2="29.9347368421052631" style="stroke:red;stroke-width:1" />
 <line x1="36.7557894736842104" y1="29.9347368421052631" x2="36.6042105263157894" y2="31.071578947368421" style="stroke:red;stroke-width:1" />
 <line x1="36.6042105263157894" y1="31.071578947368421" x2="36.6042105263157894" y2="31.9810526315789473" style="stroke:red;stroke-width:1" />
 <line x1="36.6042105263157894" y1="31.9810526315789473" x2="36.6042105263157894" y2="32.8905263157894736" style="stroke:red;stroke-width:1" />
 <line x1="36.6042105263157894" y1="32.8905263157894736" x2="36.7557894736842104" y2="33.8757894736842104" style="stroke:red;stroke-width:1" />
 <line x1="36.7557894736842104" y1="33.8757894736842104" x2="36.9073684210526315" y2="34.7094736842105262" style="stroke:red;stroke-width:1" />
 <line x1="36.9073684210526315" y1="34.7094736842105262" x2="37.2105263157894736" y2="35.4673684210526315" style="stroke:red;stroke-width:1" />
 <line x1="37.2105263157894736" y1="35.4673684210526315" x2="37.7410526315789473" y2="36.5284210526315789" style="stroke:red;stroke-width:1" />
 <line x1="37.7410526315789473" y1="36.5284210526315789" x2="38.4989473684210525" y2="37.8926315789473683" style="stroke:red;stroke-width:1" />
 <line x1="38.4989473684210525" y1="37.8926315789473683" x2="39.1052631578947368" y2="38.7263157894736841" style="stroke:red;stroke-width:1" />
 <line x1="39.1052631578947368" y1="38.7263157894736841" x2="39.1810526315789473" y2="38.9536842105263157" style="stroke:red;stroke-width:1" />
 <line x1="39.1810526315789473" y1="38.9536842105263157" x2="39.0294736842105262" y2="39.1052631578947368" style="stroke:red;stroke-width:1" />
 <line x1="39.0294736842105262" y1="39.1052631578947368" x2="38.8021052631578946" y2="39.0294736842105262" style="stroke:red;stroke-width:1" />
 <line x1="38.8021052631578946" y1="39.0294736842105262" x2="37.8926315789473683" y2="38.271578947368421" style="stroke:red;stroke-width:1" />
 <line x1="37.8926315789473683" y1="38.271578947368421" x2="36.9073684210526315" y2="37.2105263157894736" style="stroke:red;stroke-width:1" />
 <line x1="36.9073684210526315" y1="37.2105263157894736" x2="36.3768421052631578" y2="36.3768421052631578" style="stroke:red;stroke-width:1" />
 <line x1="36.3768421052631578" y1="36.3768421052631578" x2="35.9221052631578946" y2="35.391578947368421" style="stroke:red;stroke-width:1" />
 <line x1="35.9221052631578946" y1="35.391578947368421" x2="35.543157894736842" y2="34.4063157894736841" style="stroke:red;stroke-width:1" />
 <line x1="35.543157894736842" y1="34.4063157894736841" x2="35.2399999999999999" y2="33.4210526315789473" style="stroke:red;stroke-width:1" />
 <line x1="35.2399999999999999" y1="33.4210526315789473" x2="35.1642105263157894" y2="32.2842105263157894" style="stroke:red;stroke-width:1" />
 <line x1="35.1642105263157894" y1="32.2842105263157894" x2="35.1642105263157894" y2="31.4505263157894736" style="stroke:red;stroke-width:1" />
 <line x1="35.1642105263157894" y1="31.4505263157894736" x2="35.1642105263157894" y2="30.1621052631578946" style="stroke:red;stroke-width:1" />
 <line x1="35.1642105263157894" y1="30.1621052631578946" x2="35.3157894736842104" y2="28.8736842105263157" style="stroke:red;stroke-width:1" />
 <line x1="35.3157894736842104" y1="28.8736842105263157" x2="35.391578947368421" y2="27.6610526315789473" style="stroke:red;stroke-width:1" />
 <line x1="35.391578947368421" y1="27.6610526315789473" x2="35.4673684210526315" y2="26.2968421052631578" style="stroke:red;stroke-width:1" />
 <line x1="35.4673684210526315" y1="26.2968421052631578" x2="35.391578947368421" y2="25.0084210526315788" style="stroke:red;stroke-width:1" />
 <line x1="35.391578947368421" y1="25.0084210526315788" x2="35.3157894736842104" y2="23.6442105263157894" style="stroke:red;stroke-width:1" />
 <line x1="35.3157894736842104" y1="23.6442105263157894" x2="35.1642105263157894" y2="22.5073684210526315" style="stroke:red;stroke-width:1" />
 <line x1="35.1642105263157894" y1="22.5073684210526315" x2="34.8610526315789473" y2="21.294736842105263" style="stroke:red;stroke-width:1" />
 <line x1="34.8610526315789473" y1="21.294736842105263" x2="34.5578947368421052" y2="20.3852631578947367" style="stroke:red;stroke-width:1" />
 <line x1="34.5578947368421052" y1="20.3852631578947367" x2="34.103157894736842" y2="19.3242105263157894" style="stroke:red;stroke-width:1" />
 <line x1="34.103157894736842" y1="19.3242105263157894" x2="33.4210526315789473" y2="18.414736842105263" style="stroke:red;stroke-width:1" />
 <line x1="33.4210526315789473" y1="18.414736842105263" x2="32.5873684210526315" y2="17.7326315789473683" style="stroke:red;stroke-width:1" />
 <line x1="32.5873684210526315" y1="17.7326315789473683" x2="31.6778947368421052" y2="17.2778947368421051" style="stroke:red;stroke-width:1" />
 <line x1="31.6778947368421052" y1="17.2778947368421051" x2="30.6168421052631578" y2="16.974736842105263" style="stroke:red;stroke-width:1" />
 <line x1="30.6168421052631578" y1="16.974736842105263" x2="29.2526315789473683" y2="16.5957894736842104" style="stroke:red;stroke-width:1" />
 <line x1="29.2526315789473683" y1="16.5957894736842104" x2="27.6610526315789473" y2="16.5199999999999999" style="stroke:red;stroke-width:1" />
 <line x1="27.6610526315789473" y1="16.5199999999999999" x2="24.2505263157894736" y2="16.4442105263157894" style="stroke:red;stroke-width:1" />
 <line x1="24.2505263157894736" y1="16.4442105263157894" x2="20.7642105263157894" y2="16.4442105263157894" style="stroke:red;stroke-width:1" />
 <line x1="20.7642105263157894" y1="16.4442105263157894" x2="17.2021052631578946" y2="16.6715789473684209" style="stroke:red;stroke-width:1" />
 <line x1="17.2021052631578946" y1="16.6715789473684209" x2="13.7157894736842104" y2="16.7473684210526315" style="stroke:red;stroke-width:1" />
 <line x1="13.7157894736842104" y1="16.7473684210526315" x2="11.9726315789473683" y2="16.6715789473684209" style="stroke:red;stroke-width:1" />
 <line x1="11.9726315789473683" y1="16.6715789473684209" x2="11.214736842105263" y2="16.5199999999999999" style="stroke:red;stroke-width:1" />
 <line x1="11.214736842105263" y1="16.5199999999999999" x2="10.5326315789473684" y2="16.2168421052631578" style="stroke:red;stroke-width:1" />
 <line x1="10.5326315789473684" y1="16.2168421052631578" x2="10.1536842105263157" y2="15.6863157894736841" style="stroke:red;stroke-width:1" />
 <line x1="10.1536842105263157" y1="15.6863157894736841" x2="9.77473684210526316" y2="15.0042105263157894" style="stroke:red;stroke-width:1" />
 <line x1="9.77473684210526316" y1="15.0042105263157894" x2="9.69894736842105263" y2="14.3978947368421051" style="stroke:red;stroke-width:1" />
 <line x1="9.69894736842105263" y1="14.3978947368421051" x2="9.85052631578947368" y2="13.7157894736842104" style="stroke:red;stroke-width:1" />
 <line x1="9.85052631578947368" y1="13.7157894736842104" x2="10.3810526315789473" y2="11.6694736842105262" style="stroke:red;stroke-width:1" />
 <line x1="10.3810526315789473" y1="11.6694736842105262" x2="10.4568421052631579" y2="11.0631578947368421" style="stroke:red;stroke-width:1" />
 <line x1="10.4568421052631579" y1="11.0631578947368421" x2="10.4568421052631579" y2="10.4568421052631579" style="stroke:red;stroke-width:1" />
 <line x1="10.4568421052631579" y1="10.4568421052631579" x2="10.1536842105263157" y2="9.92631578947368421" style="stroke:red;stroke-width:1" />
 <line x1="10.1536842105263157" y1="9.92631578947368421" x2="9.62315789473684211" y2="9.54736842105263158" style="stroke:red;stroke-width:1" />
 <line x1="9.62315789473684211" y1="9.54736842105263158" x2="8.94105263157894737" y2="9.39578947368421053" style="stroke:red;stroke-width:1" />
 <line x1="8.94105263157894737" y1="9.39578947368421053" x2="8.1831578947368421" y2="9.32" style="stroke:red;stroke-width:1" />
 <line x1="8.1831578947368421" y1="9.32" x2="7.27368421052631579" y2="9.39578947368421053" style="stroke:red;stroke-width:1" />
 <line x1="7.27368421052631579" y1="9.39578947368421053" x2="6.51578947368421052" y2="9.39578947368421053" style="stroke:red;stroke-width:1" />
 <line x1="6.51578947368421052" y1="9.39578947368421053" x2="5.83368421052631579" y2="9.16842105263157895" style="stroke:red;stroke-width:1" />
 <line x1="5.83368421052631579" y1="9.16842105263157895" x2="5.37894736842105263" y2="8.71368421052631579" style="stroke:red;stroke-width:1" />
 <line x1="5.37894736842105263" y1="8.71368421052631579" x2="5.07578947368421052" y2="8.33473684210526316" style="stroke:red;stroke-width:1" />
 <line x1="5.07578947368421052" y1="8.33473684210526316" x2="5" y2="7.80421052631578947" style="stroke:red;stroke-width:1" />
 <line x1="6.21263157894736842" y1="23.1136842105263157" x2="16.4442105263157894" y2="23.1136842105263157" style="stroke:red;stroke-width:1" />
 <line x1="19.3242105263157894" y1="22.2799999999999999" x2="18.9452631578947367" y2="21.9768421052631578" style="stroke:red;stroke-width:1" />
 <line x1="18.9452631578947367" y1="21.9768421052631578" x2="18.4905263157894736" y2="21.7494736842105262" style="stroke:red;stroke-width:1" />
 <line x1="18.4905263157894736" y1="21.7494736842105262" x2="18.0357894736842104" y2="21.7494736842105262" style="stroke:red;stroke-width:1" />
 <line x1="18.0357894736842104" y1="21.7494736842105262" x2="17.5052631578947367" y2="21.9010526315789473" style="stroke:red;stroke-width:1" />
 <line x1="17.5052631578947367" y1="21.9010526315789473" x2="17.0505263157894736" y2="22.2042105263157894" style="stroke:red;stroke-width:1" />
 <line x1="17.0505263157894736" y1="22.2042105263157894" x2="16.7473684210526315" y2="22.583157894736842" style="stroke:red;stroke-width:1" />
 <line x1="16.7473684210526315" y1="22.583157894736842" x2="16.4442105263157894" y2="23.1136842105263157" style="stroke:red;stroke-width:1" />
 <line x1="16.4442105263157894" y1="23.1136842105263157" x2="16.7473684210526315" y2="23.6442105263157894" style="stroke:red;stroke-width:1" />
 <line x1="16.7473684210526315" y1="23.6442105263157894" x2="17.0505263157894736" y2="24.0989473684210525" style="stroke:red;stroke-width:1" />
 <line x1="17.0505263157894736" y1="24.0989473684210525" x2="17.5052631578947367" y2="24.4021052631578946" style="stroke:red;stroke-width:1" />
 <line x1="17.5052631578947367" y1="24.4021052631578946" x2="18.0357894736842104" y2="24.4778947368421052" style="stroke:red;stroke-width:1" />
 <line x1="18.0357894736842104" y1="24.4778947368421052" x2="18.4905263157894736" y2="24.4778947368421052" style="stroke:red;stroke-width:1" />
 <line x1="18.4905263157894736" y1="24.4778947368421052" x2="18.9452631578947367" y2="24.3263157894736841" style="stroke:red;stroke-width:1" />
 <line x1="18.9452631578947367" y1="24.3263157894736841" x2="19.3242105263157894" y2="24.023157894736842" style="stroke:red;stroke-width:1" />
 <line x1="19.3242105263157894" y1="24.023157894736842" x2="19.6273684210526315" y2="24.3263157894736841" style="stroke:red;stroke-width:1" />
 <line x1="19.6273684210526315" y1="24.3263157894736841" x2="20.1578947368421052" y2="24.4778947368421052" style="stroke:red;stroke-width:1" />
 <line x1="20.1578947368421052" y1="24.4778947368421052" x2="20.5368421052631578" y2="24.4778947368421052" style="stroke:red;stroke-width:1" />
 <line x1="20.5368421052631578" y1="24.4778947368421052" x2="21.0673684210526315" y2="24.4021052631578946" style="stroke:red;stroke-width:1" />
 <line x1="21.0673684210526315" y1="24.4021052631578946" x2="21.5221052631578946" y2="24.0989473684210525" style="stroke:red;stroke-width:1" />
 <line x1="21.5221052631578946" y1="24.0989473684210525" x2="21.9010526315789473" y2="23.6442105263157894" style="stroke:red;stroke-width:1" />
 <line x1="21.9010526315789473" y1="23.6442105263157894" x2="22.1284210526315788" y2="23.1136842105263157" style="stroke:red;stroke-width:1" />
 <line x1="22.1284210526315788" y1="23.1136842105263157" x2="21.9010526315789473" y2="22.583157894736842" style="stroke:red;stroke-width:1" />
 <line x1="21.9010526315789473" y1="22.583157894736842" x2="21.5221052631578946" y2="22.2042105263157894" style="stroke:red;stroke-width:1" />
 <line x1="21.5221052631578946" y1="22.2042105263157894" x2="21.0673684210526315" y2="21.9010526315789473" style="stroke:red;stroke-width:1" />
 <line x1="21.0673684210526315" y1="21.9010526315789473" x2="20.5368421052631578" y2="21.7494736842105262" style="stroke:red;stroke-width:1" />
 <line x1="20.5368421052631578" y1="21.7494736842105262" x2="20.1578947368421052" y2="21.7494736842105262" style="stroke:red;stroke-width:1" />
 <line x1="20.1578947368421052" y1="21.7494736842105262" x2="19.6273684210526315" y2="21.9768421052631578" style="stroke:red;stroke-width:1" />
 <line x1="19.6273684210526315" y1="21.9768421052631578" x2="19.3242105263157894" y2="22.2799999999999999" style="stroke:red;stroke-width:1" />
 <line x1="19.3242105263157894" y1="22.2799999999999999" x2="19.3242105263157894" y2="24.023157894736842" style="stroke:red;stroke-width:1" />
 <line x1="22.2042105263157894" y1="23.1136842105263157" x2="32.4357894736842104" y2="23.1136842105263157" style="stroke:red;stroke-width:1" />
 <line x1="11.2905263157894736" y1="36.983157894736842" x2="27.0547368421052631" y2="36.983157894736842" style="stroke:red;stroke-width:1" />
 <path d="M 27.054736842105263 36.983157894736842
          A 7.88210526315789474 7.88210526315789474 0 1 0 11.2905263157894736 36.983157894736842"
       stroke="red" fill="white" stroke-width="1" fill-opacity="0.0"/>

</svg>
