<!DOCTYPE svg PUBLIC "-//W3C//DTD SVG 1.1//EN" "http://www.w3.org/Graphics/SVG/1.1/DTD/svg11.dtd">
<svg width="46" height="44" xmlns="http://www.w3.org/2000/svg">
 <!-- Gardiner/Zz376515 at (0,10.4) in red, scale=.08, mirror=0 -->
 <line x1="14.6" y1="20.16" x2="14.12" y2="20.4" style="stroke:red;stroke-width:1" />
 <line x1="14.12" y1="20.4" x2="13" y2="20.48" style="stroke:red;stroke-width:1" />
 <line x1="13" y1="20.48" x2="12.44" y2="20.56" style="stroke:red;stroke-width:1" />
 <line x1="12.44" y1="20.56" x2="12.12" y2="20.96" style="stroke:red;stroke-width:1" />
 <line x1="12.12" y1="20.96" x2="12.12" y2="21.44" style="stroke:red;stroke-width:1" />
 <line x1="12.12" y1="21.44" x2="12.2" y2="22" style="stroke:red;stroke-width:1" />
 <line x1="12.2" y1="22" x2="12.52" y2="22.8" style="stroke:red;stroke-width:1" />
 <line x1="12.52" y1="22.8" x2="13.4" y2="23.92" style="stroke:red;stroke-width:1" />
 <line x1="13.4" y1="23.92" x2="14.52" y2="25.12" style="stroke:red;stroke-width:1" />
 <line x1="14.52" y1="25.12" x2="15.96" y2="26.16" style="stroke:red;stroke-width:1" />
 <line x1="15.96" y1="26.16" x2="17.56" y2="27.28" style="stroke:red;stroke-width:1" />
 <line x1="17.56" y1="27.28" x2="19.4" y2="28.16" style="stroke:red;stroke-width:1" />
 <line x1="19.4" y1="28.16" x2="21.16" y2="28.8" style="stroke:red;stroke-width:1" />
 <line x1="21.16" y1="28.8" x2="22.68" y2="29.12" style="stroke:red;stroke-width:1" />
 <line x1="22.68" y1="29.12" x2="24.84" y2="29.6" style="stroke:red;stroke-width:1" />
 <line x1="24.84" y1="29.6" x2="26.92" y2="29.84" style="stroke:red;stroke-width:1" />
 <line x1="26.92" y1="29.84" x2="29.64" y2="29.92" style="stroke:red;stroke-width:1" />
 <line x1="29.64" y1="29.92" x2="31.64" y2="29.92" style="stroke:red;stroke-width:1" />
 <line x1="31.64" y1="29.92" x2="36.6" y2="29.76" style="stroke:red;stroke-width:1" />
 <line x1="36.6" y1="29.76" x2="35" y2="29.44" style="stroke:red;stroke-width:1" />
 <line x1="35" y1="29.44" x2="33.4" y2="29.12" style="stroke:red;stroke-width:1" />
 <line x1="33.4" y1="29.12" x2="31.96" y2="28.48" style="stroke:red;stroke-width:1" />
 <line x1="31.96" y1="28.48" x2="30.6" y2="27.84" style="stroke:red;stroke-width:1" />
 <line x1="30.6" y1="27.84" x2="29.08" y2="27.04" style="stroke:red;stroke-width:1" />
 <line x1="29.08" y1="27.04" x2="27.48" y2="26" style="stroke:red;stroke-width:1" />
 <line x1="27.48" y1="26" x2="25.8" y2="24.72" style="stroke:red;stroke-width:1" />
 <line x1="25.8" y1="24.72" x2="24.44" y2="23.68" style="stroke:red;stroke-width:1" />
 <line x1="24.44" y1="23.68" x2="23.08" y2="22.72" style="stroke:red;stroke-width:1" />
 <line x1="23.08" y1="22.72" x2="21.88" y2="21.92" style="stroke:red;stroke-width:1" />
 <line x1="21.88" y1="21.92" x2="20.92" y2="21.28" style="stroke:red;stroke-width:1" />
 <line x1="20.92" y1="21.28" x2="19.56" y2="20.48" style="stroke:red;stroke-width:1" />
 <line x1="19.56" y1="20.48" x2="18.36" y2="20" style="stroke:red;stroke-width:1" />
 <line x1="18.36" y1="20" x2="17.24" y2="19.44" style="stroke:red;stroke-width:1" />
 <line x1="17.24" y1="19.44" x2="16.12" y2="18.48" style="stroke:red;stroke-width:1" />
 <line x1="16.12" y1="18.48" x2="15.08" y2="17.44" style="stroke:red;stroke-width:1" />
 <line x1="15.08" y1="17.44" x2="14.12" y2="16.48" style="stroke:red;stroke-width:1" />
 <line x1="14.12" y1="16.48" x2="13.4" y2="15.52" style="stroke:red;stroke-width:1" />
 <line x1="13.4" y1="15.52" x2="12.68" y2="14.88" style="stroke:red;stroke-width:1" />
 <line x1="12.68" y1="14.88" x2="11.8" y2="14.56" style="stroke:red;stroke-width:1" />
 <line x1="11.8" y1="14.56" x2="10.84" y2="14.4" style="stroke:red;stroke-width:1" />
 <line x1="10.84" y1="14.4" x2="9.56" y2="14.48" style="stroke:red;stroke-width:1" />
 <line x1="9.56" y1="14.48" x2="8.68" y2="14.72" style="stroke:red;stroke-width:1" />
 <line x1="8.68" y1="14.72" x2="7.88" y2="15.12" style="stroke:red;stroke-width:1" />
 <line x1="7.88" y1="15.12" x2="7.32" y2="15.6" style="stroke:red;stroke-width:1" />
 <line x1="7.32" y1="15.6" x2="6.84" y2="16.24" style="stroke:red;stroke-width:1" />
 <line x1="6.84" y1="16.24" x2="5" y2="17.12" style="stroke:red;stroke-width:1" />
 <line x1="5" y1="17.12" x2="6.04" y2="17.28" style="stroke:red;stroke-width:1" />
 <line x1="6.04" y1="17.28" x2="6.84" y2="17.76" style="stroke:red;stroke-width:1" />
 <line x1="6.84" y1="17.76" x2="7.48" y2="18.4" style="stroke:red;stroke-width:1" />
 <line x1="7.48" y1="18.4" x2="7.96" y2="19.2" style="stroke:red;stroke-width:1" />
 <line x1="7.96" y1="19.2" x2="8.6" y2="20.4" style="stroke:red;stroke-width:1" />
 <line x1="8.6" y1="20.4" x2="9.48" y2="21.84" style="stroke:red;stroke-width:1" />
 <line x1="9.48" y1="21.84" x2="10.2" y2="23.04" style="stroke:red;stroke-width:1" />
 <line x1="10.2" y1="23.04" x2="11.4" y2="24.56" style="stroke:red;stroke-width:1" />
 <line x1="11.4" y1="24.56" x2="12.44" y2="26" style="stroke:red;stroke-width:1" />
 <line x1="12.44" y1="26" x2="13.64" y2="27.36" style="stroke:red;stroke-width:1" />
 <line x1="13.64" y1="27.36" x2="14.76" y2="28.56" style="stroke:red;stroke-width:1" />
 <line x1="14.76" y1="28.56" x2="16.2" y2="29.84" style="stroke:red;stroke-width:1" />
 <line x1="16.2" y1="29.84" x2="17.08" y2="30.72" style="stroke:red;stroke-width:1" />
 <line x1="17.08" y1="30.72" x2="18.12" y2="31.52" style="stroke:red;stroke-width:1" />
 <line x1="18.12" y1="31.52" x2="19.24" y2="32.32" style="stroke:red;stroke-width:1" />
 <line x1="19.24" y1="32.32" x2="20.2" y2="32.96" style="stroke:red;stroke-width:1" />
 <line x1="20.2" y1="32.96" x2="20.12" y2="31.84" style="stroke:red;stroke-width:1" />
 <line x1="20.12" y1="31.84" x2="21.4" y2="31.52" style="stroke:red;stroke-width:1" />
 <line x1="21.4" y1="31.52" x2="23.16" y2="31.44" style="stroke:red;stroke-width:1" />
 <line x1="23.16" y1="31.44" x2="24.92" y2="31.36" style="stroke:red;stroke-width:1" />
 <line x1="24.92" y1="31.36" x2="26.68" y2="31.6" style="stroke:red;stroke-width:1" />
 <line x1="26.68" y1="31.6" x2="28.36" y2="32" style="stroke:red;stroke-width:1" />
 <line x1="28.36" y1="32" x2="30.12" y2="32.56" style="stroke:red;stroke-width:1" />
 <line x1="30.12" y1="32.56" x2="32.04" y2="33.28" style="stroke:red;stroke-width:1" />
 <line x1="32.04" y1="33.28" x2="33.8" y2="34.08" style="stroke:red;stroke-width:1" />
 <line x1="33.8" y1="34.08" x2="35.72" y2="34.96" style="stroke:red;stroke-width:1" />
 <line x1="35.72" y1="34.96" x2="37.4" y2="35.84" style="stroke:red;stroke-width:1" />
 <line x1="37.4" y1="35.84" x2="39" y2="36.8" style="stroke:red;stroke-width:1" />
 <line x1="39" y1="36.8" x2="38.52" y2="36.16" style="stroke:red;stroke-width:1" />
 <line x1="38.52" y1="36.16" x2="38.04" y2="35.04" style="stroke:red;stroke-width:1" />
 <line x1="38.04" y1="35.04" x2="37.96" y2="34.08" style="stroke:red;stroke-width:1" />
 <line x1="37.96" y1="34.08" x2="38.12" y2="33.2" style="stroke:red;stroke-width:1" />
 <line x1="38.12" y1="33.2" x2="38.6" y2="32.32" style="stroke:red;stroke-width:1" />
 <line x1="38.6" y1="32.32" x2="39.4" y2="31.6" style="stroke:red;stroke-width:1" />
 <line x1="39.4" y1="31.6" x2="40.04" y2="31.28" style="stroke:red;stroke-width:1" />
 <line x1="40.04" y1="31.28" x2="40.52" y2="30.96" style="stroke:red;stroke-width:1" />
 <line x1="40.52" y1="30.96" x2="37.96" y2="30.8" style="stroke:red;stroke-width:1" />
 <line x1="37.96" y1="30.8" x2="36.2" y2="30.56" style="stroke:red;stroke-width:1" />
 <line x1="36.2" y1="30.56" x2="33.88" y2="30.32" style="stroke:red;stroke-width:1" />
 <line x1="33.88" y1="30.32" x2="31.64" y2="30" style="stroke:red;stroke-width:1" />
 <line x1="20.28" y1="32.96" x2="18.68" y2="37.28" style="stroke:red;stroke-width:1" />
 <line x1="18.68" y1="37.28" x2="23.32" y2="37.28" style="stroke:red;stroke-width:1" />
 <line x1="23.32" y1="37.28" x2="23.4" y2="37.68" style="stroke:red;stroke-width:1" />
 <line x1="23.4" y1="37.68" x2="23.24" y2="37.92" style="stroke:red;stroke-width:1" />
 <line x1="18.6" y1="37.28" x2="17.24" y2="37.28" style="stroke:red;stroke-width:1" />
 <line x1="17.24" y1="37.28" x2="17.64" y2="37.52" style="stroke:red;stroke-width:1" />
 <line x1="17.64" y1="37.52" x2="17.72" y2="37.76" style="stroke:red;stroke-width:1" />
 <line x1="17.72" y1="37.76" x2="17.64" y2="37.92" style="stroke:red;stroke-width:1" />
 <line x1="17.64" y1="37.92" x2="17.32" y2="38" style="stroke:red;stroke-width:1" />
 <line x1="17.24" y1="37.28" x2="12.6" y2="37.28" style="stroke:red;stroke-width:1" />
 <line x1="12.6" y1="37.28" x2="12.12" y2="37.6" style="stroke:red;stroke-width:1" />
 <line x1="12.12" y1="37.6" x2="11.72" y2="38" style="stroke:red;stroke-width:1" />
 <line x1="12.6" y1="37.28" x2="6.68" y2="37.28" style="stroke:red;stroke-width:1" />
 <line x1="6.68" y1="37.28" x2="6.12" y2="37.68" style="stroke:red;stroke-width:1" />
 <line x1="6.12" y1="37.68" x2="5.88" y2="37.92" style="stroke:red;stroke-width:1" />
 <line x1="14.28" y1="37.28" x2="16.68" y2="32.08" style="stroke:red;stroke-width:1" />
 <line x1="16.68" y1="32.08" x2="17.08" y2="30.72" style="stroke:red;stroke-width:1" />
 <line x1="16.68" y1="32.16" x2="16.12" y2="29.84" style="stroke:red;stroke-width:1" />
 <path d="M 9.48 16.48
          A .64 .64 0 1 0 10.76 16.48
          A .64 .64 0 1 0 9.48 16.48"
       stroke="red" fill="white" stroke-width="1" fill-opacity="0.0"/>
 <line x1="26.28" y1="21.76" x2="40.04" y2="21.76" style="stroke:red;stroke-width:1" />
 <path d="M 40.04 21.76
          A 6.88 6.88 0 1 0 26.28 21.76"
       stroke="red" fill="white" stroke-width="1" fill-opacity="0.0"/>

</svg>
