<!DOCTYPE svg PUBLIC "-//W3C//DTD SVG 1.1//EN" "http://www.w3.org/Graphics/SVG/1.1/DTD/svg11.dtd">
<svg width="32" height="45" xmlns="http://www.w3.org/2000/svg">
 <!-- Gardiner/Zz376515 at (0,.0851063829787234) in red, scale=.076595744680851064, mirror=0 -->
 <line x1="12.7361702127659574" y1="5.53617021276595745" x2="11.5872340425531915" y2="5.68936170212765958" style="stroke:red;stroke-width:1" />
 <line x1="11.5872340425531915" y1="5.68936170212765958" x2="10.2851063829787234" y2="6.0723404255319149" style="stroke:red;stroke-width:1" />
 <line x1="10.2851063829787234" y1="6.0723404255319149" x2="9.28936170212765958" y2="6.60851063829787235" style="stroke:red;stroke-width:1" />
 <line x1="9.28936170212765958" y1="6.60851063829787235" x2="8.14042553191489362" y2="7.60425531914893618" style="stroke:red;stroke-width:1" />
 <line x1="8.14042553191489362" y1="7.60425531914893618" x2="7.37446808510638298" y2="8.67659574468085107" style="stroke:red;stroke-width:1" />
 <line x1="7.37446808510638298" y1="8.67659574468085107" x2="7.22127659574468085" y2="9.51914893617021278" style="stroke:red;stroke-width:1" />
 <line x1="7.22127659574468085" y1="9.51914893617021278" x2="7.06808510638297872" y2="10.3617021276595744" style="stroke:red;stroke-width:1" />
 <line x1="7.06808510638297872" y1="10.3617021276595744" x2="6.83829787234042553" y2="9.9021276595744681" style="stroke:red;stroke-width:1" />
 <line x1="6.83829787234042553" y1="9.9021276595744681" x2="6.37872340425531915" y2="9.59574468085106384" style="stroke:red;stroke-width:1" />
 <line x1="6.37872340425531915" y1="9.59574468085106384" x2="5.8425531914893617" y2="9.59574468085106384" style="stroke:red;stroke-width:1" />
 <line x1="5.8425531914893617" y1="9.59574468085106384" x2="5.38297872340425532" y2="10.0553191489361702" style="stroke:red;stroke-width:1" />
 <line x1="5.38297872340425532" y1="10.0553191489361702" x2="5" y2="10.7446808510638298" style="stroke:red;stroke-width:1" />
 <line x1="5" y1="10.7446808510638298" x2="5" y2="11.3574468085106382" style="stroke:red;stroke-width:1" />
 <line x1="5" y1="11.3574468085106382" x2="5.30638297872340425" y2="11.9702127659574467" style="stroke:red;stroke-width:1" />
 <line x1="5.30638297872340425" y1="11.9702127659574467" x2="5.76595744680851064" y2="12.8893617021276595" style="stroke:red;stroke-width:1" />
 <line x1="5.76595744680851064" y1="12.8893617021276595" x2="6.22553191489361702" y2="13.1957446808510637" style="stroke:red;stroke-width:1" />
 <line x1="6.22553191489361702" y1="13.1957446808510637" x2="6.60851063829787234" y2="13.1957446808510637" style="stroke:red;stroke-width:1" />
 <line x1="6.60851063829787234" y1="13.1957446808510637" x2="7.06808510638297872" y2="12.8893617021276595" style="stroke:red;stroke-width:1" />
 <line x1="7.06808510638297872" y1="12.8893617021276595" x2="8.14042553191489362" y2="14.727659574468085" style="stroke:red;stroke-width:1" />
 <line x1="8.14042553191489362" y1="14.727659574468085" x2="9.36595744680851064" y2="16.2595744680851063" style="stroke:red;stroke-width:1" />
 <line x1="9.36595744680851064" y1="16.2595744680851063" x2="10.5914893617021276" y2="17.4085106382978723" style="stroke:red;stroke-width:1" />
 <line x1="10.5914893617021276" y1="17.4085106382978723" x2="11.7404255319148936" y2="17.9446808510638297" style="stroke:red;stroke-width:1" />
 <line x1="11.7404255319148936" y1="17.9446808510638297" x2="12.7361702127659574" y2="18.0978723404255318" style="stroke:red;stroke-width:1" />
 <line x1="11.7404255319148936" y1="17.9446808510638297" x2="11.1276595744680851" y2="22.3106382978723404" style="stroke:red;stroke-width:1" />
 <line x1="11.1276595744680851" y1="22.3106382978723404" x2="14.3446808510638298" y2="22.3106382978723404" style="stroke:red;stroke-width:1" />
 <line x1="14.3446808510638298" y1="22.3106382978723404" x2="13.7319148936170212" y2="17.9446808510638297" style="stroke:red;stroke-width:1" />
 <line x1="12.7361702127659574" y1="18.0978723404255318" x2="13.7319148936170212" y2="17.9446808510638297" style="stroke:red;stroke-width:1" />
 <line x1="13.7319148936170212" y1="17.9446808510638297" x2="14.8808510638297872" y2="17.4085106382978723" style="stroke:red;stroke-width:1" />
 <line x1="14.8808510638297872" y1="17.4085106382978723" x2="16.1063829787234042" y2="16.2595744680851063" style="stroke:red;stroke-width:1" />
 <line x1="16.1063829787234042" y1="16.2595744680851063" x2="17.3319148936170213" y2="14.727659574468085" style="stroke:red;stroke-width:1" />
 <line x1="17.3319148936170213" y1="14.727659574468085" x2="18.4042553191489362" y2="12.8893617021276595" style="stroke:red;stroke-width:1" />
 <line x1="18.4042553191489362" y1="12.8893617021276595" x2="18.8638297872340425" y2="13.1957446808510637" style="stroke:red;stroke-width:1" />
 <line x1="18.8638297872340425" y1="13.1957446808510637" x2="19.2468085106382979" y2="13.1957446808510637" style="stroke:red;stroke-width:1" />
 <line x1="19.2468085106382979" y1="13.1957446808510637" x2="19.7063829787234042" y2="12.8893617021276595" style="stroke:red;stroke-width:1" />
 <line x1="19.7063829787234042" y1="12.8893617021276595" x2="20.1659574468085106" y2="11.9702127659574467" style="stroke:red;stroke-width:1" />
 <line x1="20.1659574468085106" y1="11.9702127659574467" x2="20.4723404255319149" y2="11.3574468085106382" style="stroke:red;stroke-width:1" />
 <line x1="20.4723404255319149" y1="11.3574468085106382" x2="20.4723404255319149" y2="10.7446808510638298" style="stroke:red;stroke-width:1" />
 <line x1="20.4723404255319149" y1="10.7446808510638298" x2="20.0893617021276596" y2="10.0553191489361702" style="stroke:red;stroke-width:1" />
 <line x1="20.0893617021276596" y1="10.0553191489361702" x2="19.6297872340425532" y2="9.59574468085106384" style="stroke:red;stroke-width:1" />
 <line x1="19.6297872340425532" y1="9.59574468085106384" x2="19.0936170212765957" y2="9.59574468085106384" style="stroke:red;stroke-width:1" />
 <line x1="19.0936170212765957" y1="9.59574468085106384" x2="18.6340425531914893" y2="9.9021276595744681" style="stroke:red;stroke-width:1" />
 <line x1="18.6340425531914893" y1="9.9021276595744681" x2="18.4042553191489362" y2="10.3617021276595744" style="stroke:red;stroke-width:1" />
 <line x1="18.4042553191489362" y1="10.3617021276595744" x2="18.251063829787234" y2="9.51914893617021278" style="stroke:red;stroke-width:1" />
 <line x1="18.251063829787234" y1="9.51914893617021278" x2="18.0978723404255319" y2="8.67659574468085107" style="stroke:red;stroke-width:1" />
 <line x1="18.0978723404255319" y1="8.67659574468085107" x2="17.3319148936170213" y2="7.60425531914893618" style="stroke:red;stroke-width:1" />
 <line x1="17.3319148936170213" y1="7.60425531914893618" x2="16.1829787234042553" y2="6.60851063829787235" style="stroke:red;stroke-width:1" />
 <line x1="16.1829787234042553" y1="6.60851063829787235" x2="15.1872340425531915" y2="6.0723404255319149" style="stroke:red;stroke-width:1" />
 <line x1="15.1872340425531915" y1="6.0723404255319149" x2="13.8851063829787234" y2="5.68936170212765958" style="stroke:red;stroke-width:1" />
 <line x1="13.8851063829787234" y1="5.68936170212765958" x2="12.7361702127659574" y2="5.53617021276595745" style="stroke:red;stroke-width:1" />
 <line x1="12.7361702127659574" y1="6.45531914893617022" x2="11.7404255319148936" y2="6.37872340425531915" style="stroke:red;stroke-width:1" />
 <line x1="11.7404255319148936" y1="6.37872340425531915" x2="10.3617021276595744" y2="6.14893617021276596" style="stroke:red;stroke-width:1" />
 <line x1="9.97872340425531916" y1="6.22553191489361703" x2="9.36595744680851064" y2="7.37446808510638299" style="stroke:red;stroke-width:1" />
 <line x1="9.36595744680851064" y1="7.37446808510638299" x2="8.21702127659574468" y2="8.90638297872340427" style="stroke:red;stroke-width:1" />
 <line x1="8.21702127659574468" y1="8.90638297872340427" x2="7.14468085106382979" y2="10.1319148936170212" style="stroke:red;stroke-width:1" />
 <line x1="8.6" y1="11.051063829787234" x2="9.44255319148936171" y2="10.5914893617021276" style="stroke:red;stroke-width:1" />
 <line x1="9.44255319148936171" y1="10.5914893617021276" x2="10.2851063829787234" y2="10.3617021276595744" style="stroke:red;stroke-width:1" />
 <line x1="10.2851063829787234" y1="10.3617021276595744" x2="10.8978723404255319" y2="10.3617021276595744" style="stroke:red;stroke-width:1" />
 <line x1="10.8978723404255319" y1="10.3617021276595744" x2="11.6638297872340425" y2="10.8212765957446808" style="stroke:red;stroke-width:1" />
 <line x1="11.6638297872340425" y1="10.8212765957446808" x2="11.051063829787234" y2="11.2042553191489361" style="stroke:red;stroke-width:1" />
 <line x1="11.051063829787234" y1="11.2042553191489361" x2="10.2851063829787234" y2="11.2808510638297871" style="stroke:red;stroke-width:1" />
 <line x1="10.2851063829787234" y1="11.2808510638297871" x2="9.59574468085106384" y2="11.2042553191489361" style="stroke:red;stroke-width:1" />
 <line x1="9.59574468085106384" y1="11.2042553191489361" x2="8.90638297872340426" y2="10.8212765957446808" style="stroke:red;stroke-width:1" />
 <line x1="14.651063829787234" y1="14.9574468085106382" x2="10.8212765957446808" y2="14.9574468085106382" style="stroke:red;stroke-width:1" />
 <line x1="10.8212765957446808" y1="14.9574468085106382" x2="11.7404255319148936" y2="15.4936170212765957" style="stroke:red;stroke-width:1" />
 <line x1="11.7404255319148936" y1="15.4936170212765957" x2="12.7361702127659574" y2="15.6468085106382978" style="stroke:red;stroke-width:1" />
 <line x1="12.7361702127659574" y1="15.6468085106382978" x2="13.7319148936170212" y2="15.4936170212765957" style="stroke:red;stroke-width:1" />
 <line x1="13.7319148936170212" y1="15.4936170212765957" x2="14.651063829787234" y2="14.9574468085106382" style="stroke:red;stroke-width:1" />
 <line x1="14.651063829787234" y1="14.9574468085106382" x2="13.8851063829787234" y2="14.4978723404255318" style="stroke:red;stroke-width:1" />
 <line x1="13.8851063829787234" y1="14.4978723404255318" x2="13.0425531914893617" y2="14.1148936170212765" style="stroke:red;stroke-width:1" />
 <line x1="13.0425531914893617" y1="14.1148936170212765" x2="12.7361702127659574" y2="14.2680851063829786" style="stroke:red;stroke-width:1" />
 <line x1="12.7361702127659574" y1="14.2680851063829786" x2="12.4297872340425532" y2="14.1148936170212765" style="stroke:red;stroke-width:1" />
 <line x1="12.4297872340425532" y1="14.1148936170212765" x2="11.5872340425531915" y2="14.4978723404255318" style="stroke:red;stroke-width:1" />
 <line x1="11.5872340425531915" y1="14.4978723404255318" x2="10.8212765957446808" y2="14.9574468085106382" style="stroke:red;stroke-width:1" />
 <line x1="16.5659574468085106" y1="10.8212765957446808" x2="15.876595744680851" y2="11.2042553191489361" style="stroke:red;stroke-width:1" />
 <line x1="15.876595744680851" y1="11.2042553191489361" x2="15.1872340425531915" y2="11.2808510638297871" style="stroke:red;stroke-width:1" />
 <line x1="15.1872340425531915" y1="11.2808510638297871" x2="14.4212765957446808" y2="11.2042553191489361" style="stroke:red;stroke-width:1" />
 <line x1="14.4212765957446808" y1="11.2042553191489361" x2="13.8085106382978723" y2="10.8212765957446808" style="stroke:red;stroke-width:1" />
 <line x1="13.8085106382978723" y1="10.8212765957446808" x2="14.574468085106383" y2="10.3617021276595744" style="stroke:red;stroke-width:1" />
 <line x1="14.574468085106383" y1="10.3617021276595744" x2="15.1872340425531915" y2="10.3617021276595744" style="stroke:red;stroke-width:1" />
 <line x1="15.1872340425531915" y1="10.3617021276595744" x2="16.0297872340425532" y2="10.5914893617021276" style="stroke:red;stroke-width:1" />
 <line x1="16.0297872340425532" y1="10.5914893617021276" x2="16.8723404255319149" y2="11.051063829787234" style="stroke:red;stroke-width:1" />
 <line x1="18.3276595744680851" y1="10.1319148936170212" x2="17.2553191489361702" y2="8.90638297872340427" style="stroke:red;stroke-width:1" />
 <line x1="17.2553191489361702" y1="8.90638297872340427" x2="16.1063829787234042" y2="7.37446808510638299" style="stroke:red;stroke-width:1" />
 <line x1="16.1063829787234042" y1="7.37446808510638299" x2="15.4936170212765957" y2="6.22553191489361703" style="stroke:red;stroke-width:1" />
 <line x1="15.1106382978723404" y1="6.14893617021276596" x2="13.7319148936170212" y2="6.37872340425531915" style="stroke:red;stroke-width:1" />
 <line x1="13.7319148936170212" y1="6.37872340425531915" x2="12.7361702127659574" y2="6.45531914893617022" style="stroke:red;stroke-width:1" />
 <line x1="26.1404255319148936" y1="18.7872340425531914" x2="18.4808510638297872" y2="18.7872340425531914" style="stroke:red;stroke-width:1" />
 <line x1="18.4808510638297872" y1="18.7872340425531914" x2="18.4808510638297872" y2="39.4680851063829787" style="stroke:red;stroke-width:1" />
 <line x1="10.0553191489361702" y1="39.4680851063829787" x2="26.1404255319148936" y2="39.4680851063829787" style="stroke:red;stroke-width:1" />
 <line x1="26.1404255319148936" y1="39.4680851063829787" x2="26.1404255319148936" y2="5" style="stroke:red;stroke-width:1" />

</svg>
