<!DOCTYPE svg PUBLIC "-//W3C//DTD SVG 1.1//EN" "http://www.w3.org/Graphics/SVG/1.1/DTD/svg11.dtd">
<svg width="43" height="47" xmlns="http://www.w3.org/2000/svg">
 <!-- Gardiner/Zz376515 at (0,.21782178217821782) in red, scale=.0712871287128712872, mirror=0 -->
 <line x1="5" y1="33.1584158415841584" x2="37.0792079207920792" y2="33.1584158415841584" style="stroke:red;stroke-width:1" />
 <line x1="37.0792079207920792" y1="37.0792079207920792" x2="5" y2="37.0792079207920792" style="stroke:red;stroke-width:1" />
 <line x1="5" y1="41" x2="37.0792079207920792" y2="41" style="stroke:red;stroke-width:1" />
 <line x1="8.92079207920792079" y1="33.1584158415841584" x2="8.92079207920792079" y2="41" style="stroke:red;stroke-width:1" />
 <line x1="14.9801980198019801" y1="33.1584158415841584" x2="14.9801980198019801" y2="41" style="stroke:red;stroke-width:1" />
 <line x1="21.0396039603960396" y1="33.1584158415841584" x2="21.0396039603960396" y2="41" style="stroke:red;stroke-width:1" />
 <line x1="27.099009900990099" y1="33.1584158415841584" x2="27.099009900990099" y2="41" style="stroke:red;stroke-width:1" />
 <line x1="33.1584158415841584" y1="33.1584158415841584" x2="33.1584158415841584" y2="41" style="stroke:red;stroke-width:1" />
 <line x1="36.9366336633663366" y1="16.8336633663366336" x2="5" y2="16.8336633663366336" style="stroke:red;stroke-width:1" />
 <line x1="9.84752475247524752" y1="16.8336633663366336" x2="9.27722772277227723" y2="15.1227722772277227" style="stroke:red;stroke-width:1" />
 <line x1="9.27722772277227723" y1="15.1227722772277227" x2="8.35049504950495049" y2="13.697029702970297" style="stroke:red;stroke-width:1" />
 <line x1="8.35049504950495049" y1="13.697029702970297" x2="6.92475247524752475" y2="12.6277227722772277" style="stroke:red;stroke-width:1" />
 <line x1="6.92475247524752475" y1="12.6277227722772277" x2="5.78415841584158415" y2="12.6277227722772277" style="stroke:red;stroke-width:1" />
 <line x1="5.78415841584158415" y1="12.6277227722772277" x2="5.14257425742574257" y2="13.2693069306930692" style="stroke:red;stroke-width:1" />
 <line x1="5.14257425742574257" y1="13.2693069306930692" x2="5" y2="14.1247524752475247" style="stroke:red;stroke-width:1" />
 <line x1="5" y1="14.1247524752475247" x2="5.28514851485148514" y2="15.5504950495049504" style="stroke:red;stroke-width:1" />
 <line x1="5.28514851485148514" y1="15.5504950495049504" x2="5.71287128712871287" y2="16.8336633663366336" style="stroke:red;stroke-width:1" />
 <line x1="5.71287128712871287" y1="16.8336633663366336" x2="6.99603960396039604" y2="21.1108910891089108" style="stroke:red;stroke-width:1" />
 <line x1="6.99603960396039604" y1="21.1108910891089108" x2="9.27722772277227723" y2="21.1108910891089108" style="stroke:red;stroke-width:1" />
 <line x1="9.27722772277227723" y1="21.1108910891089108" x2="9.84752475247524752" y2="16.8336633663366336" style="stroke:red;stroke-width:1" />
 <line x1="21.0396039603960396" y1="16.8336633663366336" x2="21.0396039603960396" y2="33.1584158415841584" style="stroke:red;stroke-width:1" />
 <line x1="15.8356435643564356" y1="16.8336633663366336" x2="21.0396039603960396" y2="23.6059405940594059" style="stroke:red;stroke-width:1" />
 <line x1="21.0396039603960396" y1="16.8336633663366336" x2="22.6792079207920792" y2="18.9722772277227722" style="stroke:red;stroke-width:1" />
 <line x1="22.6792079207920792" y1="18.9722772277227722" x2="23.7485148514851485" y2="21.2534653465346534" style="stroke:red;stroke-width:1" />
 <line x1="23.7485148514851485" y1="21.2534653465346534" x2="24.6039603960396039" y2="23.392079207920792" style="stroke:red;stroke-width:1" />
 <line x1="24.6039603960396039" y1="23.392079207920792" x2="24.8891089108910891" y2="24.7465346534653465" style="stroke:red;stroke-width:1" />
 <line x1="24.8891089108910891" y1="24.7465346534653465" x2="24.6039603960396039" y2="25.6019801980198019" style="stroke:red;stroke-width:1" />
 <line x1="24.6039603960396039" y1="25.6019801980198019" x2="24.1049504950495049" y2="26.1009900990099009" style="stroke:red;stroke-width:1" />
 <line x1="24.1049504950495049" y1="26.1009900990099009" x2="23.392079207920792" y2="26.1722772277227722" style="stroke:red;stroke-width:1" />
 <line x1="23.392079207920792" y1="26.1722772277227722" x2="22.7504950495049504" y2="25.7445544554455445" style="stroke:red;stroke-width:1" />
 <line x1="22.7504950495049504" y1="25.7445544554455445" x2="23.1782178217821782" y2="27.2415841584158415" style="stroke:red;stroke-width:1" />
 <line x1="23.1782178217821782" y1="27.2415841584158415" x2="23.3207920792079207" y2="28.1683168316831683" style="stroke:red;stroke-width:1" />
 <line x1="23.3207920792079207" y1="28.1683168316831683" x2="23.2495049504950495" y2="28.9524752475247524" style="stroke:red;stroke-width:1" />
 <line x1="23.2495049504950495" y1="28.9524752475247524" x2="22.5366336633663366" y2="29.2376237623762376" style="stroke:red;stroke-width:1" />
 <line x1="22.5366336633663366" y1="29.2376237623762376" x2="21.8237623762376237" y2="28.8811881188118811" style="stroke:red;stroke-width:1" />
 <line x1="21.8237623762376237" y1="28.8811881188118811" x2="21.0396039603960396" y2="28.3108910891089108" style="stroke:red;stroke-width:1" />
 <line x1="9.27722772277227723" y1="5" x2="25.2455445544554455" y2="16.691089108910891" style="stroke:red;stroke-width:1" />
 <line x1="25.2455445544554455" y1="16.691089108910891" x2="28.5247524752475247" y2="14.196039603960396" style="stroke:red;stroke-width:1" />
 <line x1="28.5247524752475247" y1="14.196039603960396" x2="29.095049504950495" y2="13.9821782178217821" style="stroke:red;stroke-width:1" />
 <line x1="29.095049504950495" y1="13.9821782178217821" x2="29.7366336633663366" y2="13.9821782178217821" style="stroke:red;stroke-width:1" />
 <line x1="29.7366336633663366" y1="13.9821782178217821" x2="36.5089108910891089" y2="16.4059405940594059" style="stroke:red;stroke-width:1" />
 <line x1="36.5089108910891089" y1="16.4059405940594059" x2="36.794059405940594" y2="16.192079207920792" style="stroke:red;stroke-width:1" />
 <line x1="36.794059405940594" y1="16.192079207920792" x2="37.0792079207920792" y2="15.8356435643564356" style="stroke:red;stroke-width:1" />
 <line x1="37.0792079207920792" y1="15.8356435643564356" x2="37.0079207920792079" y2="15.3366336633663366" style="stroke:red;stroke-width:1" />
 <line x1="37.0079207920792079" y1="15.3366336633663366" x2="9.27722772277227723" y2="5" style="stroke:red;stroke-width:1" />

</svg>
