<!DOCTYPE svg PUBLIC "-//W3C//DTD SVG 1.1//EN" "http://www.w3.org/Graphics/SVG/1.1/DTD/svg11.dtd">
<svg width="37" height="46" xmlns="http://www.w3.org/2000/svg">
 <!-- Gardiner/Zz376515 at (0,.52459016393442624) in red, scale=.0590163934426229508, mirror=0 -->
 <line x1="5" y1="34.5081967213114752" x2="31.5573770491803278" y2="34.5081967213114752" style="stroke:red;stroke-width:1" />
 <line x1="31.5573770491803278" y1="37.7540983606557375" x2="5" y2="37.7540983606557375" style="stroke:red;stroke-width:1" />
 <line x1="5" y1="40.9999999999999998" x2="31.5573770491803278" y2="40.9999999999999998" style="stroke:red;stroke-width:1" />
 <line x1="8.24590163934426229" y1="34.5081967213114752" x2="8.24590163934426229" y2="40.9999999999999998" style="stroke:red;stroke-width:1" />
 <line x1="13.2622950819672131" y1="34.5081967213114752" x2="13.2622950819672131" y2="40.9999999999999998" style="stroke:red;stroke-width:1" />
 <line x1="18.2786885245901639" y1="34.5081967213114752" x2="18.2786885245901639" y2="40.9999999999999998" style="stroke:red;stroke-width:1" />
 <line x1="23.2950819672131147" y1="34.5081967213114752" x2="23.2950819672131147" y2="40.9999999999999998" style="stroke:red;stroke-width:1" />
 <line x1="28.3114754098360655" y1="34.5081967213114752" x2="28.3114754098360655" y2="40.9999999999999998" style="stroke:red;stroke-width:1" />
 <line x1="31.4393442622950819" y1="20.9934426229508195" x2="5" y2="20.9934426229508195" style="stroke:red;stroke-width:1" />
 <line x1="9.01311475409836065" y1="20.9934426229508195" x2="8.54098360655737704" y2="19.5770491803278687" style="stroke:red;stroke-width:1" />
 <line x1="8.54098360655737704" y1="19.5770491803278687" x2="7.77377049180327868" y2="18.3967213114754097" style="stroke:red;stroke-width:1" />
 <line x1="7.77377049180327868" y1="18.3967213114754097" x2="6.59344262295081967" y2="17.5114754098360654" style="stroke:red;stroke-width:1" />
 <line x1="6.59344262295081967" y1="17.5114754098360654" x2="5.64918032786885245" y2="17.5114754098360654" style="stroke:red;stroke-width:1" />
 <line x1="5.64918032786885245" y1="17.5114754098360654" x2="5.1180327868852459" y2="18.0426229508196719" style="stroke:red;stroke-width:1" />
 <line x1="5.1180327868852459" y1="18.0426229508196719" x2="5" y2="18.7508196721311474" style="stroke:red;stroke-width:1" />
 <line x1="5" y1="18.7508196721311474" x2="5.2360655737704918" y2="19.9311475409836064" style="stroke:red;stroke-width:1" />
 <line x1="5.2360655737704918" y1="19.9311475409836064" x2="5.5901639344262295" y2="20.9934426229508195" style="stroke:red;stroke-width:1" />
 <line x1="5.5901639344262295" y1="20.9934426229508195" x2="6.65245901639344262" y2="24.5344262295081965" style="stroke:red;stroke-width:1" />
 <line x1="6.65245901639344262" y1="24.5344262295081965" x2="8.54098360655737704" y2="24.5344262295081965" style="stroke:red;stroke-width:1" />
 <line x1="8.54098360655737704" y1="24.5344262295081965" x2="9.01311475409836065" y2="20.9934426229508195" style="stroke:red;stroke-width:1" />
 <line x1="18.2786885245901639" y1="20.9934426229508195" x2="18.2786885245901639" y2="34.5081967213114752" style="stroke:red;stroke-width:1" />
 <line x1="13.9704918032786884" y1="20.9934426229508195" x2="18.2786885245901639" y2="26.5999999999999998" style="stroke:red;stroke-width:1" />
 <line x1="18.2786885245901639" y1="20.9934426229508195" x2="19.6360655737704917" y2="22.763934426229508" style="stroke:red;stroke-width:1" />
 <line x1="19.6360655737704917" y1="22.763934426229508" x2="20.521311475409836" y2="24.6524590163934424" style="stroke:red;stroke-width:1" />
 <line x1="20.521311475409836" y1="24.6524590163934424" x2="21.2295081967213114" y2="26.422950819672131" style="stroke:red;stroke-width:1" />
 <line x1="21.2295081967213114" y1="26.422950819672131" x2="21.4655737704918032" y2="27.544262295081967" style="stroke:red;stroke-width:1" />
 <line x1="21.4655737704918032" y1="27.544262295081967" x2="21.2295081967213114" y2="28.2524590163934424" style="stroke:red;stroke-width:1" />
 <line x1="21.2295081967213114" y1="28.2524590163934424" x2="20.8163934426229507" y2="28.6655737704918031" style="stroke:red;stroke-width:1" />
 <line x1="20.8163934426229507" y1="28.6655737704918031" x2="20.2262295081967212" y2="28.724590163934426" style="stroke:red;stroke-width:1" />
 <line x1="20.2262295081967212" y1="28.724590163934426" x2="19.6950819672131147" y2="28.3704918032786883" style="stroke:red;stroke-width:1" />
 <line x1="19.6950819672131147" y1="28.3704918032786883" x2="20.0491803278688524" y2="29.6098360655737703" style="stroke:red;stroke-width:1" />
 <line x1="20.0491803278688524" y1="29.6098360655737703" x2="20.1672131147540983" y2="30.3770491803278687" style="stroke:red;stroke-width:1" />
 <line x1="20.1672131147540983" y1="30.3770491803278687" x2="20.1081967213114753" y2="31.0262295081967211" style="stroke:red;stroke-width:1" />
 <line x1="20.1081967213114753" y1="31.0262295081967211" x2="19.5180327868852458" y2="31.2622950819672129" style="stroke:red;stroke-width:1" />
 <line x1="19.5180327868852458" y1="31.2622950819672129" x2="18.9278688524590163" y2="30.9672131147540982" style="stroke:red;stroke-width:1" />
 <line x1="18.9278688524590163" y1="30.9672131147540982" x2="18.2786885245901639" y2="30.4950819672131146" style="stroke:red;stroke-width:1" />
 <line x1="10.3114754098360655" y1="9.36721311475409835" x2="10.4295081967213114" y2="8.77704918032786885" style="stroke:red;stroke-width:1" />
 <line x1="10.4295081967213114" y1="8.77704918032786885" x2="10.6065573770491803" y2="8.12786885245901639" style="stroke:red;stroke-width:1" />
 <line x1="10.6065573770491803" y1="8.12786885245901639" x2="10.960655737704918" y2="7.53770491803278688" style="stroke:red;stroke-width:1" />
 <line x1="10.960655737704918" y1="7.53770491803278688" x2="11.3147540983606557" y2="7.00655737704918032" style="stroke:red;stroke-width:1" />
 <line x1="11.3147540983606557" y1="7.00655737704918032" x2="11.7868852459016393" y2="6.59344262295081967" style="stroke:red;stroke-width:1" />
 <line x1="11.7868852459016393" y1="6.59344262295081967" x2="12.3180327868852458" y2="6.12131147540983606" style="stroke:red;stroke-width:1" />
 <line x1="12.3180327868852458" y1="6.12131147540983606" x2="12.6721311475409836" y2="5.64918032786885245" style="stroke:red;stroke-width:1" />
 <line x1="12.6721311475409836" y1="5.64918032786885245" x2="13.0262295081967213" y2="5.2360655737704918" style="stroke:red;stroke-width:1" />
 <line x1="13.0262295081967213" y1="5.2360655737704918" x2="13.4983606557377049" y2="5.05901639344262295" style="stroke:red;stroke-width:1" />
 <line x1="13.4983606557377049" y1="5.05901639344262295" x2="13.9704918032786884" y2="5" style="stroke:red;stroke-width:1" />
 <line x1="13.9704918032786884" y1="5" x2="14.3836065573770491" y2="5.17704918032786885" style="stroke:red;stroke-width:1" />
 <line x1="14.3836065573770491" y1="5.17704918032786885" x2="14.6196721311475409" y2="5.5901639344262295" style="stroke:red;stroke-width:1" />
 <line x1="14.6196721311475409" y1="5.5901639344262295" x2="14.6196721311475409" y2="6.12131147540983606" style="stroke:red;stroke-width:1" />
 <line x1="14.6196721311475409" y1="6.12131147540983606" x2="14.3245901639344261" y2="6.82950819672131147" style="stroke:red;stroke-width:1" />
 <line x1="14.3245901639344261" y1="6.82950819672131147" x2="14.0885245901639343" y2="7.41967213114754098" style="stroke:red;stroke-width:1" />
 <line x1="14.0885245901639343" y1="7.41967213114754098" x2="13.9704918032786884" y2="8.06885245901639344" style="stroke:red;stroke-width:1" />
 <line x1="13.9704918032786884" y1="8.06885245901639344" x2="13.9114754098360655" y2="8.59999999999999999" style="stroke:red;stroke-width:1" />
 <line x1="13.9114754098360655" y1="8.59999999999999999" x2="13.9704918032786884" y2="9.01311475409836065" style="stroke:red;stroke-width:1" />
 <line x1="13.9704918032786884" y1="9.01311475409836065" x2="14.2655737704918032" y2="9.36721311475409835" style="stroke:red;stroke-width:1" />
 <line x1="14.2655737704918032" y1="9.36721311475409835" x2="14.7967213114754098" y2="9.48524590163934426" style="stroke:red;stroke-width:1" />
 <line x1="14.7967213114754098" y1="9.48524590163934426" x2="15.5049180327868852" y2="9.48524590163934426" style="stroke:red;stroke-width:1" />
 <line x1="15.5049180327868852" y1="9.48524590163934426" x2="16.0360655737704917" y2="9.24918032786885245" style="stroke:red;stroke-width:1" />
 <line x1="16.0360655737704917" y1="9.24918032786885245" x2="16.6852459016393442" y2="9.01311475409836065" style="stroke:red;stroke-width:1" />
 <line x1="16.6852459016393442" y1="9.01311475409836065" x2="17.3344262295081966" y2="8.9540983606557377" style="stroke:red;stroke-width:1" />
 <line x1="17.3344262295081966" y1="8.9540983606557377" x2="17.8655737704918032" y2="8.9540983606557377" style="stroke:red;stroke-width:1" />
 <line x1="17.8655737704918032" y1="8.9540983606557377" x2="18.3967213114754098" y2="9.01311475409836065" style="stroke:red;stroke-width:1" />
 <line x1="18.3967213114754098" y1="9.01311475409836065" x2="19.1639344262295081" y2="9.3081967213114754" style="stroke:red;stroke-width:1" />
 <line x1="19.1639344262295081" y1="9.3081967213114754" x2="20.1672131147540983" y2="9.72131147540983606" style="stroke:red;stroke-width:1" />
 <line x1="20.1672131147540983" y1="9.72131147540983606" x2="21.2295081967213114" y2="10.2524590163934426" style="stroke:red;stroke-width:1" />
 <line x1="21.2295081967213114" y1="10.2524590163934426" x2="22.4098360655737704" y2="10.7836065573770491" style="stroke:red;stroke-width:1" />
 <line x1="22.4098360655737704" y1="10.7836065573770491" x2="23.7081967213114753" y2="11.4918032786885245" style="stroke:red;stroke-width:1" />
 <line x1="23.7081967213114753" y1="11.4918032786885245" x2="24.7704918032786884" y2="12.140983606557377" style="stroke:red;stroke-width:1" />
 <line x1="24.7704918032786884" y1="12.140983606557377" x2="25.5377049180327868" y2="12.6721311475409836" style="stroke:red;stroke-width:1" />
 <line x1="25.5377049180327868" y1="12.6721311475409836" x2="26.1278688524590163" y2="13.262295081967213" style="stroke:red;stroke-width:1" />
 <line x1="26.1278688524590163" y1="13.262295081967213" x2="25.4196721311475409" y2="13.262295081967213" style="stroke:red;stroke-width:1" />
 <line x1="25.4196721311475409" y1="13.262295081967213" x2="24.5934426229508196" y2="13.20327868852459" style="stroke:red;stroke-width:1" />
 <line x1="24.5934426229508196" y1="13.20327868852459" x2="23.6491803278688524" y2="13.0262295081967212" style="stroke:red;stroke-width:1" />
 <line x1="23.6491803278688524" y1="13.0262295081967212" x2="22.2918032786885245" y2="12.7311475409836065" style="stroke:red;stroke-width:1" />
 <line x1="22.2918032786885245" y1="12.7311475409836065" x2="20.7573770491803278" y2="12.4360655737704918" style="stroke:red;stroke-width:1" />
 <line x1="20.7573770491803278" y1="12.4360655737704918" x2="19.3999999999999999" y2="12.0229508196721311" style="stroke:red;stroke-width:1" />
 <line x1="19.3999999999999999" y1="12.0229508196721311" x2="18.3377049180327868" y2="11.6688524590163934" style="stroke:red;stroke-width:1" />
 <line x1="18.3377049180327868" y1="11.6688524590163934" x2="17.4524590163934425" y2="11.1967213114754098" style="stroke:red;stroke-width:1" />
 <line x1="17.4524590163934425" y1="11.1967213114754098" x2="16.921311475409836" y2="10.7245901639344262" style="stroke:red;stroke-width:1" />
 <line x1="16.921311475409836" y1="10.7245901639344262" x2="16.921311475409836" y2="10.3704918032786885" style="stroke:red;stroke-width:1" />
 <line x1="16.921311475409836" y1="10.3704918032786885" x2="17.4524590163934425" y2="10.1934426229508196" style="stroke:red;stroke-width:1" />
 <line x1="17.4524590163934425" y1="10.1934426229508196" x2="18.1606557377049179" y2="10.0163934426229508" style="stroke:red;stroke-width:1" />
 <line x1="25.3606557377049179" y1="13.262295081967213" x2="26.0098360655737704" y2="13.7344262295081965" style="stroke:red;stroke-width:1" />
 <line x1="26.0098360655737704" y1="13.7344262295081965" x2="25.301639344262295" y2="13.9704918032786883" style="stroke:red;stroke-width:1" />
 <line x1="25.301639344262295" y1="13.9704918032786883" x2="24.7114754098360655" y2="13.9704918032786883" style="stroke:red;stroke-width:1" />
 <line x1="24.7114754098360655" y1="13.9704918032786883" x2="23.8262295081967212" y2="13.4983606557377048" style="stroke:red;stroke-width:1" />
 <line x1="23.8262295081967212" y1="13.4983606557377048" x2="23.3540983606557376" y2="13.3803278688524589" style="stroke:red;stroke-width:1" />
 <line x1="23.3540983606557376" y1="13.3803278688524589" x2="22.940983606557377" y2="13.3213114754098359" style="stroke:red;stroke-width:1" />
 <line x1="22.940983606557377" y1="13.3213114754098359" x2="22.5278688524590163" y2="13.4393442622950818" style="stroke:red;stroke-width:1" />
 <line x1="22.5278688524590163" y1="13.4393442622950818" x2="21.7606557377049179" y2="13.5573770491803277" style="stroke:red;stroke-width:1" />
 <line x1="21.7606557377049179" y1="13.5573770491803277" x2="21.1704918032786884" y2="13.6163934426229506" style="stroke:red;stroke-width:1" />
 <line x1="21.1704918032786884" y1="13.6163934426229506" x2="20.4032786885245901" y2="13.6754098360655736" style="stroke:red;stroke-width:1" />
 <line x1="20.4032786885245901" y1="13.6754098360655736" x2="19.7540983606557376" y2="13.6163934426229506" style="stroke:red;stroke-width:1" />
 <line x1="19.7540983606557376" y1="13.6163934426229506" x2="19.3999999999999999" y2="13.5573770491803277" style="stroke:red;stroke-width:1" />
 <line x1="19.3999999999999999" y1="13.5573770491803277" x2="18.8688524590163934" y2="13.3803278688524589" style="stroke:red;stroke-width:1" />
 <line x1="18.8688524590163934" y1="13.3803278688524589" x2="18.3377049180327868" y2="13.0262295081967212" style="stroke:red;stroke-width:1" />
 <line x1="19.7540983606557376" y1="13.6163934426229506" x2="20.3442622950819671" y2="20.8754098360655736" style="stroke:red;stroke-width:1" />
 <line x1="21.5836065573770491" y1="20.8754098360655736" x2="18.3967213114754098" y2="20.8754098360655736" style="stroke:red;stroke-width:1" />
 <line x1="17.6885245901639343" y1="20.9344262295081965" x2="14.442622950819672" y2="20.9344262295081965" style="stroke:red;stroke-width:1" />
 <line x1="16.4491803278688524" y1="20.9344262295081965" x2="19.3999999999999999" y2="13.6163934426229506" style="stroke:red;stroke-width:1" />
 <line x1="19.9311475409836065" y1="15.1508196721311474" x2="19.5770491803278688" y2="14.6196721311475408" style="stroke:red;stroke-width:1" />
 <line x1="19.5770491803278688" y1="14.6196721311475408" x2="19.1049180327868852" y2="14.2655737704918031" style="stroke:red;stroke-width:1" />
 <line x1="18.7508196721311475" y1="15.0327868852459015" x2="18.5737704918032786" y2="14.2655737704918031" style="stroke:red;stroke-width:1" />
 <line x1="18.5737704918032786" y1="14.2655737704918031" x2="18.2196721311475409" y2="13.6754098360655736" style="stroke:red;stroke-width:1" />
 <line x1="18.2196721311475409" y1="13.6754098360655736" x2="17.8655737704918032" y2="13.20327868852459" style="stroke:red;stroke-width:1" />
 <line x1="17.8655737704918032" y1="13.20327868852459" x2="16.0950819672131147" y2="11.6098360655737704" style="stroke:red;stroke-width:1" />
 <line x1="16.0950819672131147" y1="11.6098360655737704" x2="15.3868852459016393" y2="11.0786885245901639" style="stroke:red;stroke-width:1" />
 <line x1="15.3868852459016393" y1="11.0786885245901639" x2="14.7377049180327868" y2="10.6655737704918032" style="stroke:red;stroke-width:1" />
 <line x1="14.7377049180327868" y1="10.6655737704918032" x2="14.0885245901639343" y2="10.3704918032786885" style="stroke:red;stroke-width:1" />
 <line x1="14.0885245901639343" y1="10.3704918032786885" x2="13.6163934426229507" y2="9.89836065573770491" style="stroke:red;stroke-width:1" />
 <line x1="13.6163934426229507" y1="9.89836065573770491" x2="13.4393442622950819" y2="9.48524590163934426" style="stroke:red;stroke-width:1" />
 <line x1="13.4393442622950819" y1="9.48524590163934426" x2="13.4393442622950819" y2="8.9540983606557377" style="stroke:red;stroke-width:1" />
 <line x1="13.4393442622950819" y1="8.9540983606557377" x2="13.6163934426229507" y2="8.24590163934426229" style="stroke:red;stroke-width:1" />
 <line x1="13.6163934426229507" y1="8.24590163934426229" x2="13.7934426229508196" y2="7.47868852459016393" style="stroke:red;stroke-width:1" />
 <line x1="13.7934426229508196" y1="7.47868852459016393" x2="13.8524590163934425" y2="7.00655737704918032" style="stroke:red;stroke-width:1" />
 <line x1="13.8524590163934425" y1="7.00655737704918032" x2="13.6754098360655737" y2="6.65245901639344262" style="stroke:red;stroke-width:1" />
 <line x1="13.6754098360655737" y1="6.65245901639344262" x2="13.1442622950819672" y2="6.35737704918032786" style="stroke:red;stroke-width:1" />
 <line x1="13.1442622950819672" y1="6.35737704918032786" x2="12.3180327868852458" y2="6.18032786885245901" style="stroke:red;stroke-width:1" />
 <path d="M 13.2032786885245901 5.76721311475409836
          A .236065573770491803 .236065573770491803 0 1 0 13.6754098360655737 5.76721311475409836
          A .236065573770491803 .236065573770491803 0 1 0 13.2032786885245901 5.76721311475409836"
       stroke="red" fill="white" stroke-width="1" fill-opacity="0.0"/>

</svg>
