<!DOCTYPE svg PUBLIC "-//W3C//DTD SVG 1.1//EN" "http://www.w3.org/Graphics/SVG/1.1/DTD/svg11.dtd">
<svg width="46" height="44" xmlns="http://www.w3.org/2000/svg">
 <!-- Gardiner/Zz376515 at (0,12.8) in red, scale=.08, mirror=0 -->
 <line x1="40.84" y1="19.6" x2="10.44" y2="19.76" style="stroke:red;stroke-width:1" />
 <line x1="10.44" y1="19.76" x2="9.8" y2="17.76" style="stroke:red;stroke-width:1" />
 <line x1="9.8" y1="17.76" x2="8.76" y2="16.16" style="stroke:red;stroke-width:1" />
 <line x1="8.76" y1="16.16" x2="7.16" y2="14.96" style="stroke:red;stroke-width:1" />
 <line x1="7.16" y1="14.96" x2="5.88" y2="14.8" style="stroke:red;stroke-width:1" />
 <line x1="5.88" y1="14.8" x2="5.16" y2="15.68" style="stroke:red;stroke-width:1" />
 <line x1="5.16" y1="15.68" x2="5" y2="16.64" style="stroke:red;stroke-width:1" />
 <line x1="5" y1="16.64" x2="5.32" y2="18.24" style="stroke:red;stroke-width:1" />
 <line x1="5.32" y1="18.24" x2="5.8" y2="19.84" style="stroke:red;stroke-width:1" />
 <line x1="5.8" y1="19.84" x2="5.88" y2="19.92" style="stroke:red;stroke-width:1" />
 <line x1="5.88" y1="19.92" x2="7.24" y2="24.56" style="stroke:red;stroke-width:1" />
 <line x1="7.24" y1="24.56" x2="9.8" y2="24.48" style="stroke:red;stroke-width:1" />
 <line x1="9.8" y1="24.48" x2="10.44" y2="19.76" style="stroke:red;stroke-width:1" />
 <line x1="22.68" y1="19.76" x2="22.76" y2="38" style="stroke:red;stroke-width:1" />
 <line x1="16.76" y1="19.76" x2="22.68" y2="27.28" style="stroke:red;stroke-width:1" />
 <line x1="22.6" y1="19.76" x2="24.44" y2="22.08" style="stroke:red;stroke-width:1" />
 <line x1="24.44" y1="22.08" x2="25.64" y2="24.64" style="stroke:red;stroke-width:1" />
 <line x1="25.64" y1="24.64" x2="26.6" y2="27.04" style="stroke:red;stroke-width:1" />
 <line x1="26.6" y1="27.04" x2="26.92" y2="28.56" style="stroke:red;stroke-width:1" />
 <line x1="26.92" y1="28.56" x2="26.6" y2="29.52" style="stroke:red;stroke-width:1" />
 <line x1="26.6" y1="29.52" x2="26.04" y2="30.08" style="stroke:red;stroke-width:1" />
 <line x1="26.04" y1="30.08" x2="25.24" y2="30.16" style="stroke:red;stroke-width:1" />
 <line x1="25.24" y1="30.16" x2="24.52" y2="29.68" style="stroke:red;stroke-width:1" />
 <line x1="24.52" y1="29.68" x2="25" y2="31.36" style="stroke:red;stroke-width:1" />
 <line x1="25" y1="31.36" x2="25.16" y2="32.4" style="stroke:red;stroke-width:1" />
 <line x1="25.16" y1="32.4" x2="25.08" y2="33.28" style="stroke:red;stroke-width:1" />
 <line x1="25.08" y1="33.28" x2="24.28" y2="33.6" style="stroke:red;stroke-width:1" />
 <line x1="24.28" y1="33.6" x2="23.48" y2="33.2" style="stroke:red;stroke-width:1" />
 <line x1="23.48" y1="33.2" x2="22.68" y2="32.56" style="stroke:red;stroke-width:1" />

</svg>
