<!DOCTYPE svg PUBLIC "-//W3C//DTD SVG 1.1//EN" "http://www.w3.org/Graphics/SVG/1.1/DTD/svg11.dtd">
<svg width="37" height="47" xmlns="http://www.w3.org/2000/svg">
 <!-- Gardiner/Zz376515 at (0,.53658536585365854) in red, scale=.0585365853658536588, mirror=0 -->
 <line x1="5" y1="34.7951219512195121" x2="31.3414634146341464" y2="34.7951219512195121" style="stroke:red;stroke-width:1" />
 <line x1="31.3414634146341464" y1="38.0146341463414634" x2="5" y2="38.0146341463414634" style="stroke:red;stroke-width:1" />
 <line x1="5" y1="41.2341463414634146" x2="31.3414634146341464" y2="41.2341463414634146" style="stroke:red;stroke-width:1" />
 <line x1="8.21951219512195123" y1="34.7951219512195121" x2="8.21951219512195123" y2="41.2341463414634146" style="stroke:red;stroke-width:1" />
 <line x1="13.1951219512195122" y1="34.7951219512195121" x2="13.1951219512195122" y2="41.2341463414634146" style="stroke:red;stroke-width:1" />
 <line x1="18.1707317073170732" y1="34.7951219512195121" x2="18.1707317073170732" y2="41.2341463414634146" style="stroke:red;stroke-width:1" />
 <line x1="23.1463414634146341" y1="34.7951219512195121" x2="23.1463414634146341" y2="41.2341463414634146" style="stroke:red;stroke-width:1" />
 <line x1="28.1219512195121951" y1="34.7951219512195121" x2="28.1219512195121951" y2="41.2341463414634146" style="stroke:red;stroke-width:1" />
 <line x1="31.2243902439024391" y1="21.3902439024390243" x2="5" y2="21.3902439024390243" style="stroke:red;stroke-width:1" />
 <line x1="8.98048780487804879" y1="21.3902439024390243" x2="8.51219512195121952" y2="19.9853658536585365" style="stroke:red;stroke-width:1" />
 <line x1="8.51219512195121952" y1="19.9853658536585365" x2="7.75121951219512196" y2="18.8146341463414633" style="stroke:red;stroke-width:1" />
 <line x1="7.75121951219512196" y1="18.8146341463414633" x2="6.58048780487804878" y2="17.9365853658536584" style="stroke:red;stroke-width:1" />
 <line x1="6.58048780487804878" y1="17.9365853658536584" x2="5.64390243902439024" y2="17.9365853658536584" style="stroke:red;stroke-width:1" />
 <line x1="5.64390243902439024" y1="17.9365853658536584" x2="5.11707317073170731" y2="18.4634146341463413" style="stroke:red;stroke-width:1" />
 <line x1="5.11707317073170731" y1="18.4634146341463413" x2="5" y2="19.1658536585365852" style="stroke:red;stroke-width:1" />
 <line x1="5" y1="19.1658536585365852" x2="5.23414634146341463" y2="20.3365853658536584" style="stroke:red;stroke-width:1" />
 <line x1="5.23414634146341463" y1="20.3365853658536584" x2="5.58536585365853658" y2="21.3902439024390243" style="stroke:red;stroke-width:1" />
 <line x1="5.58536585365853658" y1="21.3902439024390243" x2="6.63902439024390244" y2="24.9024390243902438" style="stroke:red;stroke-width:1" />
 <line x1="6.63902439024390244" y1="24.9024390243902438" x2="8.51219512195121952" y2="24.9024390243902438" style="stroke:red;stroke-width:1" />
 <line x1="8.51219512195121952" y1="24.9024390243902438" x2="8.98048780487804879" y2="21.3902439024390243" style="stroke:red;stroke-width:1" />
 <line x1="18.1707317073170732" y1="21.3902439024390243" x2="18.1707317073170732" y2="34.7951219512195121" style="stroke:red;stroke-width:1" />
 <line x1="13.8975609756097561" y1="21.3902439024390243" x2="18.1707317073170732" y2="26.9512195121951219" style="stroke:red;stroke-width:1" />
 <line x1="18.1707317073170732" y1="21.3902439024390243" x2="19.5170731707317073" y2="23.146341463414634" style="stroke:red;stroke-width:1" />
 <line x1="19.5170731707317073" y1="23.146341463414634" x2="20.3951219512195122" y2="25.0195121951219511" style="stroke:red;stroke-width:1" />
 <line x1="20.3951219512195122" y1="25.0195121951219511" x2="21.0975609756097561" y2="26.7756097560975609" style="stroke:red;stroke-width:1" />
 <line x1="21.0975609756097561" y1="26.7756097560975609" x2="21.3317073170731707" y2="27.8878048780487804" style="stroke:red;stroke-width:1" />
 <line x1="21.3317073170731707" y1="27.8878048780487804" x2="21.0975609756097561" y2="28.5902439024390243" style="stroke:red;stroke-width:1" />
 <line x1="21.0975609756097561" y1="28.5902439024390243" x2="20.6878048780487805" y2="28.9999999999999999" style="stroke:red;stroke-width:1" />
 <line x1="20.6878048780487805" y1="28.9999999999999999" x2="20.1024390243902439" y2="29.0585365853658536" style="stroke:red;stroke-width:1" />
 <line x1="20.1024390243902439" y1="29.0585365853658536" x2="19.575609756097561" y2="28.7073170731707316" style="stroke:red;stroke-width:1" />
 <line x1="19.575609756097561" y1="28.7073170731707316" x2="19.9268292682926829" y2="29.9365853658536585" style="stroke:red;stroke-width:1" />
 <line x1="19.9268292682926829" y1="29.9365853658536585" x2="20.0439024390243902" y2="30.697560975609756" style="stroke:red;stroke-width:1" />
 <line x1="20.0439024390243902" y1="30.697560975609756" x2="19.9853658536585366" y2="31.3414634146341463" style="stroke:red;stroke-width:1" />
 <line x1="19.9853658536585366" y1="31.3414634146341463" x2="19.4" y2="31.5756097560975609" style="stroke:red;stroke-width:1" />
 <line x1="19.4" y1="31.5756097560975609" x2="18.8146341463414634" y2="31.2829268292682926" style="stroke:red;stroke-width:1" />
 <line x1="18.8146341463414634" y1="31.2829268292682926" x2="18.1707317073170732" y2="30.8146341463414634" style="stroke:red;stroke-width:1" />
 <line x1="20.1609756097560975" y1="5.40975609756097561" x2="12.375609756097561" y2="20.3951219512195121" style="stroke:red;stroke-width:1" />
 <line x1="11.7902439024390244" y1="21.3317073170731706" x2="12.1414634146341463" y2="19.2829268292682926" style="stroke:red;stroke-width:1" />
 <line x1="12.1414634146341463" y1="19.2829268292682926" x2="12.3170731707317073" y2="20.3951219512195121" style="stroke:red;stroke-width:1" />
 <line x1="12.3170731707317073" y1="20.3951219512195121" x2="13.3121951219512195" y2="20.0439024390243901" style="stroke:red;stroke-width:1" />
 <line x1="13.3121951219512195" y1="20.0439024390243901" x2="11.848780487804878" y2="21.3317073170731706" style="stroke:red;stroke-width:1" />
 <line x1="20.8634146341463415" y1="5.81951219512195122" x2="19.9268292682926829" y2="6.05365853658536585" style="stroke:red;stroke-width:1" />
 <line x1="19.9268292682926829" y1="6.05365853658536585" x2="19.7512195121951219" y2="5" style="stroke:red;stroke-width:1" />
 <line x1="20.5707317073170732" y1="6.52195121951219512" x2="19.5170731707317073" y2="6.81463414634146342" style="stroke:red;stroke-width:1" />
 <line x1="19.5170731707317073" y1="6.81463414634146342" x2="19.3414634146341463" y2="5.64390243902439024" style="stroke:red;stroke-width:1" />
 <line x1="20.2195121951219512" y1="7.28292682926829269" x2="19.048780487804878" y2="7.51707317073170732" style="stroke:red;stroke-width:1" />
 <line x1="19.048780487804878" y1="7.51707317073170732" x2="18.9317073170731707" y2="6.40487804878048781" style="stroke:red;stroke-width:1" />
 <line x1="19.7512195121951219" y1="7.98536585365853659" x2="18.6975609756097561" y2="8.21951219512195123" style="stroke:red;stroke-width:1" />
 <line x1="18.6975609756097561" y1="8.21951219512195123" x2="18.4634146341463414" y2="7.16585365853658537" style="stroke:red;stroke-width:1" />
 <line x1="9.80000000000000002" y1="5.40975609756097561" x2="17.6439024390243902" y2="20.3365853658536584" style="stroke:red;stroke-width:1" />
 <line x1="18.1121951219512195" y1="21.3317073170731706" x2="17.8195121951219512" y2="19.2829268292682926" style="stroke:red;stroke-width:1" />
 <line x1="17.8195121951219512" y1="19.2829268292682926" x2="17.6439024390243902" y2="20.3951219512195121" style="stroke:red;stroke-width:1" />
 <line x1="17.6439024390243902" y1="20.3951219512195121" x2="16.7073170731707317" y2="20.0439024390243901" style="stroke:red;stroke-width:1" />
 <line x1="16.7073170731707317" y1="20.0439024390243901" x2="18.1121951219512195" y2="21.3317073170731706" style="stroke:red;stroke-width:1" />
 <line x1="9.15609756097560977" y1="5.81951219512195122" x2="10.0926829268292683" y2="6.05365853658536585" style="stroke:red;stroke-width:1" />
 <line x1="10.0926829268292683" y1="6.05365853658536585" x2="10.2682926829268292" y2="5" style="stroke:red;stroke-width:1" />
 <line x1="9.39024390243902441" y1="6.52195121951219512" x2="10.4439024390243902" y2="6.81463414634146342" style="stroke:red;stroke-width:1" />
 <line x1="10.4439024390243902" y1="6.81463414634146342" x2="10.6780487804878049" y2="5.64390243902439024" style="stroke:red;stroke-width:1" />
 <line x1="9.80000000000000002" y1="7.28292682926829269" x2="10.9121951219512195" y2="7.51707317073170732" style="stroke:red;stroke-width:1" />
 <line x1="10.9121951219512195" y1="7.51707317073170732" x2="11.0292682926829268" y2="6.40487804878048781" style="stroke:red;stroke-width:1" />
 <line x1="10.2682926829268292" y1="7.98536585365853659" x2="11.2634146341463414" y2="8.21951219512195123" style="stroke:red;stroke-width:1" />
 <line x1="11.2634146341463414" y1="8.21951219512195123" x2="11.5560975609756097" y2="7.16585365853658537" style="stroke:red;stroke-width:1" />
 <line x1="18.1121951219512195" y1="21.3317073170731706" x2="18.1121951219512195" y2="9.56585365853658538" style="stroke:red;stroke-width:1" />
 <line x1="18.1121951219512195" y1="9.56585365853658538" x2="17.8780487804878049" y2="8.80487804878048782" style="stroke:red;stroke-width:1" />
 <line x1="17.8780487804878049" y1="8.80487804878048782" x2="17.4097560975609756" y2="8.04390243902439025" style="stroke:red;stroke-width:1" />
 <line x1="17.4097560975609756" y1="8.04390243902439025" x2="16.7658536585365853" y2="7.57560975609756098" style="stroke:red;stroke-width:1" />
 <line x1="16.7658536585365853" y1="7.57560975609756098" x2="16.1219512195121951" y2="7.28292682926829269" style="stroke:red;stroke-width:1" />
 <line x1="16.1219512195121951" y1="7.28292682926829269" x2="14.9512195121951219" y2="7.16585365853658537" style="stroke:red;stroke-width:1" />
 <line x1="14.9512195121951219" y1="7.16585365853658537" x2="14.0146341463414634" y2="7.22439024390243903" style="stroke:red;stroke-width:1" />
 <line x1="14.0146341463414634" y1="7.22439024390243903" x2="13.3121951219512195" y2="7.45853658536585366" style="stroke:red;stroke-width:1" />
 <line x1="13.3121951219512195" y1="7.45853658536585366" x2="12.7853658536585366" y2="7.80975609756097562" style="stroke:red;stroke-width:1" />
 <line x1="12.7853658536585366" y1="7.80975609756097562" x2="12.375609756097561" y2="8.33658536585365855" style="stroke:red;stroke-width:1" />
 <line x1="12.375609756097561" y1="8.33658536585365855" x2="11.9658536585365853" y2="8.86341463414634148" style="stroke:red;stroke-width:1" />
 <line x1="11.9658536585365853" y1="8.86341463414634148" x2="11.7902439024390244" y2="9.44878048780487806" style="stroke:red;stroke-width:1" />
 <line x1="11.7902439024390244" y1="9.44878048780487806" x2="11.7902439024390244" y2="21.3317073170731706" style="stroke:red;stroke-width:1" />
 <line x1="11.7902439024390244" y1="21.3317073170731706" x2="18.1121951219512195" y2="21.3317073170731706" style="stroke:red;stroke-width:1" />
 <line x1="30.2878048780487805" y1="14.1902439024390243" x2="29.5853658536585366" y2="13.9560975609756096" style="stroke:red;stroke-width:1" />
 <line x1="29.5853658536585366" y1="13.9560975609756096" x2="28.8243902439024391" y2="13.721951219512195" style="stroke:red;stroke-width:1" />
 <line x1="28.8243902439024391" y1="13.721951219512195" x2="27.9463414634146342" y2="13.546341463414634" style="stroke:red;stroke-width:1" />
 <line x1="27.9463414634146342" y1="13.546341463414634" x2="27.0097560975609756" y2="13.3707317073170731" style="stroke:red;stroke-width:1" />
 <line x1="27.0097560975609756" y1="13.3707317073170731" x2="26.424390243902439" y2="13.2536585365853658" style="stroke:red;stroke-width:1" />
 <line x1="26.424390243902439" y1="13.2536585365853658" x2="25.8975609756097561" y2="13.2536585365853658" style="stroke:red;stroke-width:1" />
 <line x1="25.8975609756097561" y1="13.2536585365853658" x2="25.4292682926829268" y2="13.1951219512195121" style="stroke:red;stroke-width:1" />
 <line x1="25.4292682926829268" y1="13.1951219512195121" x2="24.8439024390243903" y2="13.2536585365853658" style="stroke:red;stroke-width:1" />
 <line x1="24.8439024390243903" y1="13.2536585365853658" x2="24.1414634146341463" y2="13.3707317073170731" style="stroke:red;stroke-width:1" />
 <line x1="24.1414634146341463" y1="13.3707317073170731" x2="23.3219512195121951" y2="13.4292682926829267" style="stroke:red;stroke-width:1" />
 <line x1="23.3219512195121951" y1="13.4292682926829267" x2="22.7365853658536585" y2="13.546341463414634" style="stroke:red;stroke-width:1" />
 <line x1="22.7365853658536585" y1="13.546341463414634" x2="21.975609756097561" y2="13.6048780487804877" style="stroke:red;stroke-width:1" />
 <path d="M 20.7463414634146342 13.897560975609756
          A .643902439024390246 .643902439024390246 0 1 0 22.0341463414634146 13.897560975609756
          A .643902439024390246 .643902439024390246 0 1 0 20.7463414634146342 13.897560975609756"
       stroke="red" fill="white" stroke-width="1" fill-opacity="0.0"/>
 <line x1="20.8634146341463415" y1="13.546341463414634" x2="19.4" y2="13.1951219512195121" style="stroke:red;stroke-width:1" />
 <line x1="19.4" y1="13.1951219512195121" x2="19.8097560975609756" y2="14.7170731707317072" style="stroke:red;stroke-width:1" />
 <line x1="19.8097560975609756" y1="14.7170731707317072" x2="20.8634146341463415" y2="14.3073170731707316" style="stroke:red;stroke-width:1" />
 <line x1="21.975609756097561" y1="14.1902439024390243" x2="22.5609756097560976" y2="14.3073170731707316" style="stroke:red;stroke-width:1" />
 <line x1="22.5609756097560976" y1="14.3073170731707316" x2="23.0878048780487805" y2="14.4243902439024389" style="stroke:red;stroke-width:1" />
 <line x1="23.0878048780487805" y1="14.4243902439024389" x2="23.7902439024390244" y2="14.5414634146341462" style="stroke:red;stroke-width:1" />
 <line x1="23.7902439024390244" y1="14.5414634146341462" x2="24.551219512195122" y2="14.5999999999999999" style="stroke:red;stroke-width:1" />
 <line x1="24.551219512195122" y1="14.5999999999999999" x2="25.3707317073170732" y2="14.5999999999999999" style="stroke:red;stroke-width:1" />
 <line x1="25.3707317073170732" y1="14.5999999999999999" x2="26.1317073170731707" y2="14.5414634146341462" style="stroke:red;stroke-width:1" />
 <line x1="26.1317073170731707" y1="14.5414634146341462" x2="26.8341463414634147" y2="14.4829268292682925" style="stroke:red;stroke-width:1" />
 <line x1="26.8341463414634147" y1="14.4829268292682925" x2="27.4195121951219512" y2="14.4243902439024389" style="stroke:red;stroke-width:1" />
 <line x1="27.4195121951219512" y1="14.4243902439024389" x2="27.8292682926829269" y2="14.3658536585365852" style="stroke:red;stroke-width:1" />
 <line x1="27.8292682926829269" y1="14.3658536585365852" x2="28.1219512195121951" y2="14.4243902439024389" style="stroke:red;stroke-width:1" />
 <line x1="28.1219512195121951" y1="14.4243902439024389" x2="28.3560975609756098" y2="14.4829268292682925" style="stroke:red;stroke-width:1" />
 <line x1="28.3560975609756098" y1="14.4829268292682925" x2="28.5317073170731708" y2="14.5999999999999999" style="stroke:red;stroke-width:1" />
 <line x1="28.5317073170731708" y1="14.5999999999999999" x2="28.7658536585365854" y2="14.7756097560975608" style="stroke:red;stroke-width:1" />
 <line x1="28.7658536585365854" y1="14.7756097560975608" x2="28.9414634146341464" y2="15.0682926829268291" style="stroke:red;stroke-width:1" />
 <line x1="28.9414634146341464" y1="15.0682926829268291" x2="29.1170731707317073" y2="15.3609756097560974" style="stroke:red;stroke-width:1" />
 <line x1="29.1170731707317073" y1="15.3609756097560974" x2="29.2926829268292683" y2="15.770731707317073" style="stroke:red;stroke-width:1" />
 <line x1="29.2926829268292683" y1="15.770731707317073" x2="29.4682926829268293" y2="16.3560975609756096" style="stroke:red;stroke-width:1" />
 <line x1="29.4682926829268293" y1="16.3560975609756096" x2="29.7024390243902439" y2="17.1756097560975609" style="stroke:red;stroke-width:1" />
 <line x1="29.7024390243902439" y1="17.1756097560975609" x2="29.9365853658536586" y2="17.8780487804878048" style="stroke:red;stroke-width:1" />
 <line x1="29.9365853658536586" y1="17.8780487804878048" x2="30.1121951219512195" y2="18.521951219512195" style="stroke:red;stroke-width:1" />
 <line x1="30.1121951219512195" y1="18.521951219512195" x2="30.3463414634146342" y2="19.1658536585365852" style="stroke:red;stroke-width:1" />
 <line x1="30.3463414634146342" y1="19.1658536585365852" x2="30.5804878048780488" y2="19.5170731707317072" style="stroke:red;stroke-width:1" />
 <line x1="30.5804878048780488" y1="19.5170731707317072" x2="30.7560975609756098" y2="19.8682926829268292" style="stroke:red;stroke-width:1" />
 <line x1="30.7560975609756098" y1="19.8682926829268292" x2="31.1073170731707317" y2="20.2195121951219511" style="stroke:red;stroke-width:1" />
 <line x1="31.1073170731707317" y1="20.2195121951219511" x2="30.8146341463414635" y2="19.8682926829268292" style="stroke:red;stroke-width:1" />
 <line x1="30.8146341463414635" y1="19.8682926829268292" x2="30.6390243902439025" y2="19.5756097560975609" style="stroke:red;stroke-width:1" />
 <line x1="30.6390243902439025" y1="19.5756097560975609" x2="30.4634146341463415" y2="19.2243902439024389" style="stroke:red;stroke-width:1" />
 <line x1="30.4634146341463415" y1="19.2243902439024389" x2="30.3463414634146342" y2="18.8146341463414633" style="stroke:red;stroke-width:1" />
 <line x1="30.3463414634146342" y1="18.8146341463414633" x2="30.2292682926829269" y2="18.2878048780487804" style="stroke:red;stroke-width:1" />
 <line x1="30.2292682926829269" y1="18.2878048780487804" x2="30.1707317073170732" y2="17.8195121951219511" style="stroke:red;stroke-width:1" />
 <line x1="30.1707317073170732" y1="17.8195121951219511" x2="30.1121951219512195" y2="17.1170731707317072" style="stroke:red;stroke-width:1" />
 <line x1="30.1121951219512195" y1="17.1170731707317072" x2="29.9951219512195122" y2="16.3560975609756096" style="stroke:red;stroke-width:1" />
 <line x1="29.9951219512195122" y1="16.3560975609756096" x2="29.8780487804878049" y2="15.7121951219512194" style="stroke:red;stroke-width:1" />
 <line x1="29.8780487804878049" y1="15.7121951219512194" x2="29.7024390243902439" y2="15.0682926829268291" style="stroke:red;stroke-width:1" />
 <line x1="29.7024390243902439" y1="15.0682926829268291" x2="29.4682926829268293" y2="14.5414634146341462" style="stroke:red;stroke-width:1" />
 <line x1="29.4682926829268293" y1="14.5414634146341462" x2="29.2926829268292683" y2="14.1902439024390243" style="stroke:red;stroke-width:1" />
 <line x1="29.2926829268292683" y1="14.1902439024390243" x2="29.1170731707317073" y2="13.9560975609756096" style="stroke:red;stroke-width:1" />
 <line x1="29.1170731707317073" y1="13.9560975609756096" x2="28.8243902439024391" y2="13.721951219512195" style="stroke:red;stroke-width:1" />
 <line x1="21.7414634146341463" y1="19.7512195121951218" x2="27.2439024390243903" y2="19.7512195121951218" style="stroke:red;stroke-width:1" />
 <path d="M 27.2439024390243902 19.7512195121951218
          A 2.75121951219512196 2.75121951219512196 0 1 0 21.7414634146341464 19.7512195121951218"
       stroke="red" fill="white" stroke-width="1" fill-opacity="0.0"/>

</svg>
