<!DOCTYPE svg PUBLIC "-//W3C//DTD SVG 1.1//EN" "http://www.w3.org/Graphics/SVG/1.1/DTD/svg11.dtd">
<svg width="35" height="47" xmlns="http://www.w3.org/2000/svg">
 <!-- Gardiner/Zz376515 at (0,.6153846153846154) in red, scale=.0553846153846153844, mirror=0 -->
 <line x1="5" y1="35.0184615384615382" x2="29.9230769230769228" y2="35.0184615384615382" style="stroke:red;stroke-width:1" />
 <line x1="29.9230769230769228" y1="38.0646153846153843" x2="5" y2="38.0646153846153843" style="stroke:red;stroke-width:1" />
 <line x1="5" y1="41.1107692307692305" x2="29.9230769230769228" y2="41.1107692307692305" style="stroke:red;stroke-width:1" />
 <line x1="8.04615384615384614" y1="35.0184615384615382" x2="8.04615384615384614" y2="41.1107692307692305" style="stroke:red;stroke-width:1" />
 <line x1="12.7538461538461538" y1="35.0184615384615382" x2="12.7538461538461538" y2="41.1107692307692305" style="stroke:red;stroke-width:1" />
 <line x1="17.4615384615384614" y1="35.0184615384615382" x2="17.4615384615384614" y2="41.1107692307692305" style="stroke:red;stroke-width:1" />
 <line x1="22.169230769230769" y1="35.0184615384615382" x2="22.169230769230769" y2="41.1107692307692305" style="stroke:red;stroke-width:1" />
 <line x1="26.8769230769230767" y1="35.0184615384615382" x2="26.8769230769230767" y2="41.1107692307692305" style="stroke:red;stroke-width:1" />
 <line x1="29.8123076923076921" y1="22.3353846153846152" x2="5" y2="22.3353846153846152" style="stroke:red;stroke-width:1" />
 <line x1="8.76615384615384613" y1="22.3353846153846152" x2="8.32307692307692306" y2="21.006153846153846" style="stroke:red;stroke-width:1" />
 <line x1="8.32307692307692306" y1="21.006153846153846" x2="7.60307692307692306" y2="19.8984615384615383" style="stroke:red;stroke-width:1" />
 <line x1="7.60307692307692306" y1="19.8984615384615383" x2="6.49538461538461537" y2="19.0676923076923075" style="stroke:red;stroke-width:1" />
 <line x1="6.49538461538461537" y1="19.0676923076923075" x2="5.60923076923076922" y2="19.0676923076923075" style="stroke:red;stroke-width:1" />
 <line x1="5.60923076923076922" y1="19.0676923076923075" x2="5.11076923076923076" y2="19.566153846153846" style="stroke:red;stroke-width:1" />
 <line x1="5.11076923076923076" y1="19.566153846153846" x2="5" y2="20.2307692307692306" style="stroke:red;stroke-width:1" />
 <line x1="5" y1="20.2307692307692306" x2="5.22153846153846153" y2="21.3384615384615383" style="stroke:red;stroke-width:1" />
 <line x1="5.22153846153846153" y1="21.3384615384615383" x2="5.55384615384615384" y2="22.3353846153846152" style="stroke:red;stroke-width:1" />
 <line x1="5.55384615384615384" y1="22.3353846153846152" x2="6.55076923076923076" y2="25.6584615384615382" style="stroke:red;stroke-width:1" />
 <line x1="6.55076923076923076" y1="25.6584615384615382" x2="8.32307692307692306" y2="25.6584615384615382" style="stroke:red;stroke-width:1" />
 <line x1="8.32307692307692306" y1="25.6584615384615382" x2="8.76615384615384613" y2="22.3353846153846152" style="stroke:red;stroke-width:1" />
 <line x1="17.4615384615384614" y1="22.3353846153846152" x2="17.4615384615384614" y2="35.0184615384615382" style="stroke:red;stroke-width:1" />
 <line x1="13.4184615384615384" y1="22.3353846153846152" x2="17.4615384615384614" y2="27.5969230769230767" style="stroke:red;stroke-width:1" />
 <line x1="17.4615384615384614" y1="22.3353846153846152" x2="18.7353846153846152" y2="23.9969230769230767" style="stroke:red;stroke-width:1" />
 <line x1="18.7353846153846152" y1="23.9969230769230767" x2="19.566153846153846" y2="25.769230769230769" style="stroke:red;stroke-width:1" />
 <line x1="19.566153846153846" y1="25.769230769230769" x2="20.2307692307692306" y2="27.4307692307692305" style="stroke:red;stroke-width:1" />
 <line x1="20.2307692307692306" y1="27.4307692307692305" x2="20.4523076923076921" y2="28.4830769230769228" style="stroke:red;stroke-width:1" />
 <line x1="20.4523076923076921" y1="28.4830769230769228" x2="20.2307692307692306" y2="29.1476923076923075" style="stroke:red;stroke-width:1" />
 <line x1="20.2307692307692306" y1="29.1476923076923075" x2="19.8430769230769229" y2="29.5353846153846151" style="stroke:red;stroke-width:1" />
 <line x1="19.8430769230769229" y1="29.5353846153846151" x2="19.289230769230769" y2="29.5907692307692305" style="stroke:red;stroke-width:1" />
 <line x1="19.289230769230769" y1="29.5907692307692305" x2="18.7907692307692306" y2="29.2584615384615382" style="stroke:red;stroke-width:1" />
 <line x1="18.7907692307692306" y1="29.2584615384615382" x2="19.1230769230769229" y2="30.4215384615384613" style="stroke:red;stroke-width:1" />
 <line x1="19.1230769230769229" y1="30.4215384615384613" x2="19.2338461538461537" y2="31.1415384615384613" style="stroke:red;stroke-width:1" />
 <line x1="19.2338461538461537" y1="31.1415384615384613" x2="19.1784615384615383" y2="31.7507692307692305" style="stroke:red;stroke-width:1" />
 <line x1="19.1784615384615383" y1="31.7507692307692305" x2="18.6246153846153844" y2="31.9723076923076921" style="stroke:red;stroke-width:1" />
 <line x1="18.6246153846153844" y1="31.9723076923076921" x2="18.0707692307692306" y2="31.6953846153846151" style="stroke:red;stroke-width:1" />
 <line x1="18.0707692307692306" y1="31.6953846153846151" x2="17.4615384615384614" y2="31.2523076923076921" style="stroke:red;stroke-width:1" />
 <line x1="17.2399999999999998" y1="5.99692307692307691" x2="17.2399999999999998" y2="6.55076923076923076" style="stroke:red;stroke-width:1" />
 <line x1="17.2399999999999998" y1="6.55076923076923076" x2="17.0184615384615383" y2="6.99384615384615383" style="stroke:red;stroke-width:1" />
 <line x1="17.0184615384615383" y1="6.99384615384615383" x2="16.7415384615384614" y2="7.32615384615384614" style="stroke:red;stroke-width:1" />
 <line x1="16.7415384615384614" y1="7.32615384615384614" x2="16.4646153846153844" y2="7.71384615384615383" style="stroke:red;stroke-width:1" />
 <line x1="16.4646153846153844" y1="7.71384615384615383" x2="15.9107692307692306" y2="7.99076923076923075" style="stroke:red;stroke-width:1" />
 <line x1="15.9107692307692306" y1="7.99076923076923075" x2="15.4123076923076921" y2="8.10153846153846152" style="stroke:red;stroke-width:1" />
 <path d="M 14.3599999999999998 6.27384615384615384
          A .276923076923076922 .276923076923076922 0 1 0 14.9138461538461536 6.27384615384615384
          A .276923076923076922 .276923076923076922 0 1 0 14.3599999999999998 6.27384615384615384"
       stroke="red" fill="white" stroke-width="1" fill-opacity="0.0"/>
 <line x1="16.8523076923076921" y1="9.09846153846153844" x2="16.1323076923076921" y2="9.26461538461538459" style="stroke:red;stroke-width:1" />
 <line x1="16.1323076923076921" y1="9.26461538461538459" x2="15.4123076923076921" y2="9.26461538461538459" style="stroke:red;stroke-width:1" />
 <line x1="15.4123076923076921" y1="9.26461538461538459" x2="14.1384615384615383" y2="9.04307692307692306" style="stroke:red;stroke-width:1" />
 <line x1="14.1384615384615383" y1="9.04307692307692306" x2="14.1384615384615383" y2="8.98769230769230767" style="stroke:red;stroke-width:1" />
 <line x1="14.1384615384615383" y1="8.98769230769230767" x2="14.0276923076923075" y2="8.8769230769230769" style="stroke:red;stroke-width:1" />
 <line x1="14.0276923076923075" y1="8.8769230769230769" x2="13.7507692307692306" y2="7.87999999999999998" style="stroke:red;stroke-width:1" />
 <line x1="13.7507692307692306" y1="7.87999999999999998" x2="13.5846153846153845" y2="7.27076923076923076" style="stroke:red;stroke-width:1" />
 <line x1="13.5846153846153845" y1="7.27076923076923076" x2="13.4184615384615384" y2="7.04923076923076922" style="stroke:red;stroke-width:1" />
 <line x1="13.4184615384615384" y1="7.04923076923076922" x2="13.2523076923076922" y2="6.93846153846153845" style="stroke:red;stroke-width:1" />
 <line x1="13.2523076923076922" y1="6.93846153846153845" x2="12.9753846153846153" y2="6.93846153846153845" style="stroke:red;stroke-width:1" />
 <line x1="12.9753846153846153" y1="6.93846153846153845" x2="12.6984615384615384" y2="6.93846153846153845" style="stroke:red;stroke-width:1" />
 <line x1="12.6984615384615384" y1="6.93846153846153845" x2="12.5323076923076922" y2="7.04923076923076922" style="stroke:red;stroke-width:1" />
 <line x1="12.5323076923076922" y1="7.04923076923076922" x2="12.0892307692307692" y2="7.43692307692307691" style="stroke:red;stroke-width:1" />
 <line x1="12.0892307692307692" y1="7.43692307692307691" x2="12.0892307692307692" y2="7.32615384615384614" style="stroke:red;stroke-width:1" />
 <line x1="12.0892307692307692" y1="7.32615384615384614" x2="12.0892307692307692" y2="7.15999999999999999" style="stroke:red;stroke-width:1" />
 <line x1="12.0892307692307692" y1="7.15999999999999999" x2="12.1999999999999999" y2="6.82769230769230768" style="stroke:red;stroke-width:1" />
 <line x1="12.1999999999999999" y1="6.82769230769230768" x2="12.4769230769230768" y2="6.66153846153846153" style="stroke:red;stroke-width:1" />
 <line x1="12.4769230769230768" y1="6.66153846153846153" x2="12.6984615384615384" y2="6.49538461538461537" style="stroke:red;stroke-width:1" />
 <line x1="12.6984615384615384" y1="6.49538461538461537" x2="12.9753846153846153" y2="5.99692307692307691" style="stroke:red;stroke-width:1" />
 <line x1="12.9753846153846153" y1="5.99692307692307691" x2="13.363076923076923" y2="5.77538461538461538" style="stroke:red;stroke-width:1" />
 <line x1="13.363076923076923" y1="5.77538461538461538" x2="13.6399999999999998" y2="5.49846153846153845" style="stroke:red;stroke-width:1" />
 <line x1="13.6399999999999998" y1="5.49846153846153845" x2="14.0276923076923075" y2="5.27692307692307692" style="stroke:red;stroke-width:1" />
 <line x1="14.0276923076923075" y1="5.27692307692307692" x2="14.4707692307692306" y2="5.11076923076923076" style="stroke:red;stroke-width:1" />
 <line x1="14.4707692307692306" y1="5.11076923076923076" x2="14.9138461538461537" y2="5" style="stroke:red;stroke-width:1" />
 <line x1="14.9138461538461537" y1="5" x2="15.3015384615384614" y2="5" style="stroke:red;stroke-width:1" />
 <line x1="15.3015384615384614" y1="5" x2="15.7999999999999998" y2="5" style="stroke:red;stroke-width:1" />
 <line x1="15.7999999999999998" y1="5" x2="16.2984615384615383" y2="5.22153846153846153" style="stroke:red;stroke-width:1" />
 <line x1="16.2984615384615383" y1="5.22153846153846153" x2="16.6307692307692306" y2="5.44307692307692307" style="stroke:red;stroke-width:1" />
 <line x1="16.6307692307692306" y1="5.44307692307692307" x2="17.0184615384615383" y2="5.71999999999999999" style="stroke:red;stroke-width:1" />
 <line x1="17.0184615384615383" y1="5.71999999999999999" x2="17.2399999999999998" y2="5.99692307692307691" style="stroke:red;stroke-width:1" />
 <line x1="17.2399999999999998" y1="5.99692307692307691" x2="17.5169230769230767" y2="6.49538461538461537" style="stroke:red;stroke-width:1" />
 <line x1="17.5169230769230767" y1="6.49538461538461537" x2="17.7384615384615383" y2="6.93846153846153845" style="stroke:red;stroke-width:1" />
 <line x1="17.7384615384615383" y1="6.93846153846153845" x2="17.9599999999999998" y2="7.54769230769230768" style="stroke:red;stroke-width:1" />
 <line x1="17.9599999999999998" y1="7.54769230769230768" x2="18.126153846153846" y2="8.15692307692307691" style="stroke:red;stroke-width:1" />
 <line x1="18.126153846153846" y1="8.15692307692307691" x2="18.6246153846153844" y2="8.43384615384615383" style="stroke:red;stroke-width:1" />
 <line x1="18.6246153846153844" y1="8.43384615384615383" x2="19.1784615384615383" y2="8.65538461538461537" style="stroke:red;stroke-width:1" />
 <line x1="19.1784615384615383" y1="8.65538461538461537" x2="19.566153846153846" y2="8.93230769230769229" style="stroke:red;stroke-width:1" />
 <line x1="19.566153846153846" y1="8.93230769230769229" x2="20.2307692307692306" y2="9.37538461538461536" style="stroke:red;stroke-width:1" />
 <line x1="20.2307692307692306" y1="9.37538461538461536" x2="20.8399999999999998" y2="10.0399999999999999" style="stroke:red;stroke-width:1" />
 <line x1="20.8399999999999998" y1="10.0399999999999999" x2="21.7815384615384613" y2="10.9815384615384615" style="stroke:red;stroke-width:1" />
 <line x1="21.7815384615384613" y1="10.9815384615384615" x2="22.5569230769230767" y2="11.8123076923076922" style="stroke:red;stroke-width:1" />
 <line x1="22.5569230769230767" y1="11.8123076923076922" x2="23.5538461538461536" y2="13.086153846153846" style="stroke:red;stroke-width:1" />
 <line x1="23.5538461538461536" y1="13.086153846153846" x2="27.3199999999999998" y2="17.6276923076923075" style="stroke:red;stroke-width:1" />
 <line x1="27.3199999999999998" y1="17.6276923076923075" x2="27.929230769230769" y2="18.2923076923076921" style="stroke:red;stroke-width:1" />
 <line x1="27.929230769230769" y1="18.2923076923076921" x2="28.7046153846153844" y2="19.0676923076923075" style="stroke:red;stroke-width:1" />
 <line x1="28.7046153846153844" y1="19.0676923076923075" x2="29.2584615384615382" y2="19.4553846153846152" style="stroke:red;stroke-width:1" />
 <line x1="29.2584615384615382" y1="19.4553846153846152" x2="29.8676923076923075" y2="19.9538461538461536" style="stroke:red;stroke-width:1" />
 <line x1="29.8676923076923075" y1="19.9538461538461536" x2="28.9815384615384613" y2="19.4553846153846152" style="stroke:red;stroke-width:1" />
 <line x1="28.9815384615384613" y1="19.4553846153846152" x2="28.2615384615384613" y2="18.9569230769230767" style="stroke:red;stroke-width:1" />
 <line x1="28.2615384615384613" y1="18.9569230769230767" x2="27.4861538461538459" y2="18.5138461538461537" style="stroke:red;stroke-width:1" />
 <line x1="27.4861538461538459" y1="18.5138461538461537" x2="26.8215384615384613" y2="18.1815384615384613" style="stroke:red;stroke-width:1" />
 <line x1="26.8215384615384613" y1="18.1815384615384613" x2="26.1569230769230767" y2="17.9046153846153844" style="stroke:red;stroke-width:1" />
 <line x1="26.1569230769230767" y1="17.9046153846153844" x2="25.5476923076923075" y2="17.6830769230769229" style="stroke:red;stroke-width:1" />
 <line x1="25.5476923076923075" y1="17.6830769230769229" x2="24.8276923076923075" y2="17.406153846153846" style="stroke:red;stroke-width:1" />
 <line x1="24.8276923076923075" y1="17.406153846153846" x2="22.0030769230769229" y2="16.4646153846153844" style="stroke:red;stroke-width:1" />
 <line x1="22.0030769230769229" y1="16.4646153846153844" x2="20.729230769230769" y2="15.9107692307692306" style="stroke:red;stroke-width:1" />
 <line x1="20.729230769230769" y1="15.9107692307692306" x2="19.6769230769230767" y2="15.4676923076923075" style="stroke:red;stroke-width:1" />
 <line x1="19.6769230769230767" y1="15.4676923076923075" x2="18.6246153846153844" y2="15.0246153846153844" style="stroke:red;stroke-width:1" />
 <line x1="18.6246153846153844" y1="15.0246153846153844" x2="17.3507692307692306" y2="14.4153846153846152" style="stroke:red;stroke-width:1" />
 <line x1="17.3507692307692306" y1="14.4153846153846152" x2="16.6307692307692306" y2="14.1384615384615383" style="stroke:red;stroke-width:1" />
 <line x1="16.6307692307692306" y1="14.1384615384615383" x2="16.0769230769230767" y2="13.7507692307692306" style="stroke:red;stroke-width:1" />
 <line x1="16.0769230769230767" y1="13.7507692307692306" x2="15.6338461538461537" y2="13.3630769230769229" style="stroke:red;stroke-width:1" />
 <line x1="15.6338461538461537" y1="13.3630769230769229" x2="15.1907692307692306" y2="12.9753846153846153" style="stroke:red;stroke-width:1" />
 <line x1="15.1907692307692306" y1="12.9753846153846153" x2="14.9138461538461537" y2="12.4769230769230768" style="stroke:red;stroke-width:1" />
 <line x1="14.9138461538461537" y1="12.4769230769230768" x2="14.6369230769230767" y2="11.923076923076923" style="stroke:red;stroke-width:1" />
 <line x1="14.6369230769230767" y1="11.923076923076923" x2="14.4153846153846152" y2="11.3138461538461538" style="stroke:red;stroke-width:1" />
 <line x1="14.4153846153846152" y1="11.3138461538461538" x2="14.2492307692307691" y2="10.5938461538461538" style="stroke:red;stroke-width:1" />
 <line x1="14.2492307692307691" y1="10.5938461538461538" x2="14.1938461538461537" y2="10.0399999999999999" style="stroke:red;stroke-width:1" />
 <line x1="14.1938461538461537" y1="10.0399999999999999" x2="14.1938461538461537" y2="8.98769230769230767" style="stroke:red;stroke-width:1" />
 <line x1="16.0769230769230767" y1="13.7507692307692306" x2="16.1323076923076921" y2="14.5815384615384614" style="stroke:red;stroke-width:1" />
 <line x1="16.1323076923076921" y1="14.5815384615384614" x2="16.2984615384615383" y2="15.4123076923076921" style="stroke:red;stroke-width:1" />
 <line x1="16.2984615384615383" y1="15.4123076923076921" x2="16.5753846153846152" y2="16.3538461538461537" style="stroke:red;stroke-width:1" />
 <line x1="16.5753846153846152" y1="16.3538461538461537" x2="16.7969230769230767" y2="17.2399999999999998" style="stroke:red;stroke-width:1" />
 <line x1="16.7969230769230767" y1="17.2399999999999998" x2="16.9630769230769229" y2="18.0153846153846152" style="stroke:red;stroke-width:1" />
 <line x1="16.9630769230769229" y1="18.0153846153846152" x2="17.0738461538461537" y2="18.7353846153846152" style="stroke:red;stroke-width:1" />
 <line x1="17.0738461538461537" y1="18.7353846153846152" x2="17.129230769230769" y2="19.4553846153846152" style="stroke:red;stroke-width:1" />
 <line x1="17.129230769230769" y1="19.4553846153846152" x2="17.129230769230769" y2="20.286153846153846" style="stroke:red;stroke-width:1" />
 <line x1="17.129230769230769" y1="20.286153846153846" x2="17.129230769230769" y2="20.8953846153846152" style="stroke:red;stroke-width:1" />
 <line x1="17.129230769230769" y1="20.8953846153846152" x2="16.9630769230769229" y2="21.5599999999999998" style="stroke:red;stroke-width:1" />
 <line x1="16.9630769230769229" y1="21.5599999999999998" x2="16.7415384615384614" y2="22.2799999999999998" style="stroke:red;stroke-width:1" />
 <line x1="12.8646153846153845" y1="22.4461538461538459" x2="13.1415384615384615" y2="22.2799999999999998" style="stroke:red;stroke-width:1" />
 <line x1="13.1415384615384615" y1="22.2799999999999998" x2="13.4184615384615384" y2="22.169230769230769" style="stroke:red;stroke-width:1" />
 <line x1="13.4184615384615384" y1="22.169230769230769" x2="13.7507692307692306" y2="22.169230769230769" style="stroke:red;stroke-width:1" />
 <line x1="13.7507692307692306" y1="22.169230769230769" x2="13.9169230769230767" y2="22.2799999999999998" style="stroke:red;stroke-width:1" />
 <line x1="13.9169230769230767" y1="22.2799999999999998" x2="21.3938461538461536" y2="22.2799999999999998" style="stroke:red;stroke-width:1" />
 <line x1="21.3938461538461536" y1="22.2799999999999998" x2="21.7261538461538459" y2="22.0030769230769229" style="stroke:red;stroke-width:1" />
 <line x1="21.7261538461538459" y1="22.0030769230769229" x2="22.0030769230769229" y2="21.9476923076923075" style="stroke:red;stroke-width:1" />
 <line x1="22.0030769230769229" y1="21.9476923076923075" x2="22.3907692307692306" y2="22.0584615384615383" style="stroke:red;stroke-width:1" />
 <line x1="22.3907692307692306" y1="22.0584615384615383" x2="22.6123076923076921" y2="22.2799999999999998" style="stroke:red;stroke-width:1" />
 <line x1="19.289230769230769" y1="22.2799999999999998" x2="19.2338461538461537" y2="21.5046153846153844" style="stroke:red;stroke-width:1" />
 <line x1="19.2338461538461537" y1="21.5046153846153844" x2="19.1784615384615383" y2="20.729230769230769" style="stroke:red;stroke-width:1" />
 <line x1="19.1784615384615383" y1="20.729230769230769" x2="19.0676923076923075" y2="19.9538461538461536" style="stroke:red;stroke-width:1" />
 <line x1="19.0676923076923075" y1="19.9538461538461536" x2="18.9015384615384613" y2="18.9569230769230767" style="stroke:red;stroke-width:1" />
 <line x1="18.9015384615384613" y1="18.9569230769230767" x2="18.6799999999999998" y2="18.1815384615384613" style="stroke:red;stroke-width:1" />
 <line x1="18.6799999999999998" y1="18.1815384615384613" x2="18.126153846153846" y2="16.686153846153846" style="stroke:red;stroke-width:1" />
 <line x1="18.126153846153846" y1="16.686153846153846" x2="17.3507692307692306" y2="14.4153846153846152" style="stroke:red;stroke-width:1" />
 <line x1="17.129230769230769" y1="19.4553846153846152" x2="18.9015384615384613" y2="18.9569230769230767" style="stroke:red;stroke-width:1" />
 <line x1="18.9015384615384613" y1="18.9569230769230767" x2="20.5630769230769229" y2="19.6769230769230767" style="stroke:red;stroke-width:1" />
 <line x1="20.5630769230769229" y1="19.6769230769230767" x2="21.6153846153846152" y2="16.3538461538461537" style="stroke:red;stroke-width:1" />
 <line x1="22.3907692307692306" y1="16.6307692307692306" x2="26.0461538461538459" y2="22.3907692307692306" style="stroke:red;stroke-width:1" />
 <line x1="26.0461538461538459" y1="22.3907692307692306" x2="29.0923076923076921" y2="21.3384615384615383" style="stroke:red;stroke-width:1" />
 <line x1="29.0923076923076921" y1="21.3384615384615383" x2="26.8215384615384613" y2="18.1815384615384613" style="stroke:red;stroke-width:1" />
 <line x1="9.15384615384615383" y1="11.9784615384615384" x2="13.806153846153846" y2="17.129230769230769" style="stroke:red;stroke-width:1" />
 <line x1="13.806153846153846" y1="17.129230769230769" x2="13.3076923076923076" y2="17.6276923076923075" style="stroke:red;stroke-width:1" />
 <line x1="13.3076923076923076" y1="17.6276923076923075" x2="12.7538461538461538" y2="18.5138461538461537" style="stroke:red;stroke-width:1" />
 <line x1="12.7538461538461538" y1="18.5138461538461537" x2="12.5876923076923076" y2="18.7907692307692306" style="stroke:red;stroke-width:1" />
 <line x1="12.5876923076923076" y1="18.7907692307692306" x2="12.3107692307692307" y2="19.3999999999999998" style="stroke:red;stroke-width:1" />
 <line x1="12.3107692307692307" y1="19.3999999999999998" x2="12.0892307692307692" y2="20.009230769230769" style="stroke:red;stroke-width:1" />
 <line x1="12.0892307692307692" y1="20.009230769230769" x2="12.1446153846153845" y2="20.3415384615384613" style="stroke:red;stroke-width:1" />
 <line x1="12.1446153846153845" y1="20.3415384615384613" x2="13.2523076923076922" y2="22.2799999999999998" style="stroke:red;stroke-width:1" />
 <line x1="13.2523076923076922" y1="22.2799999999999998" x2="12.9199999999999999" y2="22.4461538461538459" style="stroke:red;stroke-width:1" />
 <line x1="12.9199999999999999" y1="22.4461538461538459" x2="7.21538461538461537" y2="12.1446153846153845" style="stroke:red;stroke-width:1" />
 <line x1="7.21538461538461537" y1="12.1446153846153845" x2="7.1046153846153846" y2="11.5907692307692307" style="stroke:red;stroke-width:1" />
 <line x1="7.1046153846153846" y1="11.5907692307692307" x2="7.1046153846153846" y2="11.2584615384615384" style="stroke:red;stroke-width:1" />
 <line x1="7.1046153846153846" y1="11.2584615384615384" x2="7.15999999999999999" y2="11.0369230769230768" style="stroke:red;stroke-width:1" />
 <line x1="7.15999999999999999" y1="11.0369230769230768" x2="7.27076923076923076" y2="10.6492307692307692" style="stroke:red;stroke-width:1" />
 <line x1="7.27076923076923076" y1="10.6492307692307692" x2="7.43692307692307691" y2="10.483076923076923" style="stroke:red;stroke-width:1" />
 <line x1="7.43692307692307691" y1="10.483076923076923" x2="7.60307692307692306" y2="10.2615384615384615" style="stroke:red;stroke-width:1" />
 <line x1="7.60307692307692306" y1="10.2615384615384615" x2="7.8246153846153846" y2="10.1507692307692307" style="stroke:red;stroke-width:1" />
 <line x1="7.8246153846153846" y1="10.1507692307692307" x2="7.99076923076923075" y2="10.0399999999999999" style="stroke:red;stroke-width:1" />
 <line x1="7.99076923076923075" y1="10.0399999999999999" x2="8.37846153846153844" y2="9.98461538461538459" style="stroke:red;stroke-width:1" />
 <line x1="8.37846153846153844" y1="9.98461538461538459" x2="8.65538461538461537" y2="9.98461538461538459" style="stroke:red;stroke-width:1" />
 <line x1="8.65538461538461537" y1="9.98461538461538459" x2="8.98769230769230767" y2="10.0953846153846153" style="stroke:red;stroke-width:1" />
 <line x1="8.98769230769230767" y1="10.0953846153846153" x2="9.15384615384615383" y2="10.2061538461538461" style="stroke:red;stroke-width:1" />
 <line x1="9.15384615384615383" y1="10.2061538461538461" x2="9.37538461538461536" y2="10.3169230769230769" style="stroke:red;stroke-width:1" />
 <line x1="9.37538461538461536" y1="10.3169230769230769" x2="9.54153846153846152" y2="10.5384615384615384" style="stroke:red;stroke-width:1" />
 <line x1="9.54153846153846152" y1="10.5384615384615384" x2="9.65230769230769228" y2="10.7046153846153845" style="stroke:red;stroke-width:1" />
 <line x1="9.65230769230769228" y1="10.7046153846153845" x2="9.70769230769230767" y2="11.0369230769230768" style="stroke:red;stroke-width:1" />
 <line x1="9.70769230769230767" y1="11.0369230769230768" x2="9.70769230769230767" y2="11.3692307692307692" style="stroke:red;stroke-width:1" />
 <line x1="9.70769230769230767" y1="11.3692307692307692" x2="9.54153846153846152" y2="11.5907692307692307" style="stroke:red;stroke-width:1" />
 <line x1="9.54153846153846152" y1="11.5907692307692307" x2="9.37538461538461536" y2="11.8676923076923076" style="stroke:red;stroke-width:1" />
 <line x1="9.37538461538461536" y1="11.8676923076923076" x2="9.15384615384615383" y2="11.9784615384615384" style="stroke:red;stroke-width:1" />

</svg>
