<!DOCTYPE svg PUBLIC "-//W3C//DTD SVG 1.1//EN" "http://www.w3.org/Graphics/SVG/1.1/DTD/svg11.dtd">
<svg width="37" height="45" xmlns="http://www.w3.org/2000/svg">
 <!-- Gardiner/Zz376515 at (0,.1443298969072165) in red, scale=.0742268041237113404, mirror=0 -->
 <line x1="6.63298969072164948" y1="31.9443298969072165" x2="6.18762886597938144" y2="31.8701030927835051" style="stroke:red;stroke-width:1" />
 <line x1="6.18762886597938144" y1="31.8701030927835051" x2="5.66804123711340206" y2="31.9443298969072165" style="stroke:red;stroke-width:1" />
 <line x1="5.66804123711340206" y1="31.9443298969072165" x2="5.29690721649484536" y2="32.0927835051546392" style="stroke:red;stroke-width:1" />
 <line x1="5.29690721649484536" y1="32.0927835051546392" x2="5.14845360824742268" y2="32.3896907216494845" style="stroke:red;stroke-width:1" />
 <line x1="5.14845360824742268" y1="32.3896907216494845" x2="5" y2="32.9092783505154639" style="stroke:red;stroke-width:1" />
 <line x1="5" y1="32.9092783505154639" x2="5" y2="33.5030927835051546" style="stroke:red;stroke-width:1" />
 <line x1="5" y1="33.5030927835051546" x2="5.29690721649484536" y2="34.022680412371134" style="stroke:red;stroke-width:1" />
 <line x1="5.29690721649484536" y1="34.022680412371134" x2="5.59381443298969072" y2="34.5422680412371134" style="stroke:red;stroke-width:1" />
 <line x1="5.59381443298969072" y1="34.5422680412371134" x2="6.18762886597938144" y2="34.9134020618556701" style="stroke:red;stroke-width:1" />
 <line x1="6.18762886597938144" y1="34.9134020618556701" x2="7.07835051546391753" y2="35.1360824742268041" style="stroke:red;stroke-width:1" />
 <line x1="7.07835051546391753" y1="35.1360824742268041" x2="8.8597938144329897" y2="35.1360824742268041" style="stroke:red;stroke-width:1" />
 <line x1="8.8597938144329897" y1="35.1360824742268041" x2="10.7154639175257732" y2="35.1360824742268041" style="stroke:red;stroke-width:1" />
 <line x1="10.7154639175257732" y1="35.1360824742268041" x2="12.5711340206185566" y2="34.9134020618556701" style="stroke:red;stroke-width:1" />
 <line x1="12.5711340206185566" y1="34.9134020618556701" x2="13.9814432989690721" y2="34.7649484536082474" style="stroke:red;stroke-width:1" />
 <line x1="13.9814432989690721" y1="34.7649484536082474" x2="15.2432989690721649" y2="34.6907216494845361" style="stroke:red;stroke-width:1" />
 <line x1="15.2432989690721649" y1="34.6907216494845361" x2="16.356701030927835" y2="34.6164948453608247" style="stroke:red;stroke-width:1" />
 <line x1="16.356701030927835" y1="34.6164948453608247" x2="17.5443298969072164" y2="34.5422680412371134" style="stroke:red;stroke-width:1" />
 <line x1="17.5443298969072164" y1="34.5422680412371134" x2="18.5092783505154639" y2="34.6907216494845361" style="stroke:red;stroke-width:1" />
 <line x1="18.5092783505154639" y1="34.6907216494845361" x2="19.5484536082474226" y2="34.8391752577319588" style="stroke:red;stroke-width:1" />
 <line x1="19.5484536082474226" y1="34.8391752577319588" x2="19.845360824742268" y2="34.9876288659793814" style="stroke:red;stroke-width:1" />
 <line x1="19.845360824742268" y1="34.9876288659793814" x2="20.2164948453608247" y2="35.2845360824742268" style="stroke:red;stroke-width:1" />
 <line x1="20.2164948453608247" y1="35.2845360824742268" x2="20.4391752577319587" y2="35.6556701030927835" style="stroke:red;stroke-width:1" />
 <line x1="20.4391752577319587" y1="35.6556701030927835" x2="20.3649484536082474" y2="36.1752577319587629" style="stroke:red;stroke-width:1" />
 <line x1="20.3649484536082474" y1="36.1752577319587629" x2="20.1422680412371134" y2="36.3979381443298969" style="stroke:red;stroke-width:1" />
 <line x1="20.1422680412371134" y1="36.3979381443298969" x2="19.6969072164948453" y2="36.4721649484536082" style="stroke:red;stroke-width:1" />
 <line x1="19.6969072164948453" y1="36.4721649484536082" x2="19.2515463917525773" y2="36.4721649484536082" style="stroke:red;stroke-width:1" />
 <line x1="19.2515463917525773" y1="36.4721649484536082" x2="17.9896907216494845" y2="36.2494845360824742" style="stroke:red;stroke-width:1" />
 <line x1="17.9896907216494845" y1="36.2494845360824742" x2="16.802061855670103" y2="35.5814432989690722" style="stroke:red;stroke-width:1" />
 <line x1="16.802061855670103" y1="35.5814432989690722" x2="15.2432989690721649" y2="34.6907216494845361" style="stroke:red;stroke-width:1" />
 <line x1="20.2164948453608247" y1="35.2845360824742268" x2="20.5876288659793814" y2="35.7298969072164948" style="stroke:red;stroke-width:1" />
 <line x1="20.5876288659793814" y1="35.7298969072164948" x2="20.7360824742268041" y2="36.9175257731958763" style="stroke:red;stroke-width:1" />
 <line x1="20.7360824742268041" y1="36.9175257731958763" x2="20.9587628865979381" y2="37.8082474226804124" style="stroke:red;stroke-width:1" />
 <line x1="20.9587628865979381" y1="37.8082474226804124" x2="21.3298969072164948" y2="38.4762886597938144" style="stroke:red;stroke-width:1" />
 <line x1="21.3298969072164948" y1="38.4762886597938144" x2="22.1463917525773195" y2="39.2185567010309278" style="stroke:red;stroke-width:1" />
 <line x1="22.1463917525773195" y1="39.2185567010309278" x2="21.4783505154639175" y2="38.3278350515463918" style="stroke:red;stroke-width:1" />
 <line x1="21.4783505154639175" y1="38.3278350515463918" x2="21.2556701030927835" y2="37.734020618556701" style="stroke:red;stroke-width:1" />
 <line x1="21.2556701030927835" y1="37.734020618556701" x2="21.1072164948453608" y2="35.7298969072164948" style="stroke:red;stroke-width:1" />
 <line x1="21.1072164948453608" y1="35.7298969072164948" x2="20.9587628865979381" y2="34.1711340206185567" style="stroke:red;stroke-width:1" />
 <line x1="20.9587628865979381" y1="34.1711340206185567" x2="20.8845360824742268" y2="33.577319587628866" style="stroke:red;stroke-width:1" />
 <line x1="20.8845360824742268" y1="33.577319587628866" x2="20.8103092783505154" y2="33.3546391752577319" style="stroke:red;stroke-width:1" />
 <line x1="20.8103092783505154" y1="33.3546391752577319" x2="20.5134020618556701" y2="33.1319587628865979" style="stroke:red;stroke-width:1" />
 <line x1="20.5134020618556701" y1="33.1319587628865979" x2="19.845360824742268" y2="32.9092783505154639" style="stroke:red;stroke-width:1" />
 <line x1="19.845360824742268" y1="32.9092783505154639" x2="19.622680412371134" y2="32.9092783505154639" style="stroke:red;stroke-width:1" />
 <line x1="19.622680412371134" y1="32.9092783505154639" x2="9.52783505154639176" y2="32.7608247422680412" style="stroke:red;stroke-width:1" />
 <line x1="9.52783505154639176" y1="32.7608247422680412" x2="9.00824742268041238" y2="32.7608247422680412" style="stroke:red;stroke-width:1" />
 <line x1="9.00824742268041238" y1="32.7608247422680412" x2="8.11752577319587629" y2="32.6123711340206185" style="stroke:red;stroke-width:1" />
 <line x1="8.11752577319587629" y1="32.6123711340206185" x2="7.07835051546391753" y2="32.3154639175257732" style="stroke:red;stroke-width:1" />
 <line x1="7.07835051546391753" y1="32.3154639175257732" x2="6.63298969072164948" y2="31.9443298969072165" style="stroke:red;stroke-width:1" />
 <line x1="6.63298969072164948" y1="31.9443298969072165" x2="5.89072164948453608" y2="31.2020618556701031" style="stroke:red;stroke-width:1" />
 <line x1="5.89072164948453608" y1="31.2020618556701031" x2="5.44536082474226804" y2="30.6082474226804123" style="stroke:red;stroke-width:1" />
 <line x1="5.44536082474226804" y1="30.6082474226804123" x2="5.22268041237113402" y2="30.0144329896907216" style="stroke:red;stroke-width:1" />
 <line x1="5.22268041237113402" y1="30.0144329896907216" x2="5.22268041237113402" y2="29.1979381443298969" style="stroke:red;stroke-width:1" />
 <line x1="5.22268041237113402" y1="29.1979381443298969" x2="5.44536082474226804" y2="27.7876288659793814" style="stroke:red;stroke-width:1" />
 <line x1="5.44536082474226804" y1="27.7876288659793814" x2="5.89072164948453608" y2="25.7092783505154639" style="stroke:red;stroke-width:1" />
 <line x1="5.89072164948453608" y1="25.7092783505154639" x2="6.33608247422680412" y2="24.0762886597938144" style="stroke:red;stroke-width:1" />
 <line x1="6.33608247422680412" y1="24.0762886597938144" x2="6.55876288659793814" y2="22.5917525773195876" style="stroke:red;stroke-width:1" />
 <line x1="6.55876288659793814" y1="22.5917525773195876" x2="6.70721649484536082" y2="21.1072164948453608" style="stroke:red;stroke-width:1" />
 <line x1="6.70721649484536082" y1="21.1072164948453608" x2="6.70721649484536082" y2="19.5484536082474226" style="stroke:red;stroke-width:1" />
 <line x1="6.70721649484536082" y1="19.5484536082474226" x2="6.78144329896907217" y2="17.1731958762886597" style="stroke:red;stroke-width:1" />
 <line x1="6.78144329896907217" y1="17.1731958762886597" x2="6.70721649484536082" y2="15.5402061855670102" style="stroke:red;stroke-width:1" />
 <line x1="6.70721649484536082" y1="15.5402061855670102" x2="6.70721649484536082" y2="14.2041237113402061" style="stroke:red;stroke-width:1" />
 <line x1="6.70721649484536082" y1="14.2041237113402061" x2="6.63298969072164948" y2="12.645360824742268" style="stroke:red;stroke-width:1" />
 <line x1="6.63298969072164948" y1="12.645360824742268" x2="6.55876288659793814" y2="11.5319587628865979" style="stroke:red;stroke-width:1" />
 <line x1="6.55876288659793814" y1="11.5319587628865979" x2="6.63298969072164948" y2="10.9381443298969072" style="stroke:red;stroke-width:1" />
 <line x1="6.63298969072164948" y1="10.9381443298969072" x2="7.00412371134020619" y2="10.1216494845360824" style="stroke:red;stroke-width:1" />
 <line x1="7.00412371134020619" y1="10.1216494845360824" x2="7.59793814432989691" y2="9.75051546391752578" style="stroke:red;stroke-width:1" />
 <line x1="7.59793814432989691" y1="9.75051546391752578" x2="8.04329896907216495" y2="9.52783505154639176" style="stroke:red;stroke-width:1" />
 <line x1="8.04329896907216495" y1="9.52783505154639176" x2="8.48865979381443299" y2="9.37938144329896908" style="stroke:red;stroke-width:1" />
 <line x1="8.48865979381443299" y1="9.37938144329896908" x2="9.08247422680412372" y2="9.2309278350515464" style="stroke:red;stroke-width:1" />
 <line x1="9.08247422680412372" y1="9.2309278350515464" x2="9.82474226804123712" y2="9.15670103092783506" style="stroke:red;stroke-width:1" />
 <line x1="9.82474226804123712" y1="9.15670103092783506" x2="10.6412371134020618" y2="9.08247422680412372" style="stroke:red;stroke-width:1" />
 <line x1="10.6412371134020618" y1="9.08247422680412372" x2="11.3835051546391752" y2="9.08247422680412372" style="stroke:red;stroke-width:1" />
 <line x1="11.3835051546391752" y1="9.08247422680412372" x2="11.9773195876288659" y2="9.08247422680412372" style="stroke:red;stroke-width:1" />
 <line x1="11.9773195876288659" y1="9.08247422680412372" x2="13.4618556701030927" y2="9.08247422680412372" style="stroke:red;stroke-width:1" />
 <line x1="13.4618556701030927" y1="9.08247422680412372" x2="14.1298969072164948" y2="9.15670103092783506" style="stroke:red;stroke-width:1" />
 <line x1="14.1298969072164948" y1="9.15670103092783506" x2="14.8721649484536082" y2="9.37938144329896908" style="stroke:red;stroke-width:1" />
 <line x1="14.8721649484536082" y1="9.37938144329896908" x2="15.3917525773195876" y2="9.67628865979381444" style="stroke:red;stroke-width:1" />
 <line x1="15.3917525773195876" y1="9.67628865979381444" x2="12.7195876288659793" y2="7.00412371134020619" style="stroke:red;stroke-width:1" />
 <line x1="12.7195876288659793" y1="7.00412371134020619" x2="12.422680412371134" y2="6.55876288659793814" style="stroke:red;stroke-width:1" />
 <line x1="12.422680412371134" y1="6.55876288659793814" x2="11.9030927835051546" y2="6.03917525773195876" style="stroke:red;stroke-width:1" />
 <line x1="11.9030927835051546" y1="6.03917525773195876" x2="11.2350515463917525" y2="5.59381443298969072" style="stroke:red;stroke-width:1" />
 <line x1="11.2350515463917525" y1="5.59381443298969072" x2="10.6412371134020618" y2="5.14845360824742268" style="stroke:red;stroke-width:1" />
 <line x1="10.6412371134020618" y1="5.14845360824742268" x2="9.75051546391752578" y2="5" style="stroke:red;stroke-width:1" />
 <line x1="9.75051546391752578" y1="5" x2="9.00824742268041238" y2="5.07422680412371134" style="stroke:red;stroke-width:1" />
 <line x1="9.00824742268041238" y1="5.07422680412371134" x2="8.04329896907216495" y2="5.29690721649484536" style="stroke:red;stroke-width:1" />
 <line x1="8.04329896907216495" y1="5.29690721649484536" x2="7.22680412371134021" y2="5.51958762886597938" style="stroke:red;stroke-width:1" />
 <line x1="7.22680412371134021" y1="5.51958762886597938" x2="6.55876288659793814" y2="5.89072164948453608" style="stroke:red;stroke-width:1" />
 <line x1="6.55876288659793814" y1="5.89072164948453608" x2="6.1134020618556701" y2="6.26185567010309278" style="stroke:red;stroke-width:1" />
 <line x1="6.1134020618556701" y1="6.26185567010309278" x2="5.59381443298969072" y2="6.4845360824742268" style="stroke:red;stroke-width:1" />
 <line x1="5.59381443298969072" y1="6.4845360824742268" x2="5.44536082474226804" y2="6.85567010309278351" style="stroke:red;stroke-width:1" />
 <line x1="5.44536082474226804" y1="6.85567010309278351" x2="5.51958762886597938" y2="7.59793814432989691" style="stroke:red;stroke-width:1" />
 <line x1="5.51958762886597938" y1="7.59793814432989691" x2="5.59381443298969072" y2="7.89484536082474227" style="stroke:red;stroke-width:1" />
 <line x1="5.59381443298969072" y1="7.89484536082474227" x2="6.18762886597938144" y2="7.96907216494845361" style="stroke:red;stroke-width:1" />
 <line x1="6.18762886597938144" y1="7.96907216494845361" x2="7.52371134020618557" y2="8.19175257731958763" style="stroke:red;stroke-width:1" />
 <line x1="7.52371134020618557" y1="8.19175257731958763" x2="8.11752577319587629" y2="8.48865979381443299" style="stroke:red;stroke-width:1" />
 <line x1="8.11752577319587629" y1="8.48865979381443299" x2="8.71134020618556702" y2="8.93402061855670104" style="stroke:red;stroke-width:1" />
 <line x1="8.71134020618556702" y1="8.93402061855670104" x2="9.08247422680412372" y2="9.2309278350515464" style="stroke:red;stroke-width:1" />
 <line x1="15.3917525773195876" y1="9.67628865979381444" x2="16.134020618556701" y2="10.5670103092783505" style="stroke:red;stroke-width:1" />
 <line x1="16.134020618556701" y1="10.5670103092783505" x2="16.579381443298969" y2="11.3092783505154638" style="stroke:red;stroke-width:1" />
 <line x1="16.579381443298969" y1="11.3092783505154638" x2="16.6536082474226804" y2="11.6804123711340205" style="stroke:red;stroke-width:1" />
 <line x1="16.6536082474226804" y1="11.6804123711340205" x2="16.579381443298969" y2="12.2742268041237113" style="stroke:red;stroke-width:1" />
 <line x1="16.579381443298969" y1="12.2742268041237113" x2="16.0597938144329896" y2="13.4618556701030927" style="stroke:red;stroke-width:1" />
 <line x1="16.0597938144329896" y1="13.4618556701030927" x2="10.2701030927835051" y2="25.1154639175257732" style="stroke:red;stroke-width:1" />
 <line x1="10.2701030927835051" y1="25.1154639175257732" x2="9.9731958762886598" y2="25.8577319587628866" style="stroke:red;stroke-width:1" />
 <line x1="9.9731958762886598" y1="25.8577319587628866" x2="9.67628865979381444" y2="26.6742268041237113" style="stroke:red;stroke-width:1" />
 <line x1="9.67628865979381444" y1="26.6742268041237113" x2="9.52783505154639176" y2="27.1195876288659793" style="stroke:red;stroke-width:1" />
 <line x1="9.52783505154639176" y1="27.1195876288659793" x2="9.45360824742268042" y2="27.7134020618556701" style="stroke:red;stroke-width:1" />
 <line x1="9.45360824742268042" y1="27.7134020618556701" x2="9.52783505154639176" y2="28.3814432989690721" style="stroke:red;stroke-width:1" />
 <line x1="9.52783505154639176" y1="28.3814432989690721" x2="9.6020618556701031" y2="28.8268041237113402" style="stroke:red;stroke-width:1" />
 <line x1="9.6020618556701031" y1="28.8268041237113402" x2="9.67628865979381444" y2="29.1979381443298969" style="stroke:red;stroke-width:1" />
 <line x1="9.67628865979381444" y1="29.1979381443298969" x2="10.1216494845360824" y2="29.6432989690721649" style="stroke:red;stroke-width:1" />
 <line x1="10.1216494845360824" y1="29.6432989690721649" x2="10.7896907216494845" y2="30.0144329896907216" style="stroke:red;stroke-width:1" />
 <line x1="10.7896907216494845" y1="30.0144329896907216" x2="11.4577319587628865" y2="30.2371134020618556" style="stroke:red;stroke-width:1" />
 <line x1="11.4577319587628865" y1="30.2371134020618556" x2="13.090721649484536" y2="29.9402061855670103" style="stroke:red;stroke-width:1" />
 <line x1="13.090721649484536" y1="29.9402061855670103" x2="12.645360824742268" y2="29.5690721649484536" style="stroke:red;stroke-width:1" />
 <line x1="12.645360824742268" y1="29.5690721649484536" x2="12.1999999999999999" y2="29.2721649484536082" style="stroke:red;stroke-width:1" />
 <line x1="12.1999999999999999" y1="29.2721649484536082" x2="11.4577319587628865" y2="29.1237113402061855" style="stroke:red;stroke-width:1" />
 <line x1="11.4577319587628865" y1="29.1237113402061855" x2="10.7154639175257732" y2="29.0494845360824742" style="stroke:red;stroke-width:1" />
 <line x1="10.7154639175257732" y1="29.0494845360824742" x2="9.67628865979381444" y2="29.1979381443298969" style="stroke:red;stroke-width:1" />
 <line x1="13.090721649484536" y1="29.9402061855670103" x2="15.7628865979381443" y2="29.7175257731958763" style="stroke:red;stroke-width:1" />
 <line x1="15.7628865979381443" y1="29.7175257731958763" x2="17.3958762886597938" y2="29.5690721649484536" style="stroke:red;stroke-width:1" />
 <line x1="17.3958762886597938" y1="29.5690721649484536" x2="18.5092783505154639" y2="29.5690721649484536" style="stroke:red;stroke-width:1" />
 <line x1="18.5092783505154639" y1="29.5690721649484536" x2="19.622680412371134" y2="29.7175257731958763" style="stroke:red;stroke-width:1" />
 <line x1="19.622680412371134" y1="29.7175257731958763" x2="20.2164948453608247" y2="30.0144329896907216" style="stroke:red;stroke-width:1" />
 <line x1="20.2164948453608247" y1="30.0144329896907216" x2="20.7360824742268041" y2="30.3855670103092783" style="stroke:red;stroke-width:1" />
 <line x1="20.7360824742268041" y1="30.3855670103092783" x2="20.8845360824742268" y2="31.0536082474226804" style="stroke:red;stroke-width:1" />
 <line x1="20.8845360824742268" y1="31.0536082474226804" x2="20.8845360824742268" y2="31.9443298969072165" style="stroke:red;stroke-width:1" />
 <line x1="20.8845360824742268" y1="31.9443298969072165" x2="20.8103092783505154" y2="32.4639175257731959" style="stroke:red;stroke-width:1" />
 <line x1="20.8103092783505154" y1="32.4639175257731959" x2="20.5134020618556701" y2="33.1319587628865979" style="stroke:red;stroke-width:1" />
 <line x1="31.8701030927835051" y1="14.7237113402061855" x2="18.9546391752577319" y2="14.7237113402061855" style="stroke:red;stroke-width:1" />
 <line x1="18.9546391752577319" y1="14.7237113402061855" x2="19.1030927835051546" y2="13.6103092783505154" style="stroke:red;stroke-width:1" />
 <line x1="19.1030927835051546" y1="13.6103092783505154" x2="19.2515463917525773" y2="12.868041237113402" style="stroke:red;stroke-width:1" />
 <line x1="19.2515463917525773" y1="12.868041237113402" x2="19.5484536082474226" y2="12.1999999999999999" style="stroke:red;stroke-width:1" />
 <line x1="19.5484536082474226" y1="12.1999999999999999" x2="19.9195876288659793" y2="11.6061855670103092" style="stroke:red;stroke-width:1" />
 <line x1="19.9195876288659793" y1="11.6061855670103092" x2="20.2164948453608247" y2="11.0865979381443298" style="stroke:red;stroke-width:1" />
 <line x1="20.2164948453608247" y1="11.0865979381443298" x2="20.7360824742268041" y2="10.5670103092783505" style="stroke:red;stroke-width:1" />
 <line x1="20.7360824742268041" y1="10.5670103092783505" x2="21.1814432989690721" y2="10.0474226804123711" style="stroke:red;stroke-width:1" />
 <line x1="21.1814432989690721" y1="10.0474226804123711" x2="21.7752577319587628" y2="9.6020618556701031" style="stroke:red;stroke-width:1" />
 <line x1="21.7752577319587628" y1="9.6020618556701031" x2="22.2948453608247422" y2="9.30515463917525774" style="stroke:red;stroke-width:1" />
 <line x1="22.2948453608247422" y1="9.30515463917525774" x2="22.9628865979381443" y2="8.93402061855670104" style="stroke:red;stroke-width:1" />
 <line x1="22.9628865979381443" y1="8.93402061855670104" x2="23.7051546391752577" y2="8.71134020618556702" style="stroke:red;stroke-width:1" />
 <line x1="23.7051546391752577" y1="8.71134020618556702" x2="24.2247422680412371" y2="8.63711340206185568" style="stroke:red;stroke-width:1" />
 <line x1="24.2247422680412371" y1="8.63711340206185568" x2="25.0412371134020618" y2="8.56288659793814433" style="stroke:red;stroke-width:1" />
 <line x1="25.0412371134020618" y1="8.56288659793814433" x2="25.7092783505154639" y2="8.56288659793814433" style="stroke:red;stroke-width:1" />
 <line x1="25.7092783505154639" y1="8.56288659793814433" x2="26.3030927835051546" y2="8.63711340206185568" style="stroke:red;stroke-width:1" />
 <line x1="26.3030927835051546" y1="8.63711340206185568" x2="26.9711340206185567" y2="8.71134020618556702" style="stroke:red;stroke-width:1" />
 <line x1="26.9711340206185567" y1="8.71134020618556702" x2="27.7134020618556701" y2="8.93402061855670104" style="stroke:red;stroke-width:1" />
 <line x1="27.7134020618556701" y1="8.93402061855670104" x2="28.2329896907216495" y2="9.15670103092783506" style="stroke:red;stroke-width:1" />
 <line x1="28.2329896907216495" y1="9.15670103092783506" x2="28.8268041237113402" y2="9.52783505154639176" style="stroke:red;stroke-width:1" />
 <line x1="28.8268041237113402" y1="9.52783505154639176" x2="29.4206185567010309" y2="9.89896907216494846" style="stroke:red;stroke-width:1" />
 <line x1="29.4206185567010309" y1="9.89896907216494846" x2="29.9402061855670103" y2="10.3443298969072165" style="stroke:red;stroke-width:1" />
 <line x1="29.9402061855670103" y1="10.3443298969072165" x2="30.311340206185567" y2="10.8639175257731958" style="stroke:red;stroke-width:1" />
 <line x1="30.311340206185567" y1="10.8639175257731958" x2="30.756701030927835" y2="11.4577319587628865" style="stroke:red;stroke-width:1" />
 <line x1="30.756701030927835" y1="11.4577319587628865" x2="31.2020618556701031" y2="12.0515463917525772" style="stroke:red;stroke-width:1" />
 <line x1="31.2020618556701031" y1="12.0515463917525772" x2="31.4247422680412371" y2="12.645360824742268" style="stroke:red;stroke-width:1" />
 <line x1="31.4247422680412371" y1="12.645360824742268" x2="31.7216494845360825" y2="13.3876288659793814" style="stroke:red;stroke-width:1" />
 <line x1="31.7216494845360825" y1="13.3876288659793814" x2="31.7958762886597938" y2="14.0556701030927834" style="stroke:red;stroke-width:1" />
 <line x1="31.7958762886597938" y1="14.0556701030927834" x2="31.8701030927835051" y2="14.7237113402061855" style="stroke:red;stroke-width:1" />

</svg>
