<!DOCTYPE svg PUBLIC "-//W3C//DTD SVG 1.1//EN" "http://www.w3.org/Graphics/SVG/1.1/DTD/svg11.dtd">
<svg width="43" height="47" xmlns="http://www.w3.org/2000/svg">
 <!-- Gardiner/Zz376515 at (0,.18181818181818182) in red, scale=.0727272727272727272, mirror=0 -->
 <line x1="5" y1="34.7454545454545454" x2="31.1818181818181817" y2="34.7454545454545454" style="stroke:red;stroke-width:1" />
 <line x1="31.1818181818181817" y1="37.9454545454545454" x2="5" y2="37.9454545454545454" style="stroke:red;stroke-width:1" />
 <line x1="5" y1="41.1454545454545453" x2="31.1818181818181817" y2="41.1454545454545453" style="stroke:red;stroke-width:1" />
 <line x1="8.19999999999999999" y1="34.7454545454545454" x2="8.19999999999999999" y2="41.1454545454545453" style="stroke:red;stroke-width:1" />
 <line x1="13.1454545454545454" y1="34.7454545454545454" x2="13.1454545454545454" y2="41.1454545454545453" style="stroke:red;stroke-width:1" />
 <line x1="18.0909090909090908" y1="34.7454545454545454" x2="18.0909090909090908" y2="41.1454545454545453" style="stroke:red;stroke-width:1" />
 <line x1="23.0363636363636363" y1="34.7454545454545454" x2="23.0363636363636363" y2="41.1454545454545453" style="stroke:red;stroke-width:1" />
 <line x1="27.9818181818181817" y1="34.7454545454545454" x2="27.9818181818181817" y2="41.1454545454545453" style="stroke:red;stroke-width:1" />
 <line x1="31.0363636363636363" y1="21.5818181818181817" x2="5" y2="21.5818181818181817" style="stroke:red;stroke-width:1" />
 <line x1="8.92727272727272726" y1="21.5818181818181817" x2="8.4909090909090909" y2="20.1999999999999999" style="stroke:red;stroke-width:1" />
 <line x1="8.4909090909090909" y1="20.1999999999999999" x2="7.76363636363636363" y2="19.0363636363636363" style="stroke:red;stroke-width:1" />
 <line x1="7.76363636363636363" y1="19.0363636363636363" x2="6.59999999999999999" y2="18.1636363636363636" style="stroke:red;stroke-width:1" />
 <line x1="6.59999999999999999" y1="18.1636363636363636" x2="5.65454545454545454" y2="18.1636363636363636" style="stroke:red;stroke-width:1" />
 <line x1="5.65454545454545454" y1="18.1636363636363636" x2="5.14545454545454545" y2="18.6727272727272726" style="stroke:red;stroke-width:1" />
 <line x1="5.14545454545454545" y1="18.6727272727272726" x2="5" y2="19.3272727272727272" style="stroke:red;stroke-width:1" />
 <line x1="5" y1="19.3272727272727272" x2="5.21818181818181818" y2="20.4909090909090908" style="stroke:red;stroke-width:1" />
 <line x1="5.21818181818181818" y1="20.4909090909090908" x2="5.58181818181818181" y2="21.5818181818181817" style="stroke:red;stroke-width:1" />
 <line x1="5.58181818181818181" y1="21.5818181818181817" x2="6.59999999999999999" y2="25.0727272727272726" style="stroke:red;stroke-width:1" />
 <line x1="6.59999999999999999" y1="25.0727272727272726" x2="8.4909090909090909" y2="25.0727272727272726" style="stroke:red;stroke-width:1" />
 <line x1="8.4909090909090909" y1="25.0727272727272726" x2="8.92727272727272726" y2="21.5818181818181817" style="stroke:red;stroke-width:1" />
 <line x1="18.0909090909090908" y1="21.5818181818181817" x2="18.0909090909090908" y2="34.8909090909090908" style="stroke:red;stroke-width:1" />
 <line x1="13.8727272727272726" y1="21.5818181818181817" x2="18.0909090909090908" y2="27.109090909090909" style="stroke:red;stroke-width:1" />
 <line x1="18.0909090909090908" y1="21.5818181818181817" x2="19.3999999999999999" y2="23.3272727272727272" style="stroke:red;stroke-width:1" />
 <line x1="19.3999999999999999" y1="23.3272727272727272" x2="20.2727272727272726" y2="25.1454545454545454" style="stroke:red;stroke-width:1" />
 <line x1="20.2727272727272726" y1="25.1454545454545454" x2="20.9999999999999999" y2="26.8909090909090908" style="stroke:red;stroke-width:1" />
 <line x1="20.9999999999999999" y1="26.8909090909090908" x2="21.2181818181818181" y2="28.0545454545454545" style="stroke:red;stroke-width:1" />
 <line x1="21.2181818181818181" y1="28.0545454545454545" x2="20.9999999999999999" y2="28.709090909090909" style="stroke:red;stroke-width:1" />
 <line x1="20.9999999999999999" y1="28.709090909090909" x2="20.5636363636363636" y2="29.1454545454545454" style="stroke:red;stroke-width:1" />
 <line x1="20.5636363636363636" y1="29.1454545454545454" x2="19.9818181818181817" y2="29.2181818181818181" style="stroke:red;stroke-width:1" />
 <line x1="19.9818181818181817" y1="29.2181818181818181" x2="19.4727272727272726" y2="28.8545454545454545" style="stroke:red;stroke-width:1" />
 <line x1="19.4727272727272726" y1="28.8545454545454545" x2="19.8363636363636363" y2="30.0909090909090908" style="stroke:red;stroke-width:1" />
 <line x1="19.8363636363636363" y1="30.0909090909090908" x2="19.9818181818181817" y2="30.8181818181818181" style="stroke:red;stroke-width:1" />
 <line x1="19.9818181818181817" y1="30.8181818181818181" x2="19.909090909090909" y2="31.4727272727272726" style="stroke:red;stroke-width:1" />
 <line x1="19.909090909090909" y1="31.4727272727272726" x2="19.3272727272727272" y2="31.6909090909090908" style="stroke:red;stroke-width:1" />
 <line x1="19.3272727272727272" y1="31.6909090909090908" x2="18.7454545454545454" y2="31.3999999999999999" style="stroke:red;stroke-width:1" />
 <line x1="18.7454545454545454" y1="31.3999999999999999" x2="18.0909090909090908" y2="30.9636363636363635" style="stroke:red;stroke-width:1" />
 <line x1="28.8545454545454545" y1="17.5818181818181817" x2="29.3636363636363635" y2="18.4545454545454545" style="stroke:red;stroke-width:1" />
 <line x1="29.3636363636363635" y1="18.4545454545454545" x2="29.8727272727272726" y2="19.1818181818181817" style="stroke:red;stroke-width:1" />
 <line x1="29.8727272727272726" y1="19.1818181818181817" x2="30.5999999999999999" y2="20.1999999999999999" style="stroke:red;stroke-width:1" />
 <line x1="30.5999999999999999" y1="20.1999999999999999" x2="30.5999999999999999" y2="20.2727272727272726" style="stroke:red;stroke-width:1" />
 <line x1="30.5999999999999999" y1="20.2727272727272726" x2="30.309090909090909" y2="20.4181818181818181" style="stroke:red;stroke-width:1" />
 <line x1="30.309090909090909" y1="20.4181818181818181" x2="26.2363636363636363" y2="20.4909090909090908" style="stroke:red;stroke-width:1" />
 <line x1="26.2363636363636363" y1="20.4909090909090908" x2="25.5818181818181817" y2="20.5636363636363636" style="stroke:red;stroke-width:1" />
 <line x1="25.5818181818181817" y1="20.5636363636363636" x2="25.0727272727272726" y2="20.8545454545454545" style="stroke:red;stroke-width:1" />
 <line x1="25.0727272727272726" y1="20.8545454545454545" x2="24.9272727272727272" y2="21.2181818181818181" style="stroke:red;stroke-width:1" />
 <line x1="24.9272727272727272" y1="21.2181818181818181" x2="24.8545454545454545" y2="21.509090909090909" style="stroke:red;stroke-width:1" />
 <line x1="24.8545454545454545" y1="21.509090909090909" x2="33.3636363636363635" y2="21.509090909090909" style="stroke:red;stroke-width:1" />
 <line x1="32.5636363636363635" y1="17.5818181818181817" x2="33.3636363636363635" y2="21.509090909090909" style="stroke:red;stroke-width:1" />
 <line x1="33.3636363636363635" y1="21.509090909090909" x2="34.1636363636363635" y2="24.8545454545454545" style="stroke:red;stroke-width:1" />
 <line x1="34.1636363636363635" y1="24.8545454545454545" x2="34.9636363636363635" y2="27.7636363636363635" style="stroke:red;stroke-width:1" />
 <line x1="34.9636363636363635" y1="27.7636363636363635" x2="35.6181818181818181" y2="30.1636363636363635" style="stroke:red;stroke-width:1" />
 <line x1="35.6181818181818181" y1="30.1636363636363635" x2="35.9818181818181817" y2="31.109090909090909" style="stroke:red;stroke-width:1" />
 <line x1="35.9818181818181817" y1="31.109090909090909" x2="36.4181818181818181" y2="31.5454545454545454" style="stroke:red;stroke-width:1" />
 <line x1="36.4181818181818181" y1="31.5454545454545454" x2="36.8545454545454544" y2="31.8363636363636363" style="stroke:red;stroke-width:1" />
 <line x1="36.8545454545454544" y1="31.8363636363636363" x2="37.2909090909090908" y2="31.8363636363636363" style="stroke:red;stroke-width:1" />
 <line x1="37.2909090909090908" y1="31.8363636363636363" x2="37.7272727272727272" y2="31.4727272727272726" style="stroke:red;stroke-width:1" />
 <line x1="37.7272727272727272" y1="31.4727272727272726" x2="37.8727272727272726" y2="30.8909090909090908" style="stroke:red;stroke-width:1" />
 <line x1="37.8727272727272726" y1="30.8909090909090908" x2="37.7999999999999999" y2="30.3818181818181817" style="stroke:red;stroke-width:1" />
 <line x1="37.7999999999999999" y1="30.3818181818181817" x2="37.2909090909090908" y2="29.2181818181818181" style="stroke:red;stroke-width:1" />
 <line x1="37.2909090909090908" y1="29.2181818181818181" x2="36.4909090909090908" y2="27.0363636363636363" style="stroke:red;stroke-width:1" />
 <line x1="36.4909090909090908" y1="27.0363636363636363" x2="35.6181818181818181" y2="24.9999999999999999" style="stroke:red;stroke-width:1" />
 <line x1="35.6181818181818181" y1="24.9999999999999999" x2="34.7454545454545454" y2="22.8181818181818181" style="stroke:red;stroke-width:1" />
 <line x1="34.7454545454545454" y1="22.8181818181818181" x2="33.8727272727272726" y2="20.1999999999999999" style="stroke:red;stroke-width:1" />
 <line x1="33.8727272727272726" y1="20.1999999999999999" x2="33.2181818181818181" y2="18.5999999999999999" style="stroke:red;stroke-width:1" />
 <line x1="33.2181818181818181" y1="18.5999999999999999" x2="32.5636363636363635" y2="17.5818181818181817" style="stroke:red;stroke-width:1" />
 <line x1="32.5636363636363635" y1="17.5818181818181817" x2="31.7636363636363635" y2="16.4909090909090908" style="stroke:red;stroke-width:1" />
 <line x1="31.7636363636363635" y1="16.4909090909090908" x2="30.8909090909090908" y2="15.909090909090909" style="stroke:red;stroke-width:1" />
 <line x1="30.8909090909090908" y1="15.909090909090909" x2="30.0909090909090908" y2="15.5454545454545454" style="stroke:red;stroke-width:1" />
 <line x1="30.0909090909090908" y1="15.5454545454545454" x2="29.0727272727272726" y2="15.2545454545454545" style="stroke:red;stroke-width:1" />
 <line x1="29.0727272727272726" y1="15.2545454545454545" x2="28.4181818181818181" y2="15.2545454545454545" style="stroke:red;stroke-width:1" />
 <line x1="28.4181818181818181" y1="15.2545454545454545" x2="26.9636363636363635" y2="15.3272727272727272" style="stroke:red;stroke-width:1" />
 <line x1="26.9636363636363635" y1="15.3272727272727272" x2="25.7272727272727272" y2="15.4727272727272726" style="stroke:red;stroke-width:1" />
 <line x1="25.7272727272727272" y1="15.4727272727272726" x2="23.8363636363636363" y2="15.5454545454545454" style="stroke:red;stroke-width:1" />
 <line x1="23.8363636363636363" y1="15.5454545454545454" x2="22.2363636363636363" y2="15.5454545454545454" style="stroke:red;stroke-width:1" />
 <line x1="22.2363636363636363" y1="15.5454545454545454" x2="21.2181818181818181" y2="15.1818181818181817" style="stroke:red;stroke-width:1" />
 <line x1="21.2181818181818181" y1="15.1818181818181817" x2="20.3454545454545454" y2="14.5999999999999999" style="stroke:red;stroke-width:1" />
 <line x1="20.3454545454545454" y1="14.5999999999999999" x2="19.1818181818181817" y2="13.3636363636363636" style="stroke:red;stroke-width:1" />
 <line x1="19.1818181818181817" y1="13.3636363636363636" x2="18.309090909090909" y2="12.3454545454545454" style="stroke:red;stroke-width:1" />
 <line x1="18.309090909090909" y1="12.3454545454545454" x2="17.2909090909090908" y2="10.8181818181818181" style="stroke:red;stroke-width:1" />
 <line x1="17.2909090909090908" y1="10.8181818181818181" x2="17.509090909090909" y2="10.1636363636363636" style="stroke:red;stroke-width:1" />
 <line x1="17.509090909090909" y1="10.1636363636363636" x2="17.6545454545454545" y2="9.2909090909090909" style="stroke:red;stroke-width:1" />
 <line x1="17.6545454545454545" y1="9.2909090909090909" x2="17.509090909090909" y2="8.12727272727272726" style="stroke:red;stroke-width:1" />
 <line x1="17.509090909090909" y1="8.12727272727272726" x2="17.2909090909090908" y2="7.10909090909090908" style="stroke:red;stroke-width:1" />
 <line x1="17.2909090909090908" y1="7.10909090909090908" x2="16.9999999999999999" y2="6.01818181818181818" style="stroke:red;stroke-width:1" />
 <line x1="16.9999999999999999" y1="6.01818181818181818" x2="16.6363636363636363" y2="5" style="stroke:red;stroke-width:1" />
 <line x1="16.6363636363636363" y1="5" x2="16.3454545454545454" y2="6.30909090909090908" style="stroke:red;stroke-width:1" />
 <line x1="16.3454545454545454" y1="6.30909090909090908" x2="15.1818181818181817" y2="9.43636363636363635" style="stroke:red;stroke-width:1" />
 <line x1="15.1818181818181817" y1="9.43636363636363635" x2="15.0363636363636363" y2="9.72727272727272726" style="stroke:red;stroke-width:1" />
 <line x1="15.0363636363636363" y1="9.72727272727272726" x2="14.6727272727272726" y2="9.87272727272727272" style="stroke:red;stroke-width:1" />
 <line x1="14.6727272727272726" y1="9.87272727272727272" x2="13.7999999999999999" y2="10.0181818181818181" style="stroke:red;stroke-width:1" />
 <line x1="13.7999999999999999" y1="10.0181818181818181" x2="12.9999999999999999" y2="10.4545454545454545" style="stroke:red;stroke-width:1" />
 <line x1="12.9999999999999999" y1="10.4545454545454545" x2="12.4909090909090909" y2="10.6727272727272727" style="stroke:red;stroke-width:1" />
 <line x1="12.4909090909090909" y1="10.6727272727272727" x2="12.1272727272727272" y2="11.109090909090909" style="stroke:red;stroke-width:1" />
 <line x1="12.1272727272727272" y1="11.109090909090909" x2="11.9818181818181818" y2="11.2545454545454545" style="stroke:red;stroke-width:1" />
 <line x1="11.9818181818181818" y1="11.2545454545454545" x2="11.6909090909090909" y2="11.3272727272727272" style="stroke:red;stroke-width:1" />
 <line x1="11.6909090909090909" y1="11.3272727272727272" x2="10.0181818181818181" y2="11.909090909090909" style="stroke:red;stroke-width:1" />
 <line x1="10.0181818181818181" y1="11.909090909090909" x2="9.87272727272727272" y2="12.0545454545454545" style="stroke:red;stroke-width:1" />
 <line x1="9.87272727272727272" y1="12.0545454545454545" x2="9.79999999999999999" y2="12.2727272727272727" style="stroke:red;stroke-width:1" />
 <line x1="9.79999999999999999" y1="12.2727272727272727" x2="9.94545454545454544" y2="12.5636363636363636" style="stroke:red;stroke-width:1" />
 <line x1="9.94545454545454544" y1="12.5636363636363636" x2="10.0909090909090909" y2="12.6363636363636363" style="stroke:red;stroke-width:1" />
 <line x1="10.0909090909090909" y1="12.6363636363636363" x2="14.309090909090909" y2="12.9272727272727272" style="stroke:red;stroke-width:1" />
 <line x1="14.309090909090909" y1="12.9272727272727272" x2="14.8181818181818181" y2="12.9272727272727272" style="stroke:red;stroke-width:1" />
 <line x1="14.8181818181818181" y1="12.9272727272727272" x2="15.3999999999999999" y2="13.1454545454545454" style="stroke:red;stroke-width:1" />
 <line x1="15.3999999999999999" y1="13.1454545454545454" x2="15.9818181818181817" y2="13.6545454545454545" style="stroke:red;stroke-width:1" />
 <line x1="15.9818181818181817" y1="13.6545454545454545" x2="16.4181818181818181" y2="14.2363636363636363" style="stroke:red;stroke-width:1" />
 <line x1="16.4181818181818181" y1="14.2363636363636363" x2="16.8545454545454545" y2="15.0363636363636363" style="stroke:red;stroke-width:1" />
 <line x1="16.8545454545454545" y1="15.0363636363636363" x2="17.3636363636363636" y2="16.2727272727272726" style="stroke:red;stroke-width:1" />
 <line x1="17.3636363636363636" y1="16.2727272727272726" x2="17.3636363636363636" y2="16.5636363636363636" style="stroke:red;stroke-width:1" />
 <line x1="17.3636363636363636" y1="16.5636363636363636" x2="17.2909090909090908" y2="16.9272727272727272" style="stroke:red;stroke-width:1" />
 <line x1="17.2909090909090908" y1="16.9272727272727272" x2="15.3272727272727272" y2="20.1999999999999999" style="stroke:red;stroke-width:1" />
 <line x1="15.3272727272727272" y1="20.1999999999999999" x2="15.1818181818181817" y2="20.4181818181818181" style="stroke:red;stroke-width:1" />
 <line x1="15.1818181818181817" y1="20.4181818181818181" x2="15.0363636363636363" y2="20.5636363636363636" style="stroke:red;stroke-width:1" />
 <line x1="15.0363636363636363" y1="20.5636363636363636" x2="10.0181818181818181" y2="20.6363636363636363" style="stroke:red;stroke-width:1" />
 <line x1="10.0181818181818181" y1="20.6363636363636363" x2="9.65454545454545454" y2="20.709090909090909" style="stroke:red;stroke-width:1" />
 <line x1="9.65454545454545454" y1="20.709090909090909" x2="9.36363636363636363" y2="20.9272727272727272" style="stroke:red;stroke-width:1" />
 <line x1="9.36363636363636363" y1="20.9272727272727272" x2="9.14545454545454545" y2="21.2181818181818181" style="stroke:red;stroke-width:1" />
 <line x1="9.14545454545454545" y1="21.2181818181818181" x2="9.07272727272727272" y2="21.509090909090909" style="stroke:red;stroke-width:1" />
 <line x1="9.07272727272727272" y1="21.509090909090909" x2="16.6363636363636363" y2="21.509090909090909" style="stroke:red;stroke-width:1" />
 <line x1="16.6363636363636363" y1="21.509090909090909" x2="17.3636363636363636" y2="20.6363636363636363" style="stroke:red;stroke-width:1" />
 <line x1="17.3636363636363636" y1="20.6363636363636363" x2="17.6545454545454545" y2="20.4909090909090908" style="stroke:red;stroke-width:1" />
 <line x1="17.6545454545454545" y1="20.4909090909090908" x2="17.9454545454545454" y2="20.4181818181818181" style="stroke:red;stroke-width:1" />
 <line x1="17.9454545454545454" y1="20.4181818181818181" x2="18.5999999999999999" y2="20.5636363636363636" style="stroke:red;stroke-width:1" />
 <line x1="18.5999999999999999" y1="20.5636363636363636" x2="19.909090909090909" y2="20.9272727272727272" style="stroke:red;stroke-width:1" />
 <line x1="19.909090909090909" y1="20.9272727272727272" x2="21.2181818181818181" y2="21.2181818181818181" style="stroke:red;stroke-width:1" />
 <line x1="21.2181818181818181" y1="21.2181818181818181" x2="22.309090909090909" y2="20.9999999999999999" style="stroke:red;stroke-width:1" />
 <line x1="22.309090909090909" y1="20.9999999999999999" x2="23.4727272727272726" y2="20.6363636363636363" style="stroke:red;stroke-width:1" />
 <line x1="23.4727272727272726" y1="20.6363636363636363" x2="24.7818181818181817" y2="20.0545454545454545" style="stroke:red;stroke-width:1" />
 <line x1="24.7818181818181817" y1="20.0545454545454545" x2="26.0909090909090908" y2="19.6909090909090908" style="stroke:red;stroke-width:1" />
 <line x1="26.0909090909090908" y1="19.6909090909090908" x2="27.2545454545454545" y2="19.3999999999999999" style="stroke:red;stroke-width:1" />
 <line x1="27.2545454545454545" y1="19.3999999999999999" x2="28.4909090909090908" y2="19.2545454545454545" style="stroke:red;stroke-width:1" />
 <line x1="28.4909090909090908" y1="19.2545454545454545" x2="29.8727272727272726" y2="19.1818181818181817" style="stroke:red;stroke-width:1" />

</svg>
