<!DOCTYPE svg PUBLIC "-//W3C//DTD SVG 1.1//EN" "http://www.w3.org/Graphics/SVG/1.1/DTD/svg11.dtd">
<svg width="34" height="46" xmlns="http://www.w3.org/2000/svg">
 <!-- Gardiner/Zz376515 at (0,.7142857142857143) in red, scale=.0514285714285714284, mirror=0 -->
 <line x1="5" y1="35.3428571428571426" x2="28.1428571428571426" y2="35.3428571428571426" style="stroke:red;stroke-width:1" />
 <line x1="28.1428571428571426" y1="38.1714285714285712" x2="5" y2="38.1714285714285712" style="stroke:red;stroke-width:1" />
 <line x1="5" y1="40.9999999999999997" x2="28.1428571428571426" y2="40.9999999999999997" style="stroke:red;stroke-width:1" />
 <line x1="7.82857142857142856" y1="35.3428571428571426" x2="7.82857142857142856" y2="40.9999999999999997" style="stroke:red;stroke-width:1" />
 <line x1="12.1999999999999999" y1="35.3428571428571426" x2="12.1999999999999999" y2="40.9999999999999997" style="stroke:red;stroke-width:1" />
 <line x1="16.5714285714285713" y1="35.3428571428571426" x2="16.5714285714285713" y2="40.9999999999999997" style="stroke:red;stroke-width:1" />
 <line x1="20.9428571428571427" y1="35.3428571428571426" x2="20.9428571428571427" y2="40.9999999999999997" style="stroke:red;stroke-width:1" />
 <line x1="25.3142857142857141" y1="35.3428571428571426" x2="25.3142857142857141" y2="40.9999999999999997" style="stroke:red;stroke-width:1" />
 <line x1="28.0399999999999998" y1="23.5657142857142855" x2="5" y2="23.5657142857142855" style="stroke:red;stroke-width:1" />
 <line x1="8.49714285714285713" y1="23.5657142857142855" x2="8.0857142857142857" y2="22.3314285714285712" style="stroke:red;stroke-width:1" />
 <line x1="8.0857142857142857" y1="22.3314285714285712" x2="7.41714285714285713" y2="21.3028571428571427" style="stroke:red;stroke-width:1" />
 <line x1="7.41714285714285713" y1="21.3028571428571427" x2="6.38857142857142856" y2="20.5314285714285712" style="stroke:red;stroke-width:1" />
 <line x1="6.38857142857142856" y1="20.5314285714285712" x2="5.56571428571428571" y2="20.5314285714285712" style="stroke:red;stroke-width:1" />
 <line x1="5.56571428571428571" y1="20.5314285714285712" x2="5.10285714285714285" y2="20.9942857142857141" style="stroke:red;stroke-width:1" />
 <line x1="5.10285714285714285" y1="20.9942857142857141" x2="5" y2="21.6114285714285712" style="stroke:red;stroke-width:1" />
 <line x1="5" y1="21.6114285714285712" x2="5.20571428571428571" y2="22.6399999999999998" style="stroke:red;stroke-width:1" />
 <line x1="5.20571428571428571" y1="22.6399999999999998" x2="5.51428571428571428" y2="23.5657142857142855" style="stroke:red;stroke-width:1" />
 <line x1="5.51428571428571428" y1="23.5657142857142855" x2="6.43999999999999999" y2="26.6514285714285712" style="stroke:red;stroke-width:1" />
 <line x1="6.43999999999999999" y1="26.6514285714285712" x2="8.0857142857142857" y2="26.6514285714285712" style="stroke:red;stroke-width:1" />
 <line x1="8.0857142857142857" y1="26.6514285714285712" x2="8.49714285714285713" y2="23.5657142857142855" style="stroke:red;stroke-width:1" />
 <line x1="16.5714285714285713" y1="23.5657142857142855" x2="16.5714285714285713" y2="35.3428571428571426" style="stroke:red;stroke-width:1" />
 <line x1="12.8171428571428571" y1="23.5657142857142855" x2="16.5714285714285713" y2="28.4514285714285712" style="stroke:red;stroke-width:1" />
 <line x1="16.5714285714285713" y1="23.5657142857142855" x2="17.7542857142857141" y2="25.1085714285714284" style="stroke:red;stroke-width:1" />
 <line x1="17.7542857142857141" y1="25.1085714285714284" x2="18.5257142857142855" y2="26.7542857142857141" style="stroke:red;stroke-width:1" />
 <line x1="18.5257142857142855" y1="26.7542857142857141" x2="19.1428571428571427" y2="28.2971428571428569" style="stroke:red;stroke-width:1" />
 <line x1="19.1428571428571427" y1="28.2971428571428569" x2="19.3485714285714284" y2="29.2742857142857141" style="stroke:red;stroke-width:1" />
 <line x1="19.3485714285714284" y1="29.2742857142857141" x2="19.1428571428571427" y2="29.8914285714285712" style="stroke:red;stroke-width:1" />
 <line x1="19.1428571428571427" y1="29.8914285714285712" x2="18.7828571428571427" y2="30.2514285714285712" style="stroke:red;stroke-width:1" />
 <line x1="18.7828571428571427" y1="30.2514285714285712" x2="18.2685714285714284" y2="30.3028571428571426" style="stroke:red;stroke-width:1" />
 <line x1="18.2685714285714284" y1="30.3028571428571426" x2="17.8057142857142855" y2="29.9942857142857141" style="stroke:red;stroke-width:1" />
 <line x1="17.8057142857142855" y1="29.9942857142857141" x2="18.1142857142857141" y2="31.0742857142857141" style="stroke:red;stroke-width:1" />
 <line x1="18.1142857142857141" y1="31.0742857142857141" x2="18.217142857142857" y2="31.7428571428571426" style="stroke:red;stroke-width:1" />
 <line x1="18.217142857142857" y1="31.7428571428571426" x2="18.1657142857142855" y2="32.3085714285714283" style="stroke:red;stroke-width:1" />
 <line x1="18.1657142857142855" y1="32.3085714285714283" x2="17.6514285714285712" y2="32.5142857142857141" style="stroke:red;stroke-width:1" />
 <line x1="17.6514285714285712" y1="32.5142857142857141" x2="17.137142857142857" y2="32.2571428571428569" style="stroke:red;stroke-width:1" />
 <line x1="17.137142857142857" y1="32.2571428571428569" x2="16.5714285714285713" y2="31.8457142857142855" style="stroke:red;stroke-width:1" />
 <line x1="15.4914285714285713" y1="23.5142857142857141" x2="15.4399999999999998" y2="22.9999999999999998" style="stroke:red;stroke-width:1" />
 <line x1="15.4399999999999998" y1="22.9999999999999998" x2="15.2342857142857141" y2="22.2285714285714284" style="stroke:red;stroke-width:1" />
 <line x1="15.2342857142857141" y1="22.2285714285714284" x2="15.337142857142857" y2="21.6628571428571427" style="stroke:red;stroke-width:1" />
 <line x1="15.337142857142857" y1="21.6628571428571427" x2="15.4399999999999998" y2="21.1485714285714284" style="stroke:red;stroke-width:1" />
 <line x1="15.4399999999999998" y1="21.1485714285714284" x2="15.697142857142857" y2="20.737142857142857" style="stroke:red;stroke-width:1" />
 <line x1="15.697142857142857" y1="20.737142857142857" x2="16.057142857142857" y2="20.3257142857142855" style="stroke:red;stroke-width:1" />
 <line x1="16.057142857142857" y1="20.3257142857142855" x2="16.5199999999999998" y2="20.1199999999999998" style="stroke:red;stroke-width:1" />
 <line x1="16.5199999999999998" y1="20.1199999999999998" x2="16.9828571428571427" y2="20.3257142857142855" style="stroke:red;stroke-width:1" />
 <line x1="16.9828571428571427" y1="20.3257142857142855" x2="17.2914285714285712" y2="20.737142857142857" style="stroke:red;stroke-width:1" />
 <line x1="17.2914285714285712" y1="20.737142857142857" x2="17.5485714285714284" y2="21.1485714285714284" style="stroke:red;stroke-width:1" />
 <line x1="17.5485714285714284" y1="21.1485714285714284" x2="17.7028571428571427" y2="21.6628571428571427" style="stroke:red;stroke-width:1" />
 <line x1="17.7028571428571427" y1="21.6628571428571427" x2="17.7542857142857141" y2="22.2285714285714284" style="stroke:red;stroke-width:1" />
 <line x1="17.7542857142857141" y1="22.2285714285714284" x2="17.5999999999999998" y2="22.9999999999999998" style="stroke:red;stroke-width:1" />
 <line x1="17.5999999999999998" y1="22.9999999999999998" x2="17.497142857142857" y2="23.5142857142857141" style="stroke:red;stroke-width:1" />
 <line x1="16.5199999999999998" y1="20.1199999999999998" x2="16.5199999999999998" y2="9.11428571428571427" style="stroke:red;stroke-width:1" />
 <line x1="16.5199999999999998" y1="9.11428571428571427" x2="16.417142857142857" y2="8.8057142857142857" style="stroke:red;stroke-width:1" />
 <line x1="16.417142857142857" y1="8.8057142857142857" x2="16.2114285714285713" y2="8.54857142857142855" style="stroke:red;stroke-width:1" />
 <line x1="16.2114285714285713" y1="8.54857142857142855" x2="15.2342857142857141" y2="7.77714285714285713" style="stroke:red;stroke-width:1" />
 <line x1="15.2342857142857141" y1="7.77714285714285713" x2="14.7714285714285713" y2="8.4457142857142857" style="stroke:red;stroke-width:1" />
 <line x1="14.7714285714285713" y1="8.4457142857142857" x2="14.2057142857142855" y2="9.21714285714285712" style="stroke:red;stroke-width:1" />
 <line x1="14.2057142857142855" y1="9.21714285714285712" x2="13.6399999999999999" y2="10.2971428571428571" style="stroke:red;stroke-width:1" />
 <line x1="13.6399999999999999" y1="10.2971428571428571" x2="13.5371428571428571" y2="10.3999999999999999" style="stroke:red;stroke-width:1" />
 <line x1="13.5371428571428571" y1="10.3999999999999999" x2="13.3828571428571428" y2="10.3485714285714285" style="stroke:red;stroke-width:1" />
 <line x1="13.3828571428571428" y1="10.3485714285714285" x2="13.3828571428571428" y2="10.0914285714285714" style="stroke:red;stroke-width:1" />
 <line x1="13.3828571428571428" y1="10.0914285714285714" x2="13.7428571428571427" y2="9.37142857142857141" style="stroke:red;stroke-width:1" />
 <line x1="13.7428571428571427" y1="9.37142857142857141" x2="14.257142857142857" y2="8.39428571428571427" style="stroke:red;stroke-width:1" />
 <line x1="14.257142857142857" y1="8.39428571428571427" x2="14.4114285714285713" y2="8.18857142857142856" style="stroke:red;stroke-width:1" />
 <line x1="14.4114285714285713" y1="8.18857142857142856" x2="14.4628571428571427" y2="7.93142857142857141" style="stroke:red;stroke-width:1" />
 <line x1="14.4628571428571427" y1="7.93142857142857141" x2="14.5657142857142855" y2="7.57142857142857142" style="stroke:red;stroke-width:1" />
 <line x1="14.5657142857142855" y1="7.57142857142857142" x2="14.6685714285714284" y2="7.3657142857142857" style="stroke:red;stroke-width:1" />
 <line x1="14.6685714285714284" y1="7.3657142857142857" x2="14.9257142857142855" y2="7.15999999999999999" style="stroke:red;stroke-width:1" />
 <line x1="14.9257142857142855" y1="7.15999999999999999" x2="15.2857142857142855" y2="7.0057142857142857" style="stroke:red;stroke-width:1" />
 <line x1="15.2857142857142855" y1="7.0057142857142857" x2="15.7485714285714284" y2="6.49142857142857142" style="stroke:red;stroke-width:1" />
 <line x1="15.7485714285714284" y1="6.49142857142857142" x2="16.2628571428571427" y2="5.97714285714285713" style="stroke:red;stroke-width:1" />
 <line x1="16.2628571428571427" y1="5.97714285714285713" x2="16.8799999999999998" y2="5.51428571428571428" style="stroke:red;stroke-width:1" />
 <line x1="16.8799999999999998" y1="5.51428571428571428" x2="17.0857142857142855" y2="5.51428571428571428" style="stroke:red;stroke-width:1" />
 <line x1="17.0857142857142855" y1="5.51428571428571428" x2="17.1885714285714284" y2="5.66857142857142856" style="stroke:red;stroke-width:1" />
 <line x1="17.1885714285714284" y1="5.66857142857142856" x2="17.137142857142857" y2="5.82285714285714285" style="stroke:red;stroke-width:1" />
 <line x1="17.137142857142857" y1="5.82285714285714285" x2="16.5714285714285713" y2="6.33714285714285713" style="stroke:red;stroke-width:1" />
 <line x1="16.5714285714285713" y1="6.33714285714285713" x2="15.8514285714285713" y2="7.0057142857142857" style="stroke:red;stroke-width:1" />
 <line x1="15.8514285714285713" y1="7.0057142857142857" x2="15.2342857142857141" y2="7.77714285714285713" style="stroke:red;stroke-width:1" />
 <line x1="16.9314285714285712" y1="12.5599999999999999" x2="17.497142857142857" y2="12.2514285714285714" style="stroke:red;stroke-width:1" />
 <line x1="17.497142857142857" y1="12.2514285714285714" x2="17.857142857142857" y2="11.6857142857142856" style="stroke:red;stroke-width:1" />
 <line x1="17.857142857142857" y1="11.6857142857142856" x2="18.1142857142857141" y2="10.8628571428571428" style="stroke:red;stroke-width:1" />
 <line x1="18.1142857142857141" y1="10.8628571428571428" x2="18.1142857142857141" y2="10.0914285714285714" style="stroke:red;stroke-width:1" />
 <line x1="18.1142857142857141" y1="10.0914285714285714" x2="17.9085714285714284" y2="9.31999999999999998" style="stroke:red;stroke-width:1" />
 <line x1="17.9085714285714284" y1="9.31999999999999998" x2="17.7028571428571427" y2="8.49714285714285713" style="stroke:red;stroke-width:1" />
 <line x1="17.7028571428571427" y1="8.49714285714285713" x2="18.3714285714285712" y2="8.39428571428571427" style="stroke:red;stroke-width:1" />
 <line x1="18.3714285714285712" y1="8.39428571428571427" x2="19.1942857142857141" y2="8.39428571428571427" style="stroke:red;stroke-width:1" />
 <line x1="19.1942857142857141" y1="8.39428571428571427" x2="20.0685714285714284" y2="6.33714285714285713" style="stroke:red;stroke-width:1" />
 <line x1="20.0685714285714284" y1="6.33714285714285713" x2="20.4799999999999998" y2="6.33714285714285713" style="stroke:red;stroke-width:1" />
 <line x1="20.4799999999999998" y1="6.33714285714285713" x2="20.9942857142857141" y2="6.18285714285714285" style="stroke:red;stroke-width:1" />
 <line x1="20.9942857142857141" y1="6.18285714285714285" x2="21.1485714285714284" y2="5.71999999999999999" style="stroke:red;stroke-width:1" />
 <line x1="21.1485714285714284" y1="5.71999999999999999" x2="21.0457142857142855" y2="5.30857142857142857" style="stroke:red;stroke-width:1" />
 <line x1="21.0457142857142855" y1="5.30857142857142857" x2="20.737142857142857" y2="5.05142857142857142" style="stroke:red;stroke-width:1" />
 <line x1="20.737142857142857" y1="5.05142857142857142" x2="20.2742857142857141" y2="5" style="stroke:red;stroke-width:1" />
 <line x1="20.2742857142857141" y1="5" x2="19.9142857142857141" y2="5.10285714285714285" style="stroke:red;stroke-width:1" />
 <line x1="19.9142857142857141" y1="5.10285714285714285" x2="19.3999999999999998" y2="5.51428571428571428" style="stroke:red;stroke-width:1" />
 <line x1="19.3999999999999998" y1="5.51428571428571428" x2="16.5714285714285713" y2="9.06285714285714284" style="stroke:red;stroke-width:1" />
 <line x1="16.5714285714285713" y1="9.06285714285714284" x2="17.0857142857142855" y2="8.75428571428571427" style="stroke:red;stroke-width:1" />
 <line x1="17.0857142857142855" y1="8.75428571428571427" x2="17.7028571428571427" y2="8.49714285714285713" style="stroke:red;stroke-width:1" />

</svg>
