<svg width="60" height="65" xmlns="http://www.w3.org/2000/svg">
 <!-- Gardiner/A7 at (0,0) in purple, scale=.12, mirror=0 -->
 <line x1="5.24" y1="58.88" x2="5" y2="58.4" style="stroke:purple;stroke-width:1" />
 <line x1="5" y1="58.4" x2="6.68" y2="58.04" style="stroke:purple;stroke-width:1" />
 <line x1="6.68" y1="58.04" x2="8" y2="57.56" style="stroke:purple;stroke-width:1" />
 <line x1="8" y1="57.56" x2="9.8" y2="57.08" style="stroke:purple;stroke-width:1" />
 <line x1="9.8" y1="57.08" x2="11.12" y2="56.72" style="stroke:purple;stroke-width:1" />
 <line x1="11.12" y1="56.72" x2="12.08" y2="56" style="stroke:purple;stroke-width:1" />
 <line x1="12.08" y1="56" x2="12.8" y2="55.28" style="stroke:purple;stroke-width:1" />
 <line x1="12.8" y1="55.28" x2="15.8" y2="41.24" style="stroke:purple;stroke-width:1" />
 <line x1="15.8" y1="41.24" x2="16.28" y2="39.8" style="stroke:purple;stroke-width:1" />
 <line x1="16.28" y1="39.8" x2="17.24" y2="38.96" style="stroke:purple;stroke-width:1" />
 <line x1="17.24" y1="38.96" x2="18.2" y2="38.12" style="stroke:purple;stroke-width:1" />
 <line x1="18.2" y1="38.12" x2="19.16" y2="37.76" style="stroke:purple;stroke-width:1" />
 <line x1="19.16" y1="37.76" x2="20.24" y2="37.76" style="stroke:purple;stroke-width:1" />
 <line x1="20.24" y1="37.76" x2="21.8" y2="38.36" style="stroke:purple;stroke-width:1" />
 <line x1="21.8" y1="38.36" x2="24.08" y2="39.2" style="stroke:purple;stroke-width:1" />
 <line x1="24.08" y1="39.2" x2="25.76" y2="40.16" style="stroke:purple;stroke-width:1" />
 <line x1="25.76" y1="40.16" x2="27.68" y2="41.48" style="stroke:purple;stroke-width:1" />
 <line x1="27.68" y1="41.48" x2="29" y2="42.56" style="stroke:purple;stroke-width:1" />
 <line x1="29" y1="42.56" x2="30.2" y2="43.88" style="stroke:purple;stroke-width:1" />
 <line x1="30.2" y1="43.88" x2="30.08" y2="40.64" style="stroke:purple;stroke-width:1" />
 <line x1="30.08" y1="40.64" x2="30.08" y2="36.2" style="stroke:purple;stroke-width:1" />
 <line x1="30.08" y1="36.2" x2="29.96" y2="32.48" style="stroke:purple;stroke-width:1" />
 <line x1="29.96" y1="32.48" x2="29.12" y2="29.96" style="stroke:purple;stroke-width:1" />
 <line x1="29.12" y1="29.96" x2="28.4" y2="28.52" style="stroke:purple;stroke-width:1" />
 <line x1="28.4" y1="28.52" x2="27.56" y2="27.44" style="stroke:purple;stroke-width:1" />
 <line x1="27.56" y1="27.44" x2="26.24" y2="26" style="stroke:purple;stroke-width:1" />
 <line x1="26.24" y1="26" x2="23.12" y2="33.08" style="stroke:purple;stroke-width:1" />
 <line x1="23.12" y1="33.08" x2="22.52" y2="34.04" style="stroke:purple;stroke-width:1" />
 <line x1="22.52" y1="34.04" x2="21.8" y2="35" style="stroke:purple;stroke-width:1" />
 <line x1="21.8" y1="35" x2="20.6" y2="36.08" style="stroke:purple;stroke-width:1" />
 <line x1="20.6" y1="36.08" x2="19.52" y2="36.92" style="stroke:purple;stroke-width:1" />
 <line x1="19.52" y1="36.92" x2="12.68" y2="40.88" style="stroke:purple;stroke-width:1" />
 <line x1="12.68" y1="40.88" x2="12.44" y2="41.6" style="stroke:purple;stroke-width:1" />
 <line x1="12.44" y1="41.6" x2="12.2" y2="42.44" style="stroke:purple;stroke-width:1" />
 <line x1="12.2" y1="42.44" x2="11.6" y2="43.28" style="stroke:purple;stroke-width:1" />
 <line x1="11.6" y1="43.28" x2="10.88" y2="43.88" style="stroke:purple;stroke-width:1" />
 <line x1="10.88" y1="43.88" x2="10.16" y2="44.36" style="stroke:purple;stroke-width:1" />
 <line x1="10.16" y1="44.36" x2="9.32" y2="44.96" style="stroke:purple;stroke-width:1" />
 <line x1="9.32" y1="44.96" x2="8.6" y2="45.2" style="stroke:purple;stroke-width:1" />
 <line x1="8.6" y1="45.2" x2="8.12" y2="45.2" style="stroke:purple;stroke-width:1" />
 <line x1="8.12" y1="45.2" x2="8.24" y2="44.72" style="stroke:purple;stroke-width:1" />
 <line x1="8.24" y1="44.72" x2="9.56" y2="43.76" style="stroke:purple;stroke-width:1" />
 <line x1="9.56" y1="43.76" x2="10.16" y2="43.16" style="stroke:purple;stroke-width:1" />
 <line x1="10.16" y1="43.16" x2="10.76" y2="42.56" style="stroke:purple;stroke-width:1" />
 <line x1="10.76" y1="42.56" x2="11" y2="41.96" style="stroke:purple;stroke-width:1" />
 <line x1="11" y1="41.96" x2="10.88" y2="41.48" style="stroke:purple;stroke-width:1" />
 <line x1="10.88" y1="41.48" x2="10.4" y2="41.36" style="stroke:purple;stroke-width:1" />
 <line x1="10.4" y1="41.36" x2="9.32" y2="42.08" style="stroke:purple;stroke-width:1" />
 <line x1="9.32" y1="42.08" x2="8.84" y2="42.08" style="stroke:purple;stroke-width:1" />
 <line x1="8.84" y1="42.08" x2="9.56" y2="41.12" style="stroke:purple;stroke-width:1" />
 <line x1="9.56" y1="41.12" x2="10.76" y2="40.28" style="stroke:purple;stroke-width:1" />
 <line x1="10.76" y1="40.28" x2="11.48" y2="40.28" style="stroke:purple;stroke-width:1" />
 <line x1="11.48" y1="40.28" x2="14.72" y2="36.8" style="stroke:purple;stroke-width:1" />
 <line x1="14.72" y1="36.8" x2="15.44" y2="35.72" style="stroke:purple;stroke-width:1" />
 <line x1="15.44" y1="35.72" x2="17" y2="34.16" style="stroke:purple;stroke-width:1" />
 <line x1="17" y1="34.16" x2="18.2" y2="33.2" style="stroke:purple;stroke-width:1" />
 <line x1="18.2" y1="33.2" x2="19.52" y2="32.12" style="stroke:purple;stroke-width:1" />
 <line x1="19.52" y1="32.12" x2="23.6" y2="22.16" style="stroke:purple;stroke-width:1" />
 <line x1="23.6" y1="22.16" x2="24.32" y2="21.2" style="stroke:purple;stroke-width:1" />
 <line x1="24.32" y1="21.2" x2="25.04" y2="20.36" style="stroke:purple;stroke-width:1" />
 <line x1="25.04" y1="20.36" x2="25.88" y2="19.88" style="stroke:purple;stroke-width:1" />
 <line x1="25.88" y1="19.88" x2="27.68" y2="19.4" style="stroke:purple;stroke-width:1" />
 <line x1="27.68" y1="19.4" x2="30.44" y2="18.56" style="stroke:purple;stroke-width:1" />
 <line x1="30.44" y1="18.56" x2="30.56" y2="17.12" style="stroke:purple;stroke-width:1" />
 <line x1="30.56" y1="17.12" x2="30.44" y2="16.88" style="stroke:purple;stroke-width:1" />
 <line x1="30.44" y1="16.88" x2="30.08" y2="16.64" style="stroke:purple;stroke-width:1" />
 <line x1="30.08" y1="16.64" x2="28.64" y2="16.88" style="stroke:purple;stroke-width:1" />
 <line x1="28.64" y1="16.88" x2="28.4" y2="16.88" style="stroke:purple;stroke-width:1" />
 <line x1="28.4" y1="16.88" x2="28.16" y2="16.64" style="stroke:purple;stroke-width:1" />
 <line x1="28.16" y1="16.64" x2="27.68" y2="14.6" style="stroke:purple;stroke-width:1" />
 <line x1="27.68" y1="14.6" x2="26" y2="14.36" style="stroke:purple;stroke-width:1" />
 <line x1="26" y1="14.36" x2="26.6" y2="12.8" style="stroke:purple;stroke-width:1" />
 <line x1="26.6" y1="12.8" x2="27.56" y2="9.68" style="stroke:purple;stroke-width:1" />
 <line x1="27.56" y1="9.68" x2="28.28" y2="7.76" style="stroke:purple;stroke-width:1" />
 <line x1="28.28" y1="7.76" x2="29.24" y2="6.44" style="stroke:purple;stroke-width:1" />
 <line x1="29.24" y1="6.44" x2="30.44" y2="5.48" style="stroke:purple;stroke-width:1" />
 <line x1="30.44" y1="5.48" x2="31.76" y2="5" style="stroke:purple;stroke-width:1" />
 <line x1="31.76" y1="5" x2="33.08" y2="5" style="stroke:purple;stroke-width:1" />
 <line x1="33.08" y1="5" x2="34.28" y2="5.24" style="stroke:purple;stroke-width:1" />
 <line x1="34.28" y1="5.24" x2="35.36" y2="5.48" style="stroke:purple;stroke-width:1" />
 <line x1="35.36" y1="5.48" x2="36.44" y2="6.32" style="stroke:purple;stroke-width:1" />
 <line x1="36.44" y1="6.32" x2="37.52" y2="7.52" style="stroke:purple;stroke-width:1" />
 <line x1="37.52" y1="7.52" x2="37.88" y2="8.6" style="stroke:purple;stroke-width:1" />
 <line x1="37.88" y1="8.6" x2="37.88" y2="9.56" style="stroke:purple;stroke-width:1" />
 <line x1="37.88" y1="9.56" x2="37.76" y2="11.24" style="stroke:purple;stroke-width:1" />
 <line x1="37.76" y1="11.24" x2="37.4" y2="12.68" style="stroke:purple;stroke-width:1" />
 <line x1="37.4" y1="12.68" x2="36.68" y2="13.88" style="stroke:purple;stroke-width:1" />
 <line x1="36.68" y1="13.88" x2="35.72" y2="15.2" style="stroke:purple;stroke-width:1" />
 <line x1="35.72" y1="15.2" x2="35.96" y2="17.72" style="stroke:purple;stroke-width:1" />
 <line x1="35.96" y1="17.72" x2="40.52" y2="18.92" style="stroke:purple;stroke-width:1" />
 <line x1="40.52" y1="18.92" x2="41.48" y2="19.64" style="stroke:purple;stroke-width:1" />
 <line x1="41.48" y1="19.64" x2="42.56" y2="20.84" style="stroke:purple;stroke-width:1" />
 <line x1="42.56" y1="20.84" x2="43.28" y2="22.04" style="stroke:purple;stroke-width:1" />
 <line x1="43.28" y1="22.04" x2="44.12" y2="23.96" style="stroke:purple;stroke-width:1" />
 <line x1="44.12" y1="23.96" x2="44.72" y2="26.24" style="stroke:purple;stroke-width:1" />
 <line x1="44.72" y1="26.24" x2="45.44" y2="28.88" style="stroke:purple;stroke-width:1" />
 <line x1="45.44" y1="28.88" x2="45.8" y2="31.52" style="stroke:purple;stroke-width:1" />
 <line x1="45.8" y1="31.52" x2="47.96" y2="35.6" style="stroke:purple;stroke-width:1" />
 <line x1="47.96" y1="35.6" x2="49.28" y2="38" style="stroke:purple;stroke-width:1" />
 <line x1="49.28" y1="38" x2="50.36" y2="40.76" style="stroke:purple;stroke-width:1" />
 <line x1="50.36" y1="40.76" x2="50.96" y2="42.2" style="stroke:purple;stroke-width:1" />
 <line x1="50.96" y1="42.2" x2="52.28" y2="42.8" style="stroke:purple;stroke-width:1" />
 <line x1="52.28" y1="42.8" x2="53.36" y2="43.76" style="stroke:purple;stroke-width:1" />
 <line x1="53.36" y1="43.76" x2="54.08" y2="44.84" style="stroke:purple;stroke-width:1" />
 <line x1="54.08" y1="44.84" x2="54.68" y2="45.92" style="stroke:purple;stroke-width:1" />
 <line x1="54.68" y1="45.92" x2="54.68" y2="47" style="stroke:purple;stroke-width:1" />
 <line x1="54.68" y1="47" x2="54.56" y2="47.24" style="stroke:purple;stroke-width:1" />
 <line x1="54.56" y1="47.24" x2="54.2" y2="47.12" style="stroke:purple;stroke-width:1" />
 <line x1="54.2" y1="47.12" x2="53.6" y2="46.04" style="stroke:purple;stroke-width:1" />
 <line x1="53.6" y1="46.04" x2="53" y2="45.2" style="stroke:purple;stroke-width:1" />
 <line x1="53" y1="45.2" x2="52.52" y2="44.6" style="stroke:purple;stroke-width:1" />
 <line x1="52.52" y1="44.6" x2="51.68" y2="44" style="stroke:purple;stroke-width:1" />
 <line x1="51.68" y1="44" x2="51.08" y2="44.12" style="stroke:purple;stroke-width:1" />
 <line x1="51.08" y1="44.12" x2="50.72" y2="44.96" style="stroke:purple;stroke-width:1" />
 <line x1="50.72" y1="44.96" x2="50.96" y2="45.8" style="stroke:purple;stroke-width:1" />
 <line x1="50.96" y1="45.8" x2="50.6" y2="45.92" style="stroke:purple;stroke-width:1" />
 <line x1="50.6" y1="45.92" x2="50" y2="44.96" style="stroke:purple;stroke-width:1" />
 <line x1="50" y1="44.96" x2="49.88" y2="44.24" style="stroke:purple;stroke-width:1" />
 <line x1="49.88" y1="44.24" x2="49.64" y2="42.56" style="stroke:purple;stroke-width:1" />
 <line x1="49.64" y1="42.56" x2="44.72" y2="35.96" style="stroke:purple;stroke-width:1" />
 <line x1="44.72" y1="35.96" x2="44.24" y2="35.12" style="stroke:purple;stroke-width:1" />
 <line x1="44.24" y1="35.12" x2="43.52" y2="34.04" style="stroke:purple;stroke-width:1" />
 <line x1="43.52" y1="34.04" x2="42.56" y2="31.76" style="stroke:purple;stroke-width:1" />
 <line x1="42.56" y1="31.76" x2="40.76" y2="26.12" style="stroke:purple;stroke-width:1" />
 <line x1="40.76" y1="26.12" x2="40.4" y2="25.88" style="stroke:purple;stroke-width:1" />
 <line x1="40.4" y1="25.88" x2="39.8" y2="26.12" style="stroke:purple;stroke-width:1" />
 <line x1="39.8" y1="26.12" x2="38.84" y2="27.32" style="stroke:purple;stroke-width:1" />
 <line x1="38.84" y1="27.32" x2="38.48" y2="28.64" style="stroke:purple;stroke-width:1" />
 <line x1="38.48" y1="28.64" x2="38.12" y2="31.16" style="stroke:purple;stroke-width:1" />
 <line x1="38.12" y1="31.16" x2="38" y2="33.8" style="stroke:purple;stroke-width:1" />
 <line x1="38" y1="33.8" x2="38.36" y2="36.44" style="stroke:purple;stroke-width:1" />
 <line x1="38.36" y1="36.44" x2="38.72" y2="38.96" style="stroke:purple;stroke-width:1" />
 <line x1="38.72" y1="38.96" x2="39.08" y2="40.76" style="stroke:purple;stroke-width:1" />
 <line x1="39.08" y1="40.76" x2="39.8" y2="43.28" style="stroke:purple;stroke-width:1" />
 <line x1="39.8" y1="43.28" x2="40.16" y2="45.8" style="stroke:purple;stroke-width:1" />
 <line x1="40.16" y1="45.8" x2="39.92" y2="47.72" style="stroke:purple;stroke-width:1" />
 <line x1="39.92" y1="47.72" x2="39.2" y2="49.04" style="stroke:purple;stroke-width:1" />
 <line x1="39.2" y1="49.04" x2="38.36" y2="50.12" style="stroke:purple;stroke-width:1" />
 <line x1="38.36" y1="50.12" x2="39.92" y2="49.52" style="stroke:purple;stroke-width:1" />
 <line x1="39.92" y1="49.52" x2="40.28" y2="49.4" style="stroke:purple;stroke-width:1" />
 <line x1="40.28" y1="49.4" x2="40.88" y2="49.52" style="stroke:purple;stroke-width:1" />
 <line x1="40.88" y1="49.52" x2="41.24" y2="49.76" style="stroke:purple;stroke-width:1" />
 <line x1="41.24" y1="49.76" x2="41.36" y2="50.6" style="stroke:purple;stroke-width:1" />
 <line x1="41.36" y1="50.6" x2="41.36" y2="51.32" style="stroke:purple;stroke-width:1" />
 <line x1="41.36" y1="51.32" x2="40.76" y2="53" style="stroke:purple;stroke-width:1" />
 <line x1="40.76" y1="53" x2="40.4" y2="54.8" style="stroke:purple;stroke-width:1" />
 <line x1="40.4" y1="54.8" x2="40.16" y2="57.56" style="stroke:purple;stroke-width:1" />
 <line x1="40.16" y1="57.56" x2="39.56" y2="58.4" style="stroke:purple;stroke-width:1" />
 <line x1="39.56" y1="58.4" x2="38.96" y2="58.64" style="stroke:purple;stroke-width:1" />
 <line x1="38.96" y1="58.64" x2="36.92" y2="59" style="stroke:purple;stroke-width:1" />
 <line x1="36.92" y1="59" x2="36.8" y2="58.16" style="stroke:purple;stroke-width:1" />
 <line x1="36.8" y1="58.16" x2="37.76" y2="57.92" style="stroke:purple;stroke-width:1" />
 <line x1="37.76" y1="57.92" x2="38.36" y2="56.84" style="stroke:purple;stroke-width:1" />
 <line x1="38.36" y1="56.84" x2="38.84" y2="55.04" style="stroke:purple;stroke-width:1" />
 <line x1="38.84" y1="55.04" x2="38.84" y2="53.84" style="stroke:purple;stroke-width:1" />
 <line x1="38.84" y1="53.84" x2="38.36" y2="52.64" style="stroke:purple;stroke-width:1" />
 <line x1="38.36" y1="52.64" x2="35.24" y2="53.96" style="stroke:purple;stroke-width:1" />
 <line x1="35.24" y1="53.96" x2="32" y2="55.16" style="stroke:purple;stroke-width:1" />
 <line x1="32" y1="55.16" x2="30.44" y2="55.64" style="stroke:purple;stroke-width:1" />
 <line x1="30.44" y1="55.64" x2="27.92" y2="56.48" style="stroke:purple;stroke-width:1" />
 <line x1="27.92" y1="56.48" x2="24.08" y2="58.04" style="stroke:purple;stroke-width:1" />
 <line x1="24.08" y1="58.04" x2="20.72" y2="58.76" style="stroke:purple;stroke-width:1" />
 <line x1="20.72" y1="58.76" x2="19.64" y2="58.88" style="stroke:purple;stroke-width:1" />
 <line x1="19.64" y1="58.88" x2="18.68" y2="58.64" style="stroke:purple;stroke-width:1" />
 <line x1="18.68" y1="58.64" x2="17.48" y2="58.04" style="stroke:purple;stroke-width:1" />
 <line x1="17.48" y1="58.04" x2="17" y2="57.32" style="stroke:purple;stroke-width:1" />
 <line x1="17" y1="57.32" x2="16.64" y2="56.24" style="stroke:purple;stroke-width:1" />
 <line x1="16.64" y1="56.24" x2="16.64" y2="54.92" style="stroke:purple;stroke-width:1" />
 <line x1="16.64" y1="54.92" x2="17.48" y2="53.48" style="stroke:purple;stroke-width:1" />
 <line x1="17.48" y1="53.48" x2="18.44" y2="52.4" style="stroke:purple;stroke-width:1" />
 <line x1="18.44" y1="52.4" x2="19.4" y2="51.56" style="stroke:purple;stroke-width:1" />
 <line x1="19.4" y1="51.56" x2="20.6" y2="50.48" style="stroke:purple;stroke-width:1" />
 <line x1="20.6" y1="50.48" x2="21.92" y2="49.52" style="stroke:purple;stroke-width:1" />
 <line x1="21.92" y1="49.52" x2="23" y2="48.68" style="stroke:purple;stroke-width:1" />
 <line x1="23" y1="48.68" x2="24.44" y2="47.6" style="stroke:purple;stroke-width:1" />
 <line x1="24.44" y1="47.6" x2="26.48" y2="46.52" style="stroke:purple;stroke-width:1" />
 <line x1="26.48" y1="46.52" x2="27.92" y2="45.8" style="stroke:purple;stroke-width:1" />
 <line x1="27.92" y1="45.8" x2="29.36" y2="44.84" style="stroke:purple;stroke-width:1" />
 <line x1="29.36" y1="44.84" x2="30.08" y2="44.24" style="stroke:purple;stroke-width:1" />
 <line x1="30.08" y1="44.24" x2="31.76" y2="43.28" style="stroke:purple;stroke-width:1" />
 <line x1="31.76" y1="43.28" x2="33.92" y2="42.32" style="stroke:purple;stroke-width:1" />
 <line x1="33.92" y1="42.32" x2="35.96" y2="41.6" style="stroke:purple;stroke-width:1" />
 <line x1="35.96" y1="41.6" x2="37.64" y2="41" style="stroke:purple;stroke-width:1" />
 <line x1="37.64" y1="41" x2="39.08" y2="40.88" style="stroke:purple;stroke-width:1" />
 <line x1="24.44" y1="47.72" x2="21.8" y2="45.08" style="stroke:purple;stroke-width:1" />
 <line x1="21.8" y1="45.08" x2="19.64" y2="43.88" style="stroke:purple;stroke-width:1" />
 <line x1="19.64" y1="43.88" x2="19.52" y2="46.28" style="stroke:purple;stroke-width:1" />
 <line x1="19.52" y1="46.28" x2="19.04" y2="48.08" style="stroke:purple;stroke-width:1" />
 <line x1="19.04" y1="48.08" x2="18.44" y2="49.88" style="stroke:purple;stroke-width:1" />
 <line x1="18.44" y1="49.88" x2="17.36" y2="51.92" style="stroke:purple;stroke-width:1" />
 <line x1="17.36" y1="51.92" x2="16.28" y2="53.72" style="stroke:purple;stroke-width:1" />
 <line x1="16.28" y1="53.72" x2="15.32" y2="55.76" style="stroke:purple;stroke-width:1" />
 <line x1="15.32" y1="55.76" x2="15.08" y2="57.44" style="stroke:purple;stroke-width:1" />
 <line x1="15.08" y1="57.44" x2="14.96" y2="58.4" style="stroke:purple;stroke-width:1" />
 <line x1="14.96" y1="58.4" x2="14.6" y2="58.64" style="stroke:purple;stroke-width:1" />
 <line x1="14.6" y1="58.64" x2="14" y2="59" style="stroke:purple;stroke-width:1" />
 <line x1="14" y1="59" x2="13.28" y2="58.88" style="stroke:purple;stroke-width:1" />
 <line x1="13.28" y1="58.88" x2="11.48" y2="58.64" style="stroke:purple;stroke-width:1" />
 <line x1="11.48" y1="58.64" x2="9.56" y2="58.64" style="stroke:purple;stroke-width:1" />
 <line x1="9.56" y1="58.64" x2="8.24" y2="58.88" style="stroke:purple;stroke-width:1" />
 <line x1="8.24" y1="58.88" x2="7.28" y2="59" style="stroke:purple;stroke-width:1" />
 <line x1="7.28" y1="59" x2="5.12" y2="58.88" style="stroke:purple;stroke-width:1" />
 <line x1="21.56" y1="55.76" x2="23" y2="54.68" style="stroke:purple;stroke-width:1" />
 <line x1="23" y1="54.68" x2="25.28" y2="53.48" style="stroke:purple;stroke-width:1" />
 <line x1="25.28" y1="53.48" x2="27.44" y2="52.52" style="stroke:purple;stroke-width:1" />
 <line x1="27.44" y1="52.52" x2="29.96" y2="51.8" style="stroke:purple;stroke-width:1" />
 <line x1="29.96" y1="51.8" x2="32.72" y2="50.96" style="stroke:purple;stroke-width:1" />
 <line x1="32.72" y1="50.96" x2="34.88" y2="50.6" style="stroke:purple;stroke-width:1" />
 <line x1="34.88" y1="50.6" x2="37.88" y2="50.24" style="stroke:purple;stroke-width:1" />
 <line x1="37.88" y1="50.24" x2="38.48" y2="50" style="stroke:purple;stroke-width:1" />
 <line x1="27.68" y1="9.68" x2="32.72" y2="10.76" style="stroke:purple;stroke-width:1" />
 <line x1="32.72" y1="10.76" x2="33.2" y2="10.28" style="stroke:purple;stroke-width:1" />
 <line x1="33.2" y1="10.28" x2="33.92" y2="10.4" style="stroke:purple;stroke-width:1" />
 <line x1="33.92" y1="10.4" x2="34.28" y2="10.88" style="stroke:purple;stroke-width:1" />
 <line x1="34.28" y1="10.88" x2="34.28" y2="11.24" style="stroke:purple;stroke-width:1" />
 <line x1="34.28" y1="11.24" x2="34.04" y2="13.4" style="stroke:purple;stroke-width:1" />
 <line x1="34.04" y1="13.4" x2="34.04" y2="14" style="stroke:purple;stroke-width:1" />
 <line x1="34.04" y1="14" x2="34.4" y2="14.36" style="stroke:purple;stroke-width:1" />
 <line x1="34.4" y1="14.36" x2="35" y2="14.84" style="stroke:purple;stroke-width:1" />
 <line x1="35" y1="14.84" x2="35.84" y2="15.2" style="stroke:purple;stroke-width:1" />
 <line x1="28.28" y1="11.84" x2="29.12" y2="11.6" style="stroke:purple;stroke-width:1" />
 <line x1="29.12" y1="11.6" x2="30.08" y2="12.08" style="stroke:purple;stroke-width:1" />
 <line x1="30.08" y1="12.08" x2="28.52" y2="11.96" style="stroke:purple;stroke-width:1" />

</svg>
